<svg width="64" height="64" viewBox="0 0 64 64" fill="none" xmlns="http://www.w3.org/2000/svg">
<path fill-rule="evenodd" clip-rule="evenodd" d="M32 64C49.6731 64 64 49.6731 64 32C64 14.3269 49.6731 0 32 0C14.3269 0 0 14.3269 0 32C0 49.6731 14.3269 64 32 64ZM32 61.3333C48.2004 61.3333 61.3333 48.2004 61.3333 32C61.3333 15.7996 48.2004 2.66667 32 2.66667C15.7996 2.66667 2.66667 15.7996 2.66667 32C2.66667 48.2004 15.7996 61.3333 32 61.3333Z" fill="url(#paint0_linear)"/>
<path d="M35.6287 36.9132L46.4821 42.4865C47.2287 42.8866 48.1621 42.5666 48.5354 41.8199C48.9087 41.0732 48.6154 40.1399 47.8687 39.7666L37.0154 34.1932C37.0954 33.8466 37.1221 33.4732 37.1221 33.0999C37.1221 30.5399 35.3887 28.3799 33.0421 27.7132V12.1932C33.0421 11.3399 32.3487 10.6732 31.5221 10.6732C30.6687 10.6732 30.0021 11.3666 30.0021 12.1932V27.7132C28.1354 28.2465 26.5887 29.5532 26.1354 31.5799C25.7621 33.2866 26.1354 34.6199 26.1354 34.6199C26.8021 36.9666 28.9621 38.6999 31.5221 38.6999C33.1487 38.6732 34.6154 38.0066 35.6287 36.9132ZM31.5487 35.6332C30.1354 35.6332 29.0154 34.4866 29.0154 33.0999C29.0154 31.6866 30.1621 30.5666 31.5487 30.5666C32.9621 30.5666 34.0821 31.7132 34.0821 33.0999C34.0821 34.4866 32.9621 35.6332 31.5487 35.6332Z" fill="#AD86FF"/>
<defs>
<linearGradient id="paint0_linear" x1="14.6667" y1="-1.19167e-07" x2="50.6667" y2="64" gradientUnits="userSpaceOnUse">
<stop stop-color="#FFC838"/>
<stop offset="1" stop-color="#E05529"/>
</linearGradient>
</defs>
</svg>
