<svg width="424" height="424" viewBox="0 0 424 424" fill="none" xmlns="http://www.w3.org/2000/svg">
<path opacity="0.06" d="M320.61 24.6397C335.086 44.9607 318.713 78.3275 340.035 93.5006C360.791 108.27 385.838 83.4374 405.388 96.1332C434.387 114.967 430.047 202.594 388.512 257.448C376.021 273.945 365.509 280.423 361.017 298.977C351.371 338.819 386.982 362.084 380.46 381.807C365.771 426.219 133.127 465.809 38.228 333.806C-6.09441 272.155 -13.5685 182.535 24.7337 114.003C93.9458 -9.83032 288.127 -20.9571 320.61 24.6397Z" fill="url(#paint0_linear)"/>
<path d="M282.718 18.5637L224.64 14.1603C219.138 13.7433 214.65 18.2054 214.65 24.1293V42.2844C214.65 48.2083 219.138 53.2347 224.64 53.5079L282.718 56.4028C287.769 56.6544 291.838 52.2977 291.838 46.6746V29.4385C291.838 23.8142 287.769 18.9471 282.718 18.5637Z" fill="url(#paint1_linear)"/>
<path d="M274.152 82.2432L233.793 80.9551C230.992 80.8652 228.713 83.2496 228.713 86.2799V106.544C228.713 109.574 230.992 112.057 233.793 112.088L274.152 112.541C276.795 112.571 278.93 110.22 278.93 107.29V87.6998C278.93 84.7702 276.795 82.327 274.152 82.2432Z" fill="url(#paint2_linear)"/>
<path d="M255.157 78.7385L253.335 78.6761V57.3782L255.157 57.4668V78.7385Z" fill="#898989"/>
<path d="M274.152 139.903L233.793 140.203C230.992 140.224 228.713 142.698 228.713 145.728V165.992C228.713 169.023 230.992 171.415 233.793 171.336L274.152 170.2C276.795 170.126 278.93 167.691 278.93 164.762V145.171C278.93 142.243 276.795 139.884 274.152 139.903Z" fill="url(#paint3_linear)"/>
<path d="M284.249 18.6343L226.217 14.2333C220.72 13.8163 216.236 18.2772 216.236 24.1987V42.3466C216.236 48.2681 220.72 53.2922 226.217 53.5666L284.249 56.459C289.296 56.7106 293.362 52.3564 293.362 46.7344V29.5043C293.362 23.8824 289.296 19.0165 284.249 18.6343Z" fill="url(#paint4_linear)"/>
<path d="M275.69 82.2888L235.363 81.002C232.564 80.9121 230.288 83.2953 230.288 86.3244V106.581C230.288 109.61 232.564 112.092 235.363 112.123L275.69 112.576C278.331 112.606 280.465 110.255 280.465 107.326V87.7442C280.465 84.8158 278.331 82.3727 275.69 82.2888Z" fill="url(#paint5_linear)"/>
<path d="M275.69 139.925L235.363 140.226C232.564 140.247 230.288 142.72 230.288 145.749V166.004C230.288 169.033 232.564 171.425 235.363 171.346L275.69 170.211C278.331 170.137 280.465 167.703 280.465 164.774V145.191C280.465 142.264 278.331 139.906 275.69 139.925Z" fill="url(#paint6_linear)"/>
<path d="M255.157 137.146L253.335 137.155V115.857L255.157 115.874V137.146Z" fill="#898989"/>
<path d="M204.02 244.843L204.346 244.649C198.749 244.127 190.29 242.252 185.331 241.065C185.158 241.091 184.962 241.077 184.791 241.105C179.68 241.849 173.875 242.199 167.656 241.84C161.438 241.508 154.805 240.324 148.143 238.301C147.305 238.084 146.479 237.746 145.648 237.474C145.235 237.328 144.812 237.185 144.396 237.035L143.774 236.825C143.561 236.748 143.358 236.658 143.15 236.577C142.327 236.246 141.5 235.915 140.667 235.584L140.045 235.336L139.432 235.05C139.022 234.862 138.612 234.677 138.207 234.488C136.55 233.776 134.955 232.892 133.336 232.069C132.531 231.636 131.739 231.152 130.947 230.697C130.554 230.474 130.152 230.244 129.757 230.01C129.37 229.76 128.977 229.507 128.592 229.262C122.358 225.309 116.606 220.368 111.687 214.712C111.085 213.998 110.481 213.284 109.874 212.563C109.29 211.833 108.737 211.067 108.171 210.331L107.321 209.212L106.538 208.047L105.746 206.887C105.487 206.499 105.21 206.128 104.977 205.718C104.496 204.921 104.01 204.125 103.526 203.325C103.409 203.128 103.269 202.925 103.172 202.733L102.881 202.18L102.3 201.077L101.72 199.985C101.668 199.889 101.629 199.823 101.564 199.695L100.995 198.557L100.227 197.039L99.6576 195.9L99.5605 195.71L99.5256 195.642C99.5302 195.639 99.2995 195.263 99.691 195.891L98.6318 193.329C98.4618 192.904 98.2645 192.49 98.1188 192.052L97.662 190.758L97.2007 189.466L96.9715 188.823C96.8941 188.608 96.838 188.388 96.7712 188.173C96.5117 187.303 96.2492 186.435 95.9957 185.568C95.85 185.14 95.762 184.694 95.6527 184.261L95.3417 182.95L95.0139 181.651L94.765 180.336C94.6056 179.457 94.4129 178.597 94.2809 177.728C94.1595 176.859 94.0365 175.984 93.9212 175.117C93.0789 168.167 93.2808 161.344 94.3689 154.987L94.5555 153.8L94.812 152.627C94.979 151.851 95.1155 151.07 95.3098 150.311C95.3143 150.281 95.328 150.25 95.3325 150.22C95.7347 148.725 96.0716 147.254 96.5633 145.834C96.6726 145.469 96.7864 145.107 96.9047 144.748L97.0687 144.206L97.2705 143.675C97.5254 142.973 97.788 142.272 98.0414 141.576C98.1052 141.404 98.1598 141.228 98.2281 141.054L98.4481 140.551C98.5923 140.208 98.7395 139.872 98.8776 139.539C99.1766 138.872 99.4148 138.197 99.7517 137.558C102.195 132.388 105.025 127.869 108.065 124.127C111.09 120.377 114.22 117.351 117.142 114.939C117.513 114.643 117.876 114.354 118.236 114.067C118.595 113.79 118.928 113.485 119.297 113.242C120.017 112.726 120.7 112.233 121.353 111.758C122.028 111.297 122.701 110.894 123.314 110.488C123.623 110.285 123.921 110.078 124.215 109.897C124.528 109.727 124.83 109.556 125.117 109.389C125.695 109.053 126.241 108.736 126.751 108.441C126.891 108.351 126.979 108.331 127.082 108.281C127.182 108.237 127.284 108.193 127.381 108.152C127.569 108.061 127.56 108.1 127.733 108.018C127.879 107.946 127.953 107.924 127.96 107.937L143.995 134.805L152.304 107.647L171.049 44.8543L79.2068 26.2422L96.2401 54.7836C96.2643 54.8247 95.803 55.1625 95.4464 55.4364C94.6861 56.042 93.95 56.6446 93.0471 57.3629C92.6024 57.7296 92.1851 58.0674 91.707 58.4616C91.4749 58.6563 91.2533 58.839 91.009 59.0413C90.7662 59.2361 90.5036 59.4446 90.3033 59.6363C89.4383 60.4276 88.5247 61.2585 87.5489 62.1426C87.0709 62.59 86.5761 63.0419 86.0723 63.5106C85.573 63.9885 85.0783 64.4952 84.5684 65.0111C83.5531 66.0413 82.4711 67.1004 81.3966 68.2554C80.345 69.4301 79.2538 70.649 78.1187 71.9136C77.5435 72.542 77.0184 73.2283 76.4569 73.9085C75.9106 74.5857 75.3476 75.2827 74.777 75.9918C70.3001 81.6891 65.7868 88.5034 61.8518 96.3585C57.9015 104.2 54.6342 113.128 52.3988 122.739C52.0861 123.929 51.8858 125.159 51.6354 126.379C51.5201 126.991 51.3987 127.602 51.2788 128.217L51.1043 129.147L50.9616 130.075C50.781 131.32 50.5974 132.577 50.4107 133.831L50.2772 134.776L50.1831 135.73C50.1194 136.372 50.0571 137.01 49.9964 137.649C49.7051 140.19 49.6231 142.785 49.4956 145.388C49.4531 146.688 49.4714 147.997 49.4668 149.313C49.4668 149.961 49.4714 150.618 49.4683 151.279C49.4972 151.938 49.526 152.597 49.5533 153.256C49.9539 163.801 51.898 174.552 55.3656 184.845C55.8209 186.119 56.2777 187.401 56.736 188.678C57.2064 189.949 57.7543 191.2 58.2657 192.455L59.0549 194.331L59.9244 196.177L60.7955 198.015C61.0884 198.627 61.3661 199.242 61.6954 199.837C62.3343 201.028 62.8898 202.275 63.5317 203.469C63.6895 203.762 63.7548 204.122 63.9278 204.411L64.4498 205.285L65.582 206.96L66.6746 208.66C67.0206 209.24 67.444 209.772 67.8158 210.331L70.0816 213.656C70.5611 214.432 70.2622 213.913 70.3866 214.111L70.4519 214.193L70.5824 214.365L70.8449 214.695L71.3685 215.368L72.4095 216.705L72.9331 217.378L73.1926 217.71L73.5189 218.117L74.8786 219.785L76.246 221.447L76.9289 222.267C77.155 222.536 77.3796 222.762 77.6057 223.013C78.5072 223.985 79.4116 224.956 80.3085 225.93C80.7501 226.418 81.2343 226.87 81.7032 227.331L83.1206 228.715L84.5304 230.086L86.001 231.393C86.9843 232.254 87.9511 233.132 88.9511 233.957C89.9679 234.771 90.9801 235.578 91.9909 236.384C100.19 242.678 109.054 247.592 118.004 251.017C118.561 251.238 119.119 251.451 119.673 251.667C120.234 251.868 120.796 252.058 121.361 252.245C122.484 252.625 123.582 253.024 124.704 253.365C126.963 254.01 129.162 254.686 131.396 255.168C131.95 255.301 132.504 255.424 133.055 255.558L133.876 255.747L134.705 255.903C135.811 256.109 136.91 256.31 137.995 256.506L138.813 256.653L139.634 256.771C140.177 256.838 140.722 256.917 141.261 256.987C142.343 257.124 143.406 257.312 144.479 257.378C150.229 257.945 155.764 258.029 160.981 257.714C163.519 257.566 165.982 257.312 168.358 256.968C175.631 255.947 182.097 254.211 187.612 252.254C188.296 251.992 188.973 251.747 189.638 251.499C190.295 251.248 190.954 251.026 191.576 250.746C192.828 250.204 194.033 249.693 195.188 249.194C196.335 248.672 197.408 248.117 198.443 247.617C198.953 247.362 199.458 247.124 199.948 246.869C200.422 246.607 200.936 246.431 201.396 246.182C202.299 245.682 203.235 245.314 204.02 244.843Z" fill="url(#paint7_linear)"/>
<path opacity="0.4" d="M204.02 244.843L204.346 244.648C198.749 244.126 190.29 242.252 185.331 241.065C185.158 241.091 184.962 241.077 184.791 241.104C179.679 241.848 173.875 242.198 167.656 241.839C161.438 241.507 154.805 240.324 148.143 238.301C147.305 238.084 146.479 237.746 145.648 237.473C145.235 237.327 144.812 237.184 144.396 237.035L143.774 236.825C143.561 236.748 143.358 236.658 143.15 236.577C142.327 236.245 141.5 235.915 140.667 235.583L140.045 235.335L139.432 235.049C139.022 234.862 138.612 234.676 138.207 234.488C136.55 233.776 134.955 232.892 133.336 232.068C132.531 231.636 131.739 231.152 130.947 230.697C130.554 230.473 130.152 230.244 129.757 230.009C129.37 229.76 128.977 229.507 128.592 229.262C122.358 225.309 116.606 220.368 111.687 214.712C111.085 213.998 110.481 213.284 109.874 212.563C109.29 211.832 108.737 211.067 108.171 210.33L107.321 209.212L106.538 208.046L105.746 206.887C105.487 206.499 105.21 206.127 104.977 205.718C104.496 204.921 104.01 204.125 103.526 203.324C103.409 203.128 103.269 202.924 103.172 202.733L102.881 202.18L102.3 201.077L101.72 199.984C101.668 199.888 101.629 199.823 101.564 199.695L100.995 198.557L100.227 197.038L99.6576 195.9L99.5605 195.71L99.5256 195.641C99.5301 195.638 99.2995 195.262 99.691 195.891L98.6317 193.328C98.4617 192.904 98.2645 192.49 98.1188 192.052L97.662 190.758L97.2006 189.466L96.9715 188.822C96.8941 188.608 96.838 188.387 96.7712 188.173C96.5117 187.302 96.2491 186.435 95.9957 185.568C95.85 185.14 95.762 184.694 95.6527 184.26L95.3416 182.95L95.0138 181.651L94.7649 180.336C94.6056 179.456 94.4129 178.597 94.2808 177.728C94.1594 176.859 94.0365 175.984 93.9212 175.116C93.0789 168.167 93.2807 161.343 94.3688 154.987L94.5555 153.8L94.812 152.627C94.9789 151.851 95.1155 151.07 95.3098 150.311C95.3143 150.28 95.3279 150.25 95.3325 150.219C87.6369 171.216 89.6219 196.56 102.779 218.607C116.261 241.197 138.324 255.058 160.983 257.724C163.52 257.577 165.983 257.323 168.36 256.979C175.632 255.958 182.098 254.221 187.613 252.265C188.298 252.003 188.975 251.758 189.639 251.51C190.296 251.259 190.955 251.036 191.577 250.757C192.829 250.215 194.034 249.703 195.189 249.204C196.336 248.682 197.409 248.127 198.444 247.628C198.954 247.372 199.46 247.135 199.95 246.879C200.423 246.617 200.938 246.441 201.397 246.193C202.299 245.682 203.235 245.313 204.02 244.843Z" fill="url(#paint8_linear)"/>
<path d="M183.249 234.964C182.918 235.055 182.637 235.276 182.473 235.579C182.309 235.882 182.275 236.238 182.376 236.565L189.58 259.563C189.787 260.22 190.479 260.591 191.139 260.4L207.871 255.506C208.538 255.311 208.923 254.612 208.733 253.943L202.247 231.056C202.058 230.388 201.367 229.997 200.699 230.181L183.249 234.964Z" fill="#F4F7FA"/>
<path d="M184.58 236.083C184.284 236.164 184.035 236.361 183.888 236.631C183.741 236.9 183.71 237.218 183.801 237.51L190.227 258.019C190.41 258.604 191.028 258.936 191.617 258.764L206.538 254.4C207.132 254.226 207.475 253.604 207.305 253.006L201.52 232.597C201.352 232 200.736 231.653 200.139 231.816L184.58 236.083Z" fill="url(#paint9_linear)"/>
<path opacity="0.75" d="M186.812 237.226C186.584 237.288 186.392 237.44 186.278 237.647C186.164 237.854 186.138 238.099 186.207 238.324L188.24 245.014C188.377 245.464 188.846 245.726 189.301 245.604L201.208 242.401C201.432 242.34 201.624 242.193 201.739 241.99C201.854 241.788 201.885 241.547 201.821 241.322L199.932 234.534C199.803 234.07 199.324 233.799 198.862 233.925L186.812 237.226Z" fill="#F4F7FA"/>
<path opacity="0.75" d="M189.837 247.898C189.601 247.961 189.404 248.118 189.286 248.333C189.169 248.546 189.142 248.798 189.213 249.031L191.31 255.934C191.451 256.399 191.935 256.669 192.404 256.542L204.691 253.237C204.923 253.175 205.12 253.023 205.239 252.813C205.357 252.603 205.389 252.355 205.323 252.123L203.373 245.117C203.24 244.64 202.747 244.358 202.27 244.489L189.837 247.898Z" fill="#F4F7FA"/>
<path d="M280.617 246.763C281.557 247.12 295.915 252.846 298.865 267.871C299.104 269.086 301.41 281.994 292.68 291.114C282.89 301.34 264.039 301.087 256.555 292.538C254.81 290.545 253.889 288.335 253.375 286.479L255.346 281.226C257.751 278.313 261.028 277.624 262.776 277.192C267.089 276.127 270.344 278.052 272.815 275.967C274.182 274.813 274.452 273.153 274.695 271.669C275.521 266.617 272.677 263.507 272.47 260.39C272.315 258.061 271.502 252.958 274.534 249.629C276.455 247.523 279.114 246.949 280.617 246.763Z" fill="url(#paint10_linear)"/>
<path d="M286.21 414.22C286.377 413.295 289.356 412.458 290.831 413.696C291.564 414.311 292.068 415.559 291.645 416.122C291.49 416.328 292.121 416.687 291.517 416.694C289.511 416.717 286.045 415.139 286.21 414.22Z" fill="url(#paint11_linear)"/>
<path d="M289.334 414.556L292.397 414.122C290.979 412.409 291.241 406.952 291.241 406.952L287.983 407.681C287.983 407.681 288.355 409.178 288.986 411.388C289.201 412.144 289.299 413.328 289.334 414.556Z" fill="url(#paint12_linear)"/>
<path d="M289.062 414.177C289.062 414.177 292.751 413.325 293.15 414.059C293.549 414.792 293.859 416.757 291.519 416.693C289.177 416.63 288.854 414.8 289.062 414.177Z" fill="url(#paint13_linear)"/>
<path d="M244.172 417.688C244.466 416.796 247.533 416.385 248.822 417.819C249.461 418.531 249.787 419.836 249.288 420.334C249.107 420.515 249.681 420.961 249.081 420.883C247.09 420.625 243.879 418.575 244.172 417.688Z" fill="url(#paint14_linear)"/>
<path d="M191.136 261.135L188.336 259.789C187.9 259.441 187.235 258.822 186.732 257.874C185.901 256.312 185.915 254.622 185.926 254.62C185.932 254.619 185.798 252.347 186.759 251.963C186.885 251.913 187.031 251.896 187.198 251.924L188.193 254.553C188.193 254.553 188.352 255.698 190.152 256.885C191.937 258.443 192.655 259.867 192.655 259.867L191.136 261.135Z" fill="url(#paint15_linear)"/>
<path d="M247.216 418.459H250.311C249.145 416.563 250.166 411.196 250.166 411.196L246.838 411.461C246.838 411.461 246.996 412.996 247.313 415.273C247.423 416.053 247.353 417.239 247.216 418.459Z" fill="url(#paint16_linear)"/>
<path d="M239.197 301.127C237.763 305.874 235.717 313.534 234.399 323.145C230.64 350.559 238.628 351.434 237.136 381.812C236.66 391.508 245.515 413.869 246.295 414.363C246.673 414.4 247.083 414.424 247.52 414.412C248.289 414.389 249.376 414.27 250.638 413.89C252.041 413.648 257.097 399.913 255.926 391.747C255.095 385.968 255.337 379.765 255.818 367.36C255.895 365.35 261.025 328.254 261.025 328.254C262.585 341.984 264.378 353.651 265.934 362.698C270.931 391.76 287.18 409.349 288.027 409.632C288.194 409.699 289.719 410.255 290.965 409.431C291.52 409.065 291.709 408.591 291.709 408.591C292.143 408.25 291.581 379.577 286.625 357.997C279.431 326.676 282.564 319.345 280.284 305.355C278.314 293.251 239.197 301.127 239.197 301.127Z" fill="url(#paint17_linear)"/>
<path d="M268.254 244.32C263.479 244.18 254.227 242.615 248.181 248.071C248.077 248.165 247.588 248.702 246.978 249.419C246.412 250.084 244.469 252.414 242.709 255.562C241.434 257.842 240.282 260.5 239.121 264.461C237.073 271.447 236.485 277.396 236.29 279.987C235.185 294.562 236.281 301.287 237.275 305.86C241.592 308.084 252.719 312.064 265.978 310.085C272.033 309.183 276.879 307.162 280.287 305.359C276.847 294.914 279.547 289.324 280.82 284.173C282.636 276.828 282.665 277.384 284.16 271.548C286.626 261.92 287.031 252.082 285.336 250.069C280.764 244.642 272.529 244.446 268.254 244.32Z" fill="url(#paint18_linear)"/>
<path d="M285.335 250.071C282.769 247.023 279.049 245.626 275.522 244.962C277.175 252.362 273.42 261.424 268.323 266.234C263.568 270.722 259.193 267.742 256.041 271.484C253.438 274.575 253.353 279.597 254.666 283.04C256.442 287.698 260.273 288.152 260.073 290.781C259.809 294.266 252.821 296.86 247.681 297.346C242.311 297.853 238.032 296.147 235.909 295.118C236.124 300.048 236.715 303.294 237.272 305.861C241.589 308.086 252.716 312.065 265.975 310.087C272.03 309.183 276.874 307.164 280.284 305.361C276.844 294.916 279.544 289.326 280.817 284.175C282.633 276.83 282.662 277.385 284.157 271.55C286.625 261.922 287.03 252.084 285.335 250.071Z" fill="url(#paint19_linear)"/>
<path d="M247.001 418.047C247.001 418.047 250.772 417.721 251.065 418.503C251.358 419.286 251.39 421.275 249.081 420.883C246.773 420.492 246.708 418.634 247.001 418.047Z" fill="url(#paint20_linear)"/>
<path d="M255.616 246.067C250.393 242.658 236.733 253.338 232.597 256.282C216.563 267.701 218.484 274.824 211.201 271.268C206.277 268.864 205.609 261.616 197.192 258.89C195.705 258.408 194.424 258.213 193.6 258.125C193.59 258.131 190.822 259.607 190.809 259.612C189.826 259.931 188.844 260.249 188.019 261.098C187.21 262.783 186.468 264.836 186.094 267.228C186.173 268.078 186.34 269.488 186.723 271.189C187.038 272.596 190.735 288.008 203.587 292.755C205.949 293.627 207.909 293.878 208.9 293.998C213.124 294.511 216.951 293.884 223.495 291.623C234.579 287.792 243.041 284.201 250.523 275.419C250.88 275.001 251.168 274.59 251.455 274.149C257.018 265.59 260.659 249.355 255.616 246.067Z" fill="url(#paint21_linear)"/>
<path d="M254.813 238.83C253.334 236.322 253.992 233.456 254.141 232.837C254.763 230.246 254.994 229.852 255.475 229.304L256.153 228.584C256.153 228.584 256.196 228.552 256.24 228.522C256.712 228.196 258.474 227.668 258.853 227.648C260.067 227.587 262.539 231.955 263.955 238.687C264.07 238.927 264.184 239.171 264.297 239.416C264.999 240.942 265.602 242.444 266.118 243.909C274.326 244.605 275.466 245.571 275.502 246.129C275.58 247.304 270.903 248.66 267.385 249.177C259.714 250.303 251.827 248.275 251.863 246.84C251.878 246.216 253.403 245.402 259.908 244.548C259.756 243.469 259.604 242.391 259.451 241.312C258.923 241.19 255.903 240.677 254.813 238.83Z" fill="url(#paint22_linear)"/>
<path d="M253.27 227.335C253.824 229.389 255.373 231.328 255.961 231.548C256.036 231.577 256.469 231.764 256.92 232.163C256.98 232.218 257.04 232.285 257.102 232.375C257.895 233.551 256.246 235.625 256.797 236.098C257.196 236.442 258.443 235.506 258.706 235.826C258.953 236.126 257.98 237.145 258.267 237.507C258.484 237.781 259.123 237.306 259.7 237.661C259.987 237.838 259.972 238.041 260.401 238.699C260.644 239.072 260.95 239.467 261.163 239.676C262.193 240.694 264.318 240.598 264.574 240.012C264.646 239.849 264.524 239.759 264.514 239.279C264.514 239.279 264.504 238.833 264.665 238.271C264.896 237.468 265.767 236.705 266.585 235.706C268.098 233.852 268.301 232.563 268.35 232.133C268.367 231.979 268.373 231.866 268.377 231.784C268.461 230.138 267.872 227.911 266.828 226.723C265.08 224.734 262.8 226.508 260.094 224.798C256.971 222.824 257.463 218.854 256.043 218.81C254.475 218.763 252.246 223.536 253.27 227.335Z" fill="white"/>
<path d="M257.404 235.42C257.722 234.593 258.779 235.007 259.021 235.902C259.264 236.797 258.647 237.959 257.76 238.008C256.873 238.055 256.976 236.532 257.404 235.42Z" fill="url(#paint23_linear)"/>
<path d="M257.413 233.811L256.651 235.643C256.651 235.643 255.879 237.856 254.885 237.019C254.253 236.486 254.12 236.431 254.015 236.407C254.006 236.405 253.887 235.967 253.88 235.581C253.689 236.11 253.423 237.012 253.423 238.056C253.423 239.071 253.423 240.158 254.215 240.989C254.261 241.037 255.124 241.917 256.287 241.874C256.287 241.874 256.744 241.858 258.48 241.05C258.48 241.05 256.103 240.134 255.982 239.797C255.651 238.883 256.81 238.032 257.261 235.856C257.434 235.019 257.439 234.299 257.413 233.811Z" fill="white"/>
<defs>
<linearGradient id="paint0_linear" x1="50.4784" y1="52.2171" x2="454.494" y2="368.583" gradientUnits="userSpaceOnUse">
<stop stop-color="#F09232"/>
<stop offset="1" stop-color="#844AFF"/>
</linearGradient>
<linearGradient id="paint1_linear" x1="246.134" y1="0.86127" x2="269.395" y2="114.743" gradientUnits="userSpaceOnUse">
<stop stop-color="#AB316D"/>
<stop offset="1" stop-color="#792D3D"/>
</linearGradient>
<linearGradient id="paint2_linear" x1="264.967" y1="192.439" x2="251.139" y2="74.8216" gradientUnits="userSpaceOnUse">
<stop stop-color="#AB316D"/>
<stop offset="1" stop-color="#792D3D"/>
</linearGradient>
<linearGradient id="paint3_linear" x1="244.042" y1="114.72" x2="267.156" y2="210.765" gradientUnits="userSpaceOnUse">
<stop stop-color="#AB316D"/>
<stop offset="1" stop-color="#792D3D"/>
</linearGradient>
<linearGradient id="paint4_linear" x1="247.692" y1="0.94301" x2="270.941" y2="114.767" gradientUnits="userSpaceOnUse">
<stop stop-color="#FF9085"/>
<stop offset="1" stop-color="#FB6FBB"/>
</linearGradient>
<linearGradient id="paint5_linear" x1="266.515" y1="192.435" x2="252.694" y2="74.8719" gradientUnits="userSpaceOnUse">
<stop offset="0.003597" stop-color="#F36F56"/>
<stop offset="1" stop-color="#FFC444"/>
</linearGradient>
<linearGradient id="paint6_linear" x1="245.601" y1="114.757" x2="268.703" y2="210.754" gradientUnits="userSpaceOnUse">
<stop offset="0.00359712" stop-color="#E38DDD"/>
<stop offset="1" stop-color="#9571F6"/>
</linearGradient>
<linearGradient id="paint7_linear" x1="122.355" y1="163.436" x2="5.67795" y2="330.703" gradientUnits="userSpaceOnUse">
<stop offset="0.00359712" stop-color="#E38DDD"/>
<stop offset="1" stop-color="#9571F6"/>
</linearGradient>
<linearGradient id="paint8_linear" x1="158.454" y1="177.064" x2="128.653" y2="247.127" gradientUnits="userSpaceOnUse">
<stop offset="0.00359712" stop-color="#6165D7"/>
<stop offset="1" stop-color="#AA80F9"/>
</linearGradient>
<linearGradient id="paint9_linear" x1="179.153" y1="218.047" x2="215.82" y2="277.485" gradientUnits="userSpaceOnUse">
<stop stop-color="#FF9085"/>
<stop offset="1" stop-color="#FB6FBB"/>
</linearGradient>
<linearGradient id="paint10_linear" x1="253.375" y1="272.819" x2="299.316" y2="272.819" gradientUnits="userSpaceOnUse">
<stop stop-color="#FFC838"/>
<stop offset="1" stop-color="#E05529"/>
</linearGradient>
<linearGradient id="paint11_linear" x1="284.556" y1="411.55" x2="291.127" y2="415.905" gradientUnits="userSpaceOnUse">
<stop stop-color="#444B8C"/>
<stop offset="0.9964" stop-color="#26264F"/>
</linearGradient>
<linearGradient id="paint12_linear" x1="290.903" y1="415.962" x2="289.461" y2="405.784" gradientUnits="userSpaceOnUse">
<stop stop-color="#FFC444"/>
<stop offset="0.9964" stop-color="#F36F56"/>
</linearGradient>
<linearGradient id="paint13_linear" x1="285.049" y1="410.807" x2="291.62" y2="415.161" gradientUnits="userSpaceOnUse">
<stop stop-color="#444B8C"/>
<stop offset="0.9964" stop-color="#26264F"/>
</linearGradient>
<linearGradient id="paint14_linear" x1="242.906" y1="414.813" x2="248.805" y2="420.045" gradientUnits="userSpaceOnUse">
<stop stop-color="#444B8C"/>
<stop offset="0.9964" stop-color="#26264F"/>
</linearGradient>
<linearGradient id="paint15_linear" x1="185.652" y1="253.971" x2="192.006" y2="259.632" gradientUnits="userSpaceOnUse">
<stop stop-color="#FFC444"/>
<stop offset="0.9964" stop-color="#F36F56"/>
</linearGradient>
<linearGradient id="paint16_linear" x1="248.575" y1="420.072" x2="248.575" y2="409.792" gradientUnits="userSpaceOnUse">
<stop stop-color="#FFC444"/>
<stop offset="0.9964" stop-color="#F36F56"/>
</linearGradient>
<linearGradient id="paint17_linear" x1="248.092" y1="424.786" x2="286.662" y2="269.484" gradientUnits="userSpaceOnUse">
<stop stop-color="#444B8C"/>
<stop offset="0.9964" stop-color="#26264F"/>
</linearGradient>
<linearGradient id="paint18_linear" x1="235.827" y1="277.314" x2="286.365" y2="277.314" gradientUnits="userSpaceOnUse">
<stop stop-color="#FFC838"/>
<stop offset="1" stop-color="#E05529"/>
</linearGradient>
<linearGradient id="paint19_linear" x1="235.909" y1="277.793" x2="286.363" y2="277.793" gradientUnits="userSpaceOnUse">
<stop stop-color="#FFC838"/>
<stop offset="1" stop-color="#E05529"/>
</linearGradient>
<linearGradient id="paint20_linear" x1="243.498" y1="414.146" x2="249.397" y2="419.378" gradientUnits="userSpaceOnUse">
<stop stop-color="#444B8C"/>
<stop offset="0.9964" stop-color="#26264F"/>
</linearGradient>
<linearGradient id="paint21_linear" x1="186.094" y1="269.784" x2="258.015" y2="269.784" gradientUnits="userSpaceOnUse">
<stop stop-color="#FFC838"/>
<stop offset="1" stop-color="#E05529"/>
</linearGradient>
<linearGradient id="paint22_linear" x1="248.694" y1="227.593" x2="280.669" y2="267.712" gradientUnits="userSpaceOnUse">
<stop stop-color="#FFC444"/>
<stop offset="0.9964" stop-color="#F36F56"/>
</linearGradient>
<linearGradient id="paint23_linear" x1="250.038" y1="226.522" x2="282.013" y2="266.642" gradientUnits="userSpaceOnUse">
<stop stop-color="#FFC444"/>
<stop offset="0.9964" stop-color="#F36F56"/>
</linearGradient>
</defs>
</svg>
