<svg width="424" height="360" viewBox="0 0 424 360" fill="none" xmlns="http://www.w3.org/2000/svg">
<path opacity="0.06" d="M4.73267 164.588C9.65123 177.682 17.4695 188.698 23.492 200.942C40.896 236.322 22.7888 277.724 30.7319 315.866C37.6522 349.1 66.4377 358.008 87.4787 359.356C122.933 361.628 158.348 358.224 192.53 343.756C216.252 333.716 240.001 320.571 265.002 319.777C290.561 318.964 314.602 334.402 339.295 341.702C366.408 349.72 398.836 341.014 405.372 295.46C409.421 267.238 398.52 241.248 397.499 213.461C396.148 176.676 420.521 156.488 423.676 122.1C425.665 100.416 418.236 81.0451 408.54 65.357C398.312 48.8042 384.558 34.1798 368.778 32.8203C352.283 31.3983 337.563 44.43 322.146 50.6501C278.824 68.13 254.231 9.82851 214.363 1.69435C196.383 -1.97456 174.287 -0.231116 157.96 12.3626C142.779 24.0718 135.413 50.0869 118.385 57.7262C100.363 65.812 83.8701 49.6518 66.744 44.4897C49.0186 39.1485 32.2554 48.6307 21.1613 69.4269C10.4074 89.5888 -1.23122 116.147 0.105217 142.771C0.509741 150.854 2.2526 157.987 4.73267 164.588Z" fill="url(#paint0_linear)"/>
<path d="M67.7651 133.205V279.792C67.7651 290.579 77.24 299.322 88.9276 299.322H335.071C346.759 299.322 356.233 290.579 356.233 279.792V133.205H67.7651Z" fill="url(#paint1_linear)"/>
<path d="M284.267 89.5588L221.702 51.7024C215.616 48.02 208.387 48.02 202.301 51.7024L139.733 89.5469L67.4663 133.263L139.733 176.869L212 220.474L284.267 176.821L356.534 133.263L284.267 89.5588Z" fill="url(#paint2_linear)"/>
<path d="M73.4165 292.988C73.297 292.988 73.1775 292.945 73.0795 292.859C72.8716 292.672 72.8525 292.352 73.0365 292.144L163.173 190.738C163.36 190.53 163.68 190.511 163.888 190.695C164.096 190.881 164.115 191.202 163.931 191.409L73.7964 292.818C73.6961 292.93 73.5575 292.988 73.4165 292.988Z" fill="white"/>
<path d="M350.582 292.988C350.443 292.988 350.302 292.93 350.204 292.818L260.07 191.409C259.884 191.202 259.903 190.881 260.113 190.695C260.321 190.509 260.641 190.528 260.828 190.738L350.962 292.146C351.148 292.354 351.129 292.675 350.919 292.861C350.823 292.947 350.701 292.988 350.582 292.988Z" fill="white"/>
<mask id="mask0" mask-type="alpha" maskUnits="userSpaceOnUse" x="67" y="51" width="290" height="170">
<path d="M356.534 51.3313C323.183 51.3313 129.857 51.3313 67.4664 51.3313L67.4663 133.263L139.733 176.869L212 220.474L284.267 176.821L356.534 133.263V51.3313Z" fill="#505258"/>
</mask>
<g mask="url(#mask0)">
<path d="M301.731 62.2718H99.8121C96.2515 62.2718 93.3027 65.3615 93.3027 68.9221V232.786H330.698V91.6952L301.731 62.2718Z" fill="white"/>
<path d="M330.585 91.6952L304.089 91.9246C303.387 91.9318 302.837 91.657 302.338 91.1623C301.838 90.6653 301.788 89.9914 301.788 89.2912V62.4725L330.585 91.6952Z" fill="#BDC7CD"/>
<path d="M264.371 128.565C264.371 134.726 263.387 140.363 261.42 145.474C259.454 150.585 256.672 154.598 253.078 157.506C249.484 160.414 245.314 161.869 240.566 161.869C237.4 161.869 234.599 161.109 232.159 159.592C229.722 158.072 227.968 156.074 226.897 153.592H225.87C221.251 159.109 215.367 161.869 208.222 161.869C200.65 161.869 194.683 159.592 190.319 155.035C185.956 150.478 183.774 144.243 183.774 136.329C183.774 127.303 186.639 120.029 192.372 114.512C198.105 108.994 205.591 106.234 214.832 106.234C218.512 106.234 222.565 106.588 226.993 107.293C231.421 107.998 235.067 108.844 237.933 109.828L236.456 141.206C236.456 147.152 238.081 150.127 241.333 150.127C244.072 150.127 246.253 148.127 247.878 144.126C249.503 140.126 250.316 134.898 250.316 128.436C250.316 121.549 248.882 115.463 246.017 110.179C243.151 104.896 239.118 100.865 233.92 98.083C228.723 95.3015 222.787 93.9132 216.113 93.9132C207.472 93.9132 199.964 95.6886 193.591 99.2396C187.218 102.791 182.328 107.914 178.928 114.607C175.528 121.303 173.826 129.036 173.826 137.803C173.826 149.611 176.98 158.67 183.291 164.978C189.602 171.289 198.745 174.444 210.724 174.444C215.26 174.444 220.242 173.942 225.676 172.936C231.11 171.93 236.456 170.465 241.718 168.541V180.862C232.563 184.755 222.402 186.702 211.238 186.702C194.981 186.702 182.309 182.425 173.217 173.868C164.127 165.313 159.582 153.42 159.582 138.191C159.582 127.624 161.902 118.032 166.545 109.41C171.186 100.79 177.795 94.0302 186.374 89.1315C194.95 84.2328 204.822 81.7834 215.989 81.7834C225.399 81.7834 233.806 83.7094 241.206 87.5591C248.607 91.4088 254.318 96.8858 258.34 103.985C262.359 111.09 264.371 119.281 264.371 128.565ZM198.661 136.585C198.661 145.61 202.341 150.124 209.699 150.124C213.549 150.124 216.479 148.767 218.491 146.05C220.5 143.333 221.721 138.917 222.149 132.8L222.983 118.617C220.801 118.146 218.342 117.912 215.604 117.912C210.256 117.912 206.096 119.58 203.123 122.918C200.15 126.257 198.661 130.811 198.661 136.585Z" fill="#E05529"/>
</g>
<path d="M116.458 198.834C116.442 216.601 116.305 277.885 115.242 299.581C115.13 301.879 113.512 303.691 111.545 303.722C101.815 303.88 66.152 304.032 50.2657 302.9C46.9561 302.663 44.392 299.466 44.4088 295.588C44.49 276.939 44.9225 224.496 47.1879 200.516C47.4603 197.644 49.4413 195.395 51.9026 195.161C62.5173 194.158 98.3808 191.921 112.097 193.266C114.571 193.51 116.461 195.928 116.458 198.834Z" fill="url(#paint3_linear)"/>
<path d="M112 204.184C112.205 218.529 112.8 266.252 111.887 283.876C111.753 286.452 109.971 288.497 107.768 288.6C98.6918 289.021 67.7485 289.704 54.4861 288.163C52.0988 287.886 50.2708 285.58 50.2039 282.772C49.855 268.133 48.9039 223.688 49.7905 206.263C49.9315 203.484 51.824 201.252 54.1993 201.056C64.0255 200.244 96.9282 198.521 108.207 199.491C110.322 199.675 111.964 201.702 112 204.184Z" fill="url(#paint4_linear)"/>
<path d="M88.7577 196.15C88.7457 196.695 88.373 197.137 87.907 197.154C85.6082 197.245 79.1299 197.498 76.2337 197.632C75.6625 197.658 75.2276 197.049 75.3519 196.394L75.3734 196.282C75.457 195.835 75.782 195.505 76.1715 195.474C78.131 195.307 84.0406 194.858 87.9428 195.106C88.4112 195.14 88.7696 195.601 88.7577 196.15Z" fill="url(#paint5_linear)"/>
<path d="M80.9005 266.988C93.491 266.988 103.698 256.782 103.698 244.191C103.698 231.601 93.491 221.394 80.9005 221.394C68.3101 221.394 58.1035 231.601 58.1035 244.191C58.1035 256.782 68.3101 266.988 80.9005 266.988Z" fill="white"/>
<path d="M94.9226 250.149C94.5785 248.93 93.6872 247.943 92.5091 247.475L90.8698 246.825C89.5507 246.301 88.0429 246.727 87.1922 247.864L85.7321 249.814C83.4381 249.881 80.7928 249.026 78.4438 247.269C76.2381 245.618 74.7207 243.491 74.0612 241.403C74.0516 241.374 74.0636 241.341 74.0875 241.324C74.1138 241.307 74.1472 241.307 74.1711 241.326L75.4878 239.568C76.4675 238.26 76.4389 236.456 75.4209 235.178L74.3312 233.809C73.5379 232.812 72.3263 232.239 71.0527 232.258C69.779 232.277 68.5866 232.884 67.8219 233.904C67.4252 234.432 67.1361 235.027 66.9568 235.67C65.7501 239.943 69.1888 246.399 75.538 251.152C81.88 255.898 89.0441 257.382 92.803 255.024C93.3718 254.668 93.864 254.223 94.2607 253.693C95.0254 252.677 95.2691 251.367 94.9226 250.149Z" fill="#E05529"/>
<path d="M307.081 223.691C307.081 223.691 304.109 220.128 308.15 217.932C312.19 215.736 318.54 218.145 319.342 222.816C320.145 227.488 324.16 224.714 325.912 223.691C327.663 222.668 332.552 221.282 333.793 226.609C334.285 228.719 333.661 231.414 334.576 233.378C335.838 236.083 339.943 235.383 342.185 236.418C345.098 237.761 346.62 240.361 345.105 243.393C342.77 248.065 338.173 251.033 340.653 255.095C343.134 259.158 333.135 268.279 329.706 259.815C326.277 251.348 320.948 252.782 316.642 252.249C312.336 251.716 310.147 247.991 311.316 244.199C312.484 240.404 310.95 238.143 309.344 236.537C307.738 234.929 302.338 227.997 307.081 223.691Z" fill="url(#paint6_linear)"/>
<path d="M300.828 269.11C300.828 269.11 297.588 269.612 293.941 272.05C293.367 272.432 293.052 273.101 293.138 273.787C293.575 277.245 295.368 288.433 301.284 299.361C301.597 299.937 301.686 300.608 301.547 301.249L300.52 306.033L298.613 307.82H303.523L306.792 298.974L305.394 298.532C304.31 298.19 303.566 297.191 303.547 296.056L303.382 286.564C303.523 282.337 300.79 279.419 300.79 279.419L308.632 279.037L300.828 269.11Z" fill="url(#paint7_linear)"/>
<path d="M296.701 308.68C296.254 309.266 301.513 310.038 304.171 308.757C304.171 308.757 307.855 302.348 307.855 299.048C307.855 299.048 307.564 298.374 305.399 298.527C305.399 298.527 304.161 306.116 302.856 306.967C301.549 307.818 299.203 307.053 299.203 307.053C299.203 307.053 297.36 307.818 296.701 308.68Z" fill="#844AFF"/>
<path d="M307.645 279.556C307.605 279.484 299.203 278.545 299.203 278.545C299.203 278.545 299.477 281.099 298.617 284.614C297.757 288.129 285.424 303.366 285.424 303.366L286.717 307.466C282.719 308.859 278.786 309.082 274.915 308.176L282.929 303.366C282.929 303.366 290.43 277.804 295.026 273.242L303.447 270.329L307.645 279.556Z" fill="url(#paint8_linear)"/>
<path d="M326.485 264.68C326.485 264.68 331.326 271.88 331.723 275.163C332.119 278.447 330.397 279.783 325.319 280.002C320.241 280.222 306.682 280.22 306.682 280.22L295.111 270.332C295.111 270.332 303.544 267.323 305.736 266.472C307.927 265.619 326.485 264.68 326.485 264.68Z" fill="url(#paint9_linear)"/>
<path d="M286.229 306.085C286.229 306.085 287.622 307.433 286.681 308.934C286.681 308.934 275.65 310.888 272.656 310.002C272.656 310.002 273.278 308.582 276.649 306.967L276.401 307.158C276.085 307.399 276.272 307.904 276.666 307.88C278.888 307.755 283.488 307.347 286.229 306.085Z" fill="#844AFF"/>
<path d="M313.395 263.727C313.395 263.727 307.758 258.36 304.983 254.804C303.483 252.883 303.012 250.352 303.707 248.015C304.974 243.747 307.225 239.326 307.43 238.64C307.746 237.587 314.064 237.63 314.064 237.63C314.064 237.63 326.5 245.702 331.386 259.373L325.9 261.081C325.9 261.081 322.652 255.633 319.445 252.17C319.445 252.17 324.996 259.504 325.192 262.506L313.395 263.727Z" fill="#AD86FF"/>
<path d="M306.666 232.75C306.732 232.97 308.381 238.437 308.51 238.552C308.639 238.667 312.128 238.853 313.77 237.73L310.984 231.899L306.666 232.75Z" fill="url(#paint10_linear)"/>
<path d="M309.375 221.263C309.375 221.263 306.398 222.52 304.374 226.824C302.35 231.127 303.86 233.113 305.76 233.386C307.659 233.658 310.498 233.617 313.504 230.836C316.508 228.059 313.246 219.772 309.375 221.263Z" fill="url(#paint11_linear)"/>
<path d="M311.483 228.542C311.483 228.542 313.729 222.245 308.147 222.171L306.833 223.089C306.833 223.089 304.785 219.597 308.147 217.932C311.509 216.266 316.525 217.75 317.954 222.279C319.386 226.807 318.547 229.732 316.167 231.899C313.787 234.067 312.807 231.61 312.807 231.61C312.807 231.61 314.102 229.584 313.576 228.499C313.048 227.414 311.832 228.723 311.832 228.723L311.483 228.542Z" fill="url(#paint12_linear)"/>
<path d="M310.89 229.545C310.89 229.545 312.025 226.303 313.543 227.593C315.058 228.884 312.312 230.59 311.237 231.142L310.89 229.545Z" fill="url(#paint13_linear)"/>
<path d="M301.913 264.126L306.054 260.135L311.782 262.556C311.782 262.556 317.483 263.44 320.748 262.556C324.012 261.672 324.012 261.672 324.012 261.672L331.386 259.375L332.545 262.649C332.839 263.481 332.543 264.403 331.826 264.914C331.188 265.368 330.44 265.865 329.964 266.076C328.994 266.501 306.023 265.782 306.023 265.782L301.913 264.126Z" fill="url(#paint14_linear)"/>
<path d="M318.023 284.841H315.841V308.432H318.023V284.841Z" fill="#844AFF"/>
<path d="M326.485 308.886H307.38C307.38 308.102 308.016 307.466 308.799 307.466H325.065C325.849 307.466 326.485 308.102 326.485 308.886Z" fill="#844AFF"/>
<path d="M329.321 284.022C329.321 285.312 328.265 286.368 326.975 286.368H307.645C306.355 286.368 305.298 285.312 305.298 284.022V281.9C305.298 280.609 306.355 279.553 307.645 279.553H326.975C328.265 279.553 329.321 280.609 329.321 281.9V284.022Z" fill="#AD86FF"/>
<path d="M317.583 266.009C317.564 266.009 317.548 266.011 317.528 266.011L293.506 265.985C292.913 265.985 292.43 265.502 292.433 264.91C292.433 264.315 292.918 263.825 293.508 263.837L317.531 263.863C318.123 263.863 318.606 264.346 318.604 264.938C318.604 265.509 318.152 265.98 317.583 266.009Z" fill="url(#paint15_linear)"/>
<path d="M271.91 244.196H291.916C293.393 244.196 294.736 245.047 295.365 246.383L304.612 265.994H279.751C278.8 265.994 277.944 265.414 277.595 264.53L270.424 246.383C270.011 245.334 270.782 244.196 271.91 244.196Z" fill="url(#paint16_linear)"/>
<path d="M351.16 266.886C351.217 266.613 351.139 266.331 350.952 266.119C350.763 265.904 350.484 265.782 350.187 265.782H249.943C249.553 265.782 249.192 265.968 248.982 266.274C248.772 266.582 248.746 266.967 248.908 267.299L249.995 269.502C250.244 270.007 250.784 270.329 251.377 270.329H349.502C350.054 270.329 350.527 269.964 350.632 269.455L351.16 266.886Z" fill="url(#paint17_linear)"/>
<path d="M255.561 313.335C255.444 313.335 255.327 313.311 255.214 313.261C254.767 313.065 254.562 312.535 254.753 312.078L273.203 268.195C273.395 267.739 273.913 267.529 274.36 267.725C274.807 267.921 275.012 268.451 274.821 268.907L256.371 312.79C256.225 313.132 255.9 313.335 255.561 313.335Z" fill="url(#paint18_linear)"/>
<path d="M276.346 313.335C276.004 313.335 275.681 313.132 275.538 312.79L257.088 268.907C256.896 268.451 257.102 267.92 257.549 267.724C257.996 267.529 258.512 267.739 258.705 268.195L277.156 312.078C277.347 312.535 277.141 313.065 276.694 313.261C276.58 313.311 276.46 313.335 276.346 313.335Z" fill="url(#paint19_linear)"/>
<path d="M328.213 313.335C328.096 313.335 327.978 313.311 327.866 313.261C327.419 313.065 327.214 312.535 327.405 312.078L345.855 268.195C346.046 267.739 346.565 267.529 347.012 267.724C347.459 267.92 347.664 268.451 347.473 268.907L329.023 312.79C328.879 313.132 328.554 313.335 328.213 313.335Z" fill="url(#paint20_linear)"/>
<path d="M348.997 313.335C348.656 313.335 348.333 313.132 348.19 312.79L329.739 268.907C329.548 268.451 329.754 267.92 330.201 267.724C330.647 267.529 331.164 267.739 331.357 268.195L349.807 312.078C349.999 312.535 349.793 313.065 349.346 313.261C349.232 313.311 349.114 313.335 348.997 313.335Z" fill="url(#paint21_linear)"/>
<path d="M363.839 187.923V208.297C363.839 209.957 362.839 211.303 361.607 211.303H288.277C287.254 211.303 286.359 212.243 286.112 213.58L284.796 220.674C284.622 221.613 283.651 221.693 283.394 220.787L281.699 214.794C281.369 213.628 280.54 212.857 279.612 212.857H276.461C275.229 212.857 274.229 211.51 274.229 209.851V188.908C274.229 187.258 275.217 185.916 276.442 185.902L361.59 184.917C362.827 184.902 363.839 186.253 363.839 187.923Z" fill="#AD86FF"/>
<path d="M285.063 207.434C290.05 207.434 294.094 203.284 294.094 198.165C294.094 193.046 290.05 188.896 285.063 188.896C280.076 188.896 276.033 193.046 276.033 198.165C276.033 203.284 280.076 207.434 285.063 207.434Z" fill="#844AFF"/>
<path d="M288.334 194.408C288.334 196.074 286.984 197.871 285.318 197.871C283.653 197.871 282.303 196.074 282.303 194.408C282.303 192.743 283.653 191.562 285.318 191.562C286.984 191.562 288.334 192.743 288.334 194.408Z" fill="white"/>
<path d="M281.579 204.282H288.939C289.713 204.282 290.399 203.783 290.636 203.044L291.032 201.807C291.321 200.901 290.851 199.919 289.957 199.591C286.963 198.497 283.866 198.638 280.692 199.692C279.803 199.988 279.311 200.939 279.555 201.843L279.861 202.966C280.071 203.742 280.774 204.282 281.579 204.282Z" fill="white"/>
<path d="M357.201 199.022C357.201 199.939 356.374 200.681 355.354 200.681H300.968C299.948 200.681 299.121 199.939 299.121 199.022C299.121 198.105 299.948 197.362 300.968 197.362H355.354C356.374 197.362 357.201 198.107 357.201 199.022Z" fill="white"/>
<path d="M330.65 205.245C330.65 205.932 329.934 206.489 329.05 206.489H300.721C299.837 206.489 299.121 205.932 299.121 205.245C299.121 204.557 299.837 204 300.721 204H329.05C329.934 203.998 330.65 204.557 330.65 205.245Z" fill="white"/>
<path d="M357.201 205.245C357.201 205.932 356.498 206.489 355.629 206.489H335.541C334.673 206.489 333.969 205.932 333.969 205.245C333.969 204.557 334.673 204 335.541 204H355.629C356.496 203.998 357.201 204.557 357.201 205.245Z" fill="white"/>
<path d="M330.65 191.619C330.65 192.5 329.651 193.214 328.419 193.214H301.352C300.119 193.214 299.121 192.5 299.121 191.619V191.489C299.121 190.609 300.119 189.895 301.352 189.895H328.419C329.651 189.895 330.65 190.609 330.65 191.489V191.619Z" fill="#844AFF"/>
<defs>
<linearGradient id="paint0_linear" x1="50.4784" y1="44.3353" x2="402.666" y2="369.145" gradientUnits="userSpaceOnUse">
<stop stop-color="#F89721"/>
<stop offset="1" stop-color="#844AFF"/>
</linearGradient>
<linearGradient id="paint1_linear" x1="228.502" y1="261.972" x2="212.603" y2="95.8676" gradientUnits="userSpaceOnUse">
<stop stop-color="#FFC83C"/>
<stop offset="0.9964" stop-color="#DE5125"/>
</linearGradient>
<linearGradient id="paint2_linear" x1="228.538" y1="181.906" x2="211.629" y2="10.4816" gradientUnits="userSpaceOnUse">
<stop stop-color="#FFC83C"/>
<stop offset="0.9964" stop-color="#DE5125"/>
</linearGradient>
<linearGradient id="paint3_linear" x1="116.37" y1="193.696" x2="46.1002" y2="303.779" gradientUnits="userSpaceOnUse">
<stop stop-color="#783419"/>
<stop offset="1" stop-color="#E05529"/>
</linearGradient>
<linearGradient id="paint4_linear" x1="100.107" y1="289.12" x2="33.4514" y2="259.803" gradientUnits="userSpaceOnUse">
<stop stop-color="#0E1C1C"/>
<stop offset="1" stop-color="#203153"/>
</linearGradient>
<linearGradient id="paint5_linear" x1="86.1404" y1="197.633" x2="84.6682" y2="192.857" gradientUnits="userSpaceOnUse">
<stop stop-color="#0E1C1C"/>
<stop offset="1" stop-color="#203153"/>
</linearGradient>
<linearGradient id="paint6_linear" x1="337.8" y1="263.296" x2="298.526" y2="241.647" gradientUnits="userSpaceOnUse">
<stop stop-color="#0E1C1C"/>
<stop offset="1" stop-color="#203153"/>
</linearGradient>
<linearGradient id="paint7_linear" x1="306.743" y1="307.541" x2="298.937" y2="272.174" gradientUnits="userSpaceOnUse">
<stop stop-color="#FF928E"/>
<stop offset="1" stop-color="#FEB3B1"/>
</linearGradient>
<linearGradient id="paint8_linear" x1="320.46" y1="222.818" x2="302.139" y2="267.424" gradientUnits="userSpaceOnUse">
<stop stop-color="#FF928E"/>
<stop offset="1" stop-color="#FEB3B1"/>
</linearGradient>
<linearGradient id="paint9_linear" x1="324.63" y1="280.22" x2="310.137" y2="258.74" gradientUnits="userSpaceOnUse">
<stop stop-color="#0E1C1C"/>
<stop offset="1" stop-color="#203153"/>
</linearGradient>
<linearGradient id="paint10_linear" x1="307.116" y1="228.294" x2="314.922" y2="247.411" gradientUnits="userSpaceOnUse">
<stop stop-color="#FF928E"/>
<stop offset="1" stop-color="#FEB3B1"/>
</linearGradient>
<linearGradient id="paint11_linear" x1="-626.173" y1="324.443" x2="-613.906" y2="323.169" gradientUnits="userSpaceOnUse">
<stop stop-color="#FF928E"/>
<stop offset="1" stop-color="#FEB3B1"/>
</linearGradient>
<linearGradient id="paint12_linear" x1="316.231" y1="232.793" x2="303.69" y2="226.479" gradientUnits="userSpaceOnUse">
<stop stop-color="#0E1C1C"/>
<stop offset="1" stop-color="#203153"/>
</linearGradient>
<linearGradient id="paint13_linear" x1="-625.938" y1="326.665" x2="-613.671" y2="325.391" gradientUnits="userSpaceOnUse">
<stop stop-color="#FF928E"/>
<stop offset="1" stop-color="#FEB3B1"/>
</linearGradient>
<linearGradient id="paint14_linear" x1="349.736" y1="265.339" x2="312.139" y2="261.993" gradientUnits="userSpaceOnUse">
<stop stop-color="#FF928E"/>
<stop offset="1" stop-color="#FEB3B1"/>
</linearGradient>
<linearGradient id="paint15_linear" x1="313.502" y1="266.011" x2="312.933" y2="261.712" gradientUnits="userSpaceOnUse">
<stop stop-color="#0E1C1C"/>
<stop offset="1" stop-color="#203153"/>
</linearGradient>
<linearGradient id="paint16_linear" x1="297.925" y1="265.994" x2="276.004" y2="244.325" gradientUnits="userSpaceOnUse">
<stop stop-color="#0E1C1C"/>
<stop offset="1" stop-color="#203153"/>
</linearGradient>
<linearGradient id="paint17_linear" x1="248.801" y1="268.055" x2="351.177" y2="268.055" gradientUnits="userSpaceOnUse">
<stop stop-color="#DAE3FE"/>
<stop offset="1" stop-color="#E9EFFD"/>
</linearGradient>
<linearGradient id="paint18_linear" x1="254.681" y1="290.494" x2="274.89" y2="290.494" gradientUnits="userSpaceOnUse">
<stop stop-color="#DAE3FE"/>
<stop offset="1" stop-color="#E9EFFD"/>
</linearGradient>
<linearGradient id="paint19_linear" x1="257.014" y1="290.494" x2="277.224" y2="290.494" gradientUnits="userSpaceOnUse">
<stop stop-color="#DAE3FE"/>
<stop offset="1" stop-color="#E9EFFD"/>
</linearGradient>
<linearGradient id="paint20_linear" x1="327.334" y1="290.494" x2="347.544" y2="290.494" gradientUnits="userSpaceOnUse">
<stop stop-color="#DAE3FE"/>
<stop offset="1" stop-color="#E9EFFD"/>
</linearGradient>
<linearGradient id="paint21_linear" x1="329.668" y1="290.494" x2="349.878" y2="290.494" gradientUnits="userSpaceOnUse">
<stop stop-color="#DAE3FE"/>
<stop offset="1" stop-color="#E9EFFD"/>
</linearGradient>
</defs>
</svg>
