<svg width="424" height="424" viewBox="0 0 424 424" fill="none" xmlns="http://www.w3.org/2000/svg">
<path opacity="0.06" d="M423.94 179.133C423.94 179.133 427.084 -2.14292 193.419 0.0191883C148.073 0.439155 99.2784 0.651533 55.9507 15.938C39.7357 21.6594 26.532 34.5235 25.3804 52.0487C23.9075 74.4619 34.5377 96.0846 32.0557 118.405C25.7686 174.946 -59.1041 327.814 76.0639 400.061C211.232 472.308 428.132 375.977 423.94 179.133Z" fill="url(#paint0_linear)"/>
<path d="M194.544 391.224L185.408 394.326L182.734 403.846C182.446 404.872 181.145 405.104 180.53 404.242L174.832 396.23L165.248 396.505C164.213 396.534 163.582 395.322 164.18 394.451L169.733 386.368L166.418 376.92C166.058 375.896 166.977 374.897 167.973 375.23L177.183 378.313L184.812 372.159C185.638 371.494 186.84 372.107 186.846 373.198L186.897 383.259L194.861 388.915C195.721 389.523 195.532 390.888 194.544 391.224Z" fill="url(#paint1_linear)"/>
<path d="M127.698 113.845L110.768 119.592L105.813 137.236C105.28 139.136 102.868 139.567 101.73 137.967L91.1698 123.121L73.4087 123.629C71.4916 123.684 70.3211 121.435 71.4298 119.822L81.7204 104.845L75.5769 87.3368C74.9115 85.439 76.6142 83.5886 78.4589 84.2057L95.5265 89.9164L109.664 78.5124C111.195 77.2772 113.424 78.4149 113.433 80.4353L113.528 99.0798L128.285 109.56C129.879 110.692 129.529 113.224 127.698 113.845Z" fill="url(#paint2_linear)"/>
<path d="M378.527 89.1874L372.483 93.2137L372.388 100.648C372.378 101.449 371.476 101.87 370.861 101.362L365.158 96.65L358.238 98.7098C357.49 98.9318 356.796 98.1734 357.061 97.4254L359.53 90.4775L355.281 84.2588C354.82 83.5851 355.295 82.6808 356.084 82.7297L363.385 83.1805L367.739 77.2299C368.21 76.5854 369.204 76.798 369.42 77.5894L371.414 84.8873L378.308 87.4495C379.053 87.7233 379.181 88.7518 378.527 89.1874Z" fill="url(#paint3_linear)"/>
<path d="M374.137 248.019C375.295 248.607 376.75 248.067 377.387 246.813C378.023 245.559 377.601 244.065 376.443 243.478C376.383 243.448 376.322 243.422 376.261 243.397C376.476 242.703 376.639 242.004 376.747 241.304C376.813 241.304 376.879 241.303 376.948 241.296C378.269 241.179 379.317 239.964 379.29 238.585C379.263 237.205 378.169 236.181 376.847 236.299C376.778 236.305 376.71 236.315 376.643 236.328C376.505 235.643 376.316 234.976 376.077 234.329C376.138 234.294 376.199 234.257 376.258 234.216C377.389 233.423 377.75 231.86 377.065 230.724C376.381 229.588 374.909 229.309 373.779 230.101C373.721 230.142 373.666 230.186 373.613 230.23C373.166 229.737 372.677 229.279 372.146 228.861C372.184 228.8 372.22 228.738 372.254 228.673C372.89 227.42 373.723 226.049 372.555 225.479C369.855 224.162 368.697 225.29 368.059 226.544C368.027 226.608 367.998 226.674 367.971 226.741C367.322 226.559 366.663 226.434 366.001 226.365C366.005 226.295 366.008 226.226 366.007 226.154C365.979 224.774 366.388 224.027 365.062 224.002C362.17 223.945 361.194 225.201 361.221 226.581C361.223 226.653 361.229 226.724 361.236 226.794C360.573 226.982 359.922 227.224 359.289 227.516C359.258 227.455 359.227 227.393 359.192 227.334C358.507 226.198 357.035 225.918 355.905 226.711C354.774 227.503 354.413 229.066 355.097 230.202C355.132 230.26 355.171 230.315 355.21 230.368C354.709 230.869 354.241 231.413 353.808 231.996C353.751 231.961 353.695 231.927 353.635 231.897C352.477 231.308 351.022 231.849 350.385 233.103C349.749 234.357 350.171 235.85 351.33 236.438C351.39 236.468 351.451 236.494 351.512 236.518C351.297 237.212 351.134 237.911 351.026 238.612C350.959 238.612 350.893 238.613 350.826 238.619C349.504 238.737 348.456 239.951 348.484 241.331C348.511 242.711 349.605 243.735 350.927 243.616C350.995 243.61 351.064 243.599 351.131 243.587C351.269 244.271 351.458 244.939 351.696 245.585C351.635 245.621 351.575 245.658 351.516 245.699C350.385 246.492 350.024 248.055 350.709 249.19C351.393 250.327 353.66 250.854 354.79 250.062C354.848 250.022 354.107 249.729 354.161 249.685C354.608 250.178 355.097 250.636 355.627 251.053C355.59 251.114 355.554 251.176 355.52 251.241C354.884 252.495 355.306 253.989 356.464 254.576C357.622 255.165 359.077 254.624 359.713 253.37C359.746 253.305 359.775 253.24 359.802 253.173C360.451 253.354 361.11 253.479 361.772 253.549C361.768 253.618 361.764 253.688 361.766 253.759C361.794 255.139 362.888 256.163 364.209 256.044C365.531 255.927 366.579 254.712 366.552 253.333C366.55 253.26 366.544 253.19 366.537 253.12C367.199 252.931 367.851 252.69 368.484 252.397C368.514 252.458 368.545 252.52 368.581 252.58C369.265 253.716 370.737 253.995 371.867 253.203C372.998 252.411 373.359 250.847 372.675 249.711C372.64 249.653 372.601 249.598 372.562 249.545C373.063 249.044 373.531 248.5 373.964 247.917C374.021 247.954 374.077 247.988 374.137 248.019ZM359.699 248.202C355.494 246.068 353.96 240.646 356.271 236.093C358.583 231.539 363.866 229.579 368.071 231.714C372.276 233.849 373.81 239.271 371.499 243.824C369.187 248.376 363.905 250.337 359.699 248.202Z" fill="url(#paint4_linear)"/>
<path d="M376.947 241.296C378.268 241.178 379.316 239.964 379.289 238.584C379.262 237.204 378.168 236.181 376.846 236.298C376.778 236.305 376.709 236.315 376.642 236.327C376.504 235.643 376.315 234.976 376.076 234.329C376.137 234.293 376.198 234.257 376.257 234.215C377.388 233.423 378.786 231.509 377.988 230.45C376.475 228.438 374.908 229.309 373.777 230.101C373.719 230.141 373.664 230.186 373.611 230.23C373.164 229.736 372.675 229.278 372.144 228.861C372.182 228.8 372.218 228.738 372.252 228.673C372.598 227.991 372.629 227.238 372.4 226.599C371.308 228.521 370.231 230.451 369.173 232.391C372.528 234.849 373.596 239.693 371.499 243.824C369.722 247.323 366.19 249.289 362.741 249.042C362.587 249.441 362.436 249.842 362.271 250.238C361.824 251.31 361.316 252.36 360.808 253.409C361.127 253.47 361.449 253.517 361.771 253.551C361.767 253.621 361.763 253.691 361.765 253.762C361.793 255.142 362.631 256.315 365.026 256.187C366.351 256.116 366.579 254.715 366.551 253.335C366.549 253.263 366.543 253.192 366.536 253.123C367.198 252.934 367.85 252.692 368.483 252.4C368.513 252.462 368.544 252.523 368.58 252.582C369.264 253.719 371.64 254.201 372.771 253.409C373.901 252.617 373.359 250.851 372.674 249.714C372.639 249.656 372.6 249.602 372.561 249.548C373.062 249.047 373.53 248.504 373.963 247.921C374.02 247.956 374.076 247.99 374.136 248.021C375.294 248.609 376.749 248.068 377.386 246.815C378.022 245.561 377.6 244.067 376.442 243.48C376.382 243.449 376.321 243.423 376.26 243.399C376.475 242.705 376.638 242.006 376.746 241.306C376.812 241.304 376.879 241.303 376.947 241.296Z" fill="url(#paint5_linear)"/>
<path d="M375.383 248.16C376.541 248.748 377.996 248.208 378.632 246.954C379.269 245.7 378.846 244.206 377.687 243.619C377.627 243.589 377.566 243.562 377.505 243.538C377.72 242.844 377.883 242.145 377.991 241.445C378.058 241.445 378.124 241.444 378.192 241.437C379.514 241.32 380.562 240.105 380.535 238.725C380.507 237.345 379.413 236.322 378.092 236.439C378.023 236.446 377.954 236.456 377.888 236.469C377.75 235.784 377.561 235.117 377.322 234.47C377.383 234.434 377.443 234.398 377.502 234.356C378.633 233.564 378.994 232.001 378.31 230.865C377.625 229.729 376.153 229.45 375.024 230.242C374.965 230.283 374.911 230.327 374.857 230.371C374.411 229.877 373.921 229.42 373.391 229.002C373.428 228.941 373.464 228.879 373.498 228.814C374.134 227.56 373.712 226.067 372.554 225.479C371.396 224.891 369.941 225.431 369.305 226.685C369.272 226.75 369.244 226.816 369.216 226.883C368.567 226.701 367.909 226.576 367.246 226.507C367.25 226.437 367.254 226.368 367.252 226.296C367.225 224.916 366.131 223.893 364.809 224.01C363.487 224.128 362.439 225.342 362.467 226.722C362.468 226.794 362.474 226.865 362.482 226.934C361.819 227.123 361.168 227.365 360.534 227.657C360.504 227.596 360.473 227.534 360.437 227.475C359.753 226.338 358.281 226.059 357.15 226.852C356.019 227.644 355.658 229.207 356.343 230.343C356.377 230.401 356.416 230.456 356.455 230.509C355.954 231.01 355.486 231.553 355.053 232.136C354.997 232.101 354.94 232.067 354.88 232.037C353.722 231.448 352.267 231.989 351.631 233.243C350.994 234.496 351.416 235.99 352.574 236.578C352.634 236.608 352.696 236.634 352.757 236.658C352.541 237.352 352.379 238.051 352.271 238.752C352.204 238.752 352.137 238.753 352.07 238.759C350.748 238.877 349.7 240.091 349.727 241.471C349.754 242.851 350.849 243.875 352.17 243.756C352.239 243.75 352.307 243.739 352.374 243.727C352.512 244.411 352.701 245.079 352.94 245.725C352.879 245.761 352.819 245.798 352.76 245.839C351.629 246.631 351.268 248.195 351.952 249.33C352.636 250.467 354.108 250.746 355.238 249.953C355.296 249.913 355.351 249.869 355.405 249.825C355.851 250.318 356.341 250.776 356.871 251.193C356.833 251.254 356.798 251.316 356.764 251.381C356.127 252.635 356.549 254.129 357.708 254.716C358.866 255.305 360.321 254.764 360.957 253.51C360.99 253.445 361.018 253.379 361.045 253.313C361.695 253.494 362.354 253.619 363.016 253.689C363.012 253.758 363.008 253.828 363.01 253.899C363.037 255.279 364.131 256.303 365.453 256.185C366.774 256.068 367.823 254.853 367.795 253.473C367.793 253.401 367.788 253.331 367.78 253.261C368.443 253.072 369.094 252.831 369.728 252.538C369.758 252.599 369.789 252.661 369.825 252.721C370.509 253.857 371.981 254.136 373.111 253.344C374.242 252.551 374.603 250.988 373.918 249.852C373.883 249.794 373.845 249.739 373.805 249.685C374.306 249.184 374.775 248.641 375.208 248.058C375.266 248.095 375.323 248.13 375.383 248.16ZM360.945 248.343C356.739 246.208 355.205 240.787 357.517 236.234C359.828 231.68 365.112 229.72 369.316 231.855C373.522 233.99 375.056 239.412 372.744 243.965C370.433 248.518 365.15 250.479 360.945 248.343Z" fill="url(#paint6_linear)"/>
<path d="M343.258 298.057C345.527 299.209 348.377 298.151 349.625 295.695C350.872 293.239 350.044 290.314 347.775 289.161C347.657 289.101 347.537 289.051 347.417 289.004C347.838 287.644 348.157 286.274 348.369 284.904C348.499 284.904 348.629 284.902 348.762 284.89C351.351 284.659 353.404 282.281 353.351 279.578C353.296 276.874 351.154 274.869 348.566 275.1C348.431 275.113 348.298 275.134 348.166 275.158C347.895 273.818 347.525 272.509 347.058 271.243C347.177 271.173 347.296 271.101 347.411 271.02C349.626 269.469 350.333 266.407 348.992 264.181C347.651 261.955 344.769 261.408 342.554 262.96C342.441 263.04 342.334 263.125 342.228 263.213C341.353 262.245 340.394 261.35 339.357 260.532C339.43 260.413 339.501 260.291 339.565 260.163C340.813 257.707 342.442 255.024 340.156 253.907C334.866 251.325 332.596 253.536 331.349 255.992C331.284 256.119 331.229 256.248 331.175 256.378C329.902 256.023 328.613 255.778 327.316 255.641C327.325 255.505 327.331 255.368 327.328 255.23C327.273 252.526 328.076 251.064 325.478 251.013C319.812 250.903 317.901 253.362 317.954 256.065C317.957 256.206 317.969 256.344 317.983 256.482C316.684 256.852 315.409 257.325 314.168 257.897C314.109 257.777 314.048 257.657 313.978 257.54C312.637 255.314 309.755 254.768 307.54 256.319C305.326 257.87 304.618 260.932 305.959 263.158C306.028 263.272 306.103 263.379 306.179 263.484C305.199 264.465 304.281 265.53 303.432 266.673C303.322 266.604 303.211 266.536 303.093 266.477C300.824 265.326 297.974 266.383 296.727 268.839C295.48 271.295 296.308 274.221 298.577 275.373C298.694 275.433 298.815 275.483 298.935 275.531C298.514 276.89 298.195 278.261 297.983 279.63C297.853 279.63 297.722 279.633 297.59 279.644C295.001 279.876 292.947 282.254 293.001 284.957C293.056 287.66 295.198 289.664 297.785 289.434C297.921 289.422 298.053 289.401 298.186 289.378C298.457 290.717 298.827 292.026 299.294 293.293C299.175 293.362 299.056 293.435 298.941 293.515C296.726 295.066 296.018 298.129 297.36 300.355C298.701 302.58 303.14 303.614 305.355 302.063C305.469 301.984 304.017 301.41 304.123 301.324C304.998 302.291 305.957 303.187 306.994 304.005C306.921 304.124 306.85 304.245 306.786 304.373C305.538 306.829 306.366 309.754 308.636 310.907C310.905 312.058 313.755 311.001 315.002 308.545C315.067 308.418 315.122 308.288 315.176 308.158C316.449 308.514 317.738 308.759 319.034 308.895C319.026 309.031 319.02 309.169 319.023 309.307C319.078 312.01 321.22 314.014 323.808 313.784C326.396 313.554 328.45 311.175 328.396 308.471C328.394 308.33 328.381 308.192 328.368 308.055C329.666 307.685 330.942 307.212 332.183 306.639C332.242 306.76 332.303 306.88 332.373 306.996C333.714 309.221 336.596 309.768 338.81 308.217C341.025 306.665 341.733 303.603 340.391 301.377C340.323 301.264 340.248 301.156 340.171 301.051C341.152 300.071 342.07 299.006 342.919 297.863C343.03 297.93 343.141 297.998 343.258 298.057ZM314.977 298.416C306.74 294.234 303.733 283.614 308.261 274.694C312.79 265.775 323.138 261.935 331.375 266.117C339.612 270.299 342.619 280.92 338.09 289.839C333.563 298.759 323.214 302.598 314.977 298.416Z" fill="url(#paint7_linear)"/>
<path d="M348.763 284.89C351.351 284.659 353.405 282.281 353.352 279.578C353.297 276.874 351.155 274.869 348.567 275.101C348.432 275.113 348.299 275.134 348.167 275.158C347.896 273.819 347.526 272.51 347.059 271.243C347.178 271.173 347.296 271.101 347.412 271.02C349.627 269.469 352.367 265.72 350.803 263.643C347.838 259.702 344.77 261.408 342.555 262.96C342.442 263.04 342.335 263.125 342.23 263.213C341.355 262.246 340.396 261.35 339.358 260.532C339.432 260.413 339.503 260.291 339.567 260.165C340.246 258.828 340.306 257.353 339.858 256.1C337.718 259.865 335.609 263.645 333.536 267.446C340.108 272.262 342.2 281.751 338.092 289.841C334.612 296.697 327.692 300.547 320.936 300.064C320.634 300.845 320.339 301.631 320.016 302.406C319.14 304.507 318.145 306.563 317.149 308.618C317.776 308.736 318.405 308.83 319.035 308.895C319.027 309.032 319.021 309.169 319.024 309.307C319.079 312.01 320.72 314.308 325.41 314.059C328.005 313.921 328.451 311.175 328.397 308.471C328.395 308.33 328.382 308.192 328.369 308.055C329.667 307.685 330.943 307.212 332.184 306.639C332.243 306.76 332.304 306.88 332.374 306.996C333.716 309.222 338.368 310.167 340.582 308.616C342.797 307.064 341.735 303.603 340.393 301.377C340.325 301.264 340.25 301.157 340.173 301.051C341.154 300.071 342.072 299.006 342.921 297.863C343.031 297.932 343.142 297.999 343.259 298.058C345.528 299.211 348.378 298.152 349.626 295.696C350.873 293.24 350.045 290.315 347.776 289.163C347.658 289.102 347.538 289.053 347.418 289.005C347.839 287.645 348.157 286.275 348.37 284.905C348.5 284.905 348.63 284.902 348.763 284.89Z" fill="url(#paint8_linear)"/>
<path d="M345.699 298.336C347.968 299.487 350.818 298.43 352.065 295.973C353.312 293.517 352.484 290.592 350.215 289.44C350.098 289.38 349.977 289.33 349.857 289.282C350.278 287.923 350.596 286.552 350.809 285.182C350.939 285.182 351.069 285.179 351.202 285.168C353.791 284.937 355.845 282.558 355.791 279.855C355.736 277.151 353.594 275.147 351.007 275.378C350.871 275.39 350.739 275.412 350.606 275.435C350.335 274.096 349.965 272.786 349.498 271.52C349.617 271.451 349.736 271.378 349.851 271.297C352.066 269.746 352.774 266.684 351.432 264.458C350.091 262.232 347.209 261.685 344.994 263.237C344.881 263.317 344.775 263.403 344.668 263.49C343.794 262.523 342.834 261.627 341.797 260.809C341.87 260.69 341.941 260.569 342.005 260.441C343.253 257.985 342.425 255.059 340.156 253.907C337.886 252.756 335.036 253.813 333.789 256.269C333.724 256.396 333.669 256.526 333.615 256.655C332.342 256.3 331.053 256.055 329.757 255.919C329.765 255.782 329.771 255.645 329.768 255.507C329.713 252.803 327.571 250.799 324.983 251.03C322.395 251.26 320.341 253.639 320.395 256.342C320.397 256.483 320.41 256.622 320.423 256.759C319.125 257.129 317.849 257.602 316.608 258.174C316.549 258.054 316.488 257.934 316.418 257.817C315.077 255.591 312.195 255.044 309.981 256.596C307.766 258.148 307.058 261.21 308.4 263.435C308.468 263.549 308.543 263.656 308.62 263.762C307.639 264.742 306.721 265.807 305.872 266.95C305.762 266.881 305.651 266.814 305.534 266.754C303.265 265.603 300.415 266.66 299.167 269.117C297.92 271.573 298.748 274.498 301.017 275.65C301.135 275.71 301.255 275.76 301.375 275.808C300.954 277.167 300.635 278.538 300.423 279.907C300.293 279.907 300.163 279.91 300.03 279.922C297.441 280.153 295.388 282.531 295.441 285.234C295.496 287.938 297.638 289.942 300.226 289.711C300.361 289.699 300.494 289.678 300.626 289.655C300.897 290.994 301.267 292.304 301.734 293.57C301.615 293.639 301.496 293.712 301.381 293.793C299.166 295.344 298.458 298.406 299.8 300.632C301.141 302.858 304.023 303.404 306.238 301.853C306.351 301.773 306.458 301.687 306.564 301.6C307.439 302.567 308.398 303.463 309.435 304.281C309.362 304.4 309.291 304.521 309.227 304.649C307.979 307.105 308.808 310.031 311.077 311.183C313.346 312.335 316.196 311.277 317.443 308.821C317.508 308.694 317.563 308.564 317.617 308.435C318.89 308.79 320.179 309.035 321.476 309.172C321.467 309.308 321.461 309.445 321.464 309.583C321.519 312.287 323.661 314.291 326.249 314.06C328.837 313.83 330.891 311.451 330.838 308.748C330.835 308.607 330.823 308.468 330.809 308.331C332.107 307.961 333.383 307.488 334.624 306.916C334.683 307.036 334.744 307.156 334.814 307.272C336.155 309.498 339.037 310.045 341.252 308.493C343.466 306.941 344.174 303.879 342.833 301.654C342.764 301.54 342.689 301.433 342.612 301.327C343.592 300.347 344.51 299.282 345.359 298.139C345.47 298.208 345.581 298.275 345.699 298.336ZM317.417 298.694C309.18 294.512 306.173 283.891 310.702 274.972C315.23 266.052 325.578 262.213 333.815 266.394C342.052 270.576 345.059 281.197 340.531 290.116C336.003 299.036 325.655 302.877 317.417 298.694Z" fill="url(#paint9_linear)"/>
<path d="M225.49 246.646C225.49 246.646 258.082 283.201 230.284 341.927C227.695 347.397 220.107 347.963 216.705 342.955L195.033 311.051C191.559 305.937 190.41 299.595 191.871 293.592L199.372 262.766L225.49 246.646Z" fill="url(#paint10_linear)"/>
<path d="M152.669 189.092C152.669 189.092 109.54 165.801 58.5742 206.217C53.827 209.982 55.0089 217.478 60.6755 219.638L96.7691 233.389C102.556 235.594 109.006 235.259 114.533 232.468L142.905 218.138L152.669 189.092Z" fill="url(#paint11_linear)"/>
<path d="M228.711 242.591C228.711 242.591 261.303 279.146 233.506 337.873C230.916 343.342 223.328 343.908 219.926 338.9L198.254 306.996C194.78 301.88 193.631 295.541 195.092 289.537L202.593 258.711L228.711 242.591Z" fill="url(#paint12_linear)"/>
<path d="M155.89 185.038C155.89 185.038 112.761 161.746 61.7953 202.163C57.048 205.927 58.23 213.424 63.8965 215.584L99.9901 229.335C105.777 231.54 112.227 231.205 117.754 228.414L146.126 214.083L155.89 185.038Z" fill="url(#paint13_linear)"/>
<path d="M189.961 93.0426C235.723 46.9711 311.506 63.6221 311.546 63.7144C311.645 63.7324 345.217 133.516 310.714 188.48C279.416 238.335 209.839 274.543 196.472 281.176C195.034 281.888 192.701 282.866 191.846 281.509C175.239 255.131 152.975 238.457 126.241 229.687C124.762 229.201 125.225 226.752 125.581 225.24C128.948 210.941 148.379 134.904 189.961 93.0426Z" fill="url(#paint14_linear)"/>
<path d="M281.347 101.728C263.727 87.8012 242.028 75.1902 222.616 71.2274C259.281 55.7195 299.318 61.4279 309.232 63.2453C310.7 63.5141 311.936 64.4917 312.534 65.8554C316.572 75.0661 331.296 112.64 324.542 151.784C317.595 135.738 298.967 115.654 281.347 101.728Z" fill="url(#paint15_linear)"/>
<path d="M196.497 124.335C180.303 144.72 185.572 175.785 208.264 193.719C230.958 211.655 262.482 209.67 278.676 189.285C294.87 168.9 289.601 137.836 266.909 119.9C244.215 101.965 212.69 103.951 196.497 124.335Z" fill="url(#paint16_linear)"/>
<path d="M199.922 127.044C185.078 145.728 189.908 174.203 210.709 190.643C231.511 207.083 260.406 205.263 275.25 186.578C290.095 167.893 285.265 139.419 264.463 122.979C243.663 106.539 214.767 108.359 199.922 127.044Z" fill="url(#paint17_linear)"/>
<path d="M204.777 130.879C191.846 147.155 196.053 171.959 214.174 186.28C232.293 200.601 257.466 199.015 270.395 182.739C283.326 166.463 279.12 141.659 260.999 127.338C242.88 113.018 217.709 114.603 204.777 130.879Z" fill="url(#paint18_linear)"/>
<path d="M124.683 228.626C120.265 234.188 131.982 250.788 150.856 265.706C169.73 280.622 188.611 288.206 193.03 282.644C197.448 277.081 185.731 260.481 166.856 245.564C147.984 230.647 129.101 223.063 124.683 228.626Z" fill="url(#paint19_linear)"/>
<path d="M155.574 245.015L170.24 256.607C178.044 262.775 181.319 273.046 178.524 282.576L175.87 291.62C174.894 294.949 170.847 296.232 168.123 294.079L119.485 255.638C116.76 253.484 117.088 249.263 120.114 247.553L128.335 242.909C136.999 238.015 147.772 238.847 155.574 245.015Z" fill="url(#paint20_linear)"/>
<path d="M117.138 250.617C112.968 255.865 122.214 270.1 137.791 282.411C153.368 294.721 169.374 300.446 173.543 295.197C177.712 289.949 168.467 275.714 152.89 263.403C137.315 251.093 121.308 245.369 117.138 250.617Z" fill="url(#paint21_linear)"/>
<path d="M123.907 255.968C120.739 259.957 127.766 270.775 139.603 280.131C151.441 289.486 163.606 293.838 166.775 289.849C169.943 285.86 162.916 275.041 151.079 265.686C139.241 256.329 127.076 251.979 123.907 255.968Z" fill="url(#paint22_linear)"/>
<path d="M145.531 305.006C140.818 315.629 129.718 334.282 104.278 356.447C64.3375 391.25 64.9043 348.564 69.928 338.592C74.9517 328.615 45.9237 351.577 18.5131 344.272C14.5704 343.218 11.9107 341.563 10.3347 339.506C2.8655 329.749 17.7583 317.14 24.575 312.456C38.4324 302.935 53.9791 305.152 69.6723 302.113C84.2319 299.293 96.9723 290.165 107.209 279.803C112.555 274.391 120.197 271.896 127.723 273.095C133.723 274.058 139.057 277.277 142.689 281.996C143.611 283.188 144.428 284.486 145.112 285.862C148.089 291.857 148.242 298.883 145.531 305.006Z" fill="url(#paint23_linear)"/>
<path opacity="0.3" d="M145.531 305.006C140.818 315.629 129.718 334.282 104.278 356.447C64.3375 391.251 64.9043 348.564 69.928 338.592C74.9517 328.615 45.9237 351.577 18.5131 344.272C14.5704 343.218 11.9093 341.562 10.3347 339.505C19.0813 340.571 32.1119 337.526 45.7163 331.895C67.2862 322.964 71.3505 319.513 73.7919 331.688C76.2332 343.864 73.9992 350.158 101.666 340.418C126.347 331.731 140.019 290.737 142.686 281.995C143.608 283.187 144.425 284.485 145.109 285.861C148.089 291.858 148.242 298.883 145.531 305.006Z" fill="url(#paint24_linear)"/>
<defs>
<linearGradient id="paint0_linear" x1="50.4784" y1="52.2171" x2="454.494" y2="368.583" gradientUnits="userSpaceOnUse">
<stop stop-color="#F09232"/>
<stop offset="1" stop-color="#844AFF"/>
</linearGradient>
<linearGradient id="paint1_linear" x1="198.702" y1="394.044" x2="114.704" y2="362.339" gradientUnits="userSpaceOnUse">
<stop stop-color="#FFC444"/>
<stop offset="0.9964" stop-color="#F36F56"/>
</linearGradient>
<linearGradient id="paint2_linear" x1="135.404" y1="119.069" x2="-20.259" y2="60.3135" gradientUnits="userSpaceOnUse">
<stop stop-color="#FFC444"/>
<stop offset="0.9964" stop-color="#F36F56"/>
</linearGradient>
<linearGradient id="paint3_linear" x1="382.101" y1="90.4285" x2="314.819" y2="83.6768" gradientUnits="userSpaceOnUse">
<stop stop-color="#AA80F9"/>
<stop offset="0.9964" stop-color="#6165D7"/>
</linearGradient>
<linearGradient id="paint4_linear" x1="402.09" y1="250.625" x2="365.926" y2="240.391" gradientUnits="userSpaceOnUse">
<stop stop-color="#311944"/>
<stop offset="1" stop-color="#A03976"/>
</linearGradient>
<linearGradient id="paint5_linear" x1="401.995" y1="250.959" x2="365.831" y2="240.725" gradientUnits="userSpaceOnUse">
<stop stop-color="#311944"/>
<stop offset="1" stop-color="#A03976"/>
</linearGradient>
<linearGradient id="paint6_linear" x1="364.978" y1="227.771" x2="365.544" y2="273.438" gradientUnits="userSpaceOnUse">
<stop stop-color="#FF9085"/>
<stop offset="1" stop-color="#FB6FBB"/>
</linearGradient>
<linearGradient id="paint7_linear" x1="398.015" y1="303.162" x2="327.174" y2="283.116" gradientUnits="userSpaceOnUse">
<stop stop-color="#311944"/>
<stop offset="1" stop-color="#A03976"/>
</linearGradient>
<linearGradient id="paint8_linear" x1="397.83" y1="303.818" x2="326.988" y2="283.772" gradientUnits="userSpaceOnUse">
<stop stop-color="#311944"/>
<stop offset="1" stop-color="#A03976"/>
</linearGradient>
<linearGradient id="paint9_linear" x1="325.318" y1="258.394" x2="326.425" y2="347.851" gradientUnits="userSpaceOnUse">
<stop stop-color="#FF9085"/>
<stop offset="1" stop-color="#FB6FBB"/>
</linearGradient>
<linearGradient id="paint10_linear" x1="249.789" y1="317.711" x2="192.118" y2="271.9" gradientUnits="userSpaceOnUse">
<stop stop-color="#444B8C"/>
<stop offset="0.9964" stop-color="#26264F"/>
</linearGradient>
<linearGradient id="paint11_linear" x1="135.536" y1="227.412" x2="77.8611" y2="181.599" gradientUnits="userSpaceOnUse">
<stop stop-color="#444B8C"/>
<stop offset="0.9964" stop-color="#26264F"/>
</linearGradient>
<linearGradient id="paint12_linear" x1="158.308" y1="411.092" x2="205.276" y2="321.958" gradientUnits="userSpaceOnUse">
<stop stop-color="#FFC444"/>
<stop offset="0.9964" stop-color="#F36F56"/>
</linearGradient>
<linearGradient id="paint13_linear" x1="31.4749" y1="344.259" x2="78.443" y2="255.125" gradientUnits="userSpaceOnUse">
<stop stop-color="#FFC444"/>
<stop offset="0.9964" stop-color="#F36F56"/>
</linearGradient>
<linearGradient id="paint14_linear" x1="230.997" y1="234.173" x2="210.588" y2="6.96384" gradientUnits="userSpaceOnUse">
<stop stop-color="#FFC444"/>
<stop offset="0.9964" stop-color="#F36F56"/>
</linearGradient>
<linearGradient id="paint15_linear" x1="249.118" y1="203.959" x2="270.349" y2="123.298" gradientUnits="userSpaceOnUse">
<stop stop-color="#FFC444"/>
<stop offset="0.9964" stop-color="#F36F56"/>
</linearGradient>
<linearGradient id="paint16_linear" x1="278.678" y1="189.283" x2="196.659" y2="124.131" gradientUnits="userSpaceOnUse">
<stop offset="0.00359712" stop-color="#EBEFF2"/>
<stop offset="1" stop-color="white"/>
</linearGradient>
<linearGradient id="paint17_linear" x1="245.626" y1="120.519" x2="232.974" y2="177.929" gradientUnits="userSpaceOnUse">
<stop offset="0.00359712" stop-color="#EBEFF2"/>
<stop offset="1" stop-color="white"/>
</linearGradient>
<linearGradient id="paint18_linear" x1="231.996" y1="237.198" x2="241.504" y2="99.7729" gradientUnits="userSpaceOnUse">
<stop stop-color="#444B8C"/>
<stop offset="0.9964" stop-color="#26264F"/>
</linearGradient>
<linearGradient id="paint19_linear" x1="136.862" y1="288.149" x2="160.509" y2="253.009" gradientUnits="userSpaceOnUse">
<stop stop-color="#FFC444"/>
<stop offset="0.9964" stop-color="#F36F56"/>
</linearGradient>
<linearGradient id="paint20_linear" x1="181.521" y1="285.092" x2="125.303" y2="240.436" gradientUnits="userSpaceOnUse">
<stop stop-color="#AA80F9"/>
<stop offset="0.9964" stop-color="#6165D7"/>
</linearGradient>
<linearGradient id="paint21_linear" x1="150.512" y1="258.742" x2="131.43" y2="311.284" gradientUnits="userSpaceOnUse">
<stop stop-color="#AA80F9"/>
<stop offset="0.9964" stop-color="#6165D7"/>
</linearGradient>
<linearGradient id="paint22_linear" x1="149.271" y1="262.142" x2="134.769" y2="302.074" gradientUnits="userSpaceOnUse">
<stop stop-color="#444B8C"/>
<stop offset="0.9964" stop-color="#26264F"/>
</linearGradient>
<linearGradient id="paint23_linear" x1="188.96" y1="212.907" x2="130.242" y2="270.342" gradientUnits="userSpaceOnUse">
<stop stop-color="#FF9085"/>
<stop offset="1" stop-color="#FB6FBB"/>
</linearGradient>
<linearGradient id="paint24_linear" x1="192.386" y1="216.786" x2="133.739" y2="274.151" gradientUnits="userSpaceOnUse">
<stop stop-color="#FF9085"/>
<stop offset="1" stop-color="#FB6FBB"/>
</linearGradient>
</defs>
</svg>
