<svg width="424" height="424" viewBox="0 0 424 424" fill="none" xmlns="http://www.w3.org/2000/svg">
<path opacity="0.06" d="M417.764 181.104C406.273 105.459 359.154 12.5247 266.066 2.79792C266.066 2.79792 195.389 -5.84755 125.717 7.25601C84.3671 15.0328 48.1089 38.1797 25.1656 71.4493C2.2223 104.719 -5.44118 145.287 3.86024 183.963C9.90099 209.083 13.9829 235.082 12.8621 260.894C11.4492 293.448 8.78926 327.677 23.1003 358.034C44.068 402.513 95.2304 415.615 139.871 419.793C156.322 421.333 172.834 421.954 189.298 423.263C220.885 425.774 256.308 421.711 286.75 413.442C441.898 371.296 429.257 256.748 417.764 181.104Z" fill="url(#paint0_linear)"/>
<mask id="mask0" mask-type="alpha" maskUnits="userSpaceOnUse" x="139" y="7" width="179" height="216">
<path d="M317.833 92.2953C317.833 45.3214 277.84 7.24121 228.507 7.24121C179.174 7.24121 139.181 45.3214 139.181 92.2953C139.181 120.803 153.912 146.034 176.519 161.466C186.111 168.013 191.926 178.803 191.926 190.416V196.926C191.926 211.068 203.39 222.532 217.533 222.532H239.478C253.62 222.532 265.084 211.068 265.084 196.926V190.416C265.084 178.803 270.902 168.013 280.492 161.466C303.102 146.034 317.833 120.803 317.833 92.2953Z" fill="white"/>
</mask>
<g mask="url(#mask0)">
<path opacity="0.3" d="M189.542 15.7408C198.051 15.6282 209.751 16.9377 218.088 24.8566C228.51 34.7557 223.73 45.5308 230.873 60.0168C242.891 84.3881 267.115 75.581 283.759 100.698C298.897 123.542 293.275 152.579 286.956 157.07C286.388 157.473 279.733 162.002 279.733 162.002L181.185 119.586L189.542 15.7408Z" fill="url(#paint1_linear)"/>
<path opacity="0.3" d="M265.218 214.872C266.862 223.423 261.571 230.253 257.039 234.609C256.264 234.42 255.76 234.524 254.93 234.519C247.44 234.481 244.343 232.784 237.033 231.517C235.459 231.245 231.155 228.952 229.459 227.892L226.332 225.861C226.332 225.861 224.9 205.698 235.72 202.918C246.541 200.138 247.504 180.664 249.222 170.34C253.882 142.329 282.948 152.207 291.815 116.691C294.173 107.245 295.512 88.4418 305.349 82.8968C316.556 76.5793 321.091 86.6381 328.709 80.9182C340.615 71.9803 356.415 71.6396 362.371 85.3667C368.247 98.9142 352.035 118.941 321.206 130.611C300.038 141.49 298.634 145.973 297.247 157.396C296.275 165.397 298.652 187.462 286.108 192.917C273.562 198.371 263.339 205.094 265.218 214.872Z" fill="url(#paint2_linear)"/>
</g>
<path d="M228.507 270.946C239.45 270.946 248.322 266.249 248.322 260.455C248.322 254.661 239.45 249.964 228.507 249.964C217.563 249.964 208.692 254.661 208.692 260.455C208.692 266.249 217.563 270.946 228.507 270.946Z" fill="url(#paint3_linear)"/>
<path d="M202.18 241.715V252.428C202.18 256.052 204.242 259.374 207.513 260.934C212.055 263.1 219.607 265.477 230.581 265.195C239.484 264.967 245.291 263.513 248.982 261.987C252.548 260.511 254.833 256.985 254.833 253.126V247.198L202.18 241.715Z" fill="url(#paint4_linear)"/>
<path opacity="0.3" d="M202.18 251.099C202.983 251.879 203.912 252.541 204.955 253.038C210.05 255.468 243.426 260.898 251.478 257.873C252.524 257.48 253.464 256.954 254.288 256.32C254.641 255.309 254.834 254.232 254.834 253.125V247.196L202.18 241.714V251.099Z" fill="url(#paint5_linear)"/>
<path d="M204.517 234.426C201.552 234.117 198.971 236.443 198.971 239.425V239.729C198.971 243.796 201.286 247.522 204.955 249.271C210.05 251.701 243.426 257.13 251.478 254.106C255.531 252.583 258.042 249.104 258.042 244.774V244.529C258.042 241.954 256.096 239.796 253.537 239.53L204.517 234.426Z" fill="url(#paint6_linear)"/>
<path opacity="0.3" d="M253.537 239.53L204.517 234.426C202.583 234.225 200.819 235.147 199.821 236.639C200.805 238.959 202.598 240.9 204.955 242.024C210.05 244.454 244.848 250.591 251.478 247.467C254.058 246.25 256.081 244.199 257.167 241.703C256.36 240.518 255.059 239.688 253.537 239.53Z" fill="url(#paint7_linear)"/>
<path d="M202.6 217.069C200.595 217.069 198.971 218.693 198.971 220.698V229.088C198.971 233.155 201.286 236.881 204.955 238.63C210.05 241.06 244.848 247.197 251.478 244.073C255.394 242.226 258.042 238.461 258.042 234.133V220.698C258.042 218.693 256.417 217.069 254.413 217.069H202.6Z" fill="url(#paint8_linear)"/>
<path opacity="0.1" d="M317.833 92.2953C317.833 45.3214 277.84 7.24121 228.507 7.24121C179.174 7.24121 139.181 45.3214 139.181 92.2953C139.181 120.803 153.912 146.034 176.519 161.466C186.111 168.013 191.926 178.803 191.926 190.416V196.926C191.926 211.068 203.39 222.532 217.533 222.532H239.478C253.62 222.532 265.084 211.068 265.084 196.926V190.416C265.084 178.803 270.902 168.013 280.492 161.466C303.102 146.034 317.833 120.803 317.833 92.2953Z" fill="url(#paint9_linear)"/>
<path fill-rule="evenodd" clip-rule="evenodd" d="M228.464 174.352L228.507 174.352L228.55 174.352C275.209 174.33 313.306 138.758 314.563 94.5815C314.594 94.4534 314.594 94.3425 314.594 94.2513C314.594 94.1778 314.594 94.0915 314.578 93.9937C314.589 93.4396 314.595 92.8841 314.595 92.3274C314.595 47.1644 276.09 10.4096 228.716 10.3015C228.647 10.3004 228.577 10.2998 228.507 10.2998C228.437 10.2998 228.367 10.3004 228.297 10.3015C212.45 10.3377 197.596 14.4745 184.843 21.655C183.324 22.2457 182.207 22.8908 181.576 23.589C158.019 38.2405 142.419 63.5807 142.419 92.3274C142.419 92.8814 142.424 93.4342 142.436 93.9856C142.419 94.0867 142.419 94.1758 142.419 94.2513C142.419 94.3442 142.419 94.4575 142.451 94.5886C143.712 138.762 181.809 174.33 228.464 174.352ZM181.003 25.1768C168.1 33.4804 157.707 45.0643 151.155 58.6613C154.708 56.6779 162.515 55.0661 172.747 53.8477C176.624 44.4071 181.881 36.061 188.165 29.2665C183.909 28.1512 181.245 26.7836 181.003 25.1768ZM189.304 29.5501C183.051 36.2019 177.806 44.4076 173.919 53.711C181.798 52.8116 191.027 52.1379 200.813 51.6993C202.184 45.4882 203.881 39.7088 205.88 34.5054C206.207 33.6535 206.541 32.8226 206.88 32.0127C200.035 31.4612 193.889 30.6358 189.304 29.5501ZM207.306 31.0143C200.272 30.4533 194.425 29.6312 190.133 28.6838C193.634 25.0872 197.437 21.9703 201.485 19.4099C205.396 18.9754 209.804 18.6259 214.623 18.3938C211.988 21.6682 209.527 25.8981 207.306 31.0143ZM207.939 32.0955C205.555 37.7307 203.506 44.3279 201.882 51.6524C210.36 51.2886 219.232 51.1001 227.99 51.093V32.8322C221.2 32.8256 214.293 32.5765 207.939 32.0955ZM229.026 32.8314V51.093C237.782 51.1002 246.654 51.2886 255.132 51.6524C253.504 44.3127 251.45 37.7032 249.06 32.0602C242.728 32.5528 235.826 32.8133 229.026 32.8314ZM248.629 31.0614C242.817 31.5084 236.215 31.778 229.026 31.7958V18.0767C233.248 18.0871 237.268 18.1843 241.044 18.3534C243.811 21.6097 246.364 25.9095 248.629 31.0614ZM250.118 31.9753C250.463 32.797 250.802 33.6404 251.134 34.5054C253.133 39.7087 254.83 45.4882 256.201 51.6993C265.987 52.138 275.216 52.8117 283.095 53.7112C279.19 44.3642 273.914 36.1253 267.622 29.4569C263.1 30.5641 256.972 31.4082 250.118 31.9753ZM266.795 28.5959C262.562 29.5593 256.735 30.3994 249.692 30.9769C247.481 25.8901 245.032 21.6811 242.411 18.4183C247.274 18.6621 251.712 19.0258 255.633 19.4754C259.608 22.0025 263.348 25.067 266.795 28.5959ZM268.755 29.1648C275.081 35.9777 280.371 44.3601 284.267 53.8478C294.499 55.0663 302.305 56.6781 305.858 58.6615C299.228 44.9033 288.666 33.2061 275.55 24.8829C275.55 24.8979 275.551 24.9129 275.551 24.9279L275.551 24.9362C275.551 26.5985 272.993 28.0126 268.755 29.1648ZM273.641 23.7062C274.217 24.1168 274.515 24.5294 274.515 24.9362C274.515 26.0756 272.174 27.2606 267.956 28.3188C264.839 25.071 261.48 22.1987 257.922 19.7552C265.06 20.6838 270.219 21.9058 272.751 23.1806C273.049 23.3541 273.346 23.5293 273.641 23.7062ZM267.602 20.4112C260.063 16.6799 251.867 13.9924 243.227 12.5509C247.675 13.9355 251.941 15.9333 255.97 18.4713C260.438 18.9845 264.417 19.6327 267.602 20.4112ZM253.545 18.2105C247.61 14.7884 241.189 12.5439 234.459 11.7058C236.903 12.8778 239.268 14.7717 241.514 17.3464C245.702 17.5423 249.768 17.8312 253.545 18.2105ZM240.091 17.2836C236.665 13.6123 232.933 11.5188 229.026 11.3483V17.041C232.72 17.0508 236.445 17.1323 240.091 17.2836ZM227.99 31.7966C220.805 31.7901 214.198 31.5322 208.369 31.0965C210.643 25.9176 213.208 21.598 215.989 18.3317C219.763 18.1699 223.777 18.0797 227.99 18.0759V31.7966ZM227.99 17.0402V11.3483C224.089 11.518 220.363 13.6041 216.941 17.2633C220.587 17.1187 224.306 17.0438 227.99 17.0402ZM215.52 17.3234C217.761 14.7605 220.118 12.8743 222.555 11.7057C215.863 12.5391 209.476 14.7631 203.569 18.153C207.332 17.7871 211.37 17.5097 215.52 17.3234ZM201.149 18.4049C205.147 15.8984 209.378 13.9234 213.787 12.5509C205.315 13.9643 197.27 16.5759 189.852 20.1948C193.015 19.4789 196.868 18.8809 201.149 18.4049ZM182.165 24.4424C183.274 23.7537 184.401 23.0888 185.544 22.4487C188.483 21.4102 193.16 20.4409 199.202 19.68C195.568 22.1635 192.141 25.0937 188.967 28.4141C184.505 27.3321 182.021 26.11 182.021 24.9362C182.021 24.7724 182.07 24.6076 182.165 24.4424ZM143.528 95.7119C143.928 104.941 145.958 113.776 149.35 121.963C150.859 119.62 157.884 117.708 168.097 116.253C166.846 110.935 166.001 105.39 165.609 99.6782C150.836 98.3297 145.474 96.8346 143.528 95.7119ZM181.032 159.496C167.848 151.018 157.281 139.117 150.751 125.143C154.064 127.219 161.977 128.9 172.486 130.164C176.296 139.642 181.49 148.038 187.717 154.898C183.518 156.047 180.985 157.455 180.985 159.109C180.985 159.239 181.001 159.368 181.032 159.496ZM187.469 163.25C195.535 167.499 204.399 170.536 213.788 172.103C208.952 170.597 204.331 168.368 199.997 165.507C195.053 164.921 190.735 164.166 187.469 163.25ZM202.327 165.766C208.579 169.57 215.393 172.056 222.559 172.948C219.924 171.686 217.382 169.585 214.981 166.696C210.561 166.489 206.278 166.178 202.327 165.766ZM214.124 165.625C209.028 165.369 204.4 164.982 200.343 164.503C196.536 161.966 192.954 158.933 189.649 155.468C193.932 154.487 199.865 153.631 207.053 153.049C209.2 158.102 211.577 162.316 214.124 165.625ZM216.366 166.758C219.944 170.809 223.87 173.126 227.99 173.305V167.005C224.112 167.001 220.196 166.918 216.366 166.758ZM229.026 167.004V173.305C233.152 173.125 237.084 170.8 240.666 166.737C236.836 166.904 232.914 166.993 229.026 167.004ZM241.569 165.666C237.641 165.85 233.445 165.956 229.026 165.967V152.247C236.322 152.265 243.012 152.543 248.886 153.002C246.7 158.084 244.239 162.364 241.569 165.666ZM242.053 166.673C239.646 169.573 237.097 171.682 234.455 172.948C241.659 172.051 248.508 169.544 254.787 165.705C250.825 166.131 246.513 166.455 242.053 166.673ZM256.776 164.432C252.712 164.929 248.054 165.331 242.909 165.599C245.442 162.302 247.807 158.11 249.945 153.087C257.145 153.686 263.058 154.561 267.278 155.559C264.027 158.954 260.511 161.933 256.776 164.432ZM257.124 165.437C252.758 168.331 248.101 170.585 243.226 172.102C252.85 170.497 261.922 167.346 270.149 162.929C266.903 163.953 262.385 164.792 257.124 165.437ZM275.354 159.895C288.831 151.394 299.628 139.338 306.261 125.143C302.949 127.219 295.037 128.9 284.528 130.164C280.699 139.691 275.471 148.125 269.2 155.004C273.171 156.134 275.551 157.506 275.551 159.109C275.551 159.377 275.484 159.639 275.354 159.895ZM268.422 155.844C272.346 156.871 274.515 158.01 274.515 159.107C274.515 160.896 268.742 162.798 258.995 164.144C262.333 161.744 265.487 158.962 268.422 155.844ZM268.083 154.704C274.315 147.97 279.525 139.683 283.36 130.301C275.459 131.212 266.182 131.894 256.336 132.337C254.941 138.782 253.199 144.772 251.134 150.146C250.88 150.807 250.623 151.455 250.362 152.09C257.353 152.677 263.573 153.553 268.083 154.704ZM249.307 152.004C251.658 146.333 253.675 139.716 255.268 132.384C246.749 132.752 237.829 132.942 229.026 132.95V151.213C235.915 151.232 242.908 151.499 249.307 152.004ZM227.99 165.967C223.581 165.963 219.389 165.865 215.462 165.688C212.779 162.376 210.306 158.076 208.112 152.966C214.004 152.519 220.699 152.253 227.99 152.247V165.967ZM227.99 151.213V132.95C219.186 132.942 210.265 132.752 201.746 132.384C203.335 139.7 205.346 146.305 207.691 151.968C214.113 151.475 221.112 151.219 227.99 151.213ZM206.636 152.052C206.381 151.429 206.129 150.794 205.88 150.146C203.815 144.772 202.072 138.782 200.678 132.337C190.832 131.894 181.555 131.212 173.654 130.301C177.471 139.638 182.649 147.89 188.841 154.606C193.418 153.479 199.657 152.622 206.636 152.052ZM188.498 155.745C191.493 158.938 194.716 161.78 198.131 164.224C188.027 162.874 182.021 160.932 182.021 159.107C182.021 157.975 184.332 156.798 188.498 155.745ZM173.206 129.186C181.112 130.124 190.374 130.836 200.457 131.297C199.354 126.021 198.482 120.45 197.855 114.669C188.587 115.139 180.074 115.827 172.749 116.709C171.571 116.851 170.447 116.995 169.374 117.142C170.407 121.313 171.692 125.338 173.206 129.186ZM229.026 131.912C238.193 131.905 247.115 131.711 255.49 131.345C256.592 126.096 257.479 120.492 258.119 114.617C248.993 114.172 239.159 113.935 229.026 113.927V131.912ZM256.557 131.297C266.64 130.836 275.901 130.124 283.808 129.186C285.322 125.338 286.607 121.313 287.639 117.142C286.567 116.995 285.443 116.851 284.265 116.709C276.94 115.827 268.427 115.139 259.159 114.669C258.531 120.45 257.659 126.021 256.557 131.297ZM313.485 95.7119C313.084 104.941 311.054 113.776 307.662 121.963C306.153 119.62 299.129 117.707 288.917 116.252C290.168 110.935 291.013 105.39 291.405 99.6782C306.177 98.3297 311.538 96.8347 313.485 95.7119ZM306.93 122.92C306.93 121.395 302.036 119.185 288.668 117.285C287.666 121.351 286.426 125.281 284.969 129.045C301.144 127.046 306.93 124.578 306.93 122.92ZM290.361 99.7719C289.965 105.403 289.126 110.868 287.889 116.109C279.845 115.01 269.948 114.184 259.267 113.644C259.676 109.682 259.971 105.624 260.147 101.498C270.848 101.138 280.669 100.594 289.057 99.8845C289.499 99.8471 289.934 99.8096 290.361 99.7719ZM259.108 101.532C258.93 105.653 258.633 109.681 258.228 113.593C248.829 113.136 238.855 112.9 229.026 112.892V102.006C239.471 102.001 249.624 101.838 259.108 101.532ZM201.524 131.345C209.899 131.711 218.822 131.905 227.99 131.912V113.927C217.855 113.935 208.021 114.172 198.894 114.617C199.535 120.492 200.422 126.095 201.524 131.345ZM227.99 102.006V112.892C218.16 112.9 208.185 113.136 198.786 113.593C198.38 109.681 198.084 105.653 197.906 101.532C207.39 101.838 217.544 102.001 227.99 102.006ZM196.867 101.497C197.043 105.624 197.338 109.682 197.746 113.644C187.066 114.184 177.169 115.01 169.125 116.109C167.888 110.869 167.049 105.403 166.653 99.7719C167.08 99.8096 167.514 99.8471 167.956 99.8845C176.345 100.593 186.166 101.138 196.867 101.497ZM172.045 129.045C170.588 125.281 169.348 121.351 168.345 117.285C154.978 119.185 150.084 121.395 150.084 122.92C150.084 124.578 155.87 127.046 172.045 129.045ZM196.826 100.461C186.172 100.102 176.395 99.5597 168.043 98.8533C167.547 98.8114 167.061 98.7693 166.585 98.727C166.458 96.6153 166.393 94.481 166.393 92.3274C166.393 91.4785 166.403 90.6327 166.423 89.79C166.951 89.7429 167.491 89.696 168.043 89.6493C176.366 88.9453 186.104 88.4043 196.715 88.0451C196.687 89.4658 196.673 90.893 196.673 92.3259C196.673 95.0606 196.724 97.7748 196.826 100.461ZM259.15 100.496C249.657 100.803 239.488 100.967 229.026 100.972V87.5309C239.53 87.5361 249.737 87.7006 259.262 88.0107C259.291 89.4402 259.305 90.8795 259.305 92.3275C259.305 95.0841 259.253 97.809 259.15 100.496ZM290.429 98.727C289.953 98.7693 289.467 98.8114 288.971 98.8533C280.619 99.5597 270.842 100.102 260.188 100.461C260.29 97.7748 260.341 95.0605 260.341 92.3259C260.341 90.8931 260.327 89.4658 260.299 88.0451C270.91 88.4043 280.647 88.9454 288.971 89.6493C289.523 89.696 290.063 89.7429 290.591 89.79C290.611 90.6327 290.621 91.4785 290.621 92.3274C290.621 94.481 290.556 96.6153 290.429 98.727ZM313.532 94.3407C313.302 94.7935 311.165 96.8228 291.472 98.6328C291.594 96.5515 291.657 94.4487 291.657 92.3274C291.657 91.5102 291.647 90.6958 291.629 89.8843C311.302 91.7023 313.33 93.7364 313.536 94.1705L313.532 94.3407ZM313.556 92.8328C313.557 92.6644 313.558 92.496 313.558 92.3274C313.558 81.7253 311.408 71.5923 307.5 62.3034C305.692 64.5557 298.737 66.3998 288.776 67.8104C290.392 74.496 291.364 81.5475 291.6 88.8423C306.408 90.2031 311.68 91.7104 313.556 92.8328ZM306.93 61.1227C306.93 61.0556 306.921 60.9871 306.901 60.9175L306.832 60.7623L306.782 60.6486C305.78 59.0078 299.595 56.7885 284.718 54.9666C286.212 58.7441 287.487 62.691 288.521 66.7786C302 64.8739 306.93 62.6533 306.93 61.1227ZM256.427 52.7394C266.452 53.1954 275.668 53.8998 283.552 54.8267C285.105 58.6864 286.426 62.7284 287.491 66.9213C286.463 67.0607 285.389 67.1984 284.265 67.3337C276.923 68.2179 268.386 68.9064 259.092 69.3773C258.445 63.5881 257.552 58.0133 256.427 52.7394ZM290.561 88.7484C290.319 81.5341 289.35 74.5617 287.747 67.9532C279.713 69.0449 269.846 69.8653 259.204 70.4016C259.776 75.7812 260.137 81.34 260.276 87.0097C270.927 87.3694 280.703 87.912 289.057 88.6181C289.569 88.6614 290.07 88.7048 290.561 88.7484ZM259.239 86.9753C259.097 81.2894 258.731 75.7617 258.164 70.453C248.783 70.9074 238.832 71.1428 229.026 71.1508V86.4967C239.519 86.5019 249.718 86.6661 259.239 86.9753ZM229.026 70.1152C239.134 70.1074 248.944 69.8718 258.052 69.4289C257.391 63.5452 256.483 57.9382 255.359 52.6918C247.022 52.3293 238.145 52.1372 229.026 52.1302V70.1152ZM227.99 100.972C217.527 100.967 207.358 100.803 197.864 100.496C197.761 97.809 197.709 95.0841 197.709 92.3275C197.709 90.8795 197.723 89.4402 197.752 88.0107C207.277 87.7006 217.485 87.5361 227.99 87.5309V100.972ZM227.99 86.4967V71.1508C218.182 71.1428 208.231 70.9074 198.85 70.453C198.283 75.7616 197.917 81.289 197.775 86.9748C207.296 86.6657 217.496 86.5019 227.99 86.4967ZM198.962 69.4295C208.07 69.8722 217.881 70.1074 227.99 70.1152V52.1302C218.869 52.1372 209.992 52.3293 201.655 52.6918C200.531 57.9383 199.622 63.5456 198.962 69.4295ZM173.462 54.8267C181.346 53.8998 190.562 53.1954 200.587 52.7394C199.462 58.0134 198.569 63.5884 197.922 69.3779C188.628 68.9072 180.091 68.2187 172.749 67.3337C171.625 67.1984 170.55 67.0607 169.523 66.9213C170.588 62.7284 171.909 58.6864 173.462 54.8267ZM169.267 67.9533C177.301 69.045 187.168 69.8653 197.81 70.4016C197.238 75.7809 196.877 81.3396 196.738 87.0091C186.087 87.3686 176.311 87.9112 167.956 88.6181C167.445 88.6614 166.944 88.7048 166.453 88.7484C166.695 81.5341 167.664 74.5618 169.267 67.9533ZM172.296 54.9666C170.802 58.7441 169.527 62.691 168.493 66.7786C155.014 64.8739 150.084 62.6533 150.084 61.1227C150.084 61.053 150.094 60.9819 150.115 60.9095C150.152 60.8252 150.19 60.7409 150.227 60.6567C151.214 59.0152 157.394 56.7915 172.296 54.9666ZM168.238 67.8105C158.277 66.3999 151.321 64.5557 149.512 62.3034C145.605 71.5923 143.454 81.7252 143.454 92.3274C143.454 92.496 143.455 92.6645 143.456 92.8328C145.333 91.7104 150.604 90.2031 165.414 88.8423C165.65 81.5475 166.622 74.4961 168.238 67.8105ZM143.48 94.3376L143.476 94.1735C143.675 93.7459 145.666 91.7066 165.385 89.8842C165.367 90.6958 165.357 91.5102 165.357 92.3274C165.357 94.4487 165.42 96.5515 165.542 98.6329C145.803 96.8186 143.702 94.7841 143.48 94.3376Z" fill="white"/>
<path fill-rule="evenodd" clip-rule="evenodd" d="M230.816 13.1486C232.092 11.8722 232.092 9.8029 230.816 8.52658C229.54 7.25025 227.47 7.25026 226.194 8.52659C224.918 9.80291 224.918 11.8722 226.194 13.1486C227.47 14.4249 229.54 14.4249 230.816 13.1486ZM278.237 24.3427C278.237 26.1477 276.773 27.611 274.968 27.611C273.163 27.611 271.7 26.1477 271.7 24.3427C271.7 22.5377 273.163 21.0744 274.968 21.0744C276.773 21.0744 278.237 22.5377 278.237 24.3427ZM270.355 29.3735C270.644 27.5917 269.433 25.9128 267.651 25.6235C265.868 25.3342 264.189 26.5441 263.899 28.3258C263.61 30.1075 264.821 31.7864 266.603 32.0757C268.386 32.365 270.065 31.1552 270.355 29.3735ZM252.638 31.3233C252.638 33.1292 251.174 34.5931 249.368 34.5931C247.562 34.5931 246.098 33.1292 246.098 31.3233C246.098 29.5175 247.562 28.0535 249.368 28.0535C251.174 28.0535 252.638 29.5175 252.638 31.3233ZM228.507 35.463C230.312 35.463 231.775 33.9998 231.775 32.1948C231.775 30.3898 230.312 28.9265 228.507 28.9265C226.702 28.9265 225.239 30.3898 225.239 32.1948C225.239 33.9998 226.702 35.463 228.507 35.463ZM310.53 60.307C310.53 62.1129 309.066 63.5768 307.26 63.5768C305.454 63.5768 303.99 62.1129 303.99 60.307C303.99 58.5012 305.454 57.0373 307.26 57.0373C309.066 57.0373 310.53 58.5012 310.53 60.307ZM288.19 70.3342C289.996 70.3342 291.46 68.8703 291.46 67.0645C291.46 65.2586 289.996 63.7947 288.19 63.7947C286.385 63.7947 284.921 65.2586 284.921 67.0645C284.921 68.8703 286.385 70.3342 288.19 70.3342ZM259.917 73.1457C261.585 72.4546 262.378 70.5425 261.687 68.8748C260.996 67.2072 259.084 66.4155 257.415 67.1066C255.747 67.7977 254.954 69.7099 255.645 71.3775C256.336 73.0452 258.248 73.8368 259.917 73.1457ZM291.098 95.7161C292.855 96.1309 293.943 97.8912 293.528 99.6478C293.113 101.404 291.353 102.492 289.596 102.077C287.839 101.663 286.752 99.9024 287.166 98.1457C287.581 96.3891 289.342 95.3013 291.098 95.7161ZM259.641 104.005C261.447 104.005 262.911 102.541 262.911 100.735C262.911 98.9296 261.447 97.4657 259.641 97.4657C257.836 97.4657 256.372 98.9296 256.372 100.735C256.372 102.541 257.836 104.005 259.641 104.005ZM316.987 95.1031C317.401 93.3464 316.314 91.5861 314.557 91.1713C312.8 90.7565 311.04 91.8443 310.625 93.601C310.21 95.3576 311.298 97.1179 313.055 97.5327C314.811 97.9475 316.572 96.8597 316.987 95.1031ZM229.264 67.383C231.021 67.7978 232.108 69.5581 231.694 71.3147C231.279 73.0714 229.519 74.1592 227.762 73.7444C226.005 73.3296 224.918 71.5693 225.332 69.8126C225.747 68.056 227.507 66.9682 229.264 67.383ZM259.206 132.008C259.206 133.814 257.743 135.278 255.937 135.278C254.131 135.278 252.667 133.814 252.667 132.008C252.667 130.203 254.131 128.739 255.937 128.739C257.743 128.739 259.206 130.203 259.206 132.008ZM284.413 132.37C286.218 132.37 287.681 130.907 287.681 129.102C287.681 127.297 286.218 125.834 284.413 125.834C282.608 125.834 281.144 127.297 281.144 129.102C281.144 130.907 282.608 132.37 284.413 132.37ZM310.072 123.581C310.072 125.387 308.608 126.851 306.802 126.851C304.997 126.851 303.533 125.387 303.533 123.581C303.533 121.776 304.997 120.312 306.802 120.312C308.608 120.312 310.072 121.776 310.072 123.581Z" fill="white"/>
<mask id="mask1" mask-type="alpha" maskUnits="userSpaceOnUse" x="139" y="14" width="142" height="209">
<path d="M253.5 132C239.997 104.474 246.759 92.4036 230.5 77C214.348 61.6974 205.93 63.555 198.5 49.0002C190.723 33.7668 198.5 27 191.926 14.6777C160.833 27.9843 139.181 57.7324 139.181 92.2957C139.181 120.804 153.912 146.034 176.519 161.466C186.111 168.013 191.926 178.804 191.926 190.417V196.926C191.926 211.068 203.39 222.532 217.533 222.532H239.478C253.62 222.532 265.084 211.068 265.084 196.926V190.417C265.084 178.804 270.902 168.013 280.492 161.466C275 144 262.084 149.5 253.5 132Z" fill="url(#paint10_linear)"/>
</mask>
<g mask="url(#mask1)">
<path opacity="0.75" d="M317.833 92.2958C317.833 45.3218 277.84 7.2417 228.507 7.2417C179.174 7.2417 139.181 45.3218 139.181 92.2958C139.181 120.804 153.912 146.034 176.519 161.466C186.111 168.014 191.927 178.804 191.927 190.417V196.926C191.927 211.068 203.391 222.532 217.533 222.532H239.478C253.621 222.532 265.085 211.068 265.085 196.926V190.417C265.085 178.804 270.902 168.014 280.492 161.466C303.103 146.034 317.833 120.804 317.833 92.2958Z" fill="#F4F7FA"/>
<path d="M228.507 226.493C244.415 226.493 257.312 223.444 257.312 219.682C257.312 215.921 244.415 212.872 228.507 212.872C212.599 212.872 199.702 215.921 199.702 219.682C199.702 223.444 212.599 226.493 228.507 226.493Z" fill="url(#paint11_linear)"/>
<path d="M317.833 92.2958C317.833 45.3218 277.84 7.2417 228.507 7.2417C179.174 7.2417 139.181 45.3218 139.181 92.2958C139.181 120.804 153.912 146.034 176.519 161.466C186.111 168.014 191.927 178.804 191.927 190.417V196.926C191.927 211.068 203.391 222.532 217.533 222.532H239.478C253.621 222.532 265.085 211.068 265.085 196.926V190.417C265.085 178.804 270.902 168.014 280.492 161.466C303.103 146.034 317.833 120.804 317.833 92.2958Z" fill="url(#paint12_linear)"/>
<path opacity="0.5" d="M228.507 219.296C240.148 219.296 249.584 217.064 249.584 214.312C249.584 211.559 240.148 209.328 228.507 209.328C216.866 209.328 207.43 211.559 207.43 214.312C207.43 217.064 216.866 219.296 228.507 219.296Z" fill="#F4F7FA"/>
<path d="M223.014 217.357C222.41 217.357 221.887 216.908 221.808 216.294L206.301 95.71C206.216 95.0423 206.688 94.4325 207.354 94.3473C208.023 94.2576 208.631 94.7321 208.716 95.3997L224.223 215.984C224.308 216.651 223.837 217.261 223.17 217.346C223.119 217.354 223.065 217.357 223.014 217.357Z" fill="url(#paint13_linear)"/>
<path d="M232.645 217.357C232.593 217.357 232.542 217.354 232.489 217.347C231.821 217.261 231.349 216.65 231.436 215.984L246.943 95.4001C247.028 94.7324 247.638 94.2564 248.307 94.3476C248.974 94.4328 249.446 95.0442 249.359 95.7103L233.853 216.294C233.774 216.909 233.249 217.357 232.645 217.357Z" fill="url(#paint14_linear)"/>
<path d="M245.273 95.6127C244.877 95.6127 244.488 95.4195 244.255 95.0652L239.976 88.5728C239.932 88.5058 239.863 88.4678 239.802 88.4754C239.696 88.4785 239.652 88.553 239.636 88.5773L236.811 93.3101C236.342 94.0934 235.521 94.5755 234.615 94.5983C233.714 94.6272 232.863 94.1801 232.353 93.4196L228.474 87.6025C228.431 87.5401 228.375 87.5066 228.306 87.5066C228.224 87.5219 228.185 87.5355 228.144 87.5949L224.735 92.5208C224.243 93.2326 223.437 93.6584 222.576 93.6599H222.57C221.71 93.6599 220.901 93.2371 220.406 92.5254L215.492 85.487C215.448 85.4231 215.385 85.4018 215.318 85.3942C215.248 85.3972 215.194 85.4322 215.154 85.4991L210.669 93.2402C210.332 93.8211 209.586 94.0204 209.005 93.6827C208.423 93.3451 208.225 92.5999 208.561 92.0174L213.046 84.2764C213.502 83.4901 214.313 82.9974 215.215 82.9594C216.111 82.9137 216.967 83.3441 217.489 84.0909L222.402 91.1293C222.445 91.1901 222.501 91.222 222.568 91.222C222.634 91.222 222.688 91.1916 222.729 91.1323L226.138 86.2063C226.636 85.4855 227.458 85.0581 228.325 85.0672C229.197 85.0748 230.01 85.5159 230.498 86.2489L234.377 92.0646C234.422 92.13 234.487 92.1847 234.551 92.1604C234.656 92.1574 234.701 92.0828 234.715 92.0585L237.541 87.3257C238.011 86.5394 238.835 86.0573 239.744 86.0375C240.645 86.0177 241.501 86.4634 242.006 87.2299L246.286 93.7223C246.655 94.2835 246.5 95.0393 245.939 95.4089C245.737 95.5473 245.504 95.6127 245.273 95.6127Z" fill="url(#paint15_linear)"/>
<path opacity="0.3" d="M230.128 159.384C232.041 126.601 287.307 118.928 287.071 89.6522C286.925 71.6212 264.964 58.2302 260.274 55.5475C225.719 35.7843 183.188 58.6059 174.403 42.4531C172.216 38.432 173.241 34.0536 173.825 31.5609C174.708 27.7923 176.706 24.2837 179.67 21.0732C155.291 36.2603 139.179 62.484 139.179 92.2954C139.179 120.803 153.91 146.034 176.517 161.466C186.109 168.013 191.925 178.803 191.925 190.417V196.926C191.925 211.068 203.389 222.532 217.531 222.532H239.477C253.619 222.532 265.083 211.068 265.083 196.926V191.721C262.063 194.036 258.594 195.651 254.79 195.619C241.594 195.511 229.176 175.698 230.128 159.384Z" fill="url(#paint16_linear)"/>
<path opacity="0.44" d="M229.935 169.742C272.388 169.742 306.803 136.553 306.803 95.6124C306.803 54.6715 272.388 21.4824 229.935 21.4824C187.482 21.4824 153.068 54.6715 153.068 95.6124C153.068 136.553 187.482 169.742 229.935 169.742Z" fill="#F4F7FA"/>
</g>
<path d="M188.605 406.533C188.911 406.533 189.158 406.286 189.158 405.98V261.557C189.158 261.251 188.911 261.003 188.605 261.003C188.299 261.003 188.051 261.251 188.051 261.557V405.98C188.051 406.286 188.299 406.533 188.605 406.533Z" fill="#8F969E"/>
<path d="M149.696 397.46C150.002 397.46 150.249 397.212 150.249 396.906V257.913C150.249 257.607 150.002 257.359 149.696 257.359C149.39 257.359 149.142 257.607 149.142 257.913V396.906C149.142 397.212 149.39 397.46 149.696 397.46Z" fill="#8F969E"/>
<path d="M59.7386 403.933C59.9652 403.933 60.1781 403.793 60.2587 403.568L112.271 260.252C112.376 259.965 112.227 259.647 111.94 259.542C111.654 259.437 111.334 259.586 111.229 259.873L59.217 403.189C59.112 403.477 59.2611 403.794 59.5485 403.899C59.6124 403.922 59.6762 403.933 59.7386 403.933Z" fill="#8F969E"/>
<path d="M98.1366 415.149C98.3738 415.149 98.5929 414.996 98.6659 414.758L145.348 263.658C145.438 263.366 145.275 263.055 144.981 262.966C144.688 262.874 144.379 263.039 144.289 263.332L97.6074 414.433C97.5176 414.725 97.6804 415.035 97.9739 415.125C98.0271 415.14 98.0834 415.149 98.1366 415.149Z" fill="#8F969E"/>
<path d="M150.123 257.77L189.155 260.658V261.536L144.548 263.535L111.207 259.451V258.573L150.123 257.77Z" fill="#8F969E"/>
<path d="M150.123 256.891L189.155 260.658L144.548 262.658L111.207 258.573L150.123 256.891Z" fill="#E7EBEF"/>
<path d="M108.236 382.458C108.481 382.458 108.706 382.294 108.772 382.045C108.849 381.748 108.673 381.446 108.376 381.368L71.2118 371.618C70.9167 371.54 70.6126 371.717 70.535 372.013C70.4574 372.31 70.6339 372.613 70.9304 372.69L108.095 382.44C108.142 382.452 108.189 382.458 108.236 382.458Z" fill="#8F969E"/>
<path d="M118.764 348.255C119.028 348.255 119.261 348.067 119.308 347.797C119.361 347.496 119.161 347.209 118.859 347.156L82.3869 340.698C82.0796 340.64 81.7983 340.846 81.7451 341.147C81.6918 341.448 81.8926 341.735 82.1937 341.789L118.668 348.248C118.7 348.252 118.732 348.255 118.764 348.255Z" fill="#8F969E"/>
<path d="M129.709 312.951C129.984 312.951 130.222 312.747 130.258 312.467C130.298 312.163 130.083 311.886 129.779 311.846L94.4805 307.296C94.1794 307.26 93.8996 307.471 93.86 307.775C93.8205 308.079 94.0349 308.356 94.3391 308.396L129.638 312.946C129.662 312.949 129.686 312.951 129.709 312.951Z" fill="#8F969E"/>
<path d="M136.723 288.452C136.991 288.452 137.228 288.255 137.269 287.983C137.316 287.68 137.109 287.398 136.807 287.35L103.618 282.157C103.314 282.107 103.032 282.317 102.985 282.619C102.938 282.922 103.145 283.205 103.447 283.252L136.636 288.445C136.667 288.45 136.694 288.452 136.723 288.452Z" fill="#8F969E"/>
<path d="M172.63 255.561C172.63 255.561 182.593 260.118 182.754 260.842C182.915 261.566 176.341 260.583 173.657 260.682C170.971 260.779 168.766 259.981 169.01 258.845C169.257 257.709 170.203 254.85 170.203 254.85L172.63 255.561Z" fill="url(#paint17_linear)"/>
<path d="M173.004 251.884L172.387 256.373C172.387 256.373 170.807 256.932 169.748 256.264L169.307 251.338L173.004 251.884Z" fill="#D8DEE8"/>
<path d="M126.036 251.879L124.871 253.739C124.546 254.26 124.447 254.886 124.602 255.481C125.004 257.03 125.807 260.051 126.158 260.839C126.637 261.912 133.088 262.563 133.088 262.563C133.088 262.563 133.666 261.754 132.328 260.773C130.991 259.792 130.129 259.636 129.66 258.191C129.19 256.746 128.885 252.663 128.885 252.663L126.036 251.879Z" fill="url(#paint18_linear)"/>
<path d="M130.876 247.157C130.451 247.493 128.363 253.781 128.363 253.781C128.363 253.781 127.689 254.637 126.418 253.368C125.147 252.098 125.843 252.8 125.843 252.8L126.097 246.611L130.876 247.157Z" fill="#D8DEE8"/>
<path d="M178.707 161.684C179.202 175.079 179.188 189.632 178.38 205.176C177.471 222.681 175.688 238.857 173.454 253.519C172.638 253.543 171.778 253.545 170.883 253.518C170.277 253.499 169.69 253.469 169.123 253.428C167.99 250.383 166.652 246.38 165.456 241.6C164.2 236.574 163.444 232.066 162.909 227.756C161.025 212.58 163.278 211.263 161.747 200.015C160.39 190.053 158.428 189.661 156.158 175.517C153.694 160.172 155.562 157.874 156.468 157.045C160.331 153.518 169.377 155.948 178.707 161.684Z" fill="url(#paint19_linear)"/>
<path opacity="0.3" d="M156.47 157.048C160.153 153.681 168.553 155.745 177.418 160.919C167.178 171.928 166.048 179.083 167.261 183.73C168.633 188.983 172.835 190.503 172.806 196.243C172.77 203.297 166.399 205.149 166.516 212.613C166.594 217.548 169.391 217.504 170.037 223.601C170.802 230.816 167.141 233.292 168.312 238.632C168.816 240.928 170.262 243.932 174.394 247.033C174.09 249.223 173.78 251.391 173.456 253.519C172.639 253.543 171.78 253.545 170.884 253.518C170.279 253.499 169.692 253.469 169.124 253.428C167.991 250.383 166.653 246.38 165.458 241.6C164.202 236.574 163.446 232.066 162.91 227.756C161.026 212.58 163.28 211.263 161.748 200.015C160.392 190.053 158.43 189.659 156.159 175.517C153.696 160.173 155.562 157.877 156.47 157.048Z" fill="url(#paint20_linear)"/>
<path d="M172.382 161.444C163.558 174.289 154.035 190.279 145.506 209.427C139.061 223.896 134.38 237.485 130.938 249.596C130.476 249.809 129.385 250.234 127.994 250.045C126.096 249.79 124.96 248.574 124.663 248.235C123.294 239.544 123.466 232.186 123.95 226.875C124.26 223.476 124.807 217.814 126.991 210.829C129.438 203.004 131.108 202.569 134.294 194.291C137.602 185.7 136.811 183.553 139.985 172.8C141.289 168.382 143.47 161.809 147.06 153.95C155.502 156.448 163.942 158.946 172.382 161.444Z" fill="url(#paint21_linear)"/>
<path d="M208.228 143.32C208.145 146.445 203.007 149.198 198.87 150.043C189.199 152.017 177.986 144.99 172.663 137.217C171.619 135.69 170.457 133.839 170.177 133.983C169.544 134.307 175.358 143.86 177.88 154.726C179.17 160.285 178.832 162.887 181.242 166.588C181.788 167.426 182.462 168.299 182.225 169.291C181.632 171.775 175.953 172.419 172.013 172.866C167.853 173.339 163.973 173.292 160.139 173.238C154 173.148 153.518 172.828 152.115 173.517C147.845 175.613 148.135 180.633 144.922 181.304C142.224 181.867 139.486 178.852 138.618 177.897C134.107 172.932 134.348 166.944 133.548 160.905C131.688 146.865 124.059 131.483 116.598 121.745C114.335 118.792 112.761 117.239 112.664 114.494C112.375 106.436 125.139 97.5427 135.767 96.5207C138.679 96.2408 143.895 96.329 148.785 96.7898C150.739 96.9739 152.82 97.2446 155.057 97.6369C160.48 98.5859 164.256 99.246 168.104 101.007C183.62 108.106 180.234 123.909 197.027 134.835C202.803 138.588 208.316 140.047 208.228 143.32Z" fill="url(#paint22_linear)"/>
<path d="M144.654 88.1602C144.654 88.1602 143.988 91.8786 142.454 94.5264C141.067 96.9186 135.335 97.7764 134.141 98.1931C132.947 98.6098 135.943 100.689 139.128 101.443C142.314 102.197 151.632 102.69 153.457 101.688C155.282 100.686 152.272 100.379 150.079 99.2257C147.886 98.0729 147.153 93.3888 147.833 91.3965C148.514 89.4042 144.654 88.1602 144.654 88.1602Z" fill="white"/>
<path d="M149.769 85.876C151.646 83.7423 151.258 79.2467 149.779 78.5593C149.357 78.3631 149.045 78.5714 144.438 81.791C142.151 83.3909 141.035 84.2183 140.886 85.4273C140.794 86.165 141.048 87.0759 141.492 87.736C141.721 88.0751 142.105 88.4751 142.927 89.2173C143.655 89.8758 143.613 89.8575 143.833 90.0476C144.362 90.5024 145.352 91.2461 147.022 91.9852C147.009 91.5669 147.018 91.0407 147.1 90.4491C147.132 90.2225 147.267 89.3313 147.621 88.5253C148.233 87.1383 149.159 86.568 149.769 85.876Z" fill="url(#paint23_linear)"/>
<path d="M144.96 91.3567C144.96 91.3567 146.943 93.2091 149.603 92.2768C151.985 91.4419 150.821 85.903 148.949 85.1822C148.326 84.9419 147.246 85.0711 146.469 85.5411C146.011 85.8194 145.9 86.0734 145.142 86.5129C144.444 86.9189 144.207 86.8946 144.034 87.1501C143.816 87.4695 143.772 88.1143 144.691 89.5713C144.098 89.2321 143.491 89.2078 143.15 89.5028C143.095 89.55 142.96 89.7097 142.914 89.9074C142.75 90.6222 143.539 91.2579 144.96 91.3567Z" fill="white"/>
<path opacity="0.3" d="M194.662 142.839C187.65 141.26 184.856 141.31 181.389 138.516C175.615 133.864 174.749 126.785 171.394 126.871C169.807 126.912 168.521 128.532 167.604 130.117C168.448 131.44 169.293 132.763 170.137 134.085C170.14 134.035 170.153 133.995 170.18 133.981C170.46 133.838 171.622 135.689 172.667 137.215C177.988 144.988 189.201 152.015 198.874 150.041C201.646 149.476 204.863 148.049 206.71 146.23C201.935 144.62 197.859 143.56 194.662 142.839Z" fill="url(#paint24_linear)"/>
<path d="M120.864 169.797C116.616 170.176 107.053 170.349 100.29 164.092C89.0298 153.676 94.6158 133.849 98.535 125.322C103.029 115.544 110.18 110.072 114.527 106.746C119.919 102.62 123.211 100.102 127.169 100.666C137.411 102.125 144.502 123.114 138.881 129.122C137.041 131.089 135.218 129.976 129.892 131.671C128.156 132.223 115.211 136.348 112.957 145.882C111.38 152.555 115.396 160.369 122.544 165.618C121.986 167.011 121.425 168.404 120.864 169.797Z" fill="url(#paint25_linear)"/>
<path opacity="0.3" d="M168.481 166.34C163.672 163.3 162.961 160.22 157.575 158.138C150.579 155.434 147.217 158.87 143.748 156.096C139.62 152.796 143.273 147.045 140.185 137.067C139.66 135.373 135.678 122.51 126.54 120.87C122.278 120.105 116.651 121.739 114.482 125.349C112.785 128.175 114.367 130.281 112.303 133.402C110.241 136.52 107.774 135.758 105.146 138.357C100.971 142.486 100.333 151.193 104.101 156.117C105.859 158.414 108.144 159.322 112.442 161.031C115.066 162.074 117.507 162.724 119.609 163.136C114.347 158.085 111.616 151.571 112.96 145.88C114.365 139.937 119.924 136.097 124.333 133.913C128.745 142.215 132.351 151.836 133.551 160.9C134.351 166.939 134.11 172.927 138.621 177.892C139.49 178.847 142.227 181.862 144.925 181.299C148.139 180.63 147.85 175.608 152.119 173.512C153.519 172.825 154.003 173.143 160.142 173.233C163.978 173.289 167.856 173.334 172.016 172.861C175.52 172.463 180.391 171.906 181.845 170.042C175.518 169.872 171.296 168.12 168.481 166.34Z" fill="url(#paint26_linear)"/>
<path d="M82.0111 186.629C82.0492 191.516 83.8955 195.583 87.5485 198.828L256.461 122.167L250.924 109.969L82.0111 186.629Z" fill="url(#paint27_linear)"/>
<path d="M84.6893 195.599C83.7343 194.188 83.0331 192.663 82.5891 191.02L252.674 113.826L254.757 118.414L84.6893 195.599Z" fill="url(#paint28_linear)"/>
<path d="M250.924 109.969C250.399 115.056 252.217 119.133 256.461 122.167L292.11 99.1102C292.511 98.8288 292.225 98.2007 291.749 98.3163L250.924 109.969Z" fill="url(#paint29_linear)"/>
<path d="M292.11 99.1102L278.252 108.072C277.02 106.52 276.229 104.777 275.873 102.847L291.749 98.3163C292.225 98.2007 292.511 98.8288 292.11 99.1102Z" fill="url(#paint30_linear)"/>
<path d="M197.125 149.263C197.125 149.263 200.592 147.316 202.347 145.447C204.102 143.578 206.079 144.294 206.283 145.3C206.487 146.305 203.492 149.14 202.093 149.806C200.692 150.472 197.125 149.263 197.125 149.263Z" fill="#D8DEE8"/>
<path d="M121.226 168.901L122.172 166.55C122.172 166.55 123.717 166.644 124.984 165.735C125.674 165.239 126.798 165.484 127.156 165.584C127.511 165.683 129.241 165.87 127.706 166.602C126.173 167.333 125.902 167.237 126.543 167.838C127.181 168.439 129.613 169.73 130.489 169.792C131.365 169.855 129.782 171.208 128.898 171.382C128.015 171.555 126.569 171.772 124.777 170.719C124.123 170.334 121.226 168.901 121.226 168.901Z" fill="#D8DEE8"/>
<defs>
<linearGradient id="paint0_linear" x1="50.4784" y1="52.2171" x2="454.494" y2="368.583" gradientUnits="userSpaceOnUse">
<stop stop-color="#F09232"/>
<stop offset="1" stop-color="#844AFF"/>
</linearGradient>
<linearGradient id="paint1_linear" x1="181.184" y1="88.8688" x2="293.429" y2="88.8688" gradientUnits="userSpaceOnUse">
<stop stop-color="#FCB148"/>
<stop offset="0.0521" stop-color="#FDBA46"/>
<stop offset="0.1424" stop-color="#FFC244"/>
<stop offset="0.3183" stop-color="#FFC444"/>
<stop offset="0.4849" stop-color="#FDB946"/>
<stop offset="0.7754" stop-color="#F99C4D"/>
<stop offset="0.8658" stop-color="#F8924F"/>
<stop offset="1" stop-color="#F8924F"/>
</linearGradient>
<linearGradient id="paint2_linear" x1="350.598" y1="71.1288" x2="206.137" y2="252.479" gradientUnits="userSpaceOnUse">
<stop stop-color="#FF9085"/>
<stop offset="1" stop-color="#FB6FBB"/>
</linearGradient>
<linearGradient id="paint3_linear" x1="226.646" y1="275.34" x2="228.233" y2="262.649" gradientUnits="userSpaceOnUse">
<stop offset="0.003597" stop-color="#26264F"/>
<stop offset="1" stop-color="#444B8C"/>
</linearGradient>
<linearGradient id="paint4_linear" x1="220.122" y1="263.773" x2="235.986" y2="235.217" gradientUnits="userSpaceOnUse">
<stop offset="0.003597" stop-color="#26264F"/>
<stop offset="1" stop-color="#444B8C"/>
</linearGradient>
<linearGradient id="paint5_linear" x1="202.18" y1="250.24" x2="254.834" y2="250.24" gradientUnits="userSpaceOnUse">
<stop offset="0.003597" stop-color="#26264F"/>
<stop offset="1" stop-color="#444B8C"/>
</linearGradient>
<linearGradient id="paint6_linear" x1="221.632" y1="255.97" x2="237.298" y2="225.827" gradientUnits="userSpaceOnUse">
<stop offset="0.003597" stop-color="#26264F"/>
<stop offset="1" stop-color="#444B8C"/>
</linearGradient>
<linearGradient id="paint7_linear" x1="199.821" y1="241.366" x2="257.167" y2="241.366" gradientUnits="userSpaceOnUse">
<stop offset="0.003597" stop-color="#26264F"/>
<stop offset="1" stop-color="#444B8C"/>
</linearGradient>
<linearGradient id="paint8_linear" x1="198.972" y1="231.005" x2="258.042" y2="231.005" gradientUnits="userSpaceOnUse">
<stop offset="0.003597" stop-color="#26264F"/>
<stop offset="1" stop-color="#444B8C"/>
</linearGradient>
<linearGradient id="paint9_linear" x1="200.493" y1="152.482" x2="266.524" y2="10.6136" gradientUnits="userSpaceOnUse">
<stop offset="0.00540541" stop-color="#D8DEE8"/>
<stop offset="1" stop-color="#F4F7FA"/>
</linearGradient>
<linearGradient id="paint10_linear" x1="200.493" y1="152.483" x2="266.524" y2="10.6142" gradientUnits="userSpaceOnUse">
<stop offset="0.00540541" stop-color="#D8DEE8"/>
<stop offset="1" stop-color="#F4F7FA"/>
</linearGradient>
<linearGradient id="paint11_linear" x1="227.04" y1="226.55" x2="232.857" y2="199.316" gradientUnits="userSpaceOnUse">
<stop offset="0.003597" stop-color="#26264F"/>
<stop offset="1" stop-color="#444B8C"/>
</linearGradient>
<linearGradient id="paint12_linear" x1="215.869" y1="74.5879" x2="331.277" y2="257.813" gradientUnits="userSpaceOnUse">
<stop stop-color="#FCB148"/>
<stop offset="0.0521" stop-color="#FDBA46"/>
<stop offset="0.1424" stop-color="#FFC244"/>
<stop offset="0.3183" stop-color="#FFC444"/>
<stop offset="0.4849" stop-color="#FDB946"/>
<stop offset="0.7754" stop-color="#F99C4D"/>
<stop offset="0.8658" stop-color="#F8924F"/>
<stop offset="1" stop-color="#F8924F"/>
</linearGradient>
<linearGradient id="paint13_linear" x1="194.785" y1="215.669" x2="218.318" y2="146.923" gradientUnits="userSpaceOnUse">
<stop offset="0.494" stop-color="#EBEFF2"/>
<stop offset="1" stop-color="white"/>
</linearGradient>
<linearGradient id="paint14_linear" x1="217.283" y1="223.37" x2="240.815" y2="154.624" gradientUnits="userSpaceOnUse">
<stop offset="0.494" stop-color="#EBEFF2"/>
<stop offset="1" stop-color="white"/>
</linearGradient>
<linearGradient id="paint15_linear" x1="186.591" y1="212.864" x2="210.123" y2="144.118" gradientUnits="userSpaceOnUse">
<stop offset="0.494" stop-color="#EBEFF2"/>
<stop offset="1" stop-color="white"/>
</linearGradient>
<linearGradient id="paint16_linear" x1="219.919" y1="33.287" x2="196.915" y2="222.867" gradientUnits="userSpaceOnUse">
<stop stop-color="#FCB148"/>
<stop offset="0.0521" stop-color="#FDBA46"/>
<stop offset="0.1424" stop-color="#FFC244"/>
<stop offset="0.3183" stop-color="#FFC444"/>
<stop offset="0.4849" stop-color="#FDB946"/>
<stop offset="0.7754" stop-color="#F99C4D"/>
<stop offset="0.8658" stop-color="#F8924F"/>
<stop offset="1" stop-color="#F8924F"/>
</linearGradient>
<linearGradient id="paint17_linear" x1="177.5" y1="239.847" x2="174.946" y2="271.374" gradientUnits="userSpaceOnUse">
<stop stop-color="#311944"/>
<stop offset="1" stop-color="#A03976"/>
</linearGradient>
<linearGradient id="paint18_linear" x1="130.688" y1="236.057" x2="128.135" y2="267.583" gradientUnits="userSpaceOnUse">
<stop stop-color="#311944"/>
<stop offset="1" stop-color="#A03976"/>
</linearGradient>
<linearGradient id="paint19_linear" x1="178.983" y1="204.5" x2="154.836" y2="204.442" gradientUnits="userSpaceOnUse">
<stop stop-color="#444B8C"/>
<stop offset="0.9964" stop-color="#3E4177"/>
</linearGradient>
<linearGradient id="paint20_linear" x1="178.983" y1="204.501" x2="154.836" y2="204.443" gradientUnits="userSpaceOnUse">
<stop stop-color="#444B8C"/>
<stop offset="0.9964" stop-color="#3E4177"/>
</linearGradient>
<linearGradient id="paint21_linear" x1="172.285" y1="202.104" x2="123.674" y2="201.987" gradientUnits="userSpaceOnUse">
<stop stop-color="#444B8C"/>
<stop offset="0.9964" stop-color="#3E4177"/>
</linearGradient>
<linearGradient id="paint22_linear" x1="131.839" y1="92.1758" x2="186.609" y2="182.097" gradientUnits="userSpaceOnUse">
<stop offset="0.00359712" stop-color="#E38DDD"/>
<stop offset="1" stop-color="#9571F6"/>
</linearGradient>
<linearGradient id="paint23_linear" x1="140.866" y1="85.2472" x2="151.036" y2="85.2472" gradientUnits="userSpaceOnUse">
<stop stop-color="#444B8C"/>
<stop offset="0.9964" stop-color="#3E4177"/>
</linearGradient>
<linearGradient id="paint24_linear" x1="206.709" y1="138.625" x2="167.602" y2="138.625" gradientUnits="userSpaceOnUse">
<stop offset="0.00359712" stop-color="#E38DDD"/>
<stop offset="1" stop-color="#9571F6"/>
</linearGradient>
<linearGradient id="paint25_linear" x1="102.206" y1="110.225" x2="156.976" y2="200.146" gradientUnits="userSpaceOnUse">
<stop offset="0.00359712" stop-color="#E38DDD"/>
<stop offset="1" stop-color="#9571F6"/>
</linearGradient>
<linearGradient id="paint26_linear" x1="181.844" y1="151.029" x2="101.611" y2="151.029" gradientUnits="userSpaceOnUse">
<stop offset="0.00359712" stop-color="#E38DDD"/>
<stop offset="1" stop-color="#9571F6"/>
</linearGradient>
<linearGradient id="paint27_linear" x1="175.706" y1="158.653" x2="143.8" y2="137.673" gradientUnits="userSpaceOnUse">
<stop stop-color="#AB316D"/>
<stop offset="1" stop-color="#792D3D"/>
</linearGradient>
<linearGradient id="paint28_linear" x1="163.443" y1="136.718" x2="169.704" y2="158.268" gradientUnits="userSpaceOnUse">
<stop stop-color="#AB316D"/>
<stop offset="1" stop-color="#792D3D"/>
</linearGradient>
<linearGradient id="paint29_linear" x1="290.456" y1="94.7249" x2="195.422" y2="149.896" gradientUnits="userSpaceOnUse">
<stop stop-color="#FFC444"/>
<stop offset="0.9964" stop-color="#F36F56"/>
</linearGradient>
<linearGradient id="paint30_linear" x1="300.66" y1="94.0817" x2="265.171" y2="111.195" gradientUnits="userSpaceOnUse">
<stop stop-color="#AB316D"/>
<stop offset="1" stop-color="#792D3D"/>
</linearGradient>
</defs>
</svg>
