<svg width="424" height="424" viewBox="0 0 424 424" fill="none" xmlns="http://www.w3.org/2000/svg">
<path opacity="0.06" d="M322.074 25.485C336.314 45.9565 319.617 79.1432 340.748 94.5394C361.316 109.525 386.584 84.9607 405.968 97.8615C434.725 116.998 429.472 204.565 387.43 258.972C374.787 275.334 364.222 281.7 359.543 300.204C349.496 339.939 384.807 363.576 378.088 383.228C362.958 427.476 130.268 464.607 36.9025 331.625C-6.70418 269.515 -13.2293 179.83 25.7319 111.713C96.1315 -11.3724 290.12 -20.4487 322.074 25.485Z" fill="url(#paint0_linear)"/>
<path opacity="0.75" d="M323.557 178.46C323.557 123.821 277.039 79.5273 219.656 79.5273C162.272 79.5273 115.754 123.821 115.754 178.46C115.754 211.62 132.888 240.967 159.185 258.918C170.341 266.533 177.107 279.084 177.107 292.593V300.164C177.107 316.613 190.441 329.949 206.892 329.949H232.419C248.868 329.949 262.204 316.615 262.204 300.164V292.593C262.204 279.084 268.97 266.533 280.126 258.918C306.423 240.967 323.557 211.62 323.557 178.46Z" fill="#F4F7FA"/>
<path d="M219.656 386.26C232.384 386.26 242.703 380.797 242.703 374.058C242.703 367.319 232.384 361.855 219.656 361.855C206.927 361.855 196.608 367.319 196.608 374.058C196.608 380.797 206.927 386.26 219.656 386.26Z" fill="url(#paint1_linear)"/>
<path d="M189.032 352.261V364.722C189.032 368.938 191.432 372.801 195.237 374.616C200.521 377.135 209.304 379.901 222.07 379.573C232.426 379.308 239.179 377.617 243.472 375.84C247.619 374.123 250.277 370.022 250.277 365.533V358.639L189.032 352.261Z" fill="url(#paint2_linear)"/>
<path opacity="0.3" d="M189.032 363.175C189.966 364.082 191.046 364.852 192.261 365.432C198.188 368.258 237.009 374.574 246.373 371.055C247.589 370.599 248.683 369.987 249.641 369.249C250.051 368.073 250.276 366.82 250.276 365.532V358.638L189.031 352.261V363.175H189.032Z" fill="url(#paint3_linear)"/>
<path d="M191.752 343.783C188.302 343.423 185.301 346.129 185.301 349.597V349.951C185.301 354.681 187.992 359.015 192.261 361.051C198.188 363.877 237.009 370.192 246.373 366.674C251.087 364.903 254.009 360.856 254.009 355.82V355.536C254.009 352.542 251.747 350.032 248.768 349.721L191.752 343.783Z" fill="url(#paint4_linear)"/>
<path opacity="0.3" d="M248.77 349.72L191.752 343.783C189.502 343.549 187.448 344.622 186.288 346.356C187.434 349.055 189.52 351.313 192.261 352.62C198.188 355.447 238.662 362.585 246.373 358.952C249.375 357.537 251.729 355.149 252.99 352.246C252.051 350.868 250.539 349.904 248.77 349.72Z" fill="url(#paint5_linear)"/>
<path d="M189.521 323.592C187.191 323.592 185.301 325.483 185.301 327.813V337.573C185.301 342.303 187.992 346.637 192.261 348.673C198.188 351.499 238.662 358.638 246.373 355.005C250.928 352.858 254.009 348.477 254.009 343.442V327.813C254.009 325.483 252.119 323.592 249.789 323.592H189.521Z" fill="url(#paint6_linear)"/>
<path d="M219.656 334.553C238.159 334.553 253.16 331.006 253.16 326.631C253.16 322.256 238.159 318.709 219.656 318.709C201.152 318.709 186.152 322.256 186.152 326.631C186.152 331.006 201.152 334.553 219.656 334.553Z" fill="url(#paint7_linear)"/>
<path d="M323.557 178.46C323.557 123.821 277.039 79.5273 219.656 79.5273C162.272 79.5273 115.754 123.821 115.754 178.46C115.754 211.62 132.888 240.967 159.185 258.918C170.341 266.533 177.107 279.084 177.107 292.593V300.164C177.107 316.613 190.441 329.949 206.892 329.949H232.419C248.868 329.949 262.204 316.615 262.204 300.164V292.593C262.204 279.084 268.97 266.533 280.126 258.918C306.423 240.967 323.557 211.62 323.557 178.46Z" fill="url(#paint8_linear)"/>
<path opacity="0.5" d="M219.656 326.18C233.196 326.18 244.172 323.586 244.172 320.385C244.172 317.184 233.196 314.589 219.656 314.589C206.115 314.589 195.139 317.184 195.139 320.385C195.139 323.586 206.115 326.18 219.656 326.18Z" fill="#F4F7FA"/>
<path d="M213.267 323.927C212.564 323.927 211.955 323.406 211.864 322.69L193.827 182.431C193.727 181.655 194.276 180.945 195.052 180.845C195.829 180.741 196.537 181.294 196.637 182.07L214.674 322.33C214.774 323.106 214.225 323.815 213.449 323.915C213.387 323.924 213.327 323.927 213.267 323.927Z" fill="url(#paint9_linear)"/>
<path d="M224.468 323.927C224.408 323.927 224.347 323.924 224.286 323.915C223.51 323.815 222.961 323.106 223.061 322.33L241.097 182.07C241.197 181.294 241.907 180.741 242.683 180.845C243.458 180.945 244.008 181.655 243.907 182.431L225.871 322.69C225.78 323.406 225.17 323.927 224.468 323.927Z" fill="url(#paint10_linear)"/>
<path d="M239.157 182.319C238.696 182.319 238.244 182.095 237.972 181.681L232.995 174.129C232.943 174.051 232.865 174.007 232.793 174.016C232.669 174.019 232.618 174.107 232.6 174.135L229.314 179.64C228.77 180.551 227.816 181.112 226.76 181.138C225.712 181.172 224.721 180.652 224.131 179.766L219.619 173C219.57 172.927 219.504 172.888 219.425 172.888C219.329 172.906 219.283 172.922 219.236 172.991L215.272 178.721C214.699 179.548 213.76 180.044 212.76 180.046H212.754C211.755 180.046 210.814 179.553 210.237 178.727L204.522 170.54C204.471 170.467 204.399 170.44 204.321 170.433C204.24 170.436 204.175 170.479 204.131 170.555L198.915 179.56C198.523 180.237 197.656 180.468 196.979 180.075C196.302 179.684 196.071 178.817 196.464 178.139L201.68 169.134C202.209 168.219 203.153 167.646 204.203 167.602C205.244 167.549 206.242 168.049 206.847 168.918L212.561 177.105C212.612 177.175 212.676 177.212 212.754 177.212C212.831 177.212 212.894 177.177 212.941 177.109L216.906 171.379C217.486 170.542 218.441 170.043 219.448 170.055C220.464 170.063 221.409 170.577 221.977 171.428L226.489 178.192C226.541 178.269 226.616 178.332 226.691 178.304C226.813 178.301 226.866 178.215 226.882 178.187L230.168 172.682C230.714 171.767 231.673 171.207 232.731 171.184C233.779 171.16 234.774 171.678 235.362 172.57L240.339 180.122C240.769 180.776 240.589 181.653 239.936 182.085C239.696 182.242 239.425 182.319 239.157 182.319Z" fill="url(#paint11_linear)"/>
<path opacity="0.3" d="M221.541 256.496C223.767 218.364 288.051 209.44 287.775 175.386C287.606 154.413 262.062 138.836 256.606 135.717C216.413 112.728 166.942 139.275 156.724 120.486C154.18 115.808 155.372 110.716 156.052 107.816C157.079 103.433 159.403 99.351 162.851 95.6162C134.493 113.282 115.754 143.784 115.754 178.46C115.754 211.62 132.889 240.967 159.185 258.918C170.341 266.533 177.107 279.084 177.107 292.593V300.164C177.107 316.613 190.443 329.949 206.892 329.949H232.419C248.869 329.949 262.204 316.615 262.204 300.164V294.11C258.691 296.803 254.655 298.681 250.232 298.644C234.877 298.518 220.433 275.47 221.541 256.496Z" fill="url(#paint12_linear)"/>
<path opacity="0.44" d="M221.318 268.544C270.697 268.544 310.727 229.94 310.727 182.319C310.727 134.698 270.697 96.0933 221.318 96.0933C171.938 96.0933 131.908 134.698 131.908 182.319C131.908 229.94 171.938 268.544 221.318 268.544Z" fill="#F4F7FA"/>
<path d="M292.755 218.752C292.755 218.752 291.254 210.911 289.752 208.575C288.251 206.239 285.449 204.737 285.449 204.737C285.449 204.737 284.865 205.697 286.724 207.72C288.583 209.743 287.033 209.943 286.724 210.593C286.415 211.244 287.082 213.58 288.417 214.414C289.752 215.248 290.253 219.796 290.253 219.796L292.755 218.752Z" fill="url(#paint13_linear)"/>
<path d="M288.419 217.751C290.032 217.473 291.644 217.195 293.257 216.917C299.03 227.617 305.793 234.497 310.397 238.489C315.838 243.207 319.351 246.253 325.123 247.781C333.651 250.038 341.016 247.388 341.973 249.783C342.441 250.954 340.817 252.221 338.219 255.33C330.652 264.384 331.368 269.252 327.208 270.596C323.77 271.706 320.312 269.318 314.444 265.132C309.106 261.323 302.414 256.549 296.76 247.447C289.175 235.239 288.416 223.228 288.419 217.751Z" fill="url(#paint14_linear)"/>
<path d="M359.49 250.756C360.275 251.052 372.231 255.809 374.69 268.288C374.888 269.296 376.809 280.019 369.537 287.593C361.383 296.088 345.681 295.877 339.45 288.775C337.997 287.119 337.23 285.284 336.8 283.742L338.441 279.38C340.445 276.962 343.173 276.389 344.63 276.03C348.222 275.145 350.934 276.745 352.99 275.013C354.128 274.054 354.355 272.675 354.557 271.443C355.244 267.246 352.876 264.662 352.703 262.076C352.574 260.141 351.897 255.901 354.423 253.137C356.023 251.386 358.237 250.909 359.49 250.756Z" fill="url(#paint15_linear)"/>
<path d="M364.149 389.847C364.289 389.078 366.77 388.384 367.999 389.413C368.608 389.923 369.029 390.96 368.676 391.426C368.548 391.597 369.073 391.896 368.57 391.902C366.898 391.921 364.009 390.609 364.149 389.847Z" fill="url(#paint16_linear)"/>
<path d="M366.749 390.125L369.3 389.764C368.118 388.341 368.337 383.808 368.337 383.808L365.624 384.413C365.624 384.413 365.933 385.657 366.459 387.493C366.64 388.123 366.72 389.105 366.749 390.125Z" fill="url(#paint17_linear)"/>
<path d="M366.524 389.812C366.524 389.812 369.596 389.104 369.929 389.713C370.261 390.323 370.519 391.954 368.57 391.902C366.619 391.849 366.35 390.329 366.524 389.812Z" fill="url(#paint18_linear)"/>
<path d="M329.135 392.728C329.381 391.988 331.935 391.646 333.006 392.837C333.539 393.429 333.81 394.512 333.395 394.926C333.243 395.076 333.723 395.447 333.223 395.382C331.567 395.166 328.892 393.464 329.135 392.728Z" fill="url(#paint19_linear)"/>
<path d="M331.671 393.368H334.249C333.277 391.793 334.128 387.335 334.128 387.335L331.356 387.555C331.356 387.555 331.489 388.83 331.752 390.721C331.843 391.369 331.784 392.354 331.671 393.368Z" fill="url(#paint20_linear)"/>
<path d="M324.992 295.911C323.798 299.853 322.093 306.216 320.995 314.199C317.866 336.97 324.518 337.696 323.276 362.929C322.88 370.983 330.253 389.557 330.904 389.966C331.219 389.997 331.559 390.018 331.924 390.006C332.566 389.987 333.47 389.888 334.521 389.573C335.689 389.372 339.902 377.964 338.924 371.182C338.234 366.381 338.434 361.229 338.834 350.926C338.899 349.256 343.171 318.443 343.171 318.443C344.471 329.848 345.965 339.539 347.261 347.052C351.423 371.191 364.956 385.802 365.663 386.036C365.802 386.092 367.071 386.552 368.111 385.869C368.573 385.565 368.73 385.172 368.73 385.172C369.093 384.887 368.624 361.071 364.497 343.148C358.505 317.131 361.114 311.044 359.216 299.423C357.572 289.369 324.992 295.911 324.992 295.911Z" fill="url(#paint21_linear)"/>
<path d="M349.192 248.726C345.215 248.61 336.071 247.206 331.035 251.737C330.947 251.815 331.979 252.367 331.471 252.962C331 253.514 329.382 255.448 327.916 258.064C326.853 259.957 325.895 262.165 324.927 265.455C323.221 271.259 322.732 276.199 322.567 278.351C321.647 290.458 322.56 296.043 323.387 299.841C326.984 301.689 336.251 304.994 347.293 303.352C352.335 302.602 356.372 300.925 359.212 299.426C356.347 290.751 358.595 286.108 359.655 281.83C361.167 275.728 361.192 276.19 362.437 271.344C364.492 263.347 364.828 255.176 363.418 253.503C359.612 248.994 352.755 248.831 349.192 248.726Z" fill="url(#paint22_linear)"/>
<path d="M331.492 393.025C331.492 393.025 334.633 392.754 334.876 393.405C335.12 394.054 335.147 395.706 333.224 395.382C331.302 395.057 331.247 393.512 331.492 393.025Z" fill="url(#paint23_linear)"/>
<path d="M340.835 241.271C340.181 238.941 341.325 236.783 341.577 236.317C342.633 234.371 342.902 234.105 343.405 233.768L344.105 233.336C344.105 233.336 344.146 233.32 344.187 233.305C344.636 233.145 346.167 233.099 346.478 233.166C347.469 233.378 348.523 237.413 348.222 243.119C348.263 243.336 348.303 243.556 348.341 243.777C348.498 244.678 348.621 245.561 348.717 246.425C348.808 247.251 349.357 247.955 350.136 248.249C355.4 250.236 355.39 248.649 355.935 250.36C356.232 251.292 350.252 252.796 347.311 252.456C340.694 252.505 335.31 251.801 335.889 250.759C336.146 250.297 341.272 248.957 342.715 247.629C344.036 246.413 343.928 245.158 344.037 244.26C343.638 244.049 341.317 242.989 340.835 241.271Z" fill="url(#paint24_linear)"/>
<path d="M342.053 231.715C342.058 233.483 342.892 235.371 343.316 235.674C343.37 235.714 343.679 235.957 343.956 236.373C343.994 236.429 344.027 236.497 344.056 236.582C344.443 237.697 342.672 239.007 343.014 239.506C343.261 239.868 344.465 239.384 344.608 239.696C344.744 239.99 343.743 240.598 343.896 240.951C344.01 241.218 344.627 240.974 345.014 241.381C345.207 241.584 345.151 241.745 345.356 242.365C345.472 242.715 345.634 243.099 345.759 243.313C346.37 244.351 348.1 244.73 348.434 244.314C348.527 244.197 348.447 244.1 348.542 243.712C348.542 243.712 348.63 243.351 348.88 242.936C349.238 242.341 350.102 241.916 350.974 241.289C352.589 240.126 353.027 239.135 353.158 238.801C353.205 238.681 353.235 238.592 353.255 238.527C353.675 237.224 353.676 235.31 353.092 234.133C352.11 232.161 349.898 233.098 348.085 231.143C345.995 228.889 347.24 225.808 346.105 225.468C344.857 225.094 342.042 228.447 342.053 231.715Z" fill="#26264F"/>
<path d="M343.65 239.091C344.083 238.496 344.844 239.055 344.848 239.825C344.853 240.595 344.106 241.396 343.382 241.244C342.659 241.093 343.067 239.893 343.65 239.091Z" fill="url(#paint25_linear)"/>
<path d="M357.947 293.967C357.874 293.967 357.81 293.913 357.803 293.838C357.327 289.554 358.211 286.454 358.991 283.719C359.181 283.053 359.36 282.423 359.516 281.794C360.376 278.328 360.752 276.989 361.15 275.572C361.41 274.652 361.676 273.699 362.091 272.109C362.112 272.031 362.19 271.984 362.268 272.005C362.346 272.025 362.392 272.105 362.372 272.182C361.957 273.774 361.689 274.728 361.43 275.65C361.033 277.065 360.657 278.403 359.799 281.865C359.642 282.498 359.462 283.13 359.272 283.798C358.499 286.508 357.623 289.579 358.093 293.806C358.102 293.885 358.044 293.957 357.965 293.966C357.957 293.966 357.952 293.967 357.947 293.967Z" fill="#9B305E"/>
<path d="M344.002 237.803L342.996 239.11C342.996 239.11 341.913 240.712 341.28 239.834C340.763 239.117 340.629 239.134 340.597 239.163C340.591 239.169 340.589 239.178 340.588 239.176C340.579 239.173 340.664 238.82 340.739 238.508C340.472 238.892 340.103 239.515 339.88 240.354C339.663 241.168 339.431 242.04 339.89 242.877C339.917 242.926 340.423 243.816 341.368 244.033C341.368 244.033 341.739 244.118 343.31 243.841C343.31 243.841 341.593 242.596 341.567 242.3C341.496 241.496 342.612 241.061 343.439 239.412C343.76 238.776 343.918 238.2 344.002 237.803Z" fill="#26264F"/>
<path d="M108.648 145.074C98.8102 153.047 80.8223 153.572 68.1002 143.844C54.5066 133.451 49.9901 113.698 56.6324 104.116C64.1004 93.3416 82.8921 99.4377 90.2174 86.0944C93.1058 80.8344 92.0105 77.8946 96.7699 72.1695C98.5806 69.9922 104.677 62.6581 114.176 62.7494C115.721 62.7641 122.559 62.8303 126.258 67.2541C131.431 73.44 125.744 82.9882 120.933 101.658C112.732 133.494 116.195 138.957 108.648 145.074Z" fill="url(#paint26_linear)"/>
<path d="M126.52 248.353C126.52 248.353 137.325 253.264 137.502 254.049C137.679 254.834 130.552 253.786 127.643 253.899C124.734 254.012 122.341 253.153 122.604 251.92C122.868 250.688 123.886 247.589 123.886 247.589L126.52 248.353Z" fill="url(#paint27_linear)"/>
<path d="M126.916 244.369L126.258 249.234C126.258 249.234 124.547 249.843 123.398 249.124L122.907 243.787L126.916 244.369Z" fill="url(#paint28_linear)"/>
<path d="M91.6469 243.858L90.662 246.022C90.3867 246.627 90.3705 247.314 90.6208 247.93C91.2744 249.537 92.5684 252.666 93.0572 253.462C93.724 254.546 100.748 254.325 100.748 254.325C100.748 254.325 101.252 253.374 99.6758 252.511C98.0992 251.648 97.1526 251.604 96.4416 250.119C95.7305 248.635 94.8193 244.292 94.8193 244.292L91.6469 243.858Z" fill="url(#paint29_linear)"/>
<path d="M96.1707 238.096C95.7629 238.518 94.4189 245.568 94.4189 245.568C94.4189 245.568 93.8182 246.584 92.271 245.403C90.7238 244.221 91.5718 244.873 91.5718 244.873L90.9594 238.191L96.1707 238.096Z" fill="url(#paint30_linear)"/>
<path d="M132.862 146.622C133.432 161.135 133.455 176.903 132.621 193.747C131.68 212.715 129.791 230.247 127.409 246.138C126.524 246.166 125.594 246.171 124.622 246.144C123.966 246.126 123.33 246.094 122.716 246.051C121.481 242.757 120.019 238.423 118.712 233.247C117.337 227.804 116.507 222.921 115.916 218.253C113.835 201.815 116.274 200.382 114.586 188.2C113.09 177.411 110.963 176.989 108.466 161.672C105.757 145.052 107.774 142.558 108.754 141.657C112.929 137.822 122.737 140.434 132.862 146.622Z" fill="url(#paint31_linear)"/>
<path opacity="0.3" d="M108.754 141.657C112.737 137.999 121.843 140.214 131.462 145.797C120.397 157.752 119.19 165.507 120.517 170.539C122.015 176.225 126.575 177.864 126.557 184.082C126.535 191.724 119.638 193.748 119.785 201.836C119.882 207.183 122.913 207.128 123.629 213.732C124.475 221.548 120.517 224.24 121.799 230.021C122.351 232.509 123.926 235.76 128.41 239.107C128.086 241.482 127.755 243.833 127.409 246.138C126.524 246.166 125.594 246.171 124.622 246.144C123.966 246.126 123.33 246.094 122.716 246.051C121.481 242.757 120.019 238.423 118.712 233.247C117.337 227.804 116.507 222.921 115.916 218.253C113.836 201.815 116.274 200.382 114.586 188.2C113.09 177.411 110.963 176.989 108.466 161.672C105.757 145.052 107.774 142.558 108.754 141.657Z" fill="url(#paint32_linear)"/>
<path d="M128.499 140.105C120.857 155.162 112.915 173.698 106.492 195.481C101.638 211.942 98.5511 227.205 96.5858 240.706C96.1192 241 95.0092 241.611 93.487 241.61C91.4113 241.607 90.0187 240.465 89.6521 240.142C86.9405 231.002 86.0719 223.076 85.8334 217.304C85.6803 213.609 85.4595 207.449 86.808 199.635C88.3169 190.882 90.0481 190.175 92.2887 180.83C94.6132 171.13 93.4576 168.937 95.3286 156.935C96.0971 152.005 97.5 144.632 100.234 135.677C109.654 137.152 119.077 138.629 128.499 140.105Z" fill="url(#paint33_linear)"/>
<path d="M185.052 107.384C185.052 107.384 186.57 104.132 188.373 101.968C190.176 99.8042 195.134 102.305 196.885 102.367C197.209 102.379 197.393 102.467 197.462 102.606C197.633 102.947 196.322 103.596 193.823 104.908C189.764 107.037 189.445 107.284 188.426 107.387C187.132 107.518 185.052 107.384 185.052 107.384Z" fill="url(#paint34_linear)"/>
<path d="M185.942 101.728C186.817 102.896 187.693 104.062 188.567 105.229C187.977 107.676 186.037 114.311 179.815 119.668C178.95 120.414 171.513 126.623 160.854 126.23C144.683 125.636 136.193 110.398 135.768 109.604C133.233 104.491 124.076 85.4363 128.945 81.6323C132.331 78.9854 141.78 84.2821 147.145 88.6013C155.605 95.4143 154.748 100.481 163.334 105.666C166.362 107.496 172.667 111.303 178.794 108.875C182.913 107.244 185.056 103.548 185.942 101.728Z" fill="url(#paint35_linear)"/>
<path d="M185.942 101.728C186.817 102.896 187.693 104.062 188.567 105.229C187.977 107.676 186.037 114.311 179.815 119.668C178.95 120.414 171.513 126.623 160.854 126.23C144.683 125.636 136.193 110.398 135.768 109.604C133.233 104.491 124.076 85.4363 128.945 81.6323C132.331 78.9854 141.78 84.2821 147.145 88.6013C155.605 95.4143 154.748 100.481 163.334 105.666C166.362 107.496 172.667 111.303 178.794 108.875C182.913 107.244 185.056 103.548 185.942 101.728Z" fill="url(#paint36_linear)"/>
<path d="M143.5 172.467C146.417 170.571 146.952 166.546 147.162 164.167C148.434 149.807 143.024 137.859 142.188 120.544C141.935 115.306 142.323 114.189 141.896 105.958C141.019 89.0493 138.976 85.974 137.23 84.2266C133 79.9972 126.853 79.9045 123.228 79.85C121.786 79.8279 108.467 79.797 103.215 88.1233C99.2386 94.4255 104.594 98.0484 102.956 109.75C100.957 124.03 90.581 135.78 88.2242 138.338C84.8265 142.024 81.6158 144.479 78.8894 150.151C76.2057 155.732 77.4865 157.156 74.9515 161.819C70.2966 170.381 62.4958 171.993 63.2834 175.092C63.8899 177.477 68.9879 178.401 72.3267 178.301C77.2789 178.153 78.6038 175.743 82.8597 174.648C91.0992 172.526 93.833 179.579 102.227 178.739C111.637 177.796 112.317 168.521 120.749 168.821C125.372 168.986 127.063 171.84 136.793 173.196C139.52 173.577 141.652 173.667 143.5 172.467Z" fill="url(#paint37_linear)"/>
<path opacity="0.3" d="M69.4075 175.383C75.0693 173.662 76.0541 168.796 82.6801 167.507C88.9411 166.29 90.8666 170.092 95.9528 168.382C102.034 166.339 100.886 160.365 106.746 157.735C114.335 154.33 121.656 161.928 126.145 158.173C128.998 155.786 126.364 152.443 129.5 146.942C132.934 140.913 137.905 141.751 140.439 136.733C142.858 131.941 140.065 127.729 138.834 120.835C137.908 115.649 137.73 108.089 141.318 98.0981C141.543 100.32 141.739 102.912 141.898 105.958C142.325 114.188 141.936 115.306 142.189 120.544C143.026 137.857 148.437 149.807 147.164 164.167C146.953 166.546 146.419 170.571 143.501 172.467C141.654 173.668 139.522 173.577 136.793 173.196C127.063 171.84 125.372 168.984 120.749 168.821C112.316 168.52 111.635 177.796 102.227 178.738C93.833 179.579 91.1007 172.526 82.8597 174.647C78.6038 175.742 77.2789 178.152 72.3267 178.301C69.3147 178.391 64.8807 177.644 63.5955 175.745C65.9435 176.091 67.8573 175.854 69.4075 175.383Z" fill="url(#paint38_linear)"/>
<path d="M118.685 72.8672C118.685 72.8672 118.559 78.3082 116.954 79.5241C115.938 80.2941 114.281 81.0772 113.2 81.5483C112.873 81.6911 112.922 82.1666 113.269 82.2446L122.569 84.3424C123.012 84.4528 123.48 84.3454 123.83 84.0524L127.408 81.0537C127.652 80.8491 127.52 80.4516 127.202 80.4339L124.16 80.2587C122.797 79.9702 121.734 78.8985 121.459 77.5324L121.789 73.4605L118.685 72.8672Z" fill="url(#paint39_linear)"/>
<path d="M118.426 74.169C118.426 74.169 118.937 76.9337 121.687 77.2016C124.15 77.4416 125.494 71.4279 124.128 70.0132C123.671 69.5407 122.61 69.1447 121.725 69.2418C121.103 69.311 119.064 70.287 118.943 72.4187C118.487 72.0109 117.954 71.927 117.712 72.1331C117.405 72.3951 117.636 73.0635 117.689 73.2136C117.87 73.7392 118.247 74.0424 118.426 74.169Z" fill="url(#paint40_linear)"/>
<path d="M194.793 99.4645C197.504 100.841 200.911 99.5778 202.401 96.6409C203.892 93.7055 202.901 90.2092 200.19 88.8328C200.05 88.7621 199.906 88.7018 199.761 88.6443C200.265 87.0191 200.645 85.3821 200.899 83.7451C201.055 83.7451 201.21 83.7422 201.369 83.7274C204.462 83.4522 206.917 80.6095 206.852 77.3782C206.788 74.1468 204.228 71.7517 201.135 72.027C200.973 72.0417 200.814 72.0667 200.656 72.0947C200.332 70.493 199.891 68.9296 199.331 67.4163C199.474 67.3324 199.616 67.247 199.754 67.1498C202.401 65.295 203.247 61.6367 201.644 58.9766C200.041 56.3165 196.596 55.6628 193.949 57.5177C193.814 57.6134 193.686 57.715 193.561 57.8195C192.515 56.6639 191.369 55.5936 190.129 54.6162C190.216 54.4734 190.301 54.3276 190.379 54.176C191.871 51.2406 193.818 48.0328 191.086 46.6991C184.765 43.6135 182.052 46.2545 180.562 49.1914C180.485 49.343 180.418 49.4976 180.354 49.6521C178.834 49.2267 177.292 48.9337 175.742 48.7718C175.752 48.6084 175.76 48.445 175.755 48.2801C175.691 45.0488 176.649 43.3014 173.544 43.241C166.772 43.11 164.489 46.0484 164.554 49.2797C164.557 49.449 164.572 49.6139 164.588 49.7773C163.036 50.2189 161.512 50.7857 160.029 51.4687C159.958 51.3245 159.884 51.1817 159.802 51.0418C158.199 48.3817 154.754 47.7281 152.107 49.583C149.46 51.4378 148.614 55.0961 150.217 57.7562C150.299 57.8931 150.389 58.0197 150.48 58.1463C149.309 59.3181 148.21 60.5915 147.196 61.9562C147.065 61.8737 146.933 61.7928 146.791 61.7221C144.08 60.3457 140.673 61.6102 139.183 64.5456C137.692 67.4811 138.683 70.9774 141.393 72.3538C141.533 72.4259 141.677 72.4848 141.821 72.5422C141.318 74.166 140.938 75.8045 140.683 77.4415C140.527 77.4415 140.373 77.4444 140.214 77.4591C137.121 77.7344 134.665 80.5771 134.73 83.8084C134.795 87.0397 137.355 89.4349 140.449 89.1596C140.611 89.1449 140.77 89.1198 140.928 89.0919C141.25 90.6935 141.693 92.2569 142.253 93.7703C142.11 93.8542 141.969 93.9396 141.83 94.0367C139.183 95.8902 138.337 99.5499 139.94 102.21C141.543 104.87 146.849 106.105 149.496 104.252C149.631 104.156 147.897 103.472 148.023 103.367C149.069 104.523 150.215 105.593 151.456 106.57C151.37 106.713 151.284 106.859 151.206 107.011C149.715 109.946 150.706 113.442 153.416 114.819C156.127 116.195 159.534 114.932 161.024 111.995C161.1 111.844 161.168 111.689 161.231 111.534C162.752 111.958 164.293 112.253 165.843 112.415C165.833 112.578 165.826 112.742 165.83 112.906C165.895 116.138 168.455 118.533 171.548 118.258C174.641 117.982 177.096 115.14 177.032 111.908C177.029 111.739 177.014 111.574 176.998 111.411C178.549 110.969 180.073 110.402 181.557 109.719C181.628 109.864 181.701 110.006 181.785 110.146C183.388 112.806 186.833 113.46 189.48 111.605C192.127 109.75 192.973 106.092 191.37 103.432C191.288 103.296 191.198 103.168 191.107 103.043C192.278 101.871 193.377 100.598 194.391 99.2333C194.519 99.3128 194.653 99.3938 194.793 99.4645ZM160.993 99.8943C151.149 94.8965 147.555 82.2038 152.967 71.5441C158.378 60.8845 170.747 56.2958 180.591 61.2937C190.435 66.2916 194.029 78.9843 188.617 89.6439C183.206 100.302 170.837 104.892 160.993 99.8943Z" fill="url(#paint41_linear)"/>
<path d="M201.372 83.7273C204.465 83.4521 206.92 80.6094 206.855 77.3781C206.791 74.1467 204.231 71.7516 201.138 72.0269C200.976 72.0416 200.817 72.0666 200.659 72.0946C200.337 70.4929 199.894 68.9295 199.334 67.4162C199.477 67.3337 199.618 67.2469 199.757 67.1497C202.404 65.2963 205.678 60.8152 203.811 58.3332C200.268 53.6238 196.599 55.6613 193.954 57.5161C193.818 57.6118 193.69 57.7134 193.565 57.8179C192.52 56.6623 191.373 55.5921 190.134 54.6146C190.22 54.4718 190.306 54.326 190.384 54.1744C191.195 52.5772 191.267 50.815 190.731 49.3179C188.176 53.8167 185.652 58.3346 183.176 62.8776C191.03 68.6322 193.53 79.9734 188.622 89.6423C184.461 97.8362 176.193 102.437 168.118 101.86C167.757 102.794 167.404 103.732 167.018 104.658C165.972 107.168 164.782 109.626 163.593 112.082C164.342 112.223 165.093 112.334 165.848 112.413C165.838 112.577 165.83 112.74 165.835 112.905C165.899 116.136 167.86 118.88 173.468 118.583C176.569 118.418 177.102 115.137 177.038 111.905C177.035 111.736 177.02 111.571 177.004 111.408C178.555 110.966 180.079 110.399 181.563 109.716C181.633 109.861 181.707 110.003 181.791 110.143C183.394 112.803 188.954 113.934 191.601 112.079C194.248 110.224 192.978 106.089 191.376 103.429C191.294 103.292 191.204 103.165 191.113 103.039C192.284 101.867 193.383 100.593 194.397 99.2288C194.528 99.3113 194.66 99.3922 194.802 99.4629C197.513 100.839 200.92 99.5763 202.41 96.6394C203.901 93.7039 202.91 90.2076 200.198 88.8312C200.059 88.7605 199.914 88.7002 199.77 88.6428C200.274 87.0175 200.653 85.3805 200.908 83.7435C201.057 83.745 201.213 83.7421 201.372 83.7273Z" fill="url(#paint42_linear)"/>
<path d="M197.709 99.7968C200.421 101.173 203.827 99.9087 205.317 96.9733C206.808 94.0379 205.818 90.5416 203.106 89.1651C202.966 89.0945 202.822 89.0341 202.678 88.9767C203.181 87.3515 203.561 85.7145 203.815 84.0775C203.972 84.0775 204.126 84.0745 204.285 84.0598C207.378 83.7845 209.834 80.9418 209.769 77.7105C209.704 74.4792 207.144 72.084 204.051 72.3593C203.889 72.3741 203.73 72.3991 203.573 72.427C203.25 70.8254 202.807 69.262 202.248 67.7486C202.39 67.6647 202.532 67.5793 202.67 67.4822C205.317 65.6288 206.164 61.9691 204.56 59.3089C202.957 56.6488 199.512 55.9952 196.866 57.8501C196.73 57.9457 196.602 58.0473 196.477 58.1518C195.432 56.9962 194.285 55.926 193.045 54.9485C193.132 54.8057 193.218 54.66 193.296 54.5083C194.787 51.5729 193.796 48.0766 191.086 46.7002C188.374 45.3237 184.968 46.5883 183.478 49.5237C183.402 49.6753 183.334 49.8299 183.27 49.9845C181.75 49.559 180.208 49.2661 178.658 49.1042C178.669 48.9408 178.676 48.7773 178.672 48.6125C178.607 45.3812 176.047 42.986 172.952 43.2613C169.859 43.5366 167.404 46.3793 167.469 49.6106C167.472 49.7799 167.486 49.9447 167.503 50.1081C165.951 50.5498 164.427 51.1166 162.943 51.7996C162.873 51.6553 162.799 51.5126 162.717 51.3727C161.114 48.7126 157.669 48.0589 155.022 49.9138C152.375 51.7687 151.529 55.4269 153.132 58.0871C153.214 58.224 153.304 58.3506 153.395 58.4772C152.223 59.649 151.125 60.9224 150.111 62.287C149.98 62.2046 149.847 62.1251 149.706 62.053C146.994 60.6765 143.588 61.9411 142.098 64.8765C140.607 67.8119 141.598 71.3082 144.309 72.6847C144.449 72.7553 144.593 72.8157 144.736 72.8731C144.233 74.4983 143.853 76.1353 143.598 77.7723C143.442 77.7723 143.286 77.7753 143.129 77.79C140.036 78.0653 137.58 80.908 137.645 84.1393C137.71 87.3706 140.27 89.7658 143.364 89.4905C143.526 89.4757 143.685 89.4507 143.843 89.4227C144.165 91.0244 144.608 92.5878 145.167 94.1012C145.025 94.1851 144.883 94.2705 144.745 94.3676C142.098 96.221 141.252 99.8807 142.855 102.541C144.458 105.201 147.903 105.855 150.55 104C150.685 103.904 150.813 103.802 150.938 103.698C151.983 104.854 153.13 105.924 154.37 106.901C154.283 107.044 154.197 107.19 154.119 107.341C152.63 110.277 153.619 113.773 156.329 115.15C159.041 116.526 162.447 115.261 163.937 112.326C164.014 112.174 164.081 112.02 164.145 111.865C165.665 112.289 167.207 112.584 168.757 112.746C168.747 112.909 168.739 113.072 168.744 113.237C168.808 116.469 171.368 118.864 174.461 118.589C177.554 118.313 180.01 115.471 179.945 112.239C179.942 112.07 179.927 111.905 179.911 111.742C181.463 111.3 182.986 110.733 184.47 110.05C184.541 110.194 184.615 110.337 184.698 110.477C186.302 113.137 189.746 113.791 192.393 111.936C195.04 110.081 195.887 106.423 194.283 103.763C194.201 103.627 194.111 103.499 194.02 103.374C195.192 102.202 196.29 100.929 197.304 99.5642C197.435 99.6452 197.568 99.7247 197.709 99.7968ZM163.909 100.225C154.065 95.2273 150.472 82.5347 155.883 71.875C161.295 61.2153 173.663 56.6267 183.508 61.6246C193.352 66.6225 196.945 79.3151 191.534 89.9748C186.122 100.634 173.753 105.223 163.909 100.225Z" fill="url(#paint43_linear)"/>
<path d="M137.359 104.776L136.277 100.361C136.11 99.6761 136.398 98.9739 137.053 98.494C138.628 97.3384 139.017 96.4389 139.95 96.1872C141.654 95.7279 142.485 96.9821 141.238 97.5003C139.992 98.0185 139.035 99.0387 139.547 100.845C140.061 102.648 139.086 104.187 137.359 104.776Z" fill="url(#paint44_linear)"/>
<path d="M140.193 104.889C138.702 103.95 137.211 103.009 135.721 102.068C135.038 103.579 132.778 108.057 127.651 110.527C123.149 112.696 115.986 113.533 112.773 110.041C109.467 106.445 110.019 99.894 110.829 92.4421C111.429 86.9128 112.592 83.7463 111.12 82.7673C109.642 81.7854 106.639 83.7595 103.341 85.928C101.537 87.1145 98.1934 89.3124 95.941 92.0609C90.8401 98.288 89.0589 110.115 94.8811 119.57C99.2607 126.684 107.537 131.758 116.265 131.309C128.309 130.691 139.21 119.66 140.193 104.889Z" fill="url(#paint45_linear)"/>
<path d="M166.412 396.04C165.942 396.04 165.562 395.66 165.562 395.191V254.509C165.562 254.039 165.942 253.659 166.412 253.659C166.881 253.659 167.261 254.039 167.261 254.509V395.191C167.261 395.66 166.881 396.04 166.412 396.04Z" fill="#A2A7AE"/>
<path d="M93.9949 393.149C93.5253 393.149 93.1455 392.769 93.1455 392.299V254.51C93.1455 254.04 93.5253 253.66 93.9949 253.66C94.4645 253.66 94.8443 254.04 94.8443 254.51V392.299C94.8443 392.767 94.4645 393.149 93.9949 393.149Z" fill="#A2A7AE"/>
<path d="M101.307 412.529C101.232 412.529 101.155 412.519 101.079 412.498C100.627 412.372 100.363 411.904 100.488 411.452L143.975 255.543C144.102 255.091 144.568 254.829 145.022 254.953C145.474 255.08 145.737 255.548 145.612 256L102.125 411.908C102.021 412.283 101.679 412.529 101.307 412.529Z" fill="#A2A7AE"/>
<path d="M34.0323 404.867C33.9513 404.867 33.8689 404.855 33.7879 404.83C33.3389 404.694 33.0842 404.22 33.2197 403.771L77.7765 255.527C77.912 255.078 78.386 254.825 78.835 254.959C79.284 255.094 79.5387 255.568 79.4032 256.017L34.8464 404.262C34.736 404.628 34.3989 404.867 34.0323 404.867Z" fill="#A2A7AE"/>
<path d="M76.0335 255.898L145.394 257.161L167.619 255.898V253.12L115.937 252.231L76.0335 253.12V255.898Z" fill="#D8DEE8"/>
<path d="M76.0335 255.898L145.394 257.161V254.383L76.0335 253.12V255.898Z" fill="url(#paint46_linear)"/>
<path d="M135.403 290.288C135.39 290.288 135.376 290.288 135.362 290.287L70.0184 287.198C69.5503 287.176 69.1881 286.779 69.2102 286.309C69.2323 285.841 69.6283 285.474 70.0994 285.501L135.443 288.589C135.911 288.611 136.273 289.009 136.251 289.479C136.23 289.933 135.853 290.288 135.403 290.288Z" fill="#A2A7AE"/>
<path d="M126.759 321.281C126.742 321.281 126.726 321.281 126.71 321.28L60.2597 317.518C59.7916 317.492 59.4338 317.09 59.4589 316.622C59.4839 316.154 59.8858 315.796 60.3554 315.821L126.806 319.582C127.274 319.609 127.632 320.011 127.607 320.479C127.58 320.932 127.206 321.281 126.759 321.281Z" fill="#A2A7AE"/>
<path d="M118.164 352.097C118.147 352.097 118.127 352.097 118.108 352.095L51.1767 347.769C50.7085 347.738 50.3538 347.335 50.3832 346.866C50.4141 346.398 50.8145 346.044 51.2856 346.073L118.217 350.4C118.685 350.43 119.04 350.834 119.011 351.302C118.981 351.752 118.607 352.097 118.164 352.097Z" fill="#A2A7AE"/>
<path d="M109.617 382.738C109.595 382.738 109.574 382.736 109.552 382.735L42.2114 377.638C41.7433 377.603 41.3929 377.195 41.4283 376.727C41.4636 376.259 41.8728 375.907 42.3395 375.944L109.68 381.041C110.149 381.076 110.499 381.484 110.464 381.952C110.43 382.398 110.057 382.738 109.617 382.738Z" fill="#A2A7AE"/>
<defs>
<linearGradient id="paint0_linear" x1="50.4784" y1="52.2171" x2="454.494" y2="368.583" gradientUnits="userSpaceOnUse">
<stop stop-color="#F09232"/>
<stop offset="1" stop-color="#844AFF"/>
</linearGradient>
<linearGradient id="paint1_linear" x1="217.491" y1="391.372" x2="219.336" y2="376.61" gradientUnits="userSpaceOnUse">
<stop offset="0.003597" stop-color="#26264F"/>
<stop offset="1" stop-color="#444B8C"/>
</linearGradient>
<linearGradient id="paint2_linear" x1="209.902" y1="377.918" x2="228.355" y2="344.702" gradientUnits="userSpaceOnUse">
<stop offset="0.003597" stop-color="#26264F"/>
<stop offset="1" stop-color="#444B8C"/>
</linearGradient>
<linearGradient id="paint3_linear" x1="189.033" y1="362.177" x2="250.278" y2="362.177" gradientUnits="userSpaceOnUse">
<stop offset="0.003597" stop-color="#26264F"/>
<stop offset="1" stop-color="#444B8C"/>
</linearGradient>
<linearGradient id="paint4_linear" x1="211.658" y1="368.841" x2="229.881" y2="333.78" gradientUnits="userSpaceOnUse">
<stop offset="0.003597" stop-color="#26264F"/>
<stop offset="1" stop-color="#444B8C"/>
</linearGradient>
<linearGradient id="paint5_linear" x1="186.289" y1="351.855" x2="252.991" y2="351.855" gradientUnits="userSpaceOnUse">
<stop offset="0.003597" stop-color="#26264F"/>
<stop offset="1" stop-color="#444B8C"/>
</linearGradient>
<linearGradient id="paint6_linear" x1="185.301" y1="339.803" x2="254.01" y2="339.803" gradientUnits="userSpaceOnUse">
<stop offset="0.003597" stop-color="#26264F"/>
<stop offset="1" stop-color="#444B8C"/>
</linearGradient>
<linearGradient id="paint7_linear" x1="217.949" y1="334.62" x2="224.715" y2="302.943" gradientUnits="userSpaceOnUse">
<stop offset="0.003597" stop-color="#26264F"/>
<stop offset="1" stop-color="#444B8C"/>
</linearGradient>
<linearGradient id="paint8_linear" x1="204.955" y1="157.863" x2="339.194" y2="370.984" gradientUnits="userSpaceOnUse">
<stop stop-color="#FCB148"/>
<stop offset="0.0521" stop-color="#FDBA46"/>
<stop offset="0.1424" stop-color="#FFC244"/>
<stop offset="0.3183" stop-color="#FFC444"/>
<stop offset="0.4849" stop-color="#FDB946"/>
<stop offset="0.7754" stop-color="#F99C4D"/>
<stop offset="0.8658" stop-color="#F8924F"/>
<stop offset="1" stop-color="#F8924F"/>
</linearGradient>
<linearGradient id="paint9_linear" x1="180.431" y1="321.964" x2="207.803" y2="242.001" gradientUnits="userSpaceOnUse">
<stop offset="0.494" stop-color="#EBEFF2"/>
<stop offset="1" stop-color="white"/>
</linearGradient>
<linearGradient id="paint10_linear" x1="206.6" y1="330.922" x2="233.972" y2="250.958" gradientUnits="userSpaceOnUse">
<stop offset="0.494" stop-color="#EBEFF2"/>
<stop offset="1" stop-color="white"/>
</linearGradient>
<linearGradient id="paint11_linear" x1="170.9" y1="318.701" x2="198.272" y2="238.738" gradientUnits="userSpaceOnUse">
<stop offset="0.494" stop-color="#EBEFF2"/>
<stop offset="1" stop-color="white"/>
</linearGradient>
<linearGradient id="paint12_linear" x1="209.666" y1="109.824" x2="182.909" y2="330.337" gradientUnits="userSpaceOnUse">
<stop stop-color="#FCB148"/>
<stop offset="0.0521" stop-color="#FDBA46"/>
<stop offset="0.1424" stop-color="#FFC244"/>
<stop offset="0.3183" stop-color="#FFC444"/>
<stop offset="0.4849" stop-color="#FDB946"/>
<stop offset="0.7754" stop-color="#F99C4D"/>
<stop offset="0.8658" stop-color="#F8924F"/>
<stop offset="1" stop-color="#F8924F"/>
</linearGradient>
<linearGradient id="paint13_linear" x1="286.641" y1="206.477" x2="294.309" y2="224.127" gradientUnits="userSpaceOnUse">
<stop stop-color="#FFC444"/>
<stop offset="0.9964" stop-color="#F36F56"/>
</linearGradient>
<linearGradient id="paint14_linear" x1="306.252" y1="219.157" x2="337.359" y2="290.754" gradientUnits="userSpaceOnUse">
<stop stop-color="#AA80F9"/>
<stop offset="0.9964" stop-color="#6165D7"/>
</linearGradient>
<linearGradient id="paint15_linear" x1="352.906" y1="291.894" x2="363.238" y2="250.568" gradientUnits="userSpaceOnUse">
<stop stop-color="#AA80F9"/>
<stop offset="0.9964" stop-color="#6165D7"/>
</linearGradient>
<linearGradient id="paint16_linear" x1="362.771" y1="387.629" x2="368.234" y2="391.259" gradientUnits="userSpaceOnUse">
<stop stop-color="#444B8C"/>
<stop offset="0.9964" stop-color="#26264F"/>
</linearGradient>
<linearGradient id="paint17_linear" x1="368.057" y1="391.293" x2="366.862" y2="382.839" gradientUnits="userSpaceOnUse">
<stop stop-color="#FFC444"/>
<stop offset="0.9964" stop-color="#F36F56"/>
</linearGradient>
<linearGradient id="paint18_linear" x1="363.181" y1="387.012" x2="368.644" y2="390.642" gradientUnits="userSpaceOnUse">
<stop stop-color="#444B8C"/>
<stop offset="0.9964" stop-color="#26264F"/>
</linearGradient>
<linearGradient id="paint19_linear" x1="328.081" y1="390.339" x2="332.983" y2="394.698" gradientUnits="userSpaceOnUse">
<stop stop-color="#444B8C"/>
<stop offset="0.9964" stop-color="#26264F"/>
</linearGradient>
<linearGradient id="paint20_linear" x1="332.802" y1="394.707" x2="332.802" y2="386.169" gradientUnits="userSpaceOnUse">
<stop stop-color="#FFC444"/>
<stop offset="0.9964" stop-color="#F36F56"/>
</linearGradient>
<linearGradient id="paint21_linear" x1="332.4" y1="398.623" x2="364.36" y2="269.587" gradientUnits="userSpaceOnUse">
<stop stop-color="#444B8C"/>
<stop offset="0.9964" stop-color="#26264F"/>
</linearGradient>
<linearGradient id="paint22_linear" x1="315.203" y1="211.675" x2="349.469" y2="290.541" gradientUnits="userSpaceOnUse">
<stop stop-color="#AA80F9"/>
<stop offset="0.9964" stop-color="#6165D7"/>
</linearGradient>
<linearGradient id="paint23_linear" x1="328.574" y1="389.785" x2="333.475" y2="394.144" gradientUnits="userSpaceOnUse">
<stop stop-color="#444B8C"/>
<stop offset="0.9964" stop-color="#26264F"/>
</linearGradient>
<linearGradient id="paint24_linear" x1="337.55" y1="231.489" x2="353.854" y2="268.892" gradientUnits="userSpaceOnUse">
<stop stop-color="#FFC444"/>
<stop offset="0.9964" stop-color="#F36F56"/>
</linearGradient>
<linearGradient id="paint25_linear" x1="339.626" y1="230.37" x2="356.67" y2="269.473" gradientUnits="userSpaceOnUse">
<stop stop-color="#FFC444"/>
<stop offset="0.9964" stop-color="#F36F56"/>
</linearGradient>
<linearGradient id="paint26_linear" x1="108.127" y1="101.067" x2="73.2012" y2="133.033" gradientUnits="userSpaceOnUse">
<stop offset="0.003597" stop-color="#26264F"/>
<stop offset="1" stop-color="#444B8C"/>
</linearGradient>
<linearGradient id="paint27_linear" x1="131.756" y1="231.315" x2="129.072" y2="265.48" gradientUnits="userSpaceOnUse">
<stop offset="0.003597" stop-color="#26264F"/>
<stop offset="1" stop-color="#444B8C"/>
</linearGradient>
<linearGradient id="paint28_linear" x1="124.826" y1="250.336" x2="125.314" y2="214.951" gradientUnits="userSpaceOnUse">
<stop stop-color="#893976"/>
<stop offset="1" stop-color="#311944"/>
</linearGradient>
<linearGradient id="paint29_linear" x1="94.3829" y1="226.2" x2="96.1453" y2="260.424" gradientUnits="userSpaceOnUse">
<stop offset="0.003597" stop-color="#26264F"/>
<stop offset="1" stop-color="#444B8C"/>
</linearGradient>
<linearGradient id="paint30_linear" x1="94.6095" y1="248.725" x2="90.5111" y2="213.574" gradientUnits="userSpaceOnUse">
<stop stop-color="#893976"/>
<stop offset="1" stop-color="#311944"/>
</linearGradient>
<linearGradient id="paint31_linear" x1="133.271" y1="193.013" x2="107.108" y2="193.013" gradientUnits="userSpaceOnUse">
<stop offset="0.003597" stop-color="#26264F"/>
<stop offset="1" stop-color="#444B8C"/>
</linearGradient>
<linearGradient id="paint32_linear" x1="131.462" y1="193.014" x2="107.108" y2="193.014" gradientUnits="userSpaceOnUse">
<stop offset="0.003597" stop-color="#26264F"/>
<stop offset="1" stop-color="#444B8C"/>
</linearGradient>
<linearGradient id="paint33_linear" x1="134.203" y1="183.79" x2="81.9808" y2="190.61" gradientUnits="userSpaceOnUse">
<stop offset="0.003597" stop-color="#26264F"/>
<stop offset="1" stop-color="#444B8C"/>
</linearGradient>
<linearGradient id="paint34_linear" x1="193.739" y1="97.2817" x2="182.071" y2="133.842" gradientUnits="userSpaceOnUse">
<stop stop-color="#FFC444"/>
<stop offset="0.9964" stop-color="#F36F56"/>
</linearGradient>
<linearGradient id="paint35_linear" x1="127.542" y1="103.586" x2="188.567" y2="103.586" gradientUnits="userSpaceOnUse">
<stop stop-color="#FFC444"/>
<stop offset="0.9964" stop-color="#F36F56"/>
</linearGradient>
<linearGradient id="paint36_linear" x1="180.522" y1="140.166" x2="154.323" y2="93.4199" gradientUnits="userSpaceOnUse">
<stop stop-color="#FF9085"/>
<stop offset="1" stop-color="#FB6FBB"/>
</linearGradient>
<linearGradient id="paint37_linear" x1="86.7141" y1="166.8" x2="139.796" y2="113.718" gradientUnits="userSpaceOnUse">
<stop stop-color="#FF9085"/>
<stop offset="1" stop-color="#FB6FBB"/>
</linearGradient>
<linearGradient id="paint38_linear" x1="147.355" y1="138.453" x2="63.5933" y2="138.453" gradientUnits="userSpaceOnUse">
<stop stop-color="#FF9085"/>
<stop offset="1" stop-color="#FB6FBB"/>
</linearGradient>
<linearGradient id="paint39_linear" x1="123.191" y1="86.2729" x2="110.995" y2="65.7466" gradientUnits="userSpaceOnUse">
<stop stop-color="#FFC444"/>
<stop offset="0.9964" stop-color="#F36F56"/>
</linearGradient>
<linearGradient id="paint40_linear" x1="122.785" y1="74.6167" x2="106.113" y2="49.2773" gradientUnits="userSpaceOnUse">
<stop stop-color="#FFC444"/>
<stop offset="0.9964" stop-color="#F36F56"/>
</linearGradient>
<linearGradient id="paint41_linear" x1="209.233" y1="108.682" x2="168.394" y2="77.8606" gradientUnits="userSpaceOnUse">
<stop offset="0.003597" stop-color="#26264F"/>
<stop offset="1" stop-color="#444B8C"/>
</linearGradient>
<linearGradient id="paint42_linear" x1="210.889" y1="106.488" x2="170.05" y2="75.6658" gradientUnits="userSpaceOnUse">
<stop offset="0.003597" stop-color="#26264F"/>
<stop offset="1" stop-color="#444B8C"/>
</linearGradient>
<linearGradient id="paint43_linear" x1="137.645" y1="80.9246" x2="209.772" y2="80.9246" gradientUnits="userSpaceOnUse">
<stop stop-color="#AA80F9"/>
<stop offset="0.9964" stop-color="#6165D7"/>
</linearGradient>
<linearGradient id="paint44_linear" x1="145.174" y1="116.931" x2="150.311" y2="131.828" gradientUnits="userSpaceOnUse">
<stop stop-color="#FFC444"/>
<stop offset="0.9964" stop-color="#F36F56"/>
</linearGradient>
<linearGradient id="paint45_linear" x1="123.992" y1="124.424" x2="93.6839" y2="67.403" gradientUnits="userSpaceOnUse">
<stop stop-color="#FF9085"/>
<stop offset="1" stop-color="#FB6FBB"/>
</linearGradient>
<linearGradient id="paint46_linear" x1="85.2464" y1="255.055" x2="151.3" y2="255.278" gradientUnits="userSpaceOnUse">
<stop offset="0.494" stop-color="#EBEFF2"/>
<stop offset="1" stop-color="white"/>
</linearGradient>
</defs>
</svg>
