<svg width="40" height="48" viewBox="0 0 40 48" fill="none" xmlns="http://www.w3.org/2000/svg">
<path d="M28.3223 30.8595C29.807 29.0082 30.6977 26.654 30.6977 24.0938V19.6559C31.3583 19.3972 32.0184 19.1147 32.6778 18.808C33.1719 18.5782 33.4884 18.0798 33.4884 17.5312V13.5938C33.4884 12.8171 32.8636 12.1875 32.093 12.1875H31.5451C31.3003 10.1077 30.512 8.15306 29.2277 6.4695C27.9283 4.76588 26.1647 3.44241 24.186 2.66906V1.40625C24.186 0.629625 23.5613 0 22.7907 0H17.2093C16.4387 0 15.814 0.629625 15.814 1.40625V2.66906C13.8353 3.44241 12.0717 4.76588 10.7723 6.4695C9.48809 8.15306 8.69972 10.1077 8.45488 12.1875H7.90698C7.13637 12.1875 6.51163 12.8171 6.51163 13.5938V17.5312C6.51163 18.0798 6.82809 18.5782 7.32223 18.808C7.98158 19.1147 8.64158 19.3973 9.30233 19.6559V24.0938C9.30233 26.654 10.193 29.0082 11.6777 30.8595C4.85926 32.8712 0 39.2073 0 46.5938C0 46.9668 0.14707 47.3243 0.408744 47.5881C0.670419 47.8518 1.02521 48 1.39535 48H38.6047C39.3753 48 40 47.3704 40 46.5938C40 39.2073 35.1407 32.8712 28.3223 30.8595ZM15.814 5.76066V7.03125C15.814 7.80788 16.4387 8.4375 17.2093 8.4375C17.9799 8.4375 18.6047 7.80788 18.6047 7.03125V2.8125H21.3953V7.03125C21.3953 7.80788 22.0201 8.4375 22.7907 8.4375C23.5613 8.4375 24.186 7.80788 24.186 7.03125V5.76066C26.5904 7.06978 28.2856 9.45441 28.7242 12.1875H11.2758C11.7144 9.4545 13.4096 7.06978 15.814 5.76066ZM9.30233 16.6187V15H30.6977V16.6187C23.508 19.7353 16.492 19.7353 9.30233 16.6187ZM2.86214 45.1875C3.30074 40.8947 5.72567 37.1607 9.24251 34.995L13.2878 45.1875H2.86214ZM18.6047 45.1875H16.2935L11.7677 33.7847C12.554 33.5049 13.3753 33.2958 14.2248 33.1653C15.5209 34.0062 17.008 34.5728 18.6047 34.7833V45.1875ZM12.093 24.0938V20.6043C14.7239 21.3632 17.362 21.7428 20 21.7428C22.638 21.7428 25.2761 21.3632 27.907 20.6043V24.0938C27.907 28.4877 24.3599 32.0625 20 32.0625C15.6401 32.0625 12.093 28.4877 12.093 24.0938ZM21.3953 45.1875V34.7833C22.992 34.5728 24.4791 34.0062 25.7752 33.1653C26.6247 33.2958 27.446 33.5048 28.2323 33.7847L23.7064 45.1875H21.3953ZM26.7122 45.1875L30.7576 34.995C34.2744 37.1607 36.6993 40.8947 37.138 45.1875H26.7122Z" fill="url(#paint0_linear)"/>
<defs>
<linearGradient id="paint0_linear" x1="9.16667" y1="-8.93751e-08" x2="38.4679" y2="43.4092" gradientUnits="userSpaceOnUse">
<stop stop-color="#FFC838"/>
<stop offset="1" stop-color="#E05529"/>
</linearGradient>
</defs>
</svg>
