<svg width="60" height="64" viewBox="0 0 60 64" fill="none" xmlns="http://www.w3.org/2000/svg">
<path d="M31.1541 35.8699L42.5997 21.0568C42.928 20.6317 42.988 20.0526 42.7552 19.5668C42.5483 19.1364 34.1939 7.21615 2.03952 9.12645C1.2778 9.17149 0.662109 9.76469 0.666451 10.5421C0.671188 11.3195 1.31095 11.9802 2.05609 11.9416C28.1763 10.5843 37.8999 18.1286 39.7734 20.1652L28.9838 34.1281C28.513 34.7394 28.5809 35.6724 29.2151 36.1052C30.0495 36.675 30.8814 36.2234 31.1541 35.8699Z" fill="url(#paint0_linear)"/>
<path d="M39.3774 63.564C39.733 63.1667 48.0602 53.7503 45.517 46.4984C44.211 42.7767 40.4087 40.424 34.2143 39.5043C27.7385 38.5423 23.7918 36.599 22.8004 33.8823C21.6831 30.8174 24.5681 27.3789 24.5981 27.3443L31.5246 18.8746C32.0128 18.2774 31.9339 17.3898 31.3478 16.8919C30.7617 16.3944 29.8915 16.4749 29.4029 17.0721L22.4961 25.5176C22.3552 25.6809 18.5261 30.2037 20.205 34.8455C21.5796 38.6489 26.1598 41.154 33.8165 42.2897C38.9196 43.047 41.9807 44.7819 42.9153 47.4463C44.567 52.1545 39.4481 59.3063 37.3362 61.665C36.8219 62.2393 36.8827 63.108 37.4258 63.6529C38.0908 64.3241 39.1047 63.8681 39.3774 63.564Z" fill="#AD86FF"/>
<path d="M6.17098 61.8781L24.7206 43.3783C25.2656 42.8346 25.2751 41.9438 24.7415 41.388C24.2075 40.8318 23.3341 40.8237 22.7891 41.3667L4.23945 59.8665C3.69401 60.4106 3.58745 61.2849 4.11631 61.8443C5.03708 62.816 5.90141 62.146 6.17098 61.8781Z" fill="url(#paint1_linear)"/>
<path d="M57.09 25.7244C60.3847 22.6031 59.0942 17.0685 59.0377 16.8344C58.8554 16.0796 58.1067 15.6179 57.3663 15.8041C56.6267 15.9895 56.174 16.7504 56.3547 17.504C56.3686 17.5628 57.3071 21.6862 55.2027 23.6693C53.5486 25.2285 50.1903 25.2297 45.4941 23.6745C44.7691 23.4344 43.9896 23.8386 43.7532 24.5782C43.5176 25.3174 43.9186 26.0996 44.6401 26.3518C52.8911 29.2353 55.7355 27.0069 57.09 25.7244Z" fill="#AD86FF"/>
<path d="M40.3847 13.0037C36.8666 13.0037 34.0044 10.0872 34.0044 6.50187C34.0044 2.91653 36.8666 0 40.3847 0C43.9032 0 46.7658 2.91653 46.7658 6.50187C46.7658 10.0872 43.9036 13.0037 40.3847 13.0037ZM40.3847 2.81519C38.3896 2.81519 36.7671 4.46891 36.7671 6.50187C36.7671 8.53484 38.3896 10.1886 40.3847 10.1886C42.3798 10.1886 44.0031 8.53484 44.0031 6.50187C44.0031 4.4685 42.3798 2.81519 40.3847 2.81519Z" fill="url(#paint2_linear)"/>
<defs>
<linearGradient id="paint0_linear" x1="33.2181" y1="8.91931" x2="21.5585" y2="40.7995" gradientUnits="userSpaceOnUse">
<stop stop-color="#FFC838"/>
<stop offset="1" stop-color="#E05529"/>
</linearGradient>
<linearGradient id="paint1_linear" x1="20.2394" y1="40.9651" x2="8.20183" y2="62.3422" gradientUnits="userSpaceOnUse">
<stop stop-color="#FFC838"/>
<stop offset="1" stop-color="#E05529"/>
</linearGradient>
<linearGradient id="paint2_linear" x1="43.8413" y1="-2.42127e-08" x2="36.4558" y2="12.885" gradientUnits="userSpaceOnUse">
<stop stop-color="#FFC838"/>
<stop offset="1" stop-color="#E05529"/>
</linearGradient>
</defs>
</svg>
