<svg width="16" height="16" viewBox="0 0 16 16" fill="none" xmlns="http://www.w3.org/2000/svg">
<path d="M8 0C9.85652 0 11.637 0.722447 12.9497 2.00841C14.2625 3.29437 15 5.03852 15 6.85714C15 9.696 12.7911 12.6705 8.46667 15.8476C8.33204 15.9465 8.16829 16 8 16C7.83171 16 7.66796 15.9465 7.53333 15.8476C3.20889 12.6705 1 9.696 1 6.85714C1 5.03852 1.7375 3.29437 3.05025 2.00841C4.36301 0.722447 6.14348 0 8 0ZM8 4.57143C7.38116 4.57143 6.78767 4.81224 6.35008 5.2409C5.9125 5.66955 5.66667 6.25093 5.66667 6.85714C5.66667 7.46335 5.9125 8.04473 6.35008 8.47339C6.78767 8.90204 7.38116 9.14286 8 9.14286C8.61884 9.14286 9.21233 8.90204 9.64992 8.47339C10.0875 8.04473 10.3333 7.46335 10.3333 6.85714C10.3333 6.25093 10.0875 5.66955 9.64992 5.2409C9.21233 4.81224 8.61884 4.57143 8 4.57143Z" fill="#F89721" fill-opacity="0.8"/>
</svg>
