<svg width="80" height="80" viewBox="0 0 80 80" fill="none" xmlns="http://www.w3.org/2000/svg">
    <circle cx="40" cy="40" r="40" fill="#EBEEF0"/>
    <path fill-rule="evenodd" clip-rule="evenodd" d="M32.8107 34.5036L34.5793 32.7332C34.0497 31.973 33.68 31.1028 33.5101 30.1525H31.0121V27.812H33.5101C33.68 26.8717 34.0497 25.9915 34.5793 25.2313L32.8107 23.4609L34.4694 21.8004L36.238 23.5709C36.9974 23.0408 37.8667 22.6707 38.816 22.5006V20H41.1541V22.5006C42.0934 22.6707 42.9727 23.0408 43.7321 23.5709L45.5007 21.8004L47.1594 23.4609L45.3908 25.2313C45.9203 25.9915 46.2901 26.8617 46.4599 27.812H48.9579V30.1525H46.4599C46.2901 31.0928 45.9203 31.973 45.3908 32.7332L47.1594 34.5036L45.5007 36.164L43.7321 34.3936C42.9727 34.9237 42.1034 35.2938 41.1541 35.4639V37.9645H38.816V35.4639C37.8767 35.2938 36.9974 34.9237 36.238 34.3936L34.4694 36.164L32.8107 34.5036ZM44.2317 28.9822C44.2317 26.6417 42.3232 24.7312 39.985 24.7312C37.6469 24.7312 35.7384 26.6417 35.7384 28.9822C35.7384 31.3228 37.6469 33.2333 39.985 33.2333C42.3232 33.2333 44.2317 31.3228 44.2317 28.9822ZM49.4775 39.0047C51.5259 36.9642 54.8533 36.9642 56.8917 39.0047L59 41.1153L44.9411 55.1888H34.5093L30.5724 60L21 53.5484L27.2051 44.4161C28.3742 42.6957 30.3126 41.6654 32.391 41.6654H46.8196L49.4775 39.0047ZM33.4002 52.8482H43.9719L55.6926 41.1153L55.243 40.6651C54.1139 39.5349 52.2753 39.5349 51.1462 40.6651L43.4223 48.3971H37.487V46.0565H42.4531L44.4915 44.016H32.391C31.092 44.016 29.873 44.6562 29.1436 45.7364L24.2574 52.9282L30.1128 56.8692L33.4002 52.8482Z" fill="#8F969E"/>
</svg>
