<svg width="117" height="116" viewBox="0 0 117 116" fill="none" xmlns="http://www.w3.org/2000/svg">
<path fill-rule="evenodd" clip-rule="evenodd" d="M99.5461 16.8052C122.096 39.3555 121.938 76.0753 99.2005 98.8127C76.463 121.55 39.7432 121.709 17.193 99.1584C-5.35731 76.6081 -5.19893 39.8883 17.5385 17.1508C40.276 -5.58668 76.9958 -5.73067 99.5461 16.8052Z" fill="url(#paint0_radial)"/>
<path fill-rule="evenodd" clip-rule="evenodd" d="M85.7654 30.6005C101.058 45.8933 100.957 70.8051 85.5349 86.2419C70.1126 101.664 45.2008 101.779 29.8937 86.4723C14.601 71.1795 14.7017 46.2677 30.124 30.8309C45.5464 15.4086 70.4582 15.3078 85.7654 30.6005Z" fill="url(#paint1_radial)"/>
<path fill-rule="evenodd" clip-rule="evenodd" d="M99.2027 58.6014C99.2027 81.5836 80.5836 100.203 57.6013 100.203C38.075 100.203 21.6879 86.7532 17.2095 68.6093C16.4175 65.4125 16 62.0573 16 58.6014C16 57.075 16.0864 55.5774 16.2448 54.0942C18.4912 33.2431 36.1598 17 57.6013 17C80.5692 17 99.2027 35.6191 99.2027 58.6014Z" fill="#FFC838"/>
<path fill-rule="evenodd" clip-rule="evenodd" d="M68.865 43.1184C69.2128 42.9361 69.633 42.9667 69.953 43.1935C70.273 43.4217 70.4371 43.8085 70.3801 44.198L66.554 69.9371C66.5081 70.2418 66.3286 70.5131 66.0643 70.6744C65.8987 70.7746 65.7109 70.8261 65.5217 70.8261C65.4076 70.8261 65.2935 70.8066 65.185 70.7704L50.6 65.7854L64.9415 48.5069L46.408 64.3538L37.7055 61.3792C37.3117 61.2442 37.0348 60.8881 37.0028 60.4707C36.9722 60.0547 37.1907 59.6595 37.5608 59.4661L68.865 43.1184ZM49.1739 73.9566V67.5037L54.8323 69.4376L51.0577 74.5743C50.8574 74.847 50.543 75 50.2174 75C50.1089 75 49.999 74.9833 49.8918 74.9486C49.4633 74.8067 49.1739 74.4073 49.1739 73.9566Z" fill="white"/>
<defs>
<radialGradient id="paint0_radial" cx="0" cy="0" r="1" gradientUnits="userSpaceOnUse" gradientTransform="translate(58.3688 57.9892) rotate(-45) scale(58.2351 57.7398)">
<stop stop-color="#FF740B"/>
<stop offset="1" stop-color="#FF740B" stop-opacity="0"/>
</radialGradient>
<radialGradient id="paint1_radial" cx="0" cy="0" r="1" gradientUnits="userSpaceOnUse" gradientTransform="translate(57.8227 58.5354) rotate(-45) scale(39.5079 39.1718)">
<stop stop-color="#FFFF8E"/>
<stop offset="0.8646" stop-color="#FFFF8E" stop-opacity="0.1354"/>
<stop offset="1" stop-color="#FFFF8E" stop-opacity="0"/>
</radialGradient>
</defs>
</svg>
