<svg width="120" height="120" viewBox="0 0 120 120" fill="none" xmlns="http://www.w3.org/2000/svg">
<circle opacity="0.06" cx="60" cy="60" r="60" fill="url(#paint0_linear)"/>
<path d="M52.5333 82.6152H67.4667C69.8231 82.6152 71.7333 84.5439 71.7333 86.9229H48.2667C48.2667 84.5439 50.1769 82.6152 52.5333 82.6152Z" fill="url(#paint1_linear)"/>
<path d="M37.6 33.0769H82.4C84.7564 33.0769 86.6667 35.0055 86.6667 37.3846V69.6923C86.6667 72.0713 84.7564 74 82.4 74H37.6C35.2436 74 33.3333 72.0713 33.3333 69.6923V37.3846C33.3333 35.0055 35.2436 33.0769 37.6 33.0769Z" fill="url(#paint2_linear)"/>
<path d="M33.3333 65.3845H86.6667V69.6922C86.6667 72.0713 84.7564 73.9999 82.4 73.9999H37.6C35.2436 73.9999 33.3333 72.0713 33.3333 69.6922V65.3845Z" fill="url(#paint3_linear)"/>
<path d="M31.2 54.6152H50.4C51.5783 54.6152 52.5333 55.5795 52.5333 56.7691V84.7691C52.5333 85.9587 51.5783 86.9229 50.4 86.9229H31.2C30.0217 86.9229 29.0667 85.9587 29.0667 84.7691V56.7691C29.0667 55.5795 30.0217 54.6152 31.2 54.6152Z" fill="url(#paint4_linear)"/>
<path d="M80.2667 61.0769H88.8C89.9783 61.0769 90.9333 62.0412 90.9333 63.2308V84.7692C90.9333 85.9588 89.9783 86.9231 88.8 86.9231H80.2667C79.0884 86.9231 78.1333 85.9588 78.1333 84.7692V63.2308C78.1333 62.0412 79.0884 61.0769 80.2667 61.0769Z" fill="url(#paint5_linear)"/>
<path d="M78.1333 82.6152H90.9333V84.7691C90.9333 85.9587 89.9783 86.9229 88.8 86.9229H80.2667C79.0884 86.9229 78.1333 85.9587 78.1333 84.7691V82.6152Z" fill="url(#paint6_linear)"/>
<path d="M29.0667 82.6152H52.5333V84.7691C52.5333 85.9587 51.5783 86.9229 50.4 86.9229H31.2C30.0217 86.9229 29.0667 85.9587 29.0667 84.7691V82.6152Z" fill="url(#paint7_linear)"/>
<path d="M56.8 74H63.2V82.6154H56.8V74Z" fill="url(#paint8_linear)"/>
<path d="M35.4667 73.0535C34.8776 73.0534 34.4001 72.5712 34.4003 71.9763C34.4003 71.6908 34.5127 71.4171 34.7125 71.2152L39.2373 66.6469C39.6465 66.2191 40.3219 66.2072 40.7456 66.6205C41.1693 67.0338 41.1811 67.7155 40.7717 68.1433C40.7632 68.1523 40.7544 68.161 40.7456 68.1696L36.2208 72.738C36.0208 72.9399 35.7496 73.0535 35.4667 73.0535Z" fill="url(#paint9_linear)"/>
<path d="M41.8667 73.0532C41.2776 73.053 40.8001 72.5708 40.8003 71.976C40.8003 71.6905 40.9127 71.4168 41.1125 71.2149L45.6373 66.6466C46.0611 66.2334 46.7364 66.2451 47.1456 66.6729C47.5448 67.0903 47.5448 67.7519 47.1456 68.1693L42.6208 72.7376C42.4208 72.9396 42.1496 73.0532 41.8667 73.0532Z" fill="url(#paint10_linear)"/>
<path d="M52.5333 55.5846C51.9443 55.5845 51.4668 55.1023 51.4669 54.5074C51.4669 54.2219 51.5793 53.9481 51.7792 53.7463L62.3392 43.0848C62.7629 42.6717 63.4381 42.6834 63.8475 43.1112C64.2467 43.5285 64.2467 44.1901 63.8475 44.6076L53.2875 55.2691C53.088 55.4718 52.8164 55.5854 52.5333 55.5846Z" fill="url(#paint11_linear)"/>
<path d="M59.04 55.5846C58.4509 55.5845 57.9735 55.1023 57.9736 54.5074C57.9736 54.2219 58.086 53.9481 58.2859 53.7463L68.8459 43.0848C69.2696 42.6717 69.9448 42.6834 70.3541 43.1112C70.7533 43.5285 70.7533 44.1901 70.3541 44.6076L59.7941 55.2691C59.5941 55.471 59.3229 55.5846 59.04 55.5846Z" fill="url(#paint12_linear)"/>
<path d="M83.025 74.4457C82.436 74.4456 81.9585 73.9634 81.9586 73.3685C81.9586 73.083 82.0711 72.8094 82.2709 72.6074L85.2874 69.5619C85.7112 69.1486 86.3864 69.1605 86.7957 69.5883C87.195 70.0056 87.195 70.6674 86.7957 71.0847L83.7792 74.1302C83.5792 74.3321 83.308 74.4457 83.025 74.4457Z" fill="url(#paint13_linear)"/>
<path d="M60.0213 70.7691C59.4322 70.772 58.9522 70.2923 58.9493 69.6975C58.9464 69.1028 59.4216 68.6182 60.0106 68.6152H60.0213C60.6104 68.6152 61.088 69.0974 61.088 69.6922C61.088 70.2869 60.6104 70.7691 60.0213 70.7691Z" fill="url(#paint14_linear)"/>
<path d="M62.1333 38.4615H57.8667C57.2776 38.4615 56.8 37.9793 56.8 37.3845C56.8 36.7898 57.2776 36.3076 57.8667 36.3076H62.1333C62.7224 36.3076 63.2 36.7898 63.2 37.3845C63.2 37.9793 62.7224 38.4615 62.1333 38.4615Z" fill="url(#paint15_linear)"/>
<path d="M88.8 60H87.7333V37.3846C87.7299 34.4123 85.344 32.0035 82.4 32H37.6C34.656 32.0035 32.2701 34.4123 32.2667 37.3846V53.5385H31.2C29.4327 53.5385 28 54.9849 28 56.7692V84.7692C28 86.5536 29.4327 88 31.2 88H71.7333C72.3224 88 72.8 87.5178 72.8 86.9231C72.7965 83.9508 70.4107 81.542 67.4667 81.5385H64.2667V75.0769H77.0667V84.7692C77.0667 86.5536 78.4993 88 80.2667 88H88.8C90.5673 88 92 86.5536 92 84.7692V63.2308C92 61.4464 90.5673 60 88.8 60ZM51.4667 84.7692C51.4667 85.364 50.9891 85.8462 50.4 85.8462H31.2C30.6109 85.8462 30.1333 85.364 30.1333 84.7692V83.6923H51.4667V84.7692ZM51.4667 81.5385H30.1333V56.7692C30.1333 56.1745 30.6109 55.6923 31.2 55.6923H50.4C50.9891 55.6923 51.4667 56.1745 51.4667 56.7692V81.5385ZM67.4667 83.6923C68.8224 83.6939 70.0305 84.5563 70.4843 85.8462H53.4037C53.53 85.5013 53.5964 85.137 53.6 84.7692V83.6923H67.4667ZM53.6 81.5385V75.0769H55.7333V81.5385H53.6ZM57.8667 81.5385V75.0769H62.1333V81.5385H57.8667ZM77.0667 72.9231H53.6V66.4615H77.0667V72.9231ZM77.0667 63.2308V64.3077H53.6V56.7692C53.5964 56.2582 53.4712 55.7556 53.2352 55.3035C53.2512 55.2885 53.2725 55.2842 53.2875 55.268L63.8475 44.6065C64.2567 44.1787 64.2451 43.4968 63.8213 43.0837C63.408 42.6807 62.7527 42.6807 62.3392 43.0837L51.7792 53.7452C51.7536 53.7722 51.7429 53.8066 51.7205 53.8346C51.3067 53.6408 50.8561 53.5398 50.4 53.5385H34.4V37.3846C34.4 35.6003 35.8327 34.1538 37.6 34.1538H82.4C84.1673 34.1538 85.6 35.6003 85.6 37.3846V60H80.2667C78.4993 60 77.0667 61.4464 77.0667 63.2308ZM89.8667 84.7692C89.8667 85.364 89.3891 85.8462 88.8 85.8462H80.2667C79.6776 85.8462 79.2 85.364 79.2 84.7692V83.6923H89.8667V84.7692ZM89.8667 81.5385H79.2V63.2308C79.2 62.636 79.6776 62.1538 80.2667 62.1538H88.8C89.3891 62.1538 89.8667 62.636 89.8667 63.2308V81.5385Z" fill="url(#paint16_linear)"/>
<path d="M40.7456 66.6468C40.329 66.2264 39.6538 66.2264 39.2373 66.6468L34.7125 71.2152C34.2888 71.6283 34.277 72.3101 34.6864 72.7379C35.0956 73.1657 35.7709 73.1776 36.1946 72.7643C36.2036 72.7557 36.2122 72.7468 36.2208 72.7379L40.7456 68.1696C41.162 67.7491 41.162 67.0674 40.7456 66.6468Z" fill="url(#paint17_linear)"/>
<path d="M45.6374 66.6465L41.1126 71.2148C40.6888 71.628 40.6771 72.3098 41.0864 72.7376C41.4956 73.1654 42.171 73.1772 42.5947 72.764C42.6036 72.7554 42.6123 72.7465 42.6208 72.7376L47.1456 68.1693C47.555 67.7415 47.5432 67.0598 47.1195 66.6465C46.706 66.2435 46.0507 66.2435 45.6374 66.6465Z" fill="url(#paint18_linear)"/>
<path d="M68.8459 43.085L58.2859 53.7465C57.8621 54.1597 57.8504 54.8415 58.2596 55.2693C58.6688 55.6971 59.3441 55.709 59.7679 55.2958C59.7768 55.2872 59.7855 55.2783 59.7941 55.2693L70.3541 44.6078C70.7633 44.18 70.7517 43.4981 70.328 43.085C69.9145 42.682 69.2592 42.682 68.8459 43.085Z" fill="url(#paint19_linear)"/>
<path d="M85.2875 69.5619L82.2709 72.6074C81.8472 73.0207 81.8355 73.7024 82.2448 74.1302C82.6541 74.558 83.3293 74.5699 83.7531 74.1566C83.7619 74.148 83.7707 74.1392 83.7792 74.1302L86.7957 71.0847C87.2051 70.6569 87.1933 69.9752 86.7696 69.5619C86.3563 69.1587 85.7008 69.1587 85.2875 69.5619Z" fill="url(#paint20_linear)"/>
<path d="M60.0213 70.7691C60.6104 70.7691 61.088 70.2869 61.088 69.6922C61.088 69.0974 60.6104 68.6152 60.0213 68.6152H60.0106C59.4216 68.6182 58.9464 69.1028 58.9493 69.6975C58.9522 70.2923 59.4322 70.772 60.0213 70.7691Z" fill="url(#paint21_linear)"/>
<path d="M62.1333 36.3076H57.8667C57.2776 36.3076 56.8 36.7898 56.8 37.3845C56.8 37.9793 57.2776 38.4615 57.8667 38.4615H62.1333C62.7224 38.4615 63.2 37.9793 63.2 37.3845C63.2 36.7898 62.7224 36.3076 62.1333 36.3076Z" fill="url(#paint22_linear)"/>
<defs>
<linearGradient id="paint0_linear" x1="14.2863" y1="14.7784" x2="128.63" y2="104.316" gradientUnits="userSpaceOnUse">
<stop stop-color="#F89721"/>
<stop offset="1" stop-color="#844AFF"/>
</linearGradient>
<linearGradient id="paint1_linear" x1="51.0604" y1="83.1457" x2="52.9395" y2="91.1613" gradientUnits="userSpaceOnUse">
<stop stop-color="#F89721"/>
<stop offset="1" stop-color="#844AFF"/>
</linearGradient>
<linearGradient id="paint2_linear" x1="39.6828" y1="38.1167" x2="79.8407" y2="79.0987" gradientUnits="userSpaceOnUse">
<stop stop-color="#FFC838"/>
<stop offset="1" stop-color="#F89721"/>
</linearGradient>
<linearGradient id="paint3_linear" x1="39.6828" y1="66.4455" x2="43.0292" y2="82.6673" gradientUnits="userSpaceOnUse">
<stop stop-color="#F89721"/>
<stop offset="1" stop-color="#844AFF"/>
</linearGradient>
<linearGradient id="paint4_linear" x1="31.8605" y1="58.594" x2="59.1151" y2="74.0957" gradientUnits="userSpaceOnUse">
<stop stop-color="#AD86FF"/>
<stop offset="1" stop-color="#844AFF"/>
</linearGradient>
<linearGradient id="paint5_linear" x1="79.6572" y1="64.2599" x2="96.7605" y2="70.8926" gradientUnits="userSpaceOnUse">
<stop stop-color="#AD86FF"/>
<stop offset="1" stop-color="#844AFF"/>
</linearGradient>
<linearGradient id="paint6_linear" x1="79.6572" y1="83.1457" x2="82.7248" y2="90.2834" gradientUnits="userSpaceOnUse">
<stop stop-color="#FFC838"/>
<stop offset="1" stop-color="#F89721"/>
</linearGradient>
<linearGradient id="paint7_linear" x1="31.8605" y1="83.1457" x2="33.7395" y2="91.1613" gradientUnits="userSpaceOnUse">
<stop stop-color="#FFC838"/>
<stop offset="1" stop-color="#F89721"/>
</linearGradient>
<linearGradient id="paint8_linear" x1="57.5619" y1="75.061" x2="64.9124" y2="79.3368" gradientUnits="userSpaceOnUse">
<stop stop-color="#FFC838"/>
<stop offset="1" stop-color="#F89721"/>
</linearGradient>
<linearGradient id="paint9_linear" x1="35.1945" y1="67.1476" x2="41.5973" y2="72.1134" gradientUnits="userSpaceOnUse">
<stop stop-color="#FFC838"/>
<stop offset="1" stop-color="#F89721"/>
</linearGradient>
<linearGradient id="paint10_linear" x1="41.5913" y1="67.1705" x2="47.9691" y2="72.1168" gradientUnits="userSpaceOnUse">
<stop stop-color="#FFC838"/>
<stop offset="1" stop-color="#F89721"/>
</linearGradient>
<linearGradient id="paint11_linear" x1="52.9765" y1="44.3591" x2="65.1467" y2="53.798" gradientUnits="userSpaceOnUse">
<stop stop-color="#F89721"/>
<stop offset="1" stop-color="#844AFF"/>
</linearGradient>
<linearGradient id="paint12_linear" x1="59.4832" y1="44.3591" x2="71.6534" y2="53.798" gradientUnits="userSpaceOnUse">
<stop stop-color="#F89721"/>
<stop offset="1" stop-color="#844AFF"/>
</linearGradient>
<linearGradient id="paint13_linear" x1="82.5702" y1="69.8982" x2="87.5003" y2="73.7219" gradientUnits="userSpaceOnUse">
<stop stop-color="#FFC838"/>
<stop offset="1" stop-color="#F89721"/>
</linearGradient>
<linearGradient id="paint14_linear" x1="59.2039" y1="68.8805" x2="61.2527" y2="70.4735" gradientUnits="userSpaceOnUse">
<stop stop-color="#E05529"/>
<stop offset="1" stop-color="#783419"/>
</linearGradient>
<linearGradient id="paint15_linear" x1="57.5619" y1="36.5729" x2="59.0957" y2="40.1417" gradientUnits="userSpaceOnUse">
<stop stop-color="#F89721"/>
<stop offset="1" stop-color="#844AFF"/>
</linearGradient>
<linearGradient id="paint16_linear" x1="35.6194" y1="38.8966" x2="90.2466" y2="87.7835" gradientUnits="userSpaceOnUse">
<stop stop-color="#E05529"/>
<stop offset="1" stop-color="#783419"/>
</linearGradient>
<linearGradient id="paint17_linear" x1="35.1811" y1="67.161" x2="41.5838" y2="72.1269" gradientUnits="userSpaceOnUse">
<stop stop-color="#E05529"/>
<stop offset="1" stop-color="#783419"/>
</linearGradient>
<linearGradient id="paint18_linear" x1="41.5796" y1="67.1721" x2="47.97" y2="72.1285" gradientUnits="userSpaceOnUse">
<stop stop-color="#E05529"/>
<stop offset="1" stop-color="#783419"/>
</linearGradient>
<linearGradient id="paint19_linear" x1="59.4714" y1="44.361" x2="71.6543" y2="53.81" gradientUnits="userSpaceOnUse">
<stop stop-color="#E05529"/>
<stop offset="1" stop-color="#783419"/>
</linearGradient>
<linearGradient id="paint20_linear" x1="82.5584" y1="69.8999" x2="87.5012" y2="73.7335" gradientUnits="userSpaceOnUse">
<stop stop-color="#E05529"/>
<stop offset="1" stop-color="#783419"/>
</linearGradient>
<linearGradient id="paint21_linear" x1="59.2039" y1="68.8805" x2="61.2527" y2="70.4735" gradientUnits="userSpaceOnUse">
<stop stop-color="#E05529"/>
<stop offset="1" stop-color="#783419"/>
</linearGradient>
<linearGradient id="paint22_linear" x1="57.5619" y1="36.5729" x2="59.0957" y2="40.1417" gradientUnits="userSpaceOnUse">
<stop stop-color="#E05529"/>
<stop offset="1" stop-color="#783419"/>
</linearGradient>
</defs>
</svg>
