<svg width="16" height="16" viewBox="0 0 16 16" fill="none" xmlns="http://www.w3.org/2000/svg">
<path d="M3.5213 0.46486C4.38028 -0.0125269 5.47564 -0.124383 6.52271 0.139278C7.03267 0.267114 7.4682 0.595692 7.72971 1.04811L8.63295 2.6121C8.95488 3.16968 9.04786 3.82905 8.89255 4.45298C8.73723 5.07691 8.34559 5.61734 7.79912 5.9618L7.00451 6.46316C6.6756 6.66989 6.5549 6.98648 6.63034 7.23716C6.8999 8.13401 7.49636 9.12873 8.15216 9.80986C8.3473 10.0136 8.70537 10.0615 9.0554 9.85879L9.49495 9.60412C9.78337 9.4372 10.1024 9.32897 10.4334 9.28575C10.7643 9.24253 11.1007 9.26518 11.4228 9.35238C11.7448 9.43958 12.0462 9.58958 12.3093 9.79364C12.5723 9.9977 12.7919 10.2517 12.955 10.5409L13.7647 11.9741C14.0293 12.4435 14.0725 13.0038 13.8854 13.5081C13.5123 14.5098 12.7931 15.3168 11.909 15.7223C11.0107 16.1327 9.95965 16.1158 9.00813 15.4856C7.50139 14.4888 5.68586 12.811 4.04132 10.0126C2.37565 7.17624 1.95622 4.76234 2.0035 2.96265C2.03367 1.81113 2.64723 0.950236 3.5213 0.46486Z" fill="white" fill-opacity="0.8"/>
</svg>
