<svg width="49" height="48" viewBox="0 0 49 48" fill="none" xmlns="http://www.w3.org/2000/svg">
<path d="M24.003 0C14.403 0 5.72305 5.72 1.93638 14.56L1.64305 14.6533L1.76304 15C-3.21029 27.28 2.69638 41.2667 14.9764 46.24C17.8431 47.4 20.9097 48 24.003 48C37.2564 48 48.003 37.2533 48.003 24C47.9897 10.7467 37.2564 0 24.003 0ZM42.8164 36.0933L41.5897 34.8667V32C41.5897 31.88 41.563 31.76 41.5097 31.64L38.3897 25.4133V22.4C38.3897 22.1333 38.2564 21.88 38.0297 21.7333L35.6297 20.1333C35.443 20.0133 35.203 19.9733 34.9897 20.0267L32.0564 20.76L27.1231 18.64L26.443 13.88L28.323 12H32.363L33.723 14.04C33.843 14.2267 34.043 14.3467 34.2564 14.3867L39.0564 15.1867C39.1897 15.2133 39.323 15.2 39.443 15.16L43.8564 13.68C47.563 20.8 47.163 29.36 42.8164 36.0933ZM39.523 7.88L38.2164 8.74667L34.5897 8.02667L32.243 7.24C32.0964 7.18667 31.9497 7.18667 31.803 7.22667L28.8297 7.97333L27.523 7.53334L28.483 5.6H31.1897C31.3097 5.6 31.4297 5.57333 31.5497 5.52L34.323 4.13333C36.2164 5.12 37.9764 6.38667 39.523 7.88ZM15.2297 3.38667L17.1497 4.66667C17.243 4.73333 17.3497 4.77333 17.4564 4.78667L21.3364 5.42667L20.963 6.56L18.9497 7.24C18.763 7.30667 18.6164 7.42666 18.523 7.58667L16.2297 11.4133L12.5364 13.6267L7.09638 14.4C6.69638 14.4533 6.40304 14.7867 6.40304 15.1867V17.5867C6.40304 17.8 6.48305 18 6.64305 18.1467L8.00303 19.5067V20.88L4.6697 18.6667L3.45638 15.04C5.74972 9.81333 9.96303 5.64 15.2297 3.38667ZM12.9497 29.6133L9.33637 28.8933L7.98971 26.2133V24.3333L10.9764 21.3467L12.0831 23.56C12.2164 23.8267 12.4964 24 12.803 24H17.9497L20.1231 27.6133C20.2697 27.8533 20.523 28 20.803 28H23.0297L22.4697 30.8L19.443 33.8267C19.2964 33.9733 19.203 34.1733 19.203 34.3867V36.3867L16.323 38.5467C16.123 38.6933 16.003 38.9333 16.003 39.1867V42.08L15.003 41.7467L13.6031 38.2267V30.3867C13.5897 30.0133 13.323 29.6933 12.9497 29.6133ZM10.5497 41.9067C3.00304 36.2533 -0.183622 26.4667 2.57638 17.4533L3.24304 19.4533C3.29638 19.6267 3.40303 19.7733 3.56303 19.8667L7.54971 22.52L6.64305 23.4267C6.49638 23.5733 6.40304 23.7867 6.40304 23.9867V26.3867C6.40304 26.5067 6.4297 26.6267 6.48304 26.7467L8.08305 29.9467C8.18972 30.1733 8.40305 30.32 8.64305 30.3733L12.003 31.04V38.3867C12.003 38.4933 12.0164 38.5867 12.0564 38.68L13.6564 42.68C13.7497 42.8933 13.923 43.0667 14.1497 43.1467L16.5497 43.9467C16.6297 43.9733 16.7097 43.9867 16.803 43.9867C17.243 43.9867 17.6031 43.6267 17.6031 43.1867V39.5867L20.483 37.4267C20.683 37.28 20.803 37.04 20.803 36.7867V34.72L23.763 31.76C23.8697 31.6533 23.9497 31.5067 23.9764 31.3467L24.7764 27.3467C24.8564 26.92 24.5764 26.4933 24.1497 26.4C24.0964 26.3867 24.043 26.3867 23.9897 26.3867H21.243L19.0697 22.7733C18.923 22.5333 18.6697 22.3867 18.3897 22.3867H13.283L11.9097 19.6267C11.7897 19.4 11.5764 19.24 11.323 19.2C11.0697 19.16 10.8164 19.24 10.6297 19.4267L9.5897 20.4667V19.2C9.5897 18.9867 9.50971 18.7867 9.34971 18.64L7.98971 17.2667V15.8933L12.8964 15.1867C13.003 15.1733 13.1097 15.1333 13.1897 15.08L17.1897 12.68C17.2964 12.6133 17.3897 12.52 17.4697 12.4L19.723 8.65334L21.843 7.94667C22.083 7.86667 22.2697 7.68 22.3497 7.44L23.1497 5.04C23.283 4.62667 23.0564 4.17333 22.643 4.02667C22.6031 4.01333 22.563 4 22.523 4L17.8964 3.22667L17.0831 2.68C22.1097 1.04 27.563 1.24 32.4697 3.25333L31.003 3.98667H27.9897C27.683 3.98667 27.4031 4.16 27.2697 4.42667L25.6697 7.62667C25.4697 8.02667 25.6297 8.50667 26.0297 8.69333C26.0697 8.70667 26.0964 8.72 26.1364 8.73333L28.5364 9.53334C28.683 9.58667 28.8297 9.58667 28.9764 9.54667L31.9497 8.8L34.1231 9.52C34.1497 9.53333 34.1897 9.53333 34.2164 9.54667L38.2164 10.3467C38.4297 10.3867 38.643 10.3467 38.8164 10.2267L40.6431 9.01334C41.5364 10.0133 42.3497 11.0933 43.043 12.2267L39.1231 13.5733L34.8564 12.8667L33.443 10.76C33.2964 10.5333 33.043 10.4 32.7764 10.4H27.9897C27.7764 10.4 27.5764 10.48 27.4297 10.64L25.0297 13.04C24.8564 13.2133 24.763 13.4667 24.803 13.72L25.6031 19.32C25.6431 19.6 25.8297 19.8267 26.0831 19.9467L31.683 22.3467C31.843 22.4133 32.0164 22.4267 32.1897 22.3867L35.043 21.6667L36.7897 22.8267V25.6C36.7897 25.72 36.8164 25.84 36.8697 25.96L39.9897 32.1867V35.2C39.9897 35.4133 40.0697 35.6133 40.2297 35.76L41.8964 37.44C34.4697 47.3333 20.443 49.3333 10.5497 41.9067Z" fill="url(#paint0_linear)"/>
<defs>
<linearGradient id="paint0_linear" x1="11.0007" y1="-8.93751e-08" x2="37.9998" y2="48.0015" gradientUnits="userSpaceOnUse">
<stop stop-color="#FFC838"/>
<stop offset="1" stop-color="#E05529"/>
</linearGradient>
</defs>
</svg>
