<svg width="48" height="64" viewBox="0 0 48 64" fill="none" xmlns="http://www.w3.org/2000/svg">
<path d="M45.07 35.4933L35.6211 20.5067C36.9672 19.7867 37.8909 18.3733 37.8909 16.7467C37.8909 14.96 36.7824 13.44 35.2516 12.8L38.1021 2.66667C38.2341 2.24 38.1021 1.76 37.7854 1.44C35.885 -0.48 32.7706 -0.48 30.8703 1.44C30.4216 1.89333 29.8145 2.16 29.1547 2.16C28.5213 2.16 27.9142 1.89333 27.4391 1.44C25.5388 -0.48 22.4507 -0.48 20.5504 1.44L20.524 1.46667C19.5738 2.4 18.043 2.4 17.1192 1.46667C15.2189 -0.453333 12.1045 -0.453333 10.2042 1.46667C9.88744 1.78667 9.75547 2.26667 9.88743 2.69333L12.7643 12.8C11.2071 13.4133 10.0986 14.96 10.0986 16.7467C10.0986 18.3733 11.0224 19.7867 12.3684 20.5067L2.91955 35.4933C-0.749145 41.28 -0.960288 48.3467 2.28611 54.3733C5.53251 60.4 11.5502 64 18.3333 64H29.6034C36.4129 64 42.4306 60.4 45.7034 54.3733C48.9762 48.3467 48.7387 41.28 45.07 35.4933ZM15.3245 3.22667C17.2248 5.14667 20.3393 5.17333 22.2396 3.25333L22.266 3.22667C23.2162 2.29333 24.747 2.29333 25.6707 3.22667C27.5711 5.14667 30.6855 5.14667 32.5858 3.22667C33.3513 2.45333 34.539 2.29333 35.4627 2.8L32.7178 12.48H15.1925L12.4476 2.8C13.3978 2.29333 14.5591 2.42667 15.3245 3.22667ZM43.5127 53.1733C40.6886 58.4 35.4891 61.4933 29.6034 61.4933H18.3333C12.4476 61.4933 7.24809 58.3733 4.42398 53.1733C1.59988 47.9467 1.78462 41.84 4.95184 36.8267L14.955 20.9867H18.4125C19.0988 20.9867 19.653 20.4267 19.653 19.7333C19.653 19.04 19.0988 18.48 18.4125 18.48H14.2951C13.345 18.48 12.5532 17.7067 12.5532 16.72C12.5532 15.7333 13.3186 14.96 14.2951 14.96H33.668C34.6182 14.96 35.4099 15.7333 35.4099 16.72C35.4099 17.7067 34.6445 18.48 33.668 18.48H29.5506C28.8644 18.48 28.3101 19.04 28.3101 19.7333C28.3101 20.4267 28.8644 20.9867 29.5506 20.9867H33.0081L43.0113 36.8267C46.1521 41.84 46.3632 47.9467 43.5127 53.1733Z" fill="url(#paint0_linear)"/>
<path d="M26.1458 40.8267C25.8291 40.7201 25.5124 40.6134 25.1957 40.4801V34.8267C26.0403 35.0667 26.5945 35.4934 26.6209 35.4934C27.1752 35.8934 27.9406 35.7867 28.3365 35.2534C28.7588 34.6934 28.6532 33.9201 28.0989 33.4934C28.0198 33.4401 26.8849 32.5867 25.1957 32.2401V30.9867C25.1957 30.2934 24.6414 29.7334 23.9552 29.7334C23.2689 29.7334 22.7147 30.2934 22.7147 30.9867V32.2134C22.5035 32.2667 22.2924 32.2934 22.0812 32.3734C20.3393 32.9067 19.046 34.4001 18.6765 36.2934C18.3597 38.0267 18.914 39.6801 20.1017 40.6401C20.7616 41.1467 21.5798 41.6267 22.7147 42.1334V49.3867C21.7381 49.3334 21.0783 49.0934 19.9961 48.3734C19.4155 48.0001 18.6501 48.1601 18.2806 48.7467C17.9111 49.3334 18.0694 50.1067 18.6501 50.4801C20.2337 51.5201 21.3158 51.8134 22.7147 51.8934V53.1734C22.7147 53.8667 23.2689 54.4267 23.9552 54.4267C24.6414 54.4267 25.1957 53.8667 25.1957 53.1734V51.7601C27.835 51.1734 29.3922 48.9334 29.7353 46.8534C30.2104 44.1334 28.8116 41.7601 26.1458 40.8267ZM21.6589 38.6934C21.1838 38.3201 20.9727 37.5734 21.1311 36.7734C21.263 36.0267 21.7645 35.1467 22.7411 34.8001V39.3867C22.3188 39.1734 21.9756 38.9334 21.6589 38.6934ZM27.3071 46.4534C27.1224 47.5201 26.4098 48.6667 25.1957 49.1734V43.1467C25.2485 43.1734 25.2748 43.1734 25.3276 43.2001C27.5447 43.9734 27.4127 45.8934 27.3071 46.4534Z" fill="#AD86FF"/>
<path d="M23.9815 20.9866C24.2983 20.9866 24.615 20.8533 24.8525 20.6133C25.0901 20.3733 25.222 20.0533 25.222 19.7333C25.222 19.4133 25.0901 19.0933 24.8525 18.8533C24.615 18.6133 24.2983 18.48 23.9815 18.48C23.6648 18.48 23.3481 18.6133 23.1106 18.8533C22.873 19.0933 22.7411 19.4133 22.7411 19.7333C22.7411 20.0533 22.873 20.3733 23.1106 20.6133C23.3217 20.8533 23.6384 20.9866 23.9815 20.9866Z" fill="url(#paint1_linear)"/>
<defs>
<linearGradient id="paint0_linear" x1="11" y1="-1.19167e-07" x2="51.44" y2="53.92" gradientUnits="userSpaceOnUse">
<stop stop-color="#FFC838"/>
<stop offset="1" stop-color="#E05529"/>
</linearGradient>
<linearGradient id="paint1_linear" x1="23.3096" y1="18.48" x2="24.7271" y2="20.9742" gradientUnits="userSpaceOnUse">
<stop stop-color="#FFC838"/>
<stop offset="1" stop-color="#E05529"/>
</linearGradient>
</defs>
</svg>
