<svg width="44" height="64" viewBox="0 0 44 64" fill="none" xmlns="http://www.w3.org/2000/svg">
<path fill-rule="evenodd" clip-rule="evenodd" d="M8.80191 58.5008C1.51281 51.1686 1.51281 39.2807 8.80191 31.9485C10.0739 30.669 14.6845 26.0457 20.0192 20.6979L20.0151 20.6937L21.9906 18.7182L21.9924 18.72C27.9884 12.7097 34.4721 6.21193 38.0041 2.67244H33.6657C33.1134 2.67244 32.6657 2.22472 32.6657 1.67244V1.00602C32.6657 0.453736 33.1134 0.00602168 33.6657 0.00602168L40.6649 0.0060216L40.6709 0L40.6769 0.0060216L42.3313 0.00602158C42.8836 0.00602158 43.3313 0.453737 43.3313 1.00602V9.67169C43.3313 10.224 42.8836 10.6717 42.3313 10.6717H41.6649C41.1126 10.6717 40.6649 10.224 40.6649 9.67169V4.00562L25.104 19.5666L23.9701 20.7005L23.9701 20.7005L21.9957 22.6749L21.9957 22.6749L21.2553 23.4153L17.7428 26.9319L17.7067 26.968L17.5918 27.0831L17.5706 27.1044C15.0897 29.5882 12.199 32.4824 10.6874 33.9955C4.43955 40.2495 4.43955 50.3892 10.6874 56.6431C16.9352 62.8971 27.0648 62.8971 33.3127 56.6431C39.5605 50.3892 39.5605 40.2495 33.3127 33.9955C32.516 33.1981 28.6615 29.3424 23.8809 24.5606L25.8542 22.5872C30.6023 27.342 34.4191 31.1649 35.1981 31.9485C42.4872 39.2807 42.4872 51.1686 35.1981 58.5008C27.909 65.8331 16.091 65.8331 8.80191 58.5008ZM3.33509 4.0089L3.33509 9.67169C3.33509 10.224 2.88737 10.6717 2.33509 10.6717H1.66867C1.11639 10.6717 0.668671 10.224 0.668671 9.67169V1.00602C0.668671 0.453737 1.11639 0.00602246 1.66867 0.00602242L10.3343 0.00602166C10.8866 0.00602161 11.3343 0.453737 11.3343 1.00602V1.67244C11.3343 2.22472 10.8866 2.67244 10.3343 2.67244L5.96981 2.67244C9.2244 5.93431 14.733 11.4507 20.1064 16.8315L18.1299 18.808C12.3519 13.0286 6.43229 7.10742 3.33509 4.0089Z" fill="url(#paint0_linear)"/>
<path fill-rule="evenodd" clip-rule="evenodd" d="M22 53.3283C26.4179 53.3283 29.9993 49.7469 29.9993 45.3291C29.9993 40.9112 26.4179 37.3298 22 37.3298C17.5821 37.3298 14.0008 40.9112 14.0008 45.3291C14.0008 49.7469 17.5821 53.3283 22 53.3283ZM22 50.6619C24.9452 50.6619 27.3328 48.2743 27.3328 45.3291C27.3328 42.3838 24.9452 39.9963 22 39.9963C19.0548 39.9963 16.6672 42.3838 16.6672 45.3291C16.6672 48.2743 19.0548 50.6619 22 50.6619Z" fill="#AD86FF"/>
<defs>
<linearGradient id="paint0_linear" x1="10.4455" y1="-1.19167e-07" x2="51.9704" y2="49.2101" gradientUnits="userSpaceOnUse">
<stop stop-color="#FFC838"/>
<stop offset="1" stop-color="#E05529"/>
</linearGradient>
</defs>
</svg>
