<svg width="172" height="172" viewBox="0 0 172 172" fill="none" xmlns="http://www.w3.org/2000/svg">
<path fill-rule="evenodd" clip-rule="evenodd" d="M146.426 24.819C179.719 58.1117 179.489 112.327 145.908 145.908C112.327 179.489 58.1261 179.719 24.8191 146.426C-8.47356 113.134 -8.24318 58.9181 25.3374 25.3374C58.918 -8.24317 113.134 -8.47357 146.426 24.819Z" fill="url(#paint0_radial)"/>
<path fill-rule="evenodd" clip-rule="evenodd" d="M130.126 36.4974C155.052 61.4236 154.879 101.988 129.737 127.13C104.609 152.258 64.0301 152.431 39.1038 127.519C14.1775 102.593 14.3503 62.0284 39.4926 36.8862C64.6204 11.7583 105.199 11.5855 130.126 36.4974Z" fill="url(#paint1_radial)"/>
<path fill-rule="evenodd" clip-rule="evenodd" d="M140.433 82.2237C140.433 112.723 115.708 137.433 85.2237 137.433C59.3038 137.433 37.56 119.577 31.6128 95.5004C30.5616 91.2525 30 86.8029 30 82.2237C30 80.1933 30.1152 78.2061 30.3168 76.2333C33.2976 48.5567 56.7406 27 85.2093 27C115.708 27.0144 140.433 51.7247 140.433 82.2237Z" fill="white"/>
<path d="M96.0596 104.474C94.6252 104.702 94.0836 103.788 94.0836 103.016C94.0836 102.675 94.0878 102.085 94.0935 101.3C94.1048 99.736 94.1218 97.3975 94.1218 94.7076C94.1218 91.8751 93.1669 90.0622 92.0593 89.1181C98.8578 88.3627 106 85.7946 106 74.2C106 70.8765 104.816 68.195 102.868 66.0801C103.174 65.3247 104.243 62.2278 102.563 58.0734C102.563 58.0734 100.004 57.2426 94.16 61.1703C91.7156 60.4905 89.1184 60.1506 86.5212 60.1506C83.9241 60.1506 81.3269 60.4905 78.8825 61.1703C73.0389 57.2803 70.4799 58.0734 70.4799 58.0734C68.7994 62.2278 69.8688 65.3247 70.1743 66.0801C68.2264 68.195 67.0424 70.9143 67.0424 74.2C67.0424 85.7568 74.1465 88.3627 80.945 89.1181C80.0665 89.8734 79.2644 91.1953 78.9971 93.1592C77.2402 93.9523 72.8479 95.2364 70.0979 90.6665C69.525 89.7601 67.8063 87.5318 65.4001 87.5696C62.8411 87.6074 64.3689 89.0048 65.4383 89.5713C66.7369 90.2888 68.2264 92.9703 68.5702 93.839C69.1813 95.5385 71.1674 98.7865 78.8443 97.3891C78.8443 99.0402 78.8606 100.627 78.8719 101.73C78.8779 102.317 78.8825 102.767 78.8825 103.016C78.8825 103.81 78.3096 104.716 76.7818 104.452C79.761 106 83.5803 106 86.4448 106C89.8039 106 93.0364 105.464 96.0596 104.474Z" fill="#0E1C1C"/>
<defs>
<radialGradient id="paint0_radial" cx="0" cy="0" r="1" gradientUnits="userSpaceOnUse" gradientTransform="translate(85.6251 85.6203) rotate(-45) scale(85.9838 85.2524)">
<stop stop-color="#51E3FF"/>
<stop offset="1" stop-color="#51E3FF" stop-opacity="0"/>
</radialGradient>
<radialGradient id="paint1_radial" cx="0" cy="0" r="1" gradientUnits="userSpaceOnUse" gradientTransform="translate(84.611 82.0105) rotate(-45) scale(64.3579 63.8105)">
<stop stop-color="#E5CCFF"/>
<stop offset="1" stop-color="#E5CCFF" stop-opacity="0"/>
</radialGradient>
</defs>
</svg>
