<svg width="120" height="120" viewBox="0 0 120 120" fill="none" xmlns="http://www.w3.org/2000/svg">
<circle opacity="0.06" cx="60" cy="60" r="60" fill="url(#paint0_linear)"/>
<path d="M32.9237 34.9993H35.385V37.4996H32.9237V34.9993Z" fill="#E05529"/>
<path d="M37.8463 34.9993H40.3081V37.4996H37.8463V34.9993Z" fill="#E05529"/>
<path d="M42.7695 34.9993H45.2313V37.4996H42.7695V34.9993Z" fill="#E05529"/>
<path d="M32.9237 39.9998H87.0769V42.5001H32.9237V39.9998Z" fill="#E05529"/>
<path d="M32.9237 46.2498H42.7695V48.7501H32.9237V46.2498Z" fill="#E05529"/>
<path d="M32.9237 51.2498H40.3082V53.7501H32.9237V51.2498Z" fill="#E05529"/>
<path d="M32.9237 31.25H87.0769C89.1164 31.25 90.7693 32.9288 90.7693 34.9997V85C90.7693 87.0714 89.1164 88.7502 87.0769 88.7502H32.9237C30.8841 88.7502 29.2312 87.0714 29.2312 85V34.9997C29.2312 32.9288 30.8841 31.25 32.9237 31.25Z" fill="url(#paint1_linear)"/>
<path d="M78.4617 68.7501V61.2501H74.2855C73.942 59.8947 73.4129 58.5972 72.7128 57.3924L75.6665 54.3926L70.4442 49.0887L67.4905 52.0885C66.3043 51.3775 65.0268 50.8401 63.6922 50.4912V46.2498H56.3077V50.4912C54.9737 50.8401 53.6961 51.3775 52.5099 52.0885L49.5557 49.0887L44.3335 54.3926L47.2877 57.3924C46.5871 58.5962 46.058 59.8947 45.7144 61.2501H41.5388V68.7501H45.7144C46.058 70.105 46.5871 71.4025 47.2877 72.6073L44.3335 75.6076L49.5557 80.9115L52.5099 77.9111C53.6961 78.6227 54.9737 79.1601 56.3077 79.509V83.7499H63.6922V79.509C65.0268 79.1601 66.3043 78.6227 67.4905 77.9111L70.4442 80.9115L75.6665 75.6076L72.7128 72.6073C73.4129 71.4025 73.942 70.105 74.2855 68.7501H78.4617ZM60.0002 72.4998C55.9212 72.4998 52.6152 69.1427 52.6152 64.9998C52.6152 60.8575 55.9212 57.4999 60.0002 57.4999C64.0788 57.4999 67.3847 60.8575 67.3847 64.9998C67.3847 69.1427 64.0788 72.4998 60.0002 72.4998Z" fill="url(#paint2_linear)"/>
<path d="M79.6924 82.4998H87.0769V84.9996H79.6924V82.4998Z" fill="#E05529"/>
<path fill-rule="evenodd" clip-rule="evenodd" d="M32.9232 90C30.2048 90 28 87.7613 28 84.9999H28.0005V34.9996C28.0005 32.2387 30.2048 30 32.9236 30H87.0768C89.7957 30 92 32.2387 92 34.9996V84.9999C92 87.7613 89.7957 90 87.0768 90H32.9232ZM32.9236 32.4998C31.5635 32.4998 30.4618 33.6187 30.4618 34.9996V84.9999C30.4618 86.3813 31.5635 87.5002 32.9236 87.5002H87.0768C88.437 87.5002 89.5387 86.3813 89.5387 84.9999V34.9996C89.5387 33.6187 88.437 32.4998 87.0768 32.4998H32.9236ZM35.385 34.9993H32.9237V37.4996H35.385V34.9993ZM37.8463 34.9993H40.3081V37.4996H37.8463V34.9993ZM45.2313 34.9993H42.7695V37.4996H45.2313V34.9993ZM32.9237 39.9998H87.0769V42.5001H32.9237V39.9998ZM42.7695 46.2497H32.9237V48.75H42.7695V46.2497ZM32.9237 51.2497H40.3082V53.75H32.9237V51.2497ZM51.3846 64.9998C51.3846 60.1675 55.2419 56.25 60.0003 56.25C64.7558 56.2549 68.6106 60.17 68.6154 64.9998C68.6154 69.8326 64.7582 73.7501 60.0003 73.7501C55.2419 73.7501 51.3846 69.8326 51.3846 64.9998ZM53.8465 64.9998C53.8465 68.4512 56.6021 71.2498 60.0003 71.2498C63.3971 71.2464 66.1502 68.4497 66.1541 64.9998C66.1541 61.5489 63.3985 58.7503 60.0003 58.7503C56.6021 58.7503 53.8465 61.5489 53.8465 64.9998ZM79.6924 61.25C79.6924 60.5596 79.1411 59.9996 78.4617 59.9996H75.2089C74.949 59.1786 74.6228 58.3797 74.2353 57.6122L76.5357 55.2773C77.0155 54.7895 77.0155 53.9974 76.5357 53.5096L71.3135 48.2058C70.8332 47.7185 70.0529 47.7185 69.5731 48.2058L67.2741 50.5412C66.5169 50.1486 65.7318 49.8183 64.9229 49.5533V46.2497C64.9229 45.5597 64.3716 44.9998 63.6923 44.9998H56.3078C55.6284 44.9998 55.0771 45.5597 55.0771 46.2497V49.5533C54.2687 49.8183 53.4831 50.1486 52.7264 50.5412L50.4274 48.2058C49.9471 47.7185 49.1668 47.7185 48.687 48.2058L43.4648 53.5096C42.9845 53.9974 42.9845 54.7895 43.4648 55.2773L45.7638 57.6122C45.6603 57.8173 45.5618 58.0225 45.4685 58.2296C45.2086 58.8062 44.9824 59.3975 44.7916 59.9996H41.5388C40.8594 59.9996 40.3076 60.5601 40.3076 61.25V68.75C40.3076 69.44 40.8594 69.9999 41.5388 69.9999H44.7916C45.0511 70.8209 45.3772 71.6198 45.7652 72.3873L43.4648 74.7223C42.9845 75.2101 42.9845 76.0026 43.4648 76.4899L48.687 81.7938C49.1668 82.2816 49.9471 82.2816 50.4274 81.7938L52.7264 79.4589C53.4831 79.8514 54.2683 80.1812 55.0771 80.4462V83.7499C55.0771 84.4398 55.6284 84.9998 56.3078 84.9998H63.6923C64.3716 84.9998 64.9229 84.4398 64.9229 83.7499V80.4462C65.7318 80.1812 66.5169 79.851 67.2741 79.4589L69.5731 81.7938C70.0529 82.2811 70.8332 82.2811 71.3135 81.7938L76.5357 76.4899C77.0155 76.0021 77.0155 75.2101 76.5357 74.7223L74.2353 72.3873C74.6228 71.6198 74.949 70.8209 75.2089 69.9999H78.4617C79.1411 69.9999 79.6924 69.44 79.6924 68.75V61.25ZM77.2306 67.5001H74.2846C73.7231 67.5001 73.2332 67.8863 73.0931 68.4374C72.778 69.679 72.2944 70.8685 71.6532 71.9722C71.3676 72.4639 71.4464 73.0876 71.8426 73.491L73.9237 75.6061L70.4433 79.1423L68.3608 77.0273C67.9636 76.6239 67.348 76.5449 66.8643 76.8349C65.7777 77.4861 64.6069 77.9788 63.3849 78.2973C62.8423 78.4401 62.4621 78.9372 62.4621 79.5074V82.5H57.5389V79.5074C57.5389 78.9372 57.1587 78.4401 56.616 78.2973C55.3936 77.9788 54.2233 77.4861 53.1366 76.8349C52.653 76.5449 52.0374 76.6239 51.6397 77.0273L49.5577 79.1423L46.0769 75.6061L48.1584 73.491C48.5546 73.0876 48.6334 72.4639 48.3478 71.9722C47.7066 70.8685 47.223 69.6785 46.9079 68.4374C46.7673 67.8863 46.2779 67.5001 45.7164 67.5001H42.7699V62.5H45.7164C46.2779 62.5 46.7673 62.1137 46.9079 61.5626C47.107 60.776 47.3742 60.0085 47.7076 59.2709C47.8994 58.8435 48.114 58.4263 48.3478 58.021C48.6319 57.5298 48.5546 56.906 48.1584 56.5036L46.0769 54.3886L49.5577 50.8523L51.6397 52.9674C52.0374 53.3713 52.653 53.4498 53.1366 53.1598C54.2233 52.5085 55.3936 52.0163 56.616 51.6974C57.1587 51.555 57.5389 51.0574 57.5389 50.4872V47.5001H62.4621V50.4926C62.4621 51.0623 62.8423 51.5599 63.3849 51.7023C64.6074 52.0212 65.7777 52.5135 66.8643 53.1651C67.348 53.4547 67.9636 53.3762 68.3608 52.9723L70.4433 50.8572L73.9237 54.3935L71.8426 56.5085C71.4464 56.9124 71.3676 57.5361 71.6532 58.0274C72.2944 59.131 72.778 60.3211 73.0931 61.5622C73.2337 62.1137 73.7231 62.5 74.2846 62.5H77.231V67.5001H77.2306ZM87.0769 82.4997H79.6924V84.9995H87.0769V82.4997Z" fill="url(#paint3_linear)"/>
<defs>
<linearGradient id="paint0_linear" x1="14.2863" y1="14.7784" x2="128.63" y2="104.316" gradientUnits="userSpaceOnUse">
<stop stop-color="#F89721"/>
<stop offset="1" stop-color="#844AFF"/>
</linearGradient>
<linearGradient id="paint1_linear" x1="36.5575" y1="38.3314" x2="92.1245" y2="84.899" gradientUnits="userSpaceOnUse">
<stop stop-color="#FFC838"/>
<stop offset="1" stop-color="#F89721"/>
</linearGradient>
<linearGradient id="paint2_linear" x1="45.9345" y1="50.868" x2="81.5305" y2="78.3125" gradientUnits="userSpaceOnUse">
<stop stop-color="#AD86FF"/>
<stop offset="1" stop-color="#844AFF"/>
</linearGradient>
<linearGradient id="paint3_linear" x1="35.6194" y1="37.3892" x2="93.5681" y2="85.7914" gradientUnits="userSpaceOnUse">
<stop stop-color="#E05529"/>
<stop offset="1" stop-color="#783419"/>
</linearGradient>
</defs>
</svg>
