<svg width="16" height="16" viewBox="0 0 16 16" fill="none" xmlns="http://www.w3.org/2000/svg">
<path d="M16 4.45627V12.725C16 13.9817 15.0105 15 13.7895 15H2.21053C1.62426 15 1.062 14.7603 0.647448 14.3337C0.232894 13.907 0 13.3284 0 12.725V4.45627L7.74653 8.8416C7.90442 8.93087 8.096 8.93087 8.25347 8.8416L16 4.45627ZM13.7895 1C14.3665 1.00006 14.9207 1.23233 15.3335 1.64722C15.7464 2.0621 15.9853 2.6267 15.9992 3.2204L8 7.74873L0.000842044 3.21997L0.00168429 3.18097C0.0252643 2.59434 0.268298 2.03982 0.679962 1.63335C1.09163 1.22688 1.64004 0.999946 2.21053 1H13.7895Z" fill="white" fill-opacity="0.8"/>
</svg>
