<svg width="48" height="48" viewBox="0 0 48 48" fill="none" xmlns="http://www.w3.org/2000/svg">
<path fill-rule="evenodd" clip-rule="evenodd" d="M47.9436 3.58329C47.8396 1.67661 46.3232 0.160394 44.4165 0.0563319C40.5693 -0.153855 33.0408 0.0506134 25.8419 3.77407C22.1721 5.67231 18.2909 8.89064 15.1935 12.6039C15.1713 12.6305 15.1495 12.6571 15.1276 12.6838L15.1276 12.6839L15.1275 12.684L15.0803 12.7415L8.05096 13.2845C6.8939 13.3739 5.86331 13.9804 5.22338 14.9483L0.427709 22.2019C-0.0576326 22.9359 -0.134789 23.8546 0.221179 24.6592C0.57724 25.464 1.30886 26.0248 2.17839 26.1595L8.10065 27.0768L8.09702 27.0967C8.07732 27.2052 8.05763 27.3136 8.03953 27.422C7.84237 28.6014 8.23312 29.814 9.08493 30.6657L17.3341 38.915C18.0404 39.6212 18.9946 40.0106 19.9724 40.0106C20.1738 40.0106 20.3763 39.994 20.5779 39.9603C20.6858 39.9423 20.7936 39.9227 20.9014 39.9031L20.9017 39.9031L20.902 39.903L20.9023 39.903L20.9232 39.8992L21.8404 45.8215C21.9751 46.6911 22.5359 47.4228 23.3405 47.7788C23.6753 47.9269 24.0296 48 24.3822 48C24.8775 47.9999 25.3693 47.8557 25.798 47.5723L33.0516 42.7766C34.0195 42.1365 34.6259 41.1059 34.7151 39.949L35.2581 32.9197L35.3164 32.8719C35.3429 32.8502 35.3695 32.8286 35.3959 32.8066C39.1092 29.7092 42.3276 25.8279 44.2258 22.158C47.9494 14.9589 48.1535 7.43031 47.9436 3.58329ZM31.5005 40.4304L24.562 45.0178L23.668 39.2461C26.6005 38.3839 29.5014 37.003 32.265 35.153L31.9113 39.7322C31.8892 40.0179 31.7394 40.2724 31.5005 40.4304ZM19.3229 36.9263L11.0735 28.677C10.8631 28.4664 10.7658 28.1706 10.8135 27.8857C11.0587 26.4192 11.4398 25.0232 11.9116 23.7081L24.2892 36.0856C22.7097 36.6514 21.2949 36.9889 20.1141 37.1864C19.8287 37.2338 19.5333 37.1368 19.3229 36.9263ZM8.26762 16.0886L12.8467 15.7349C10.9967 18.4986 9.61574 21.3995 8.75352 24.332L2.98192 23.4381L7.56946 16.4995C7.72753 16.2604 7.98206 16.1107 8.26762 16.0886ZM33.5946 30.6467C31.3227 32.5416 29.1174 33.9122 27.0848 34.904L13.0954 20.9146C14.3945 18.2611 15.9801 16.0515 17.3532 14.4055C20.2196 10.9691 23.7846 8.00462 27.1342 6.27212C33.7411 2.85467 40.7021 2.67063 44.2635 2.86451C44.7348 2.8902 45.1097 3.2651 45.1354 3.73657C45.3296 7.29793 45.1452 14.2588 41.7277 20.8659C39.9953 24.2153 37.0309 27.7803 33.5946 30.6467ZM32.88 22.1477C34.6802 22.1475 36.4811 21.4622 37.8516 20.0917C39.1797 18.7637 39.9109 16.998 39.9109 15.12C39.9109 13.242 39.1796 11.4764 37.8516 10.1484C35.1102 7.40687 30.6496 7.40705 27.9084 10.1484C26.5803 11.4764 25.849 13.242 25.849 15.12C25.849 16.998 26.5804 18.7637 27.9084 20.0917C29.2792 21.4625 31.0792 22.1479 32.88 22.1477ZM29.8969 12.137C30.7193 11.3145 31.7995 10.9034 32.8798 10.9034C33.9602 10.9034 35.0405 11.3145 35.8628 12.137C36.6596 12.9338 37.0984 13.9932 37.0984 15.1199C37.0984 16.2467 36.6596 17.3062 35.8628 18.103C34.2181 19.7478 31.5416 19.7477 29.8968 18.103C29.1 17.3062 28.6612 16.2468 28.6612 15.12C28.6612 13.9932 29.1001 12.9338 29.8969 12.137ZM2.4288 39.1446C2.1543 39.4193 1.79439 39.5565 1.43449 39.5565C1.07458 39.5565 0.714678 39.4192 0.440179 39.1446C-0.109007 38.5954 -0.109007 37.7051 0.440179 37.1559L5.03129 32.5647C5.58047 32.0155 6.47091 32.0155 7.02 32.5647C7.56918 33.1139 7.56918 34.0042 7.02 34.5534L2.4288 39.1446ZM11.2276 36.7723C10.6785 36.2231 9.78805 36.2231 9.23886 36.7723L0.411958 45.5993C-0.137228 46.1484 -0.137228 47.0388 0.411958 47.588C0.68655 47.8626 1.04636 47.9998 1.40627 47.9998C1.76617 47.9998 2.12608 47.8626 2.40058 47.5879L11.2275 38.761C11.7768 38.2118 11.7768 37.3214 11.2276 36.7723ZM8.85524 45.571L13.4464 40.9798C13.9955 40.4307 14.886 40.4307 15.4351 40.9798C15.9842 41.529 15.9842 42.4194 15.4351 42.9685L10.8439 47.5597C10.5694 47.8344 10.2094 47.9717 9.84955 47.9717C9.48974 47.9717 9.12983 47.8343 8.85524 47.5597C8.30605 47.0106 8.30605 46.1202 8.85524 45.571Z" fill="url(#paint0_linear)"/>
<defs>
<linearGradient id="paint0_linear" x1="11" y1="-8.93751e-08" x2="38" y2="47.9999" gradientUnits="userSpaceOnUse">
<stop stop-color="#FFC838"/>
<stop offset="1" stop-color="#E05529"/>
</linearGradient>
</defs>
</svg>
