<svg width="80" height="80" viewBox="0 0 80 80" fill="none" xmlns="http://www.w3.org/2000/svg">
    <circle cx="40" cy="40" r="40" fill="#EBEEF0"/>
    <path fill-rule="evenodd" clip-rule="evenodd" d="M55.46 35.658C56.84 35.658 58.12 36.2726 58.99 37.3333C59.86 38.3941 60.19 39.772 59.9 41.1004L57.65 51.43C57.2 53.4919 55.34 54.9789 53.22 54.9789H40.39C38.77 54.9789 37.2 54.4139 35.97 53.373L35.23 52.7485V56H20V34.9343H35.23V37.0062L36.42 36.4411C37.06 36.1338 37.58 35.6084 37.88 34.9641L41.85 26.3693C42.53 24.8823 43.9 24 45.5 24C46.7 24 47.89 24.5254 48.65 25.3978C49.41 26.2503 49.74 27.3804 49.58 28.57L48.64 35.658H55.46ZM22.34 53.6704H32.88V50.7658V38.1066V37.2441H22.34V53.6704ZM55.36 50.9442L57.61 40.6146C57.75 39.9703 57.59 39.3061 57.17 38.7906C56.75 38.2751 56.13 37.9777 55.46 37.9777H45.97L47.26 28.2627C47.33 27.7274 47.21 27.2813 46.89 26.9244C46.55 26.5378 46.03 26.3098 45.49 26.3098C45.1 26.3098 44.38 26.4387 43.97 27.3209L40 35.9157C39.47 37.0558 38.56 37.9777 37.42 38.5229L35.22 39.5737V49.6952L37.48 51.5985C38.29 52.2825 39.32 52.6592 40.38 52.6592H53.22C54.24 52.6592 55.14 51.9356 55.36 50.9442ZM28.7799 49.8538C28.7799 50.4944 28.2561 51.0137 27.6099 51.0137C26.9638 51.0137 26.4399 50.4944 26.4399 49.8538C26.4399 49.2132 26.9638 48.694 27.6099 48.694C28.2561 48.694 28.7799 49.2132 28.7799 49.8538Z" fill="#8F969E"/>
</svg>
