<svg width="536" height="412" viewBox="0 0 536 412" fill="none" xmlns="http://www.w3.org/2000/svg">
    <path d="M211.907 367.402C157.34 373.855 135.72 376.728 105.531 373.066C91.6281 371.38 71.8725 367.819 43.9836 369.425C25.061 370.516 0.0922588 374.118 0.000248387 378.27C-0.0893407 382.369 24.0755 386.27 40.9449 387.632C66.8506 389.722 85.5118 386.625 86.536 388.441C88.0881 391.195 44.9013 397.82 46.2645 402.602C47.543 407.09 87.9307 409.542 126.808 406.648C167.893 403.589 172.336 397.161 198.232 398.961C229.498 401.133 231.629 411.101 260.641 411.948C288.182 412.753 292.884 403.965 325.124 401.792C360.315 399.421 367.369 409.039 404.146 409.884C458.427 411.129 509.004 391.689 505.965 384.799C503.522 379.261 465.575 379.839 465.694 377.516C465.849 374.493 529.961 376.697 535.6 366.591C538.399 361.576 525.694 355.49 522.682 354.049C491.854 339.287 428.379 341.804 211.907 367.402Z" fill="#EBEEF0"/>
    <path d="M225.506 123.827C231.505 126.856 239.037 124.075 242.334 117.612C245.632 111.148 243.442 103.449 237.443 100.414C237.133 100.257 236.816 100.124 236.5 99.9964C237.613 96.4164 238.453 92.8121 239.019 89.2078C239.359 89.2078 239.706 89.2018 240.059 89.1715C246.903 88.5657 252.33 82.3021 252.19 75.1905C252.044 68.0728 246.386 62.7966 239.542 63.4084C239.183 63.4387 238.83 63.4993 238.483 63.5599C237.771 60.0343 236.792 56.5876 235.551 53.2559C235.867 53.0741 236.177 52.8803 236.488 52.6683C242.34 48.5854 244.214 40.5228 240.667 34.6651C237.12 28.8073 229.503 27.3656 223.651 31.4485C223.352 31.6605 223.066 31.8846 222.787 32.1148C220.475 29.5706 217.938 27.2142 215.194 25.0577C215.388 24.7427 215.577 24.4216 215.747 24.0885C219.045 17.625 223.352 10.5618 217.311 7.62386C203.33 0.827211 197.331 6.64252 194.034 13.1121C193.863 13.4452 193.717 13.7845 193.571 14.1297C190.207 13.1969 186.8 12.5487 183.369 12.1913C183.393 11.8339 183.405 11.4704 183.399 11.107C183.253 3.98929 185.376 0.1427 178.508 0.00943285C163.529 -0.281333 158.479 6.19426 158.619 13.3059C158.625 13.6754 158.656 14.0389 158.692 14.4023C155.261 15.3776 151.89 16.6194 148.605 18.1278C148.447 17.8128 148.289 17.4978 148.1 17.1888C144.553 11.3311 136.936 9.8894 131.083 13.9783C125.23 18.0611 123.356 26.1238 126.903 31.9815C127.086 32.2844 127.287 32.5631 127.487 32.8417C124.896 35.4223 122.468 38.2269 120.223 41.2315C119.931 41.0498 119.639 40.8741 119.329 40.7166C113.33 37.6878 105.798 40.4682 102.501 46.9317C99.2031 53.3952 101.393 61.0944 107.392 64.1293C107.702 64.2868 108.019 64.4201 108.335 64.5473C107.222 68.1273 106.382 71.7316 105.816 75.3359C105.47 75.3359 105.129 75.3419 104.776 75.3722C97.9377 75.9719 92.5047 82.2294 92.6446 89.3471C92.7906 96.4648 98.4487 101.741 105.293 101.129C105.652 101.099 106.005 101.044 106.352 100.978C107.064 104.503 108.043 107.95 109.284 111.282C108.968 111.463 108.658 111.657 108.353 111.869C102.501 115.952 100.627 124.015 104.174 129.873C107.721 135.73 119.457 138.45 125.309 134.367C125.608 134.155 121.775 132.647 122.054 132.417C124.366 134.961 126.903 137.317 129.647 139.474C129.453 139.789 129.264 140.11 129.094 140.443C125.796 146.907 127.986 154.606 133.985 157.641C139.984 160.669 147.516 157.889 150.813 151.426C150.984 151.092 151.13 150.753 151.276 150.408C154.64 151.341 158.047 151.989 161.479 152.346C161.454 152.704 161.442 153.067 161.448 153.431C161.594 160.548 167.252 165.825 174.097 165.213C180.941 164.607 186.368 158.343 186.228 151.232C186.222 150.862 186.192 150.499 186.155 150.135C189.586 149.16 192.957 147.918 196.236 146.41C196.394 146.725 196.553 147.04 196.741 147.349C200.288 153.207 207.905 154.648 213.758 150.565C219.611 146.483 221.485 138.42 217.938 132.562C217.755 132.265 217.554 131.981 217.354 131.702C219.945 129.121 222.373 126.317 224.618 123.312C224.898 123.494 225.196 123.67 225.506 123.827ZM150.74 124.772C128.966 113.765 121.02 85.8095 132.987 62.3362C144.961 38.863 172.314 28.7528 194.089 39.7595C215.863 50.7662 223.809 78.7221 211.842 102.195C199.874 125.675 172.515 135.785 150.74 124.772Z" fill="url(#paint0_linear)"/>
    <path d="M240.053 89.1716C246.897 88.5658 252.324 82.3022 252.184 75.1906C252.038 68.0729 246.38 62.7967 239.536 63.4085C239.177 63.4388 238.824 63.4994 238.477 63.56C237.765 60.0344 236.786 56.5877 235.545 53.256C235.861 53.0742 236.171 52.8804 236.482 52.6684C242.334 48.5855 249.58 38.7177 245.449 33.2537C237.613 22.8831 229.497 27.3718 223.644 31.4546C223.346 31.6666 223.06 31.8908 222.781 32.1209C220.469 29.5767 217.932 27.2203 215.188 25.0638C215.382 24.7488 215.571 24.4278 215.741 24.0946C217.536 20.5751 217.694 16.6983 216.508 13.3969C210.856 23.3071 205.277 33.2537 199.795 43.2609C217.165 55.9334 222.695 80.915 211.842 102.208C202.643 120.253 184.348 130.382 166.492 129.115C165.695 131.175 164.91 133.241 164.058 135.276C161.74 140.807 159.112 146.222 156.478 151.626C158.132 151.935 159.799 152.183 161.466 152.352C161.442 152.71 161.43 153.073 161.436 153.437C161.582 160.554 165.92 166.6 178.319 165.946C185.182 165.582 186.356 158.356 186.216 151.238C186.21 150.868 186.179 150.505 186.143 150.141C189.574 149.166 192.945 147.924 196.224 146.416C196.382 146.731 196.54 147.046 196.729 147.355C200.276 153.213 212.572 155.702 218.431 151.62C224.283 147.537 221.479 138.426 217.932 132.568C217.749 132.265 217.548 131.987 217.348 131.708C219.939 129.128 222.367 126.323 224.612 123.318C224.904 123.5 225.196 123.676 225.506 123.833C231.505 126.868 239.037 124.082 242.334 117.618C245.632 111.155 243.442 103.455 237.443 100.421C237.133 100.263 236.816 100.13 236.5 100.003C237.613 96.4225 238.453 92.8182 239.019 89.214C239.359 89.2079 239.706 89.2019 240.053 89.1716Z" fill="url(#paint1_linear)"/>
    <path d="M231.955 124.56C237.954 127.589 245.486 124.808 248.783 118.345C252.081 111.881 249.89 104.182 243.892 101.147C243.581 100.99 243.265 100.857 242.949 100.729C244.062 97.1493 244.902 93.5451 245.467 89.9408C245.814 89.9408 246.155 89.9347 246.508 89.9044C253.352 89.2987 258.779 83.0351 258.639 75.9234C258.493 68.8057 252.835 63.5296 245.991 64.1414C245.632 64.1717 245.279 64.2322 244.932 64.2928C244.22 60.7673 243.241 57.3205 242 53.9888C242.316 53.8071 242.626 53.6132 242.93 53.4012C248.783 49.3184 250.657 41.2557 247.11 35.398C243.563 29.5403 235.946 28.0986 230.093 32.1814C229.795 32.3934 229.509 32.6175 229.229 32.8477C226.917 30.3035 224.38 27.9471 221.637 25.7906C221.831 25.4756 222.02 25.1546 222.19 24.8214C225.488 18.3579 223.297 10.6587 217.299 7.62382C211.3 4.58896 203.768 7.37546 200.47 13.8389C200.3 14.1721 200.154 14.5113 200.008 14.8566C196.644 13.9237 193.237 13.2756 189.805 12.9182C189.824 12.5608 189.842 12.1973 189.836 11.8339C189.69 4.71617 184.032 -0.560016 177.187 0.0518036C170.343 0.657565 164.916 6.92114 165.056 14.0328C165.062 14.4023 165.092 14.7658 165.129 15.1292C161.697 16.1045 158.327 17.3463 155.042 18.8546C154.883 18.5396 154.725 18.2247 154.537 17.9157C150.99 12.058 143.372 10.6163 137.52 14.7052C131.667 18.788 129.793 26.8507 133.34 32.7084C133.523 33.0113 133.723 33.2899 133.924 33.5686C131.332 36.1491 128.905 38.9538 126.66 41.9584C126.368 41.7767 126.076 41.601 125.766 41.4435C119.767 38.4086 112.235 41.1951 108.937 47.6586C105.64 54.1221 107.83 61.8213 113.829 64.8562C114.139 65.0137 114.455 65.1469 114.772 65.2742C113.658 68.8542 112.819 72.4585 112.253 76.0628C111.912 76.0628 111.566 76.0688 111.213 76.0991C104.368 76.7049 98.9413 82.9685 99.0813 90.0801C99.2273 97.1978 104.885 102.474 111.73 101.862C112.089 101.832 112.442 101.777 112.788 101.711C113.5 105.236 114.48 108.683 115.721 112.015C115.405 112.196 115.094 112.39 114.79 112.602C108.937 116.685 107.063 124.748 110.61 130.606C114.157 136.463 121.774 137.905 127.627 133.822C127.925 133.61 128.211 133.386 128.491 133.156C130.803 135.7 133.34 138.056 136.084 140.213C135.889 140.528 135.701 140.849 135.53 141.182C132.233 147.646 134.423 155.345 140.422 158.38C146.421 161.409 153.952 158.628 157.25 152.165C157.42 151.831 157.566 151.492 157.712 151.147C161.077 152.08 164.484 152.728 167.915 153.085C167.897 153.443 167.879 153.806 167.885 154.17C168.031 161.287 173.689 166.564 180.533 165.952C187.378 165.346 192.805 159.082 192.665 151.971C192.659 151.601 192.628 151.238 192.592 150.874C196.023 149.899 199.394 148.657 202.673 147.149C202.831 147.464 202.989 147.779 203.178 148.088C206.725 153.946 214.342 155.387 220.195 151.304C226.047 147.222 227.921 139.159 224.374 133.301C224.192 132.998 223.991 132.72 223.79 132.441C226.382 129.86 228.81 127.056 231.055 124.051C231.347 124.227 231.645 124.403 231.955 124.56ZM157.189 125.505C135.415 114.498 127.463 86.5424 139.436 63.0692C151.409 39.5959 178.763 29.4858 200.537 40.4924C222.312 51.4991 230.258 79.455 218.29 102.928C206.323 126.408 178.964 136.512 157.189 125.505Z" fill="url(#paint2_linear)"/>
    <path d="M429.795 304.011C432.469 305.364 435.828 304.121 437.298 301.237C438.769 298.352 437.791 294.924 435.117 293.57C434.979 293.5 434.837 293.442 434.695 293.385C435.193 291.788 435.566 290.182 435.819 288.576C435.97 288.576 436.125 288.571 436.281 288.558C439.333 288.288 441.75 285.497 441.688 282.325C441.626 279.153 439.098 276.8 436.05 277.07C435.89 277.083 435.735 277.109 435.579 277.136C435.259 275.565 434.824 274.03 434.273 272.544C434.415 272.464 434.553 272.376 434.69 272.283C437.298 270.46 438.134 266.868 436.552 264.258C434.97 261.648 431.576 261.007 428.964 262.825C428.831 262.918 428.706 263.02 428.582 263.121C427.551 261.989 426.423 260.936 425.196 259.976C425.281 259.834 425.365 259.693 425.441 259.542C426.911 256.658 428.831 253.513 426.138 252.203C419.905 249.173 417.231 251.765 415.76 254.65C415.685 254.8 415.618 254.951 415.556 255.101C414.054 254.685 412.535 254.398 411.006 254.238C411.015 254.079 411.024 253.915 411.02 253.756C410.958 250.584 411.899 248.868 408.838 248.81C402.161 248.682 399.909 251.566 399.975 254.738C399.98 254.902 399.993 255.066 400.011 255.229C398.483 255.663 396.976 256.22 395.515 256.888C395.444 256.747 395.373 256.605 395.293 256.468C393.711 253.858 390.317 253.216 387.705 255.035C385.097 256.857 384.261 260.449 385.843 263.059C385.923 263.192 386.012 263.32 386.101 263.44C384.946 264.59 383.862 265.842 382.862 267.182C382.733 267.103 382.6 267.023 382.462 266.952C379.788 265.599 376.429 266.842 374.958 269.726C373.488 272.61 374.465 276.039 377.14 277.392C377.278 277.463 377.42 277.521 377.562 277.578C377.064 279.175 376.691 280.781 376.438 282.387C376.287 282.387 376.131 282.391 375.976 282.405C372.924 282.674 370.507 285.466 370.569 288.638C370.631 291.81 373.159 294.163 376.207 293.889C376.367 293.876 376.522 293.849 376.678 293.822C376.998 295.393 377.433 296.928 377.984 298.414C377.842 298.494 377.704 298.582 377.566 298.675C374.958 300.494 374.123 304.09 375.705 306.7C377.286 309.31 382.515 310.527 385.128 308.704C385.261 308.611 383.551 307.939 383.675 307.837C384.706 308.97 385.834 310.022 387.06 310.982C386.976 311.124 386.892 311.266 386.816 311.416C385.345 314.3 386.323 317.729 388.997 319.082C391.672 320.436 395.031 319.193 396.501 316.309C396.577 316.158 396.643 316.008 396.705 315.857C398.207 316.273 399.726 316.561 401.255 316.72C401.246 316.879 401.237 317.043 401.241 317.202C401.304 320.374 403.832 322.728 406.879 322.458C409.931 322.188 412.348 319.396 412.286 316.225C412.282 316.061 412.268 315.897 412.25 315.738C413.779 315.304 415.285 314.747 416.746 314.079C416.818 314.221 416.889 314.362 416.969 314.499C418.55 317.109 421.944 317.751 424.557 315.933C427.165 314.11 428 310.518 426.418 307.908C426.338 307.775 426.249 307.647 426.161 307.527C427.316 306.377 428.4 305.125 429.399 303.785C429.528 303.86 429.657 303.94 429.795 304.011ZM396.47 304.431C386.763 299.525 383.222 287.063 388.558 276.596C393.893 266.129 406.088 261.626 415.796 266.532C425.503 271.438 429.044 283.9 423.708 294.367C418.372 304.833 406.177 309.337 396.47 304.431Z" fill="url(#paint3_linear)"/>
    <path d="M436.281 288.558C439.333 288.288 441.75 285.497 441.688 282.325C441.626 279.153 439.098 276.8 436.05 277.07C435.89 277.083 435.735 277.109 435.579 277.136C435.259 275.566 434.824 274.031 434.273 272.544C434.415 272.464 434.553 272.376 434.691 272.283C437.298 270.465 440.528 266.063 438.689 263.626C435.193 259.003 431.581 261.002 428.968 262.825C428.835 262.918 428.711 263.02 428.586 263.121C427.556 261.989 426.427 260.936 425.201 259.976C425.285 259.835 425.37 259.693 425.445 259.543C426.245 257.972 426.316 256.242 425.787 254.774C423.268 259.193 420.78 263.626 418.337 268.085C426.081 273.734 428.546 284.869 423.704 294.362C419.603 302.405 411.451 306.921 403.49 306.36C403.134 307.275 402.788 308.2 402.406 309.107C401.375 311.571 400.202 313.986 399.029 316.397C399.767 316.534 400.508 316.645 401.25 316.725C401.242 316.884 401.233 317.048 401.237 317.207C401.299 320.379 403.236 323.073 408.763 322.781C411.82 322.617 412.348 319.397 412.282 316.225C412.277 316.061 412.264 315.897 412.246 315.738C413.774 315.305 415.28 314.747 416.742 314.079C416.813 314.221 416.884 314.362 416.964 314.499C418.546 317.109 424.028 318.22 426.636 316.402C429.244 314.579 427.995 310.518 426.414 307.908C426.334 307.775 426.245 307.647 426.156 307.528C427.311 306.377 428.395 305.125 429.395 303.785C429.524 303.865 429.657 303.944 429.795 304.015C432.469 305.369 435.828 304.126 437.298 301.241C438.769 298.357 437.792 294.929 435.117 293.575C434.979 293.504 434.837 293.447 434.695 293.389C435.193 291.792 435.566 290.186 435.819 288.58C435.975 288.576 436.126 288.572 436.281 288.558Z" fill="url(#paint4_linear)"/>
    <path d="M432.674 304.333C435.348 305.687 438.707 304.444 440.177 301.56C441.648 298.675 440.671 295.247 437.996 293.893C437.858 293.823 437.716 293.765 437.574 293.707C438.072 292.11 438.445 290.505 438.698 288.899C438.849 288.899 439.005 288.894 439.16 288.881C442.212 288.611 444.629 285.82 444.567 282.648C444.505 279.476 441.977 277.123 438.929 277.392C438.769 277.406 438.614 277.432 438.458 277.459C438.138 275.888 437.703 274.353 437.152 272.867C437.294 272.787 437.432 272.699 437.57 272.606C440.177 270.783 441.013 267.191 439.431 264.581C437.849 261.971 434.455 261.33 431.843 263.148C431.71 263.241 431.585 263.342 431.461 263.444C430.43 262.312 429.302 261.259 428.076 260.299C428.16 260.157 428.244 260.016 428.32 259.865C429.79 256.981 428.813 253.553 426.138 252.199C423.464 250.845 420.105 252.088 418.635 254.973C418.559 255.123 418.493 255.273 418.43 255.424C416.929 255.008 415.409 254.72 413.881 254.561C413.89 254.402 413.899 254.238 413.894 254.079C413.832 250.907 411.304 248.554 408.257 248.824C405.205 249.093 402.788 251.885 402.85 255.057C402.854 255.22 402.868 255.384 402.885 255.548C401.357 255.981 399.851 256.539 398.389 257.207C398.318 257.065 398.247 256.924 398.167 256.786C396.586 254.176 393.191 253.535 390.579 255.353C387.971 257.176 387.136 260.768 388.718 263.378C388.798 263.511 388.886 263.639 388.975 263.758C387.82 264.909 386.736 266.16 385.737 267.501C385.608 267.421 385.474 267.342 385.337 267.271C382.662 265.917 379.304 267.16 377.833 270.045C376.363 272.929 377.34 276.357 380.014 277.711C380.152 277.782 380.294 277.839 380.436 277.897C379.939 279.494 379.566 281.1 379.312 282.705C379.157 282.705 379.006 282.71 378.85 282.723C375.798 282.993 373.381 285.784 373.444 288.956C373.506 292.128 376.034 294.482 379.081 294.212C379.241 294.199 379.397 294.172 379.552 294.145C379.872 295.716 380.308 297.251 380.859 298.737C380.716 298.817 380.579 298.905 380.441 298.998C377.833 300.817 376.998 304.413 378.579 307.023C380.161 309.633 383.555 310.275 386.168 308.456C386.301 308.364 386.425 308.262 386.55 308.16C387.58 309.293 388.709 310.345 389.935 311.305C389.851 311.447 389.766 311.589 389.691 311.739C388.22 314.623 389.197 318.052 391.872 319.405C394.546 320.759 397.905 319.516 399.376 316.632C399.451 316.481 399.518 316.331 399.58 316.18C401.082 316.596 402.601 316.884 404.129 317.043C404.121 317.202 404.112 317.366 404.116 317.525C404.178 320.697 406.706 323.051 409.754 322.781C412.806 322.511 415.223 319.719 415.161 316.548C415.156 316.384 415.143 316.22 415.125 316.057C416.653 315.623 418.159 315.066 419.621 314.398C419.692 314.539 419.763 314.681 419.843 314.818C421.425 317.428 424.819 318.069 427.431 316.251C430.039 314.429 430.874 310.836 429.293 308.226C429.213 308.094 429.124 307.97 429.035 307.846C430.19 306.696 431.274 305.444 432.274 304.103C432.403 304.187 432.532 304.267 432.674 304.333ZM399.345 304.758C389.637 299.852 386.096 287.39 391.432 276.924C396.768 266.457 408.963 261.953 418.67 266.859C428.378 271.765 431.918 284.227 426.583 294.694C421.247 305.156 409.052 309.664 399.345 304.758Z" fill="url(#paint5_linear)"/>
    <path d="M512.644 103.615L471.62 169.188L346.477 167.808L290.976 272.721L147.682 277.622L73.3301 389.554C72.0056 391.548 69.811 392.83 67.3892 393.03L57.6789 393.831C53.2704 394.508 43.8605 393.199 45.2966 389.072L95.6576 277.757L137.074 259.653L276.383 254.45L329.097 151.309L457.109 149.929L500.016 86.2552L512.644 103.615Z" fill="url(#paint6_linear)"/>
    <path d="M436.337 108.024L413.332 97.6908L438.967 92.59L436.337 108.024Z" fill="url(#paint7_linear)"/>
    <path d="M523.964 86.2552L536 103.615H509.294L500.27 92.5899L523.964 86.2552Z" fill="url(#paint8_linear)"/>
    <path d="M536 25.4603L527.664 18L522.836 83.4039L527.664 91.8112L536 103.615V25.4603Z" fill="url(#paint9_linear)"/>
    <path d="M225.314 246.885L283.094 262.312L338.599 157.399L280.819 141.977L225.314 246.885Z" fill="url(#paint10_linear)"/>
    <path d="M3.82195 381.654L47.0754 393.203C51.6494 394.425 56.5045 392.616 59.088 388.73L139.8 267.21L82.02 251.787L0.838025 374.007C-1.07169 376.885 0.433751 380.748 3.82195 381.654Z" fill="url(#paint11_linear)"/>
    <path d="M82.0239 251.787L139.8 267.21L283.094 262.312L225.314 246.885L82.0239 251.787Z" fill="url(#paint12_linear)"/>
    <path d="M280.818 141.977L338.599 157.399L463.742 158.78L405.962 143.353L280.818 141.977Z" fill="url(#paint13_linear)"/>
    <path d="M413.332 97.6907L435.236 96.566L405.963 143.353L463.743 158.78L504.906 92.9811L527.664 91.8112V18L413.332 97.6907Z" fill="url(#paint14_linear)"/>
    <defs>
        <linearGradient id="paint0_linear" x1="266.278" y1="135.524" x2="172.654" y2="80.4118" gradientUnits="userSpaceOnUse">
            <stop stop-color="#FF9085"/>
            <stop offset="1" stop-color="#FB6FBB"/>
        </linearGradient>
        <linearGradient id="paint1_linear" x1="152.589" y1="71.1043" x2="173.41" y2="80.5145" gradientUnits="userSpaceOnUse">
            <stop stop-color="#FF9085"/>
            <stop offset="1" stop-color="#FB6FBB"/>
        </linearGradient>
        <linearGradient id="paint2_linear" x1="241.688" y1="162.227" x2="13.5453" y2="-128.011" gradientUnits="userSpaceOnUse">
            <stop stop-color="#FF9085"/>
            <stop offset="1" stop-color="#FB6FBB"/>
        </linearGradient>
        <linearGradient id="paint3_linear" x1="447.972" y1="309.223" x2="406.236" y2="284.657" gradientUnits="userSpaceOnUse">
            <stop offset="0.00359712" stop-color="#E38DDD"/>
            <stop offset="1" stop-color="#9571F6"/>
        </linearGradient>
        <linearGradient id="paint4_linear" x1="397.293" y1="280.505" x2="406.575" y2="284.699" gradientUnits="userSpaceOnUse">
            <stop offset="0.00359712" stop-color="#E38DDD"/>
            <stop offset="1" stop-color="#9571F6"/>
        </linearGradient>
        <linearGradient id="paint5_linear" x1="437.011" y1="321.127" x2="335.303" y2="191.747" gradientUnits="userSpaceOnUse">
            <stop offset="0.00359712" stop-color="#E38DDD"/>
            <stop offset="1" stop-color="#9571F6"/>
        </linearGradient>
        <linearGradient id="paint6_linear" x1="340.129" y1="131.369" x2="173.668" y2="418.885" gradientUnits="userSpaceOnUse">
            <stop stop-color="#E05529"/>
            <stop offset="1" stop-color="#E05529"/>
        </linearGradient>
        <linearGradient id="paint7_linear" x1="406.99" y1="132.494" x2="412.177" y2="123.469" gradientUnits="userSpaceOnUse">
            <stop stop-color="#F89721"/>
            <stop offset="1" stop-color="#E05529"/>
        </linearGradient>
        <linearGradient id="paint8_linear" x1="525.61" y1="34.803" x2="519.455" y2="89.4012" gradientUnits="userSpaceOnUse">
            <stop stop-color="#F89721"/>
            <stop offset="1" stop-color="#E05529"/>
        </linearGradient>
        <linearGradient id="paint9_linear" x1="528.569" y1="84.1846" x2="540.882" y2="-8.23347" gradientUnits="userSpaceOnUse">
            <stop stop-color="#F89721"/>
            <stop offset="1" stop-color="#E05529"/>
        </linearGradient>
        <linearGradient id="paint10_linear" x1="314.125" y1="144.389" x2="253.521" y2="258.378" gradientUnits="userSpaceOnUse">
            <stop stop-color="#F89721"/>
            <stop offset="1" stop-color="#FFC838"/>
        </linearGradient>
        <linearGradient id="paint11_linear" x1="119.328" y1="246.673" x2="6.01094" y2="425.778" gradientUnits="userSpaceOnUse">
            <stop stop-color="#F89721"/>
            <stop offset="1" stop-color="#FFC838"/>
        </linearGradient>
        <linearGradient id="paint12_linear" x1="266.866" y1="242.466" x2="21.5338" y2="286.924" gradientUnits="userSpaceOnUse">
            <stop stop-color="#F89721"/>
            <stop offset="1" stop-color="#FFC838"/>
        </linearGradient>
        <linearGradient id="paint13_linear" x1="374.805" y1="126.25" x2="370.19" y2="172.442" gradientUnits="userSpaceOnUse">
            <stop stop-color="#F89721"/>
            <stop offset="1" stop-color="#FFC838"/>
        </linearGradient>
        <linearGradient id="paint14_linear" x1="438.416" y1="134.599" x2="536.489" y2="6.98535" gradientUnits="userSpaceOnUse">
            <stop stop-color="#F89721"/>
            <stop offset="1" stop-color="#FFC838"/>
        </linearGradient>
    </defs>
</svg>
