<svg width="64" height="64" viewBox="0 0 64 64" fill="none" xmlns="http://www.w3.org/2000/svg">
<path d="M62.2933 36.4073C63.0933 35.1291 64 33.691 64 32.0133C64 30.3356 63.0933 28.8976 62.2933 27.6193C61.76 26.7672 61.2533 25.9682 61.0933 25.2226C60.9333 24.4503 61.04 23.465 61.1467 22.4264C61.3333 20.8819 61.52 19.284 60.8267 17.8194C60.1333 16.3281 58.6933 15.4493 57.44 14.6504C56.5867 14.1178 55.76 13.6118 55.3067 12.9993C54.8267 12.3868 54.5333 11.4547 54.1867 10.4961C53.7067 9.08465 53.1733 7.48683 51.92 6.44825C50.6667 5.4363 49.0133 5.24989 47.5733 5.09011C46.56 4.98359 45.6 4.87707 44.9067 4.53087C44.24 4.21131 43.5733 3.51892 42.88 2.77328C41.84 1.70806 40.6667 0.483072 39.0933 0.110248C37.5733 -0.235945 36.08 0.29666 34.6667 0.829266C33.7067 1.22872 32.8 1.57491 32 1.57491C31.2 1.57491 30.2933 1.22872 29.3067 0.882526C27.8667 0.349921 26.4 -0.182685 24.88 0.163509C23.28 0.536333 22.1333 1.76133 21.0933 2.82654C20.4 3.57218 19.7333 4.23794 19.0667 4.58413C18.3733 4.93033 17.4133 5.03685 16.4 5.14337C14.9333 5.30315 13.3067 5.46293 12.0533 6.47488C10.8 7.51346 10.2667 9.11128 9.78667 10.5227C9.46667 11.508 9.14667 12.4134 8.66667 13.0259C8.21333 13.6384 7.38667 14.1444 6.53333 14.677C5.28 15.4493 3.86667 16.3547 3.14667 17.846C2.48 19.3107 2.66667 20.9085 2.85333 22.453C2.96 23.4916 3.09333 24.4503 2.90667 25.2492C2.74667 25.9682 2.24 26.7938 1.70667 27.6459C0.906667 28.8976 0 30.3356 0 32.0133C0 33.691 0.906667 35.1291 1.70667 36.4073C2.24 37.2595 2.74667 38.0584 2.90667 38.804C3.06667 39.5763 2.96 40.5616 2.85333 41.6002C2.66667 43.1181 2.48 44.716 3.17333 46.1806C3.86667 47.6719 5.30667 48.5507 6.56 49.3496C7.41333 49.8822 8.24 50.3882 8.69333 51.0007C9.17333 51.6132 9.46667 52.5453 9.81333 53.5039C10.2933 54.9154 10.8267 56.5132 12.08 57.5518C13.3333 58.5637 14.9867 58.7501 16.4267 58.9099C17.44 59.0164 18.4 59.1229 19.0933 59.4691C19.76 59.7887 20.4267 60.4811 21.12 61.2267C22.16 62.2919 23.3333 63.5169 24.9067 63.8898C26.4267 64.2359 27.92 63.7033 29.3333 63.1707C30.2933 62.8245 31.2267 62.4784 32.0267 62.4784C32.8267 62.4784 33.7333 62.8245 34.72 63.1707C35.84 63.5702 36.96 63.9963 38.1333 63.9963C38.48 63.9963 38.8 63.9696 39.1467 63.8898C40.7467 63.5169 41.8933 62.2919 42.9333 61.2267C43.6267 60.5077 44.2933 59.8153 44.96 59.4691C45.6533 59.1229 46.6133 59.0164 47.6267 58.9099C49.0667 58.7501 50.72 58.5903 51.9733 57.5518C53.2267 56.5398 53.76 54.9154 54.24 53.5039C54.56 52.5186 54.88 51.6132 55.36 51.0007C55.84 50.3882 56.64 49.8822 57.4933 49.3496C58.7467 48.5773 60.16 47.6719 60.88 46.1806C61.5733 44.716 61.3867 43.1181 61.2 41.5736C61.0667 40.535 60.96 39.5497 61.1467 38.7774C61.2533 38.0584 61.76 37.2595 62.2933 36.4073ZM60.1867 35.0225C59.5467 36.0345 58.9067 37.0464 58.64 38.2182C58.3733 39.4165 58.5067 40.6682 58.6667 41.8931C58.8 43.1181 58.96 44.2899 58.5867 45.0888C58.2133 45.8877 57.2 46.5268 56.16 47.1926C55.1467 47.8317 54.1067 48.4708 53.3867 49.4295C52.64 50.3882 52.24 51.5599 51.8667 52.705C51.4667 53.9034 51.0933 55.0219 50.4267 55.5811C49.76 56.1403 48.5867 56.2469 47.3867 56.38C46.2133 56.5132 44.9867 56.6463 43.8933 57.1789C42.8267 57.7115 41.9733 58.5903 41.1733 59.4425C40.2933 60.3479 39.4933 61.2001 38.6133 61.4131C37.7867 61.5996 36.72 61.2001 35.5733 60.8006C34.4533 60.3746 33.28 59.9485 32.0533 59.9485C30.8267 59.9485 29.6533 60.3746 28.5333 60.8006C27.3867 61.2267 26.32 61.6262 25.4933 61.4131C24.6133 61.2001 23.8133 60.3479 22.9333 59.4425C22.1067 58.5903 21.28 57.7115 20.2133 57.1789C19.12 56.6463 17.92 56.5132 16.72 56.38C15.4933 56.2469 14.3467 56.1137 13.68 55.5811C12.9867 55.0219 12.6133 53.9034 12.24 52.705C11.8667 51.5599 11.4667 50.3882 10.72 49.4295C9.97333 48.4708 8.93333 47.8317 7.94667 47.1926C6.90667 46.5268 5.89333 45.9143 5.52 45.0888C5.14667 44.3165 5.28 43.1448 5.44 41.8931C5.57333 40.6948 5.73333 39.4432 5.46667 38.2182C5.2 37.0464 4.56 36.0079 3.92 35.0225C3.25333 33.9573 2.61333 32.9454 2.61333 32.0133C2.61333 31.0813 3.25333 30.0693 3.92 29.0041C4.56 27.9921 5.2 26.9802 5.46667 25.8085C5.62667 24.5835 5.46667 23.3585 5.33333 22.1335C5.2 20.9085 5.04 19.7368 5.41333 18.9379C5.78667 18.1389 6.8 17.4998 7.84 16.8341C8.85333 16.1949 9.89333 15.5558 10.6133 14.5971C11.36 13.6384 11.76 12.4667 12.1333 11.3216C12.56 10.1499 12.9333 9.03139 13.6 8.47215C14.2667 7.91292 15.44 7.8064 16.64 7.67325C17.8133 7.54009 19.04 7.40694 20.1333 6.87434C21.2 6.34173 22.0533 5.46293 22.8533 4.61076C23.7333 3.73197 24.56 2.85317 25.44 2.66675C26.2667 2.48034 27.3333 2.8798 28.48 3.27925C29.6 3.70534 30.7733 4.13142 32 4.13142C33.2267 4.13142 34.4 3.70534 35.52 3.27925C36.6667 2.85317 37.7333 2.45371 38.56 2.66675C39.44 2.8798 40.24 3.73197 41.12 4.63739C41.9467 5.48956 42.7733 6.36836 43.84 6.90097C44.9333 7.43357 46.1333 7.56672 47.3333 7.69988C48.56 7.83303 49.7067 7.96618 50.3733 8.49878C51.0667 9.05802 51.44 10.1765 51.8133 11.3749C52.1867 12.52 52.5867 13.6917 53.3333 14.6504C54.08 15.6091 55.12 16.2482 56.1067 16.8873C57.1467 17.5531 58.16 18.1656 58.5333 18.9911C58.9067 19.7634 58.7733 20.9351 58.6133 22.1867C58.48 23.3851 58.32 24.6367 58.5867 25.8617C58.8533 27.0335 59.4933 28.072 60.1333 29.0574C60.8 30.1226 61.44 31.1345 61.44 32.0666C61.4933 32.9454 60.8533 33.9573 60.1867 35.0225Z" fill="url(#paint0_linear)"/>
<path d="M16.1333 29.1639L22.4266 34.9693L20.7466 43.3578C20.56 44.3698 20.9333 45.3285 21.76 45.941C22.2133 46.2605 22.7466 46.4203 23.2533 46.4203C23.68 46.4203 24.1066 46.3138 24.5066 46.1008L32 41.9198L39.4933 46.1008C40.3733 46.5801 41.44 46.5268 42.24 45.941C43.0666 45.3551 43.44 44.3698 43.2533 43.3845L41.5733 34.9959L47.8666 29.1905C48.6133 28.4981 48.88 27.4862 48.56 26.5275C48.24 25.5688 47.44 24.9031 46.4266 24.7699L37.92 23.758L34.32 15.9819C33.8933 15.0499 33.0133 14.464 32 14.464C30.9866 14.464 30.1066 15.0232 29.68 15.9553L26.08 23.7313L17.5733 24.7433C16.56 24.8498 15.76 25.5422 15.44 26.5009C15.12 27.4596 15.3866 28.4715 16.1333 29.1639ZM27.2 26.4476C27.68 26.3944 28.1066 26.0748 28.32 25.6487L32 17.6863L35.68 25.6487C35.8933 26.1014 36.32 26.3944 36.8 26.4476L45.52 27.4862L39.0666 33.4247C38.6933 33.7709 38.5333 34.2503 38.64 34.7296L40.3466 43.3312L32.6933 39.0437C32.48 38.9106 32.24 38.8573 32 38.8573C31.76 38.8573 31.52 38.9106 31.3066 39.0437L23.6533 43.3312L25.36 34.7296C25.4666 34.2503 25.3066 33.7443 24.9333 33.4247L18.48 27.4862L27.2 26.4476Z" fill="#AD86FF"/>
<defs>
<linearGradient id="paint0_linear" x1="14.6667" y1="-1.19167e-07" x2="50.6667" y2="64" gradientUnits="userSpaceOnUse">
<stop stop-color="#FFC838"/>
<stop offset="1" stop-color="#E05529"/>
</linearGradient>
</defs>
</svg>
