<svg width="38" height="48" viewBox="0 0 38 48" fill="none" xmlns="http://www.w3.org/2000/svg">
<path fill-rule="evenodd" clip-rule="evenodd" d="M37.3935 19.7199C38.3388 18.2663 38.1657 16.3727 36.9675 15.1058C36.4349 14.5457 36.2219 13.7723 36.3816 13.0255C36.7411 11.3185 35.889 9.61158 34.318 8.87813C33.6256 8.55807 33.133 7.90463 33.0131 7.14451C32.7336 5.42423 31.3356 4.14401 29.5914 4.02399C28.8325 3.97065 28.1402 3.54392 27.7541 2.87714C26.8753 1.37023 25.1045 0.690113 23.4403 1.2102C22.708 1.4369 21.9092 1.29021 21.31 0.810133C19.952 -0.270044 18.0481 -0.270044 16.69 0.810133C16.0909 1.29021 15.292 1.4369 14.5597 1.2102C12.8955 0.690113 11.1247 1.38356 10.246 2.87714C9.85985 3.54392 9.16751 3.97065 8.4086 4.02399C6.67776 4.14401 5.26645 5.42423 4.98685 7.14451C4.86702 7.90463 4.37438 8.54474 3.68205 8.87813C2.11098 9.61158 1.25889 11.3185 1.61837 13.0255C1.77814 13.7723 1.5518 14.5591 1.03254 15.1058C-0.165732 16.3594 -0.338826 18.2663 0.60648 19.7199C1.01922 20.36 1.0991 21.1735 0.806184 21.8803C0.140476 23.4939 0.659745 25.3208 2.07105 26.3343C2.69681 26.7877 3.0563 27.5079 3.02967 28.268C2.98973 30.0016 4.13474 31.5218 5.81232 31.9619C6.30495 32.0953 6.7443 32.3753 7.05053 32.7754L3.1761 42.1236C2.63022 43.4305 3.85517 44.7907 5.21321 44.364L9.4471 43.0571C9.56693 43.0171 9.70006 43.0704 9.76663 43.1904L11.8436 47.1111C12.5093 48.3646 14.3334 48.2713 14.866 46.9644L18.9002 37.2161H19.0599L23.0941 46.9644C23.64 48.2713 25.4507 48.3646 26.1164 47.1111L28.1934 43.1904C28.26 43.0704 28.3932 43.0171 28.513 43.0571L32.7469 44.364C34.1049 44.7774 35.3298 43.4305 34.784 42.1236L30.9095 32.7754C31.2158 32.3887 31.6551 32.0953 32.1477 31.9619C33.8253 31.5218 34.9703 30.0016 34.9304 28.268C34.9171 27.5079 35.2766 26.7744 35.889 26.3343C37.3003 25.3208 37.8196 23.4939 37.1539 21.8803C36.9009 21.1735 36.9675 20.36 37.3935 19.7199ZM13.5878 46.4443C13.4946 46.6577 13.2017 46.671 13.0952 46.471L11.0182 42.5503C10.6454 41.8435 9.81988 41.4968 9.04766 41.7369L4.81376 43.0437C4.58742 43.1104 4.40102 42.8971 4.48091 42.6837L7.91598 34.389C8.6882 35.4558 9.97966 36.0426 11.351 35.8826C12.1099 35.7892 12.8688 36.0826 13.3615 36.6694C14.0938 37.5095 15.1189 37.9496 16.1707 37.9496C16.5036 37.9496 16.8364 37.9096 17.156 37.8162L13.5878 46.4443ZM33.1862 43.0304L28.9523 41.7235C28.1801 41.4835 27.3546 41.8302 26.9818 42.537L24.9048 46.4576C24.7983 46.6577 24.5054 46.6443 24.4122 46.431L20.8307 37.7895C22.1887 38.1629 23.6666 37.7495 24.6252 36.6427C25.1312 36.0693 25.8768 35.7759 26.6357 35.8559C27.9937 36.0159 29.2985 35.4292 30.0707 34.3623L33.5058 42.657C33.599 42.8837 33.3993 43.0971 33.1862 43.0304ZM36.2086 18.9464C35.5429 19.9733 35.423 21.2668 35.889 22.4137C36.3018 23.4138 35.9822 24.5607 35.1035 25.1875C34.1049 25.9076 33.5191 27.0678 33.559 28.308C33.5857 29.3882 32.8667 30.335 31.8282 30.615C30.843 30.8684 30.0308 31.5085 29.5382 32.3753V32.3887C29.4317 32.5754 29.3384 32.7621 29.2719 32.9754C28.8991 33.9889 27.9005 34.6157 26.8221 34.4957C25.5972 34.349 24.3856 34.8291 23.5867 35.7492C22.8811 36.5627 21.7094 36.7894 20.7508 36.2826C20.4313 36.1093 20.0851 35.9893 19.7256 35.9226H19.7123C19.2463 35.8292 18.767 35.8292 18.301 35.9226C17.9548 35.9893 17.6087 36.1093 17.2758 36.2826C16.3172 36.7894 15.1589 36.576 14.4399 35.7492C13.7343 34.9357 12.7091 34.469 11.6306 34.469C11.4842 34.469 11.3378 34.4823 11.1914 34.4957H11.1913H11.1913C10.1128 34.6157 9.11425 34.0023 8.74146 32.9754C8.67488 32.7754 8.58167 32.5754 8.47516 32.3887V32.3753C7.98253 31.5085 7.15705 30.8684 6.18512 30.615C5.1333 30.3483 4.42766 29.4015 4.45429 28.308C4.48092 27.0811 3.90841 25.9076 2.90984 25.1875C2.03111 24.5607 1.71157 23.4138 2.12431 22.4137C2.59031 21.2802 2.47045 19.9866 1.80475 18.9464C1.21892 18.0396 1.32545 16.8528 2.07105 16.0793C2.92315 15.1858 3.28262 13.9323 3.01634 12.7321C2.79 11.6786 3.3226 10.6117 4.29453 10.145C5.41292 9.62492 6.18511 8.58475 6.38482 7.37121C6.55791 6.30437 7.43665 5.50424 8.5151 5.42423C9.74 5.34421 10.8451 4.65076 11.4708 3.59726C12.0167 2.66377 13.1218 2.23703 14.1603 2.55709C15.3319 2.91715 16.6101 2.67711 17.5688 1.91698C18.4209 1.25021 19.6058 1.25021 20.4446 1.91698C21.4032 2.67711 22.6814 2.91715 23.853 2.55709C24.8915 2.23703 25.9833 2.66377 26.5425 3.59726C27.1683 4.6641 28.2733 5.34421 29.4982 5.42423C30.5767 5.50424 31.4554 6.29103 31.6285 7.37121C31.8282 8.58475 32.6137 9.62492 33.7188 10.145C34.704 10.5984 35.2233 11.6653 34.997 12.7321C34.744 13.9323 35.1035 15.1858 35.9423 16.0793C36.7012 16.8661 36.8077 18.0396 36.2086 18.9464ZM5.70598 18.0262C6.09209 18.0796 6.43826 17.7995 6.49151 17.4128C7.26373 11.1051 12.6426 6.34432 19.0068 6.34432C25.371 6.34432 30.7499 11.1051 31.5221 17.4261C31.5621 17.7862 31.8683 18.0396 32.2145 18.0396H32.2944C32.6805 17.9862 32.9468 17.6395 32.9068 17.2528C32.0414 10.2383 26.0633 4.94409 18.9935 4.94409C11.9237 4.94409 5.94563 10.2383 5.08021 17.2528C5.04027 17.6262 5.31987 17.9729 5.70598 18.0262ZM31.5088 20.5201C31.562 20.1334 31.9082 19.8533 32.2943 19.9067C32.6804 19.96 32.96 20.3067 32.9067 20.7068C32.0413 27.7213 26.0632 33.0155 18.9934 33.0155C11.9236 33.0155 5.94555 27.7213 5.08013 20.7068C5.04019 20.3201 5.30646 19.9733 5.69257 19.92C6.07868 19.88 6.42485 20.1467 6.4781 20.5334C7.25033 26.8411 12.6292 31.6019 18.9934 31.6019C25.3576 31.6019 30.7365 26.8411 31.5088 20.5201Z" fill="url(#paint0_linear)"/>
<defs>
<linearGradient id="paint0_linear" x1="8.70833" y1="-8.93751e-08" x2="38.5428" y2="41.9893" gradientUnits="userSpaceOnUse">
<stop stop-color="#FFC838"/>
<stop offset="1" stop-color="#E05529"/>
</linearGradient>
</defs>
</svg>
