<svg width="48" height="48" viewBox="0 0 48 48" fill="none" xmlns="http://www.w3.org/2000/svg">
<path fill-rule="evenodd" clip-rule="evenodd" d="M37.5 3.75H41.8125C45.2243 3.75 48 6.52566 48 9.9375V41.8125C48 45.2243 45.2243 48 41.8125 48H6.1875C2.77566 48 0 45.2243 0 41.8125V9.9375C0 6.52566 2.77566 3.75 6.1875 3.75H10.5V1.5C10.5 0.671625 11.1715 0 12 0C12.8285 0 13.5 0.671625 13.5 1.5V3.75H34.5V1.5C34.5 0.671625 35.1715 0 36 0C36.8285 0 37.5 0.671625 37.5 1.5V3.75ZM10.5 6.75H6.1875C4.42987 6.75 3 8.17988 3 9.9375V13.5H45V9.9375C45 8.17988 43.5701 6.75 41.8125 6.75H37.5V8.25C37.5 9.07837 36.8285 9.75 36 9.75C35.1715 9.75 34.5 9.07837 34.5 8.25V6.75H13.5V8.25C13.5 9.07837 12.8285 9.75 12 9.75C11.1715 9.75 10.5 9.07837 10.5 8.25V6.75ZM6.1875 45H41.8125C43.5701 45 45 43.5701 45 41.8125V16.5H3V41.8125C3 43.5701 4.42987 45 6.1875 45ZM22.9019 40H19.1691L26.2589 25.2344V25.1113H18V22H30V25.1553L22.9019 40Z" fill="url(#paint0_linear)"/>
<defs>
<linearGradient id="paint0_linear" x1="11" y1="-8.93751e-08" x2="38" y2="48" gradientUnits="userSpaceOnUse">
<stop stop-color="#FFC838"/>
<stop offset="1" stop-color="#E05529"/>
</linearGradient>
</defs>
</svg>
