<svg width="64" height="64" viewBox="0 0 64 64" fill="none" xmlns="http://www.w3.org/2000/svg">
<path d="M10.6667 45.3333H6.66667C4.18667 45.3333 2.66667 46.8267 2.66667 49.3333V53.3333H1.57333C0.693333 53.3333 0 53.8133 0 54.6667C0 55.52 0.693333 56 1.57333 56H62.4267C63.3067 56 64 55.5467 64 54.6667C64 53.7867 63.3067 53.3333 62.4267 53.3333H61.3333V49.3333C61.3333 46.8267 59.8133 45.3333 57.3333 45.3333H53.3333L31.8933 8L10.6667 45.3333ZM45.6267 48H52.56H57.3333C58.08 48 58.6667 48.08 58.6667 49.3333V53.3333H5.33333V49.3333C5.33333 48.56 5.92 48 6.66667 48H38.8C39.6533 48 40.4 47.5467 40.4267 46.6667C40.4533 45.76 39.7333 45.3333 38.8533 45.3333H13.8667L31.8933 13.3333L50.1333 45.3333H45.5733C44.6933 45.3333 43.9733 45.7867 44 46.6667C44.0267 47.5467 44.7733 48 45.6267 48Z" fill="url(#paint0_linear)"/>
<path d="M32 29.5734C29.7931 29.5734 28 31.3665 28 33.5734C28 35.7803 29.7931 37.5734 32 37.5734C34.2069 37.5734 36 35.7803 36 33.5734C36 31.3665 34.2069 29.5734 32 29.5734ZM32 35.6699C30.869 35.6699 29.931 34.732 29.931 33.601C29.931 32.4699 30.869 31.532 32 31.532C33.131 31.532 34.069 32.4699 34.069 33.601C34.069 34.732 33.131 35.6699 32 35.6699Z" fill="#AD86FF"/>
<defs>
<linearGradient id="paint0_linear" x1="14.6667" y1="8" x2="37.2963" y2="61.6406" gradientUnits="userSpaceOnUse">
<stop stop-color="#FFC838"/>
<stop offset="1" stop-color="#E05529"/>
</linearGradient>
</defs>
</svg>
