<svg width="40" height="40" viewBox="0 0 40 40" fill="none" xmlns="http://www.w3.org/2000/svg">
<g style="mix-blend-mode:luminosity">
<path fill-rule="evenodd" clip-rule="evenodd" d="M14.7071 13.2929C14.3166 12.9024 13.6834 12.9024 13.2929 13.2929C12.9024 13.6834 12.9024 14.3166 13.2929 14.7071L18.9498 20.364L13.2929 26.0208C12.9024 26.4113 12.9024 27.0445 13.2929 27.435C13.6834 27.8256 14.3166 27.8256 14.7071 27.435L20.364 21.7782L26.0208 27.435C26.4113 27.8256 27.0445 27.8256 27.435 27.435C27.8256 27.0445 27.8256 26.4113 27.435 26.0208L21.7782 20.364L27.4351 14.7071C27.8256 14.3166 27.8256 13.6834 27.4351 13.2929C27.0445 12.9024 26.4114 12.9024 26.0208 13.2929L20.364 18.9498L14.7071 13.2929Z" fill="#8F969E"/>
</g>
</svg>
