<svg width="120" height="120" viewBox="0 0 120 120" fill="none" xmlns="http://www.w3.org/2000/svg">
<circle opacity="0.06" cx="60" cy="60" r="60" fill="url(#paint0_linear)"/>
<path d="M68.624 67.9901H60H51.392H37.312C33.568 67.9901 30.528 64.9509 30.528 61.2078C30.528 57.4647 33.568 54.4255 37.312 54.4255C37.408 54.4255 37.504 54.4255 37.584 54.4255C37.984 54.4415 38.368 54.2655 38.624 53.9456C38.864 53.6257 38.944 53.2098 38.832 52.8259C38.512 51.7382 38.352 50.6025 38.352 49.4507C38.352 42.8284 43.728 37.4537 50.352 37.4537H50.368C50.912 37.4697 51.392 37.1178 51.568 36.606C52.816 32.9589 56.24 30.5115 60.096 30.5115C64.864 30.5115 68.816 34.2385 69.088 38.9734C69.12 39.5172 69.488 39.9651 70.016 40.1091C72.832 40.8609 75.024 43.1963 75.6 46.0436C75.728 46.7154 76.384 47.1473 77.04 47.0193C77.648 46.9074 78.288 46.8594 78.928 46.8594C84.752 46.8594 89.504 51.5942 89.504 57.4327C89.504 63.2553 84.768 68.0061 78.928 68.0061L68.624 67.9901Z" fill="url(#paint1_linear)"/>
<path d="M38 81.075C36.624 81.075 35.504 79.9553 35.504 78.5796C35.504 77.204 36.624 76.0842 38 76.0842C39.376 76.0842 40.496 77.204 40.496 78.5796C40.496 79.9553 39.376 81.075 38 81.075ZM82 76.0842C83.376 76.0842 84.496 77.204 84.496 78.5796C84.496 79.9553 83.376 81.075 82 81.075C80.624 81.075 79.504 79.9553 79.504 78.5796C79.504 77.204 80.624 76.0842 82 76.0842ZM62.496 86.9935C62.496 88.3692 61.376 89.4889 60 89.4889C58.624 89.4889 57.504 88.3692 57.504 86.9935C57.504 85.6178 58.624 84.4981 60 84.4981C61.376 84.4821 62.496 85.6019 62.496 86.9935Z" fill="url(#paint2_linear)"/>
<path d="M78.928 70.4854C86.128 70.4854 92 64.6308 92 57.4166C92 50.2184 86.144 44.3479 78.928 44.3479C78.528 44.3479 78.144 44.3639 77.744 44.3959C76.768 41.4206 74.448 39.0212 71.504 37.9335C70.736 32.3029 65.888 28 60.096 28C55.472 28 51.312 30.7673 49.52 34.9583C41.904 35.3902 35.824 41.7246 35.824 49.4346C35.824 50.2984 35.904 51.1462 36.048 51.994C31.52 52.6019 28 56.5049 28 61.2077C28 66.3264 32.16 70.5014 37.296 70.5014H50.128V77.3477H42.848C42.288 75.1882 40.336 73.6046 38 73.6046C35.248 73.6046 33.008 75.844 33.008 78.5954C33.008 81.3467 35.248 83.5861 38 83.5861C40.32 83.5861 42.288 81.9865 42.848 79.843H51.376C52.064 79.843 52.624 79.2832 52.624 78.5954V70.5014H58.752V82.1625C56.592 82.7223 55.008 84.6738 55.008 87.0093C55.008 89.7606 57.248 92 60 92C62.752 92 65.008 89.7606 65.008 87.0093C65.008 84.6898 63.408 82.7223 61.264 82.1625V70.5014H67.392V78.5954C67.392 79.2832 67.952 79.843 68.64 79.843H77.168C77.728 82.0025 79.68 83.5861 82.016 83.5861C84.768 83.5861 87.008 81.3467 87.008 78.5954C87.008 75.844 84.768 73.6046 82.016 73.6046C79.696 73.6046 77.728 75.2042 77.168 77.3477H69.888V70.5014H78.928V70.4854ZM38 81.0747C36.624 81.0747 35.504 79.955 35.504 78.5794C35.504 77.2037 36.624 76.084 38 76.084C39.376 76.084 40.496 77.2037 40.496 78.5794C40.496 79.955 39.376 81.0747 38 81.0747ZM82 76.084C83.376 76.084 84.496 77.2037 84.496 78.5794C84.496 79.955 83.376 81.0747 82 81.0747C80.624 81.0747 79.504 79.955 79.504 78.5794C79.504 77.2037 80.624 76.084 82 76.084ZM62.496 86.9933C62.496 88.3689 61.376 89.4886 60 89.4886C58.624 89.4886 57.504 88.3689 57.504 86.9933C57.504 85.6176 58.624 84.4979 60 84.4979C61.376 84.4819 62.496 85.6016 62.496 86.9933ZM68.624 67.99H60H51.392H37.312C33.568 67.99 30.528 64.9508 30.528 61.2077C30.528 57.4646 33.568 54.4254 37.312 54.4254C37.408 54.4254 37.504 54.4254 37.584 54.4254C37.984 54.4414 38.368 54.2654 38.624 53.9455C38.864 53.6256 38.944 53.2097 38.832 52.8258C38.512 51.7381 38.352 50.6024 38.352 49.4506C38.352 42.8283 43.728 37.4536 50.352 37.4536H50.368C50.912 37.4696 51.392 37.1177 51.568 36.6058C52.816 32.9588 56.24 30.5114 60.096 30.5114C64.864 30.5114 68.816 34.2384 69.088 38.9733C69.12 39.5171 69.488 39.965 70.016 40.109C72.832 40.8608 75.024 43.1962 75.6 46.0435C75.728 46.7153 76.384 47.1472 77.04 47.0192C77.648 46.9073 78.288 46.8593 78.928 46.8593C84.752 46.8593 89.504 51.5941 89.504 57.4326C89.504 63.2552 84.768 68.006 78.928 68.006L68.624 67.99Z" fill="url(#paint3_linear)"/>
<defs>
<linearGradient id="paint0_linear" x1="14.2863" y1="14.7784" x2="128.63" y2="104.316" gradientUnits="userSpaceOnUse">
<stop stop-color="#F89721"/>
<stop offset="1" stop-color="#844AFF"/>
</linearGradient>
<linearGradient id="paint1_linear" x1="37.5493" y1="35.1291" x2="73.5656" y2="79.4897" gradientUnits="userSpaceOnUse">
<stop stop-color="#FFC838"/>
<stop offset="1" stop-color="#F89721"/>
</linearGradient>
<linearGradient id="paint2_linear" x1="41.3366" y1="77.7351" x2="49.5305" y2="101.185" gradientUnits="userSpaceOnUse">
<stop stop-color="#AD86FF"/>
<stop offset="1" stop-color="#844AFF"/>
</linearGradient>
<linearGradient id="paint3_linear" x1="35.6194" y1="35.8818" x2="96.6029" y2="83.6352" gradientUnits="userSpaceOnUse">
<stop stop-color="#E05529"/>
<stop offset="1" stop-color="#783419"/>
</linearGradient>
</defs>
</svg>
