<svg width="48" height="48" viewBox="0 0 48 48" fill="none" xmlns="http://www.w3.org/2000/svg">
<path d="M45.8031 37.1265C45.3049 34.6604 43.512 32.6367 41.1242 31.8451L33.5867 29.3461C35.144 27.5391 36.1998 25.2885 36.5375 22.8125H38.0607C40.3866 22.8125 42.2789 20.9199 42.2789 18.5937C42.2789 17.347 41.7351 16.2253 40.8725 15.4523C40.869 14.0833 40.428 12.7367 39.6188 11.5986C39.6912 10.2345 39.3317 8.865 38.5816 7.68356C37.8205 6.48506 36.7246 5.5455 35.3903 4.94137C34.7169 3.72244 33.6884 2.72831 32.3869 2.04506C31.086 1.36219 29.6337 1.05459 28.1547 1.14534C26.9195 0.394406 25.4942 0 24.0002 0C22.5062 0 21.0808 0.3945 19.8456 1.14534C18.3673 1.05469 16.9144 1.36219 15.6135 2.04516C14.3119 2.72841 13.2835 3.72244 12.61 4.94147C11.2758 5.54559 10.1798 6.48516 9.41875 7.68375C8.66857 8.86519 8.30908 10.2346 8.38154 11.5987C7.5724 12.7368 7.13137 14.0834 7.1279 15.4523C6.26542 16.2253 5.72146 17.347 5.72146 18.5938C5.72146 20.92 7.61374 22.8126 9.93965 22.8126H11.4629C11.8005 25.2886 12.8563 27.5392 14.4136 29.3462L6.87621 31.8451C4.48834 32.6367 2.69552 34.6605 2.1973 37.1265L0 48H48L45.8031 37.1265ZM24 41.4023C23.3852 40.3557 22.5805 39.4139 21.6087 38.6259C19.7284 37.1015 18.6039 34.8815 18.48 32.4809C20.1491 33.2935 22.0221 33.7501 24 33.7501C25.9779 33.7501 27.8509 33.2935 29.5201 32.4809C29.3961 34.8815 28.2717 37.1016 26.3913 38.626C25.4195 39.4139 24.6149 40.3557 24 41.4023ZM38.0606 20.0001H36.6546V17.1875H38.0606C38.8359 17.1875 39.4667 17.8183 39.4667 18.5937C39.4667 19.3691 38.836 20.0001 38.0606 20.0001ZM10.9041 12.9326L11.3231 12.4432L11.2261 11.8061C11.0875 10.8973 11.2833 9.99319 11.7924 9.19144C12.3198 8.36091 13.1241 7.72781 14.1184 7.3605L14.6735 7.15547L14.915 6.61509C15.3072 5.73731 16.0004 5.01816 16.9201 4.53544C17.8661 4.03884 18.9414 3.84909 20.029 3.98587L20.5709 4.05422L21.0168 3.73866C21.8732 3.13275 22.9048 2.8125 24 2.8125C25.0952 2.8125 26.1268 3.13275 26.9832 3.73866L27.4291 4.05422L27.971 3.98587C29.0592 3.84891 30.1339 4.03884 31.0799 4.53544C31.9996 5.01816 32.6928 5.73731 33.085 6.61509L33.3265 7.15547L33.8816 7.3605C34.8759 7.72781 35.6803 8.36091 36.2076 9.19134C36.7167 9.99309 36.9125 10.8973 36.7739 11.8061L36.6769 12.4432L37.0959 12.9326C37.4708 13.3706 37.7399 13.8582 37.8972 14.375H35.2508C35.1921 14.3748 29.3185 14.316 24.8522 10.9126L24 10.2633L23.1478 10.9126C18.6816 14.3159 12.8079 14.3748 12.7515 14.375H10.1028C10.2601 13.8582 10.5292 13.3706 10.9041 12.9326ZM8.5333 18.5937C8.5333 17.8183 9.16406 17.1875 9.93937 17.1875H11.3454V20.0001H9.93937C9.16406 20.0001 8.5333 19.3692 8.5333 18.5937ZM14.1576 17.1053C16.258 16.9021 20.3463 16.1978 24 13.7579C27.6537 16.1978 31.742 16.9022 33.8424 17.1053V21.0938C33.8424 26.5217 29.4271 30.9376 24 30.9376C18.5729 30.9376 14.1576 26.5217 14.1576 21.0938V17.1053ZM4.95347 37.6836C5.2523 36.204 6.32803 34.9897 7.76072 34.5148L15.656 31.8972V32.0363C15.656 35.4579 17.1803 38.6561 19.8379 40.8108C21.2188 41.9304 22.135 43.4778 22.461 45.1876H3.43717L4.95347 37.6836ZM25.5391 45.1875C25.8651 43.4777 26.7813 41.9304 28.1623 40.8107C30.82 38.6559 32.3441 35.4577 32.3441 32.0363V31.8971L40.2394 34.5147C41.6721 34.9897 42.7478 36.2039 43.0466 37.6836L44.5629 45.1875H25.5391Z" fill="url(#paint0_linear)"/>
<defs>
<linearGradient id="paint0_linear" x1="11" y1="-8.93751e-08" x2="38" y2="48" gradientUnits="userSpaceOnUse">
<stop stop-color="#FFC838"/>
<stop offset="1" stop-color="#E05529"/>
</linearGradient>
</defs>
</svg>
