<svg width="649" height="480" viewBox="0 0 649 480" fill="none" xmlns="http://www.w3.org/2000/svg">
<path opacity="0.8" fill-rule="evenodd" clip-rule="evenodd" d="M548.566 422.03C547.522 420.095 547 417.882 547 415.39V413.629L550.984 415.93V418.039C550.984 420.026 551.715 421.455 553.158 422.291C553.872 422.71 554.411 422.779 554.776 422.5C555.142 422.239 555.333 421.559 555.333 420.461C555.333 419.172 555.072 417.882 554.568 416.61C554.063 415.337 553.106 413.612 551.732 411.433C549.992 408.662 548.792 406.379 548.096 404.549C547.4 402.737 547.07 400.924 547.07 399.129C547.07 396.689 547.609 395.121 548.67 394.406C549.749 393.691 551.297 393.918 553.332 395.103C555.35 396.271 556.864 397.822 557.908 399.756C558.934 401.691 559.456 403.904 559.456 406.397V407.669L555.472 405.368V403.782C555.472 402.719 555.298 401.848 554.933 401.168C554.568 400.471 554.046 399.931 553.367 399.53C551.958 398.711 551.262 399.303 551.262 401.255C551.262 402.371 551.523 403.556 552.045 404.828C552.567 406.1 553.524 407.826 554.898 410.004C556.655 412.775 557.873 415.076 558.534 416.906C559.195 418.718 559.526 420.601 559.526 422.535C559.526 425.062 558.986 426.683 557.908 427.398C556.829 428.112 555.246 427.886 553.176 426.683C551.158 425.533 549.61 423.982 548.566 422.03ZM570.834 436.391C570.051 436.286 569.111 435.92 568.033 435.31C565.962 434.108 564.379 432.522 563.283 430.535C562.187 428.548 561.631 426.335 561.631 423.86V407.669C561.631 405.212 562.187 403.608 563.283 402.894C564.379 402.179 565.962 402.423 568.033 403.608C570.103 404.811 571.686 406.397 572.782 408.383C573.878 410.37 574.435 412.584 574.435 415.058V431.249C574.435 433.306 574.034 434.752 573.252 435.624C573.408 436.007 573.6 436.304 573.826 436.53C574.052 436.757 574.382 436.983 574.817 437.245L575.461 437.628V442.02L574.348 441.375C572.434 440.277 571.268 438.604 570.834 436.391ZM570.225 429.141V412.34C570.225 410.318 569.494 408.889 568.05 408.035C566.589 407.198 565.875 407.791 565.875 409.813V426.613C565.875 428.635 566.606 430.064 568.05 430.918C569.494 431.755 570.225 431.162 570.225 429.141ZM581.463 411.852L577.253 409.412V440.19L588.387 446.639V442.247L581.463 438.238V411.852Z" fill="url(#paint0_linear)"/>
<path opacity="0.6" d="M583 413V437.452L589.924 441.46V447.665L647.507 479.733V449.268L583 413Z" fill="url(#paint1_linear)"/>
<defs>
<linearGradient id="paint0_linear" x1="576.139" y1="373.624" x2="561.987" y2="441.495" gradientUnits="userSpaceOnUse">
<stop stop-color="#F9A0CA"/>
<stop offset="1" stop-color="#FC6DB0"/>
</linearGradient>
<linearGradient id="paint1_linear" x1="583.204" y1="446.413" x2="645.647" y2="457.149" gradientUnits="userSpaceOnUse">
<stop stop-color="#FC6DB0"/>
<stop offset="1" stop-color="#FC6DB0" stop-opacity="0"/>
</linearGradient>
</defs>
</svg>
