<svg width="648" height="524" viewBox="0 0 648 524" fill="none" xmlns="http://www.w3.org/2000/svg">
<path d="M146.729 118.018C144.304 134.63 144.546 254.337 146.729 266.552C148.912 278.767 155.847 285.607 166.858 286.585C177.869 287.562 353.055 286.736 419.898 284.924C433.821 284.547 443.377 274.782 444.304 266.552C445.231 258.322 445.759 122.415 442.364 109.223C438.968 96.0306 433.148 90.656 416.656 88.7016C400.165 86.7471 196.769 86.1388 175.104 88.7016C153.439 91.2644 149.154 101.405 146.729 118.018Z" fill="url(#paint0_linear)"/>
<path d="M161.1 126.95C158.928 141.154 159.145 243.51 161.1 253.954C163.055 264.399 169.268 270.247 179.13 271.083C188.993 271.919 345.909 271.212 405.782 269.663C418.253 269.34 426.812 260.991 427.642 253.954C428.473 246.917 428.946 130.71 425.905 119.43C422.863 108.15 417.65 103.554 402.878 101.883C388.106 100.212 205.922 99.6916 186.516 101.883C167.111 104.074 163.272 112.745 161.1 126.95Z" fill="url(#paint1_linear)"/>
<path d="M266.262 278.266C266.296 279.235 267.852 280.024 269.81 280.062C279.479 280.251 306.715 280.786 318.888 281.057C321.288 281.111 323.133 280.034 322.637 278.871L322.551 278.672C322.213 277.879 320.857 277.288 319.223 277.225C310.99 276.905 286.15 276.03 269.726 276.424C267.75 276.472 266.227 277.29 266.262 278.266Z" fill="url(#paint2_linear)"/>
<path d="M226.738 165H225.121V157.922H218.57V165H216.965V149.707H218.57V156.551H225.121V149.707H226.738V165ZM231.098 160.102C231.215 161.258 231.637 162.18 232.363 162.867C233.09 163.555 234.035 163.898 235.199 163.898C236.02 163.898 236.75 163.73 237.391 163.395C238.031 163.059 238.512 162.641 238.832 162.141L239.957 162.914C239.41 163.68 238.758 164.266 238 164.672C237.242 165.07 236.309 165.27 235.199 165.27C234.355 165.27 233.582 165.129 232.879 164.848C232.176 164.566 231.566 164.176 231.051 163.676C230.543 163.168 230.148 162.566 229.867 161.871C229.586 161.176 229.445 160.402 229.445 159.551C229.445 158.723 229.57 157.961 229.82 157.266C230.078 156.562 230.445 155.957 230.922 155.449C231.406 154.934 231.992 154.535 232.68 154.254C233.367 153.965 234.137 153.82 234.988 153.82C235.918 153.82 236.73 153.977 237.426 154.289C238.121 154.602 238.699 155.035 239.16 155.59C239.629 156.137 239.973 156.793 240.191 157.559C240.418 158.324 240.531 159.172 240.531 160.102H231.098ZM238.832 158.73C238.652 157.535 238.219 156.645 237.531 156.059C236.844 155.473 235.996 155.18 234.988 155.18C234.473 155.18 233.996 155.266 233.559 155.438C233.121 155.602 232.734 155.84 232.398 156.152C232.062 156.465 231.781 156.844 231.555 157.289C231.328 157.727 231.184 158.207 231.121 158.73H238.832ZM251.324 165H244.773V163.629H247.246V151.078H244.773V149.707H248.863V163.629H251.324V165ZM264.426 165H257.875V163.629H260.348V151.078H257.875V149.707H261.965V163.629H264.426V165ZM280 159.574C280 160.426 279.863 161.199 279.59 161.895C279.324 162.59 278.938 163.188 278.43 163.688C277.93 164.18 277.328 164.566 276.625 164.848C275.922 165.129 275.137 165.27 274.27 165.27C273.418 165.27 272.641 165.129 271.938 164.848C271.234 164.566 270.629 164.18 270.121 163.688C269.621 163.188 269.234 162.59 268.961 161.895C268.695 161.199 268.562 160.426 268.562 159.574C268.562 158.746 268.695 157.977 268.961 157.266C269.234 156.547 269.621 155.938 270.121 155.438C270.629 154.93 271.234 154.535 271.938 154.254C272.641 153.965 273.418 153.82 274.27 153.82C275.137 153.82 275.922 153.965 276.625 154.254C277.328 154.535 277.93 154.93 278.43 155.438C278.938 155.938 279.324 156.547 279.59 157.266C279.863 157.977 280 158.746 280 159.574ZM278.395 159.574C278.395 158.949 278.301 158.375 278.113 157.852C277.934 157.32 277.664 156.855 277.305 156.457C276.945 156.059 276.508 155.746 275.992 155.52C275.484 155.293 274.91 155.18 274.27 155.18C273.629 155.18 273.051 155.293 272.535 155.52C272.027 155.746 271.598 156.059 271.246 156.457C270.895 156.855 270.625 157.32 270.438 157.852C270.258 158.375 270.168 158.949 270.168 159.574C270.168 160.199 270.258 160.777 270.438 161.309C270.625 161.832 270.895 162.285 271.246 162.668C271.598 163.051 272.027 163.352 272.535 163.57C273.051 163.789 273.629 163.898 274.27 163.898C274.91 163.898 275.484 163.789 275.992 163.57C276.508 163.352 276.945 163.051 277.305 162.668C277.664 162.285 277.934 161.832 278.113 161.309C278.301 160.777 278.395 160.199 278.395 159.574ZM306.285 154.078L304.07 165H302.195L300.449 156.984L298.797 165H296.922L294.684 154.078H296.395L297.977 162.82L299.676 154.078H301.27L303.016 162.82L304.598 154.078H306.285ZM319.305 159.574C319.305 160.426 319.168 161.199 318.895 161.895C318.629 162.59 318.242 163.188 317.734 163.688C317.234 164.18 316.633 164.566 315.93 164.848C315.227 165.129 314.441 165.27 313.574 165.27C312.723 165.27 311.945 165.129 311.242 164.848C310.539 164.566 309.934 164.18 309.426 163.688C308.926 163.188 308.539 162.59 308.266 161.895C308 161.199 307.867 160.426 307.867 159.574C307.867 158.746 308 157.977 308.266 157.266C308.539 156.547 308.926 155.938 309.426 155.438C309.934 154.93 310.539 154.535 311.242 154.254C311.945 153.965 312.723 153.82 313.574 153.82C314.441 153.82 315.227 153.965 315.93 154.254C316.633 154.535 317.234 154.93 317.734 155.438C318.242 155.938 318.629 156.547 318.895 157.266C319.168 157.977 319.305 158.746 319.305 159.574ZM317.699 159.574C317.699 158.949 317.605 158.375 317.418 157.852C317.238 157.32 316.969 156.855 316.609 156.457C316.25 156.059 315.812 155.746 315.297 155.52C314.789 155.293 314.215 155.18 313.574 155.18C312.934 155.18 312.355 155.293 311.84 155.52C311.332 155.746 310.902 156.059 310.551 156.457C310.199 156.855 309.93 157.32 309.742 157.852C309.562 158.375 309.473 158.949 309.473 159.574C309.473 160.199 309.562 160.777 309.742 161.309C309.93 161.832 310.199 162.285 310.551 162.668C310.902 163.051 311.332 163.352 311.84 163.57C312.355 163.789 312.934 163.898 313.574 163.898C314.215 163.898 314.789 163.789 315.297 163.57C315.812 163.352 316.25 163.051 316.609 162.668C316.969 162.285 317.238 161.832 317.418 161.309C317.605 160.777 317.699 160.199 317.699 159.574ZM331.527 155.613C330.949 155.324 330.262 155.18 329.465 155.18C328.809 155.18 328.223 155.32 327.707 155.602C327.191 155.883 326.754 156.254 326.395 156.715C326.035 157.168 325.758 157.691 325.562 158.285C325.375 158.871 325.281 159.477 325.281 160.102V163.629H327.754V165H321.203V163.629H323.676V155.449H321.203V154.078H325.281V156.82C326.016 154.82 327.41 153.82 329.465 153.82C330.02 153.82 330.5 153.855 330.906 153.926C331.32 153.996 331.703 154.121 332.055 154.301L331.527 155.613ZM343.035 165H336.484V163.629H338.957V151.078H336.484V149.707H340.574V163.629H343.035V165ZM357.754 165H356.137V163.992C355.676 164.406 355.168 164.723 354.613 164.941C354.066 165.16 353.504 165.27 352.926 165.27C352.059 165.27 351.281 165.129 350.594 164.848C349.906 164.566 349.324 164.176 348.848 163.676C348.379 163.168 348.016 162.562 347.758 161.859C347.508 161.156 347.383 160.387 347.383 159.551C347.383 158.723 347.508 157.957 347.758 157.254C348.016 156.543 348.379 155.938 348.848 155.438C349.324 154.93 349.906 154.535 350.594 154.254C351.281 153.965 352.059 153.82 352.926 153.82C353.504 153.82 354.066 153.926 354.613 154.137C355.168 154.34 355.676 154.648 356.137 155.062V151.078H353.957V149.707H357.754V165ZM356.137 156.621C355.676 156.113 355.172 155.746 354.625 155.52C354.086 155.293 353.512 155.18 352.902 155.18C352.262 155.18 351.695 155.293 351.203 155.52C350.719 155.746 350.312 156.055 349.984 156.445C349.656 156.836 349.406 157.297 349.234 157.828C349.07 158.352 348.988 158.926 348.988 159.551C348.988 160.176 349.07 160.754 349.234 161.285C349.406 161.809 349.656 162.266 349.984 162.656C350.312 163.047 350.719 163.355 351.203 163.582C351.695 163.809 352.262 163.922 352.902 163.922C354.137 163.922 355.215 163.434 356.137 162.457V156.621ZM367.059 156.27H364.879V154.078H367.059V156.27ZM367.656 162.82L364.445 169.371H363.32L365.5 162.82H367.656Z" fill="#BDC7CD"/>
<path d="M281.398 213.539H277.039V209.156H281.398V213.539ZM281.398 231H277.039V226.641H281.398V231ZM312.031 217.758C312.031 219.867 311.797 221.945 311.328 223.992C310.859 226.039 310.172 228.008 309.266 229.898C308.375 231.789 307.281 233.562 305.984 235.219C304.703 236.891 303.227 238.383 301.555 239.695L299.867 237.586C301.352 236.398 302.672 235.047 303.828 233.531C305 232.031 305.992 230.43 306.805 228.727C307.633 227.008 308.25 225.227 308.656 223.383C309.078 221.523 309.289 219.648 309.289 217.758C309.289 215.867 309.078 213.984 308.656 212.109C308.25 210.234 307.633 208.445 306.805 206.742C305.992 205.023 305 203.414 303.828 201.914C302.672 200.414 301.352 199.07 299.867 197.883L301.555 195.773C303.227 197.086 304.703 198.578 305.984 200.25C307.281 201.906 308.375 203.68 309.266 205.57C310.172 207.445 310.859 209.422 311.328 211.5C311.797 213.562 312.031 215.648 312.031 217.758Z" fill="#BDC7CD"/>
<defs>
<linearGradient id="paint0_linear" x1="444.634" y1="88.5302" x2="372.967" y2="347.941" gradientUnits="userSpaceOnUse">
<stop stop-color="#783419"/>
<stop offset="1" stop-color="#E05529"/>
</linearGradient>
<linearGradient id="paint1_linear" x1="375.881" y1="271.438" x2="203.905" y2="101.684" gradientUnits="userSpaceOnUse">
<stop stop-color="#0E1C1C"/>
<stop offset="1" stop-color="#203153"/>
</linearGradient>
<linearGradient id="paint2_linear" x1="311.712" y1="281.059" x2="310.462" y2="271.701" gradientUnits="userSpaceOnUse">
<stop stop-color="#0E1C1C"/>
<stop offset="1" stop-color="#783419"/>
</linearGradient>
</defs>
</svg>
