<svg width="648" height="524" viewBox="0 0 648 524" fill="none" xmlns="http://www.w3.org/2000/svg">
    <path opacity="0.2" fill-rule="evenodd" clip-rule="evenodd" d="M172 0C163.163 0 156 7.16344 156 16C156 24.8366 163.163 32 172 32H444C452.837 32 460 24.8366 460 16C460 7.16344 452.837 0 444 0H172ZM128 47C119.163 47 112 54.1634 112 63C112 71.8366 119.163 79 128 79H340C348.837 79 356 71.8366 356 63C356 54.1634 348.837 47 340 47H128ZM70 61.5C70 53.4919 76.4919 47 84.5 47C92.5081 47 99 53.4919 99 61.5V64.5C99 72.5081 92.5081 79 84.5 79C76.4919 79 70 72.5081 70 64.5V61.5ZM387 166C378.163 166 371 173.163 371 182V188C371 196.837 378.163 204 387 204H599C607.837 204 615 196.837 615 188V182C615 173.163 607.837 166 599 166H387ZM66 260C66 251.163 73.1634 244 82 244H199C207.837 244 215 251.163 215 260C215 268.837 207.837 276 199 276H82C73.1634 276 66 268.837 66 260ZM55.5 165C47.4919 165 41 171.492 41 179.5V190.5C41 198.508 47.4919 205 55.5 205C63.5081 205 70 198.508 70 190.5V179.5C70 171.492 63.5081 165 55.5 165Z" fill="#BDC7CD"/>
    <path opacity="0.5" fill-rule="evenodd" clip-rule="evenodd" d="M372 63C372 54.1634 379.163 47 388 47H562C570.837 47 578 54.1634 578 63C578 71.8366 570.837 79 562 79H388C379.163 79 372 71.8366 372 63ZM0 123C0 114.163 7.16344 107 16 107H190C198.837 107 206 114.163 206 123C206 131.837 198.837 139 190 139H16C7.16345 139 0 131.837 0 123ZM102 166C93.1634 166 86 173.163 86 182V188C86 196.837 93.1634 204 102 204H276C284.837 204 292 196.837 292 188V182C292 173.163 284.837 166 276 166H102Z" fill="#BDC7CD"/>
    <path opacity="0.3" d="M312.282 356.791C178.74 351.71 3.12497 371.315 0.0419294 409.273C-1.88917 433.049 63.2308 472.033 123.508 470.5C164.625 469.456 205.212 449.52 209.222 458.473C212.392 465.555 188.393 481.148 191.875 489.087C197.014 500.797 250.923 470.759 282.691 496.741C292.957 505.14 289.79 510.293 297.995 517.516C331.082 546.625 388.924 468.427 485.744 466.128C528.974 465.102 558.73 479.709 611.591 461.388C630.409 454.868 647.443 448.966 647.987 439.887C649.733 410.601 478.974 363.136 312.282 356.791Z" fill="#BDC7CD"/>
    <path opacity="0.5" d="M175.305 291.245C158.208 295.128 139.755 299.535 140.002 303.728C140.398 310.489 189.226 313.462 226.174 312.942C280.947 312.17 285.314 304.063 343.479 300.759C404.455 297.293 448.126 303.449 449.943 293.625C450.448 290.899 447.596 287.639 442.159 283.818C392.458 248.89 272.137 269.258 175.305 291.245Z" fill="#BDC7CD"/>
    <path d="M146.729 118.018C144.304 134.63 144.546 254.337 146.729 266.552C148.912 278.767 155.847 285.607 166.858 286.585C177.869 287.562 353.055 286.736 419.898 284.924C433.821 284.547 443.377 274.782 444.304 266.552C445.231 258.322 445.759 122.415 442.364 109.223C438.968 96.0306 433.148 90.656 416.656 88.7016C400.165 86.7471 196.769 86.1388 175.104 88.7016C153.439 91.2644 149.154 101.405 146.729 118.018Z" fill="url(#paint0_linear)"/>
    <path d="M161.1 126.95C158.928 141.154 159.145 243.51 161.1 253.954C163.055 264.399 169.268 270.247 179.13 271.083C188.993 271.919 345.909 271.212 405.782 269.663C418.253 269.34 426.812 260.991 427.642 253.954C428.473 246.917 428.946 130.71 425.905 119.43C422.863 108.15 417.65 103.554 402.878 101.883C388.106 100.212 205.922 99.6916 186.516 101.883C167.111 104.074 163.272 112.745 161.1 126.95Z" fill="url(#paint1_linear)"/>
    <path d="M266.262 278.266C266.296 279.235 267.852 280.024 269.81 280.062C279.479 280.251 306.715 280.786 318.888 281.057C321.288 281.111 323.133 280.034 322.637 278.871L322.551 278.672C322.213 277.879 320.857 277.288 319.223 277.225C310.99 276.905 286.15 276.03 269.726 276.424C267.75 276.472 266.227 277.29 266.262 278.266Z" fill="url(#paint2_linear)"/>
    <path d="M226.738 163H225.121V155.922H218.57V163H216.965V147.707H218.57V154.551H225.121V147.707H226.738V163ZM231.098 158.102C231.215 159.258 231.637 160.18 232.363 160.867C233.09 161.555 234.035 161.898 235.199 161.898C236.02 161.898 236.75 161.73 237.391 161.395C238.031 161.059 238.512 160.641 238.832 160.141L239.957 160.914C239.41 161.68 238.758 162.266 238 162.672C237.242 163.07 236.309 163.27 235.199 163.27C234.355 163.27 233.582 163.129 232.879 162.848C232.176 162.566 231.566 162.176 231.051 161.676C230.543 161.168 230.148 160.566 229.867 159.871C229.586 159.176 229.445 158.402 229.445 157.551C229.445 156.723 229.57 155.961 229.82 155.266C230.078 154.562 230.445 153.957 230.922 153.449C231.406 152.934 231.992 152.535 232.68 152.254C233.367 151.965 234.137 151.82 234.988 151.82C235.918 151.82 236.73 151.977 237.426 152.289C238.121 152.602 238.699 153.035 239.16 153.59C239.629 154.137 239.973 154.793 240.191 155.559C240.418 156.324 240.531 157.172 240.531 158.102H231.098ZM238.832 156.73C238.652 155.535 238.219 154.645 237.531 154.059C236.844 153.473 235.996 153.18 234.988 153.18C234.473 153.18 233.996 153.266 233.559 153.438C233.121 153.602 232.734 153.84 232.398 154.152C232.062 154.465 231.781 154.844 231.555 155.289C231.328 155.727 231.184 156.207 231.121 156.73H238.832ZM251.324 163H244.773V161.629H247.246V149.078H244.773V147.707H248.863V161.629H251.324V163ZM264.426 163H257.875V161.629H260.348V149.078H257.875V147.707H261.965V161.629H264.426V163ZM280 157.574C280 158.426 279.863 159.199 279.59 159.895C279.324 160.59 278.938 161.188 278.43 161.688C277.93 162.18 277.328 162.566 276.625 162.848C275.922 163.129 275.137 163.27 274.27 163.27C273.418 163.27 272.641 163.129 271.938 162.848C271.234 162.566 270.629 162.18 270.121 161.688C269.621 161.188 269.234 160.59 268.961 159.895C268.695 159.199 268.562 158.426 268.562 157.574C268.562 156.746 268.695 155.977 268.961 155.266C269.234 154.547 269.621 153.938 270.121 153.438C270.629 152.93 271.234 152.535 271.938 152.254C272.641 151.965 273.418 151.82 274.27 151.82C275.137 151.82 275.922 151.965 276.625 152.254C277.328 152.535 277.93 152.93 278.43 153.438C278.938 153.938 279.324 154.547 279.59 155.266C279.863 155.977 280 156.746 280 157.574ZM278.395 157.574C278.395 156.949 278.301 156.375 278.113 155.852C277.934 155.32 277.664 154.855 277.305 154.457C276.945 154.059 276.508 153.746 275.992 153.52C275.484 153.293 274.91 153.18 274.27 153.18C273.629 153.18 273.051 153.293 272.535 153.52C272.027 153.746 271.598 154.059 271.246 154.457C270.895 154.855 270.625 155.32 270.438 155.852C270.258 156.375 270.168 156.949 270.168 157.574C270.168 158.199 270.258 158.777 270.438 159.309C270.625 159.832 270.895 160.285 271.246 160.668C271.598 161.051 272.027 161.352 272.535 161.57C273.051 161.789 273.629 161.898 274.27 161.898C274.91 161.898 275.484 161.789 275.992 161.57C276.508 161.352 276.945 161.051 277.305 160.668C277.664 160.285 277.934 159.832 278.113 159.309C278.301 158.777 278.395 158.199 278.395 157.574ZM306.285 152.078L304.07 163H302.195L300.449 154.984L298.797 163H296.922L294.684 152.078H296.395L297.977 160.82L299.676 152.078H301.27L303.016 160.82L304.598 152.078H306.285ZM319.305 157.574C319.305 158.426 319.168 159.199 318.895 159.895C318.629 160.59 318.242 161.188 317.734 161.688C317.234 162.18 316.633 162.566 315.93 162.848C315.227 163.129 314.441 163.27 313.574 163.27C312.723 163.27 311.945 163.129 311.242 162.848C310.539 162.566 309.934 162.18 309.426 161.688C308.926 161.188 308.539 160.59 308.266 159.895C308 159.199 307.867 158.426 307.867 157.574C307.867 156.746 308 155.977 308.266 155.266C308.539 154.547 308.926 153.938 309.426 153.438C309.934 152.93 310.539 152.535 311.242 152.254C311.945 151.965 312.723 151.82 313.574 151.82C314.441 151.82 315.227 151.965 315.93 152.254C316.633 152.535 317.234 152.93 317.734 153.438C318.242 153.938 318.629 154.547 318.895 155.266C319.168 155.977 319.305 156.746 319.305 157.574ZM317.699 157.574C317.699 156.949 317.605 156.375 317.418 155.852C317.238 155.32 316.969 154.855 316.609 154.457C316.25 154.059 315.812 153.746 315.297 153.52C314.789 153.293 314.215 153.18 313.574 153.18C312.934 153.18 312.355 153.293 311.84 153.52C311.332 153.746 310.902 154.059 310.551 154.457C310.199 154.855 309.93 155.32 309.742 155.852C309.562 156.375 309.473 156.949 309.473 157.574C309.473 158.199 309.562 158.777 309.742 159.309C309.93 159.832 310.199 160.285 310.551 160.668C310.902 161.051 311.332 161.352 311.84 161.57C312.355 161.789 312.934 161.898 313.574 161.898C314.215 161.898 314.789 161.789 315.297 161.57C315.812 161.352 316.25 161.051 316.609 160.668C316.969 160.285 317.238 159.832 317.418 159.309C317.605 158.777 317.699 158.199 317.699 157.574ZM331.527 153.613C330.949 153.324 330.262 153.18 329.465 153.18C328.809 153.18 328.223 153.32 327.707 153.602C327.191 153.883 326.754 154.254 326.395 154.715C326.035 155.168 325.758 155.691 325.562 156.285C325.375 156.871 325.281 157.477 325.281 158.102V161.629H327.754V163H321.203V161.629H323.676V153.449H321.203V152.078H325.281V154.82C326.016 152.82 327.41 151.82 329.465 151.82C330.02 151.82 330.5 151.855 330.906 151.926C331.32 151.996 331.703 152.121 332.055 152.301L331.527 153.613ZM343.035 163H336.484V161.629H338.957V149.078H336.484V147.707H340.574V161.629H343.035V163ZM357.754 163H356.137V161.992C355.676 162.406 355.168 162.723 354.613 162.941C354.066 163.16 353.504 163.27 352.926 163.27C352.059 163.27 351.281 163.129 350.594 162.848C349.906 162.566 349.324 162.176 348.848 161.676C348.379 161.168 348.016 160.562 347.758 159.859C347.508 159.156 347.383 158.387 347.383 157.551C347.383 156.723 347.508 155.957 347.758 155.254C348.016 154.543 348.379 153.938 348.848 153.438C349.324 152.93 349.906 152.535 350.594 152.254C351.281 151.965 352.059 151.82 352.926 151.82C353.504 151.82 354.066 151.926 354.613 152.137C355.168 152.34 355.676 152.648 356.137 153.062V149.078H353.957V147.707H357.754V163ZM356.137 154.621C355.676 154.113 355.172 153.746 354.625 153.52C354.086 153.293 353.512 153.18 352.902 153.18C352.262 153.18 351.695 153.293 351.203 153.52C350.719 153.746 350.312 154.055 349.984 154.445C349.656 154.836 349.406 155.297 349.234 155.828C349.07 156.352 348.988 156.926 348.988 157.551C348.988 158.176 349.07 158.754 349.234 159.285C349.406 159.809 349.656 160.266 349.984 160.656C350.312 161.047 350.719 161.355 351.203 161.582C351.695 161.809 352.262 161.922 352.902 161.922C354.137 161.922 355.215 161.434 356.137 160.457V154.621ZM367.059 154.27H364.879V152.078H367.059V154.27ZM367.656 160.82L364.445 167.371H363.32L365.5 160.82H367.656Z" fill="#BDC7CD"/>
    <path d="M281.398 211.539H277.039V207.156H281.398V211.539ZM281.398 229H277.039V224.641H281.398V229ZM312.031 215.758C312.031 217.867 311.797 219.945 311.328 221.992C310.859 224.039 310.172 226.008 309.266 227.898C308.375 229.789 307.281 231.562 305.984 233.219C304.703 234.891 303.227 236.383 301.555 237.695L299.867 235.586C301.352 234.398 302.672 233.047 303.828 231.531C305 230.031 305.992 228.43 306.805 226.727C307.633 225.008 308.25 223.227 308.656 221.383C309.078 219.523 309.289 217.648 309.289 215.758C309.289 213.867 309.078 211.984 308.656 210.109C308.25 208.234 307.633 206.445 306.805 204.742C305.992 203.023 305 201.414 303.828 199.914C302.672 198.414 301.352 197.07 299.867 195.883L301.555 193.773C303.227 195.086 304.703 196.578 305.984 198.25C307.281 199.906 308.375 201.68 309.266 203.57C310.172 205.445 310.859 207.422 311.328 209.5C311.797 211.562 312.031 213.648 312.031 215.758Z" fill="#BDC7CD"/>
    <path d="M547.048 232.405C547.048 232.405 578.387 260.669 560.161 313.632C558.465 318.564 552.024 319.766 548.64 315.794L527.081 290.487C523.625 286.428 522.041 281.104 522.725 275.817L526.225 248.684L547.048 232.405Z" fill="url(#paint3_linear)"/>
    <path d="M479.308 189.934C479.308 189.934 440.21 174.036 400.432 213.486C396.726 217.16 398.448 223.478 403.499 224.792L435.679 233.178C440.838 234.522 446.325 233.626 450.79 230.714L473.705 215.753L479.308 189.934Z" fill="url(#paint4_linear)"/>
    <path d="M549.421 228.623C549.421 228.623 580.76 256.887 562.533 309.85C560.837 314.782 554.397 315.984 551.012 312.011L529.453 286.704C525.998 282.646 524.414 277.322 525.097 272.035L528.598 244.902L549.421 228.623Z" fill="url(#paint5_linear)"/>
    <path d="M481.681 186.152C481.681 186.152 442.582 170.254 402.804 209.704C399.098 213.378 400.821 219.696 405.871 221.01L438.051 229.396C443.21 230.74 448.698 229.844 453.162 226.932L476.077 211.971L481.681 186.152Z" fill="url(#paint6_linear)"/>
    <path d="M502.126 104.078C536.917 60.2701 603.323 67.3978 603.368 67.4724C603.454 67.4799 638.776 124.135 614.456 174.503C592.396 220.192 536.301 257.791 525.489 264.735C524.328 265.482 522.422 266.539 521.563 265.456C504.861 244.409 484.239 232.215 460.536 227.219C459.225 226.943 459.389 224.8 459.55 223.47C461.082 210.899 470.514 143.886 502.126 104.078Z" fill="url(#paint7_linear)"/>
    <path d="M581.129 102.909C564.737 92.6338 544.983 83.8671 528.004 82.2989C557.901 65.5495 592.695 66.6659 601.347 67.2894C602.629 67.3828 603.779 68.1034 604.418 69.216C608.744 76.732 624.894 107.55 622.817 141.743C615.356 128.645 597.522 113.184 581.129 102.909Z" fill="url(#paint8_linear)"/>
    <path d="M510.677 130.288C498.753 149.289 506.198 175.421 527.305 188.657C548.416 201.893 575.197 197.219 587.122 178.218C599.046 159.217 591.601 133.085 570.494 119.849C549.387 106.613 522.605 111.287 510.677 130.288Z" fill="url(#paint9_linear)"/>
    <path d="M513.868 132.286C502.937 149.704 509.762 173.655 529.109 185.79C548.46 197.921 573.008 193.638 583.939 176.22C594.87 158.803 588.044 134.851 568.697 122.716C549.346 110.586 524.798 114.868 513.868 132.286Z" fill="url(#paint10_linear)"/>
    <path d="M518.38 135.116C508.858 150.286 514.801 171.154 531.657 181.724C548.513 192.29 569.896 188.56 579.419 173.386C588.941 158.213 582.997 137.349 566.142 126.779C549.29 116.212 527.903 119.946 518.38 135.116Z" fill="url(#paint11_linear)"/>
    <path d="M459.105 226.461C455.852 231.647 467.447 244.771 485.002 255.778C502.559 266.785 519.43 271.504 522.684 266.322C525.938 261.136 514.342 248.012 496.788 237.005C479.23 225.998 462.359 221.275 459.105 226.461Z" fill="url(#paint12_linear)"/>
    <path d="M487.086 237.599L500.729 246.153C507.988 250.704 511.761 259.198 510.27 267.633L508.854 275.634C508.335 278.58 504.995 280.062 502.459 278.471L457.215 250.103C454.679 248.512 454.563 244.864 456.987 243.113L463.581 238.357C470.529 233.35 479.824 233.047 487.086 237.599Z" fill="url(#paint13_linear)"/>
    <path d="M454.731 246.026C451.66 250.917 460.917 262.248 475.404 271.333C489.892 280.417 504.128 283.814 507.199 278.923C510.27 274.032 501.013 262.7 486.526 253.616C472.039 244.528 457.802 241.131 454.731 246.026Z" fill="url(#paint14_linear)"/>
    <path d="M461.029 249.972C458.695 253.691 465.729 262.301 476.742 269.204C487.755 276.108 498.573 278.692 500.905 274.973C503.239 271.254 496.205 262.644 485.192 255.741C474.183 248.837 463.364 246.253 461.029 249.972Z" fill="url(#paint15_linear)"/>
    <path d="M73.4694 391.513C93.5564 392.372 97.5537 406.53 112.235 408.991C156.664 416.439 188.089 298.204 237.08 298.398C278.337 298.563 284.863 380.319 333.76 383.833C376.901 386.936 425.372 326.842 462.012 281.417C474.116 266.412 476.234 261.8 476.768 262.133C479.682 263.932 426.309 406.328 356.926 409.782C307.842 412.228 289.798 344.166 242.362 348.949C194.361 353.788 192.785 429.832 129.001 448.807C82.9208 462.517 26.8549 439.749 25.0468 421.629C23.743 408.554 49.9567 390.509 73.4694 391.513Z" fill="url(#paint16_linear)"/>
    <path d="M468.628 258.477C471.433 262.058 452.579 282.463 435.032 296.837C431.973 299.343 423.833 305.854 412.028 312.896C392.583 324.493 381.115 332.196 375.261 328.025C371.435 325.299 370.852 318.22 372.511 313.243C375.885 303.11 387.32 305.403 396.543 293.503C404 283.882 400.062 277.822 407.194 272.412C414.019 267.233 420.108 270.903 434.076 269.466C455.755 267.233 466.517 255.782 468.628 258.477Z" fill="url(#paint17_linear)"/>
    <path d="M484.116 266.124C470.791 280.424 466.009 293.141 464.123 302.195C461.885 312.941 463.857 317.937 458.922 327.454C454.059 336.833 448.167 339.644 446.68 349.027C446.348 351.118 444.895 360.296 449.43 363.809C457.107 369.757 480.44 358.313 491.834 340.335C494.072 336.803 502.739 323.13 498.405 310.171C496.283 303.835 492.731 302.673 488.812 295.729C484.744 288.511 482.495 278.964 484.116 266.124Z" fill="url(#paint18_linear)"/>
    <defs>
        <linearGradient id="paint0_linear" x1="444.634" y1="88.5302" x2="372.967" y2="347.941" gradientUnits="userSpaceOnUse">
            <stop stop-color="#783419"/>
            <stop offset="1" stop-color="#E05529"/>
        </linearGradient>
        <linearGradient id="paint1_linear" x1="375.881" y1="271.438" x2="203.905" y2="101.684" gradientUnits="userSpaceOnUse">
            <stop stop-color="#0E1C1C"/>
            <stop offset="1" stop-color="#203153"/>
        </linearGradient>
        <linearGradient id="paint2_linear" x1="311.712" y1="281.059" x2="310.462" y2="271.701" gradientUnits="userSpaceOnUse">
            <stop stop-color="#0E1C1C"/>
            <stop offset="1" stop-color="#783419"/>
        </linearGradient>
        <linearGradient id="paint3_linear" x1="574.56" y1="291.035" x2="520.822" y2="257.306" gradientUnits="userSpaceOnUse">
            <stop stop-color="#444B8C"/>
            <stop offset="0.9964" stop-color="#26264F"/>
        </linearGradient>
        <linearGradient id="paint4_linear" x1="468.275" y1="224.398" x2="414.538" y2="190.67" gradientUnits="userSpaceOnUse">
            <stop stop-color="#444B8C"/>
            <stop offset="0.9964" stop-color="#26264F"/>
        </linearGradient>
        <linearGradient id="paint5_linear" x1="576.932" y1="287.255" x2="523.194" y2="253.526" gradientUnits="userSpaceOnUse">
            <stop stop-color="#AD86FF"/>
            <stop offset="0.9964" stop-color="#844AFF"/>
        </linearGradient>
        <linearGradient id="paint6_linear" x1="424.521" y1="217.323" x2="535.739" y2="160.548" gradientUnits="userSpaceOnUse">
            <stop stop-color="#AD86FF"/>
            <stop offset="0.9964" stop-color="#844AFF"/>
        </linearGradient>
        <linearGradient id="paint7_linear" x1="550.578" y1="221.194" x2="511.593" y2="28.3482" gradientUnits="userSpaceOnUse">
            <stop stop-color="#FFC83C"/>
            <stop offset="0.9964" stop-color="#DE5125"/>
        </linearGradient>
        <linearGradient id="paint8_linear" x1="636.671" y1="119.669" x2="541.886" y2="60.1768" gradientUnits="userSpaceOnUse">
            <stop stop-color="#AD86FF"/>
            <stop offset="0.9964" stop-color="#844AFF"/>
        </linearGradient>
        <linearGradient id="paint9_linear" x1="587.125" y1="178.217" x2="510.703" y2="130.25" gradientUnits="userSpaceOnUse">
            <stop offset="0.00359712" stop-color="#EBEFF2"/>
            <stop offset="1" stop-color="white"/>
        </linearGradient>
        <linearGradient id="paint10_linear" x1="552.349" y1="122.385" x2="546.903" y2="172.786" gradientUnits="userSpaceOnUse">
            <stop offset="0.00359712" stop-color="#EBEFF2"/>
            <stop offset="1" stop-color="white"/>
        </linearGradient>
        <linearGradient id="paint11_linear" x1="551.717" y1="223.69" x2="546.91" y2="104.987" gradientUnits="userSpaceOnUse">
            <stop stop-color="#5163A5"/>
            <stop offset="0.9964" stop-color="#051525"/>
        </linearGradient>
        <linearGradient id="paint12_linear" x1="475.154" y1="276.335" x2="492.125" y2="244.019" gradientUnits="userSpaceOnUse">
            <stop stop-color="#FFC83C"/>
            <stop offset="0.9964" stop-color="#DE5125"/>
        </linearGradient>
        <linearGradient id="paint13_linear" x1="513.071" y1="269.508" x2="460.689" y2="236.631" gradientUnits="userSpaceOnUse">
            <stop stop-color="#AD86FF"/>
            <stop offset="0.9964" stop-color="#844AFF"/>
        </linearGradient>
        <linearGradient id="paint14_linear" x1="484.052" y1="249.843" x2="472.629" y2="296.662" gradientUnits="userSpaceOnUse">
            <stop stop-color="#AD86FF"/>
            <stop offset="0.9964" stop-color="#844AFF"/>
        </linearGradient>
        <linearGradient id="paint15_linear" x1="483.312" y1="252.874" x2="474.631" y2="288.457" gradientUnits="userSpaceOnUse">
            <stop stop-color="#444B8C"/>
            <stop offset="0.9964" stop-color="#26264F"/>
        </linearGradient>
        <linearGradient id="paint16_linear" x1="114.264" y1="518.468" x2="409.122" y2="175.389" gradientUnits="userSpaceOnUse">
            <stop stop-color="#FFC83C"/>
            <stop offset="0.9964" stop-color="#DE5125"/>
        </linearGradient>
        <linearGradient id="paint17_linear" x1="439.211" y1="254.519" x2="367.234" y2="379.896" gradientUnits="userSpaceOnUse">
            <stop stop-color="#FFC83C"/>
            <stop offset="0.9964" stop-color="#DE5125"/>
        </linearGradient>
        <linearGradient id="paint18_linear" x1="496.472" y1="286.005" x2="424.493" y2="411.383" gradientUnits="userSpaceOnUse">
            <stop stop-color="#FFC83C"/>
            <stop offset="0.9964" stop-color="#DE5125"/>
        </linearGradient>
    </defs>
</svg>
