<svg width="648" height="524" viewBox="0 0 648 524" fill="none" xmlns="http://www.w3.org/2000/svg">
<path d="M547.048 232.405C547.048 232.405 578.387 260.669 560.161 313.632C558.465 318.564 552.024 319.766 548.64 315.794L527.081 290.487C523.625 286.428 522.041 281.104 522.725 275.817L526.225 248.684L547.048 232.405Z" fill="url(#paint0_linear)"/>
<path d="M479.308 189.934C479.308 189.934 440.21 174.036 400.432 213.486C396.726 217.16 398.448 223.478 403.499 224.792L435.679 233.178C440.838 234.522 446.325 233.626 450.79 230.714L473.705 215.753L479.308 189.934Z" fill="url(#paint1_linear)"/>
<path d="M549.421 228.623C549.421 228.623 580.76 256.887 562.533 309.85C560.837 314.782 554.397 315.984 551.012 312.011L529.453 286.704C525.998 282.646 524.414 277.322 525.097 272.035L528.598 244.902L549.421 228.623Z" fill="url(#paint2_linear)"/>
<path d="M481.681 186.152C481.681 186.152 442.582 170.254 402.804 209.704C399.098 213.378 400.821 219.696 405.871 221.01L438.051 229.396C443.21 230.74 448.698 229.844 453.162 226.932L476.077 211.971L481.681 186.152Z" fill="url(#paint3_linear)"/>
<path d="M502.126 104.078C536.917 60.2701 603.323 67.3978 603.368 67.4724C603.454 67.4799 638.776 124.135 614.456 174.503C592.396 220.192 536.301 257.791 525.489 264.735C524.328 265.482 522.422 266.539 521.563 265.456C504.861 244.409 484.239 232.215 460.536 227.219C459.225 226.943 459.389 224.8 459.55 223.47C461.082 210.899 470.514 143.886 502.126 104.078Z" fill="url(#paint4_linear)"/>
<path d="M581.129 102.909C564.737 92.6339 544.983 83.8671 528.004 82.299C557.901 65.5496 592.695 66.6659 601.347 67.2895C602.629 67.3828 603.779 68.1034 604.418 69.2161C608.744 76.732 624.894 107.55 622.817 141.743C615.356 128.645 597.522 113.184 581.129 102.909Z" fill="url(#paint5_linear)"/>
<path d="M510.677 130.288C498.753 149.289 506.198 175.421 527.305 188.657C548.416 201.893 575.197 197.219 587.122 178.218C599.046 159.217 591.601 133.085 570.494 119.849C549.387 106.613 522.605 111.287 510.677 130.288Z" fill="url(#paint6_linear)"/>
<path d="M513.868 132.286C502.937 149.704 509.762 173.655 529.109 185.79C548.46 197.921 573.008 193.638 583.939 176.22C594.87 158.803 588.044 134.851 568.697 122.716C549.346 110.586 524.798 114.868 513.868 132.286Z" fill="url(#paint7_linear)"/>
<path d="M518.38 135.116C508.858 150.286 514.801 171.154 531.657 181.724C548.513 192.29 569.896 188.56 579.419 173.386C588.941 158.213 582.997 137.349 566.142 126.779C549.29 116.212 527.903 119.946 518.38 135.116Z" fill="url(#paint8_linear)"/>
<path d="M459.105 226.461C455.852 231.647 467.447 244.771 485.002 255.778C502.559 266.785 519.43 271.504 522.684 266.322C525.938 261.136 514.342 248.012 496.788 237.005C479.23 225.998 462.359 221.275 459.105 226.461Z" fill="url(#paint9_linear)"/>
<path d="M487.086 237.599L500.729 246.153C507.988 250.704 511.761 259.198 510.27 267.633L508.854 275.634C508.335 278.58 504.995 280.062 502.459 278.471L457.215 250.103C454.679 248.512 454.563 244.864 456.987 243.113L463.581 238.357C470.529 233.35 479.824 233.047 487.086 237.599Z" fill="url(#paint10_linear)"/>
<path d="M454.731 246.026C451.66 250.917 460.917 262.248 475.404 271.333C489.892 280.417 504.128 283.814 507.199 278.923C510.27 274.032 501.013 262.7 486.526 253.616C472.039 244.528 457.802 241.131 454.731 246.026Z" fill="url(#paint11_linear)"/>
<path d="M461.029 249.972C458.695 253.691 465.729 262.301 476.742 269.204C487.755 276.108 498.573 278.692 500.905 274.973C503.239 271.254 496.205 262.644 485.192 255.741C474.183 248.837 463.364 246.253 461.029 249.972Z" fill="url(#paint12_linear)"/>
<path d="M73.4694 391.513C93.5564 392.372 97.5537 406.53 112.235 408.991C156.664 416.439 188.089 298.204 237.08 298.398C278.337 298.563 284.863 380.319 333.76 383.833C376.901 386.936 425.372 326.842 462.012 281.417C474.116 266.412 476.234 261.8 476.768 262.133C479.682 263.932 426.309 406.328 356.926 409.782C307.842 412.228 289.798 344.166 242.362 348.949C194.361 353.788 192.785 429.832 129.001 448.807C82.9208 462.517 26.8549 439.749 25.0468 421.629C23.743 408.554 49.9567 390.509 73.4694 391.513Z" fill="url(#paint13_linear)"/>
<path d="M468.628 258.477C471.433 262.058 452.579 282.463 435.032 296.837C431.973 299.343 423.833 305.854 412.028 312.896C392.583 324.493 381.115 332.196 375.261 328.025C371.435 325.299 370.852 318.22 372.511 313.243C375.885 303.11 387.32 305.403 396.543 293.503C404 283.882 400.062 277.822 407.194 272.412C414.019 267.233 420.108 270.903 434.076 269.466C455.755 267.233 466.517 255.782 468.628 258.477Z" fill="url(#paint14_linear)"/>
<path d="M484.116 266.124C470.791 280.424 466.009 293.141 464.123 302.195C461.885 312.941 463.857 317.937 458.922 327.454C454.059 336.833 448.167 339.644 446.68 349.027C446.348 351.118 444.895 360.296 449.43 363.809C457.107 369.757 480.44 358.313 491.834 340.335C494.072 336.803 502.739 323.13 498.405 310.171C496.283 303.835 492.731 302.673 488.812 295.729C484.744 288.511 482.495 278.964 484.116 266.124Z" fill="url(#paint15_linear)"/>
<defs>
<linearGradient id="paint0_linear" x1="574.56" y1="291.035" x2="520.822" y2="257.306" gradientUnits="userSpaceOnUse">
<stop stop-color="#444B8C"/>
<stop offset="0.9964" stop-color="#26264F"/>
</linearGradient>
<linearGradient id="paint1_linear" x1="468.275" y1="224.398" x2="414.538" y2="190.67" gradientUnits="userSpaceOnUse">
<stop stop-color="#444B8C"/>
<stop offset="0.9964" stop-color="#26264F"/>
</linearGradient>
<linearGradient id="paint2_linear" x1="576.932" y1="287.255" x2="523.194" y2="253.526" gradientUnits="userSpaceOnUse">
<stop stop-color="#AD86FF"/>
<stop offset="0.9964" stop-color="#844AFF"/>
</linearGradient>
<linearGradient id="paint3_linear" x1="424.521" y1="217.323" x2="535.739" y2="160.548" gradientUnits="userSpaceOnUse">
<stop stop-color="#AD86FF"/>
<stop offset="0.9964" stop-color="#844AFF"/>
</linearGradient>
<linearGradient id="paint4_linear" x1="550.578" y1="221.194" x2="511.593" y2="28.3482" gradientUnits="userSpaceOnUse">
<stop stop-color="#FFC83C"/>
<stop offset="0.9964" stop-color="#DE5125"/>
</linearGradient>
<linearGradient id="paint5_linear" x1="636.671" y1="119.669" x2="541.886" y2="60.1768" gradientUnits="userSpaceOnUse">
<stop stop-color="#AD86FF"/>
<stop offset="0.9964" stop-color="#844AFF"/>
</linearGradient>
<linearGradient id="paint6_linear" x1="587.125" y1="178.217" x2="510.703" y2="130.25" gradientUnits="userSpaceOnUse">
<stop offset="0.00359712" stop-color="#EBEFF2"/>
<stop offset="1" stop-color="white"/>
</linearGradient>
<linearGradient id="paint7_linear" x1="552.349" y1="122.385" x2="546.903" y2="172.786" gradientUnits="userSpaceOnUse">
<stop offset="0.00359712" stop-color="#EBEFF2"/>
<stop offset="1" stop-color="white"/>
</linearGradient>
<linearGradient id="paint8_linear" x1="551.717" y1="223.69" x2="546.91" y2="104.987" gradientUnits="userSpaceOnUse">
<stop stop-color="#5163A5"/>
<stop offset="0.9964" stop-color="#051525"/>
</linearGradient>
<linearGradient id="paint9_linear" x1="475.154" y1="276.335" x2="492.125" y2="244.019" gradientUnits="userSpaceOnUse">
<stop stop-color="#FFC83C"/>
<stop offset="0.9964" stop-color="#DE5125"/>
</linearGradient>
<linearGradient id="paint10_linear" x1="513.071" y1="269.508" x2="460.689" y2="236.631" gradientUnits="userSpaceOnUse">
<stop stop-color="#AD86FF"/>
<stop offset="0.9964" stop-color="#844AFF"/>
</linearGradient>
<linearGradient id="paint11_linear" x1="484.052" y1="249.843" x2="472.629" y2="296.662" gradientUnits="userSpaceOnUse">
<stop stop-color="#AD86FF"/>
<stop offset="0.9964" stop-color="#844AFF"/>
</linearGradient>
<linearGradient id="paint12_linear" x1="483.312" y1="252.874" x2="474.631" y2="288.457" gradientUnits="userSpaceOnUse">
<stop stop-color="#444B8C"/>
<stop offset="0.9964" stop-color="#26264F"/>
</linearGradient>
<linearGradient id="paint13_linear" x1="114.264" y1="518.468" x2="409.122" y2="175.389" gradientUnits="userSpaceOnUse">
<stop stop-color="#FFC83C"/>
<stop offset="0.9964" stop-color="#DE5125"/>
</linearGradient>
<linearGradient id="paint14_linear" x1="439.211" y1="254.519" x2="367.234" y2="379.896" gradientUnits="userSpaceOnUse">
<stop stop-color="#FFC83C"/>
<stop offset="0.9964" stop-color="#DE5125"/>
</linearGradient>
<linearGradient id="paint15_linear" x1="496.472" y1="286.005" x2="424.493" y2="411.383" gradientUnits="userSpaceOnUse">
<stop stop-color="#FFC83C"/>
<stop offset="0.9964" stop-color="#DE5125"/>
</linearGradient>
</defs>
</svg>
