<svg width="648" height="524" viewBox="0 0 648 524" fill="none" xmlns="http://www.w3.org/2000/svg">
<path opacity="0.2" fill-rule="evenodd" clip-rule="evenodd" d="M172 0C163.163 0 156 7.16344 156 16C156 24.8366 163.163 32 172 32H444C452.837 32 460 24.8366 460 16C460 7.16344 452.837 0 444 0H172ZM128 47C119.163 47 112 54.1634 112 63C112 71.8366 119.163 79 128 79H340C348.837 79 356 71.8366 356 63C356 54.1634 348.837 47 340 47H128ZM70 61.5C70 53.4919 76.4919 47 84.5 47C92.5081 47 99 53.4919 99 61.5V64.5C99 72.5081 92.5081 79 84.5 79C76.4919 79 70 72.5081 70 64.5V61.5ZM387 166C378.163 166 371 173.163 371 182V188C371 196.837 378.163 204 387 204H599C607.837 204 615 196.837 615 188V182C615 173.163 607.837 166 599 166H387ZM66 260C66 251.163 73.1634 244 82 244H199C207.837 244 215 251.163 215 260C215 268.837 207.837 276 199 276H82C73.1634 276 66 268.837 66 260ZM55.5 165C47.4919 165 41 171.492 41 179.5V190.5C41 198.508 47.4919 205 55.5 205C63.5081 205 70 198.508 70 190.5V179.5C70 171.492 63.5081 165 55.5 165Z" fill="#BDC7CD"/>
<path opacity="0.5" fill-rule="evenodd" clip-rule="evenodd" d="M372 63C372 54.1634 379.163 47 388 47H562C570.837 47 578 54.1634 578 63C578 71.8366 570.837 79 562 79H388C379.163 79 372 71.8366 372 63ZM0 123C0 114.163 7.16344 107 16 107H190C198.837 107 206 114.163 206 123C206 131.837 198.837 139 190 139H16C7.16345 139 0 131.837 0 123ZM102 166C93.1634 166 86 173.163 86 182V188C86 196.837 93.1634 204 102 204H276C284.837 204 292 196.837 292 188V182C292 173.163 284.837 166 276 166H102Z" fill="#BDC7CD"/>
<path opacity="0.5" d="M175.305 291.245C158.208 295.128 139.755 299.535 140.002 303.728C140.398 310.489 189.226 313.462 226.174 312.942C280.947 312.17 285.314 304.063 343.479 300.759C404.455 297.293 448.126 303.449 449.943 293.625C450.448 290.899 447.596 287.639 442.159 283.818C392.458 248.89 272.137 269.258 175.305 291.245Z" fill="#BDC7CD"/>
<path d="M146.729 118.018C144.304 134.63 144.546 254.337 146.729 266.552C148.912 278.767 155.847 285.607 166.858 286.585C177.869 287.562 353.055 286.736 419.898 284.924C433.821 284.547 443.377 274.782 444.304 266.552C445.231 258.322 445.759 122.415 442.364 109.223C438.968 96.0306 433.148 90.656 416.656 88.7016C400.165 86.7471 196.769 86.1388 175.104 88.7016C153.439 91.2644 149.154 101.405 146.729 118.018Z" fill="url(#paint0_linear)"/>
<path d="M161.1 126.95C158.928 141.154 159.145 243.51 161.1 253.954C163.055 264.399 169.268 270.247 179.13 271.083C188.993 271.919 345.909 271.212 405.782 269.663C418.253 269.34 426.812 260.991 427.642 253.954C428.473 246.917 428.946 130.71 425.905 119.43C422.863 108.15 417.65 103.554 402.878 101.883C388.106 100.212 205.922 99.6916 186.516 101.883C167.111 104.074 163.272 112.745 161.1 126.95Z" fill="url(#paint1_linear)"/>
<path d="M266.262 278.266C266.296 279.235 267.852 280.024 269.81 280.062C279.479 280.251 306.715 280.786 318.888 281.057C321.288 281.111 323.133 280.034 322.637 278.871L322.551 278.672C322.213 277.879 320.857 277.288 319.223 277.225C310.99 276.905 286.15 276.03 269.726 276.424C267.75 276.472 266.227 277.29 266.262 278.266Z" fill="url(#paint2_linear)"/>
<path d="M226.738 165H225.121V157.922H218.57V165H216.965V149.707H218.57V156.551H225.121V149.707H226.738V165ZM231.098 160.102C231.215 161.258 231.637 162.18 232.363 162.867C233.09 163.555 234.035 163.898 235.199 163.898C236.02 163.898 236.75 163.73 237.391 163.395C238.031 163.059 238.512 162.641 238.832 162.141L239.957 162.914C239.41 163.68 238.758 164.266 238 164.672C237.242 165.07 236.309 165.27 235.199 165.27C234.355 165.27 233.582 165.129 232.879 164.848C232.176 164.566 231.566 164.176 231.051 163.676C230.543 163.168 230.148 162.566 229.867 161.871C229.586 161.176 229.445 160.402 229.445 159.551C229.445 158.723 229.57 157.961 229.82 157.266C230.078 156.562 230.445 155.957 230.922 155.449C231.406 154.934 231.992 154.535 232.68 154.254C233.367 153.965 234.137 153.82 234.988 153.82C235.918 153.82 236.73 153.977 237.426 154.289C238.121 154.602 238.699 155.035 239.16 155.59C239.629 156.137 239.973 156.793 240.191 157.559C240.418 158.324 240.531 159.172 240.531 160.102H231.098ZM238.832 158.73C238.652 157.535 238.219 156.645 237.531 156.059C236.844 155.473 235.996 155.18 234.988 155.18C234.473 155.18 233.996 155.266 233.559 155.438C233.121 155.602 232.734 155.84 232.398 156.152C232.062 156.465 231.781 156.844 231.555 157.289C231.328 157.727 231.184 158.207 231.121 158.73H238.832ZM251.324 165H244.773V163.629H247.246V151.078H244.773V149.707H248.863V163.629H251.324V165ZM264.426 165H257.875V163.629H260.348V151.078H257.875V149.707H261.965V163.629H264.426V165ZM280 159.574C280 160.426 279.863 161.199 279.59 161.895C279.324 162.59 278.938 163.188 278.43 163.688C277.93 164.18 277.328 164.566 276.625 164.848C275.922 165.129 275.137 165.27 274.27 165.27C273.418 165.27 272.641 165.129 271.938 164.848C271.234 164.566 270.629 164.18 270.121 163.688C269.621 163.188 269.234 162.59 268.961 161.895C268.695 161.199 268.562 160.426 268.562 159.574C268.562 158.746 268.695 157.977 268.961 157.266C269.234 156.547 269.621 155.938 270.121 155.438C270.629 154.93 271.234 154.535 271.938 154.254C272.641 153.965 273.418 153.82 274.27 153.82C275.137 153.82 275.922 153.965 276.625 154.254C277.328 154.535 277.93 154.93 278.43 155.438C278.938 155.938 279.324 156.547 279.59 157.266C279.863 157.977 280 158.746 280 159.574ZM278.395 159.574C278.395 158.949 278.301 158.375 278.113 157.852C277.934 157.32 277.664 156.855 277.305 156.457C276.945 156.059 276.508 155.746 275.992 155.52C275.484 155.293 274.91 155.18 274.27 155.18C273.629 155.18 273.051 155.293 272.535 155.52C272.027 155.746 271.598 156.059 271.246 156.457C270.895 156.855 270.625 157.32 270.438 157.852C270.258 158.375 270.168 158.949 270.168 159.574C270.168 160.199 270.258 160.777 270.438 161.309C270.625 161.832 270.895 162.285 271.246 162.668C271.598 163.051 272.027 163.352 272.535 163.57C273.051 163.789 273.629 163.898 274.27 163.898C274.91 163.898 275.484 163.789 275.992 163.57C276.508 163.352 276.945 163.051 277.305 162.668C277.664 162.285 277.934 161.832 278.113 161.309C278.301 160.777 278.395 160.199 278.395 159.574ZM306.285 154.078L304.07 165H302.195L300.449 156.984L298.797 165H296.922L294.684 154.078H296.395L297.977 162.82L299.676 154.078H301.27L303.016 162.82L304.598 154.078H306.285ZM319.305 159.574C319.305 160.426 319.168 161.199 318.895 161.895C318.629 162.59 318.242 163.188 317.734 163.688C317.234 164.18 316.633 164.566 315.93 164.848C315.227 165.129 314.441 165.27 313.574 165.27C312.723 165.27 311.945 165.129 311.242 164.848C310.539 164.566 309.934 164.18 309.426 163.688C308.926 163.188 308.539 162.59 308.266 161.895C308 161.199 307.867 160.426 307.867 159.574C307.867 158.746 308 157.977 308.266 157.266C308.539 156.547 308.926 155.938 309.426 155.438C309.934 154.93 310.539 154.535 311.242 154.254C311.945 153.965 312.723 153.82 313.574 153.82C314.441 153.82 315.227 153.965 315.93 154.254C316.633 154.535 317.234 154.93 317.734 155.438C318.242 155.938 318.629 156.547 318.895 157.266C319.168 157.977 319.305 158.746 319.305 159.574ZM317.699 159.574C317.699 158.949 317.605 158.375 317.418 157.852C317.238 157.32 316.969 156.855 316.609 156.457C316.25 156.059 315.812 155.746 315.297 155.52C314.789 155.293 314.215 155.18 313.574 155.18C312.934 155.18 312.355 155.293 311.84 155.52C311.332 155.746 310.902 156.059 310.551 156.457C310.199 156.855 309.93 157.32 309.742 157.852C309.562 158.375 309.473 158.949 309.473 159.574C309.473 160.199 309.562 160.777 309.742 161.309C309.93 161.832 310.199 162.285 310.551 162.668C310.902 163.051 311.332 163.352 311.84 163.57C312.355 163.789 312.934 163.898 313.574 163.898C314.215 163.898 314.789 163.789 315.297 163.57C315.812 163.352 316.25 163.051 316.609 162.668C316.969 162.285 317.238 161.832 317.418 161.309C317.605 160.777 317.699 160.199 317.699 159.574ZM331.527 155.613C330.949 155.324 330.262 155.18 329.465 155.18C328.809 155.18 328.223 155.32 327.707 155.602C327.191 155.883 326.754 156.254 326.395 156.715C326.035 157.168 325.758 157.691 325.562 158.285C325.375 158.871 325.281 159.477 325.281 160.102V163.629H327.754V165H321.203V163.629H323.676V155.449H321.203V154.078H325.281V156.82C326.016 154.82 327.41 153.82 329.465 153.82C330.02 153.82 330.5 153.855 330.906 153.926C331.32 153.996 331.703 154.121 332.055 154.301L331.527 155.613ZM343.035 165H336.484V163.629H338.957V151.078H336.484V149.707H340.574V163.629H343.035V165ZM357.754 165H356.137V163.992C355.676 164.406 355.168 164.723 354.613 164.941C354.066 165.16 353.504 165.27 352.926 165.27C352.059 165.27 351.281 165.129 350.594 164.848C349.906 164.566 349.324 164.176 348.848 163.676C348.379 163.168 348.016 162.562 347.758 161.859C347.508 161.156 347.383 160.387 347.383 159.551C347.383 158.723 347.508 157.957 347.758 157.254C348.016 156.543 348.379 155.938 348.848 155.438C349.324 154.93 349.906 154.535 350.594 154.254C351.281 153.965 352.059 153.82 352.926 153.82C353.504 153.82 354.066 153.926 354.613 154.137C355.168 154.34 355.676 154.648 356.137 155.062V151.078H353.957V149.707H357.754V165ZM356.137 156.621C355.676 156.113 355.172 155.746 354.625 155.52C354.086 155.293 353.512 155.18 352.902 155.18C352.262 155.18 351.695 155.293 351.203 155.52C350.719 155.746 350.312 156.055 349.984 156.445C349.656 156.836 349.406 157.297 349.234 157.828C349.07 158.352 348.988 158.926 348.988 159.551C348.988 160.176 349.07 160.754 349.234 161.285C349.406 161.809 349.656 162.266 349.984 162.656C350.312 163.047 350.719 163.355 351.203 163.582C351.695 163.809 352.262 163.922 352.902 163.922C354.137 163.922 355.215 163.434 356.137 162.457V156.621ZM367.059 156.27H364.879V154.078H367.059V156.27ZM367.656 162.82L364.445 169.371H363.32L365.5 162.82H367.656Z" fill="#BDC7CD"/>
<path d="M281.398 213.539H277.039V209.156H281.398V213.539ZM281.398 231H277.039V226.641H281.398V231ZM312.031 217.758C312.031 219.867 311.797 221.945 311.328 223.992C310.859 226.039 310.172 228.008 309.266 229.898C308.375 231.789 307.281 233.562 305.984 235.219C304.703 236.891 303.227 238.383 301.555 239.695L299.867 237.586C301.352 236.398 302.672 235.047 303.828 233.531C305 232.031 305.992 230.43 306.805 228.727C307.633 227.008 308.25 225.227 308.656 223.383C309.078 221.523 309.289 219.648 309.289 217.758C309.289 215.867 309.078 213.984 308.656 212.109C308.25 210.234 307.633 208.445 306.805 206.742C305.992 205.023 305 203.414 303.828 201.914C302.672 200.414 301.352 199.07 299.867 197.883L301.555 195.773C303.227 197.086 304.703 198.578 305.984 200.25C307.281 201.906 308.375 203.68 309.266 205.57C310.172 207.445 310.859 209.422 311.328 211.5C311.797 213.562 312.031 215.648 312.031 217.758Z" fill="#BDC7CD"/>
<path opacity="0.3" d="M338.186 369.73C214.949 365.042 52.8838 383.13 50.0387 418.151C48.2566 440.087 108.352 476.054 163.978 474.64C201.922 473.677 239.377 455.283 243.078 463.544C246.004 470.078 223.856 484.464 227.07 491.788C231.812 502.592 281.562 474.879 310.878 498.85C320.353 506.599 317.43 511.354 325.001 518.017C355.536 544.874 408.915 472.727 498.264 470.606C538.158 469.66 565.618 483.136 614.401 466.233C631.766 460.217 647.486 454.772 647.988 446.395C649.599 419.376 492.016 375.584 338.186 369.73Z" fill="#BDC7CD"/>
<path d="M572.048 232.405C572.048 232.405 603.387 260.669 585.161 313.632C583.465 318.564 577.024 319.766 573.64 315.794L552.081 290.487C548.625 286.428 547.041 281.104 547.725 275.817L551.225 248.684L572.048 232.405Z" fill="url(#paint3_linear)"/>
<path d="M504.308 189.934C504.308 189.934 465.21 174.036 425.432 213.486C421.726 217.16 423.448 223.478 428.499 224.792L460.679 233.178C465.838 234.522 471.325 233.626 475.79 230.714L498.705 215.753L504.308 189.934Z" fill="url(#paint4_linear)"/>
<path d="M574.421 228.623C574.421 228.623 605.76 256.887 587.533 309.85C585.837 314.782 579.397 315.984 576.012 312.011L554.453 286.704C550.998 282.646 549.414 277.322 550.097 272.035L553.598 244.902L574.421 228.623Z" fill="url(#paint5_linear)"/>
<path d="M506.681 186.152C506.681 186.152 467.582 170.254 427.804 209.704C424.098 213.378 425.821 219.696 430.871 221.01L463.051 229.396C468.21 230.74 473.698 229.844 478.162 226.932L501.077 211.971L506.681 186.152Z" fill="url(#paint6_linear)"/>
<path d="M527.126 104.078C561.917 60.2701 628.323 67.3978 628.368 67.4724C628.454 67.4799 663.776 124.135 639.456 174.503C617.396 220.192 561.301 257.791 550.489 264.735C549.328 265.482 547.422 266.539 546.563 265.456C529.861 244.409 509.239 232.215 485.536 227.219C484.225 226.943 484.389 224.8 484.55 223.47C486.082 210.899 495.514 143.886 527.126 104.078Z" fill="url(#paint7_linear)"/>
<path d="M606.129 102.909C589.737 92.6339 569.983 83.8671 553.004 82.299C582.901 65.5496 617.695 66.6659 626.347 67.2895C627.629 67.3828 628.779 68.1034 629.418 69.2161C633.744 76.732 649.894 107.55 647.817 141.743C640.356 128.645 622.522 113.184 606.129 102.909Z" fill="url(#paint8_linear)"/>
<path d="M535.677 130.288C523.753 149.289 531.198 175.421 552.305 188.657C573.416 201.893 600.197 197.219 612.122 178.218C624.046 159.217 616.601 133.085 595.494 119.849C574.387 106.613 547.605 111.287 535.677 130.288Z" fill="url(#paint9_linear)"/>
<path d="M538.868 132.286C527.937 149.704 534.762 173.655 554.109 185.79C573.46 197.921 598.008 193.638 608.939 176.22C619.87 158.803 613.044 134.851 593.697 122.716C574.346 110.586 549.798 114.868 538.868 132.286Z" fill="url(#paint10_linear)"/>
<path d="M543.38 135.116C533.858 150.286 539.801 171.154 556.657 181.724C573.513 192.29 594.896 188.56 604.419 173.386C613.941 158.213 607.997 137.349 591.142 126.779C574.29 116.212 552.903 119.946 543.38 135.116Z" fill="url(#paint11_linear)"/>
<path d="M484.105 226.461C480.852 231.647 492.447 244.771 510.002 255.778C527.559 266.785 544.43 271.504 547.684 266.322C550.938 261.136 539.342 248.012 521.788 237.005C504.23 225.998 487.359 221.275 484.105 226.461Z" fill="url(#paint12_linear)"/>
<path d="M512.086 237.599L525.729 246.153C532.988 250.704 536.761 259.198 535.27 267.633L533.854 275.634C533.335 278.58 529.995 280.062 527.459 278.471L482.215 250.103C479.679 248.512 479.563 244.864 481.987 243.113L488.581 238.357C495.529 233.35 504.824 233.047 512.086 237.599Z" fill="url(#paint13_linear)"/>
<path d="M479.731 246.026C476.66 250.917 485.917 262.248 500.404 271.333C514.892 280.417 529.128 283.814 532.199 278.923C535.27 274.032 526.013 262.7 511.526 253.616C497.039 244.528 482.802 241.131 479.731 246.026Z" fill="url(#paint14_linear)"/>
<path d="M486.029 249.972C483.695 253.691 490.729 262.301 501.742 269.204C512.755 276.108 523.573 278.692 525.905 274.973C528.239 271.254 521.205 262.644 510.192 255.741C499.183 248.837 488.364 246.253 486.029 249.972Z" fill="url(#paint15_linear)"/>
<path d="M98.4694 391.513C118.556 392.372 122.554 406.53 137.235 408.991C181.664 416.439 213.089 298.204 262.08 298.398C303.337 298.563 309.863 380.319 358.76 383.833C401.901 386.936 450.372 326.842 487.012 281.417C499.116 266.412 501.234 261.8 501.768 262.133C504.682 263.932 451.309 406.328 381.926 409.782C332.842 412.228 314.798 344.166 267.362 348.949C219.361 353.788 217.785 429.832 154.001 448.807C107.921 462.517 51.8549 439.749 50.0468 421.629C48.743 408.554 74.9567 390.509 98.4694 391.513Z" fill="url(#paint16_linear)"/>
<path d="M493.628 258.477C496.433 262.058 477.579 282.463 460.032 296.837C456.973 299.343 448.833 305.854 437.028 312.896C417.583 324.493 406.115 332.196 400.261 328.025C396.435 325.299 395.852 318.22 397.511 313.243C400.885 303.11 412.32 305.403 421.543 293.503C429 283.882 425.062 277.822 432.194 272.412C439.019 267.233 445.108 270.903 459.076 269.466C480.755 267.233 491.517 255.782 493.628 258.477Z" fill="url(#paint17_linear)"/>
<path d="M509.116 266.124C495.791 280.424 491.009 293.141 489.123 302.195C486.885 312.941 488.857 317.937 483.922 327.454C479.059 336.833 473.167 339.644 471.68 349.027C471.348 351.118 469.895 360.296 474.43 363.809C482.107 369.757 505.44 358.313 516.834 340.335C519.072 336.803 527.739 323.13 523.405 310.171C521.283 303.835 517.731 302.673 513.812 295.729C509.744 288.511 507.495 278.964 509.116 266.124Z" fill="url(#paint18_linear)"/>
<defs>
<linearGradient id="paint0_linear" x1="444.634" y1="88.5302" x2="372.967" y2="347.941" gradientUnits="userSpaceOnUse">
<stop stop-color="#783419"/>
<stop offset="1" stop-color="#E05529"/>
</linearGradient>
<linearGradient id="paint1_linear" x1="375.881" y1="271.438" x2="203.905" y2="101.684" gradientUnits="userSpaceOnUse">
<stop stop-color="#0E1C1C"/>
<stop offset="1" stop-color="#203153"/>
</linearGradient>
<linearGradient id="paint2_linear" x1="311.712" y1="281.059" x2="310.462" y2="271.701" gradientUnits="userSpaceOnUse">
<stop stop-color="#0E1C1C"/>
<stop offset="1" stop-color="#783419"/>
</linearGradient>
<linearGradient id="paint3_linear" x1="599.56" y1="291.035" x2="545.822" y2="257.306" gradientUnits="userSpaceOnUse">
<stop stop-color="#444B8C"/>
<stop offset="0.9964" stop-color="#26264F"/>
</linearGradient>
<linearGradient id="paint4_linear" x1="493.275" y1="224.398" x2="439.538" y2="190.67" gradientUnits="userSpaceOnUse">
<stop stop-color="#444B8C"/>
<stop offset="0.9964" stop-color="#26264F"/>
</linearGradient>
<linearGradient id="paint5_linear" x1="601.932" y1="287.255" x2="548.194" y2="253.526" gradientUnits="userSpaceOnUse">
<stop stop-color="#AD86FF"/>
<stop offset="0.9964" stop-color="#844AFF"/>
</linearGradient>
<linearGradient id="paint6_linear" x1="449.521" y1="217.323" x2="560.739" y2="160.548" gradientUnits="userSpaceOnUse">
<stop stop-color="#AD86FF"/>
<stop offset="0.9964" stop-color="#844AFF"/>
</linearGradient>
<linearGradient id="paint7_linear" x1="575.578" y1="221.194" x2="536.593" y2="28.3482" gradientUnits="userSpaceOnUse">
<stop stop-color="#FFC83C"/>
<stop offset="0.9964" stop-color="#DE5125"/>
</linearGradient>
<linearGradient id="paint8_linear" x1="661.671" y1="119.669" x2="566.886" y2="60.1768" gradientUnits="userSpaceOnUse">
<stop stop-color="#AD86FF"/>
<stop offset="0.9964" stop-color="#844AFF"/>
</linearGradient>
<linearGradient id="paint9_linear" x1="612.125" y1="178.217" x2="535.703" y2="130.25" gradientUnits="userSpaceOnUse">
<stop offset="0.00359712" stop-color="#EBEFF2"/>
<stop offset="1" stop-color="white"/>
</linearGradient>
<linearGradient id="paint10_linear" x1="577.349" y1="122.385" x2="571.903" y2="172.786" gradientUnits="userSpaceOnUse">
<stop offset="0.00359712" stop-color="#EBEFF2"/>
<stop offset="1" stop-color="white"/>
</linearGradient>
<linearGradient id="paint11_linear" x1="576.717" y1="223.69" x2="571.91" y2="104.987" gradientUnits="userSpaceOnUse">
<stop stop-color="#5163A5"/>
<stop offset="0.9964" stop-color="#051525"/>
</linearGradient>
<linearGradient id="paint12_linear" x1="500.154" y1="276.335" x2="517.125" y2="244.019" gradientUnits="userSpaceOnUse">
<stop stop-color="#FFC83C"/>
<stop offset="0.9964" stop-color="#DE5125"/>
</linearGradient>
<linearGradient id="paint13_linear" x1="538.071" y1="269.508" x2="485.689" y2="236.631" gradientUnits="userSpaceOnUse">
<stop stop-color="#AD86FF"/>
<stop offset="0.9964" stop-color="#844AFF"/>
</linearGradient>
<linearGradient id="paint14_linear" x1="509.052" y1="249.843" x2="497.629" y2="296.662" gradientUnits="userSpaceOnUse">
<stop stop-color="#AD86FF"/>
<stop offset="0.9964" stop-color="#844AFF"/>
</linearGradient>
<linearGradient id="paint15_linear" x1="508.312" y1="252.874" x2="499.631" y2="288.457" gradientUnits="userSpaceOnUse">
<stop stop-color="#444B8C"/>
<stop offset="0.9964" stop-color="#26264F"/>
</linearGradient>
<linearGradient id="paint16_linear" x1="139.264" y1="518.468" x2="434.122" y2="175.389" gradientUnits="userSpaceOnUse">
<stop stop-color="#FFC83C"/>
<stop offset="0.9964" stop-color="#DE5125"/>
</linearGradient>
<linearGradient id="paint17_linear" x1="464.211" y1="254.519" x2="392.234" y2="379.896" gradientUnits="userSpaceOnUse">
<stop stop-color="#FFC83C"/>
<stop offset="0.9964" stop-color="#DE5125"/>
</linearGradient>
<linearGradient id="paint18_linear" x1="521.472" y1="286.005" x2="449.493" y2="411.383" gradientUnits="userSpaceOnUse">
<stop stop-color="#FFC83C"/>
<stop offset="0.9964" stop-color="#DE5125"/>
</linearGradient>
</defs>
</svg>
