<svg width="649" height="480" viewBox="0 0 649 480" fill="none" xmlns="http://www.w3.org/2000/svg">
<g opacity="0.5" filter="url(#filter0_f)">
<path d="M190.33 24.7198C179.405 18.408 170.571 23.4539 170.571 36.0071V191.427C170.571 203.963 179.423 219.241 190.33 225.553L275.161 276.873C286.086 283.185 319 251.907 319 239.372V119.572C319 107.036 305.775 92.4435 294.85 86.1318L190.33 24.7198Z" fill="url(#paint0_linear)"/>
</g>
<path d="M170.88 27.445C161.009 21.7486 153 26.3023 153 37.6423V193.906C153 205.246 161.009 219.065 170.88 224.762L265.196 279.546C275.067 285.242 283.076 280.688 283.076 269.348V113.084C283.076 101.744 275.067 87.9253 265.196 82.2289L170.88 27.445Z" fill="url(#paint1_linear)"/>
<g opacity="0.6">
<path d="M224.947 86.7041L232.693 91.2225V87.4249L224.947 82.9241V86.7041Z" fill="#3E4380"/>
<path d="M230.304 117.788L217.553 110.404V114.201L230.304 121.568V117.788Z" fill="#3E4380"/>
<path d="M229.619 97.5518V93.7718L215.375 85.6844V89.4819L229.619 97.5518Z" fill="#F9A0CA"/>
<path d="M214.655 100.681V104.461L221.891 108.646V104.848L214.655 100.681Z" fill="#3E4380"/>
<path d="M203.713 106.325V102.527L191.945 95.864V99.6616L203.713 106.325Z" fill="#3E4380"/>
<path d="M230.691 110.035L225.685 107.046V110.826L230.691 113.832V110.035Z" fill="#3E4380"/>
<path d="M221.259 96.831V100.611L227.248 104.022V100.242L221.259 96.831Z" fill="#F9A0CA"/>
<path d="M236.469 89.5874V93.385L239.736 95.2838V91.4862L236.469 89.5874Z" fill="#3E4380"/>
<path d="M217.483 98.4485V94.6685L205.294 87.7238V91.5038L217.483 98.4485Z" fill="#3E4380"/>
<path d="M233.395 95.9343V99.7319L246.305 107.186V103.389L233.395 95.9343Z" fill="#3E4380"/>
<path opacity="0.6" d="M210.932 102.316V98.5188L195.634 89.939V93.7366L210.932 102.316Z" fill="#F9F18A"/>
<path d="M199.305 68.226V72.0235L211.283 78.8803V75.0827L199.305 68.226Z" fill="#F9A0CA"/>
<path d="M221.154 80.744L215.059 77.2628V81.0428L221.154 84.5415V80.744Z" fill="#3E4380"/>
<path d="M213.83 108.259L207.507 104.672V108.47L213.83 112.039V108.259Z" fill="#F9A0CA"/>
<path d="M242.932 120.9L259.284 130.412V126.632L242.932 117.12V120.9Z" fill="#3E4380"/>
<path d="M188.169 93.7191L182.391 90.3962V94.1938L188.169 97.5167V93.7191Z" fill="#3E4380"/>
<path opacity="0.6" d="M170.571 52.3147V56.0947L196.266 70.7577V66.9601L170.571 52.3147Z" fill="#F9F18A"/>
<path d="M246.726 115.204L252.768 118.737V114.94L246.726 111.424V115.204Z" fill="#3E4380"/>
<path d="M250.081 109.349L267.065 119.283V115.502L250.081 105.569V109.349Z" fill="#3E4380"/>
<path d="M231.042 106.184L242.985 113.059V109.261L231.042 102.404V106.184Z" fill="#F9A0CA"/>
<path d="M243.512 93.6663V97.4463L257.071 105.217V101.42L243.512 93.6663Z" fill="#3E4380"/>
<path d="M191.84 87.8293L182.391 82.5197V86.3173L191.84 91.6093V87.8293Z" fill="#3E4380"/>
<path d="M239.209 114.957L234.484 112.215V116.012L239.209 118.755V114.957Z" fill="#3E4380"/>
<path d="M201.518 85.5612L182.391 74.6607V78.4408L201.518 89.3413V85.5612Z" fill="#F9A0CA"/>
<path d="M233.817 131.168L244.092 137.093V133.295L233.817 127.388V131.168Z" fill="#3E4380"/>
<path opacity="0.6" d="M211.599 83.5218L182.391 66.7843V70.5643L211.599 87.3018V83.5218Z" fill="#F9F18A"/>
</g>
<g opacity="0.6">
<path d="M224.947 203.234L232.693 207.735V203.955L224.947 199.436V203.234Z" fill="#3E4380"/>
<path d="M230.304 234.3L217.553 226.934V230.714L230.304 238.098V234.3Z" fill="#3E4380"/>
<path opacity="0.6" d="M229.619 214.082V210.284L215.375 202.214V205.994L229.619 214.082Z" fill="#F9F18A"/>
<path d="M214.655 217.194V220.991L221.891 225.176V221.378L214.655 217.194Z" fill="#3E4380"/>
<path d="M203.713 222.837V219.057L191.945 212.394V216.174L203.713 222.837Z" fill="#3E4380"/>
<path d="M230.691 226.565L225.685 223.558V227.356L230.691 230.345V226.565Z" fill="#3E4380"/>
<path d="M221.259 213.343V217.141L227.248 220.552V216.754L221.259 213.343Z" fill="#F9A0CA"/>
<path d="M236.469 206.117V209.915L239.736 211.796V208.016L236.469 206.117Z" fill="#3E4380"/>
<path d="M217.483 214.978V211.181L205.294 204.236V208.034L217.483 214.978Z" fill="#3E4380"/>
<path d="M233.395 212.464V216.244L246.305 223.716V219.919L233.395 212.464Z" fill="#3E4380"/>
<path opacity="0.6" d="M210.932 218.829V215.049L195.634 206.469V210.249L210.932 218.829Z" fill="#F9F18A"/>
<path d="M199.305 184.756V188.536L211.283 195.41V191.613L199.305 184.756Z" fill="#3E4380"/>
<path d="M221.154 197.274L215.059 193.775V197.573L221.154 201.071V197.274Z" fill="#3E4380"/>
<path d="M213.83 224.771L207.507 221.202V224.982L213.83 228.569V224.771Z" fill="#3E4380"/>
<path d="M242.932 237.43L259.284 246.941V243.144L242.932 233.632V237.43Z" fill="#3E4380"/>
<path d="M188.169 210.249L182.391 206.926V210.706L188.169 214.029V210.249Z" fill="#3E4380"/>
<path opacity="0.6" d="M170.571 168.827V172.625L196.266 187.288V183.49L170.571 168.827Z" fill="#F9F18A"/>
<path d="M246.726 231.733L252.768 235.267V231.47L246.726 227.936V231.733Z" fill="#3E4380"/>
<path d="M250.081 225.879L267.065 235.812V232.032L250.081 222.081V225.879Z" fill="#3E4380"/>
<path d="M231.042 222.714L242.985 229.571V225.791L231.042 218.917V222.714Z" fill="#3E4380"/>
<path d="M243.512 210.179V213.976L257.071 221.747V217.95L243.512 210.179Z" fill="#F9A0CA"/>
<path d="M191.84 204.342L182.391 199.05V202.83L191.84 208.139V204.342Z" fill="#F9A0CA"/>
<path d="M239.209 231.487L234.484 228.745V232.525L239.209 235.267V231.487Z" fill="#F9A0CA"/>
<path d="M201.518 202.074L182.391 191.173V194.971L201.518 205.871V202.074Z" fill="#3E4380"/>
<path d="M211.599 200.034L182.391 183.297V187.094L211.599 203.832V200.034Z" fill="#F9A0CA"/>
</g>
<g opacity="0.6">
<path d="M230.304 149.065L217.553 141.699V145.496L230.304 152.863V149.065Z" fill="#3E4380"/>
<path d="M229.619 128.847V125.067L215.375 116.979V120.759L229.619 128.847Z" fill="#3E4380"/>
<path d="M214.655 131.959V135.756L221.891 139.941V136.143L214.655 131.959Z" fill="#3E4380"/>
<path d="M203.713 137.602V133.822L191.945 127.159V130.939L203.713 137.602Z" fill="#F9A0CA"/>
<path d="M230.691 141.33L225.685 138.341V142.121L230.691 145.11V141.33Z" fill="#3E4380"/>
<path d="M221.259 128.108V131.906L227.248 135.317V131.537L221.259 128.108Z" fill="#F9A0CA"/>
<path d="M217.483 129.743V125.963L205.294 119.001V122.799L217.483 129.743Z" fill="#3E4380"/>
<path d="M211.105 133.388V129.608L195.807 121.028V124.826L211.105 133.388Z" fill="#3E4380"/>
<path d="M213.83 139.554L207.507 135.967V139.747L213.83 143.334V139.554Z" fill="#F9A0CA"/>
<path d="M242.932 152.195L259.284 161.707V157.909L242.932 148.415V152.195Z" fill="#3E4380"/>
<path d="M188.169 125.014L182.391 121.691V125.471L188.169 128.812V125.014Z" fill="#3E4380"/>
<path d="M246.726 146.499L252.768 150.033V146.235L246.726 142.719V146.499Z" fill="#3E4380"/>
<path d="M231.042 137.479L242.985 144.354V140.556L231.042 133.682V137.479Z" fill="#3E4380"/>
<path d="M191.84 119.107L182.391 113.815V117.612L191.84 122.904V119.107Z" fill="#F9A0CA"/>
<path d="M239.209 146.252L234.484 143.51V147.307L239.209 150.05V146.252Z" fill="#3E4380"/>
<path d="M201.518 116.839L182.391 105.938V109.736L201.518 120.636V116.839Z" fill="#3E4380"/>
<path d="M212.6 146.463V150.261L218.589 153.672V149.892L212.6 146.463Z" fill="#3E4380"/>
<path opacity="0.6" d="M208.806 148.099V144.319L196.617 137.356V141.154L208.806 148.099Z" fill="#F9F18A"/>
<path d="M238.05 164.854L244.092 168.388V164.59L238.05 161.074V164.854Z" fill="#3E4380"/>
<path d="M222.365 155.834L234.326 162.709V158.911L222.365 152.037V155.834Z" fill="#F9A0CA"/>
<path opacity="0.6" d="M192.841 135.194L173.714 124.293V128.091L192.841 138.991V135.194Z" fill="#F9F18A"/>
<path d="M211.599 114.817L182.391 98.0617V101.859L211.599 118.597V114.817Z" fill="#F9A0CA"/>
</g>
<g opacity="0.6">
<path d="M230.304 187.833L217.553 180.466V184.264L230.304 191.63V187.833Z" fill="#3E4380"/>
<path d="M229.619 167.614V163.834L215.375 155.746V159.526L229.619 167.614Z" fill="#3E4380"/>
<path d="M214.655 170.726V174.523L221.891 178.708V174.91L214.655 170.726Z" fill="#F9A0CA"/>
<path d="M203.713 176.37V172.59L191.945 165.926V169.706L203.713 176.37Z" fill="#F9A0CA"/>
<path d="M230.691 180.097L225.685 177.108V180.888L230.691 183.877V180.097Z" fill="#3E4380"/>
<path opacity="0.6" d="M221.259 166.876V170.673L227.248 174.084V170.304L221.259 166.876Z" fill="#F9F18A"/>
<path d="M217.483 168.511V164.731L205.294 157.768V161.566L217.483 168.511Z" fill="#3E4380"/>
<path d="M210.932 172.361V168.581L195.634 160.001V163.799L210.932 172.361Z" fill="#3E4380"/>
<path d="M213.83 178.321L207.507 174.734V178.514L213.83 182.101V178.321Z" fill="#3E4380"/>
<path d="M242.932 190.962L259.284 200.474V196.676L242.932 187.182V190.962Z" fill="#3E4380"/>
<path d="M188.17 163.781L182.391 160.458V164.238L188.17 167.579V163.781Z" fill="#3E4380"/>
<path d="M246.726 185.266L252.768 188.8V185.002L246.726 181.486V185.266Z" fill="#3E4380"/>
<path d="M231.042 176.246L242.985 183.121V179.323L231.042 172.449V176.246Z" fill="#3E4380"/>
<path d="M191.84 157.874L182.391 152.582V156.379L191.84 161.671V157.874Z" fill="#3E4380"/>
<path d="M239.209 185.02L234.484 182.277V186.074L239.209 188.817V185.02Z" fill="#3E4380"/>
<path d="M201.518 155.606L182.391 144.705V148.503L201.518 159.403V155.606Z" fill="#F9A0CA"/>
<path d="M212.6 185.231V189.028L218.589 192.439V188.659L212.6 185.231Z" fill="#F9A0CA"/>
<path d="M208.806 186.866V183.086L196.617 176.123V179.921L208.806 186.866Z" fill="#3E4380"/>
<path d="M238.05 203.621L244.092 207.155V203.357L238.05 199.841V203.621Z" fill="#3E4380"/>
<path d="M222.365 194.601L234.326 201.476V197.678L222.365 190.804V194.601Z" fill="#F9A0CA"/>
<path d="M192.841 173.961L181.917 167.702V171.499L192.841 177.758V173.961Z" fill="#3E4380"/>
<path d="M211.599 153.584L182.391 136.829V140.626L211.599 157.364V153.584Z" fill="#3E4380"/>
</g>
<defs>
<filter id="filter0_f" x="150.571" y="2" width="188.429" height="295.705" filterUnits="userSpaceOnUse" color-interpolation-filters="sRGB">
<feFlood flood-opacity="0" result="BackgroundImageFix"/>
<feBlend mode="normal" in="SourceGraphic" in2="BackgroundImageFix" result="shape"/>
<feGaussianBlur stdDeviation="10" result="effect1_foregroundBlur"/>
</filter>
<linearGradient id="paint0_linear" x1="119.262" y1="-75.7623" x2="262.946" y2="214.895" gradientUnits="userSpaceOnUse">
<stop offset="0.0101" stop-color="#DA25DE"/>
<stop offset="0.904" stop-color="#051525"/>
</linearGradient>
<linearGradient id="paint1_linear" x1="159.971" y1="25.0315" x2="356.1" y2="102.33" gradientUnits="userSpaceOnUse">
<stop stop-color="#9D7BF3"/>
<stop offset="0.9964" stop-color="#716BDE"/>
</linearGradient>
</defs>
</svg>
