<svg width="649" height="480" viewBox="0 0 649 480" fill="none" xmlns="http://www.w3.org/2000/svg">
<g opacity="0.5" filter="url(#filter0_f)">
<path d="M415.798 216.912C400.374 208.022 387.877 215.137 387.877 232.813V260.753C387.877 278.429 400.374 299.95 415.798 308.84L575.865 401.446C591.289 410.336 609.973 402.247 609.973 384.571V356.631C609.973 338.955 591.289 318.408 575.865 309.518L415.798 216.912Z" fill="url(#paint0_linear)"/>
</g>
<path opacity="0.8" d="M574.366 400.177L398.91 298.733C386.291 291.461 375.973 271.767 375.973 254.978V243.061C375.973 226.273 386.291 218.479 398.91 225.751L574.366 327.195C586.984 334.467 597.302 354.161 597.302 370.95V382.867C597.32 399.655 586.984 407.449 574.366 400.177Z" fill="url(#paint1_linear)"/>
<path opacity="0.8" fill-rule="evenodd" clip-rule="evenodd" d="M453.654 296.001C453.654 310.475 443.405 316.321 430.77 309.031C418.134 301.742 407.885 284.101 407.885 269.609C407.885 255.134 418.134 249.289 430.77 256.578C443.405 263.868 453.654 281.526 453.654 296.001Z" fill="url(#paint2_linear)"/>
<path opacity="0.8" fill-rule="evenodd" clip-rule="evenodd" d="M507.265 327.855C507.265 342.33 497.017 348.175 484.381 340.886C471.745 333.596 461.497 315.955 461.497 301.463C461.497 286.989 471.745 281.143 484.381 288.433C497.017 295.722 507.265 313.381 507.265 327.855Z" fill="url(#paint3_linear)"/>
<path opacity="0.8" fill-rule="evenodd" clip-rule="evenodd" d="M561.294 358.597C561.294 373.071 551.046 378.917 538.41 371.627C525.774 364.338 515.526 346.697 515.526 332.205C515.526 317.73 525.774 311.884 538.41 319.174C551.046 326.463 561.294 344.104 561.294 358.597Z" fill="url(#paint4_linear)"/>
<g opacity="0.5">
<path opacity="0.6" d="M431.937 308.457C419.301 301.168 409.053 283.527 409.053 269.035C409.053 261.902 411.545 256.891 415.572 254.49C410.866 256.578 407.885 261.832 407.885 269.626C407.885 284.101 418.134 301.759 430.77 309.049C437.183 312.754 442.987 313.05 447.135 310.58C443.092 312.354 437.776 311.815 431.937 308.457Z" fill="url(#paint5_linear)"/>
<path opacity="0.6" d="M485.548 340.312C472.913 333.022 462.664 315.381 462.664 300.889C462.664 293.756 465.157 288.746 469.183 286.345C464.477 288.433 461.497 293.687 461.497 301.481C461.497 315.955 471.745 333.614 484.381 340.903C490.795 344.609 496.598 344.905 500.746 342.434C496.703 344.209 491.387 343.67 485.548 340.312Z" fill="url(#paint6_linear)"/>
<path opacity="0.6" d="M539.578 371.036C526.942 363.746 516.694 346.105 516.694 331.613C516.694 324.48 519.186 319.47 523.212 317.069C518.506 319.157 515.526 324.411 515.526 332.205C515.526 346.679 525.774 364.338 538.41 371.627C544.824 375.333 550.628 375.629 554.776 373.158C550.732 374.95 545.417 374.411 539.578 371.036Z" fill="url(#paint7_linear)"/>
</g>
<path opacity="0.9" d="M570.044 351.411V374.863L582.732 370.444L570.044 351.411ZM399.206 275.559V252.107L386.518 256.526L399.206 275.559Z" fill="url(#paint8_linear)"/>
<path opacity="0.9" d="M440.76 284.047C440.413 283.707 440.065 283.436 439.788 283.137C439.857 282.97 439.926 282.733 439.926 282.525C440.69 279.284 440.204 276.009 438.468 274.035C436.871 272.137 434.163 271.615 431.455 272.345C431.177 272.394 430.899 272.512 430.691 272.595C430.552 272.373 430.344 272.116 430.205 271.831C427.358 267.673 424.58 265.023 422.844 264.996C421.247 264.975 420.761 267.547 421.456 271.427C421.525 271.817 421.594 272.206 421.664 272.589C421.247 272.484 420.9 272.352 420.483 272.255C417.15 271.511 415.067 272.109 415.067 273.986C415.067 275.933 417.359 279.208 420.761 282.351C421.039 282.58 421.317 282.879 421.594 283.109C421.525 283.422 421.386 283.762 421.317 284.068C420.692 287.183 421.178 290.173 422.775 292.002C424.441 293.942 427.288 294.609 429.997 293.74C430.205 293.65 430.413 293.566 430.622 293.476C430.899 293.914 431.177 294.352 431.455 294.721C434.094 298.538 436.732 300.972 438.329 300.992C439.996 300.985 440.551 298.385 439.857 294.366C439.788 294.046 439.718 293.726 439.649 293.413C439.857 293.462 440.065 293.518 440.204 293.525C443.815 294.429 446.107 293.81 446.107 291.863C446.315 290.243 444.162 287.121 440.76 284.047ZM432.427 273.944C434.719 273.256 436.871 273.736 437.843 274.848C438.885 276.079 439.302 278.749 438.607 281.551C438.538 281.718 438.538 281.927 438.468 282.094C437.149 281.051 435.76 279.973 434.302 279.062C433.469 277.331 432.566 275.697 431.663 274.271C431.941 274.076 432.149 273.993 432.427 273.944ZM424.372 281.037C424.65 281.753 424.928 282.469 425.275 283.157C425.622 283.915 425.9 284.631 426.247 285.32C425.205 284.576 424.233 283.881 423.4 283.185C423.608 282.476 423.955 281.697 424.372 281.037ZM424.372 277.838C423.955 276.691 423.678 275.627 423.4 274.563C424.303 274.876 425.275 275.3 426.247 275.724C425.9 276.009 425.622 276.406 425.275 276.76C424.928 277.115 424.65 277.511 424.372 277.838ZM425.066 279.841C425.483 279.25 425.9 278.652 426.386 278.102C426.872 277.546 427.358 277.066 427.913 276.552C428.816 277.004 429.788 277.497 430.76 278.061C431.733 278.624 432.705 279.257 433.607 279.848C434.163 280.932 434.649 282.052 435.135 283.164C435.621 284.277 436.038 285.355 436.455 286.432C436.038 287.023 435.621 287.621 435.135 288.171C434.649 288.727 434.163 289.207 433.607 289.721C432.705 289.269 431.733 288.706 430.76 288.143C429.788 287.58 428.816 287.016 427.913 286.425C427.358 285.341 426.872 284.221 426.386 283.109C425.9 281.989 425.483 280.912 425.066 279.841ZM436.246 289.499C436.593 289.144 436.871 288.748 437.149 288.351C437.566 289.568 437.913 290.674 438.19 291.738C437.288 291.425 436.316 291.001 435.274 290.542C435.621 290.18 435.968 289.895 436.246 289.499ZM437.149 285.292C436.871 284.576 436.593 283.86 436.246 283.171C435.968 282.455 435.621 281.767 435.274 281.078C436.246 281.781 437.218 282.483 438.121 283.213C437.843 283.818 437.566 284.562 437.149 285.292ZM430.76 274.577C431.385 275.634 432.01 276.691 432.566 277.845C431.316 277.052 430.136 276.371 428.886 275.717C429.511 275.245 430.136 274.911 430.76 274.577ZM423.539 266.581C424.58 266.56 426.872 268.785 429.302 272.345C429.441 272.568 429.58 272.783 429.788 273.04C428.886 273.492 427.983 274.083 427.15 274.786C425.691 274.083 424.233 273.451 422.983 273.006C422.914 272.616 422.844 272.296 422.775 271.914C422.219 268.667 422.567 266.644 423.539 266.581ZM422.081 282.149C421.803 281.92 421.594 281.732 421.317 281.496C419.789 280.126 418.539 278.707 417.706 277.463C416.942 276.322 416.525 275.46 416.525 274.904C416.525 273.791 418.192 273.298 421.039 273.965C421.386 274.028 421.733 274.16 422.081 274.223C422.428 275.676 422.983 277.317 423.608 279.069C422.983 280.028 422.428 281.023 422.081 282.149ZM429.302 292.37C428.122 292.732 426.872 292.774 425.83 292.586C424.858 292.37 424.094 291.932 423.608 291.369C422.636 290.25 422.219 287.788 422.775 285.188C422.844 284.882 422.914 284.576 422.983 284.263C424.233 285.264 425.691 286.314 427.219 287.336C428.052 289.068 428.955 290.702 429.927 292.238C429.649 292.224 429.511 292.35 429.302 292.37ZM430.76 291.752C430.136 290.695 429.511 289.568 428.886 288.442C429.511 288.803 430.066 289.193 430.691 289.554C431.316 289.916 431.941 290.277 432.566 290.57C432.01 291.015 431.385 291.418 430.76 291.752ZM438.885 298.26C438.677 299.115 438.329 299.609 437.843 299.602C436.871 299.595 434.788 297.697 432.496 294.352C432.219 293.984 431.941 293.545 431.733 293.212C432.635 292.76 433.469 292.127 434.371 291.397C435.899 292.141 437.288 292.732 438.607 293.219C438.677 293.539 438.746 293.789 438.746 294.067C439.024 295.833 439.093 297.265 438.885 298.26ZM439.996 292.224C439.857 292.21 439.649 292.162 439.44 292.044C439.024 290.549 438.538 288.949 437.843 287.155C438.468 286.196 438.954 285.153 439.371 284.145C439.718 284.416 439.996 284.715 440.274 284.944C443.19 287.6 444.926 290.069 444.926 291.251C444.996 292.544 443.121 293.059 439.996 292.224ZM430.76 280.279C432.288 281.162 433.538 283.137 433.538 284.666C433.538 286.196 432.288 286.724 430.76 285.841C429.233 284.958 427.983 282.984 427.983 281.454C427.983 279.924 429.233 279.396 430.76 280.279Z" fill="url(#paint9_linear)"/>
<path opacity="0.9" fill-rule="evenodd" clip-rule="evenodd" d="M487.033 300.655C486.801 300.521 486.586 300.445 486.387 300.396C486.81 300.924 487.041 301.433 487.157 301.926C487.165 301.989 487.182 302.04 487.191 302.104C487.198 302.159 487.207 302.213 487.207 302.263C487.241 303.016 487.016 302.978 486.86 303.319C486.621 303.738 486.686 304.376 486.975 305.027C487 305.099 487.033 305.186 487.075 305.268C486.76 302.978 488.508 303.676 488.83 303.206C488.855 302.645 488.383 301.988 488.011 301.506C487.654 301.083 487.332 300.829 487.033 300.655ZM489.666 302.659C489.632 302.832 489.658 302.796 489.649 302.891C489.641 302.953 489.641 303.037 489.632 303.099C489.616 303.155 489.599 303.212 489.575 303.265C489.558 303.322 489.534 303.375 489.508 303.426C489.475 303.474 489.45 303.518 489.417 303.565C489.393 303.585 489.376 303.608 489.351 303.627C489.334 303.643 489.317 303.658 489.301 303.674C489.26 303.708 489.217 303.742 489.176 303.768C489.126 303.788 489.085 303.823 489.028 303.831V303.839C488.978 303.852 488.928 303.872 488.87 303.881C488.696 303.913 488.497 303.898 488.315 303.917C488.258 303.925 488.2 303.925 488.15 303.946C488.093 303.953 488.043 303.966 487.993 303.988C487.935 304.005 487.893 304.031 487.844 304.06C487.803 304.086 487.753 304.116 487.72 304.154C487.679 304.189 487.636 304.223 487.604 304.261C487.571 304.309 487.547 304.353 487.513 304.401C487.489 304.453 487.463 304.497 487.447 304.554C487.422 304.615 487.406 304.671 487.389 304.728C487.381 304.756 487.381 304.798 487.373 304.827C487.365 304.856 487.365 304.889 487.356 304.918C487.356 304.985 487.348 305.054 487.348 305.121C487.348 305.171 487.348 305.222 487.356 305.276C487.356 305.343 487.364 305.414 487.38 305.499C487.388 305.57 487.405 305.647 487.421 305.723C487.446 305.804 487.462 305.88 487.488 305.962C487.504 306.013 487.529 306.069 487.545 306.112L485.642 304.265C485.319 303.986 485.004 303.72 484.681 303.457C484.507 303.314 484.334 303.172 484.159 303.029C483.662 302.641 483.158 302.273 482.653 301.93C482.636 301.921 482.629 301.906 482.612 301.897C482.115 301.558 481.627 301.25 481.13 300.962C480.766 300.75 480.401 300.556 480.045 300.374C479.54 300.113 479.035 299.887 478.529 299.676C478.405 299.621 478.28 299.573 478.156 299.527C477.9 299.428 477.651 299.341 477.411 299.26C477.286 299.221 477.162 299.183 477.038 299.144C476.913 299.122 476.798 299.113 476.682 299.095C476.591 299.084 476.5 299.073 476.409 299.062C476.396 299.056 476.379 299.047 476.37 299.051C476.287 299.045 476.213 299.035 476.138 299.033C476.114 299.027 476.097 299.026 476.081 299.024C475.99 299.013 475.899 299.01 475.825 299.009C475.767 299 475.709 299 475.659 298.996C475.635 298.998 475.602 298.996 475.585 298.995C475.511 298.993 475.436 298.991 475.37 298.995C475.294 298.992 475.229 298.996 475.17 299.004C475.112 299.011 475.055 299.011 475.005 299.024C474.997 299.028 474.988 299.023 474.98 299.027C474.93 299.031 474.873 299.04 474.823 299.053C474.823 299.053 474.815 299.056 474.806 299.059C474.765 299.068 474.723 299.077 474.682 299.087C474.665 299.086 474.648 299.093 474.632 299.091C474.591 299.1 474.549 299.118 474.508 299.127C474.5 299.139 474.483 299.138 474.474 299.142C474.424 299.162 474.374 299.175 474.326 299.197C474.318 299.192 474.318 299.201 474.309 299.203C474.259 299.216 474.209 299.237 474.16 299.259C474.153 299.263 474.153 299.27 474.144 299.265C474.103 299.283 474.06 299.3 474.019 299.326C474.003 299.332 473.978 299.335 473.962 299.343C473.921 299.368 473.871 299.39 473.821 299.411C473.813 299.423 473.797 299.421 473.788 299.433C473.721 299.461 473.663 299.493 473.597 299.522C473.589 299.526 473.58 299.528 473.572 299.532C473.44 299.597 473.299 299.657 473.15 299.695C473.001 299.741 472.843 299.774 472.686 299.791C472.521 299.812 472.363 299.821 472.189 299.82C472.023 299.814 471.849 299.798 471.667 299.767C471.493 299.741 471.311 299.701 471.129 299.655C470.782 299.527 470.426 299.463 470.12 299.309C470.053 299.27 469.979 299.243 469.912 299.214C469.838 299.187 469.771 299.165 469.705 299.144C469.638 299.131 469.573 299.117 469.506 299.104C469.439 299.091 469.374 299.086 469.307 299.081C469.251 299.089 469.185 299.084 469.127 299.091C469.069 299.099 469.012 299.116 468.962 299.136C468.904 299.144 468.846 299.169 468.796 299.191C468.746 299.22 468.696 299.241 468.655 299.276C468.613 299.318 468.564 299.346 468.531 299.394C468.489 299.429 468.448 299.472 468.415 299.519C468.381 299.575 468.348 299.622 468.324 299.683C468.299 299.734 468.274 299.795 468.249 299.856C468.233 299.912 468.216 299.97 468.208 300.031C468.208 300.039 468.201 300.043 468.201 300.052C468.183 300.117 468.183 300.217 468.175 300.262C468.166 300.316 468.158 300.361 468.158 300.419C468.158 300.452 468.158 300.494 468.166 300.532C468.174 300.596 468.183 300.65 468.199 300.71C468.216 300.77 468.233 300.829 468.257 300.893V300.901C468.281 300.965 468.315 301.035 468.348 301.103C468.381 301.173 468.415 301.241 468.456 301.316C468.497 301.382 468.547 301.46 468.596 301.531C468.646 301.61 468.696 301.681 468.754 301.756C468.953 302.046 469.003 302.133 469.259 302.416C469.3 302.465 469.342 302.506 469.391 302.559C469.398 302.564 469.407 302.577 469.415 302.582C469.415 302.599 469.415 302.606 469.423 302.628C469.43 302.699 469.447 302.777 469.464 302.853C469.48 302.938 469.505 303.019 469.53 303.091C469.555 303.155 469.571 303.215 469.597 303.279C469.605 303.301 469.614 303.322 469.621 303.336C469.655 303.422 469.688 303.5 469.721 303.577C469.762 303.659 469.805 303.742 469.846 303.824C469.887 303.898 469.937 303.986 469.986 304.064C470.036 304.143 470.086 304.214 470.144 304.298C470.144 304.298 470.152 304.31 470.161 304.316C470.211 304.386 470.261 304.456 470.309 304.519C470.367 304.594 470.425 304.661 470.491 304.733C470.549 304.8 470.616 304.872 470.682 304.936C470.732 304.99 470.79 305.04 470.847 305.09C470.855 305.103 470.864 305.108 470.881 305.126C470.914 305.153 470.955 305.186 470.988 305.214C470.964 305.65 470.955 306.07 471.022 306.258C471.096 306.468 471.46 306.172 471.825 305.8C471.775 306.346 471.742 307.002 471.825 307.249C471.916 307.511 472.413 307.149 472.843 306.683C478.713 308.727 484.069 315.92 484.632 322.011C484.525 321.049 483.424 319.91 482.918 319.741C482.67 320.213 482.248 320.759 481.569 320.856C481.627 320.34 481.602 319.759 481.486 319.142C481.304 319.802 480.948 320.312 480.46 320.645C479.673 320.246 478.886 319.406 478.473 318.591C478.439 318.547 478.432 318.492 478.406 318.444C478.382 318.372 478.356 318.299 478.339 318.23C478.315 318.158 478.298 318.09 478.289 318.027C478.282 317.963 478.282 317.905 478.282 317.838C478.282 317.797 478.282 317.755 478.282 317.713C478.289 317.659 478.306 317.612 478.323 317.563C478.339 317.514 478.356 317.465 478.38 317.421C478.414 317.382 478.438 317.338 478.48 317.303C478.621 316.985 478.621 316.66 478.365 316.32C478.315 316.258 478.265 316.204 478.207 316.145C478.174 316.118 478.133 316.076 478.1 316.049C478.075 316.026 478.059 316.008 478.033 315.986C477.976 315.936 477.918 315.886 477.859 315.843C477.801 315.793 477.744 315.75 477.685 315.717C477.627 315.674 477.56 315.628 477.503 315.594C477.462 315.57 477.42 315.554 477.379 315.531C477.312 315.492 477.254 315.468 477.197 315.45C477.139 315.424 477.081 315.4 477.022 315.383C476.965 315.366 476.907 315.349 476.848 315.34C476.79 315.331 476.741 315.327 476.683 315.32C476.633 315.316 476.583 315.32 476.525 315.312C474.596 315.458 475.748 319.091 477.063 320.714C476.566 320.517 476.062 320.333 475.921 320.358C475.913 320.362 475.904 320.365 475.904 320.365C476.26 320.788 476.633 321.187 477.021 321.573C477.551 322.055 478.114 322.541 478.362 322.752V322.76C479.049 323.301 479.745 323.755 480.448 324.121C484.116 325.993 487.12 324.932 487.667 321.551C487.684 321.636 487.7 321.712 487.717 321.796C487.741 321.961 487.775 322.137 487.791 322.305V322.313C487.808 322.398 487.816 322.478 487.825 322.548V322.582C487.832 322.662 487.841 322.742 487.841 322.807C487.849 322.904 487.858 323.001 487.858 323.092V323.225C487.858 323.266 487.866 323.322 487.866 323.363C487.866 323.413 487.858 323.458 487.858 323.509V323.625C487.858 323.683 487.85 323.728 487.85 323.786C487.85 323.819 487.85 323.853 487.843 323.889C487.843 323.947 487.835 324.001 487.835 324.067C487.827 324.087 487.827 324.112 487.827 324.136C487.82 324.198 487.811 324.251 487.803 324.313C487.803 324.338 487.803 324.363 487.795 324.383C487.788 324.461 487.771 324.527 487.762 324.604V324.612V324.62C487.745 324.686 487.729 324.759 487.712 324.825V324.849C487.695 324.915 487.679 324.979 487.662 325.045C487.662 325.053 487.654 325.066 487.654 325.074C487.638 325.139 487.621 325.204 487.597 325.264V325.289C487.572 325.357 487.547 325.418 487.53 325.483C487.522 325.487 487.522 325.495 487.522 325.495C487.498 325.563 487.472 325.633 487.448 325.701C487.415 325.766 487.39 325.826 487.357 325.889C487.324 325.954 487.3 326.022 487.266 326.078C487.233 326.142 487.2 326.198 487.166 326.262L487.159 326.257C487.125 326.312 487.092 326.377 487.051 326.427C487.043 326.448 487.034 326.459 487.027 326.471C487.019 326.475 487.019 326.482 487.01 326.486C486.472 327.265 485.678 327.761 484.683 327.934C484.617 327.936 484.552 327.948 484.485 327.96C484.468 327.966 484.444 327.961 484.427 327.967C484.37 327.975 484.312 327.983 484.245 327.987L484.27 328.051L484.277 328.056C484.393 328.107 484.509 328.158 484.625 328.208L484.632 328.214C484.847 328.305 485.063 328.389 485.278 328.473C485.336 328.498 485.402 328.52 485.46 328.537C485.501 328.553 485.534 328.564 485.575 328.58C485.633 328.605 485.69 328.622 485.749 328.647C485.799 328.658 485.849 328.679 485.898 328.692C486.726 328.973 487.529 329.165 488.299 329.287C486.983 330.33 485.219 330.763 483.158 330.523C484.11 331.009 485.061 331.405 485.981 331.672C489.317 332.619 492.124 331.992 493.805 329.928C493.466 331.655 492.705 333.045 491.578 333.99C492.382 333.922 493.118 333.734 493.788 333.425C495.642 332.554 496.859 330.786 497.273 328.37C497.555 329.849 497.637 331.254 497.513 332.524C503.49 327.608 498.01 315.728 495.716 312.106C495.709 312.084 495.7 312.071 495.7 312.055C495.692 312.059 495.692 312.059 495.692 312.066C495.692 312.059 495.692 312.059 495.684 312.044C495.684 312.145 495.677 312.239 495.668 312.334C495.643 312.511 495.618 312.68 495.584 312.845C495.543 313.005 495.494 313.158 495.444 313.313C495.386 313.455 495.319 313.599 495.245 313.73C495.171 313.854 495.087 313.98 494.996 314.094C494.905 314.2 494.806 314.308 494.698 314.396C494.59 314.491 494.475 314.573 494.358 314.648C494.234 314.725 494.102 314.782 493.969 314.839C493.886 314.866 493.811 314.889 493.729 314.907C493.663 314.927 493.605 314.943 493.539 314.963C493.39 314.992 493.24 315.014 493.075 315.018C492.917 315.027 492.752 315.031 492.587 315.018C492.412 315 492.239 314.974 492.065 314.948C491.891 314.914 491.709 314.867 491.527 314.811C491.345 314.755 491.154 314.686 490.972 314.613C490.782 314.536 490.592 314.442 490.41 314.353C490.278 314.285 490.145 314.216 490.013 314.139C489.822 314.028 489.632 313.901 489.45 313.778C489.26 313.65 489.07 313.515 488.888 313.368C488.697 313.224 488.515 313.068 488.333 312.904L488.326 312.899C488.508 312.988 488.69 313.077 488.871 313.15C489.062 313.228 489.244 313.292 489.426 313.348C489.608 313.403 489.79 313.451 489.964 313.485C490.146 313.524 490.32 313.542 490.486 313.555C490.66 313.573 490.816 313.573 490.983 313.569C491.14 313.553 491.298 313.536 491.446 313.505C491.595 313.475 491.736 313.431 491.869 313.375C492.01 313.331 492.134 313.262 492.259 313.193C492.383 313.116 492.498 313.033 492.606 312.945C492.623 312.93 492.639 312.907 492.656 312.891C492.739 312.806 492.821 312.721 492.895 312.631C492.986 312.517 493.07 312.399 493.144 312.267C493.218 312.136 493.285 311.999 493.343 311.85C493.4 311.708 493.442 311.549 493.483 311.39C493.517 311.217 493.55 311.053 493.567 310.879C493.583 310.697 493.6 310.516 493.6 310.333C493.6 310.2 493.592 310.061 493.583 309.923C493.567 309.722 493.542 309.524 493.517 309.326C493.483 309.114 493.442 308.908 493.392 308.696C493.335 308.487 493.277 308.27 493.211 308.056C493.144 307.842 493.062 307.619 492.979 307.405C492.888 307.186 492.797 306.966 492.697 306.75C492.589 306.53 492.482 306.317 492.366 306.1C492.242 305.886 492.118 305.672 491.986 305.454C491.919 305.348 491.845 305.231 491.771 305.12C491.398 304.612 491.008 304.111 490.62 303.635C490.563 303.568 490.513 303.514 490.455 303.456C490.179 303.132 489.922 302.893 489.666 302.659Z" fill="url(#paint10_linear)"/>
<path opacity="0.9" d="M539.071 360.541C538.683 360.308 538.294 359.9 537.906 359.668L534.412 355.709C533.829 355.185 534.218 355.204 534.218 355.204C534.994 355.456 534.994 355.456 535.771 355.32L535.965 355.437L538.488 358.445C538.683 358.561 538.683 358.561 538.877 358.678L549.166 358.6C549.36 358.717 549.36 358.523 549.36 358.523V346.685C549.36 346.49 549.36 346.49 549.166 346.374L538.877 334.42C538.683 334.303 538.683 334.303 538.488 334.187L528.199 334.264C528.005 334.148 528.005 334.342 528.005 334.342V346.18C528.005 346.374 528.005 346.374 528.199 346.49L530.917 349.615C532.47 351.284 533.441 350.876 533.441 350.1V338.456C533.441 338.262 533.635 338.185 533.829 338.301L535.188 339.077C535.382 339.194 535.577 339.504 535.577 339.698V351.342C535.577 353.283 534.412 353.962 532.47 352.856C531.888 352.507 531.5 352.274 530.141 350.915L527.423 347.791C526.841 347.073 526.258 345.967 526.258 345.19V333.352C526.258 332.576 526.646 332.033 527.423 332.091L537.712 331.994C538.294 331.936 539.265 332.498 539.847 333.236L550.136 345.19C550.719 345.908 551.301 347.034 551.301 347.81V359.648C551.301 360.424 550.913 360.968 550.136 360.91L539.847 360.987C539.847 360.987 539.459 360.754 539.071 360.541ZM542.177 354.175C537.712 351.594 536.741 348.897 536.741 347.15C536.741 346.956 536.935 346.879 537.13 346.995L538.488 347.771C538.683 347.888 538.683 348.082 538.683 348.082C538.877 349.557 539.459 350.469 542.177 352.041C544.312 353.283 545.283 353.244 545.283 352.274C545.283 351.691 545.089 350.993 541.595 348.586C538.877 346.84 536.935 344.938 536.935 342.803C536.935 340.669 538.683 340.513 541.595 342.202C544.895 344.103 546.448 346.161 546.642 348.8V348.994L546.448 349.072L545.089 348.295C544.895 348.179 544.895 347.985 544.895 347.985C544.507 346.393 543.73 345.365 541.595 344.142C539.265 342.784 538.877 343.347 538.877 343.929C538.877 344.705 539.265 345.132 542.371 347.306C545.477 349.479 547.03 350.973 547.03 353.302C547.224 355.728 545.477 356.077 542.177 354.175Z" fill="url(#paint11_linear)"/>
<defs>
<filter id="filter0_f" x="367.877" y="193.083" width="262.096" height="232" filterUnits="userSpaceOnUse" color-interpolation-filters="sRGB">
<feFlood flood-opacity="0" result="BackgroundImageFix"/>
<feBlend mode="normal" in="SourceGraphic" in2="BackgroundImageFix" result="shape"/>
<feGaussianBlur stdDeviation="10" result="effect1_foregroundBlur"/>
</filter>
<linearGradient id="paint0_linear" x1="311.104" y1="139.676" x2="374.568" y2="395.511" gradientUnits="userSpaceOnUse">
<stop offset="0.0101" stop-color="#DE5125"/>
<stop offset="0.904" stop-color="#051525"/>
</linearGradient>
<linearGradient id="paint1_linear" x1="614.098" y1="425.639" x2="355.743" y2="196.396" gradientUnits="userSpaceOnUse">
<stop offset="0.0354" stop-color="#DE5125"/>
<stop offset="1" stop-color="#FFC83C"/>
</linearGradient>
<linearGradient id="paint2_linear" x1="457.127" y1="319.593" x2="384.558" y2="278.81" gradientUnits="userSpaceOnUse">
<stop offset="0.0354" stop-color="#DE5125"/>
<stop offset="1" stop-color="#FFC83C"/>
</linearGradient>
<linearGradient id="paint3_linear" x1="510.738" y1="351.447" x2="438.169" y2="310.665" gradientUnits="userSpaceOnUse">
<stop offset="0.0354" stop-color="#DE5125"/>
<stop offset="1" stop-color="#FFC83C"/>
</linearGradient>
<linearGradient id="paint4_linear" x1="564.768" y1="382.189" x2="492.199" y2="341.406" gradientUnits="userSpaceOnUse">
<stop offset="0.0354" stop-color="#DE5125"/>
<stop offset="1" stop-color="#FFC83C"/>
</linearGradient>
<linearGradient id="paint5_linear" x1="569.118" y1="433.694" x2="-413.405" y2="-585.895" gradientUnits="userSpaceOnUse">
<stop offset="0.0303" stop-color="#773E2C"/>
<stop offset="1" stop-color="#DE5125"/>
</linearGradient>
<linearGradient id="paint6_linear" x1="622.729" y1="465.548" x2="-359.794" y2="-554.04" gradientUnits="userSpaceOnUse">
<stop offset="0.0303" stop-color="#773E2C"/>
<stop offset="1" stop-color="#DE5125"/>
</linearGradient>
<linearGradient id="paint7_linear" x1="676.758" y1="496.272" x2="-305.764" y2="-523.317" gradientUnits="userSpaceOnUse">
<stop offset="0.0303" stop-color="#773E2C"/>
<stop offset="1" stop-color="#DE5125"/>
</linearGradient>
<linearGradient id="paint8_linear" x1="692.088" y1="360.429" x2="484.215" y2="-607.721" gradientUnits="userSpaceOnUse">
<stop offset="0.0354" stop-color="#FFC83C"/>
<stop offset="1" stop-color="white"/>
</linearGradient>
<linearGradient id="paint9_linear" x1="463.428" y1="296.76" x2="361.421" y2="40.3539" gradientUnits="userSpaceOnUse">
<stop offset="0.0354" stop-color="#FCFF86"/>
<stop offset="1" stop-color="white"/>
</linearGradient>
<linearGradient id="paint10_linear" x1="518.079" y1="329.874" x2="423.21" y2="76.6838" gradientUnits="userSpaceOnUse">
<stop offset="0.0354" stop-color="#FCFF86"/>
<stop offset="1" stop-color="white"/>
</linearGradient>
<linearGradient id="paint11_linear" x1="565.259" y1="357.578" x2="483.153" y2="150.966" gradientUnits="userSpaceOnUse">
<stop offset="0.0354" stop-color="#FCFF86"/>
<stop offset="1" stop-color="white"/>
</linearGradient>
</defs>
</svg>
