<svg width="649" height="480" viewBox="0 0 649 480" fill="none" xmlns="http://www.w3.org/2000/svg">
<path opacity="0.8" fill-rule="evenodd" clip-rule="evenodd" d="M556.583 215.113C555.522 213.179 555 211.018 555 208.612V192.073C555 189.668 555.522 188.117 556.583 187.402C557.644 186.688 559.175 186.932 561.193 188.082C563.211 189.25 564.742 190.801 565.803 192.735C566.865 194.67 567.386 196.831 567.386 199.236V202.495L563.403 200.195V196.639C563.403 194.74 562.707 193.38 561.298 192.561C559.888 191.742 559.193 192.3 559.193 194.199V211.401C559.193 213.283 559.888 214.625 561.298 215.427C562.707 216.246 563.403 215.706 563.403 213.824V209.118L567.386 211.418V215.775C567.386 218.181 566.865 219.732 565.803 220.446C564.742 221.161 563.211 220.917 561.193 219.767C559.175 218.599 557.644 217.048 556.583 215.113ZM570.831 223.339C569.787 221.405 569.265 219.191 569.265 216.699V214.939L573.249 217.239V219.348C573.249 221.335 573.98 222.764 575.424 223.601C576.137 224.019 576.676 224.089 577.042 223.81C577.407 223.549 577.598 222.869 577.598 221.771C577.598 220.481 577.337 219.191 576.833 217.919C576.328 216.647 575.372 214.922 573.997 212.743C572.258 209.972 571.057 207.689 570.361 205.876C569.665 204.064 569.335 202.251 569.335 200.456C569.335 198.016 569.874 196.448 570.935 195.733C572.014 195.018 573.562 195.245 575.598 196.43C577.616 197.598 579.129 199.149 580.173 201.083C581.2 203.018 581.721 205.231 581.721 207.724V208.996L577.738 206.695V205.109C577.738 204.046 577.564 203.175 577.198 202.495C576.833 201.798 576.311 201.258 575.633 200.857C574.223 200.038 573.528 200.63 573.528 202.582C573.528 203.698 573.789 204.883 574.31 206.155C574.832 207.427 575.789 209.153 577.163 211.331C578.921 214.102 580.138 216.403 580.799 218.233C581.46 220.045 581.791 221.928 581.791 223.862C581.791 226.389 581.252 228.01 580.173 228.725C579.095 229.439 577.511 229.213 575.441 228.01C573.423 226.842 571.875 225.291 570.831 223.339ZM583.496 224.943C583.496 227.435 584.018 229.648 585.062 231.583C586.105 233.517 587.654 235.069 589.672 236.254C591.742 237.456 593.325 237.683 594.404 236.968C595.482 236.254 596.021 234.633 596.021 232.106C596.021 230.171 595.691 228.289 595.03 226.476C594.369 224.647 593.151 222.346 591.394 219.575C590.02 217.396 589.063 215.671 588.541 214.399C588.019 213.126 587.758 211.941 587.758 210.826C587.758 208.874 588.454 208.281 589.863 209.1C590.542 209.501 591.063 210.042 591.429 210.739C591.794 211.418 591.968 212.29 591.968 213.353V214.939L595.952 217.239V215.967C595.952 213.475 595.43 211.262 594.404 209.327C593.36 207.392 591.846 205.841 589.828 204.674C587.793 203.489 586.245 203.262 585.166 203.977C584.105 204.691 583.565 206.26 583.565 208.7C583.565 210.495 583.896 212.307 584.592 214.12C585.288 215.932 586.488 218.215 588.228 220.987C589.602 223.165 590.559 224.89 591.063 226.163C591.568 227.435 591.829 228.725 591.829 230.014C591.829 231.112 591.638 231.792 591.272 232.054C590.907 232.332 590.368 232.263 589.654 231.844C588.21 231.008 587.48 229.579 587.48 227.592V225.483L583.496 223.183V224.943Z" fill="url(#paint0_linear)"/>
<path opacity="0.6" d="M595.813 208.281C595.848 208.351 595.917 208.421 595.952 208.508C597.118 210.686 597.709 213.196 597.709 215.967V220.255L591.777 216.821C592.107 217.379 592.473 217.989 592.89 218.634C594.734 221.544 595.969 223.914 596.683 225.866C597.413 227.871 597.779 229.962 597.779 232.106C597.779 235.278 596.996 237.352 595.378 238.415C595.256 238.485 595.134 238.519 595.012 238.589L623.021 254.135V223.67L595.813 208.281Z" fill="url(#paint1_linear)"/>
<defs>
<linearGradient id="paint0_linear" x1="557.198" y1="187.008" x2="608.163" y2="219.328" gradientUnits="userSpaceOnUse">
<stop stop-color="#AD86FF"/>
<stop offset="0.9964" stop-color="#844AFF"/>
</linearGradient>
<linearGradient id="paint1_linear" x1="596.5" y1="231" x2="617.62" y2="241.659" gradientUnits="userSpaceOnUse">
<stop stop-color="#844AFF"/>
<stop offset="1" stop-color="#844AFF" stop-opacity="0"/>
</linearGradient>
</defs>
</svg>
