<svg width="648" height="524" viewBox="0 0 648 524" fill="none" xmlns="http://www.w3.org/2000/svg">
<path opacity="0.2" fill-rule="evenodd" clip-rule="evenodd" d="M172 0C163.163 0 156 7.16344 156 16C156 24.8366 163.163 32 172 32H444C452.837 32 460 24.8366 460 16C460 7.16344 452.837 0 444 0H172ZM128 47C119.163 47 112 54.1634 112 63C112 71.8366 119.163 79 128 79H340C348.837 79 356 71.8366 356 63C356 54.1634 348.837 47 340 47H128ZM70 61.5C70 53.4919 76.4919 47 84.5 47C92.5081 47 99 53.4919 99 61.5V64.5C99 72.5081 92.5081 79 84.5 79C76.4919 79 70 72.5081 70 64.5V61.5ZM387 166C378.163 166 371 173.163 371 182V188C371 196.837 378.163 204 387 204H599C607.837 204 615 196.837 615 188V182C615 173.163 607.837 166 599 166H387ZM66 260C66 251.163 73.1634 244 82 244H199C207.837 244 215 251.163 215 260C215 268.837 207.837 276 199 276H82C73.1634 276 66 268.837 66 260ZM55.5 165C47.4919 165 41 171.492 41 179.5V190.5C41 198.508 47.4919 205 55.5 205C63.5081 205 70 198.508 70 190.5V179.5C70 171.492 63.5081 165 55.5 165Z" fill="#BDC7CD"/>
<path opacity="0.5" fill-rule="evenodd" clip-rule="evenodd" d="M372 63C372 54.1634 379.163 47 388 47H562C570.837 47 578 54.1634 578 63C578 71.8366 570.837 79 562 79H388C379.163 79 372 71.8366 372 63ZM0 123C0 114.163 7.16344 107 16 107H190C198.837 107 206 114.163 206 123C206 131.837 198.837 139 190 139H16C7.16345 139 0 131.837 0 123ZM102 166C93.1634 166 86 173.163 86 182V188C86 196.837 93.1634 204 102 204H276C284.837 204 292 196.837 292 188V182C292 173.163 284.837 166 276 166H102Z" fill="#BDC7CD"/>
<path opacity="0.3" d="M338.186 369.73C214.949 365.042 52.8838 383.13 50.0387 418.151C48.2566 440.087 108.352 476.054 163.978 474.64C201.922 473.677 239.377 455.283 243.078 463.544C246.004 470.078 223.856 484.464 227.07 491.788C231.812 502.592 281.562 474.879 310.878 498.85C320.353 506.599 317.43 511.354 325.001 518.017C355.536 544.874 408.915 472.727 498.264 470.606C538.158 469.66 565.618 483.136 614.401 466.233C631.766 460.217 647.486 454.772 647.988 446.395C649.599 419.376 492.016 375.584 338.186 369.73Z" fill="#BDC7CD"/>
<path opacity="0.5" d="M175.305 291.245C158.208 295.128 139.755 299.535 140.002 303.728C140.398 310.489 189.226 313.462 226.174 312.942C280.947 312.17 285.314 304.063 343.479 300.759C404.455 297.293 448.126 303.449 449.943 293.625C450.448 290.899 447.596 287.639 442.159 283.818C392.458 248.89 272.137 269.258 175.305 291.245Z" fill="#BDC7CD"/>
</svg>
