<svg width="649" height="480" viewBox="0 0 649 480" fill="none" xmlns="http://www.w3.org/2000/svg">
<path opacity="0.8" fill-rule="evenodd" clip-rule="evenodd" d="M389 0L395.193 3.59023C397.281 4.79278 398.847 6.3439 399.908 8.24358C400.952 10.1433 401.473 12.3392 401.473 14.8315V17.864C401.473 20.3562 400.952 21.9422 399.908 22.6393C398.864 23.319 397.298 23.0576 395.193 21.8551L393.21 20.7048V33.2357L389 30.7958V0ZM395.193 17.4283C395.889 17.8291 396.394 17.8989 396.742 17.6723C397.09 17.4283 397.263 16.7834 397.263 15.7203V12.0778C397.263 11.0147 397.09 10.1781 396.742 9.53328C396.394 8.88843 395.889 8.383 395.193 7.98215L393.21 6.83189V16.2955L395.193 17.4283ZM403.77 8.53985L407.98 10.9798V23.5108L412.503 26.125V13.5941L416.713 16.034V46.8124L412.503 44.3724V30.5169L407.98 27.9027V41.7582L403.77 39.3182V8.53985ZM426.038 21.4194L419.844 17.8291V48.6249L424.054 51.0649V38.534L426.038 39.6842C428.143 40.8868 429.708 41.1482 430.752 40.4685C431.796 39.7714 432.318 38.1854 432.318 35.6931V32.6606C432.318 30.1684 431.796 27.9724 430.752 26.0727C429.691 24.1905 428.125 22.6219 426.038 21.4194ZM427.586 35.5189C427.238 35.7454 426.734 35.6757 426.038 35.2749L424.054 34.142V24.6785L426.038 25.8287C426.734 26.2296 427.238 26.735 427.586 27.3798C427.934 28.0247 428.108 28.8612 428.108 29.9244V33.5669C428.108 34.63 427.934 35.2749 427.586 35.5189Z" fill="url(#paint0_linear)"/>
<path opacity="0.6" d="M432.248 25.2013C432.248 25.2187 432.266 25.2187 432.266 25.2187C433.449 27.3624 434.058 29.8721 434.058 32.6432V35.6757C434.058 38.8302 433.292 40.8519 431.709 41.8976C431.048 42.3333 430.265 42.5599 429.413 42.5599C428.334 42.5599 427.151 42.2113 425.794 41.5142V52.3894L491.015 88.71V58.2628L432.248 25.2013Z" fill="url(#paint1_linear)"/>
<defs>
<linearGradient id="paint0_linear" x1="419.499" y1="-19.7671" x2="406.699" y2="46.4645" gradientUnits="userSpaceOnUse">
<stop stop-color="#F9A0CA"/>
<stop offset="1" stop-color="#FC6DB0"/>
</linearGradient>
<linearGradient id="paint1_linear" x1="426" y1="57" x2="488.901" y2="68.4899" gradientUnits="userSpaceOnUse">
<stop stop-color="#FC6DB0"/>
<stop offset="1" stop-color="#FC6DB0" stop-opacity="0"/>
</linearGradient>
</defs>
</svg>
