<svg width="341" height="480" viewBox="0 0 341 480" fill="none" xmlns="http://www.w3.org/2000/svg">
<g opacity="0.16">
<path d="M1 0C1 66.6667 87 26.6667 87 160C87 293.333 87 240 87 240C87 240 87 186.667 87 320C87 453.333 1 413.333 1 480" stroke="#8F969E" stroke-width="2"/>
<path d="M1 480C1 420.302 139 456.121 139 336.724V265.086C139 265.086 139 203 87.25 203" stroke="#8F969E" stroke-width="2"/>
<path d="M1 0C1 66.6667 192 26.6667 192 160C192 293.333 192 240 192 240C192 240 192 186.667 192 320C192 453.333 1 413.333 1 480" stroke="#8F969E" stroke-width="2"/>
<path d="M1 0C1 66.6667 243 26.6667 243 160C243 293.333 243 240 243 240C243 240 243 186.667 243 320C243 453.333 1 413.333 1 480" stroke="#8F969E" stroke-width="2"/>
<path d="M1 0C1 66.6667 295 26.6667 295 160C295 293.333 295 240 295 240C295 240 295 186.667 295 320C295 453.333 1 413.333 1 480" stroke="#8F969E" stroke-width="2"/>
</g>
<circle cx="87" cy="160" r="32" fill="#0E1C1C"/>
<circle cx="87" cy="160" r="31" stroke="#8F969E" stroke-opacity="0.16" stroke-width="2"/>
<path d="M102.613 159.104L88.3776 145.334L86.9983 144L76.2823 154.366L71.3822 159.104C71.1374 159.342 71 159.664 71 160C71 160.336 71.1374 160.658 71.3822 160.896L81.1721 170.366L86.9983 176L97.7128 165.634L97.8796 165.474L102.613 160.903C102.736 160.785 102.833 160.645 102.899 160.491C102.966 160.336 103 160.171 103 160.004C103 159.836 102.966 159.671 102.899 159.517C102.833 159.362 102.736 159.222 102.613 159.104ZM86.9983 164.731L82.107 160L86.9983 155.269L91.8881 160L86.9983 164.731Z" fill="#2684FF"/>
<path d="M86.9983 155.269C85.46 153.781 84.5928 151.765 84.5862 149.661C84.5795 147.557 85.434 145.535 86.9629 144.039L76.2602 154.387L82.0849 160.021L86.9983 155.269Z" fill="url(#paint0_linear)"/>
<path d="M91.9014 159.987L86.9983 164.732C88.5424 166.226 89.4099 168.252 89.4099 170.364C89.4099 172.477 88.5424 174.503 86.9983 175.997L97.7305 165.622L91.9014 159.987Z" fill="url(#paint1_linear)"/>
<circle cx="137" cy="320" r="32" fill="#0E1C1C"/>
<circle cx="137" cy="320" r="31" stroke="#8F969E" stroke-opacity="0.16" stroke-width="2"/>
<path d="M122.188 327.906C121.843 328.414 121.497 329.05 121.151 329.515C120.848 329.981 121.021 330.574 121.497 330.871L128.113 334.852C128.589 335.149 129.237 334.979 129.497 334.513C129.756 334.09 130.102 333.497 130.492 332.904C133.13 328.668 135.724 329.177 140.481 331.421L147.055 334.471C147.573 334.725 148.179 334.513 148.395 334.005C148.395 334.005 148.395 334.005 148.395 333.963L151.552 326.974C151.768 326.466 151.552 325.915 151.033 325.661C149.649 325.026 146.882 323.755 144.417 322.569C135.551 318.419 127.983 318.673 122.188 327.906Z" fill="url(#paint2_linear)"/>
<path d="M151.812 312.108C152.158 311.6 152.503 310.964 152.849 310.498C153.152 310.032 152.979 309.439 152.503 309.143L145.887 305.162C145.411 304.865 144.806 304.992 144.46 305.416L144.417 305.458C144.157 305.882 143.811 306.475 143.422 307.068C140.784 311.303 138.189 310.795 133.432 308.55L126.902 305.5C126.383 305.246 125.778 305.458 125.562 305.966C125.562 305.966 125.562 305.966 125.562 306.009L122.405 312.997C122.189 313.505 122.405 314.056 122.924 314.31C124.308 314.946 127.075 316.216 129.54 317.402C138.449 321.595 146.017 321.299 151.812 312.108Z" fill="url(#paint3_linear)"/>
<circle cx="192" cy="240" r="32" fill="#0E1C1C"/>
<circle cx="192" cy="240" r="31" stroke="#8F969E" stroke-opacity="0.16" stroke-width="2"/>
<path fill-rule="evenodd" clip-rule="evenodd" d="M178 226C176.895 226 176 226.895 176 228V252C176 253.105 176.895 254 178 254H188C189.105 254 190 253.105 190 252V228C190 226.895 189.105 226 188 226H178ZM196 226C194.895 226 194 226.895 194 228V241C194 242.105 194.895 243 196 243H206C207.105 243 208 242.105 208 241V228C208 226.895 207.105 226 206 226H196Z" fill="url(#paint4_linear)"/>
<circle cx="243" cy="160" r="32" fill="#0E1C1C"/>
<circle cx="243" cy="160" r="31" stroke="#8F969E" stroke-opacity="0.16" stroke-width="2"/>
<path fill-rule="evenodd" clip-rule="evenodd" d="M230.341 165.804L227 162.084L237.226 158.377L238.818 162.732L230.341 165.804Z" fill="#F89920"/>
<path fill-rule="evenodd" clip-rule="evenodd" d="M230.316 165.737L230.159 170.726L240.385 167.019L238.794 162.665L230.316 165.737Z" fill="#FFBE22"/>
<path fill-rule="evenodd" clip-rule="evenodd" d="M258.735 155.521C260.194 159.73 255.492 165.261 248.179 167.912C240.865 170.563 233.693 169.335 232.093 165.176L258.735 155.521Z" fill="#F0670A"/>
<path fill-rule="evenodd" clip-rule="evenodd" d="M258.735 155.52C257.146 151.351 249.966 150.118 242.644 152.771C235.323 155.424 230.619 160.965 232.093 165.176L258.735 155.52Z" fill="#FFD00E"/>
<path fill-rule="evenodd" clip-rule="evenodd" d="M258.734 155.521C259.643 158.338 254.539 162.724 247.248 165.366C239.957 168.009 233.215 167.916 232.094 165.176L258.734 155.521Z" fill="#F89920"/>
<path fill-rule="evenodd" clip-rule="evenodd" d="M258.734 155.52C257.63 152.768 250.878 152.67 243.575 155.317C236.272 157.964 231.163 162.36 232.093 165.176L258.734 155.52Z" fill="#FFBE22"/>
<path d="M246.444 151.7C245.748 149.304 244.957 147.975 244.056 148C242.316 148.05 241.731 153.545 242.294 160.586C242.863 167.702 244.34 173.048 246.181 173C247.279 172.971 247.897 171.222 248.114 168.186C248.118 168.124 248.049 168.167 248.053 168.104C248.053 168.104 248.044 167.993 248.003 167.99L247.769 167.975C247.578 170.923 246.999 172.622 246.172 172.644C244.658 172.683 243.198 167.395 242.651 160.558C242.113 153.834 242.692 148.396 244.067 148.357C244.717 148.338 245.446 149.562 246.091 151.769C246.091 151.769 246.444 151.701 246.444 151.7L246.444 151.7Z" fill="#F0670A"/>
<path d="M237.82 149.99C236.337 150.9 238.59 155.95 242.613 161.767C246.679 167.647 250.642 171.541 252.212 170.583C253.089 170.047 252.843 168.421 251.713 165.967C251.704 165.944 251.69 165.924 251.673 165.908C251.656 165.891 251.635 165.878 251.613 165.869C251.591 165.86 251.567 165.856 251.543 165.857C251.519 165.857 251.495 165.863 251.473 165.873C251.451 165.883 251.432 165.897 251.415 165.915C251.399 165.932 251.387 165.953 251.379 165.976C251.371 165.999 251.368 166.022 251.369 166.046C251.371 166.07 251.377 166.094 251.388 166.115C252.438 168.397 252.664 169.889 252.025 170.279C250.734 171.066 246.814 167.214 242.908 161.565C239.065 156.01 236.836 151.012 238.008 150.294C238.629 149.912 240.108 150.833 242.062 152.821C242.084 152.843 242.209 152.972 242.237 152.98C242.297 152.998 242.267 152.871 242.315 152.823C242.332 152.807 242.345 152.787 242.355 152.766C242.364 152.744 242.369 152.721 242.369 152.698C242.369 152.674 242.365 152.651 242.356 152.629C242.347 152.608 242.334 152.588 242.318 152.571C240.23 150.447 238.664 149.472 237.82 149.99V149.99Z" fill="#F0670A"/>
<circle cx="295" cy="320" r="32" fill="#0E1C1C"/>
<circle cx="295" cy="320" r="31" stroke="#8F969E" stroke-opacity="0.16" stroke-width="2"/>
<path d="M307.908 331.806C307.908 329.527 306.08 327.612 303.703 327.612C301.326 327.612 299.497 329.436 299.497 331.806C299.497 334.176 301.326 336 303.703 336C306.08 336 307.908 334.085 307.908 331.806Z" fill="#DE8B30"/>
<path d="M303.794 312.387C301.509 312.387 299.589 310.564 299.589 308.194C299.589 305.823 301.417 304 303.794 304C306.171 304 308 305.823 308 308.194C308 310.564 306.08 312.387 303.794 312.387Z" fill="#DE8B30"/>
<path d="M296.114 331.806C296.114 334.086 294.286 336 291.909 336C289.623 336 287.703 334.177 287.703 331.806C287.703 327.613 284.229 324.148 280.023 324.148C277.829 324.148 276 322.325 276 320.046C276 317.767 277.829 315.852 280.206 315.852C284.411 315.852 287.886 312.388 287.886 308.194C287.794 305.915 289.714 304.091 292 304.091C294.286 304.091 296.114 305.915 296.114 308.285C296.114 310.655 294.286 312.479 291.909 312.479C287.703 312.479 284.229 315.943 284.229 320.137C284.229 324.331 287.611 327.795 291.909 327.795C294.286 327.613 296.114 329.527 296.114 331.806Z" fill="#DE8B30"/>
<defs>
<linearGradient id="paint0_linear" x1="86.1225" y1="150.481" x2="79.519" y2="157.307" gradientUnits="userSpaceOnUse">
<stop offset="0.18" stop-color="#0052CC"/>
<stop offset="1" stop-color="#2684FF"/>
</linearGradient>
<linearGradient id="paint1_linear" x1="1317.45" y1="1533.17" x2="2001" y2="1991.28" gradientUnits="userSpaceOnUse">
<stop offset="0.18" stop-color="#0052CC"/>
<stop offset="1" stop-color="#2684FF"/>
</linearGradient>
<linearGradient id="paint2_linear" x1="151.397" y1="336.945" x2="131.61" y2="325.336" gradientUnits="userSpaceOnUse">
<stop offset="0.18" stop-color="#0052CC"/>
<stop offset="1" stop-color="#2684FF"/>
</linearGradient>
<linearGradient id="paint3_linear" x1="122.619" y1="303.072" x2="142.411" y2="314.686" gradientUnits="userSpaceOnUse">
<stop offset="0.18" stop-color="#0052CC"/>
<stop offset="1" stop-color="#2684FF"/>
</linearGradient>
<linearGradient id="paint4_linear" x1="207.752" y1="257.63" x2="182.674" y2="249.394" gradientUnits="userSpaceOnUse">
<stop offset="0.18" stop-color="#0052CC"/>
<stop offset="1" stop-color="#2684FF"/>
</linearGradient>
</defs>
</svg>
