<svg width="558" height="924" viewBox="0 0 558 924" fill="none" xmlns="http://www.w3.org/2000/svg">
<g opacity="0.16">
<circle cx="13" cy="12.9995" r="12" stroke="#8F969E" stroke-width="2"/>
<path d="M13 24.9995C13 125 269 64.9995 269 265C269 465 269 385 269 385C269 385 269 305 269 505C269 705 13 645 13 745" stroke="#8F969E" stroke-width="2"/>
<path d="M13 24.999C13 124.999 365 64.999 365 264.999C365 464.999 365 384.999 365 384.999C365 384.999 365 304.999 365 504.999C365 704.999 13 644.999 13 744.999" stroke="#8F969E" stroke-width="2"/>
<path d="M13 24.9985C13 124.999 461 64.9985 461 264.999C461 464.999 461 384.999 461 384.999C461 384.999 461 304.999 461 504.999C461 704.999 13 644.999 13 744.999" stroke="#8F969E" stroke-width="2"/>
<path d="M13 23.9985V923.999" stroke="#8F969E" stroke-width="2"/>
</g>
</svg>
