<svg width="341" height="480" viewBox="0 0 341 480" fill="none" xmlns="http://www.w3.org/2000/svg">
<g opacity="0.16">
<path d="M1 0C1 66.6667 87 26.6667 87 160C87 293.333 87 240 87 240C87 240 87 186.667 87 320C87 453.333 1 413.333 1 480" stroke="#8F969E" stroke-width="2"/>
<path d="M1 0C1 66.6667 192 26.6667 192 160C192 293.333 192 240 192 240C192 240 192 186.667 192 320C192 453.333 1 413.333 1 480" stroke="#8F969E" stroke-width="2"/>
<path d="M1 0C1 66.6667 297 26.6667 297 160C297 293.333 297 240 297 240C297 240 297 186.667 297 320C297 453.333 1 413.333 1 480" stroke="#8F969E" stroke-width="2"/>
<path d="M1 0C1 66.6667 297 27 297 160.333C297 240.333 191.131 240 191.131 320C191.131 453.333 1 413.333 1 480" stroke="#8F969E" stroke-width="2"/>
<path d="M1 480C1 413.333 297 453.333 297 320C297 240 191.131 240 191.131 160C191.131 26.6667 1 66.6667 1 -1.43051e-05" stroke="#8F969E" stroke-width="2"/>
</g>
<circle cx="298" cy="143" r="32" fill="#0E1C1C"/>
<circle cx="298" cy="143" r="31" stroke="#8F969E" stroke-opacity="0.16" stroke-width="2"/>
<path d="M305.373 157.983C304.417 158.134 304.056 157.525 304.056 157.011C304.056 156.784 304.059 156.39 304.062 155.867C304.07 154.824 304.081 153.265 304.081 151.472C304.081 149.583 303.445 148.375 302.706 147.745C307.239 147.242 312 145.53 312 137.8C312 135.584 311.211 133.797 309.912 132.387C310.116 131.883 310.829 129.819 309.708 127.049C309.708 127.049 308.002 126.495 304.107 129.114C302.477 128.66 300.746 128.434 299.014 128.434C297.283 128.434 295.551 128.66 293.922 129.114C290.026 126.52 288.32 127.049 288.32 127.049C287.2 129.819 287.913 131.883 288.116 132.387C286.818 133.797 286.028 135.61 286.028 137.8C286.028 145.505 290.764 147.242 295.297 147.745C294.711 148.249 294.176 149.13 293.998 150.439C292.827 150.968 289.899 151.824 288.065 148.778C287.683 148.173 286.538 146.688 284.933 146.713C283.227 146.738 284.246 147.67 284.959 148.048C285.825 148.526 286.818 150.314 287.047 150.893C287.454 152.026 288.778 154.191 293.896 153.259C293.896 154.36 293.907 155.418 293.915 156.153C293.919 156.545 293.922 156.845 293.922 157.011C293.922 157.54 293.54 158.144 292.521 157.968C294.507 159 297.054 159 298.963 159C301.203 159 303.358 158.643 305.373 157.983Z" fill="white"/>
<circle cx="192" cy="143" r="32" fill="#0E1C1C"/>
<circle cx="192" cy="143" r="31" stroke="#8F969E" stroke-opacity="0.16" stroke-width="2"/>
<path d="M177.039 129C177.034 129 177.03 129 177.025 129C176.463 129 176 129.45 176 129.998C176 130.051 176.005 130.104 176.013 130.157L180.366 155.868C180.477 156.515 181.055 156.994 181.729 157H202.609C203.115 157.006 203.553 156.648 203.634 156.162L207.987 130.162C207.995 130.109 208 130.056 208 130.003C208 129.455 207.537 129.005 206.975 129.005C206.97 129.005 206.966 129.005 206.961 129.005L177.039 129ZM195.365 147.582H188.701L186.897 138.408H196.98L195.365 147.582Z" fill="#2684FF"/>
<path d="M206.603 138.408H196.98L195.365 147.582H188.701L180.832 156.671C181.081 156.881 181.4 156.997 181.729 157H202.614C203.12 157.006 203.558 156.648 203.639 156.162L206.603 138.408Z" fill="url(#paint0_linear)"/>
<circle cx="298" cy="338" r="32" fill="#0E1C1C"/>
<circle cx="298" cy="338" r="31" stroke="#8F969E" stroke-opacity="0.16" stroke-width="2"/>
<path fill-rule="evenodd" clip-rule="evenodd" d="M282.027 334.006C283.83 327.106 290.185 322.006 297.75 322.006L297.766 322C306.731 322 314 329.164 314 338.001C314 346.837 306.718 354 297.751 354.001C290.188 354.001 283.831 348.901 282.028 342.001C282.011 341.939 282.002 341.875 282.001 341.811C282.001 341.389 282.347 341.049 282.775 341.049H289.321C289.623 341.049 289.898 341.225 290.022 341.495C290.022 341.495 290.032 341.514 290.036 341.523C291.387 344.393 294.334 346.385 297.754 346.385C302.452 346.385 306.258 342.633 306.258 338.003C306.258 333.374 302.45 329.622 297.753 329.622C294.332 329.622 291.385 331.614 290.035 334.483C290.031 334.493 290.021 334.511 290.021 334.511C289.961 334.645 289.862 334.758 289.738 334.837C289.613 334.916 289.468 334.958 289.32 334.958H282.773C282.346 334.958 282 334.615 282 334.196C282.001 334.132 282.01 334.068 282.027 334.006ZM301.616 338.006C301.616 340.111 299.885 341.816 297.75 341.816C295.615 341.816 293.884 340.111 293.884 338.006C293.884 335.902 295.615 334.196 297.75 334.196C299.885 334.196 301.616 335.902 301.616 338.006Z" fill="white"/>
<circle cx="192" cy="338" r="32" fill="#0E1C1C"/>
<circle cx="192" cy="338" r="31" stroke="#8F969E" stroke-opacity="0.16" stroke-width="2"/>
<path fill-rule="evenodd" clip-rule="evenodd" d="M200 354L208 350.667V325.333L200 322V349.467L176 346L200 354ZM187.067 328L184 327.333L178.667 332V334L181.733 336L178.667 338V340L184 344.667L186.933 344V339.2L192 342.667L196 341.333V330.667L192 329.333L187.067 332.8V328ZM186.933 336L192 333.333V338.667L186.933 336ZM184 334.667L180.267 332.8L184 330V334.667ZM184 337.333V342L180.267 339.2L184 337.333Z" fill="#CB2E62"/>
<circle cx="89" cy="243" r="32" fill="#0E1C1C"/>
<circle cx="89" cy="243" r="31" stroke="#8F969E" stroke-opacity="0.16" stroke-width="2"/>
<path d="M88.1516 252.6H73.1516V255H88.1516V252.6Z" fill="white"/>
<path d="M73 236.312L74.1374 235.265C74.4408 235.639 74.7441 235.863 75.1232 235.863C75.5782 235.863 75.8057 235.564 75.8057 234.965V231H77.5498V234.965C77.5498 235.713 77.3223 236.312 76.9431 236.686C76.564 237.06 75.9573 237.285 75.1991 237.285C74.0616 237.359 73.455 236.911 73 236.312Z" fill="white"/>
<path d="M77.9289 231.074H83.0094V232.496H79.673V233.469H82.7061V234.815H79.673V235.788H83.0853V237.284H78.0047L77.9289 231.074Z" fill="white"/>
<path d="M85.2844 232.571H83.3886V231.074H88.9242V232.571H87.0284V237.284H85.2844V232.571Z" fill="white"/>
<path d="M73.1516 238.706H76.4123C77.1706 238.706 77.7772 238.931 78.1563 239.23C78.3838 239.454 78.5355 239.829 78.5355 240.277C78.5355 241.026 78.1563 241.4 77.5497 241.699C78.308 241.923 78.763 242.372 78.763 243.195C78.763 244.243 77.853 244.916 76.4123 244.916H73.1516V238.706ZM76.7914 240.652C76.7914 240.277 76.4881 240.128 76.0331 240.128H74.8957V241.25H75.9573C76.4881 241.175 76.7914 241.026 76.7914 240.652ZM76.1848 242.447H74.8199V243.569H76.1848C76.7156 243.569 77.0189 243.345 77.0189 242.971C77.0189 242.597 76.7156 242.447 76.1848 242.447Z" fill="white"/>
<path d="M79.0663 238.706H82.0236C83.0094 238.706 83.616 238.931 84.071 239.38C84.4502 239.754 84.6018 240.203 84.6018 240.801C84.6018 241.774 84.071 242.372 83.3127 242.746L84.8293 244.916H82.8578L81.5687 243.046H80.8104V244.916H79.0663V238.706ZM81.9478 241.699C82.5544 241.699 82.8578 241.4 82.8578 240.951C82.8578 240.427 82.4786 240.203 81.9478 240.203H80.8104V241.699H81.9478Z" fill="white"/>
<path d="M86.6494 238.706H88.3176L90.9716 244.991H89.0759L88.6209 243.869H86.1944L85.7394 244.991H83.9195L86.6494 238.706ZM88.1659 242.447L87.4835 240.726L86.801 242.447H88.1659Z" fill="white"/>
<path d="M91.199 238.706H92.9431V244.916H91.199V238.706Z" fill="white"/>
<path d="M93.3979 238.706H94.9904L97.5686 241.998V238.706H99.3126V244.916H97.7961L95.142 241.549V244.991H93.3979V238.706Z" fill="white"/>
<path d="M99.4645 244.018L100.45 242.896C101.057 243.419 101.739 243.644 102.498 243.644C102.953 243.644 103.256 243.494 103.256 243.195C103.256 242.896 103.028 242.821 102.194 242.596C100.829 242.297 99.8436 241.923 99.8436 240.651C99.8436 239.529 100.754 238.631 102.27 238.631C103.332 238.631 104.166 238.93 104.848 239.454L103.938 240.651C103.332 240.277 102.725 240.053 102.194 240.053C101.739 240.053 101.588 240.202 101.588 240.427C101.588 240.726 101.815 240.801 102.649 241.025C104.09 241.325 105 241.773 105 242.971C105 244.242 104.014 244.991 102.422 244.991C101.284 245.065 100.223 244.691 99.4645 244.018Z" fill="white"/>
<defs>
<linearGradient id="paint0_linear" x1="208.827" y1="140.977" x2="193.256" y2="153.466" gradientUnits="userSpaceOnUse">
<stop stop-color="#0052CC"/>
<stop offset="0.18" stop-color="#0052CC"/>
<stop offset="1" stop-color="#2684FF"/>
</linearGradient>
</defs>
</svg>
