<svg width="580" height="581" viewBox="0 0 580 581" fill="none" xmlns="http://www.w3.org/2000/svg">
    <g opacity="0.16">
        <path d="M1 0.950684C1 91.4104 289.041 50.9427 344 190.444" stroke="#8F969E" stroke-width="2"/>
        <circle cx="342" cy="369.951" r="180" stroke="#8F969E" stroke-width="2"/>
    </g>
    <circle cx="246" cy="350.87" r="32" fill="#0E1C1C"/>
    <circle cx="246" cy="350.87" r="31" stroke="#8F969E" stroke-opacity="0.16" stroke-width="2"/>
    <path fill-rule="evenodd" clip-rule="evenodd" d="M260.848 347.701C261.129 345.623 259.724 343.961 258.787 343.233C257.756 344.48 257.663 347.909 259.255 349.259C258.412 350.09 256.539 350.922 254.665 350.922H231.621C231.433 353.103 231.808 355.077 232.557 356.844L232.838 357.363C233.026 357.675 233.213 357.986 233.4 358.298C234.337 358.402 235.18 358.402 236.023 358.402C237.616 358.402 238.834 358.194 239.864 357.779C240.052 357.675 240.145 357.779 240.239 357.986C240.333 358.09 240.239 358.298 240.052 358.402C239.958 358.506 239.77 358.506 239.677 358.506C238.927 358.714 238.084 358.922 237.054 359.025C237.148 359.025 236.96 359.025 236.96 359.025H236.866C236.398 359.025 236.023 359.025 235.555 359.025C235.087 359.025 234.525 359.025 233.963 359.025C235.93 361.415 238.927 362.87 242.674 362.87C250.637 362.87 257.382 358.922 260.379 350.194C262.534 350.402 264.501 349.883 265.438 347.805C263.845 346.766 261.878 347.078 260.848 347.701Z" fill="#23A0C8"/>
    <path fill-rule="evenodd" clip-rule="evenodd" d="M260.848 347.701C261.129 345.623 259.724 343.961 258.787 343.233C257.756 344.48 257.663 347.909 259.255 349.259C258.412 350.09 256.539 350.922 254.665 350.922H233.026C232.932 354.246 234.056 356.844 236.023 358.402C237.616 358.402 238.834 358.194 239.864 357.779C240.052 357.675 240.145 357.779 240.239 357.986C240.333 358.09 240.239 358.298 240.052 358.402C239.958 358.506 239.77 358.506 239.677 358.506C238.927 358.714 237.991 358.922 236.96 359.025C239.677 360.584 243.611 360.584 248.108 358.61C253.166 356.428 257.85 352.376 261.129 347.701C260.941 347.701 260.848 347.701 260.848 347.701Z" fill="#38B1D9"/>
    <path fill-rule="evenodd" clip-rule="evenodd" d="M231.621 353.623C231.714 354.766 232.089 355.909 232.557 356.844L232.838 357.363C233.026 357.675 233.213 357.987 233.401 358.298C234.337 358.402 235.18 358.402 236.023 358.402C237.616 358.402 238.834 358.194 239.864 357.779C240.052 357.675 240.145 357.779 240.239 357.987C240.333 358.091 240.239 358.298 240.052 358.402C239.958 358.506 239.771 358.506 239.677 358.506C238.927 358.714 237.991 358.922 236.96 359.026H236.867C236.492 359.026 236.023 359.026 235.555 359.026C235.087 359.026 234.525 359.026 233.963 359.026C235.93 361.415 238.927 362.87 242.675 362.87C249.513 362.87 255.415 359.961 258.881 353.623H231.621Z" fill="#1F82A6"/>
    <path fill-rule="evenodd" clip-rule="evenodd" d="M233.119 353.623C233.494 355.701 234.525 357.259 235.93 358.402C237.522 358.402 238.74 358.194 239.77 357.779C239.958 357.675 240.051 357.779 240.145 357.987C240.239 358.091 240.145 358.298 239.958 358.402C239.864 358.506 239.677 358.506 239.583 358.506C238.834 358.714 237.897 358.922 236.866 359.026C239.583 360.584 243.518 360.584 248.014 358.61C250.731 357.467 253.354 355.701 255.695 353.623H233.119Z" fill="#1C92B5"/>
    <path fill-rule="evenodd" clip-rule="evenodd" d="M234.712 346.869H237.803V350.297H234.712V346.869ZM234.993 347.181H235.274V350.09H234.993V347.181ZM235.368 347.181H235.649V350.09H235.368V347.181ZM235.836 347.181H236.117V350.09H235.836V347.181ZM236.304 347.181H236.585V350.09H236.304V347.181ZM236.867 347.181H237.148V350.09H236.867V347.181ZM237.335 347.181H237.616V350.09H237.335V347.181ZM238.272 342.921H241.363V346.349H238.272V342.921ZM238.553 343.233H238.834V346.142H238.553V343.233ZM239.021 343.233H239.302V346.142H239.021V343.233ZM239.489 343.233H239.77V346.142H239.489V343.233ZM239.958 343.233H240.239V346.142H239.958V343.233ZM240.426 343.233H240.707V346.142H240.426V343.233ZM240.895 343.233H241.176V346.142H240.895V343.233Z" fill="#23A3C2"/>
    <path fill-rule="evenodd" clip-rule="evenodd" d="M238.272 346.869H241.363V350.298H238.272V346.869ZM238.553 347.181H238.834V350.09H238.553V347.181ZM239.021 347.181H239.302V350.09H239.021V347.181ZM239.489 347.181H239.77V350.09H239.489V347.181ZM239.958 347.181H240.239V350.09H239.958V347.181ZM240.426 347.181H240.707V350.09H240.426V347.181ZM240.895 347.181H241.176V350.09H240.895V347.181Z" fill="#35BCDF"/>
    <path fill-rule="evenodd" clip-rule="evenodd" d="M241.925 346.869H245.016V350.298H241.925V346.869ZM242.112 347.181H242.393V350.09H242.112V347.181ZM242.581 347.181H242.862V350.09H242.581V347.181ZM243.049 347.181H243.33V350.09H243.049V347.181ZM243.518 347.181H243.799V350.09H243.518V347.181ZM243.986 347.181H244.267V350.09H243.986V347.181ZM244.454 347.181H244.735V350.09H244.454V347.181Z" fill="#23A3C2"/>
    <path fill-rule="evenodd" clip-rule="evenodd" d="M241.925 342.921H245.016V346.349H241.925V342.921ZM242.112 343.233H242.393V346.142H242.112V343.233ZM242.581 343.233H242.862V346.142H242.581V343.233ZM243.049 343.233H243.33V346.142H243.049V343.233ZM243.518 343.233H243.799V346.142H243.518V343.233ZM243.986 343.233H244.267V346.142H243.986V343.233ZM244.454 343.233H244.735V346.142H244.454V343.233ZM245.485 346.869H248.576V350.297H245.485V346.869ZM245.766 347.181H246.047V350.09H245.766V347.181ZM246.234 347.181H246.515V350.09H246.234V347.181ZM246.703 347.181H246.984V350.09H246.703V347.181ZM247.171 347.181H247.452V350.09H247.171V347.181ZM247.639 347.181H247.92V350.09H247.639V347.181ZM248.108 347.181H248.389V350.09H248.108V347.181Z" fill="#35BCDF"/>
    <path fill-rule="evenodd" clip-rule="evenodd" d="M245.485 342.921H248.576V346.349H245.485V342.921ZM245.766 343.233H246.047V346.142H245.766V343.233ZM246.234 343.233H246.515V346.142H246.234V343.233ZM246.703 343.233H246.984V346.142H246.703V343.233ZM247.171 343.233H247.452V346.142H247.171V343.233ZM247.639 343.233H247.92V346.142H247.639V343.233ZM248.108 343.233H248.389V346.142H248.108V343.233Z" fill="#23A3C2"/>
    <path fill-rule="evenodd" clip-rule="evenodd" d="M245.485 338.87H248.576V342.298H245.485V338.87ZM245.766 339.181H246.047V342.09H245.766V339.181ZM246.234 339.181H246.515V342.09H246.234V339.181ZM246.703 339.181H246.984V342.09H246.703V339.181ZM247.171 339.181H247.452V342.09H247.171V339.181ZM247.639 339.181H247.92V342.09H247.639V339.181ZM248.108 339.181H248.389V342.09H248.108V339.181Z" fill="#35BCDF"/>
    <path fill-rule="evenodd" clip-rule="evenodd" d="M249.045 346.869H252.136V350.298H249.045V346.869ZM249.326 347.181H249.607V350.09H249.326V347.181ZM249.794 347.181H250.075V350.09H249.794V347.181ZM250.262 347.181H250.543V350.09H250.262V347.181ZM250.731 347.181H251.012V350.09H250.731V347.181ZM251.199 347.181H251.48V350.09H251.199V347.181ZM251.667 347.181H251.949V350.09H251.667V347.181Z" fill="#23A3C2"/>
    <path fill-rule="evenodd" clip-rule="evenodd" d="M241.176 355.908C241.644 355.908 242.019 356.324 242.019 356.843C242.019 357.363 241.644 357.778 241.176 357.778C240.707 357.778 240.333 357.363 240.333 356.843C240.333 356.324 240.707 355.908 241.176 355.908Z" fill="#D3EDEC"/>
    <path fill-rule="evenodd" clip-rule="evenodd" d="M241.176 356.22C241.269 356.22 241.363 356.22 241.363 356.22C241.269 356.324 241.176 356.428 241.269 356.636C241.363 356.74 241.363 356.74 241.457 356.74C241.55 356.74 241.644 356.636 241.644 356.636C241.738 356.948 241.644 357.363 241.269 357.571C240.988 357.675 240.614 357.571 240.426 357.155C240.333 356.844 240.426 356.428 240.801 356.22C241.082 356.22 241.082 356.22 241.176 356.22ZM226 353.935H266C265.157 353.727 263.283 353.311 263.564 352.064C261.972 354.142 258.131 353.519 257.194 352.48C256.07 354.246 249.888 353.519 249.419 352.168C248.108 353.935 243.892 353.935 242.581 352.168C242.112 353.519 235.93 354.142 234.806 352.48C233.869 353.415 230.028 354.038 228.436 352.064C228.717 353.415 226.843 353.727 226 353.935Z" fill="#374649"/>
    <path fill-rule="evenodd" clip-rule="evenodd" d="M243.518 362.765C241.363 361.622 240.239 360.168 239.583 358.505C238.834 358.713 237.803 358.921 236.773 359.025C236.398 359.025 235.93 359.025 235.461 359.025C234.899 359.025 234.337 359.025 233.775 358.921C235.742 361.103 238.084 362.765 242.581 362.765C242.862 362.869 243.143 362.765 243.518 362.765Z" fill="#BEDAD8"/>
    <path fill-rule="evenodd" clip-rule="evenodd" d="M240.333 360.064C240.051 359.648 239.77 359.025 239.583 358.505C238.834 358.817 237.803 358.921 236.773 359.025C237.429 359.44 238.553 359.856 240.333 360.064Z" fill="#D3EDEC"/>
    <circle cx="290" cy="443.87" r="32" fill="#0E1C1C"/>
    <circle cx="290" cy="443.87" r="31" stroke="#8F969E" stroke-opacity="0.16" stroke-width="2"/>
    <path d="M301.148 427.87H278.852C277.296 427.87 276 429.203 276 430.803V457.07C276 458.67 277.296 459.87 278.852 459.87H301.148C302.704 459.87 304 458.536 304 457.07V430.803C303.87 429.07 302.704 427.87 301.148 427.87ZM302.315 457.07C302.315 457.736 301.796 458.403 301.019 458.403H278.852C278.204 458.403 277.556 457.87 277.556 457.07V430.803C277.556 430.136 278.074 429.47 278.852 429.47H301.148C301.796 429.47 302.444 430.003 302.444 430.803V457.07H302.315ZM283 455.07L286.5 451.87L283 448.67V455.07ZM295.574 442.136C294.926 441.47 293.759 440.67 291.815 440.67C289.741 440.67 287.537 441.203 285.981 441.736V432.67H283V446.536L285.204 445.47C285.204 445.47 288.833 443.736 291.944 443.736C293.5 443.736 293.889 444.67 293.889 445.47V455.07H297V445.47C296.87 445.203 296.87 443.47 295.574 442.136ZM291.426 437.87H294.537C295.963 436.136 296.611 434.536 296.87 432.67H293.759C293.5 434.536 292.722 436.136 291.426 437.87Z" fill="#8163C7"/>
    <circle cx="342" cy="283.87" r="32" fill="#0E1C1C"/>
    <circle cx="342" cy="283.87" r="31" stroke="#8F969E" stroke-opacity="0.16" stroke-width="2"/>
    <path d="M334.947 281.262C334.947 281.658 335.011 281.988 335.074 282.252C335.138 282.516 335.266 282.781 335.394 283.045C335.458 283.111 335.458 283.243 335.458 283.309C335.458 283.441 335.394 283.507 335.266 283.639L334.563 284.101C334.436 284.167 334.372 284.167 334.308 284.167C334.18 284.167 334.116 284.101 333.988 284.035C333.861 283.903 333.733 283.705 333.605 283.507C333.477 283.309 333.413 283.111 333.286 282.847C332.455 283.837 331.433 284.365 330.155 284.365C329.261 284.365 328.558 284.101 328.047 283.573C327.536 283.045 327.281 282.318 327.281 281.46C327.281 280.536 327.6 279.744 328.239 279.216C328.878 278.622 329.772 278.358 330.858 278.358C331.241 278.358 331.625 278.358 332.008 278.424C332.391 278.49 332.839 278.556 333.222 278.688V277.896C333.222 277.038 333.03 276.444 332.711 276.114C332.391 275.784 331.816 275.586 330.986 275.586C330.603 275.586 330.219 275.652 329.836 275.718C329.453 275.85 329.069 275.916 328.686 276.114C328.494 276.18 328.367 276.246 328.303 276.246C328.239 276.246 328.175 276.246 328.111 276.246C327.983 276.246 327.856 276.114 327.856 275.916V275.388C327.856 275.19 327.856 275.058 327.919 274.992C327.983 274.926 328.047 274.86 328.239 274.728C328.622 274.53 329.069 274.332 329.58 274.2C330.092 274.068 330.666 274.002 331.241 274.002C332.519 274.002 333.413 274.332 334.052 274.926C334.627 275.52 334.947 276.444 334.947 277.632V281.262ZM330.666 282.913C331.05 282.913 331.369 282.847 331.752 282.715C332.136 282.582 332.455 282.318 332.775 281.988C332.966 281.79 333.094 281.526 333.158 281.262C333.222 280.998 333.286 280.668 333.286 280.272V279.81C332.966 279.744 332.647 279.678 332.327 279.612C332.008 279.546 331.625 279.546 331.305 279.546C330.603 279.546 330.092 279.678 329.708 280.008C329.325 280.272 329.197 280.734 329.197 281.262C329.197 281.79 329.325 282.186 329.58 282.45C329.772 282.781 330.155 282.913 330.666 282.913ZM339.227 284.101C339.035 284.101 338.907 284.101 338.844 283.969C338.78 283.903 338.652 283.771 338.588 283.507L336.097 274.992C336.033 274.794 335.969 274.596 335.969 274.53C335.969 274.332 336.033 274.266 336.224 274.266H337.246C337.438 274.266 337.566 274.266 337.694 274.398C337.758 274.464 337.821 274.596 337.885 274.86L339.674 282.12L341.335 274.86C341.399 274.662 341.463 274.464 341.527 274.398C341.591 274.332 341.782 274.266 341.974 274.266H342.804C342.996 274.266 343.124 274.266 343.252 274.398C343.315 274.464 343.443 274.596 343.443 274.86L345.104 282.252L346.957 274.86C347.021 274.662 347.085 274.464 347.148 274.398C347.212 274.332 347.404 274.266 347.596 274.266H348.618C348.809 274.266 348.873 274.332 348.873 274.53C348.873 274.596 348.873 274.662 348.873 274.728C348.873 274.794 348.809 274.86 348.809 274.992L346.254 283.507C346.19 283.705 346.126 283.903 345.999 283.903C345.935 283.969 345.743 284.035 345.615 284.035H344.721C344.529 284.035 344.401 283.969 344.274 283.903C344.21 283.837 344.082 283.705 344.082 283.441L342.421 276.312L340.76 283.375C340.696 283.573 340.632 283.771 340.568 283.837C340.505 283.903 340.313 283.969 340.121 283.969L339.227 284.101ZM352.898 284.431C352.323 284.431 351.812 284.365 351.237 284.233C350.726 284.101 350.279 283.969 350.023 283.771C349.832 283.639 349.704 283.573 349.704 283.441C349.64 283.375 349.64 283.243 349.64 283.111V282.516C349.64 282.252 349.704 282.186 349.895 282.186C349.959 282.186 350.023 282.186 350.087 282.252C350.151 282.252 350.279 282.318 350.343 282.384C350.726 282.582 351.109 282.715 351.493 282.781C351.94 282.847 352.323 282.913 352.77 282.913C353.473 282.913 353.984 282.781 354.303 282.516C354.623 282.252 354.878 281.922 354.878 281.46C354.878 281.13 354.751 280.866 354.623 280.668C354.431 280.47 354.048 280.272 353.537 280.074L352.004 279.546C351.237 279.282 350.662 278.886 350.279 278.424C349.895 277.962 349.768 277.368 349.768 276.84C349.768 276.378 349.895 275.982 350.087 275.586C350.279 275.256 350.534 274.926 350.854 274.662C351.173 274.398 351.556 274.2 351.94 274.068C352.387 273.936 352.834 273.87 353.281 273.87C353.537 273.87 353.792 273.87 353.984 273.936C354.24 274.002 354.431 274.002 354.687 274.068C354.878 274.134 355.134 274.2 355.326 274.266C355.517 274.332 355.645 274.398 355.773 274.464C355.9 274.53 356.028 274.662 356.092 274.728C356.156 274.794 356.22 274.926 356.22 275.124V275.652C356.22 275.85 356.156 275.982 355.964 275.982C355.9 275.982 355.773 275.916 355.581 275.85C354.942 275.586 354.303 275.454 353.537 275.454C352.898 275.454 352.451 275.52 352.131 275.784C351.812 275.982 351.62 276.312 351.62 276.774C351.62 277.104 351.748 277.368 351.94 277.566C352.131 277.764 352.579 277.962 353.09 278.16L354.623 278.688C355.389 278.952 355.964 279.282 356.284 279.744C356.603 280.206 356.795 280.734 356.795 281.262C356.795 281.724 356.667 282.186 356.539 282.516C356.348 282.913 356.092 283.243 355.773 283.507C355.453 283.771 355.07 283.969 354.559 284.101C353.92 284.365 353.473 284.431 352.898 284.431Z" fill="white"/>
    <path d="M354.942 289.777C351.429 292.484 346.318 293.87 341.974 293.87C335.841 293.87 330.283 291.493 326.131 287.599C325.811 287.269 326.131 286.873 326.514 287.137C331.05 289.843 336.608 291.493 342.357 291.493C346.254 291.493 350.534 290.635 354.431 288.919C355.006 288.655 355.517 289.315 354.942 289.777Z" fill="#FF9900"/>
    <path d="M356.348 288.061C355.9 287.467 353.409 287.797 352.259 287.929C351.94 287.995 351.876 287.665 352.195 287.401C354.176 285.949 357.498 286.345 357.881 286.873C358.264 287.401 357.753 290.767 355.9 292.417C355.581 292.682 355.326 292.55 355.453 292.219C355.9 291.097 356.795 288.655 356.348 288.061Z" fill="#FF9900"/>
    <circle cx="394" cy="443.87" r="32" fill="#0E1C1C"/>
    <circle cx="394" cy="443.87" r="31" stroke="#8F969E" stroke-opacity="0.16" stroke-width="2"/>
    <path d="M395.484 430.87L386.05 439.2L378 453.913H385.258L395.484 430.87ZM396.738 432.819L392.712 444.374L400.432 454.249L385.456 456.87H410L396.738 432.819Z" fill="#0072C6"/>
    <circle cx="438" cy="350.87" r="32" fill="#0E1C1C"/>
    <circle cx="438" cy="350.87" r="31" stroke="#8F969E" stroke-opacity="0.16" stroke-width="2"/>
    <path d="M442.305 345.029H443.281L446.063 342.221L446.2 341.029C444.606 339.609 442.68 338.622 440.604 338.163C438.528 337.703 436.371 337.785 434.335 338.402C432.299 339.018 430.452 340.148 428.969 341.685C427.487 343.223 426.416 345.116 425.86 347.187C426.17 347.059 426.513 347.038 426.836 347.128L432.399 346.202C432.399 346.202 432.682 345.729 432.828 345.758C434.02 344.437 435.668 343.625 437.433 343.489C439.199 343.354 440.949 343.905 442.325 345.029H442.305Z" fill="#EA4335"/>
    <path d="M450.026 347.187C449.386 344.81 448.074 342.673 446.249 341.039L442.344 344.98C443.158 345.651 443.81 346.5 444.251 347.463C444.693 348.426 444.912 349.477 444.892 350.537V351.237C445.348 351.237 445.8 351.328 446.222 351.504C446.643 351.68 447.026 351.939 447.349 352.264C447.671 352.59 447.927 352.977 448.102 353.403C448.277 353.828 448.366 354.284 448.366 354.745C448.366 355.206 448.277 355.662 448.102 356.087C447.927 356.513 447.671 356.9 447.349 357.225C447.026 357.551 446.643 357.809 446.222 357.986C445.8 358.162 445.348 358.253 444.892 358.253H437.943L437.25 358.962V363.17L437.943 363.869H444.892C446.832 363.885 448.726 363.269 450.293 362.113C451.86 360.958 453.017 359.323 453.593 357.452C454.169 355.581 454.133 353.573 453.49 351.724C452.848 349.876 451.633 348.285 450.026 347.187Z" fill="#4285F4"/>
    <path d="M430.984 363.83H437.933V358.213H430.984C430.489 358.213 429.999 358.106 429.549 357.898L428.573 358.203L425.772 361.012L425.528 361.997C427.099 363.195 429.015 363.838 430.984 363.83Z" fill="#34A853"/>
    <path d="M430.984 345.611C429.101 345.622 427.269 346.227 425.743 347.341C424.217 348.455 423.074 350.022 422.473 351.823C421.872 353.625 421.843 355.571 422.391 357.39C422.939 359.208 424.035 360.809 425.528 361.968L429.559 357.898C429.047 357.665 428.598 357.309 428.252 356.862C427.906 356.415 427.672 355.89 427.571 355.331C427.47 354.773 427.505 354.198 427.673 353.657C427.84 353.115 428.135 352.622 428.533 352.221C428.93 351.82 429.418 351.522 429.955 351.353C430.491 351.184 431.06 351.149 431.613 351.251C432.166 351.353 432.686 351.588 433.129 351.938C433.572 352.287 433.924 352.74 434.156 353.257L438.187 349.188C437.341 348.071 436.25 347.167 435.001 346.547C433.751 345.926 432.376 345.606 430.984 345.611Z" fill="#FBBC05"/>
</svg>
