<svg width="580" height="721" viewBox="0 0 580 721" fill="none" xmlns="http://www.w3.org/2000/svg">
    <g opacity="0.16">
        <path d="M579 0.974854C579 100.975 419 40.9749 419 240.975C419 440.975 419 360.975 419 360.975C419 360.975 419 280.975 419 480.975C419 680.975 579 620.975 579 720.975" stroke="#8F969E" stroke-width="2"/>
        <path d="M579 720.975C579 620.975 323 680.975 323 480.975V360.975C323 360.975 323 256.975 419 256.975" stroke="#8F969E" stroke-width="2"/>
        <path d="M579 0.974854C579 100.975 227 40.9749 227 240.975C227 440.975 227 360.975 227 360.975C227 360.975 227 280.975 227 480.975C227 680.975 579 620.975 579 720.975" stroke="#8F969E" stroke-width="2"/>
        <path d="M579 0.974854C579 100.975 131 40.9749 131 240.975C131 440.975 131 360.975 131 360.975C131 360.975 131 280.975 131 480.975C131 680.975 579 620.975 579 720.975" stroke="#8F969E" stroke-width="2"/>
        <path d="M579 0.974854C579 100.975 33 40.9749 33 240.975C33 440.975 33 360.975 33 360.975C33 360.975 33 280.975 33 480.975C33 680.975 579 620.975 579 720.975" stroke="#8F969E" stroke-width="2"/>
    </g>
    <circle cx="419" cy="256.909" r="32" fill="#0E1C1C"/>
    <circle cx="419" cy="256.909" r="31" stroke="#8F969E" stroke-opacity="0.16" stroke-width="2"/>
    <path d="M434.613 256.013L420.378 242.243L418.998 240.909L408.282 251.275L403.382 256.013C403.137 256.251 403 256.573 403 256.909C403 257.245 403.137 257.567 403.382 257.805L413.172 267.275L418.998 272.909L429.713 262.543L429.88 262.383L434.613 257.812C434.736 257.694 434.833 257.554 434.899 257.4C434.966 257.245 435 257.08 435 256.913C435 256.746 434.966 256.58 434.899 256.426C434.833 256.271 434.736 256.131 434.613 256.013ZM418.998 261.641L414.107 256.909L418.998 252.178L423.888 256.909L418.998 261.641Z" fill="#2684FF"/>
    <path d="M418.998 252.178C417.46 250.69 416.593 248.674 416.586 246.57C416.58 244.465 417.434 242.444 418.963 240.948L408.26 251.296L414.085 256.93L418.998 252.178Z" fill="url(#paint0_linear)"/>
    <path d="M423.901 256.896L418.998 261.641C420.542 263.135 421.41 265.161 421.41 267.274C421.41 269.386 420.542 271.412 418.998 272.906L429.73 262.531L423.901 256.896Z" fill="url(#paint1_linear)"/>
    <circle cx="323" cy="464.912" r="32" fill="#0E1C1C"/>
    <circle cx="323" cy="464.912" r="31" stroke="#8F969E" stroke-opacity="0.16" stroke-width="2"/>
    <path d="M308.188 472.818C307.843 473.326 307.497 473.962 307.151 474.428C306.848 474.894 307.021 475.486 307.497 475.783L314.113 479.764C314.589 480.061 315.237 479.891 315.497 479.425C315.756 479.002 316.102 478.409 316.492 477.816C319.13 473.581 321.724 474.089 326.481 476.334L333.055 479.383C333.573 479.637 334.179 479.425 334.395 478.917C334.395 478.917 334.395 478.917 334.395 478.875L337.552 471.886C337.768 471.378 337.552 470.827 337.033 470.573C335.649 469.938 332.882 468.667 330.417 467.481C321.551 463.331 313.983 463.585 308.188 472.818Z" fill="url(#paint2_linear)"/>
    <path d="M337.812 457.02C338.158 456.512 338.503 455.876 338.849 455.41C339.152 454.945 338.979 454.352 338.503 454.055L331.887 450.074C331.411 449.777 330.806 449.904 330.46 450.328L330.417 450.37C330.157 450.794 329.811 451.387 329.422 451.98C326.784 456.215 324.189 455.707 319.432 453.462L312.902 450.413C312.383 450.158 311.778 450.37 311.562 450.878C311.562 450.878 311.562 450.878 311.562 450.921L308.405 457.909C308.189 458.418 308.405 458.968 308.924 459.222C310.308 459.858 313.075 461.128 315.54 462.314C324.449 466.507 332.017 466.211 337.812 457.02Z" fill="url(#paint3_linear)"/>
    <circle cx="227" cy="360.909" r="32" fill="#0E1C1C"/>
    <circle cx="227" cy="360.909" r="31" stroke="#8F969E" stroke-opacity="0.16" stroke-width="2"/>
    <path fill-rule="evenodd" clip-rule="evenodd" d="M213 346.909C211.895 346.909 211 347.804 211 348.909V372.909C211 374.013 211.895 374.909 213 374.909H223C224.105 374.909 225 374.013 225 372.909V348.909C225 347.804 224.105 346.909 223 346.909H213ZM231 346.909C229.895 346.909 229 347.804 229 348.909V361.909C229 363.013 229.895 363.909 231 363.909H241C242.105 363.909 243 363.013 243 361.909V348.909C243 347.804 242.105 346.909 241 346.909H231Z" fill="url(#paint4_linear)"/>
    <circle cx="131" cy="256.908" r="32" fill="#0E1C1C"/>
    <circle cx="131" cy="256.908" r="31" stroke="#8F969E" stroke-opacity="0.16" stroke-width="2"/>
    <path fill-rule="evenodd" clip-rule="evenodd" d="M118.341 262.712L115 258.992L125.226 255.285L126.818 259.64L118.341 262.712Z" fill="#F89920"/>
    <path fill-rule="evenodd" clip-rule="evenodd" d="M118.316 262.645L118.159 267.634L128.385 263.927L126.794 259.573L118.316 262.645Z" fill="#FFBE22"/>
    <path fill-rule="evenodd" clip-rule="evenodd" d="M146.735 252.429C148.194 256.638 143.492 262.17 136.179 264.821C128.865 267.471 121.693 266.243 120.093 262.085L146.735 252.429Z" fill="#F0670A"/>
    <path fill-rule="evenodd" clip-rule="evenodd" d="M146.735 252.429C145.146 248.259 137.966 247.026 130.644 249.679C123.323 252.333 118.619 257.873 120.093 262.085L146.735 252.429Z" fill="#FFD00E"/>
    <path fill-rule="evenodd" clip-rule="evenodd" d="M146.734 252.429C147.643 255.246 142.539 259.632 135.248 262.275C127.957 264.917 121.215 264.824 120.094 262.084L146.734 252.429Z" fill="#F89920"/>
    <path fill-rule="evenodd" clip-rule="evenodd" d="M146.734 252.429C145.63 249.676 138.878 249.578 131.575 252.225C124.272 254.872 119.163 259.269 120.093 262.084L146.734 252.429Z" fill="#FFBE22"/>
    <path d="M134.444 248.608C133.748 246.212 132.957 244.883 132.056 244.909C130.316 244.958 129.731 250.453 130.294 257.495C130.863 264.611 132.34 269.956 134.181 269.908C135.279 269.879 135.897 268.131 136.114 265.094C136.118 265.032 136.049 265.075 136.053 265.012C136.053 265.012 136.044 264.901 136.003 264.899L135.769 264.884C135.578 267.832 134.999 269.53 134.171 269.552C132.658 269.591 131.198 264.303 130.651 257.467C130.113 250.742 130.692 245.304 132.067 245.265C132.717 245.247 133.446 246.47 134.091 248.677C134.091 248.677 134.444 248.609 134.444 248.608L134.444 248.608Z" fill="#F0670A"/>
    <path d="M125.82 246.899C124.337 247.808 126.59 252.858 130.613 258.676C134.679 264.555 138.642 268.45 140.212 267.491C141.089 266.956 140.843 265.33 139.713 262.875C139.704 262.853 139.69 262.833 139.673 262.816C139.656 262.799 139.635 262.786 139.613 262.777C139.591 262.769 139.567 262.764 139.543 262.765C139.519 262.766 139.495 262.771 139.473 262.781C139.451 262.791 139.432 262.805 139.415 262.823C139.399 262.841 139.387 262.862 139.379 262.884C139.371 262.907 139.368 262.931 139.369 262.955C139.371 262.979 139.377 263.002 139.388 263.023C140.438 265.305 140.664 266.797 140.025 267.187C138.734 267.975 134.814 264.123 130.908 258.473C127.065 252.918 124.836 247.921 126.008 247.202C126.629 246.821 128.108 247.741 130.062 249.729C130.084 249.751 130.209 249.88 130.237 249.888C130.297 249.907 130.267 249.779 130.315 249.732C130.332 249.715 130.345 249.696 130.355 249.674C130.364 249.653 130.369 249.63 130.369 249.606C130.369 249.583 130.365 249.559 130.356 249.538C130.347 249.516 130.334 249.496 130.318 249.48C128.23 247.356 126.664 246.381 125.82 246.898V246.899Z" fill="#F0670A"/>
    <circle cx="34" cy="464.912" r="32" fill="#0E1C1C"/>
    <circle cx="34" cy="464.912" r="31" stroke="#8F969E" stroke-opacity="0.16" stroke-width="2"/>
    <path d="M46.9086 476.718C46.9086 474.439 45.08 472.524 42.7028 472.524C40.3257 472.524 38.4971 474.348 38.4971 476.718C38.4971 479.089 40.3257 480.912 42.7028 480.912C45.08 480.912 46.9086 478.997 46.9086 476.718Z" fill="#DE8B30"/>
    <path d="M42.7943 457.3C40.5086 457.3 38.5886 455.476 38.5886 453.106C38.5886 450.735 40.4171 448.912 42.7943 448.912C45.1714 448.912 47 450.735 47 453.106C47 455.476 45.08 457.3 42.7943 457.3Z" fill="#DE8B30"/>
    <path d="M35.1143 476.719C35.1143 478.998 33.2857 480.912 30.9086 480.912C28.6229 480.912 26.7029 479.089 26.7029 476.719C26.7029 472.525 23.2286 469.06 19.0229 469.06C16.8286 469.06 15 467.237 15 464.958C15 462.679 16.8286 460.764 19.2057 460.764C23.4114 460.764 26.8857 457.3 26.8857 453.106C26.7943 450.827 28.7143 449.003 31 449.003C33.2857 449.003 35.1143 450.827 35.1143 453.197C35.1143 455.568 33.2857 457.391 30.9086 457.391C26.7029 457.391 23.2286 460.855 23.2286 465.049C23.2286 469.243 26.6114 472.707 30.9086 472.707C33.2857 472.525 35.1143 474.439 35.1143 476.719Z" fill="#DE8B30"/>
    <defs>
        <linearGradient id="paint0_linear" x1="418.123" y1="247.39" x2="411.519" y2="254.216" gradientUnits="userSpaceOnUse">
            <stop offset="0.18" stop-color="#0052CC"/>
            <stop offset="1" stop-color="#2684FF"/>
        </linearGradient>
        <linearGradient id="paint1_linear" x1="1649.45" y1="1630.07" x2="2333" y2="2088.19" gradientUnits="userSpaceOnUse">
            <stop offset="0.18" stop-color="#0052CC"/>
            <stop offset="1" stop-color="#2684FF"/>
        </linearGradient>
        <linearGradient id="paint2_linear" x1="337.397" y1="481.857" x2="317.61" y2="470.248" gradientUnits="userSpaceOnUse">
            <stop offset="0.18" stop-color="#0052CC"/>
            <stop offset="1" stop-color="#2684FF"/>
        </linearGradient>
        <linearGradient id="paint3_linear" x1="308.618" y1="447.984" x2="328.411" y2="459.598" gradientUnits="userSpaceOnUse">
            <stop offset="0.18" stop-color="#0052CC"/>
            <stop offset="1" stop-color="#2684FF"/>
        </linearGradient>
        <linearGradient id="paint4_linear" x1="242.752" y1="378.539" x2="217.674" y2="370.302" gradientUnits="userSpaceOnUse">
            <stop offset="0.18" stop-color="#0052CC"/>
            <stop offset="1" stop-color="#2684FF"/>
        </linearGradient>
    </defs>
</svg>