<svg width="581" height="721" viewBox="0 0 581 721" fill="none" xmlns="http://www.w3.org/2000/svg">
    <g opacity="0.16">
        <path d="M2 0.980469C2 100.98 162 40.9805 162 240.98C162 440.98 162 360.98 162 360.98C162 360.98 162 280.98 162 480.98C162 680.98 2 620.98 2 720.98" stroke="#8F969E" stroke-width="2"/>
        <path d="M2 0.993164C2 100.993 306 40.9932 306 240.993C306 440.993 306 360.993 306 360.993C306 360.993 306 280.993 306 480.993C306 680.993 2 620.993 2 720.993" stroke="#8F969E" stroke-width="2"/>
        <path d="M1 0.975586C1 100.976 449 40.9756 449 240.976C449 440.976 449 360.976 449 360.976C449 360.976 449 280.976 449 480.976C449 680.976 1 620.976 1 720.976" stroke="#8F969E" stroke-width="2"/>
    </g>
    <circle cx="162" cy="311.92" r="32" fill="#0E1C1C"/>
    <circle cx="162" cy="311.92" r="31" stroke="#8F969E" stroke-opacity="0.16" stroke-width="2"/>
    <path d="M156.5 327.921C159.536 327.921 162 325.531 162 322.587V317.254H156.5C153.464 317.254 151 319.643 151 322.587C151 325.531 153.464 327.921 156.5 327.921Z" fill="#0ACF83"/>
    <path d="M151 311.92C151 308.976 153.464 306.587 156.5 306.587H162V317.254H156.5C153.464 317.254 151 314.864 151 311.92Z" fill="#A259FF"/>
    <path d="M151 301.254C151 298.31 153.464 295.92 156.5 295.92H162V306.587H156.5C153.464 306.587 151 304.198 151 301.254Z" fill="#F24E1E"/>
    <path d="M162 295.92H167.5C170.536 295.92 173 298.31 173 301.254C173 304.198 170.536 306.587 167.5 306.587H162V295.92Z" fill="#FF7262"/>
    <path d="M173 311.92C173 314.864 170.536 317.254 167.5 317.254C164.464 317.254 162 314.864 162 311.92C162 308.976 164.464 306.587 167.5 306.587C170.536 306.587 173 308.976 173 311.92Z" fill="#1ABCFE"/>
    <circle cx="306" cy="407.919" r="32" fill="#0E1C1C"/>
    <circle cx="306" cy="407.919" r="31" stroke="#8F969E" stroke-opacity="0.16" stroke-width="2"/>
    <path d="M317.97 405.343C317.645 405.189 317.233 405.123 316.713 405.123C313.983 405.123 312.163 407.259 312.163 410.804C312.163 414.855 314.027 416.485 316.453 416.485C316.973 416.485 317.537 416.419 317.948 416.242V405.343H317.97ZM308.263 410.98C308.263 405.85 311.513 401.842 316.843 401.842C317.298 401.842 317.537 401.842 317.97 401.886V396.162C317.97 396.03 318.078 395.941 318.187 395.941H321.675C321.848 395.941 321.892 396.008 321.892 396.118V416.242C321.892 416.837 321.892 417.585 322 418.4C322 418.554 322 418.576 321.87 418.642C320.05 419.523 318.143 419.919 316.323 419.919C311.622 419.919 308.263 416.969 308.263 410.98ZM300.875 407.413L306.942 419.369C307.05 419.545 306.985 419.721 306.812 419.721H303.042C302.804 419.721 302.695 419.655 302.587 419.435C301.2 416.529 299.792 413.512 298.34 410.385H298.297C296.997 413.336 295.567 416.551 294.18 419.457C294.072 419.633 293.964 419.699 293.79 419.699H290.194C289.977 419.699 289.955 419.523 290.064 419.391L296 407.787L290.259 396.25C290.129 396.074 290.259 395.919 290.41 395.919H294.137C294.354 395.919 294.462 395.963 294.527 396.162C295.892 399.09 297.279 401.974 298.579 404.925H298.622C299.879 402.019 301.265 399.09 302.587 396.206C302.695 396.03 302.76 395.919 302.977 395.919H306.465C306.638 395.919 306.703 396.052 306.595 396.25L300.875 407.413Z" fill="#FF2BC2"/>
    <circle cx="449" cy="311.923" r="32" fill="#0E1C1C"/>
    <circle cx="449" cy="311.923" r="31" stroke="#8F969E" stroke-opacity="0.16" stroke-width="2"/>
    <path d="M449 296.923L439.982 297.911L433 307.621L449 326.923L465 307.621L458.018 297.911L449 296.923Z" fill="#FDB300"/>
    <path d="M433 307.621L449 326.923L439.481 307.621H433Z" fill="#EB6C00"/>
    <path d="M458.519 307.621L449 326.923L465 307.621H458.519Z" fill="#EB6C00"/>
    <path d="M439.481 307.621L449 326.923L458.519 307.621H439.481Z" fill="#FDAD00"/>
    <path d="M439.982 297.911L439.481 307.621L449 296.923L439.982 297.911Z" fill="#FDD231"/>
    <path d="M458.519 307.621L458.018 297.911L449 296.923L458.519 307.621Z" fill="#FDD231"/>
    <path d="M458.519 307.621H465L458.018 297.911L458.519 307.621Z" fill="#FDAD00"/>
    <path d="M433 307.621H439.481L439.982 297.911L433 307.621Z" fill="#FDAD00"/>
    <path d="M449 296.923L439.481 307.621H458.519L449 296.923Z" fill="#FEEEB7"/>
</svg>
