<svg width="340" height="529" viewBox="0 0 340 529" fill="none" xmlns="http://www.w3.org/2000/svg">
<g opacity="0.16">
<path d="M7 0C7 90.5141 143.397 49.7978 169 190" stroke="#8F969E" stroke-width="2"/>
<circle cx="170" cy="359" r="169" fill="#0E1C1C" stroke="#8F969E" stroke-width="2"/>
</g>
<circle cx="75" cy="350" r="32" fill="#0E1C1C"/>
<circle cx="75" cy="350" r="31" stroke="#8F969E" stroke-opacity="0.16" stroke-width="2"/>
<path fill-rule="evenodd" clip-rule="evenodd" d="M89.8478 346.832C90.1288 344.754 88.7237 343.092 87.7869 342.364C86.7564 343.611 86.6628 347.04 88.2553 348.39C87.4122 349.221 85.5387 350.052 83.6651 350.052H60.6206C60.4333 352.234 60.808 354.208 61.5574 355.974L61.8384 356.494C62.0258 356.806 62.2131 357.117 62.4005 357.429C63.3372 357.533 64.1803 357.533 65.0234 357.533C66.6159 357.533 67.8337 357.325 68.8642 356.91C69.0515 356.806 69.1452 356.91 69.2389 357.117C69.3326 357.221 69.2389 357.429 69.0515 357.533C68.9579 357.637 68.7705 357.637 68.6768 357.637C67.9274 357.845 67.0843 358.052 66.0539 358.156C66.1476 358.156 65.9602 358.156 65.9602 358.156H65.8665C65.3981 358.156 65.0234 358.156 64.555 358.156C64.0867 358.156 63.5246 358.156 62.9625 358.156C64.9298 360.546 67.9274 362 71.6745 362C79.637 362 86.3817 358.052 89.3794 349.325C91.534 349.533 93.5012 349.014 94.4379 346.936C92.8454 345.897 90.8782 346.208 89.8478 346.832Z" fill="#23A0C8"/>
<path fill-rule="evenodd" clip-rule="evenodd" d="M89.8478 346.832C90.1288 344.754 88.7236 343.092 87.7869 342.364C86.7564 343.611 86.6628 347.04 88.2553 348.39C87.4122 349.221 85.5386 350.052 83.6651 350.052H62.0258C61.9321 353.377 63.0562 355.974 65.0234 357.533C66.6159 357.533 67.8337 357.325 68.8642 356.91C69.0515 356.806 69.1452 356.91 69.2389 357.117C69.3325 357.221 69.2389 357.429 69.0515 357.533C68.9578 357.637 68.7705 357.637 68.6768 357.637C67.9274 357.845 66.9906 358.052 65.9602 358.156C68.6768 359.715 72.6112 359.715 77.1077 357.741C82.1663 355.559 86.8501 351.507 90.1288 346.832C89.9414 346.832 89.8478 346.832 89.8478 346.832Z" fill="#38B1D9"/>
<path fill-rule="evenodd" clip-rule="evenodd" d="M60.6207 352.753C60.7143 353.896 61.0891 355.039 61.5574 355.974L61.8385 356.493C62.0258 356.805 62.2132 357.117 62.4005 357.428C63.3373 357.532 64.1804 357.532 65.0235 357.532C66.616 357.532 67.8338 357.324 68.8642 356.909C69.0516 356.805 69.1453 356.909 69.2389 357.117C69.3326 357.22 69.2389 357.428 69.0516 357.532C68.9579 357.636 68.7705 357.636 68.6769 357.636C67.9275 357.844 66.9907 358.052 65.9602 358.155H65.8666C65.4919 358.155 65.0235 358.155 64.5551 358.155C64.0867 358.155 63.5246 358.155 62.9626 358.155C64.9298 360.545 67.9275 362 71.6745 362C78.5129 362 84.4146 359.091 87.8806 352.753H60.6207Z" fill="#1F82A6"/>
<path fill-rule="evenodd" clip-rule="evenodd" d="M62.1194 352.753C62.4941 354.831 63.5245 356.389 64.9297 357.532C66.5222 357.532 67.74 357.324 68.7704 356.909C68.9578 356.805 69.0515 356.909 69.1451 357.117C69.2388 357.22 69.1451 357.428 68.9578 357.532C68.8641 357.636 68.6768 357.636 68.5831 357.636C67.8337 357.844 66.8969 358.052 65.8665 358.155C68.5831 359.714 72.5175 359.714 77.014 357.74C79.7306 356.597 82.3536 354.831 84.6955 352.753H62.1194Z" fill="#1C92B5"/>
<path fill-rule="evenodd" clip-rule="evenodd" d="M63.7119 345.999H66.8032V349.427H63.7119V345.999ZM63.9929 346.31H64.274V349.22H63.9929V346.31ZM64.3677 346.31H64.6487V349.22H64.3677V346.31ZM64.836 346.31H65.1171V349.22H64.836V346.31ZM65.3044 346.31H65.5855V349.22H65.3044V346.31ZM65.8665 346.31H66.1475V349.22H65.8665V346.31ZM66.3349 346.31H66.6159V349.22H66.3349V346.31ZM67.2716 342.051H70.363V345.479H67.2716V342.051ZM67.5527 342.362H67.8337V345.272H67.5527V342.362ZM68.021 342.362H68.3021V345.272H68.021V342.362ZM68.4894 342.362H68.7705V345.272H68.4894V342.362ZM68.9578 342.362H69.2388V345.272H68.9578V342.362ZM69.4262 342.362H69.7072V345.272H69.4262V342.362ZM69.8946 342.362H70.1756V345.272H69.8946V342.362Z" fill="#23A3C2"/>
<path fill-rule="evenodd" clip-rule="evenodd" d="M67.2717 346H70.363V349.429H67.2717V346ZM67.5527 346.312H67.8337V349.221H67.5527V346.312ZM68.0211 346.312H68.3021V349.221H68.0211V346.312ZM68.4895 346.312H68.7705V349.221H68.4895V346.312ZM68.9578 346.312H69.2389V349.221H68.9578V346.312ZM69.4262 346.312H69.7073V349.221H69.4262V346.312ZM69.8946 346.312H70.1756V349.221H69.8946V346.312Z" fill="#35BCDF"/>
<path fill-rule="evenodd" clip-rule="evenodd" d="M70.9251 346H74.0164V349.429H70.9251V346ZM71.1125 346.312H71.3935V349.221H71.1125V346.312ZM71.5808 346.312H71.8619V349.221H71.5808V346.312ZM72.0492 346.312H72.3303V349.221H72.0492V346.312ZM72.5176 346.312H72.7986V349.221H72.5176V346.312ZM72.986 346.312H73.267V349.221H72.986V346.312ZM73.4544 346.312H73.7354V349.221H73.4544V346.312Z" fill="#23A3C2"/>
<path fill-rule="evenodd" clip-rule="evenodd" d="M70.9251 342.051H74.0164V345.479H70.9251V342.051ZM71.1125 342.362H71.3935V345.272H71.1125V342.362ZM71.5808 342.362H71.8619V345.272H71.5808V342.362ZM72.0492 342.362H72.3303V345.272H72.0492V342.362ZM72.5176 342.362H72.7986V345.272H72.5176V342.362ZM72.986 342.362H73.267V345.272H72.986V342.362ZM73.4544 342.362H73.7354V345.272H73.4544V342.362ZM74.4848 345.999H77.5762V349.427H74.4848V345.999ZM74.7659 346.31H75.0469V349.22H74.7659V346.31ZM75.2342 346.31H75.5153V349.22H75.2342V346.31ZM75.7026 346.31H75.9837V349.22H75.7026V346.31ZM76.171 346.31H76.452V349.22H76.171V346.31ZM76.6394 346.31H76.9204V349.22H76.6394V346.31ZM77.1078 346.31H77.3888V349.22H77.1078V346.31Z" fill="#35BCDF"/>
<path fill-rule="evenodd" clip-rule="evenodd" d="M74.4847 342.051H77.5761V345.479H74.4847V342.051ZM74.7658 342.362H75.0468V345.272H74.7658V342.362ZM75.2342 342.362H75.5152V345.272H75.2342V342.362ZM75.7025 342.362H75.9836V345.272H75.7025V342.362ZM76.1709 342.362H76.452V345.272H76.1709V342.362ZM76.6393 342.362H76.9203V345.272H76.6393V342.362ZM77.1077 342.362H77.3887V345.272H77.1077V342.362Z" fill="#23A3C2"/>
<path fill-rule="evenodd" clip-rule="evenodd" d="M74.4847 338H77.5761V341.429H74.4847V338ZM74.7658 338.312H75.0468V341.221H74.7658V338.312ZM75.2342 338.312H75.5152V341.221H75.2342V338.312ZM75.7025 338.312H75.9836V341.221H75.7025V338.312ZM76.1709 338.312H76.452V341.221H76.1709V338.312ZM76.6393 338.312H76.9203V341.221H76.6393V338.312ZM77.1077 338.312H77.3887V341.221H77.1077V338.312Z" fill="#35BCDF"/>
<path fill-rule="evenodd" clip-rule="evenodd" d="M78.0446 346H81.1359V349.429H78.0446V346ZM78.3256 346.312H78.6066V349.221H78.3256V346.312ZM78.794 346.312H79.075V349.221H78.794V346.312ZM79.2624 346.312H79.5434V349.221H79.2624V346.312ZM79.7307 346.312H80.0118V349.221H79.7307V346.312ZM80.1991 346.312H80.4802V349.221H80.1991V346.312ZM80.6675 346.312H80.9485V349.221H80.6675V346.312Z" fill="#23A3C2"/>
<path fill-rule="evenodd" clip-rule="evenodd" d="M70.1756 355.039C70.644 355.039 71.0187 355.455 71.0187 355.974C71.0187 356.494 70.644 356.909 70.1756 356.909C69.7072 356.909 69.3325 356.494 69.3325 355.974C69.3325 355.455 69.7072 355.039 70.1756 355.039Z" fill="#D3EDEC"/>
<path fill-rule="evenodd" clip-rule="evenodd" d="M70.1756 355.35C70.2693 355.35 70.363 355.35 70.363 355.35C70.2693 355.454 70.1756 355.558 70.2693 355.766C70.363 355.87 70.363 355.87 70.4567 355.87C70.5504 355.87 70.644 355.766 70.644 355.766C70.7377 356.077 70.644 356.493 70.2693 356.701C69.9883 356.805 69.6136 356.701 69.4262 356.285C69.3326 355.973 69.4262 355.558 69.8009 355.35C70.082 355.35 70.082 355.35 70.1756 355.35ZM55 353.064H95C94.1569 352.857 92.2834 352.441 92.5644 351.194C90.9719 353.272 87.1311 352.649 86.1944 351.61C85.0703 353.376 78.8876 352.649 78.4192 351.298C77.1077 353.064 72.8923 353.064 71.5808 351.298C71.1124 352.649 64.9297 353.272 63.8056 351.61C62.8689 352.545 59.0281 353.168 57.4356 351.194C57.7166 352.545 55.8431 352.857 55 353.064Z" fill="#374649"/>
<path fill-rule="evenodd" clip-rule="evenodd" d="M72.5175 361.895C70.363 360.753 69.2388 359.298 68.5831 357.636C67.8337 357.844 66.8032 358.051 65.7728 358.155C65.3981 358.155 64.9297 358.155 64.4613 358.155C63.8993 358.155 63.3372 358.155 62.7751 358.051C64.7424 360.233 67.0843 361.895 71.5808 361.895C71.8618 361.999 72.1428 361.895 72.5175 361.895Z" fill="#BEDAD8"/>
<path fill-rule="evenodd" clip-rule="evenodd" d="M69.3325 359.194C69.0515 358.779 68.7705 358.155 68.5831 357.636C67.8337 357.947 66.8033 358.051 65.7728 358.155C66.4286 358.571 67.5527 358.986 69.3325 359.194Z" fill="#D3EDEC"/>
<circle cx="119" cy="443" r="32" fill="#0E1C1C"/>
<circle cx="119" cy="443" r="31" stroke="#8F969E" stroke-opacity="0.16" stroke-width="2"/>
<path d="M130.148 427H107.852C106.296 427 105 428.333 105 429.933V456.2C105 457.8 106.296 459 107.852 459H130.148C131.704 459 133 457.667 133 456.2V429.933C132.87 428.2 131.704 427 130.148 427ZM131.315 456.2C131.315 456.867 130.796 457.533 130.019 457.533H107.852C107.204 457.533 106.556 457 106.556 456.2V429.933C106.556 429.267 107.074 428.6 107.852 428.6H130.148C130.796 428.6 131.444 429.133 131.444 429.933V456.2H131.315ZM112 454.2L115.5 451L112 447.8V454.2ZM124.574 441.267C123.926 440.6 122.759 439.8 120.815 439.8C118.741 439.8 116.537 440.333 114.981 440.867V431.8H112V445.667L114.204 444.6C114.204 444.6 117.833 442.867 120.944 442.867C122.5 442.867 122.889 443.8 122.889 444.6V454.2H126V444.6C125.87 444.333 125.87 442.6 124.574 441.267ZM120.426 437H123.537C124.963 435.267 125.611 433.667 125.87 431.8H122.759C122.5 433.667 121.722 435.267 120.426 437Z" fill="#8163C7"/>
<circle cx="171" cy="283" r="32" fill="#0E1C1C"/>
<circle cx="171" cy="283" r="31" stroke="#8F969E" stroke-opacity="0.16" stroke-width="2"/>
<path d="M163.947 280.393C163.947 280.789 164.011 281.119 164.074 281.383C164.138 281.647 164.266 281.911 164.394 282.175C164.458 282.241 164.458 282.373 164.458 282.439C164.458 282.571 164.394 282.637 164.266 282.769L163.563 283.231C163.436 283.297 163.372 283.297 163.308 283.297C163.18 283.297 163.116 283.231 162.988 283.165C162.861 283.033 162.733 282.835 162.605 282.637C162.477 282.439 162.413 282.241 162.286 281.977C161.455 282.967 160.433 283.495 159.155 283.495C158.261 283.495 157.558 283.231 157.047 282.703C156.536 282.175 156.281 281.449 156.281 280.591C156.281 279.667 156.6 278.875 157.239 278.347C157.878 277.752 158.772 277.488 159.858 277.488C160.241 277.488 160.625 277.488 161.008 277.554C161.391 277.62 161.839 277.686 162.222 277.818V277.026C162.222 276.168 162.03 275.574 161.711 275.244C161.391 274.914 160.816 274.716 159.986 274.716C159.603 274.716 159.219 274.782 158.836 274.848C158.453 274.98 158.069 275.046 157.686 275.244C157.494 275.31 157.367 275.376 157.303 275.376C157.239 275.376 157.175 275.376 157.111 275.376C156.983 275.376 156.856 275.244 156.856 275.046V274.518C156.856 274.32 156.856 274.188 156.919 274.122C156.983 274.056 157.047 273.99 157.239 273.858C157.622 273.66 158.069 273.462 158.58 273.33C159.092 273.198 159.666 273.132 160.241 273.132C161.519 273.132 162.413 273.462 163.052 274.056C163.627 274.65 163.947 275.574 163.947 276.762V280.393ZM159.666 282.043C160.05 282.043 160.369 281.977 160.752 281.845C161.136 281.713 161.455 281.449 161.775 281.119C161.966 280.921 162.094 280.657 162.158 280.393C162.222 280.129 162.286 279.799 162.286 279.403V278.941C161.966 278.875 161.647 278.809 161.327 278.743C161.008 278.677 160.625 278.677 160.305 278.677C159.603 278.677 159.092 278.809 158.708 279.139C158.325 279.403 158.197 279.865 158.197 280.393C158.197 280.921 158.325 281.317 158.58 281.581C158.772 281.911 159.155 282.043 159.666 282.043ZM168.227 283.231C168.035 283.231 167.907 283.231 167.844 283.099C167.78 283.033 167.652 282.901 167.588 282.637L165.097 274.122C165.033 273.924 164.969 273.726 164.969 273.66C164.969 273.462 165.033 273.396 165.224 273.396H166.246C166.438 273.396 166.566 273.396 166.694 273.528C166.758 273.594 166.821 273.726 166.885 273.99L168.674 281.251L170.335 273.99C170.399 273.792 170.463 273.594 170.527 273.528C170.591 273.462 170.782 273.396 170.974 273.396H171.804C171.996 273.396 172.124 273.396 172.252 273.528C172.315 273.594 172.443 273.726 172.443 273.99L174.104 281.383L175.957 273.99C176.021 273.792 176.085 273.594 176.148 273.528C176.212 273.462 176.404 273.396 176.596 273.396H177.618C177.809 273.396 177.873 273.462 177.873 273.66C177.873 273.726 177.873 273.792 177.873 273.858C177.873 273.924 177.809 273.99 177.809 274.122L175.254 282.637C175.19 282.835 175.126 283.033 174.999 283.033C174.935 283.099 174.743 283.165 174.615 283.165H173.721C173.529 283.165 173.401 283.099 173.274 283.033C173.21 282.967 173.082 282.835 173.082 282.571L171.421 275.442L169.76 282.505C169.696 282.703 169.632 282.901 169.568 282.967C169.505 283.033 169.313 283.099 169.121 283.099L168.227 283.231ZM181.898 283.561C181.323 283.561 180.812 283.495 180.237 283.363C179.726 283.231 179.279 283.099 179.023 282.901C178.832 282.769 178.704 282.703 178.704 282.571C178.64 282.505 178.64 282.373 178.64 282.241V281.647C178.64 281.383 178.704 281.317 178.895 281.317C178.959 281.317 179.023 281.317 179.087 281.383C179.151 281.383 179.279 281.449 179.343 281.515C179.726 281.713 180.109 281.845 180.493 281.911C180.94 281.977 181.323 282.043 181.77 282.043C182.473 282.043 182.984 281.911 183.303 281.647C183.623 281.383 183.878 281.053 183.878 280.591C183.878 280.261 183.751 279.997 183.623 279.799C183.431 279.601 183.048 279.403 182.537 279.205L181.004 278.677C180.237 278.413 179.662 278.017 179.279 277.554C178.895 277.092 178.768 276.498 178.768 275.97C178.768 275.508 178.895 275.112 179.087 274.716C179.279 274.386 179.534 274.056 179.854 273.792C180.173 273.528 180.556 273.33 180.94 273.198C181.387 273.066 181.834 273 182.281 273C182.537 273 182.792 273 182.984 273.066C183.24 273.132 183.431 273.132 183.687 273.198C183.878 273.264 184.134 273.33 184.326 273.396C184.517 273.462 184.645 273.528 184.773 273.594C184.9 273.66 185.028 273.792 185.092 273.858C185.156 273.924 185.22 274.056 185.22 274.254V274.782C185.22 274.98 185.156 275.112 184.964 275.112C184.9 275.112 184.773 275.046 184.581 274.98C183.942 274.716 183.303 274.584 182.537 274.584C181.898 274.584 181.451 274.65 181.131 274.914C180.812 275.112 180.62 275.442 180.62 275.904C180.62 276.234 180.748 276.498 180.94 276.696C181.131 276.894 181.579 277.092 182.09 277.29L183.623 277.818C184.389 278.083 184.964 278.413 185.284 278.875C185.603 279.337 185.795 279.865 185.795 280.393C185.795 280.855 185.667 281.317 185.539 281.647C185.348 282.043 185.092 282.373 184.773 282.637C184.453 282.901 184.07 283.099 183.559 283.231C182.92 283.495 182.473 283.561 181.898 283.561Z" fill="white"/>
<path d="M183.942 288.907C180.429 291.613 175.318 293 170.974 293C164.841 293 159.283 290.623 155.131 286.729C154.811 286.399 155.131 286.003 155.514 286.267C160.05 288.973 165.608 290.623 171.357 290.623C175.254 290.623 179.534 289.765 183.431 288.049C184.006 287.785 184.517 288.445 183.942 288.907Z" fill="#FF9900"/>
<path d="M185.348 287.191C184.9 286.597 182.409 286.927 181.259 287.059C180.94 287.125 180.876 286.795 181.195 286.531C183.176 285.079 186.498 285.475 186.881 286.003C187.264 286.531 186.753 289.897 184.9 291.547C184.581 291.811 184.326 291.679 184.453 291.349C184.9 290.227 185.795 287.785 185.348 287.191Z" fill="#FF9900"/>
<circle cx="223" cy="443" r="32" fill="#0E1C1C"/>
<circle cx="223" cy="443" r="31" stroke="#8F969E" stroke-opacity="0.16" stroke-width="2"/>
<path d="M224.484 430L215.05 438.33L207 453.043H214.258L224.484 430ZM225.738 431.949L221.712 443.504L229.432 453.38L214.456 456H239L225.738 431.949Z" fill="#0072C6"/>
<circle cx="267" cy="350" r="32" fill="#0E1C1C"/>
<circle cx="267" cy="350" r="31" stroke="#8F969E" stroke-opacity="0.16" stroke-width="2"/>
<path d="M271.306 344.16H272.282L275.063 341.351L275.2 340.159C273.606 338.739 271.681 337.753 269.604 337.293C267.528 336.833 265.371 336.916 263.335 337.532C261.299 338.148 259.452 339.279 257.969 340.816C256.487 342.353 255.416 344.247 254.86 346.317C255.17 346.189 255.513 346.168 255.836 346.258L261.399 345.332C261.399 345.332 261.682 344.859 261.829 344.889C263.021 343.567 264.668 342.755 266.433 342.62C268.199 342.484 269.949 343.035 271.325 344.16H271.306Z" fill="#EA4335"/>
<path d="M279.026 346.318C278.386 343.941 277.074 341.804 275.249 340.169L271.344 344.11C272.158 344.782 272.81 345.631 273.251 346.593C273.693 347.556 273.912 348.607 273.892 349.668V350.367C274.348 350.367 274.8 350.458 275.222 350.634C275.643 350.811 276.026 351.069 276.349 351.395C276.671 351.721 276.927 352.107 277.102 352.533C277.277 352.958 277.366 353.415 277.366 353.875C277.366 354.336 277.277 354.792 277.102 355.218C276.927 355.643 276.671 356.03 276.349 356.356C276.026 356.681 275.643 356.94 275.222 357.116C274.8 357.292 274.348 357.383 273.892 357.383H266.943L266.25 358.093V362.3L266.943 363H273.892C275.832 363.015 277.726 362.399 279.293 361.244C280.86 360.088 282.017 358.454 282.593 356.583C283.169 354.712 283.133 352.703 282.49 350.855C281.848 349.006 280.633 347.415 279.026 346.318Z" fill="#4285F4"/>
<path d="M259.984 362.96H266.933V357.344H259.984C259.489 357.344 258.999 357.236 258.549 357.028L257.573 357.334L254.772 360.142L254.528 361.127C256.099 362.325 258.015 362.969 259.984 362.96Z" fill="#34A853"/>
<path d="M259.984 344.741C258.101 344.753 256.269 345.357 254.743 346.471C253.217 347.585 252.074 349.152 251.473 350.954C250.872 352.755 250.843 354.701 251.391 356.52C251.939 358.339 253.035 359.939 254.528 361.098L258.559 357.029C258.047 356.795 257.598 356.439 257.252 355.992C256.906 355.545 256.672 355.02 256.571 354.462C256.47 353.903 256.505 353.329 256.673 352.787C256.84 352.245 257.135 351.753 257.533 351.351C257.93 350.95 258.418 350.652 258.955 350.483C259.491 350.314 260.06 350.279 260.613 350.381C261.166 350.483 261.686 350.719 262.129 351.068C262.572 351.418 262.924 351.87 263.156 352.388L267.187 348.318C266.341 347.201 265.25 346.298 264.001 345.677C262.751 345.057 261.376 344.736 259.984 344.741Z" fill="#FBBC05"/>
</svg>
