<svg width="560" height="721" viewBox="0 0 560 721" fill="none" xmlns="http://www.w3.org/2000/svg">
    <g opacity="0.16">
        <path d="M559 0.999756C559 101 399 40.9998 399 241C399 441 399 361 399 361C399 361 399 281 399 481C399 681 559 621 559 721" stroke="#8F969E" stroke-width="2"/>
        <path d="M559 721C559 621 303 681 303 481V361C303 361 303 257 399 257" stroke="#8F969E" stroke-width="2"/>
        <path d="M559 0.999756C559 101 207 40.9998 207 241C207 441 207 361 207 361C207 361 207 281 207 481C207 681 559 621 559 721" stroke="#8F969E" stroke-width="2"/>
        <path d="M559 0.999756C559 101 111 40.9998 111 241C111 441 111 361 111 361C111 361 111 281 111 481C111 681 559 621 559 721" stroke="#8F969E" stroke-width="2"/>
        <path d="M559 0.999756C559 101 13 40.9998 13 241C13 441 13 361 13 361C13 361 13 281 13 481C13 681 559 621 559 721" stroke="#8F969E" stroke-width="2"/>
    </g>
</svg>