<svg width="560" height="721" viewBox="0 0 560 721" fill="none" xmlns="http://www.w3.org/2000/svg">
    <g opacity="0.16">
        <path d="M559 0.98877C559 100.989 399 40.9888 399 240.989C399 440.989 399 360.989 399 360.989C399 360.989 399 280.989 399 480.989C399 680.989 559 620.989 559 720.989" stroke="#8F969E" stroke-width="2"/>
        <path d="M559 0.985352C559 100.985 209 40.9854 209 240.985C209 440.985 209 360.985 209 360.985C209 360.985 209 280.985 209 480.985C209 680.985 559 620.985 559 720.985" stroke="#8F969E" stroke-width="2"/>
        <path d="M559 0.985352C559 100.985 14 40.9854 14 240.985C14 440.985 14 360.985 14 360.985C14 360.985 14 280.985 14 480.985C14 680.985 559 620.985 559 720.985" stroke="#8F969E" stroke-width="2"/>
        <path d="M559 0.985352C559 100.985 14 41.4854 14 241.485C14 361.485 208.927 360.985 208.927 480.985C208.927 680.985 559 620.985 559 720.985" stroke="#8F969E" stroke-width="2"/>
        <path d="M559 720.985C559 620.985 14 680.985 14 480.985C14 360.985 208.927 360.985 208.927 240.985C208.927 40.9854 559 100.985 559 0.985352" stroke="#8F969E" stroke-width="2"/>
    </g>
</svg>