<svg width="560" height="721" viewBox="0 0 560 721" fill="none" xmlns="http://www.w3.org/2000/svg">
<g opacity="0.16">
<path d="M559 0.999512C559 101 399 40.9995 399 241C399 441 399 361 399 361C399 361 399 281 399 481C399 681 559 621 559 721" stroke="#8F969E" stroke-width="2"/>
<path d="M559 0.996094C559 100.996 207 40.9961 207 240.996C207 440.996 207 360.996 207 360.996C207 360.996 207 280.996 207 480.996C207 680.996 559 620.996 559 720.996" stroke="#8F969E" stroke-width="2"/>
<path d="M559 0.996094C559 100.996 14 40.9961 14 240.996C14 440.996 14 360.996 14 360.996C14 360.996 14 280.996 14 480.996C14 680.996 559 620.996 559 720.996" stroke="#8F969E" stroke-width="2"/>
<path d="M559 0.996094C559 100.996 14 41.4961 14 241.496C14 361.496 208.927 360.996 208.927 480.996C208.927 680.996 559 620.996 559 720.996" stroke="#8F969E" stroke-width="2"/>
<path d="M559 720.996C559 620.996 14 680.996 14 480.996C14 360.996 208.927 360.996 208.927 240.996C208.927 40.9961 559 100.996 559 0.996094" stroke="#8F969E" stroke-width="2"/>
</g>
</svg>
