<svg width="341" height="480" viewBox="0 0 341 480" fill="none" xmlns="http://www.w3.org/2000/svg">
<g opacity="0.16">
<path d="M1 0C1 66.6667 87 26.6667 87 160C87 293.333 87 240 87 240C87 240 87 186.667 87 320C87 453.333 1 413.333 1 480" stroke="#8F969E" stroke-width="2"/>
<path d="M1 0C1 66.6667 163 26.6667 163 160C163 293.333 163 240 163 240C163 240 163 186.667 163 320C163 453.333 1 413.333 1 480" stroke="#8F969E" stroke-width="2"/>
<path d="M1 0C1 66.6667 243 26.6667 243 160C243 293.333 243 240 243 240C243 240 243 186.667 243 320C243 453.333 1 413.333 1 480" stroke="#8F969E" stroke-width="2"/>
</g>
<circle cx="87" cy="199.289" r="32" fill="#0E1C1C"/>
<circle cx="87" cy="199.289" r="31" stroke="#8F969E" stroke-opacity="0.16" stroke-width="2"/>
<path d="M81.5 215.289C84.536 215.289 87 212.899 87 209.955V204.622H81.5C78.464 204.622 76 207.011 76 209.955C76 212.899 78.464 215.289 81.5 215.289Z" fill="#0ACF83"/>
<path d="M76 199.288C76 196.344 78.464 193.955 81.5 193.955H87V204.622H81.5C78.464 204.622 76 202.232 76 199.288Z" fill="#A259FF"/>
<path d="M76 188.622C76 185.678 78.464 183.289 81.5 183.289H87V193.955H81.5C78.464 193.955 76 191.566 76 188.622Z" fill="#F24E1E"/>
<path d="M87 183.289H92.5C95.536 183.289 98 185.678 98 188.622C98 191.566 95.536 193.955 92.5 193.955H87V183.289Z" fill="#FF7262"/>
<path d="M98 199.288C98 202.232 95.536 204.622 92.5 204.622C89.464 204.622 87 202.232 87 199.288C87 196.344 89.464 193.955 92.5 193.955C95.536 193.955 98 196.344 98 199.288Z" fill="#1ABCFE"/>
<circle cx="163" cy="295.289" r="32" fill="#0E1C1C"/>
<circle cx="163" cy="295.289" r="31" stroke="#8F969E" stroke-opacity="0.16" stroke-width="2"/>
<path d="M174.97 292.712C174.645 292.558 174.233 292.492 173.713 292.492C170.983 292.492 169.163 294.628 169.163 298.173C169.163 302.224 171.027 303.854 173.453 303.854C173.973 303.854 174.537 303.788 174.948 303.612V292.712H174.97ZM165.263 298.349C165.263 293.219 168.513 289.212 173.843 289.212C174.298 289.212 174.537 289.212 174.97 289.256V283.531C174.97 283.399 175.078 283.311 175.187 283.311H178.675C178.848 283.311 178.892 283.377 178.892 283.487V303.612C178.892 304.206 178.892 304.955 179 305.769C179 305.923 179 305.945 178.87 306.012C177.05 306.892 175.143 307.289 173.323 307.289C168.622 307.289 165.263 304.338 165.263 298.349ZM157.875 294.782L163.942 306.738C164.05 306.914 163.985 307.09 163.812 307.09H160.042C159.804 307.09 159.695 307.024 159.587 306.804C158.2 303.898 156.792 300.881 155.34 297.755H155.297C153.997 300.705 152.567 303.92 151.18 306.826C151.072 307.002 150.964 307.068 150.79 307.068H147.194C146.977 307.068 146.955 306.892 147.064 306.76L153 295.156L147.259 283.619C147.129 283.443 147.259 283.289 147.41 283.289H151.137C151.354 283.289 151.462 283.333 151.527 283.531C152.892 286.459 154.279 289.344 155.579 292.294H155.622C156.879 289.388 158.265 286.459 159.587 283.575C159.695 283.399 159.76 283.289 159.977 283.289H163.465C163.638 283.289 163.703 283.421 163.595 283.619L157.875 294.782Z" fill="#FF2BC2"/>
<circle cx="243" cy="199.289" r="32" fill="#0E1C1C"/>
<circle cx="243" cy="199.289" r="31" stroke="#8F969E" stroke-opacity="0.16" stroke-width="2"/>
<path d="M243 184.289L233.982 185.276L227 194.986L243 214.289L259 194.986L252.018 185.276L243 184.289Z" fill="#FDB300"/>
<path d="M227 194.986L243 214.289L233.481 194.986H227Z" fill="#EB6C00"/>
<path d="M252.519 194.986L243 214.289L259 194.986H252.519Z" fill="#EB6C00"/>
<path d="M233.481 194.986L243 214.289L252.519 194.986H233.481Z" fill="#F89721"/>
<path d="M233.982 185.276L233.481 194.986L243 184.289L233.982 185.276Z" fill="#FDD231"/>
<path d="M252.519 194.986L252.018 185.276L243 184.289L252.519 194.986Z" fill="#FDD231"/>
<path d="M252.519 194.986H259L252.018 185.276L252.519 194.986Z" fill="#F89721"/>
<path d="M227 194.986H233.481L233.982 185.276L227 194.986Z" fill="#F89721"/>
<path d="M243 184.289L233.481 194.986H252.519L243 184.289Z" fill="#FEEEB7"/>
</svg>
