<svg width="580" height="721" viewBox="0 0 580 721" fill="none" xmlns="http://www.w3.org/2000/svg">
    <g opacity="0.16">
        <path d="M579 0.977051C579 100.977 419 40.9771 419 240.977C419 440.977 419 360.977 419 360.977C419 360.977 419 280.977 419 480.977C419 680.977 579 620.977 579 720.977" stroke="#8F969E" stroke-width="2"/>
        <path d="M579 0.973633C579 100.974 229 40.9736 229 240.974C229 440.974 229 360.974 229 360.974C229 360.974 229 280.974 229 480.974C229 680.974 579 620.974 579 720.974" stroke="#8F969E" stroke-width="2"/>
        <path d="M579 0.973633C579 100.974 34 40.9736 34 240.974C34 440.974 34 360.974 34 360.974C34 360.974 34 280.974 34 480.974C34 680.974 579 620.974 579 720.974" stroke="#8F969E" stroke-width="2"/>
        <path d="M579 0.973633C579 100.974 34 41.4736 34 241.474C34 361.474 228.927 360.974 228.927 480.974C228.927 680.974 579 620.974 579 720.974" stroke="#8F969E" stroke-width="2"/>
        <path d="M579 720.974C579 620.974 34 680.974 34 480.974C34 360.974 228.927 360.974 228.927 240.974C228.927 40.9736 579 100.974 579 0.973633" stroke="#8F969E" stroke-width="2"/>
    </g>
    <circle cx="34" cy="220.913" r="32" fill="#0E1C1C"/>
    <circle cx="34" cy="220.913" r="31" stroke="#8F969E" stroke-opacity="0.16" stroke-width="2"/>
    <path d="M41.3731 235.896C40.4168 236.047 40.0557 235.438 40.0557 234.924C40.0557 234.697 40.0586 234.303 40.0624 233.78C40.0699 232.737 40.0812 231.178 40.0812 229.385C40.0812 227.496 39.4446 226.288 38.7062 225.658C43.2385 225.155 48 223.443 48 215.713C48 213.497 47.2107 211.71 45.9121 210.3C46.1158 209.796 46.8287 207.732 45.7084 204.962C45.7084 204.962 44.0024 204.408 40.1066 207.027C38.477 206.573 36.7456 206.347 35.0142 206.347C33.2827 206.347 31.5513 206.573 29.9217 207.027C26.0259 204.433 24.3199 204.962 24.3199 204.962C23.1996 207.732 23.9125 209.796 24.1162 210.3C22.8176 211.71 22.0283 213.523 22.0283 215.713C22.0283 223.418 26.7643 225.155 31.2966 225.658C30.711 226.162 30.1763 227.043 29.998 228.353C28.8268 228.881 25.8986 229.737 24.0653 226.691C23.6834 226.086 22.5375 224.601 20.9334 224.626C19.2274 224.651 20.2459 225.583 20.9589 225.961C21.8246 226.439 22.8176 228.227 23.0468 228.806C23.4542 229.939 24.7782 232.104 29.8962 231.172C29.8962 232.273 29.907 233.331 29.9146 234.066C29.9186 234.458 29.9217 234.758 29.9217 234.924C29.9217 235.453 29.5397 236.057 28.5212 235.881C30.5073 236.913 33.0535 236.913 34.9632 236.913C37.2026 236.913 39.3576 236.556 41.3731 235.896Z" fill="white"/>
    <circle cx="227" cy="220.913" r="32" fill="#0E1C1C"/>
    <circle cx="227" cy="220.913" r="31" stroke="#8F969E" stroke-opacity="0.16" stroke-width="2"/>
    <path d="M212.039 206.913C212.034 206.913 212.03 206.913 212.025 206.913C211.463 206.913 211 207.364 211 207.911C211 207.964 211.005 208.018 211.013 208.07L215.366 233.781C215.477 234.428 216.055 234.908 216.729 234.913H237.609C238.115 234.919 238.553 234.561 238.634 234.075L242.987 208.075C242.995 208.023 243 207.969 243 207.916C243 207.369 242.537 206.918 241.975 206.918C241.97 206.918 241.966 206.918 241.961 206.918L212.039 206.913ZM230.365 225.495H223.701L221.897 216.321H231.98L230.365 225.495Z" fill="#2684FF"/>
    <path d="M241.603 216.321H231.98L230.365 225.495H223.701L215.832 234.584C216.081 234.794 216.4 234.911 216.729 234.913H237.614C238.12 234.92 238.558 234.561 238.639 234.075L241.603 216.321Z" fill="url(#paint0_linear)"/>
    <circle cx="34" cy="460.913" r="32" fill="#0E1C1C"/>
    <circle cx="34" cy="460.913" r="31" stroke="#8F969E" stroke-opacity="0.16" stroke-width="2"/>
    <path fill-rule="evenodd" clip-rule="evenodd" d="M18.0269 456.919C19.8296 450.019 26.1852 444.919 33.7501 444.919L33.7656 444.913C42.7311 444.913 50 452.077 50 460.914C50 469.75 42.7183 476.913 33.7515 476.914C26.188 476.914 19.831 471.814 18.0283 464.914C18.0112 464.852 18.0022 464.788 18.0014 464.724C18.0014 464.302 18.3469 463.962 18.7746 463.962H25.3213C25.623 463.962 25.8977 464.138 26.0223 464.409C26.0223 464.409 26.0322 464.427 26.0365 464.436C27.3874 467.306 30.3344 469.298 33.7543 469.298C38.4516 469.298 42.2581 465.546 42.2581 460.916C42.2581 456.287 38.4501 452.535 33.7529 452.535C30.3315 452.535 27.3846 454.527 26.035 457.396C26.0308 457.406 26.0209 457.424 26.0209 457.424C25.9605 457.558 25.8621 457.671 25.7377 457.75C25.6132 457.83 25.4681 457.871 25.3199 457.871H18.7732C18.3455 457.871 18 457.528 18 457.109C18.001 457.045 18.0101 456.981 18.0269 456.919ZM37.616 460.919C37.616 463.024 35.8852 464.73 33.75 464.73C31.6149 464.73 29.884 463.024 29.884 460.919C29.884 458.815 31.6149 457.109 33.75 457.109C35.8852 457.109 37.616 458.815 37.616 460.919Z" fill="white"/>
    <circle cx="227" cy="460.913" r="32" fill="#0E1C1C"/>
    <circle cx="227" cy="460.913" r="31" stroke="#8F969E" stroke-opacity="0.16" stroke-width="2"/>
    <path fill-rule="evenodd" clip-rule="evenodd" d="M235 476.913L243 473.58V448.246L235 444.913V472.38L211 468.913L235 476.913ZM222.067 450.913L219 450.246L213.667 454.913V456.913L216.733 458.913L213.667 460.913V462.913L219 467.58L221.933 466.913V462.113L227 465.58L231 464.246V453.58L227 452.246L222.067 455.713V450.913ZM221.933 458.913L227 456.246V461.58L221.933 458.913ZM219 457.58L215.267 455.713L219 452.913V457.58ZM219 460.246V464.913L215.267 462.113L219 460.246Z" fill="#CB2E62"/>
    <circle cx="419" cy="332.913" r="32" fill="#0E1C1C"/>
    <circle cx="419" cy="332.913" r="31" stroke="#8F969E" stroke-opacity="0.16" stroke-width="2"/>
    <path d="M418.152 342.513H403.152V344.913H418.152V342.513Z" fill="white"/>
    <path d="M403 326.225L404.137 325.178C404.441 325.552 404.744 325.776 405.123 325.776C405.578 325.776 405.806 325.477 405.806 324.878V320.913H407.55V324.878C407.55 325.627 407.322 326.225 406.943 326.599C406.564 326.973 405.957 327.198 405.199 327.198C404.062 327.273 403.455 326.824 403 326.225Z" fill="white"/>
    <path d="M407.929 320.988H413.009V322.409H409.673V323.382H412.706V324.728H409.673V325.701H413.085V327.197H408.005L407.929 320.988Z" fill="white"/>
    <path d="M415.284 322.484H413.389V320.988H418.924V322.484H417.028V327.197H415.284V322.484Z" fill="white"/>
    <path d="M403.152 328.619H406.412C407.171 328.619 407.777 328.844 408.156 329.143C408.384 329.368 408.536 329.742 408.536 330.191C408.536 330.939 408.156 331.313 407.55 331.612C408.308 331.836 408.763 332.285 408.763 333.108C408.763 334.156 407.853 334.829 406.412 334.829H403.152V328.619ZM406.791 330.565C406.791 330.191 406.488 330.041 406.033 330.041H404.896V331.163H405.957C406.488 331.088 406.791 330.939 406.791 330.565ZM406.185 332.36H404.82V333.482H406.185C406.716 333.482 407.019 333.258 407.019 332.884C407.019 332.51 406.716 332.36 406.185 332.36Z" fill="white"/>
    <path d="M409.066 328.619H412.024C413.009 328.619 413.616 328.844 414.071 329.293C414.45 329.667 414.602 330.116 414.602 330.714C414.602 331.687 414.071 332.285 413.313 332.659L414.829 334.829H412.858L411.569 332.959H410.81V334.829H409.066V328.619ZM411.948 331.612C412.554 331.612 412.858 331.313 412.858 330.864C412.858 330.34 412.479 330.116 411.948 330.116H410.81V331.612H411.948Z" fill="white"/>
    <path d="M416.649 328.619H418.318L420.972 334.904H419.076L418.621 333.782H416.194L415.739 334.904H413.92L416.649 328.619ZM418.166 332.36L417.484 330.639L416.801 332.36H418.166Z" fill="white"/>
    <path d="M421.199 328.619H422.943V334.829H421.199V328.619Z" fill="white"/>
    <path d="M423.398 328.619H424.99L427.569 331.911V328.619H429.313V334.829H427.796L425.142 331.462V334.904H423.398V328.619Z" fill="white"/>
    <path d="M429.465 333.931L430.45 332.809C431.057 333.332 431.739 333.557 432.498 333.557C432.953 333.557 433.256 333.407 433.256 333.108C433.256 332.809 433.028 332.734 432.194 332.51C430.829 332.21 429.844 331.836 429.844 330.564C429.844 329.442 430.754 328.544 432.27 328.544C433.332 328.544 434.166 328.843 434.848 329.367L433.938 330.564C433.332 330.19 432.725 329.966 432.194 329.966C431.739 329.966 431.588 330.115 431.588 330.34C431.588 330.639 431.815 330.714 432.649 330.938C434.09 331.238 435 331.687 435 332.884C435 334.155 434.014 334.904 432.422 334.904C431.284 334.978 430.223 334.604 429.465 333.931Z" fill="white"/>
    <defs>
        <linearGradient id="paint0_linear" x1="243.827" y1="218.89" x2="228.256" y2="231.379" gradientUnits="userSpaceOnUse">
            <stop stop-color="#0052CC"/>
            <stop offset="0.18" stop-color="#0052CC"/>
            <stop offset="1" stop-color="#2684FF"/>
        </linearGradient>
    </defs>
</svg>