<svg width="561" height="721" viewBox="0 0 561 721" fill="none" xmlns="http://www.w3.org/2000/svg">
    <g opacity="0.16">
        <path d="M1 -0.000488281C1 99.9995 257 39.9995 257 240C257 440 257 360 257 360C257 360 257 280 257 480C257 680 1 620 1 720" stroke="#8F969E" stroke-width="2"/>
        <path d="M1 -0.000488281C1 99.9995 353 39.9995 353 240C353 440 353 360 353 360C353 360 353 280 353 480C353 680 1 620 1 720" stroke="#8F969E" stroke-width="2"/>
        <path d="M1 -0.000488281C1 99.9995 449 39.9995 449 240C449 440 449 360 449 360C449 360 449 280 449 480C449 680 1 620 1 720" stroke="#8F969E" stroke-width="2"/>
    </g>
</svg>