<svg width="64" height="64" viewBox="0 0 64 64" fill="none" xmlns="http://www.w3.org/2000/svg">
<path d="M17.1885 39.9063C16.8425 40.4145 16.4966 41.0498 16.1506 41.5157C15.8479 41.9816 16.0209 42.5746 16.4966 42.8711L23.1131 46.8525C23.5888 47.1489 24.2375 46.9795 24.4969 46.5136C24.7564 46.0901 25.1024 45.4971 25.4916 44.9041C28.1295 40.6686 30.7243 41.1769 35.4812 43.4217L42.0545 46.4713C42.5735 46.7254 43.1789 46.5136 43.3951 46.0054C43.3951 46.0054 43.3951 46.0054 43.3951 45.963L46.552 38.9744C46.7683 38.4662 46.552 37.9156 46.0331 37.6614C44.6493 37.0261 41.8816 35.7555 39.4166 34.5695C30.5513 30.4188 22.9834 30.6729 17.1885 39.9063Z" fill="url(#paint0_linear)"/>
<path d="M46.8115 24.1078C47.1575 23.5995 47.5035 22.9642 47.8494 22.4983C48.1521 22.0324 47.9792 21.4394 47.5035 21.1429L40.8869 17.1616C40.4112 16.8651 39.8058 16.9922 39.4598 17.4157L39.4166 17.4581C39.1571 17.8816 38.8112 18.4746 38.422 19.0676C35.784 23.303 33.1893 22.7948 28.4323 20.55L21.9022 17.5004C21.3833 17.2463 20.7779 17.4581 20.5616 17.9663C20.5616 17.9663 20.5616 17.9663 20.5616 18.0087L17.4047 24.9972C17.1885 25.5055 17.4047 26.0561 17.9237 26.3102C19.3075 26.9456 22.0752 28.2162 24.5402 29.4021C33.4487 33.5953 41.0167 33.2988 46.8115 24.1078Z" fill="url(#paint1_linear)"/>
<defs>
<linearGradient id="paint0_linear" x1="46.3975" y1="48.9453" x2="26.6104" y2="37.3362" gradientUnits="userSpaceOnUse">
<stop offset="0.18" stop-color="#0052CC"/>
<stop offset="1" stop-color="#2684FF"/>
</linearGradient>
<linearGradient id="paint1_linear" x1="17.6185" y1="15.0717" x2="37.4106" y2="26.686" gradientUnits="userSpaceOnUse">
<stop offset="0.18" stop-color="#0052CC"/>
<stop offset="1" stop-color="#2684FF"/>
</linearGradient>
</defs>
</svg>
