<svg width="518" height="460" viewBox="0 0 518 460" fill="none" xmlns="http://www.w3.org/2000/svg">
    <path d="M6.20126 252.943L112.649 436.942C120.859 451.202 136.182 460 152.719 460H365.325C381.861 460 397.184 451.202 405.394 436.942L511.842 252.943C520.053 238.74 520.053 221.26 511.842 207.057L405.394 23.0575C397.184 8.7975 381.919 0 365.383 0H152.719C136.182 0 120.859 8.7975 112.649 23.0575L6.20126 207.057C-2.06709 221.26 -2.06709 238.74 6.20126 252.943Z" fill="white"/>
    <mask id="mask0"  maskUnits="userSpaceOnUse" x="0" y="0" width="518" height="460">
        <path d="M6.20126 252.943L112.649 436.942C120.859 451.202 136.182 460 152.719 460H365.325C381.861 460 397.184 451.202 405.394 436.942L511.842 252.943C520.053 238.74 520.053 221.26 511.842 207.057L405.394 23.0575C397.184 8.7975 381.919 0 365.383 0H152.719C136.182 0 120.859 8.7975 112.649 23.0575L6.20126 207.057C-2.06709 221.26 -2.06709 238.74 6.20126 252.943Z" fill="url(#paint0_linear)"/>
    </mask>
</svg>
