<svg width="320" height="320" viewBox="0 0 320 320" fill="none" xmlns="http://www.w3.org/2000/svg">
<path fill-rule="evenodd" clip-rule="evenodd" d="M65.1226 30.4114C-6.02107 82.2295 -21.2217 182.259 31.1778 253.827C83.5774 325.394 183.734 341.407 254.877 289.589C326.021 237.77 341.222 137.741 288.822 66.1734C236.408 -5.39393 136.266 -21.4068 65.1226 30.4114Z" fill="url(#paint0_radial)"/>
<path fill-rule="evenodd" clip-rule="evenodd" d="M81.972 43.092C21.2851 87.2933 8.31174 172.637 53.017 233.688C97.7222 294.739 183.155 308.4 243.857 264.199C304.544 219.983 317.517 134.654 272.812 73.603C228.106 12.5378 142.659 -1.12361 81.972 43.092Z" fill="url(#paint1_radial)"/>
<path opacity="0.44" fill-rule="evenodd" clip-rule="evenodd" d="M36.0952 137.669C35.8927 138.939 35.7192 140.223 35.5601 141.478C33.9402 154.23 34.2873 166.795 36.37 178.855C42.242 212.872 61.796 243.008 89.9989 262.324C105.257 272.783 123.061 280.097 142.601 283.141C163.312 286.358 183.647 284.41 202.275 278.265C230.999 268.816 255.702 249.341 271.481 223.403C272.826 221.196 274.113 218.945 275.328 216.623C281.735 204.534 286.233 191.175 288.475 176.908C298.7 111.515 257.119 49.988 194.118 33.903C190.994 33.0951 187.827 32.4027 184.602 31.8545C184.602 31.8545 184.587 31.8545 184.558 31.8545C183.69 31.6814 182.823 31.5371 181.94 31.4073C172.496 29.9358 163.109 29.5463 153.925 30.1378C148.184 30.484 142.529 31.2342 136.989 32.3738C109.365 37.9567 84.5029 52.5269 66.1783 73.3581C50.7462 90.9001 39.9568 112.885 36.0952 137.669Z" fill="url(#paint2_radial)"/>
<path opacity="0.3" fill-rule="evenodd" clip-rule="evenodd" d="M66.1783 73.3578C66.4676 73.1847 66.7568 73.0115 67.0461 72.8673C68.5936 72.0594 70.4883 71.2516 72.166 70.7899C73.6702 70.386 75.1743 70.5159 76.5483 70.2562C78.9347 69.7946 81.3211 68.8713 83.5773 67.8615C86.3253 66.6353 89.1311 66.1881 91.8935 65.0196C99.0817 61.9901 104.043 55.181 109.322 49.728C110.594 48.4008 111.462 47.6074 112.532 46.1648C113.27 45.1982 114.167 44.5924 115.179 43.9288C117.334 42.4429 119.88 40.9426 122.613 41.0147C124.262 41.058 125.477 42.1832 126.894 43.0488C128.832 44.2173 129.526 44.6501 128.037 46.3379C125.462 49.2664 121.789 52.166 124.334 56.4649C125.954 59.1915 127.314 61.9468 129.295 64.4425C131.508 67.1835 133.243 71.0785 136.758 72.5211C139.361 73.5742 142.268 71.9873 144.886 71.4391C147.215 70.9486 149.601 70.1119 152.002 70.2562C153.882 70.3716 155.328 71.2804 157.107 71.8142C159.826 72.6509 162.994 72.622 164.715 70.1696C165.38 69.2464 165.105 68.9001 166.248 68.3231C167.289 67.7893 168.967 67.7749 170.095 67.6884C173.537 67.4575 177.037 68.3087 180.436 68.0346C182.707 67.847 185.093 67.1546 187.321 66.693C188.781 66.3756 190.517 66.6064 191.804 66.0871C192.542 65.7841 193.366 65.135 194.147 64.7743C196.432 63.6491 198.023 63.3173 200.583 63.7789C205.66 64.6589 212.154 67.27 216.406 70.3716C219.168 72.3912 218.908 74.0646 217.476 76.7334C216.261 79.0272 213.658 81.7537 213.846 84.4369C213.99 86.7018 215.466 88.7359 215.885 90.9142C216.305 93.0637 216.738 95.0977 215.495 97.0308C213.412 100.291 209.753 102.484 207.337 105.456C204.604 108.817 202.492 114.876 206.021 118.237C207.771 119.882 208.552 121.959 209.594 124.094C210.288 125.551 210.852 127.729 212.891 127.585C214.236 127.484 215.567 125.955 216.883 125.753C218.402 125.508 219.573 126.258 220.672 127.21C222.336 128.667 224.693 130.182 225.937 132.057C228.193 135.476 227.022 141.708 224.823 144.867C222.205 148.676 219.79 152.657 215.147 154.086C212.197 154.994 208.784 154.49 206.701 157.245C205.428 158.962 205.443 160.837 204.72 162.698C203.996 164.559 202.897 166.088 202.391 168.093C201.928 169.983 201.321 171.714 200.525 173.474C199.397 175.912 198.356 178.595 196.924 180.875C195.232 183.572 192.614 185.289 190.459 187.496C188.521 189.458 186.337 190.252 184.211 191.939C181.868 193.8 179.019 195.156 177.283 197.623C175.967 199.484 174.868 201.504 173.451 203.336C169.459 208.342 164.382 203.841 160.882 200.624C158.438 198.402 156.182 196.397 154.388 193.627C153 191.478 151.597 189.198 149.789 187.352C148.025 185.549 146.144 183.572 144.134 182.058C143.339 181.452 142.384 181.019 141.791 180.125C140.88 178.74 140.706 176.994 140.938 175.249C141.429 171.541 141.473 166.651 142.905 163.203C144.438 159.423 148.762 160.476 151.872 160.895C153.651 161.125 155.921 161.183 157.064 159.654C158.12 158.226 158.091 156.466 159.378 155.009C160.781 153.465 162.531 153.061 164.527 153.855C165.366 154.187 165.944 154.72 166.841 154.994C167.723 155.24 168.548 154.908 169.155 155.773C170.442 157.533 167.593 159.25 166.436 160.332C164.397 162.251 164.151 162.712 164.99 165.396C165.496 166.925 166.422 169.363 168.417 168.887C169.82 168.54 171.252 165.785 172.265 164.876C176.56 160.996 180.913 157.086 177.775 150.84C176.792 148.878 175.606 148.849 174.174 147.493C172.713 146.108 172.322 143.728 170.703 142.328C168.562 140.496 164.831 140.669 162.14 140.237C158.944 139.717 155.271 139.544 152.045 139.688C149.717 139.789 148.328 140.482 146.303 141.29C144.279 142.083 142.341 140.972 140.272 141.117C136.454 141.391 134.444 143.843 131.652 146.065C128.919 148.229 128.123 150.479 126.749 153.696C124.016 160.188 121.528 167.199 120.458 174.181C119.547 180.254 119.041 186.602 116.799 192.286C115.714 195.055 114.412 197.479 112.908 199.989C112.417 200.783 112.142 200.451 112.171 201.634C112.185 202.326 112.923 204.519 113.255 205.168C114.123 206.914 116.293 208.573 117.508 210.159C118.679 211.717 120.27 212.742 121.673 214.069C123.712 215.973 125.78 217.647 127.849 219.464C131.204 222.407 130.365 227.355 133.142 230.904C137.091 235.939 142.326 237.569 147.764 240.598C152.118 243.022 156.558 245.027 160.55 247.912C163.052 249.715 164.874 251.865 167.593 253.466C171.035 255.486 174.825 256.597 178.44 258.155C181.304 259.381 184.327 260.261 187.465 260.405C189.505 260.477 191.095 260.102 193.236 260.448C196.996 261.04 200.8 261.689 204.604 262.223C206.629 262.497 208.509 261.79 210.519 261.386C212.544 260.982 214.583 260.391 216.623 259.972C221.96 258.847 229.278 259.02 233.4 254.995C234.615 253.812 235.555 252.327 236.842 251.23C237.941 250.336 239.214 249.975 240.414 249.268C241.427 248.662 242.222 248.143 243.278 247.696C244.985 246.989 245.91 246.08 247.371 244.94C248.557 244.017 249.931 243.339 251.348 242.791C252.072 242.517 253.417 242.401 253.995 241.925C254.762 241.305 254.443 240.858 254.733 239.978C255.036 238.983 255.629 238.247 256.02 237.28C257.032 234.698 259.043 231.712 261.95 230.543C263.526 229.923 264.553 229.909 266.014 228.956C268.747 227.254 269.89 226.172 271.409 223.186C271.438 223.273 271.466 223.374 271.481 223.431C255.702 249.384 230.999 268.844 202.275 278.293C201.437 277.774 200.627 277.255 199.86 276.721C197.459 275.062 195.131 274.745 192.325 274.326C188.622 273.749 185.137 272.855 181.593 271.614C178.44 270.532 175.389 270.013 172.062 269.522C167.969 268.931 164.151 267.402 160.014 266.796C156.095 266.248 152.335 266.839 148.415 267.099C142.803 267.459 137.264 265.036 132.072 263.103C129.729 262.237 127.675 260.549 125.289 259.814C123.828 259.366 122.367 259.237 120.906 258.674C117.464 257.419 112.72 256.395 108.989 256.337C106.443 256.308 105.142 258.083 103.102 259.035C100.947 260.03 98.4887 258.573 96.2903 258.501C93.7304 258.414 91.4018 260.203 89.9989 262.353C61.796 243.022 42.242 212.886 36.37 178.884C39.8845 179.446 44.6862 183.111 46.74 183.255C47.9983 183.342 49.1408 182.808 50.4859 183.01C51.7586 183.212 52.6554 183.76 53.8269 184.207C55.5769 184.856 57.7897 185.606 59.048 184.034C60.2774 182.462 59.0625 178.927 61.8105 178.913C63.1845 178.927 64.2547 180.139 65.8167 180.096C67.1329 180.038 68.1453 179.98 69.4614 180.211C71.6887 180.586 73.352 181.365 75.4636 182.014C76.5194 182.346 77.3438 182.115 78.414 182.014C79.2529 181.942 80.8727 182.303 81.5959 182.058C84.1992 181.163 82.4781 178.365 81.7405 176.778C81.35 175.955 80.7425 174.974 80.4533 174.094C80.1351 173.07 80.4244 172.609 80.381 171.599C80.3231 169.031 78.8479 166.896 77.2136 164.977C74.8127 162.164 72.3251 159.135 70.821 155.759C70.1412 154.244 69.4469 153.35 69.4325 151.72C69.4035 150.494 69.3601 149.296 69.2878 148.07C69.2155 146.584 68.9841 145.372 68.6949 143.915C68.3188 141.982 68.6081 140.049 68.2899 138.116C68.0296 136.471 66.7857 132.995 65.4551 131.87C64.8188 131.35 63.9221 131.321 63.3002 130.687C62.6783 130.066 62.6927 129.302 61.8828 128.84C60.0749 127.758 56.1844 128.869 54.3186 129.23C51.4839 129.792 48.3165 131.206 45.9734 132.865C43.399 134.683 41.7358 136.731 39.5808 138.895C38.8287 139.674 37.1076 141.073 35.5745 141.506C35.7336 140.251 35.9072 138.967 36.1097 137.698C39.9569 112.885 50.7462 90.8998 66.1783 73.3578ZM122.15 141.852C122.309 142.747 123.973 143.482 124.768 143.482C126.417 143.497 127.964 141.824 129.338 141.016C130.799 140.136 131.913 138.938 132.39 137.25L131.074 137.871C132.506 136.414 134.646 135.144 133.547 132.75C132.925 131.408 131.725 131.206 130.423 131.552C128.297 132.129 125.896 132.735 124.247 134.264C123.105 135.303 122.96 136.76 122.758 138.231C122.599 139.184 121.991 140.871 122.15 141.852ZM106.66 66.4189C107.167 67.8903 108.497 69.1454 109.799 69.91C110.782 70.5014 112.634 71.1795 113.776 71.3526C116.495 71.7998 119.344 70.0398 121.543 68.7703C122.83 68.0634 125.737 65.813 121.977 66.4044C122.541 65.4523 123.163 64.7022 123.235 63.6491C123.307 62.9422 123.163 62.0478 123.09 61.3409C122.96 59.6531 122.194 58.1528 121.948 56.5082C121.774 55.2676 121.557 53.7096 121.673 52.4401C121.774 51.286 122.266 50.3339 121.34 49.3674C120.762 48.7615 120.227 48.6893 119.518 48.9923C118.78 49.2952 118.028 50.3195 117.377 50.8532C116.654 51.4591 115.946 52.065 115.251 52.7142C113.198 54.5463 111.954 57.1141 110.074 59.1049C109.003 60.2013 108.063 60.9658 107.297 62.3652C106.646 63.5914 106.226 65.0484 106.66 66.4189ZM48.7214 121.295C49.676 123.733 52.9302 124.902 55.2442 125.594C58.6575 126.604 62.9964 126.215 66.5399 125.868C68.044 125.739 69.1287 125.45 70.4304 124.714C71.7899 123.964 73.4966 123.69 71.3416 123.632C72.3106 121.714 72.9759 120.011 73.7136 118.049C74.5813 115.669 76.0276 113.448 77.1268 111.139C78.9492 107.317 81.1909 102.729 80.7426 98.3436C80.4533 95.4872 78.7611 92.1837 76.1144 90.9431C74.2631 90.0919 71.79 89.6159 69.7651 89.9621C67.2196 90.3516 64.9345 91.7076 62.765 93.006C60.6534 94.2899 58.672 96.1508 57.5872 98.4013C56.8062 100.017 56.3868 101.806 55.4757 103.364C55.0273 104.157 54.579 104.879 54.1885 105.715C53.7112 106.768 52.8289 107.446 52.0624 108.283C50.9054 109.538 49.8785 110.404 49.5458 112.092C49.2276 113.678 49.0685 115.28 48.8227 116.867C48.6057 118.367 48.1429 119.809 48.7214 121.295Z" fill="#AD86FF"/>
<path opacity="0.3" fill-rule="evenodd" clip-rule="evenodd" d="M229.697 130.543C230.03 131.754 230.608 134.524 231.823 135.346C233.183 136.27 235.237 134.928 236.495 134.495C237.536 134.149 238.52 133.543 239.619 133.37C240.53 133.226 241.456 133.356 242.338 133.082C242.989 132.88 244.175 132.49 244.695 132.072C245.303 131.567 245.505 130.86 245.881 130.182C246.821 128.509 247.198 126.446 247.892 124.642C248.326 123.503 248.239 122.565 248.094 121.382C247.906 119.81 247.834 118.223 247.574 116.65C247.212 114.4 246.952 111.991 246.055 109.885C245.231 107.937 244.045 106.812 242.251 105.687C241.514 105.225 240.689 105.009 239.952 104.533C239.069 103.97 238.201 103.292 237.189 102.946C236.639 102.744 235.989 102.556 235.396 102.556C234.571 102.556 234.239 102.888 233.544 103.133C232.546 103.494 232.084 103.523 231.288 104.287C230.695 104.85 230.189 105.513 229.827 106.249C229.104 107.764 228.077 109.178 227.484 110.736C226.689 112.813 226.385 114.544 226.863 116.766C227.282 118.699 227.398 120.661 227.484 122.652C227.557 124.296 227.629 126.633 228.367 128.191C228.931 129.316 229.697 130.139 229.697 130.543Z" fill="#AD86FF"/>
<path opacity="0.3" fill-rule="evenodd" clip-rule="evenodd" d="M239.142 141.477C239.677 142.126 239.966 142.862 240.053 143.655C238.954 144.059 238.708 145.978 237.29 146.065C236.726 145.156 235.063 143.958 236.119 142.732C236.263 142.559 236.755 142.516 236.958 142.371C237.247 142.169 237.377 141.766 237.695 141.665C238.375 141.448 239.98 142.011 240.704 142.112L239.142 141.477Z" fill="url(#paint3_linear)"/>
<path opacity="0.3" fill-rule="evenodd" clip-rule="evenodd" d="M211.358 147.463C210.606 148.488 210.259 148.978 209.29 149.613C208.509 150.118 207.583 150.579 206.773 151.07C205.356 151.921 203.389 152.729 202.145 153.84C200.916 154.951 201.089 156.105 200.699 157.518C200.467 158.37 200.077 159.221 199.773 160.072C199.614 160.548 199.339 160.908 199.224 161.428C199.108 162.019 199.122 162.582 198.877 163.159C198.385 164.299 197.387 165.078 196.924 166.232C196.562 167.126 196.36 168.107 195.637 168.828C195.073 169.391 194.35 169.463 193.684 169.824C192.845 170.285 192.195 170.906 191.529 171.584C189.259 173.849 188.564 176.993 186.525 179.374C184.674 181.538 180.812 180.254 178.411 180.355C178.021 180.369 177.63 180.629 177.225 180.528C176.792 180.427 176.401 179.994 176.039 179.778C175.302 179.345 174.651 179.201 173.827 179.229C173.335 179.244 173.566 179.619 172.901 179.359C172.51 179.201 172.105 178.407 171.946 178.032C171.44 176.849 171.744 175.897 172.265 174.786C172.8 173.647 173.291 172.478 173.827 171.338C174.318 170.285 175.042 169.377 175.403 168.266C175.765 167.169 175.707 166.015 176.083 164.919C176.965 162.265 178.73 161.197 180.986 159.61C183.025 158.168 186.033 157.158 186.337 154.316C186.453 153.162 185.976 153.046 185.527 152.166C185.05 151.214 184.92 149.945 184.168 149.094C183.878 148.776 182.808 148.242 182.36 148.012C181.521 147.55 180.552 147.189 179.785 146.612C178.903 145.963 179.019 145.242 178.498 144.405C178.166 143.886 178.122 144.16 177.659 143.814C177.066 143.366 176.98 143.222 176.546 142.544C175.88 141.534 175.316 140.64 175.013 139.457C174.752 138.447 174.521 137.639 173.899 136.788C173.19 135.793 172.322 134.725 171.484 133.86C170.616 132.965 169.401 132.143 168.2 131.754C167.579 131.552 166.942 131.566 166.306 131.465C164.469 131.162 162.921 129.893 161.388 128.912C159.118 127.483 155.892 124.007 153.116 126.301C152.291 126.979 152.103 128.118 151.12 128.666C149.037 129.849 146.911 128.335 145.146 127.253C142.182 125.449 139.925 122.824 137.77 120.155C136.396 118.453 135.239 116.967 135.485 114.659C135.962 110.201 140.041 107.778 141.299 103.652C142.514 99.6702 141.357 95.0394 141.386 90.928C141.4 88.8651 141.993 86.1674 143.469 84.6527C143.96 84.1478 144.814 83.5131 145.479 83.1813C147.041 82.4023 147.952 83.0659 149.485 83.0659C150.527 83.0659 150.989 82.6619 151.799 82.1714C153.969 80.8587 157.411 82.2724 159.682 82.6042C163.023 83.0803 166.754 83.239 169.951 82.056C173.711 80.6567 177.385 79.1564 180.942 77.3099C183.531 75.9683 186.294 74.5257 189.056 73.588C191.023 72.9244 193.236 73.0109 195.275 73.2273C198.153 73.5303 200.583 74.6699 202.116 77.2089C203.563 79.618 202.42 80.6567 201.292 82.8927C200.93 83.614 200.034 85.0711 200.381 85.9366C200.901 87.2494 203.244 87.2782 204.416 87.4514C205.443 87.61 207.713 87.5091 208.089 88.8362C208.364 89.8028 207.67 91.808 207.511 92.8034C207.352 93.7699 207.453 94.924 206.672 95.5588C206.065 96.0637 205.284 95.9771 204.589 96.2224C203.36 96.6407 202.926 97.6505 202.102 98.5449C201.48 99.223 200.612 99.5403 199.86 100.031C198.949 100.637 198.096 101.647 197.04 102.007C195.232 102.613 193.641 101.892 191.92 103.132C191.341 103.551 190.821 104.142 190.141 104.416C189.606 104.633 188.969 104.618 188.405 104.734C187.031 104.993 184.963 105.527 184.544 107.114C184.124 108.73 186.12 110.129 187.35 110.677C188.463 111.168 190.199 111.499 190.358 112.884C190.488 114.053 189.62 114.976 190.199 116.159C191.978 119.881 196.967 117.905 200.12 118.482C204.879 119.347 206.802 123.733 208.683 127.613C208.856 127.988 209.218 128.262 209.377 128.623C209.68 129.272 209.449 129.575 209.594 130.21C209.796 131.061 210.606 131.638 211.286 132.114C212.226 132.763 212.819 133.239 213.947 133.456C215.176 133.687 216.536 133.672 217.722 134.018C220.094 134.725 220.528 137.582 219.544 139.673C218.922 141.015 217.071 141.808 216.174 142.977C215.466 143.915 214.887 144.924 214.005 145.732C213.528 146.18 212.819 146.482 212.269 146.872C211.474 147.463 211.069 148.372 211.358 147.463Z" fill="#AD86FF"/>
<path opacity="0.3" fill-rule="evenodd" clip-rule="evenodd" d="M119.619 147.622C119.634 148.978 119.735 149.887 119.402 151.099C119.127 152.123 118.751 153.046 118.563 154.085C118.057 156.826 118.13 159.726 117.71 162.51C117.464 164.154 116.784 165.424 116.264 166.953C115.584 168.958 115.989 171.007 115.642 173.055C115.165 175.868 114.644 178.782 112.46 180.831C111.607 181.624 110.811 182.057 109.582 181.927C108.468 181.812 107.658 181.091 106.53 180.99C105.576 180.903 104.896 181.437 103.97 181.696C102.813 182.028 101.627 182.288 100.456 182.533C99.3276 182.778 98.7491 183.153 97.8379 183.788C97.0424 184.336 95.9866 184.51 95.5817 185.491C95.1478 186.529 96.2036 187.337 96.7242 188.217C97.7511 189.977 98.7057 191.521 100.427 192.689C101.511 193.425 102.047 193.497 103.29 193.295C104.447 193.107 105.532 192.891 106.53 193.771C107.817 194.911 108.974 196.469 109.582 198.07C109.669 198.286 109.828 199.109 109.813 199.282C109.755 200.118 109.799 199.556 109.35 200.09C108.859 200.681 108.353 201.027 108.222 201.878C108.034 203.105 108.396 204.951 108.815 206.091C109.119 206.899 109.538 207.735 110.131 208.37C110.826 209.135 111.231 209.971 112.012 210.678C113.516 212.049 114.413 213.708 116.119 214.948C118.101 216.391 119.836 218.151 121.543 219.911C125.144 223.633 129.136 226.489 131.031 231.495C131.493 232.721 131.696 235.188 130.785 236.299C130.423 236.746 129.599 237.02 129.136 237.41C128.283 238.145 127.964 238.996 127.415 239.963C126.822 241.002 125.954 242.617 124.855 243.238C123.785 243.844 121.919 243.945 120.689 243.815C119.952 243.743 119.315 243.57 118.578 243.555C118.014 243.541 117.623 243.714 117.016 243.656C114.904 243.44 113.125 243.108 111.028 244.002C110.305 244.305 109.741 244.767 109.177 245.286C108.512 245.907 108.005 246.931 107.253 247.436C105.749 248.46 103.175 246.859 101.96 246.152C100.166 245.128 98.185 243.555 96.0011 243.627C94.6849 243.671 93.5713 244.522 92.2552 244.752C90.4328 245.07 89.0588 245.416 87.3811 246.137C86.6724 246.44 86.3109 246.671 85.5009 246.585C83.0278 246.325 80.8728 244.55 78.9781 243.093C76.7219 241.348 74.7694 239.271 72.5276 237.539C70.0544 235.621 68.449 233.861 66.5833 231.365C64.9056 229.129 62.7795 227.427 60.8559 225.422C59.3952 223.907 57.9923 222.334 56.5604 220.791C55.0996 219.204 54.0294 217.3 52.829 215.525C51.8744 214.126 50.8041 212.914 50.1099 211.356C49.3289 209.625 48.6636 207.764 47.709 206.134C46.6677 204.374 45.8867 202.787 45.2069 200.854C44.585 199.094 43.6594 195.69 46.2049 194.795C48.0128 194.161 50.4715 195.055 52.2938 195.3C55.2298 195.704 57.7319 194.175 59.8725 192.357C61.608 190.886 63.0543 189.155 64.9345 187.828C65.8602 187.178 66.9593 185.995 68.1164 185.837C68.9986 185.721 70.2135 186.024 71.009 186.313C72.9615 187.034 74.9574 187.438 77.069 187.351C78.9202 187.279 81.5236 187.092 83.0711 185.995C84.0691 185.289 84.879 184.235 85.7613 183.399C87.0774 182.173 87.0774 179.547 86.7158 177.859C85.9638 174.31 86.2096 170.617 85.2984 167.097C84.7199 164.876 81.8563 165.049 80.222 163.765C78.9347 162.755 78.4863 161.399 77.6041 160.13C76.8376 159.033 75.6082 158.081 74.6681 157.129C71.5152 153.926 71.5297 149.599 75.1454 146.526C77.2136 144.766 79.9326 144.362 82.348 145.502C83.4182 146.007 84.5464 146.468 85.5443 147.103C86.8749 147.925 87.9452 148.978 89.4927 149.483C95.3647 151.373 100.962 148.863 106.328 146.786C108.815 145.819 111.65 145.112 114.311 145.141C115.786 145.155 116.191 145.069 117.421 146.05C118.289 146.742 119.012 146.988 119.966 147.565C120.935 148.127 121.47 149.166 119.619 147.622Z" fill="#AD86FF"/>
<path fill-rule="evenodd" clip-rule="evenodd" d="M153.925 30.1381C154.099 30.1814 154.273 30.2535 154.49 30.34C157.006 31.4076 159.682 31.8836 162.444 32.3164C163.066 32.4174 163.89 32.7203 164.483 32.6626C164.975 32.6338 165.207 32.403 165.727 32.4174C166.841 32.4174 167.998 32.4174 169.054 32.3308C170.934 32.1289 173.176 32.7492 175.128 33.081C177.515 33.4705 180.132 32.7348 182.432 33.3406C184.949 34.0187 187.219 35.3891 189.823 35.7498L191.631 36.0239C193.178 36.2835 193.728 37.2789 195.29 38.2455C195.478 39.3851 195.507 41.3471 196.302 42.2271C196.577 42.53 197.011 42.8329 197.358 43.0493C198.356 43.6408 199.267 44.3477 200.352 44.7949C202.377 45.6749 204.445 46.6126 206.629 47.0309C208.451 47.3771 210.187 47.3194 212.023 47.4348C215.625 47.6512 219.096 47.6801 222.234 49.743C223.955 50.8826 225.662 52.1089 227.427 53.2197C228.439 53.8544 229.639 54.5036 230.507 55.3114C231.172 55.9317 231.679 56.7396 232.301 57.3888C233.053 58.1822 234.195 58.3986 235.135 58.9323C236.278 59.6104 236.871 60.5048 237.507 61.6444C238.332 63.188 237.912 64.8182 238.505 66.3185C238.881 67.2273 239.662 67.7178 240.371 68.2804C243.683 70.9492 244.247 74.974 246.561 78.3497C248.224 80.831 251.146 82.1005 253.012 84.4808C254.906 86.8466 256.396 89.501 257.972 92.0833C259.028 93.8288 259.997 94.4491 261.632 95.4589C263.194 96.4688 264.987 97.9546 265.985 99.5559C267.07 101.273 268.068 102.946 269.326 104.562C270.309 105.817 271.669 106.682 272.609 107.981C273.448 109.192 273.766 110.635 274.345 111.962C275.632 114.905 276.109 117.992 277.281 120.964C278.25 123.402 280.318 125.782 280.043 128.523C279.956 129.504 279.696 130.009 279.349 130.875C278.828 132.101 278.929 133.529 278.669 134.842C278.51 135.606 278.134 136.155 277.816 136.818C277.411 137.698 277.266 138.694 276.717 139.501C275.82 140.8 274.301 141.564 273.245 142.704C272.03 144.031 271.814 145.705 272.103 147.393C272.392 149.152 272.768 150.97 273.173 152.716C273.781 155.399 275.69 157.952 275.863 160.751C275.921 161.804 275.4 162.698 275.068 163.622C274.648 164.733 274.272 166.016 273.983 167.171C273.665 168.397 273.665 169.623 273.824 170.864C273.954 171.729 274.301 172.422 274.692 173.258C274.851 173.633 275.227 173.907 275.4 174.268C275.719 174.932 275.661 175.639 275.863 176.345C276.051 177.052 276.427 178.697 277.078 179.144C278.438 180.096 279.421 177.24 280.217 178.279C280.795 179 280.072 180.471 280.029 181.294C279.971 182.347 280.202 183.717 280.52 184.741C281.128 186.862 281.836 187.497 280.94 189.545C280.217 191.219 279.305 192.604 278.148 194.003C276.731 195.691 276.847 197.609 276.051 199.499C275.632 200.523 275.675 201.663 275.458 202.731C275.256 203.784 274.648 204.534 274.287 205.529C274.026 206.222 273.694 207.419 273.882 208.155C274.012 208.703 274.634 209.078 274.938 209.511C275.516 210.405 275.4 211.256 275.502 212.281C275.704 213.81 275.617 215.065 275.371 216.594C281.779 204.505 286.277 191.147 288.518 176.879C298.744 111.486 257.163 49.9594 194.162 33.8744C191.038 33.0665 187.87 32.3741 184.645 31.8259C184.645 31.8259 184.63 31.8259 184.602 31.8259C183.734 31.6528 182.866 31.5085 181.984 31.3787C172.496 29.9361 163.109 29.5466 153.925 30.1381Z" fill="url(#paint4_radial)"/>
<defs>
<radialGradient id="paint0_radial" cx="0" cy="0" r="1" gradientUnits="userSpaceOnUse" gradientTransform="translate(159.995 160.003) rotate(-126.209) scale(160.608 159.368)">
<stop stop-color="#3D41FF"/>
<stop offset="1" stop-color="#3D41FF" stop-opacity="0"/>
</radialGradient>
<radialGradient id="paint1_radial" cx="0" cy="0" r="1" gradientUnits="userSpaceOnUse" gradientTransform="translate(162.91 153.638) rotate(-126.209) scale(137.014 135.957)">
<stop stop-color="#8168FF"/>
<stop offset="1" stop-color="#8168FF" stop-opacity="0"/>
</radialGradient>
<radialGradient id="paint2_radial" cx="0" cy="0" r="1" gradientUnits="userSpaceOnUse" gradientTransform="translate(199.984 152.98) rotate(-171.164) scale(137.535 137.2)">
<stop stop-color="#895CC2"/>
<stop offset="1" stop-color="#895CC2" stop-opacity="0"/>
</radialGradient>
<linearGradient id="paint3_linear" x1="237.715" y1="146.141" x2="238.456" y2="141.374" gradientUnits="userSpaceOnUse">
<stop stop-color="#E8DDFF"/>
<stop offset="1" stop-color="#AA8AD8"/>
</linearGradient>
<radialGradient id="paint4_radial" cx="0" cy="0" r="1" gradientUnits="userSpaceOnUse" gradientTransform="translate(258.601 96.0044) rotate(-171.164) scale(81.862 81.6623)">
<stop stop-color="white"/>
<stop offset="1" stop-color="#8B8DCC"/>
</radialGradient>
</defs>
</svg>
