<svg width="72" height="64" viewBox="0 0 72 64" fill="none" xmlns="http://www.w3.org/2000/svg">
<path d="M0.861951 35.192L15.6578 60.792C16.799 62.776 18.9288 64 21.2273 64H50.7787C53.0773 64 55.207 62.776 56.3483 60.792L71.1441 35.192C72.2853 33.216 72.2853 30.784 71.1441 28.808L56.3483 3.208C55.207 1.224 53.0853 0 50.7868 0H21.2273C18.9288 0 16.799 1.224 15.6578 3.208L0.861951 28.808C-0.287317 30.784 -0.287317 33.216 0.861951 35.192Z" fill="url(#paint0_linear)"/>
<path d="M35.9956 40H15.2832C13.8631 40 12.5429 39.24 11.8328 38L9.53256 34C8.82248 32.76 8.82248 31.24 9.53256 30L21.0339 10C21.744 8.76 23.0641 8 24.4843 8H47.497C48.9171 8 50.2373 8.76 50.9473 10L53.0176 13.6C53.6377 14.67 52.8776 16 51.6474 16H28.6348C27.4946 16 26.4445 16.61 25.8745 17.6L17.5835 32H31.3951L35.9956 40ZM62.4687 30L60.1684 26C59.4583 24.76 58.1382 24 56.718 24H35.9956L40.5962 32H54.4077L46.1268 46.4C45.5567 47.39 44.5066 48 43.3665 48H20.3438C19.1137 48 18.3536 49.33 18.9637 50.4L21.0339 54C21.744 55.24 23.0641 56 24.4843 56H47.497C48.9171 56 50.2373 55.24 50.9473 54L62.4587 34C63.1788 32.76 63.1788 31.24 62.4687 30Z" fill="white"/>
<defs>
<linearGradient id="paint0_linear" x1="18.5" y1="-2.05874e-07" x2="54" y2="64" gradientUnits="userSpaceOnUse">
<stop stop-color="#FFC83E"/>
<stop offset="1" stop-color="#E05527"/>
</linearGradient>
</defs>
</svg>
