<svg width="536" height="536" viewBox="0 0 536 536" fill="none" xmlns="http://www.w3.org/2000/svg">
    <path opacity="0.2" d="M267.999 535.998C416.011 535.998 535.998 416.011 535.998 267.999C535.998 119.987 416.011 0 267.999 0C119.987 0 0 119.987 0 267.999C0 416.011 119.987 535.998 267.999 535.998Z" fill="url(#paint0_radial)"/>
    <path d="M535.998 446.545L6.90918 442.188V455.074C6.90918 458.571 9.21715 461.545 12.3423 462.075L161.954 487.448C163.73 487.75 165.53 487.829 167.321 487.685L530.25 458.755C533.49 458.497 536 455.514 536 451.921V446.545H535.998Z" fill="url(#paint1_linear)"/>
    <path d="M343.995 425.655L12.3791 449.228C6.44539 449.65 1.61963 445.168 1.61963 439.216V200.762C1.61963 194.81 6.44355 189.986 12.3791 189.986H343.993C348.881 189.986 352.835 194.348 352.835 199.728V415.286C352.835 420.666 348.883 425.309 343.995 425.655Z" fill="url(#paint2_linear)"/>
    <path d="M349.283 425.655L17.667 449.228C11.7332 449.65 6.90747 445.168 6.90747 439.216V200.762C6.90747 194.81 11.7314 189.986 17.667 189.986H349.281C354.169 189.986 358.122 194.348 358.122 199.728V415.286C358.122 420.666 354.171 425.309 349.283 425.655Z" fill="url(#paint3_linear)"/>
    <path d="M338.95 410.458L30.0866 430.934C25.2572 431.254 21.3333 427.575 21.3333 422.716V213.949C21.3333 209.09 25.2572 205.135 30.0866 205.115L338.95 203.828C342.983 203.812 346.246 207.386 346.246 211.811V401.963C346.246 406.387 342.984 410.191 338.95 410.458Z" fill="url(#paint4_linear)"/>
    <path d="M195.186 196.507C195.186 198.723 193.48 200.525 191.37 200.53C189.259 200.538 187.548 198.741 187.548 196.522C187.548 194.3 189.259 192.5 191.37 192.499C193.48 192.497 195.186 194.291 195.186 196.507Z" fill="white"/>
    <path opacity="0.48" d="M269.385 360.257C243.821 346.422 223.719 363.953 204.32 346.656C192.559 336.169 198.333 328.349 183.861 312.679C167.832 295.321 157.397 301.155 141.289 285.535C120.92 265.783 131.107 250.415 113.564 236.234C92.2803 219.029 69.3257 234.953 49.0656 218.453C40.3269 211.336 35.5325 200.99 33.0276 189.988H13.2037C9.73065 189.988 6.90918 192.821 6.90918 196.314V443.491C6.90918 446.985 9.73065 449.617 13.2037 449.368L351.173 425.237C352.831 425.12 354.301 424.144 355.246 422.733C330.506 421.825 315.307 413.484 305.591 404.86C286.584 387.986 289.881 371.348 269.385 360.257Z" fill="white"/>
    <path d="M362.499 424.588L6.90918 449.399L161.954 475.694C163.73 475.996 165.53 476.075 167.321 475.932L536 446.543L368.157 424.755C366.277 424.512 364.385 424.455 362.499 424.588Z" fill="url(#paint5_linear)"/>
    <path opacity="0.3" d="M58.7944 450.024L354.833 429.059L446.457 440.856L152.967 463.266L58.7944 450.024Z" fill="url(#paint6_linear)"/>
    <path d="M417.655 57.3184L151.296 48.2522C142.382 47.9485 135.129 54.9699 135.129 63.935V258.331C135.129 267.296 142.384 274.397 151.296 274.192L417.657 268.067C425.377 267.891 431.613 261.02 431.613 252.723V72.8172C431.611 64.5202 425.376 57.5816 417.655 57.3184Z" fill="url(#paint7_linear)"/>
    <path opacity="0.74" d="M140.304 254.245V68.078C140.304 59.7811 147.011 53.275 155.251 53.5437L414.206 62.021C421.374 62.2566 427.166 68.6854 427.166 76.3841V249.107C427.166 256.805 421.374 263.17 414.206 263.326L155.251 268.943C147.011 269.124 140.304 262.542 140.304 254.245Z" fill="white"/>
    <path d="M417.655 57.3184L151.296 48.2522C142.382 47.9485 135.129 54.9699 135.129 63.935V75.5797L431.613 83.5932V72.8172C431.611 64.5202 425.376 57.5816 417.655 57.3184Z" fill="url(#paint8_linear)"/>
    <path d="M163.875 63.2356C163.875 66.1491 161.529 68.4424 158.632 68.3577C155.729 68.2731 153.375 65.8381 153.375 62.9172C153.375 59.9964 155.731 57.7031 158.632 57.7952C161.53 57.8853 163.875 60.3221 163.875 63.2356Z" fill="white"/>
    <path d="M182.183 63.7915C182.183 66.6903 179.858 68.9744 176.987 68.8915C174.112 68.8087 171.778 66.383 171.778 63.4768C171.778 60.5688 174.112 58.2866 176.987 58.3787C179.858 58.467 182.183 60.8909 182.183 63.7915Z" fill="white"/>
    <path d="M200.319 64.3417C200.319 67.2276 198.016 69.5006 195.171 69.4178C192.322 69.335 190.01 66.9221 190.01 64.0289C190.01 61.1356 192.322 58.8626 195.171 58.9528C198.016 59.043 200.319 61.4559 200.319 64.3417Z" fill="white"/>
    <path d="M415.321 200.538L153.973 201.771V124.905L415.321 128.746V200.538Z" fill="url(#paint9_linear)"/>
    <path d="M415.321 218.667L153.973 221.181V212.926L415.321 210.957V218.667Z" fill="white"/>
    <path d="M415.321 237.578L153.973 241.43V233.175L415.321 229.868V237.578Z" fill="white"/>
    <path d="M294.53 108.25L153.973 105.495V113.748L294.53 116.21V108.25Z" fill="white"/>
    <path d="M400.407 110.324V118.065L415.321 118.327V110.617L400.407 110.324Z" fill="white"/>
    <g opacity="0.5">
        <path opacity="0.5" d="M313.987 156.896C282.87 111.618 229.045 125.908 195.02 75.9221C188.886 66.911 184.722 57.7436 181.868 49.292L151.296 48.2522C142.382 47.9485 135.129 54.9699 135.129 63.935V258.331C135.129 267.296 142.384 274.397 151.296 274.192L353.874 269.534C347.812 260.819 342.215 251.081 337.479 240.202C319.319 198.484 332.768 184.226 313.987 156.896Z" fill="white"/>
    </g>
    <path d="M488.206 103.467L317.201 101.663C309.114 101.578 302.532 108.431 302.532 116.969V386.922C302.532 395.46 309.114 401.93 317.201 401.372L488.206 389.593C495.546 389.087 501.474 382.12 501.474 374.03V118.255C501.474 110.164 495.546 103.544 488.206 103.467Z" fill="url(#paint10_linear)"/>
    <path opacity="0.74" d="M307.229 382.821V120.798C307.229 112.895 313.314 106.546 320.792 106.614L484.93 108.13C491.746 108.193 497.25 114.329 497.25 121.835V370.698C497.25 378.204 491.746 384.66 484.93 385.12L320.792 396.213C313.312 396.719 307.229 390.725 307.229 382.821Z" fill="white"/>
    <path d="M488.206 103.467L317.201 101.663C309.114 101.578 302.532 108.431 302.532 116.969V128.059L501.474 128.762V118.255C501.474 110.164 495.546 103.544 488.206 103.467Z" fill="url(#paint11_linear)"/>
    <path d="M328.619 115.651C328.619 118.426 326.49 120.664 323.86 120.649C321.226 120.635 319.089 118.367 319.089 115.584C319.089 112.802 321.226 110.564 323.86 110.586C326.49 110.608 328.619 112.875 328.619 115.651Z" fill="white"/>
    <path d="M345.239 115.765C345.239 118.527 343.128 120.756 340.522 120.742C337.912 120.727 335.794 118.47 335.794 115.7C335.794 112.931 337.912 110.702 340.522 110.724C343.128 110.744 345.239 113.002 345.239 115.765Z" fill="white"/>
    <path d="M361.713 115.877C361.713 118.629 359.621 120.846 357.039 120.832C354.451 120.817 352.351 118.57 352.351 115.813C352.351 113.056 354.451 110.836 357.039 110.858C359.621 110.88 361.713 113.127 361.713 115.877Z" fill="white"/>
    <path d="M485.989 323.856L319.631 332.274V174.624L485.989 173.16V323.856Z" fill="url(#paint12_linear)"/>
    <path d="M485.989 341.532L319.631 350.766V342.903L485.989 334.016V341.532Z" fill="white"/>
    <path d="M485.989 359.97L319.631 370.054V362.192L485.989 352.454V359.97Z" fill="white"/>
    <path d="M447.401 155.635L319.631 156.132V163.997L447.401 163.233V155.635Z" fill="white"/>
    <path d="M471.815 155.54V163.086L485.989 163.001V155.484L471.815 155.54Z" fill="white"/>
    <g opacity="0.15">
        <path opacity="0.15" d="M443.273 264.817C415.776 228.616 381.28 227.58 362.068 188.843C348.162 160.801 350.135 128.873 356.306 102.077L317.199 101.665C309.112 101.58 302.531 108.432 302.531 116.97V386.924C302.531 395.462 309.112 401.931 317.199 401.373L470.95 390.783C475.684 322.418 459.233 285.829 443.273 264.817Z" fill="white"/>
    </g>
    <path d="M66.4471 342.39C66.4471 342.39 5.7441 226.218 88.4041 150.016L70.3213 144.419L129.732 134.518L106.916 178.432L101.319 163.086C101.319 163.086 40.6379 209.153 66.4471 342.39Z" fill="url(#paint13_linear)"/>
    <path opacity="0.69" d="M92.2969 376.306C92.2969 376.306 210.322 433.325 283.884 348.307L290.048 366.204L298.076 306.51L254.902 330.697L270.416 335.808C270.416 335.81 226.281 397.91 92.2969 376.306Z" fill="white"/>
    <path d="M67.1245 512.857C57.7233 512.112 45.6957 509.499 34.1522 501.953C21.6626 493.786 5.39454 477.007 9.64055 466.431C11.2252 462.483 15.7896 459.102 19.8019 459.424C25.7283 459.901 26.4184 468.134 36.7123 477.088C38.6135 478.742 48.4491 487.299 53.3374 484.416C55.7687 482.983 56.4865 479.011 56.0908 475.991C54.9313 467.162 44.1515 465.805 33.7878 456.246C23.2804 446.556 14.5215 429.649 19.5276 418.221C22.4043 411.653 30.0148 406.466 35.0172 407.924C37.1558 408.548 38.5104 410.294 45.0019 424.317C50.3301 435.828 51.5153 439.183 54.9497 440.274C58.4853 441.397 63.9828 439.989 66.0718 436.505C71.5122 427.433 47.9963 414.038 45.8595 388.65C44.9025 377.272 47.9798 360.41 58.2828 356.795C65.2472 354.351 75.1711 358.083 78.7583 364.474C81.992 370.234 78.0644 374.569 80.5306 387.507C81.2797 391.435 82.8202 399.515 86.0705 399.938C89.8877 400.435 94.1576 390.132 95.1441 387.623C102.574 368.733 94.0546 359.018 101.061 349.847C106.524 342.697 118.413 339.824 127.831 343.437C136.073 346.597 142.666 354.817 143.105 363.334C143.553 372.001 136.264 380.629 121.686 397.884C114.773 406.067 109.272 411.596 109.585 419.729C109.737 423.693 111.309 429.27 114.149 429.78C120.416 430.904 123.502 405.666 138.357 401.767C145.96 399.772 155.409 403.693 159.561 410.547C164.648 418.945 161.24 430.847 154.85 437.105C146.51 445.271 137.959 439.065 122.271 447.837C115.31 451.727 104.372 460.004 105.974 466.849C106.671 469.829 109.794 472.748 113.223 473.136C120.907 474.008 123.445 461.416 135.799 455.88C144.699 451.891 157.007 452.322 159.929 457.343C164.056 464.429 149.398 480.518 141.604 487.626C132.182 496.223 109.964 512.519 67.1245 512.857Z" fill="url(#paint14_linear)"/>
    <path opacity="0.5" d="M71.3463 508.822C70.104 487.759 84.0549 444.857 94.2052 424.575C104.136 404.729 113.639 373.332 113.733 373.018L114.351 373.203C114.255 373.518 104.74 404.968 94.7831 424.864C84.6641 445.084 70.7555 487.827 71.9905 508.785L71.3463 508.822Z" fill="white"/>
    <path d="M44.9667 515.604C37.8882 505.776 27.5042 488.042 25.6416 464.319C24.8741 454.544 23.376 435.449 35.0557 418.98C40.8772 410.771 53.2232 398.63 61.5661 402.132C66.933 404.385 70.2661 412.958 68.7514 419.475C67.2238 426.047 61.6692 426.657 55.6195 437.808C53.3815 441.935 50.8232 446.781 52.7888 449.516C54.4287 451.801 58.9361 452.217 62.317 450.846C69.298 448.016 67.117 439.323 74.663 433.089C80.0299 428.657 88.9747 426.572 92.836 430.203C96.1875 433.356 95.6041 440.72 92.6428 445.628C87.8998 453.489 79.3949 451.183 73.8514 459.776C71.3925 463.588 69.644 469.347 71.7955 471.623C74.2489 474.219 81.4673 471.975 86.0943 469.106C92.2029 465.32 92.4274 461.291 96.4507 460.785C100.938 460.222 106.548 464.495 107.426 469.222C108.655 475.844 100.531 482.985 94.0986 486.086C85.8642 490.058 79.7446 487.726 75.7231 493.153C74.2471 495.145 72.8943 498.395 74.1054 500.368C75.8317 503.182 82.0747 502.253 86.2195 501.636C96.3053 500.134 99.0826 496.477 102.697 498.253C106.356 500.053 108.245 506.131 106.662 510.393C105.782 512.762 103.141 516.432 90.0495 518.731C80.8802 520.347 65.4864 521.479 44.9667 515.604Z" fill="url(#paint15_linear)"/>
    <defs>
        <radialGradient id="paint0_radial" cx="0" cy="0" r="1" gradientUnits="userSpaceOnUse" gradientTransform="translate(267.999 267.999) rotate(90) scale(267.999)">
            <stop stop-color="#DE5125"/>
            <stop offset="1" stop-color="#844AFF"/>
        </radialGradient>
        <linearGradient id="paint1_linear" x1="230.458" y1="466.639" x2="193.311" y2="482.241" gradientUnits="userSpaceOnUse">
            <stop stop-color="#40447E"/>
            <stop offset="0.9964" stop-color="#3C3B6B"/>
        </linearGradient>
        <linearGradient id="paint2_linear" x1="170.229" y1="310.948" x2="132.28" y2="326.887" gradientUnits="userSpaceOnUse">
            <stop stop-color="#40447E"/>
            <stop offset="0.9964" stop-color="#3C3B6B"/>
        </linearGradient>
        <linearGradient id="paint3_linear" x1="6.90869" y1="319.621" x2="358.123" y2="319.621" gradientUnits="userSpaceOnUse">
            <stop stop-color="#40447E"/>
            <stop offset="0.9964" stop-color="#3C3B6B"/>
        </linearGradient>
        <linearGradient id="paint4_linear" x1="228.909" y1="234.214" x2="-41.1074" y2="675.632" gradientUnits="userSpaceOnUse">
            <stop stop-color="#FFC444"/>
            <stop offset="0.9964" stop-color="#F36F56"/>
        </linearGradient>
        <linearGradient id="paint5_linear" x1="6.90855" y1="450.259" x2="535.999" y2="450.259" gradientUnits="userSpaceOnUse">
            <stop stop-color="#40447E"/>
            <stop offset="0.9964" stop-color="#3C3B6B"/>
        </linearGradient>
        <linearGradient id="paint6_linear" x1="58.7948" y1="446.163" x2="446.456" y2="446.163" gradientUnits="userSpaceOnUse">
            <stop stop-color="#40447E"/>
            <stop offset="0.9964" stop-color="#3C3B6B"/>
        </linearGradient>
        <linearGradient id="paint7_linear" x1="367.678" y1="-10.2656" x2="124.11" y2="476.869" gradientUnits="userSpaceOnUse">
            <stop stop-color="#FF9085"/>
            <stop offset="1" stop-color="#FB6FBB"/>
        </linearGradient>
        <linearGradient id="paint8_linear" x1="257.855" y1="-28.8708" x2="308.174" y2="172.409" gradientUnits="userSpaceOnUse">
            <stop stop-color="#AB316D"/>
            <stop offset="1" stop-color="#792D3D"/>
        </linearGradient>
        <linearGradient id="paint9_linear" x1="153.973" y1="163.338" x2="415.322" y2="163.338" gradientUnits="userSpaceOnUse">
            <stop stop-color="#FF9085"/>
            <stop offset="1" stop-color="#FB6FBB"/>
        </linearGradient>
        <linearGradient id="paint10_linear" x1="302.532" y1="251.535" x2="501.475" y2="251.535" gradientUnits="userSpaceOnUse">
            <stop offset="0.00359712" stop-color="#E38DDD"/>
            <stop offset="1" stop-color="#9571F6"/>
        </linearGradient>
        <linearGradient id="paint11_linear" x1="403.223" y1="111.386" x2="383.456" y2="290.057" gradientUnits="userSpaceOnUse">
            <stop stop-color="#40447E"/>
            <stop offset="0.9964" stop-color="#3C3B6B"/>
        </linearGradient>
        <linearGradient id="paint12_linear" x1="319.631" y1="252.717" x2="485.989" y2="252.717" gradientUnits="userSpaceOnUse">
            <stop offset="0.00359712" stop-color="#E38DDD"/>
            <stop offset="1" stop-color="#9571F6"/>
        </linearGradient>
        <linearGradient id="paint13_linear" x1="135.387" y1="109.399" x2="-29.654" y2="439.481" gradientUnits="userSpaceOnUse">
            <stop stop-color="#FB6FBB"/>
            <stop offset="1" stop-color="#FF9085"/>
        </linearGradient>
        <linearGradient id="paint14_linear" x1="156.381" y1="314.143" x2="75.7639" y2="467.973" gradientUnits="userSpaceOnUse">
            <stop stop-color="#AA80F9"/>
            <stop offset="0.9964" stop-color="#6165D7"/>
        </linearGradient>
        <linearGradient id="paint15_linear" x1="100.041" y1="429.884" x2="7.50941" y2="540.811" gradientUnits="userSpaceOnUse">
            <stop offset="0.00359712" stop-color="#E38DDD"/>
            <stop offset="1" stop-color="#9571F6"/>
        </linearGradient>
    </defs>
</svg>