<svg width="648" height="480" viewBox="0 0 648 480" fill="none" xmlns="http://www.w3.org/2000/svg">
    <rect width="648" height="480" rx="24" fill="url(#paint0_linear)"/>
    <path opacity="0.2" d="M322.735 470C449.614 470 552.47 367.026 552.47 240C552.47 112.975 449.614 10 322.735 10C195.856 10 93 112.975 93 240C93 367.026 195.856 470 322.735 470Z" fill="url(#paint1_radial)"/>
    <path d="M365.403 352.293L314.773 363.926C314.773 363.926 299.282 340.112 307.482 318.911C324.215 275.655 285.204 264.002 269.596 256.673C246.054 245.622 232.63 227.44 253.624 208.822C277.379 187.755 244.397 153.786 203.809 141.425C164.091 129.329 162.652 51.6644 251.017 69.9445C303.788 80.8613 307.927 133.268 316.302 159.235C324.678 185.202 364.542 178.352 358.49 213.814C353.321 244.107 336.079 269.29 357.121 284.466C378.163 299.641 384.776 320.556 365.403 352.293Z" fill="url(#paint2_linear)"/>
    <g opacity="0.3">
        <g opacity="0.3">
            <path opacity="0.3" d="M344.568 362.033L343.472 362.082C343.442 361.402 340.185 293.4 316.653 226.957C294.975 165.748 251.149 93.3784 165.478 96.214L165.442 95.1165C203.578 93.8532 236.735 107.131 263.992 134.576C285.764 156.502 303.833 187.466 317.695 226.611C341.276 293.204 344.538 361.351 344.568 362.033Z" fill="white"/>
            <path opacity="0.3" d="M274.886 146.538L273.795 146.65C270.088 110.296 245.13 63.1826 244.879 62.7111L245.846 62.1936C246.098 62.6667 271.158 109.973 274.886 146.538Z" fill="white"/>
            <path opacity="0.3" d="M256.225 128.749C215.099 114.573 183.95 133.065 183.642 133.254L183.073 132.316C183.386 132.123 214.953 113.36 256.583 127.711L256.225 128.749Z" fill="white"/>
            <path opacity="0.3" d="M329.674 271.232C306.16 223.527 234.784 226.9 234.09 226.992L233.877 225.916C234.548 225.761 306.932 222.617 330.657 270.746L329.674 271.232Z" fill="white"/>
            <path opacity="0.3" d="M325.104 249.778L324.008 249.801C323.312 215.862 353.301 185.508 353.605 185.206L354.379 185.983C354.077 186.282 324.417 216.313 325.104 249.778Z" fill="white"/>
            <path opacity="0.3" d="M342.725 351.391C336.683 332.108 305.114 322.994 304.796 322.904L305.093 321.847C306.415 322.22 337.549 331.211 343.77 351.062L342.725 351.391Z" fill="white"/>
            <path opacity="0.3" d="M342.17 335.278L341.076 335.34C340.175 319.386 359.433 296.958 365.763 289.59C366.657 288.548 367.428 287.649 367.535 287.462L368.496 287.99C368.35 288.256 367.838 288.855 366.595 290.306C360.336 297.59 341.294 319.766 342.17 335.278Z" fill="white"/>
        </g>
    </g>
    <path d="M307.988 284.208C308.23 284.232 308.473 284.257 308.716 284.28C323.091 285.658 339.044 284.622 356.521 279.736C359.86 278.543 363.199 277.35 366.539 276.156C366.808 267.227 365.466 258.688 354.195 258.855C336.693 259.115 327.433 231.074 328.68 219.727C330.223 205.682 333.143 172.906 306.077 172.881C283.545 172.861 269.002 177.458 259.249 151.503C249.495 125.546 229.907 113.615 206.479 122.74C181.824 132.34 150.613 105.309 133.522 123.042C103.742 153.941 154.635 201.86 203.652 204.922C252.671 207.982 232.566 231.666 238.194 253.651C245.879 283.664 283.736 264.781 297.912 273.049C302.712 275.851 305.885 279.874 307.988 284.208Z" fill="url(#paint3_linear)"/>
    <g opacity="0.3">
        <g opacity="0.3">
            <path opacity="0.3" d="M334.924 283.859L336.013 283.253C291.709 203.53 208.975 145.725 120.099 132.395L119.915 133.628C208.417 146.903 290.805 204.467 334.924 283.859Z" fill="white"/>
            <path opacity="0.3" d="M307.051 242.465L308.239 242.085C297.349 207.928 318.07 171.973 318.28 171.613L317.205 170.982C316.991 171.347 295.99 207.771 307.051 242.465Z" fill="white"/>
            <path opacity="0.3" d="M326.374 269.415L327.239 268.517C301.1 243.289 236.88 259.056 236.235 259.218L236.538 260.429C237.177 260.268 300.733 244.667 326.374 269.415Z" fill="white"/>
            <path opacity="0.3" d="M241.292 181.953L242.231 181.132C223.278 159.42 227.344 115.389 227.388 114.947L226.148 114.826C226.103 115.273 221.988 159.839 241.292 181.953Z" fill="white"/>
            <path opacity="0.3" d="M190.629 153.946L190.928 152.733C159.067 144.854 120.698 167.09 120.314 167.317L120.944 168.393C121.325 168.169 159.266 146.188 190.629 153.946Z" fill="white"/>
        </g>
    </g>
    <path d="M531.651 388.771L126.256 385.235V395.694C126.256 398.532 128.025 400.946 130.419 401.376L245.051 421.971C246.412 422.216 247.792 422.28 249.164 422.165L527.243 398.684C529.726 398.473 531.649 396.053 531.649 393.136V388.771H531.651Z" fill="url(#paint4_linear)"/>
    <path d="M401.15 371.816L130.719 390.949C125.88 391.291 121.945 387.653 121.945 382.822V189.275C121.945 184.443 125.88 180.527 130.719 180.527H401.15C405.137 180.527 408.36 184.067 408.36 188.434V363.398C408.36 367.767 405.136 371.535 401.15 371.816Z" fill="url(#paint5_linear)"/>
    <path d="M405.462 371.816L135.032 390.949C130.192 391.291 126.257 387.653 126.257 382.822V189.275C126.257 184.443 130.192 180.527 135.032 180.527H405.462C409.45 180.527 412.673 184.067 412.673 188.434V363.398C412.671 367.767 409.448 371.535 405.462 371.816Z" fill="url(#paint6_linear)"/>
    <path d="M397.038 359.482L145.158 376.101C141.22 376.36 138.02 373.375 138.02 369.431V199.978C138.02 196.034 141.22 192.824 145.158 192.807L397.036 191.764C400.324 191.751 402.984 194.652 402.984 198.243V352.585C402.986 356.178 400.326 359.265 397.038 359.482Z" fill="url(#paint7_linear)"/>
    <path d="M398.713 370.949L126.257 391.089L245.053 412.431C246.414 412.676 247.794 412.74 249.165 412.625L531.651 388.771L403.047 371.085C401.609 370.888 400.159 370.842 398.713 370.949Z" fill="url(#paint8_linear)"/>
    <path d="M286.241 326.138C310.338 326.138 329.873 306.331 329.873 281.898C329.873 257.464 310.338 237.657 286.241 237.657C262.144 237.657 242.61 257.464 242.61 281.898C242.61 306.331 262.144 326.138 286.241 326.138Z" fill="white"/>
    <path d="M284.704 305.736C282.812 305.736 281.053 304.732 280.075 303.079L263.66 275.376C262.124 272.783 262.951 269.419 265.508 267.861C268.064 266.304 271.382 267.142 272.918 269.736L284.313 288.967L299.376 258.968C300.729 256.272 303.982 255.201 306.638 256.573C309.297 257.945 310.355 261.242 309.001 263.938L289.515 302.746C288.624 304.52 286.853 305.665 284.891 305.734C284.83 305.734 284.768 305.736 284.704 305.736Z" fill="url(#paint9_linear)"/>
    <path opacity="0.3" d="M166.013 391.595L392.842 374.578L463.042 384.154L238.168 402.345L166.013 391.595Z" fill="url(#paint10_linear)"/>
    <path opacity="0.48" d="M340.306 318.734C319.458 307.503 303.066 321.734 287.246 307.694C277.654 299.182 282.364 292.834 270.562 280.115C257.49 266.026 248.98 270.762 235.844 258.083C219.234 242.05 227.541 229.576 213.233 218.064C195.877 204.1 177.158 217.025 160.636 203.632C153.509 197.856 149.598 189.457 147.557 180.527H131.39C128.558 180.527 126.257 182.825 126.257 185.661V386.291C126.257 389.127 128.558 391.263 131.39 391.061L407.003 371.475C408.355 371.379 409.555 370.587 410.324 369.442C390.149 368.706 377.755 361.934 369.83 354.934C354.331 341.241 357.019 327.737 340.306 318.734Z" fill="white"/>
    <path d="M491.971 281.523V432.633C491.971 434.892 489.501 435.556 486.7 435.828L389.798 446.678L388.316 446.822C385.275 447.118 382.782 445.428 382.782 443.067V285.162C382.782 282.801 385.275 280.79 388.316 280.693L390.326 280.629L487.569 280.948C490.371 280.858 491.971 279.263 491.971 281.523Z" fill="url(#paint11_linear)"/>
    <path d="M494.959 281.351V432.42C494.959 434.679 492.673 436.75 489.872 437.021L391.36 446.601C388.321 446.896 385.83 445.208 385.83 442.847V284.986C385.83 282.626 388.321 280.615 391.36 280.519L489.872 277.405C492.673 277.316 494.959 279.092 494.959 281.351Z" fill="url(#paint12_linear)"/>
    <path d="M491.801 289.839V429.827C491.801 431.937 489.663 433.869 487.046 434.12L394.415 443.006C391.588 443.277 389.271 441.7 389.271 439.502V293.608C389.271 291.41 391.588 289.529 394.415 289.429L487.046 286.169C489.663 286.079 491.801 287.73 491.801 289.839Z" fill="url(#paint13_linear)"/>
    <path d="M477.043 351.308C477.043 370.219 461.821 386.569 442.986 387.831C424.087 389.096 408.719 374.698 408.719 355.67C408.719 336.641 424.087 320.283 442.986 319.135C461.821 317.991 477.043 332.397 477.043 351.308Z" fill="white"/>
    <path d="M441.783 372.069C440.302 372.166 438.923 371.476 438.157 370.244L425.279 349.541C424.072 347.601 424.722 344.944 426.731 343.605C428.738 342.268 431.342 342.757 432.546 344.696L441.476 359.068L453.26 335.039C454.317 332.882 456.859 331.893 458.935 332.83C461.009 333.764 461.836 336.27 460.779 338.424L445.551 369.5C444.854 370.923 443.467 371.902 441.931 372.056C441.882 372.063 441.833 372.066 441.783 372.069Z" fill="url(#paint14_linear)"/>
    <g opacity="0.48">
        <path opacity="0.48" d="M463.114 368.282C454.151 350.277 433.206 354.574 425.338 334.937C420.645 323.222 426.486 317.668 422.968 303.376C420.587 293.705 415.387 285.998 409.496 279.946L391.362 280.519C388.323 280.616 385.832 282.626 385.832 284.986V442.847C385.832 445.208 388.323 446.896 391.362 446.601L470.638 438.892C464.768 430.726 462.256 423.044 461.35 416.38C458.539 395.71 471.075 384.276 463.114 368.282Z" fill="white"/>
    </g>
    <path d="M545.627 344.714V448.999C545.627 450.558 544.296 450.99 542.786 451.148L490.784 457.595L489.993 457.678C488.369 457.849 487.036 456.661 487.036 455.04V346.559C487.036 344.937 488.369 343.571 489.993 343.521L491.068 343.49L543.257 344.292C544.765 344.247 545.627 343.155 545.627 344.714Z" fill="url(#paint15_linear)"/>
    <path d="M547.238 344.614V448.884C547.238 450.443 546.006 451.848 544.496 452.007L491.619 457.562C489.995 457.733 488.664 456.545 488.664 454.923V346.457C488.664 344.835 489.995 343.469 491.619 343.421L544.496 341.86C546.006 341.816 547.238 343.055 547.238 344.614Z" fill="url(#paint16_linear)"/>
    <path d="M545.536 350.454V447.062C545.536 448.518 544.384 449.829 542.973 449.975L493.254 455.122C491.742 455.278 490.503 454.171 490.503 452.66V352.404C490.503 350.893 491.742 349.615 493.254 349.564L542.973 347.891C544.383 347.845 545.536 348.997 545.536 350.454Z" fill="url(#paint17_linear)"/>
    <path d="M539.67 393.387C539.67 404.647 530.653 414.396 519.511 415.163C508.346 415.93 499.278 407.392 499.278 396.091C499.278 384.79 508.346 375.036 519.511 374.31C530.653 373.584 539.67 382.125 539.67 393.387Z" fill="white"/>
    <path d="M518.799 405.79C517.922 405.849 517.108 405.442 516.656 404.709L509.048 392.421C508.336 391.269 508.72 389.689 509.905 388.89C511.089 388.092 512.629 388.378 513.339 389.528L518.617 398.057L525.586 383.745C526.211 382.46 527.716 381.865 528.943 382.417C530.172 382.969 530.66 384.458 530.034 385.742L521.024 404.254C520.612 405.102 519.791 405.685 518.884 405.779C518.858 405.785 518.828 405.789 518.799 405.79Z" fill="url(#paint18_linear)"/>
    <g opacity="0.48">
        <path opacity="0.48" d="M530.049 407.064C525.223 394.92 512.218 397.788 508.167 385.514C504.86 375.496 512.217 369.625 509.337 358.024C507.72 351.515 503.744 346.681 499.68 343.183L491.621 343.421C489.996 343.469 488.666 344.836 488.666 346.457V454.922C488.666 456.543 489.996 457.731 491.621 457.56L532.159 453.302C528.905 448.168 527.599 443.476 527.136 439.579C525.456 425.4 534.47 418.191 530.049 407.064Z" fill="white"/>
    </g>
    <path d="M154.097 451.733C157.387 435.456 155.971 422.374 154.476 414.475C152.663 404.892 148.977 385.409 133.508 374.55C132.289 373.694 120.187 365.361 114.752 369.5C111.949 371.634 111.309 376.789 112.535 380.857C115.699 391.361 129.967 390.197 134.707 402.152C136.286 406.132 136.578 410.99 135.477 411.449C134.122 412.012 130.256 406.071 129.888 405.506C126.442 400.21 126.409 397.212 123.782 396.398C122.169 395.899 120.042 396.367 119.09 397.644C116.924 400.548 121.204 407.169 122.4 409.019C125.53 413.859 128.142 414.959 128.779 419.08C129.053 420.854 129.003 423.478 127.952 423.887C126.531 424.44 123.816 420.732 122.075 418.353C117.395 411.959 116.896 408.242 114.568 407.976C112.397 407.727 109.95 410.632 109.322 412.403C107.607 417.235 114.501 427.519 154.097 451.733Z" fill="url(#paint19_linear)"/>
    <path opacity="0.28" d="M153.601 448.942C154.093 433.816 151.646 421.825 149.431 413.957C146.584 403.842 141.228 384.82 126.2 376.587C125.132 376.002 117.276 371.698 115.081 374.003C113.617 375.539 114.915 379.758 117.066 382.551C120.739 387.317 124.967 385.426 130.965 390.105C136.346 394.302 138.236 399.955 138.709 401.435C140.463 406.924 139.552 411.629 139.305 413.363C138.366 419.944 140.291 430.731 153.601 448.942Z" fill="white"/>
    <path opacity="0.28" d="M148.241 445.165C139.815 437.609 137.867 431.419 137.718 427.075C137.601 423.691 138.515 419.674 135.931 415.943C134.277 413.556 133.031 413.941 130.173 411.371C124.203 406.004 123.461 398.767 122.23 399.047C121.546 399.203 121.19 401.575 121.635 403.817C122.552 408.444 126.166 408.928 129.776 414.552C132.242 418.393 133.097 422.129 133.548 424.094C134.648 428.889 133.901 430.571 134.541 433.238C135.37 436.693 138.373 441.153 148.241 445.165Z" fill="white"/>
    <path d="M149.034 454.363C134.428 455.201 130.086 456.078 123.202 453.729C116.733 451.523 110.099 447.177 110.681 445.183C111.1 443.752 115.159 443.772 117.585 443.783C124.093 443.813 129.46 445.809 133.226 447.739C129.979 445.533 126.73 443.325 123.482 441.118C121.215 440.305 117.376 438.582 113.976 434.94C111.848 432.659 106.956 426.482 108.796 423.515C110.716 420.415 119.838 421.041 125.097 425.437C127.621 427.547 127.624 429.162 131.006 432.845C134.08 436.191 137.253 438.317 139.482 439.599C137.393 436.985 134.552 432.901 132.344 427.397C128.988 419.035 126.454 405.805 130.722 403.4C133.555 401.805 139.168 405.092 141.976 408.987C144.252 412.147 144.029 414.795 145.596 424.944C146.277 429.357 146.945 432.911 147.378 435.115C151.722 425.575 152.982 417.55 153.236 411.65C153.563 404.07 152.311 398.131 155.205 396.551C157.787 395.143 162.395 397.89 164.733 400.468C174.195 410.901 161.71 435.388 160.391 437.916C163.863 435.285 168.647 431.166 173.281 425.214C178.236 418.849 180.329 414.111 182.848 414.535C185.353 414.958 187.004 420.297 186.815 424.43C186.292 435.95 171.262 442.717 169.659 443.413C170.923 443.617 173.067 443.831 175.594 443.348C181.198 442.277 182.946 438.876 188.63 437.723C190.805 437.281 195.25 436.824 195.798 438.171C196.781 440.591 185.553 449.676 171.929 453.139C166.937 454.407 168.131 453.267 149.034 454.363Z" fill="url(#paint20_linear)"/>
    <path opacity="0.28" d="M139.393 446.029C132.742 443.069 133.647 439.044 126.372 434.061C121.713 430.869 120.63 432.032 115.639 428.981C112.893 427.304 110.648 425.378 108.825 423.476C108.817 423.489 108.806 423.502 108.797 423.515C106.96 426.482 111.85 432.659 113.978 434.94C117.378 438.582 121.216 440.305 123.484 441.118C126.732 443.325 129.981 445.533 133.228 447.739C129.462 445.81 124.094 443.814 117.586 443.783C115.473 443.773 112.115 443.759 111.013 444.702C112.967 445.914 114.726 446.499 116.157 446.791C119.419 447.458 121.467 446.712 124.29 448.416C126.554 449.783 126.366 450.943 128.359 451.684C130.235 452.38 131.195 451.646 135.824 450.884C140.329 450.143 142.618 449.796 144.438 450.941C145.813 451.807 146.543 453.233 146.947 454.488C147.413 454.46 147.89 454.431 148.381 454.403C148.018 452.962 147.353 451.309 146.087 449.834C144.078 447.494 141.881 447.136 139.393 446.029Z" fill="white"/>
    <path opacity="0.28" d="M158.343 451.145C159.393 450.893 159.895 451.646 161.356 451.835C164.068 452.188 165.084 449.947 168.272 448.883C172.045 447.623 173.002 449.967 176.759 448.8C179.735 447.877 179.351 446.343 183.238 444.1C187.373 441.715 189.126 442.694 192.165 440.724C193.141 440.092 194.257 439.149 195.317 437.683C193.981 436.959 190.484 437.345 188.633 437.721C182.949 438.876 181.202 442.277 175.598 443.346C173.071 443.829 170.927 443.616 169.662 443.412C171.266 442.714 186.295 435.948 186.819 424.429C186.993 420.596 185.585 415.726 183.379 414.705C183.642 417.366 183.678 419.641 183.637 421.43C183.543 425.593 183.469 427.711 182.153 429.448C179.871 432.461 177.089 430.89 173.295 434.021C169.843 436.873 171.046 439.085 167.444 441.94C164.334 444.404 162.493 443.507 159.567 445.505C157.732 446.758 155.502 449.132 154.165 454.1C154.775 454.072 155.358 454.048 155.914 454.025C156.444 452.614 157.211 451.416 158.343 451.145Z" fill="white"/>
    <path opacity="0.28" d="M155.063 435.444C156.882 430.481 160.043 430.992 161.361 426.62C162.672 422.275 159.805 420.924 160.535 414.634C161.083 409.921 162.861 409.226 162.979 406.004C163.066 403.628 162.229 400.394 158.363 396.382C157.189 396.073 156.083 396.073 155.209 396.549C152.312 398.13 153.566 404.069 153.24 411.649C152.985 417.548 151.725 425.574 147.381 435.114C146.948 432.909 146.28 429.356 145.599 424.943C144.032 414.793 144.255 412.143 141.979 408.986C139.172 405.091 133.558 401.803 130.726 403.398C130.563 403.489 130.412 403.599 130.271 403.719C131.684 404.683 132.987 405.868 134.081 407.328C137.816 412.309 135.691 415.879 139.076 425.707C142.332 435.158 145.635 435.741 148.256 443.908C149.093 446.517 149.882 449.969 150.045 454.306C151.001 454.253 151.902 454.205 152.755 454.164C153.737 450.948 154.198 448.069 154.396 445.626C154.828 440.251 153.834 438.797 155.063 435.444Z" fill="white"/>
    <path d="M400.772 132.61L406.302 132.58C406.302 132.58 419.548 115.938 428.5 115.02L429.328 68.134C395.045 68.2474 364.788 87.4294 351.009 115.78L400.772 132.61Z" fill="url(#paint21_linear)"/>
    <path d="M466.91 153.387C464.099 168.792 449.967 180.903 432.655 181.439C428.393 181.57 423.423 179.033 423.423 179.033C423.423 179.033 418.864 179.283 418.085 178.981L391.061 220.532C403.623 226.164 417.812 228.922 432.655 228.074C475.82 225.612 509.757 193.343 513.526 154.497L466.91 153.387Z" fill="url(#paint22_linear)"/>
    <path d="M382.602 216.16L388.009 216.346L409.875 174.488C401.718 168.49 396.475 159.157 396.475 148.57C396.475 146.012 396.783 143.518 397.366 141.118L352.83 124.427L347.413 124.489C344.73 132.299 343.281 140.61 343.281 149.219C343.278 177.724 359.03 202.267 382.602 216.16Z" fill="url(#paint23_linear)"/>
    <path d="M437.948 115.222C453.715 117.551 465.837 129.684 467.277 144.678L543.507 146.871C543.507 146.855 543.507 146.84 543.507 146.824C543.507 146.824 543.507 146.799 543.507 146.776C543.507 146.718 554.998 144.941 554.998 144.934C554.995 144.415 450.865 35.7156 450.865 35.7156L439.314 37.5999C439.314 37.5999 438.403 89.3483 437.948 115.222Z" fill="url(#paint24_linear)"/>
    <path d="M406.227 132.61C411.747 123.019 422.02 116.245 433.954 115.018L434.783 68.1326C400.5 68.2459 370.242 87.4279 356.463 115.779L406.227 132.61Z" fill="url(#paint25_linear)"/>
    <path d="M472.364 153.387C469.554 168.792 455.422 180.903 438.109 181.439C432.947 181.598 428.014 180.713 423.539 178.981L396.516 220.532C409.077 226.164 423.267 228.922 438.109 228.075C481.275 225.612 515.212 193.343 518.981 154.498L472.364 153.387Z" fill="url(#paint26_linear)"/>
    <path d="M388.057 216.16L415.329 174.488C407.172 168.49 401.929 159.157 401.929 148.57C401.929 146.012 402.238 143.518 402.82 141.118L352.868 124.489C350.185 132.299 348.736 140.61 348.736 149.219C348.733 177.724 364.484 202.267 388.057 216.16Z" fill="url(#paint27_linear)"/>
    <path d="M449.442 113.245C465.208 115.575 477.33 127.708 478.771 142.702L555 144.895C555 144.864 555 144.831 555 144.8C555 89.2664 510.443 41.7418 450.807 35.6238L449.442 113.245Z" fill="url(#paint28_linear)"/>
    <g opacity="0.3">
        <path opacity="0.3" d="M427.686 180.305C426.266 179.944 424.881 179.502 423.538 178.981L396.514 220.532C409.076 226.164 423.265 228.922 438.108 228.074C450.1 227.391 461.378 224.403 471.498 219.615C461.283 218.079 452.164 214.232 444.882 207.821C436.588 200.517 431.207 190.359 427.686 180.305Z" fill="url(#paint29_linear)"/>
    </g>
    <g opacity="0.3">
        <path opacity="0.3" d="M418.615 86.7411C415.405 80.8646 410.817 76.4092 405.667 73.0068C384.002 80.4309 366.155 95.836 356.461 115.779L406.225 132.608C409.68 126.607 414.995 121.708 421.412 118.581C422.712 106.109 424.182 96.9383 418.615 86.7411Z" fill="url(#paint30_linear)"/>
    </g>
    <path d="M334.067 95.3695C351.742 95.3695 366.071 83.9496 366.071 69.8625C366.071 55.7753 351.742 44.3555 334.067 44.3555C316.392 44.3555 302.063 55.7753 302.063 69.8625C302.063 83.9496 316.392 95.3695 334.067 95.3695Z" fill="url(#paint31_linear)"/>
    <path d="M334.067 53.1743C327.745 53.1743 322.62 58.305 322.62 64.6349C322.62 68.7371 327.426 78.2788 330.812 84.4872C332.218 87.0681 335.917 87.0681 337.325 84.4872C340.708 78.2788 345.516 68.7371 345.516 64.6349C345.515 58.305 340.39 53.1743 334.067 53.1743ZM334.067 70.7874C330.672 70.7874 327.922 68.0323 327.922 64.6332C327.922 61.2342 330.674 58.4807 334.067 58.4807C337.462 58.4807 340.213 61.2358 340.213 64.6332C340.214 68.034 337.462 70.7874 334.067 70.7874Z" fill="white"/>
    <g opacity="0.3">
        <path opacity="0.3" d="M341.839 88.872C337.978 81.3395 341.882 74.2982 336.662 69.4304C331.358 64.4854 324.468 69.0821 317.05 65.0555C314.184 63.4981 310.995 60.5196 308.626 54.3884C304.51 58.6796 302.065 64.0435 302.065 69.8625C302.065 83.95 316.394 95.3695 334.069 95.3695C338.119 95.3695 341.991 94.7699 345.557 93.6757C343.798 92.0723 342.635 90.4245 341.839 88.872Z" fill="url(#paint32_linear)"/>
    </g>
    <path d="M381.102 52.4399C393.18 52.4399 402.971 44.6367 402.971 35.0109C402.971 25.385 393.18 17.5818 381.102 17.5818C369.024 17.5818 359.233 25.385 359.233 35.0109C359.233 44.6367 369.024 52.4399 381.102 52.4399Z" fill="url(#paint33_linear)"/>
    <path d="M374.264 43.3007V26.7227C374.264 25.6581 375.155 24.9582 375.928 25.4166L389.88 33.7065C390.762 34.2305 390.762 35.7945 389.88 36.3186L375.928 44.6085C375.157 45.0652 374.264 44.3653 374.264 43.3007Z" fill="white"/>
    <g opacity="0.3">
        <path opacity="0.3" d="M386.412 48.0009C383.774 42.8539 386.442 38.0419 382.874 34.7151C379.251 31.3358 374.542 34.4769 369.474 31.7251C367.515 30.6622 365.336 28.6267 363.718 24.4358C360.905 27.3683 359.235 31.0335 359.235 35.0092C359.235 44.6347 369.026 52.4383 381.104 52.4383C383.87 52.4383 386.517 52.0292 388.954 51.2817C387.751 50.1876 386.955 49.0622 386.412 48.0009Z" fill="url(#paint34_linear)"/>
    </g>
    <path d="M515.277 252.418C515.351 252.413 515.425 252.407 515.499 252.402C515.633 252.392 515.768 252.381 515.901 252.369C515.974 252.362 516.048 252.354 516.122 252.348C516.255 252.335 516.39 252.321 516.523 252.308C516.593 252.3 516.664 252.292 516.734 252.285C516.872 252.27 517.008 252.254 517.146 252.236C517.21 252.228 517.274 252.22 517.338 252.211C517.483 252.192 517.627 252.172 517.77 252.152C517.824 252.144 517.88 252.136 517.934 252.128C518.09 252.105 518.246 252.08 518.4 252.054C518.441 252.047 518.482 252.04 518.523 252.034C518.697 252.004 518.871 251.973 519.043 251.942C519.064 251.939 519.086 251.934 519.107 251.93C520.487 251.671 521.823 251.327 523.104 250.905C523.103 250.904 523.103 250.904 523.101 250.902C532.417 247.835 538.909 240.711 538.909 232.619C538.909 222.091 527.926 213.476 514.025 213.373C500.512 213.272 489.143 221.211 487.927 231.437C487.921 231.493 487.914 231.549 487.907 231.605C487.898 231.689 487.891 231.773 487.883 231.858C487.876 231.937 487.87 232.017 487.863 232.096C487.858 232.168 487.853 232.239 487.848 232.311C487.842 232.41 487.837 232.51 487.834 232.609C487.832 232.665 487.829 232.722 487.827 232.778C487.822 232.936 487.819 233.095 487.819 233.254C487.819 238.625 490.612 243.412 495.118 246.87C495.408 247.094 495.707 247.311 496.011 247.523C496.316 247.735 496.626 247.94 496.944 248.14C497.103 248.241 497.264 248.339 497.427 248.436C497.752 248.63 498.081 248.819 498.419 249C498.756 249.182 499.1 249.356 499.448 249.525C499.744 249.668 500.044 249.806 500.348 249.939C502.049 250.688 503.874 251.29 505.796 251.72C506.165 251.802 506.537 251.879 506.911 251.95C509.179 252.372 511.567 252.561 514.027 252.482C514.237 252.476 514.445 252.466 514.654 252.456C514.719 252.453 514.783 252.448 514.849 252.445C514.99 252.436 515.133 252.428 515.277 252.418Z" fill="url(#paint35_linear)"/>
    <path d="M540.216 232.617C540.216 243.145 529.429 252.034 515.776 252.483C501.726 252.944 490.034 244.341 490.034 233.253C490.034 222.165 501.726 213.264 515.776 213.371C529.427 213.475 540.216 222.09 540.216 232.617Z" fill="url(#paint36_linear)"/>
    <path d="M507.464 246.437L508.569 239.028L505.123 239.093V235.287L509.247 235.224L509.924 230.603L506.317 230.639V226.797L510.517 226.77L511.572 219.612L515.308 219.616L514.261 226.747L518.06 226.723L519.14 219.619L522.817 219.622L521.746 226.698L525.036 226.677V230.447L521.168 230.486L520.507 235.054L523.928 235.003V238.735L519.887 238.811L518.849 246.133L515.1 246.232L516.145 238.881L512.332 238.954L511.278 246.333L507.464 246.437ZM516.808 235.111L517.474 230.526L513.672 230.565L513.001 235.169L516.808 235.111Z" fill="white"/>
    <g opacity="0.3">
        <path opacity="0.3" d="M521.824 247.332C518.828 241.659 521.857 236.228 517.801 232.569C513.646 228.82 508.191 232.42 502.254 229.361C499.939 228.168 497.353 225.862 495.42 221.071C492.046 224.444 490.032 228.673 490.032 233.253C490.032 244.34 501.724 252.944 515.774 252.482C518.936 252.379 521.943 251.822 524.693 250.902C523.339 249.726 522.44 248.499 521.824 247.332Z" fill="url(#paint37_linear)"/>
    </g>
    <defs>
        <linearGradient id="paint0_linear" x1="148.5" y1="-8.93751e-07" x2="372.834" y2="538.402" gradientUnits="userSpaceOnUse">
            <stop stop-color="#AD86FF"/>
            <stop offset="1" stop-color="#E05529"/>
        </linearGradient>
        <radialGradient id="paint1_radial" cx="0" cy="0" r="1" gradientUnits="userSpaceOnUse" gradientTransform="translate(322.735 240) rotate(90) scale(230 229.735)">
            <stop stop-color="#DE5125"/>
            <stop offset="1" stop-color="#844AFF"/>
        </radialGradient>
        <linearGradient id="paint2_linear" x1="208.173" y1="77.8626" x2="374.987" y2="341.326" gradientUnits="userSpaceOnUse">
            <stop offset="0.00359712" stop-color="#E38DDD"/>
            <stop offset="1" stop-color="#9571F6"/>
        </linearGradient>
        <linearGradient id="paint3_linear" x1="169.453" y1="124.237" x2="359.566" y2="287.991" gradientUnits="userSpaceOnUse">
            <stop stop-color="#FF9085"/>
            <stop offset="1" stop-color="#FB6FBB"/>
        </linearGradient>
        <linearGradient id="paint4_linear" x1="297.494" y1="404.373" x2="269.006" y2="416.324" gradientUnits="userSpaceOnUse">
            <stop stop-color="#40447E"/>
            <stop offset="0.9964" stop-color="#3C3B6B"/>
        </linearGradient>
        <linearGradient id="paint5_linear" x1="259.467" y1="278.715" x2="228.55" y2="291.685" gradientUnits="userSpaceOnUse">
            <stop stop-color="#40447E"/>
            <stop offset="0.9964" stop-color="#3C3B6B"/>
        </linearGradient>
        <linearGradient id="paint6_linear" x1="126.257" y1="285.75" x2="412.672" y2="285.75" gradientUnits="userSpaceOnUse">
            <stop stop-color="#40447E"/>
            <stop offset="0.9964" stop-color="#3C3B6B"/>
        </linearGradient>
        <linearGradient id="paint7_linear" x1="365.801" y1="142.971" x2="132.677" y2="468.372" gradientUnits="userSpaceOnUse">
            <stop stop-color="#FFC444"/>
            <stop offset="0.9964" stop-color="#F36F56"/>
        </linearGradient>
        <linearGradient id="paint8_linear" x1="126.257" y1="391.787" x2="531.651" y2="391.787" gradientUnits="userSpaceOnUse">
            <stop stop-color="#40447E"/>
            <stop offset="0.9964" stop-color="#3C3B6B"/>
        </linearGradient>
        <linearGradient id="paint9_linear" x1="262.888" y1="280.855" x2="309.593" y2="280.855" gradientUnits="userSpaceOnUse">
            <stop stop-color="#FF9085"/>
            <stop offset="1" stop-color="#FB6FBB"/>
        </linearGradient>
        <linearGradient id="paint10_linear" x1="166.012" y1="388.462" x2="463.042" y2="388.462" gradientUnits="userSpaceOnUse">
            <stop stop-color="#40447E"/>
            <stop offset="0.9964" stop-color="#3C3B6B"/>
        </linearGradient>
        <linearGradient id="paint11_linear" x1="502.335" y1="418.128" x2="423.681" y2="351.11" gradientUnits="userSpaceOnUse">
            <stop stop-color="#444B8C"/>
            <stop offset="0.9964" stop-color="#26264F"/>
        </linearGradient>
        <linearGradient id="paint12_linear" x1="437.419" y1="438.809" x2="447.824" y2="159.402" gradientUnits="userSpaceOnUse">
            <stop stop-color="#444B8C"/>
            <stop offset="0.9964" stop-color="#26264F"/>
        </linearGradient>
        <linearGradient id="paint13_linear" x1="465.598" y1="327.999" x2="365.61" y2="462.284" gradientUnits="userSpaceOnUse">
            <stop stop-color="#FFC444"/>
            <stop offset="0.9964" stop-color="#F36F56"/>
        </linearGradient>
        <linearGradient id="paint14_linear" x1="424.672" y1="352.278" x2="461.239" y2="352.278" gradientUnits="userSpaceOnUse">
            <stop stop-color="#FF9085"/>
            <stop offset="1" stop-color="#FB6FBB"/>
        </linearGradient>
        <linearGradient id="paint15_linear" x1="556.719" y1="434.695" x2="507.732" y2="392.955" gradientUnits="userSpaceOnUse">
            <stop stop-color="#444B8C"/>
            <stop offset="0.9964" stop-color="#26264F"/>
        </linearGradient>
        <linearGradient id="paint16_linear" x1="515.934" y1="451.982" x2="523.016" y2="261.818" gradientUnits="userSpaceOnUse">
            <stop stop-color="#444B8C"/>
            <stop offset="0.9964" stop-color="#26264F"/>
        </linearGradient>
        <linearGradient id="paint17_linear" x1="533.99" y1="378.25" x2="470.395" y2="463.659" gradientUnits="userSpaceOnUse">
            <stop stop-color="#FFC444"/>
            <stop offset="0.9964" stop-color="#F36F56"/>
        </linearGradient>
        <linearGradient id="paint18_linear" x1="508.691" y1="394.005" x2="530.31" y2="394.005" gradientUnits="userSpaceOnUse">
            <stop stop-color="#FF9085"/>
            <stop offset="1" stop-color="#FB6FBB"/>
        </linearGradient>
        <linearGradient id="paint19_linear" x1="158.294" y1="382.102" x2="103.618" y2="447.041" gradientUnits="userSpaceOnUse">
            <stop offset="0.00359712" stop-color="#E38DDD"/>
            <stop offset="1" stop-color="#9571F6"/>
        </linearGradient>
        <linearGradient id="paint20_linear" x1="153.55" y1="456.888" x2="151.298" y2="417.356" gradientUnits="userSpaceOnUse">
            <stop stop-color="#AA80F9"/>
            <stop offset="0.9964" stop-color="#6165D7"/>
        </linearGradient>
        <linearGradient id="paint21_linear" x1="386.729" y1="60.8219" x2="403.639" y2="213.518" gradientUnits="userSpaceOnUse">
            <stop stop-color="#311944"/>
            <stop offset="1" stop-color="#893976"/>
        </linearGradient>
        <linearGradient id="paint22_linear" x1="449.256" y1="181.373" x2="515.218" y2="314.45" gradientUnits="userSpaceOnUse">
            <stop stop-color="#311944"/>
            <stop offset="1" stop-color="#893976"/>
        </linearGradient>
        <linearGradient id="paint23_linear" x1="344.858" y1="125.346" x2="441.713" y2="249.73" gradientUnits="userSpaceOnUse">
            <stop stop-color="#311944"/>
            <stop offset="1" stop-color="#893976"/>
        </linearGradient>
        <linearGradient id="paint24_linear" x1="534.458" y1="39.1898" x2="470.141" y2="128.776" gradientUnits="userSpaceOnUse">
            <stop stop-color="#311944"/>
            <stop offset="1" stop-color="#893976"/>
        </linearGradient>
        <linearGradient id="paint25_linear" x1="392.195" y1="60.9281" x2="408.948" y2="212.2" gradientUnits="userSpaceOnUse">
            <stop stop-color="#FFC444"/>
            <stop offset="0.9964" stop-color="#F36F56"/>
        </linearGradient>
        <linearGradient id="paint26_linear" x1="454.711" y1="181.373" x2="520.673" y2="314.45" gradientUnits="userSpaceOnUse">
            <stop offset="0.00359712" stop-color="#E38DDD"/>
            <stop offset="1" stop-color="#9571F6"/>
        </linearGradient>
        <linearGradient id="paint27_linear" x1="350.332" y1="125.371" x2="443.739" y2="245.327" gradientUnits="userSpaceOnUse">
            <stop stop-color="#AA80F9"/>
            <stop offset="0.9964" stop-color="#6165D7"/>
        </linearGradient>
        <linearGradient id="paint28_linear" x1="549.891" y1="24.658" x2="479.138" y2="123.21" gradientUnits="userSpaceOnUse">
            <stop stop-color="#FF9085"/>
            <stop offset="1" stop-color="#FB6FBB"/>
        </linearGradient>
        <linearGradient id="paint29_linear" x1="423.076" y1="197.969" x2="487.823" y2="328.595" gradientUnits="userSpaceOnUse">
            <stop offset="0.00359712" stop-color="#E38DDD"/>
            <stop offset="1" stop-color="#9571F6"/>
        </linearGradient>
        <linearGradient id="paint30_linear" x1="384.41" y1="61.9211" x2="401.133" y2="212.922" gradientUnits="userSpaceOnUse">
            <stop stop-color="#FFC444"/>
            <stop offset="0.9964" stop-color="#F36F56"/>
        </linearGradient>
        <linearGradient id="paint31_linear" x1="302.063" y1="69.8618" x2="366.072" y2="69.8618" gradientUnits="userSpaceOnUse">
            <stop stop-color="#FFC444"/>
            <stop offset="0.9964" stop-color="#F36F56"/>
        </linearGradient>
        <linearGradient id="paint32_linear" x1="310.356" y1="53.3635" x2="351.982" y2="136.801" gradientUnits="userSpaceOnUse">
            <stop stop-color="#FFC444"/>
            <stop offset="0.9964" stop-color="#F36F56"/>
        </linearGradient>
        <linearGradient id="paint33_linear" x1="373.271" y1="20.4708" x2="402.276" y2="74.2034" gradientUnits="userSpaceOnUse">
            <stop offset="0.00359712" stop-color="#E38DDD"/>
            <stop offset="1" stop-color="#9571F6"/>
        </linearGradient>
        <linearGradient id="paint34_linear" x1="364.899" y1="23.7377" x2="393.343" y2="80.7524" gradientUnits="userSpaceOnUse">
            <stop offset="0.00359712" stop-color="#E38DDD"/>
            <stop offset="1" stop-color="#9571F6"/>
        </linearGradient>
        <linearGradient id="paint35_linear" x1="532.386" y1="231.914" x2="494.586" y2="233.936" gradientUnits="userSpaceOnUse">
            <stop stop-color="#AA80F9"/>
            <stop offset="0.9964" stop-color="#6165D7"/>
        </linearGradient>
        <linearGradient id="paint36_linear" x1="506.327" y1="216.621" x2="538.864" y2="276.898" gradientUnits="userSpaceOnUse">
            <stop stop-color="#AA80F9"/>
            <stop offset="0.9964" stop-color="#6165D7"/>
        </linearGradient>
        <linearGradient id="paint37_linear" x1="496.931" y1="220.194" x2="528.98" y2="284.435" gradientUnits="userSpaceOnUse">
            <stop stop-color="#AA80F9"/>
            <stop offset="0.9964" stop-color="#6165D7"/>
        </linearGradient>
    </defs>
</svg>
