<svg width="536" height="536" viewBox="0 0 536 536" fill="none" xmlns="http://www.w3.org/2000/svg">
    <path opacity="0.2" d="M227.365 0.0476059C154.688 1.30787 42.2414 28.4506 9.87436 98.2027C-1.43077 122.564 -0.66429 158.379 0.866753 230.008C1.31627 251.061 2.06162 281.747 7.30213 319.822C18.1846 398.914 25.592 452.758 53.6311 484.111C123.886 562.67 377.665 560.4 486.036 418.969C545.154 341.816 554.248 232.065 500.192 141.36C440.678 41.4968 324.662 -1.64059 227.365 0.0476059Z" fill="url(#paint0_radial)"/>
    <path d="M161.819 318.219C159.771 326.88 157.111 333.772 154.714 342.14C191.846 336.338 228.709 337.533 266.366 331.717C238.064 291.662 213.314 275.257 222.796 219.229C227.247 192.937 243.74 142.414 231 118.426C216.483 91.0958 196.766 100.29 199.746 74.2703C204.402 33.6026 181.075 -6.67943 128.329 15.1213C76.271 36.6362 92.2201 181.681 126.575 218.379C149.538 255.451 172.52 272.991 161.819 318.219Z" fill="url(#paint1_linear)"/>
    <path d="M218.376 362.256C214.287 349.034 209.107 335.975 204.099 323.346L202.204 318.564C198.192 308.41 194.783 299.256 191.775 291.18C190.085 286.636 188.486 282.344 186.903 278.196C182.087 265.576 178.686 256.735 176.982 252.304C176.397 250.783 176.011 249.781 175.838 249.326C162.581 214.561 157.39 162.44 154.601 134.442C154.299 131.408 154.028 128.697 153.784 126.37C149.566 86.3773 140.375 45.2702 126.467 4.18804L127.025 4C140.947 45.1244 150.146 86.2737 154.368 126.306C154.615 128.636 154.884 131.347 155.186 134.382C157.973 162.356 163.16 214.424 176.388 249.117C176.561 249.572 176.946 250.574 177.53 252.093C179.234 256.524 182.637 265.365 187.453 277.987C189.038 282.137 190.635 286.431 192.327 290.975C195.334 299.049 198.74 308.199 202.75 318.347L204.645 323.129C209.657 335.769 214.841 348.838 218.938 362.083L218.376 362.256Z" fill="#FCFDFE"/>
    <path d="M187.099 268.227C179.437 244.845 179.882 214.297 188.385 179.884C195.469 151.217 208.037 120.829 222.865 96.5151L223.367 96.8202C208.568 121.085 196.025 151.412 188.955 180.025C180.478 214.33 180.03 244.767 187.656 268.045L187.099 268.227Z" fill="#FCFDFE"/>
    <path d="M149.342 109.11L148.761 109.022C152.009 87.9927 157.943 67.2454 163.683 47.183C167.61 33.4487 171.673 19.2461 174.842 5.06665L175.416 5.19521C172.242 19.392 168.178 33.6022 164.246 47.3442C158.514 67.3893 152.585 88.1174 149.342 109.11Z" fill="#FCFDFE"/>
    <path d="M158.212 177.36C144.198 151.251 113.562 122.631 92.6504 116.113L92.8254 115.555C113.86 122.111 144.656 150.864 158.732 177.086L158.212 177.36Z" fill="#FCFDFE"/>
    <path d="M130.789 198.239C141.15 248.289 170.092 237.404 207.649 225.121C201.359 272.303 196.976 318.477 192.691 365.35C167.432 373.2 149.192 378.353 134.889 349.664C118.713 317.218 110.456 297.958 71.2335 290.105C32.0109 282.251 2.19771 253.626 15.1578 215.88C28.7949 176.158 -5.77491 124.655 27.4274 95.6402C85.2842 45.0813 120 146.122 130.789 198.239Z" fill="url(#paint2_linear)"/>
    <path d="M189.122 305.175C150.217 286.492 118.319 269.847 91.4293 240.216C65.7015 211.864 53.0684 181.268 49.185 137.914C47.1711 115.421 43.1781 99.5315 37.3174 77.8593L37.8848 77.7058C43.7532 99.4087 47.7501 115.321 49.7697 137.862C53.6396 181.08 66.2285 211.573 91.864 239.822C118.68 269.375 150.529 285.993 189.376 304.647L189.122 305.175Z" fill="#FCFDFE"/>
    <path d="M139.998 367.545L139.542 367.177C148.492 356.173 158.142 347.222 169.042 339.809C174.614 336.02 180.331 333.445 187.199 330.743L187.415 331.288C180.583 333.974 174.899 336.534 169.373 340.293C158.519 347.672 148.911 356.587 139.998 367.545Z" fill="#FCFDFE"/>
    <path d="M108.825 257.279C79.4309 243.097 42.9587 239.759 6.12695 247.879L6 247.307C42.9587 239.158 79.5655 242.51 109.079 256.751L108.825 257.279Z" fill="#FCFDFE"/>
    <path d="M58.133 184.158C57.6694 180.354 62.628 148.504 67.4231 119.965C72.2375 91.3105 77.7962 60.532 78.7637 58.6248L79.2888 58.8895C78.4579 60.5262 73.3954 87.9681 68.0021 120.063C63.2127 148.562 58.258 180.346 58.7138 184.089L58.133 184.158Z" fill="#FCFDFE"/>
    <path d="M362.553 388.117C355.964 385.938 351.038 380.358 349.649 373.5L340.057 326.144L258.007 329.051L247.909 378.386C246.495 385.295 252.156 392.227 258.677 394.772L293.004 408.17C299.39 410.663 306.253 411.655 313.073 411.073L385.621 404.882C387.743 404.701 389.443 403.038 389.689 400.904C389.935 398.77 391.422 396.376 389.399 395.706L362.553 388.117Z" fill="#97A6B7"/>
    <path d="M363.366 385.237C356.782 383.085 351.861 377.576 350.475 370.803L340.892 324.041L260.841 326.913L250.752 375.628C249.339 382.451 253.078 389.292 259.591 391.805L293.883 405.035C300.262 407.495 307.119 408.475 313.933 407.902L386.408 401.788C388.526 401.61 390.226 399.968 390.472 397.861C390.719 395.754 389.445 393.766 387.424 393.104L363.366 385.237Z" fill="url(#paint3_linear)"/>
    <path d="M494.391 293.217V80.8723C494.391 76.5186 490.794 72.8116 486.386 72.6351L120.682 57.9702C115.117 57.7476 110.549 61.5832 110.549 66.4951V301.169L494.391 293.217Z" fill="url(#paint4_linear)"/>
    <path d="M121.861 99.1538V282.467C121.861 287.043 126.1 290.665 131.269 290.519L478.344 280.673C482.487 280.555 485.867 277.121 485.867 273.04V109.546L121.861 99.1538Z" fill="white"/>
    <path d="M485.869 109.546V90.7823C485.869 86.7855 482.556 83.3912 478.5 83.2396L131.076 70.3109C126.014 70.1229 121.861 73.6342 121.861 78.1165V99.1539L485.869 109.546Z" fill="url(#paint5_linear)"/>
    <path d="M147.258 84.8825C147.258 86.4582 145.819 87.6903 144.042 87.6346C142.261 87.579 140.816 86.2528 140.816 84.6714C140.816 83.0919 142.261 81.8597 144.042 81.9211C145.817 81.9806 147.258 83.3068 147.258 84.8825Z" fill="#9D3060"/>
    <path d="M161.122 85.3382C161.122 86.9042 159.701 88.1287 157.943 88.075C156.182 88.0193 154.755 86.7008 154.755 85.1309C154.755 83.561 156.184 82.3346 157.943 82.396C159.701 82.4536 161.122 83.7721 161.122 85.3382Z" fill="#9D3060"/>
    <path d="M174.827 85.7871C174.827 87.3436 173.421 88.5623 171.684 88.5085C169.945 88.4529 168.533 87.144 168.533 85.5817C168.533 84.0195 169.945 82.8027 171.684 82.8622C173.423 82.9198 174.827 84.2287 174.827 85.7871Z" fill="#9D3060"/>
    <path d="M110.549 301.168V348.036C110.549 352.948 115.115 356.776 120.682 356.54L486.386 341.117C490.794 340.931 494.391 337.216 494.391 332.862V291.854L110.549 301.168Z" fill="url(#paint6_linear)"/>
    <path d="M350.166 201.892L148.51 202.982V118.985L350.166 122.644V201.892Z" fill="url(#paint7_linear)"/>
    <path d="M464.037 201.277L361.997 201.829V122.86L464.037 124.711V201.277Z" fill="url(#paint8_linear)"/>
    <path d="M464.037 258.11L148.51 265.33V213.951L464.037 211.275V258.11Z" fill="url(#paint9_linear)"/>
    <g opacity="0.48">
        <path opacity="0.48" d="M454.782 265.803C424.745 255.683 399.896 276.325 378.306 260.071C353.965 241.747 373.64 206.546 351.124 185.807C319.847 156.997 257.316 201.676 230.159 174.515C211.487 155.842 233.514 125.946 217.703 94.4994C209.663 78.5105 194.601 67.6082 176.315 60.1999L120.682 57.9684C115.117 57.7459 110.551 61.5814 110.551 66.4934V301.167V348.034C110.551 352.946 115.117 356.774 120.682 356.538L486.385 341.115C490.794 340.929 494.391 337.214 494.391 332.861V302.56C481.513 279.848 467.295 270.02 454.782 265.803Z" fill="white"/>
    </g>
    <path d="M214.858 263.226V508.88C214.858 512.555 210.828 513.631 206.258 514.075L48.1617 531.712L45.7459 531.946C40.7853 532.425 36.7173 529.68 36.7173 525.84V269.141C36.7173 265.302 40.7853 262.034 45.7459 261.877L49.0253 261.773L207.682 262.291C212.25 262.146 214.858 259.552 214.858 263.226Z" fill="url(#paint10_linear)"/>
    <path d="M219.734 262.945V508.532C219.734 512.204 216.005 515.57 211.435 516.013L50.7108 531.586C45.7522 532.065 41.688 529.32 41.688 525.482V268.856C41.688 265.019 45.7541 261.751 50.7108 261.594L211.435 256.53C216.005 256.384 219.734 259.272 219.734 262.945Z" fill="url(#paint11_linear)"/>
    <path d="M54.2011 276.115L207.406 270.78C211.307 270.644 214.542 273.758 214.548 277.651L214.835 503.14C214.84 507.373 211.619 510.919 207.395 511.327L54.6416 526.113C50.7409 526.491 47.3614 523.433 47.3614 519.522L47.3018 283.241C47.3018 279.399 50.3523 276.247 54.2011 276.115Z" fill="white"/>
    <path d="M59.3984 332.331L146.584 328.146L146.645 409.612L59.4254 415.601L59.3984 332.331Z" fill="url(#paint12_linear)"/>
    <path d="M59.4294 426.083L203.568 415.812L203.618 464.761L59.4448 476.85L59.4294 426.083Z" fill="url(#paint13_linear)"/>
    <path d="M54.8207 275.962L207.339 270.781C211.3 270.647 214.583 273.811 214.589 277.762L214.625 311.311L47.3097 318.756L47.3 283.725C47.302 279.538 50.6276 276.104 54.8207 275.962Z" fill="url(#paint14_linear)"/>
    <path d="M59.4485 488.065L203.629 475.574L203.652 497.651L59.4543 510.962L59.4485 488.065Z" fill="url(#paint15_linear)"/>
    <path d="M154.616 327.759L203.471 325.414L203.556 405.704L154.681 409.06L154.616 327.759Z" fill="url(#paint16_linear)"/>
    <path d="M135.654 266.49C135.654 267.791 134.319 268.89 132.67 268.946C131.02 269.002 129.681 267.992 129.681 266.689C129.681 265.386 131.02 264.286 132.67 264.233C134.319 264.179 135.654 265.19 135.654 266.49Z" fill="#DE8BDF"/>
    <g opacity="0.48">
        <path opacity="0.48" d="M167.779 404.267C153.157 374.994 118.983 381.982 106.144 350.058C98.485 331.015 108.019 321.983 102.278 298.749C98.3927 283.027 89.9104 270.498 80.299 260.66L50.7128 261.593C45.7561 261.748 41.6899 265.018 41.6899 268.855V525.483C41.6899 529.321 45.7561 532.066 50.7128 531.587L180.054 519.053C170.477 505.778 166.376 493.291 164.899 482.457C160.316 448.856 180.768 430.268 167.779 404.267Z" fill="white"/>
    </g>
    <path d="M283.438 347.669V517.201C283.438 519.736 281.266 520.438 278.802 520.695L193.96 531.173L192.669 531.308C190.018 531.586 187.845 529.656 187.845 527.017V350.664C187.845 348.028 190.018 345.806 192.669 345.727L194.421 345.675L279.568 346.978C282.032 346.909 283.438 345.134 283.438 347.669Z" fill="url(#paint17_linear)"/>
    <path d="M286.065 347.505V517.013C286.065 519.547 284.053 521.832 281.591 522.089L195.323 531.117C192.673 531.395 190.501 529.465 190.501 526.827V350.5C190.501 347.864 192.673 345.642 195.323 345.563L281.591 343.027C284.055 342.954 286.065 344.97 286.065 347.505Z" fill="url(#paint18_linear)"/>
    <path d="M198.192 355.558L273.65 352.807C278.922 352.615 283.3 356.824 283.3 362.088L283.292 513.969C283.292 516.456 281.409 518.542 278.93 518.803L198.094 527.289C195.64 527.546 193.503 525.628 193.503 523.166L193.499 360.414C193.497 357.801 195.572 355.654 198.192 355.558Z" fill="white"/>
    <path d="M202.885 396.002L247.35 393.659L247.348 450.126L202.886 453.49L202.885 396.002Z" fill="url(#paint19_linear)"/>
    <path d="M202.887 460.721L274.5 455.093L274.498 489.109L202.887 495.739V460.721Z" fill="url(#paint20_linear)"/>
    <path d="M202.887 501.912L274.498 495.106V510.439L202.887 517.698V501.912Z" fill="url(#paint21_linear)"/>
    <path d="M252.132 393.406L274.503 392.226L274.499 448.069L252.13 449.762L252.132 393.406Z" fill="url(#paint22_linear)"/>
    <path d="M197.828 355.571L278.428 352.632C281.088 352.534 283.298 354.66 283.298 357.315L283.296 380.816L193.497 385.143V360.052C193.497 357.64 195.41 355.659 197.828 355.571Z" fill="url(#paint23_linear)"/>
    <path d="M240.828 349.443C240.828 350.339 240.111 351.087 239.226 351.116C238.341 351.145 237.622 350.441 237.622 349.544C237.622 348.648 238.339 347.898 239.226 347.871C240.111 347.844 240.828 348.546 240.828 349.443Z" fill="#DE8BDF"/>
    <g opacity="0.48">
        <path opacity="0.48" d="M258.019 449.029C250.147 429.285 228.928 433.95 222.317 413.997C216.921 397.711 228.924 388.167 224.225 369.307C221.588 358.725 215.102 350.864 208.47 345.179L195.323 345.567C192.673 345.645 190.501 347.865 190.501 350.504V526.83C190.501 529.467 192.673 531.397 195.323 531.121L261.462 524.2C256.154 515.853 254.023 508.224 253.269 501.89C250.526 478.837 265.232 467.115 258.019 449.029Z" fill="white"/>
    </g>
    <path d="M445.408 522.083C439.319 492.035 441.94 467.885 444.707 453.304C448.063 435.614 454.884 399.65 483.513 379.604C485.77 378.024 508.168 362.642 518.226 370.281C523.413 374.221 524.598 383.737 522.329 391.246C516.474 410.637 490.067 408.487 481.293 430.556C478.372 437.904 477.831 446.872 479.869 447.718C482.378 448.758 489.533 437.792 490.213 436.749C496.591 426.971 496.651 421.437 501.514 419.935C504.499 419.013 508.435 419.878 510.196 422.234C514.205 427.596 506.285 439.818 504.071 443.233C498.279 452.167 493.444 454.199 492.266 461.805C491.759 465.08 491.85 469.923 493.797 470.678C496.427 471.7 501.45 464.856 504.672 460.464C513.334 448.661 514.257 441.798 518.566 441.307C522.584 440.849 527.112 446.211 528.276 449.48C531.449 458.399 518.691 477.384 445.408 522.083Z" fill="url(#paint24_linear)"/>
    <path opacity="0.28" d="M446.326 516.931C445.415 489.009 449.943 466.873 454.043 452.35C459.313 433.678 469.225 398.562 497.038 383.365C499.015 382.285 513.553 374.34 517.617 378.595C520.326 381.43 517.923 389.218 513.942 394.374C507.145 403.172 499.319 399.681 488.219 408.318C478.26 416.067 474.762 426.502 473.887 429.235C470.64 439.367 472.326 448.052 472.785 451.252C474.522 463.401 470.959 483.314 446.326 516.931Z" fill="white"/>
    <path opacity="0.28" d="M456.246 509.959C471.841 496.012 475.445 484.585 475.722 476.566C475.937 470.319 474.246 462.904 479.029 456.017C482.09 451.61 484.395 452.32 489.686 447.577C500.734 437.669 502.107 424.31 504.385 424.826C505.651 425.114 506.31 429.493 505.487 433.632C503.79 442.172 497.102 443.067 490.421 453.448C485.856 460.538 484.274 467.435 483.439 471.062C481.404 479.914 482.786 483.02 481.601 487.942C480.068 494.32 474.51 502.553 456.246 509.959Z" fill="white"/>
    <path d="M454.779 526.938C481.812 528.485 489.847 530.104 502.588 525.768C514.559 521.695 526.838 513.673 525.76 509.992C524.985 507.35 517.472 507.387 512.983 507.408C500.939 507.462 491.005 511.147 484.035 514.711C490.045 510.638 496.058 506.562 502.068 502.489C506.265 500.988 513.369 497.806 519.662 491.083C523.6 486.873 532.654 475.471 529.249 469.993C525.696 464.271 508.813 465.426 499.08 473.542C494.409 477.436 494.403 480.417 488.144 487.216C482.455 493.394 476.582 497.318 472.458 499.684C476.324 494.859 481.581 487.319 485.669 477.16C491.879 461.723 496.568 437.301 488.669 432.861C483.427 429.916 473.038 435.985 467.841 443.175C463.629 449.007 464.042 453.896 461.142 472.632C459.882 480.778 458.645 487.337 457.844 491.407C449.805 473.796 447.472 458.982 447.002 448.091C446.397 434.099 448.715 423.135 443.357 420.218C438.58 417.619 430.052 422.69 425.725 427.448C408.213 446.708 431.319 491.911 433.76 496.578C427.334 491.72 418.481 484.117 409.905 473.129C400.733 461.381 396.861 452.634 392.199 453.417C387.562 454.196 384.507 464.052 384.856 471.683C385.825 492.948 413.64 505.44 416.608 506.725C414.269 507.101 410.3 507.496 405.623 506.604C395.251 504.627 392.017 498.349 381.497 496.22C377.473 495.404 369.246 494.561 368.231 497.048C366.412 501.515 387.191 518.286 412.407 524.679C421.646 527.02 419.435 524.916 454.779 526.938Z" fill="url(#paint25_linear)"/>
    <path opacity="0.28" d="M472.622 511.554C484.931 506.089 483.257 498.659 496.72 489.46C505.342 483.568 507.347 485.715 516.585 480.083C521.666 476.987 525.821 473.432 529.195 469.92C529.21 469.945 529.231 469.969 529.246 469.993C532.648 475.47 523.598 486.873 519.659 491.083C513.366 497.806 506.262 500.988 502.065 502.489C496.055 506.562 490.042 510.638 484.032 514.711C491.002 511.15 500.936 507.466 512.98 507.408C516.892 507.39 523.106 507.363 525.146 509.103C521.529 511.342 518.274 512.421 515.626 512.961C509.588 514.192 505.798 512.815 500.574 515.96C496.383 518.484 496.732 520.625 493.042 521.992C489.571 523.278 487.795 521.923 479.227 520.516C470.891 519.148 466.654 518.508 463.286 520.622C460.741 522.22 459.39 524.852 458.643 527.169C457.78 527.118 456.896 527.063 455.988 527.012C456.659 524.352 457.889 521.301 460.234 518.578C463.951 514.259 468.018 513.598 472.622 511.554Z" fill="white"/>
    <path opacity="0.28" d="M437.551 520.997C435.607 520.533 434.678 521.922 431.975 522.271C426.955 522.923 425.075 518.786 419.174 516.821C412.192 514.495 410.421 518.823 403.467 516.67C397.961 514.965 398.671 512.133 391.477 507.993C383.824 503.59 380.58 505.397 374.956 501.761C373.149 500.593 371.083 498.852 369.121 496.147C371.594 494.81 378.065 495.523 381.491 496.217C392.011 498.349 395.246 504.627 405.617 506.601C410.294 507.493 414.26 507.098 416.602 506.722C413.635 505.433 385.819 492.945 384.85 471.68C384.528 464.604 387.134 455.615 391.216 453.729C390.73 458.642 390.663 462.842 390.739 466.145C390.912 473.83 391.048 477.739 393.484 480.944C397.709 486.506 402.856 483.607 409.878 489.387C416.268 494.652 414.041 498.734 420.708 504.005C426.463 508.554 429.87 506.898 435.285 510.586C438.681 512.9 442.808 517.282 445.283 526.453C444.153 526.401 443.075 526.356 442.046 526.314C441.065 523.708 439.646 521.498 437.551 520.997Z" fill="white"/>
    <path opacity="0.28" d="M443.621 492.014C440.253 482.853 434.404 483.796 431.965 475.726C429.539 467.704 434.845 465.211 433.493 453.599C432.479 444.898 429.19 443.616 428.971 437.668C428.81 433.283 430.359 427.312 437.514 419.906C439.685 419.336 441.732 419.336 443.351 420.215C448.711 423.133 446.391 434.096 446.995 448.089C447.466 458.979 449.799 473.794 457.838 491.405C458.639 487.335 459.875 480.775 461.136 472.629C464.036 453.893 463.623 449.002 467.835 443.173C473.032 435.982 483.421 429.914 488.663 432.859C488.964 433.025 489.243 433.229 489.504 433.45C486.889 435.23 484.478 437.417 482.452 440.113C475.54 449.308 479.473 455.898 473.208 474.039C467.182 491.487 461.069 492.563 456.219 507.639C454.67 512.455 453.209 518.826 452.908 526.833C451.138 526.736 449.471 526.648 447.891 526.572C446.075 520.634 445.222 515.321 444.854 510.811C444.056 500.888 445.896 498.204 443.621 492.014Z" fill="white"/>
    <defs>
        <radialGradient id="paint0_radial" cx="0" cy="0" r="1" gradientUnits="userSpaceOnUse" gradientTransform="translate(268 268) rotate(90) scale(268)">
            <stop stop-color="#DE5125"/>
            <stop offset="1" stop-color="#844AFF"/>
        </radialGradient>
        <linearGradient id="paint1_linear" x1="274.777" y1="416.332" x2="28.2891" y2="-147.099" gradientUnits="userSpaceOnUse">
            <stop stop-color="#AA80F9"/>
            <stop offset="0.9964" stop-color="#6165D7"/>
        </linearGradient>
        <linearGradient id="paint2_linear" x1="12.085" y1="226.685" x2="207.649" y2="226.685" gradientUnits="userSpaceOnUse">
            <stop offset="0.00359712" stop-color="#E38DDD"/>
            <stop offset="1" stop-color="#9571F6"/>
        </linearGradient>
        <linearGradient id="paint3_linear" x1="319.277" y1="342.988" x2="320.518" y2="389.645" gradientUnits="userSpaceOnUse">
            <stop stop-color="#444B8C"/>
            <stop offset="0.9964" stop-color="#26264F"/>
        </linearGradient>
        <linearGradient id="paint4_linear" x1="329.459" y1="284.986" x2="192.64" y2="-196.529" gradientUnits="userSpaceOnUse">
            <stop stop-color="#444B8C"/>
            <stop offset="0.9964" stop-color="#26264F"/>
        </linearGradient>
        <linearGradient id="paint5_linear" x1="192.004" y1="-26.2885" x2="441.828" y2="242.584" gradientUnits="userSpaceOnUse">
            <stop stop-color="#FF9085"/>
            <stop offset="1" stop-color="#FB6FBB"/>
        </linearGradient>
        <linearGradient id="paint6_linear" x1="110.55" y1="324.203" x2="494.391" y2="324.203" gradientUnits="userSpaceOnUse">
            <stop stop-color="#444B8C"/>
            <stop offset="0.9964" stop-color="#26264F"/>
        </linearGradient>
        <linearGradient id="paint7_linear" x1="230.03" y1="121.064" x2="339.289" y2="358.469" gradientUnits="userSpaceOnUse">
            <stop stop-color="#FFC444"/>
            <stop offset="0.9964" stop-color="#F36F56"/>
        </linearGradient>
        <linearGradient id="paint8_linear" x1="369.095" y1="68.2968" x2="469.815" y2="287.148" gradientUnits="userSpaceOnUse">
            <stop stop-color="#FFC444"/>
            <stop offset="0.9964" stop-color="#F36F56"/>
        </linearGradient>
        <linearGradient id="paint9_linear" x1="248.237" y1="112.81" x2="352.827" y2="340.067" gradientUnits="userSpaceOnUse">
            <stop stop-color="#FFC444"/>
            <stop offset="0.9964" stop-color="#F36F56"/>
        </linearGradient>
        <linearGradient id="paint10_linear" x1="231.768" y1="485.301" x2="103.831" y2="375.898" gradientUnits="userSpaceOnUse">
            <stop stop-color="#444B8C"/>
            <stop offset="0.9964" stop-color="#26264F"/>
        </linearGradient>
        <linearGradient id="paint11_linear" x1="125.856" y1="518.919" x2="142.712" y2="64.6934" gradientUnits="userSpaceOnUse">
            <stop stop-color="#444B8C"/>
            <stop offset="0.9964" stop-color="#26264F"/>
        </linearGradient>
        <linearGradient id="paint12_linear" x1="77.0289" y1="315.708" x2="142.324" y2="457.584" gradientUnits="userSpaceOnUse">
            <stop stop-color="#FFC444"/>
            <stop offset="0.9964" stop-color="#F36F56"/>
        </linearGradient>
        <linearGradient id="paint13_linear" x1="108.234" y1="396.01" x2="166.636" y2="522.909" gradientUnits="userSpaceOnUse">
            <stop stop-color="#FFC444"/>
            <stop offset="0.9964" stop-color="#F36F56"/>
        </linearGradient>
        <linearGradient id="paint14_linear" x1="106.097" y1="243.753" x2="167.019" y2="376.125" gradientUnits="userSpaceOnUse">
            <stop stop-color="#FF9085"/>
            <stop offset="1" stop-color="#FB6FBB"/>
        </linearGradient>
        <linearGradient id="paint15_linear" x1="114.807" y1="457.083" x2="157.039" y2="548.844" gradientUnits="userSpaceOnUse">
            <stop stop-color="#FFC444"/>
            <stop offset="0.9964" stop-color="#F36F56"/>
        </linearGradient>
        <linearGradient id="paint16_linear" x1="156.954" y1="319.403" x2="212.815" y2="440.781" gradientUnits="userSpaceOnUse">
            <stop stop-color="#FFC444"/>
            <stop offset="0.9964" stop-color="#F36F56"/>
        </linearGradient>
        <linearGradient id="paint17_linear" x1="301.533" y1="493.946" x2="221.853" y2="425.809" gradientUnits="userSpaceOnUse">
            <stop stop-color="#444B8C"/>
            <stop offset="0.9964" stop-color="#26264F"/>
        </linearGradient>
        <linearGradient id="paint18_linear" x1="234.991" y1="522.048" x2="246.463" y2="212.904" gradientUnits="userSpaceOnUse">
            <stop stop-color="#444B8C"/>
            <stop offset="0.9964" stop-color="#26264F"/>
        </linearGradient>
        <linearGradient id="paint19_linear" x1="208.642" y1="387.948" x2="250.113" y2="478.058" gradientUnits="userSpaceOnUse">
            <stop stop-color="#FFC444"/>
            <stop offset="0.9964" stop-color="#F36F56"/>
        </linearGradient>
        <linearGradient id="paint20_linear" x1="225.111" y1="446.047" x2="259.221" y2="520.161" gradientUnits="userSpaceOnUse">
            <stop stop-color="#FFC444"/>
            <stop offset="0.9964" stop-color="#F36F56"/>
        </linearGradient>
        <linearGradient id="paint21_linear" x1="229.551" y1="486.634" x2="252.617" y2="536.753" gradientUnits="userSpaceOnUse">
            <stop stop-color="#FFC444"/>
            <stop offset="0.9964" stop-color="#F36F56"/>
        </linearGradient>
        <linearGradient id="paint22_linear" x1="249.039" y1="390.121" x2="285.156" y2="468.599" gradientUnits="userSpaceOnUse">
            <stop stop-color="#FFC444"/>
            <stop offset="0.9964" stop-color="#F36F56"/>
        </linearGradient>
        <linearGradient id="paint23_linear" x1="223.563" y1="338.637" x2="259.684" y2="417.123" gradientUnits="userSpaceOnUse">
            <stop stop-color="#FF9085"/>
            <stop offset="1" stop-color="#FB6FBB"/>
        </linearGradient>
        <linearGradient id="paint24_linear" x1="437.642" y1="393.545" x2="538.527" y2="513.677" gradientUnits="userSpaceOnUse">
            <stop offset="0.00359712" stop-color="#E38DDD"/>
            <stop offset="1" stop-color="#9571F6"/>
        </linearGradient>
        <linearGradient id="paint25_linear" x1="446.421" y1="531.598" x2="450.567" y2="458.622" gradientUnits="userSpaceOnUse">
            <stop stop-color="#AA80F9"/>
            <stop offset="0.9964" stop-color="#6165D7"/>
        </linearGradient>
    </defs>
</svg>