<svg width="536" height="536" viewBox="0 0 536 536" fill="none" xmlns="http://www.w3.org/2000/svg">
    <path opacity="0.2" d="M276.338 0.12278C139.126 -4.04461 20.2703 98.3638 2.31285 232.737C-17.3196 379.656 90.7397 511.847 223.704 533.019C389.088 559.354 549.501 407.004 535.098 241.726C524.246 117.202 415.82 4.35909 276.338 0.12278Z" fill="url(#paint0_radial)"/>
    <path d="M508.153 456.847L32.8252 452.789V464.798C32.8252 468.057 34.8984 470.829 37.7068 471.323L172.115 494.972C173.71 495.253 175.327 495.326 176.937 495.194L502.987 468.232C505.898 467.992 508.151 465.212 508.151 461.862V456.847H508.153Z" fill="#26264F"/>
    <path d="M335.658 437.604L37.7401 459.573C32.4082 459.966 28.0737 455.788 28.0737 450.242V228.006C28.0737 222.46 32.4082 217.963 37.7401 217.963H335.658C340.05 217.963 343.601 222.028 343.601 227.042V427.938C343.601 432.953 340.05 437.28 335.658 437.604Z" fill="#26264F"/>
    <path d="M340.41 437.604L42.4916 459.573C37.1596 459.967 32.8252 455.789 32.8252 450.242V228.007C32.8252 222.461 37.1596 217.964 42.4916 217.964H340.41C344.802 217.964 348.353 222.028 348.353 227.043V427.938C348.353 432.953 344.802 437.28 340.41 437.604Z" fill="url(#paint1_linear)"/>
    <path d="M331.128 423.44L53.6487 442.523C49.3105 442.821 45.7856 439.392 45.7856 434.864V240.298C45.7856 235.77 49.3105 232.084 53.6487 232.065L331.128 230.867C334.752 230.852 337.681 234.181 337.681 238.307V415.522C337.681 419.646 334.752 423.192 331.128 423.44Z" fill="url(#paint2_linear)"/>
    <path d="M201.972 224.041C201.972 226.107 200.438 227.785 198.546 227.79C196.649 227.796 195.112 226.124 195.112 224.054C195.112 221.985 196.651 220.305 198.546 220.305C200.438 220.303 201.972 221.977 201.972 224.041Z" fill="white"/>
    <path opacity="0.48" d="M42.4896 459.573L338.9 437.714L340.408 437.602C342.423 437.453 344.254 436.456 345.654 434.942C324.324 433.773 311.075 426.191 302.529 418.356C285.366 402.621 288.344 387.105 269.836 376.76C246.751 363.857 228.6 380.207 211.084 364.075C200.465 354.295 205.677 347.002 192.611 332.386C178.137 316.198 168.715 321.64 154.169 307.071C135.778 288.65 144.975 274.317 129.133 261.09C109.914 245.044 89.1875 259.895 70.8932 244.507C63.0023 237.87 58.6716 228.221 56.4122 217.96H42.4933C37.1613 217.96 32.8269 222.457 32.8269 228.003V450.237C32.825 455.788 37.1595 459.964 42.4896 459.573Z" fill="white"/>
    <path d="M352.283 436.385L32.8252 459.51L172.115 484.016C173.71 484.297 175.327 484.372 176.937 484.238L508.153 456.847L357.364 436.542C355.678 436.314 353.979 436.262 352.283 436.385Z" fill="url(#paint3_linear)"/>
    <path d="M79.4395 459.707L345.397 440.169L427.709 451.165L164.042 472.051L79.4395 459.707Z" fill="#26264F"/>
    <g opacity="0.67">
        <path opacity="0.67" d="M149.062 315.68C154.731 304.645 165.316 296.618 177.687 294.811L178.549 241.331C143.198 243.096 112.496 266.038 98.6641 298.305L149.062 315.68Z" fill="white"/>
        <path opacity="0.67" d="M218.003 337.623C215.027 355.408 200.124 369.566 182.01 370.453C176.639 370.716 171.521 369.786 166.887 367.888L139.127 415.248C151.984 421.57 166.604 424.663 182.01 423.663C227.469 420.714 263.912 383.059 267.999 337.768L218.003 337.623Z" fill="white"/>
        <path opacity="0.67" d="M130.516 410.362L158.414 362.925C150.029 356.277 144.658 345.824 144.658 333.853C144.658 330.962 144.975 328.132 145.57 325.403L95.0703 308.152C92.3922 316.954 90.948 326.269 90.948 335.878C90.948 367.69 106.704 394.931 130.516 410.362Z" fill="white"/>
    </g>
    <path d="M187.534 294.714C204.066 296.836 216.868 310.376 218.394 327.589L300.789 328.081C300.789 328.044 300.789 328.007 300.789 327.97C300.789 262.794 252.24 209.589 188.96 205.952L187.534 294.714Z" fill="url(#paint4_linear)"/>
    <path d="M28.4998 57.9653V192.289C28.4998 196.748 32.1791 200.363 36.7164 200.363H312.663C317.031 200.363 320.57 196.819 320.57 192.447V60.7487L28.4998 57.9653Z" fill="#EBEFF2"/>
    <path d="M312.662 43.9461L36.7181 41.0005C32.1808 40.952 28.5015 44.5277 28.5015 48.9871V62.7511L320.572 65.4412V51.9457C320.57 47.5758 317.03 43.9927 312.662 43.9461Z" fill="#D8DEE8"/>
    <path d="M95.887 129.755L111.096 77.5105C134.108 85.0161 150.744 106.386 150.869 131.502L95.887 129.755Z" fill="#D8DEE8"/>
    <path d="M136.654 134.737C135.801 146.683 129.984 157.259 121.222 164.478L97.3555 133.447L136.654 134.737Z" fill="white"/>
    <path d="M92.4868 127.949C83.2801 119.207 72.1732 108.642 63.3462 100.204C71.1776 92.9151 81.7615 88.4874 93.3969 88.575C96.9255 88.6011 100.354 89.0429 103.635 89.8483L92.4868 127.949Z" fill="white"/>
    <path d="M90.5663 131.217L57.1731 155.253C52.5019 148.392 49.7754 140.143 49.7754 131.276C49.7754 120.342 53.9219 110.385 60.7464 102.841C63.1918 105.177 65.909 107.77 68.8886 110.607C77.9129 119.203 86.98 127.813 90.5663 131.217Z" fill="white"/>
    <path d="M91.5341 135.085L90.8883 174.306C78.1754 173.571 66.9047 167.455 59.3916 158.228L91.5341 135.085Z" fill="white"/>
    <path d="M95.2356 136.76L118.274 166.702C111.546 171.34 103.413 174.142 94.6177 174.366L95.2356 136.76Z" fill="white"/>
    <path d="M300.061 103.377L158.653 102.442V89.1567L300.061 90.2194V103.377Z" fill="white"/>
    <path d="M300.061 127.188L158.653 126.483V113.197L300.061 114.03V127.188Z" fill="white"/>
    <path d="M300.061 150.999L158.653 150.523V137.238L300.061 137.84V150.999Z" fill="white"/>
    <path d="M300.061 174.81L158.653 174.563V161.279L300.061 161.651V174.81Z" fill="white"/>
    <path d="M47.3674 51.871C47.3674 53.8509 45.7353 55.4411 43.7197 55.4206C41.7042 55.402 40.072 53.7801 40.072 51.7983C40.072 49.8166 41.706 48.2282 43.7197 48.2487C45.7353 48.2692 47.3674 49.8893 47.3674 51.871Z" fill="white"/>
    <path d="M392.927 233.153L382.643 248.905L434.046 282.579L444.33 266.827L392.927 233.153Z" fill="white"/>
    <path d="M391.794 259.002C402.522 259.002 411.219 250.29 411.219 239.543C411.219 228.796 402.522 220.083 391.794 220.083C381.065 220.083 372.368 228.796 372.368 239.543C372.368 250.29 381.065 259.002 391.794 259.002Z" fill="url(#paint5_linear)"/>
    <path d="M427.12 285.237C435.93 285.237 443.071 278.083 443.071 269.258C443.071 260.433 435.93 253.279 427.12 253.279C418.311 253.279 411.169 260.433 411.169 269.258C411.169 278.083 418.311 285.237 427.12 285.237Z" fill="url(#paint6_linear)"/>
    <path d="M426.339 192.555C439.854 192.555 450.81 177.132 450.81 158.107C450.81 139.082 439.854 123.659 426.339 123.659C412.824 123.659 401.867 139.082 401.867 158.107C401.867 177.132 412.824 192.555 426.339 192.555Z" fill="url(#paint7_linear)"/>
    <path d="M351.548 74.636H305.49C258.265 74.636 219.981 112.986 219.981 160.292C219.981 185.535 240.41 205.999 265.609 205.999H391.427C416.626 205.999 437.055 185.535 437.055 160.292C437.057 112.984 398.772 74.636 351.548 74.636Z" fill="url(#paint8_linear)"/>
    <path d="M343.46 299.661H313.58C282.941 299.661 258.105 274.78 258.105 244.09C258.105 227.712 271.358 214.437 287.708 214.437H369.334C385.684 214.437 398.936 227.712 398.936 244.09C398.936 274.782 374.098 299.661 343.46 299.661Z" fill="url(#paint9_linear)"/>
    <path d="M393.353 187.524H305.805C293.94 187.524 284.207 178.413 284.207 167.177V149.946C284.207 138.708 293.94 129.91 305.805 130.289L393.353 133.087C403.948 133.426 412.442 142.162 412.442 152.604V168.616C412.444 179.058 403.95 187.524 393.353 187.524Z" fill="url(#paint10_linear)"/>
    <path d="M333.857 157.645C333.857 165.151 327.479 171.154 319.549 171.053C311.546 170.952 305.006 164.687 305.006 157.058C305.006 149.431 311.546 143.43 319.549 143.656C327.479 143.877 333.857 150.141 333.857 157.645Z" fill="white"/>
    <path d="M393.02 158.849C393.02 166.102 387.065 171.907 379.659 171.814C372.191 171.719 366.087 165.669 366.087 158.301C366.087 150.934 372.189 145.132 379.659 145.343C387.065 145.55 393.02 151.597 393.02 158.849Z" fill="white"/>
    <path opacity="0.3" d="M360.291 193.984C347.271 178.659 353.057 166.404 336.034 145.635C312.612 117.062 285.29 120.294 279.031 100.913C277.297 95.5421 277.098 88.1726 281.75 77.9824C246.077 88.29 219.983 121.236 219.983 160.291C219.983 185.533 240.412 205.997 265.611 205.997H375.26C368.692 202.412 363.892 198.223 360.291 193.984Z" fill="white"/>
    <path d="M232.289 192.317C245.804 192.317 256.76 176.894 256.76 157.869C256.76 138.843 245.804 123.42 232.289 123.42C218.774 123.42 207.817 138.843 207.817 157.869C207.817 176.894 218.774 192.317 232.289 192.317Z" fill="url(#paint11_linear)"/>
    <path d="M212.93 172.932C218.84 172.932 223.631 166.188 223.631 157.868C223.631 149.549 218.84 142.805 212.93 142.805C207.02 142.805 202.229 149.549 202.229 157.868C202.229 166.188 207.02 172.932 212.93 172.932Z" fill="url(#paint12_linear)"/>
    <path opacity="0.4" d="M350.818 269.068C346.718 249.782 301.373 250.248 300.139 237.641C299.188 227.923 325.223 218.303 328.495 217.093C331.292 216.059 334.07 215.184 336.819 214.435H287.706C271.356 214.435 258.104 227.71 258.104 244.088C258.104 274.78 282.941 299.659 313.578 299.659H343.46C346.331 299.659 349.151 299.441 351.903 299.019C349.303 295.79 347.608 292.259 347.198 288.406C346.29 279.864 352.408 276.542 350.818 269.068Z" fill="url(#paint13_linear)"/>
    <path d="M329.256 221.812C355.319 221.812 376.447 219.249 376.447 216.089C376.447 212.928 355.319 210.365 329.256 210.365C303.193 210.365 282.065 212.928 282.065 216.089C282.065 219.249 303.193 221.812 329.256 221.812Z" fill="url(#paint14_linear)"/>
    <path d="M268.661 233.154L258.377 248.906L309.781 282.58L320.064 266.828L268.661 233.154Z" fill="white"/>
    <path d="M267.523 259.002C278.251 259.002 286.948 250.29 286.948 239.543C286.948 228.796 278.251 220.083 267.523 220.083C256.794 220.083 248.097 228.796 248.097 239.543C248.097 250.29 256.794 259.002 267.523 259.002Z" fill="url(#paint15_linear)"/>
    <path d="M311.896 263.941H356.891L355.104 282.591L311.002 281.113L311.896 263.941Z" fill="white"/>
    <path d="M302.849 285.237C311.659 285.237 318.801 278.083 318.801 269.258C318.801 260.433 311.659 253.279 302.849 253.279C294.04 253.279 286.898 260.433 286.898 269.258C286.898 278.083 294.04 285.237 302.849 285.237Z" fill="url(#paint16_linear)"/>
    <path d="M360.814 263.424C358.088 261.896 354.237 260.82 348.82 261.018C346.246 261.111 344.12 263.07 343.819 265.632L342.25 278.967H365.461L366.219 275.781C367.374 270.915 365.169 265.867 360.814 263.424Z" fill="url(#paint17_linear)"/>
    <path d="M401.801 279.282L318.067 277.833C316.915 277.813 315.827 278.361 315.153 279.299L312.6 282.859C311.328 284.632 312.553 287.108 314.731 287.168L403.364 289.638L401.801 279.282Z" fill="url(#paint18_linear)"/>
    <path d="M491.681 238.462L405.34 234.435C402.785 234.315 400.358 235.553 398.949 237.692L365.621 288.344L456.931 290.73C459.438 290.796 461.807 289.591 463.234 287.526L493.95 243.055C495.258 241.163 493.976 238.568 491.681 238.462Z" fill="url(#paint19_linear)"/>
    <path opacity="0.3" d="M398.949 237.692C400.356 235.551 402.785 234.313 405.34 234.435L407.233 234.522C407.331 237.33 408.016 239.936 409.585 242.108C414.478 248.888 423.573 245.507 429.711 252.746C436.452 260.699 429.184 269.153 435.192 276.538C441.516 284.308 452.915 279.075 465.259 284.597L463.236 287.526C461.811 289.591 459.44 290.796 456.933 290.73L365.623 288.344L398.949 237.692Z" fill="url(#paint20_linear)"/>
    <path opacity="0.68" d="M289.236 345.908V457.96C289.236 461.68 292.011 464.551 295.428 464.37L492.081 454.027C495.027 453.872 497.411 450.954 497.411 447.511V343.775L289.236 345.908Z" fill="white"/>
    <path d="M492.083 330.634L295.429 331.652C292.012 331.67 289.238 334.7 289.238 338.419V349.901L497.413 347.472V336.842C497.413 333.399 495.029 330.619 492.083 330.634Z" fill="url(#paint21_linear)"/>
    <path d="M303.425 340.55C303.425 342.196 302.202 343.54 300.691 343.555C299.178 343.57 297.951 342.245 297.951 340.597C297.951 338.949 299.178 337.603 300.691 337.591C302.2 337.578 303.425 338.904 303.425 340.55Z" fill="white"/>
    <path d="M331.694 447.962L316.221 448.695V365.404L331.694 365.136V447.962Z" fill="white"/>
    <path d="M331.694 447.962L316.221 448.695V409.149L331.694 408.637V447.962Z" fill="url(#paint22_linear)"/>
    <path d="M352.94 446.955L337.704 447.676V365.031L352.94 364.766V446.955Z" fill="white"/>
    <path d="M352.94 446.956L337.704 447.677V428.059L352.94 427.446V446.956Z" fill="url(#paint23_linear)"/>
    <path d="M373.861 445.966L358.857 446.677V364.665L373.861 364.404V445.966Z" fill="white"/>
    <path d="M373.861 445.965L358.857 446.676V436.456L373.861 435.801V445.965Z" fill="url(#paint24_linear)"/>
    <path d="M394.465 444.991L379.688 445.69V364.303L394.465 364.045V444.991Z" fill="white"/>
    <path d="M394.465 444.99L379.688 445.689V381.931L394.465 381.579V444.99Z" fill="url(#paint25_linear)"/>
    <path d="M414.758 444.029L400.202 444.718V363.946L414.758 363.693V444.029Z" fill="white"/>
    <path d="M414.758 444.029L400.202 444.719V388.633L414.758 388.248V444.029Z" fill="url(#paint26_linear)"/>
    <path d="M434.749 443.083L420.41 443.762V363.594L434.749 363.346V443.083Z" fill="white"/>
    <path d="M434.749 443.083L420.41 443.761V375.251L434.749 374.939V443.083Z" fill="url(#paint27_linear)"/>
    <path d="M454.443 442.149L440.317 442.818V363.249L454.443 363.003V442.149Z" fill="white"/>
    <path d="M454.443 442.149L440.317 442.818V393.944L454.443 393.534V442.149Z" fill="url(#paint28_linear)"/>
    <path d="M473.848 441.232L459.931 441.89V362.907L473.848 362.667V441.232Z" fill="white"/>
    <path d="M473.848 441.231L459.931 441.89V414.468L473.848 413.955V441.231Z" fill="url(#paint29_linear)"/>
    <defs>
        <radialGradient id="paint0_radial" cx="0" cy="0" r="1" gradientUnits="userSpaceOnUse" gradientTransform="translate(268 268) rotate(90) scale(268)">
            <stop stop-color="#DE5125"/>
            <stop offset="1" stop-color="#844AFF"/>
        </radialGradient>
        <linearGradient id="paint1_linear" x1="32.8256" y1="338.781" x2="348.352" y2="338.781" gradientUnits="userSpaceOnUse">
            <stop stop-color="#444B8C"/>
            <stop offset="0.9964" stop-color="#26264F"/>
        </linearGradient>
        <linearGradient id="paint2_linear" x1="45.7849" y1="336.704" x2="337.682" y2="336.704" gradientUnits="userSpaceOnUse">
            <stop stop-color="#AA80F9"/>
            <stop offset="0.9964" stop-color="#6165D7"/>
        </linearGradient>
        <linearGradient id="paint3_linear" x1="32.8256" y1="460.311" x2="508.154" y2="460.311" gradientUnits="userSpaceOnUse">
            <stop stop-color="#444B8C"/>
            <stop offset="0.9964" stop-color="#26264F"/>
        </linearGradient>
        <linearGradient id="paint4_linear" x1="235.2" y1="276.56" x2="366.629" y2="147.346" gradientUnits="userSpaceOnUse">
            <stop offset="0.00359712" stop-color="#E38DDD"/>
            <stop offset="1" stop-color="#9571F6"/>
        </linearGradient>
        <linearGradient id="paint5_linear" x1="372.367" y1="239.543" x2="411.22" y2="239.543" gradientUnits="userSpaceOnUse">
            <stop stop-color="#40447E"/>
            <stop offset="0.9964" stop-color="#3C3B6B"/>
        </linearGradient>
        <linearGradient id="paint6_linear" x1="411.17" y1="269.258" x2="443.071" y2="269.258" gradientUnits="userSpaceOnUse">
            <stop stop-color="#40447E"/>
            <stop offset="0.9964" stop-color="#3C3B6B"/>
        </linearGradient>
        <linearGradient id="paint7_linear" x1="401.868" y1="158.108" x2="450.809" y2="158.108" gradientUnits="userSpaceOnUse">
            <stop stop-color="#FFC444"/>
            <stop offset="0.9964" stop-color="#F36F56"/>
        </linearGradient>
        <linearGradient id="paint8_linear" x1="219.983" y1="140.317" x2="437.057" y2="140.317" gradientUnits="userSpaceOnUse">
            <stop stop-color="#FCB148"/>
            <stop offset="0.0521" stop-color="#FDBA46"/>
            <stop offset="0.1424" stop-color="#FFC244"/>
            <stop offset="0.3183" stop-color="#FFC444"/>
            <stop offset="0.4849" stop-color="#FDB946"/>
            <stop offset="0.7754" stop-color="#F99C4D"/>
            <stop offset="0.8658" stop-color="#F8924F"/>
            <stop offset="1" stop-color="#F8924F"/>
        </linearGradient>
        <linearGradient id="paint9_linear" x1="258.105" y1="257.049" x2="398.936" y2="257.049" gradientUnits="userSpaceOnUse">
            <stop stop-color="#FCB148"/>
            <stop offset="0.0521" stop-color="#FDBA46"/>
            <stop offset="0.1424" stop-color="#FFC244"/>
            <stop offset="0.3183" stop-color="#FFC444"/>
            <stop offset="0.4849" stop-color="#FDB946"/>
            <stop offset="0.7754" stop-color="#F99C4D"/>
            <stop offset="0.8658" stop-color="#F8924F"/>
            <stop offset="1" stop-color="#F8924F"/>
        </linearGradient>
        <linearGradient id="paint10_linear" x1="284.208" y1="158.899" x2="412.443" y2="158.899" gradientUnits="userSpaceOnUse">
            <stop stop-color="#444B8C"/>
            <stop offset="0.9964" stop-color="#26264F"/>
        </linearGradient>
        <linearGradient id="paint11_linear" x1="207.818" y1="157.868" x2="256.759" y2="157.868" gradientUnits="userSpaceOnUse">
            <stop stop-color="#FFC444"/>
            <stop offset="0.9964" stop-color="#F36F56"/>
        </linearGradient>
        <linearGradient id="paint12_linear" x1="202.23" y1="157.868" x2="223.631" y2="157.868" gradientUnits="userSpaceOnUse">
            <stop stop-color="#FFC444"/>
            <stop offset="0.9964" stop-color="#F36F56"/>
        </linearGradient>
        <linearGradient id="paint13_linear" x1="258.104" y1="257.049" x2="351.904" y2="257.049" gradientUnits="userSpaceOnUse">
            <stop stop-color="#FCB148"/>
            <stop offset="0.0521" stop-color="#FDBA46"/>
            <stop offset="0.1424" stop-color="#FFC244"/>
            <stop offset="0.3183" stop-color="#FFC444"/>
            <stop offset="0.4849" stop-color="#FDB946"/>
            <stop offset="0.7754" stop-color="#F99C4D"/>
            <stop offset="0.8658" stop-color="#F8924F"/>
            <stop offset="1" stop-color="#F8924F"/>
        </linearGradient>
        <linearGradient id="paint14_linear" x1="308.14" y1="379.745" x2="321.756" y2="274.582" gradientUnits="userSpaceOnUse">
            <stop stop-color="#FCB148"/>
            <stop offset="0.0521" stop-color="#FDBA46"/>
            <stop offset="0.1424" stop-color="#FFC244"/>
            <stop offset="0.3183" stop-color="#FFC444"/>
            <stop offset="0.3975" stop-color="#FEC045"/>
            <stop offset="0.7095" stop-color="#FAA34B"/>
            <stop offset="0.8658" stop-color="#F8924F"/>
            <stop offset="1" stop-color="#F8924F"/>
        </linearGradient>
        <linearGradient id="paint15_linear" x1="248.096" y1="239.543" x2="286.948" y2="239.543" gradientUnits="userSpaceOnUse">
            <stop stop-color="#40447E"/>
            <stop offset="0.9964" stop-color="#3C3B6B"/>
        </linearGradient>
        <linearGradient id="paint16_linear" x1="286.899" y1="269.258" x2="318.8" y2="269.258" gradientUnits="userSpaceOnUse">
            <stop stop-color="#40447E"/>
            <stop offset="0.9964" stop-color="#3C3B6B"/>
        </linearGradient>
        <linearGradient id="paint17_linear" x1="342.249" y1="269.979" x2="366.523" y2="269.979" gradientUnits="userSpaceOnUse">
            <stop stop-color="#40447E"/>
            <stop offset="0.9964" stop-color="#3C3B6B"/>
        </linearGradient>
        <linearGradient id="paint18_linear" x1="312.084" y1="283.735" x2="403.363" y2="283.735" gradientUnits="userSpaceOnUse">
            <stop stop-color="#AA80F9"/>
            <stop offset="0.9964" stop-color="#6165D7"/>
        </linearGradient>
        <linearGradient id="paint19_linear" x1="365.622" y1="262.58" x2="494.474" y2="262.58" gradientUnits="userSpaceOnUse">
            <stop stop-color="#AA80F9"/>
            <stop offset="0.9964" stop-color="#6165D7"/>
        </linearGradient>
        <linearGradient id="paint20_linear" x1="365.622" y1="262.58" x2="465.256" y2="262.58" gradientUnits="userSpaceOnUse">
            <stop stop-color="#AA80F9"/>
            <stop offset="0.9964" stop-color="#6165D7"/>
        </linearGradient>
        <linearGradient id="paint21_linear" x1="410.459" y1="313.868" x2="317.348" y2="465.822" gradientUnits="userSpaceOnUse">
            <stop stop-color="#FF9085"/>
            <stop offset="1" stop-color="#FB6FBB"/>
        </linearGradient>
        <linearGradient id="paint22_linear" x1="332.989" y1="400.324" x2="311.45" y2="467.424" gradientUnits="userSpaceOnUse">
            <stop stop-color="#FF9085"/>
            <stop offset="1" stop-color="#FB6FBB"/>
        </linearGradient>
        <linearGradient id="paint23_linear" x1="350.363" y1="421.748" x2="338.344" y2="459.189" gradientUnits="userSpaceOnUse">
            <stop stop-color="#FF9085"/>
            <stop offset="1" stop-color="#FB6FBB"/>
        </linearGradient>
        <linearGradient id="paint24_linear" x1="369.509" y1="431.362" x2="362.002" y2="454.747" gradientUnits="userSpaceOnUse">
            <stop stop-color="#FF9085"/>
            <stop offset="1" stop-color="#FB6FBB"/>
        </linearGradient>
        <linearGradient id="paint25_linear" x1="400.885" y1="370.292" x2="367.947" y2="472.905" gradientUnits="userSpaceOnUse">
            <stop stop-color="#FF9085"/>
            <stop offset="1" stop-color="#FB6FBB"/>
        </linearGradient>
        <linearGradient id="paint26_linear" x1="419.744" y1="377.994" x2="390.494" y2="469.117" gradientUnits="userSpaceOnUse">
            <stop stop-color="#FF9085"/>
            <stop offset="1" stop-color="#FB6FBB"/>
        </linearGradient>
        <linearGradient id="paint27_linear" x1="442.306" y1="363.13" x2="407.181" y2="472.555" gradientUnits="userSpaceOnUse">
            <stop stop-color="#FF9085"/>
            <stop offset="1" stop-color="#FB6FBB"/>
        </linearGradient>
        <linearGradient id="paint28_linear" x1="458.176" y1="384.299" x2="432.431" y2="464.504" gradientUnits="userSpaceOnUse">
            <stop stop-color="#FF9085"/>
            <stop offset="1" stop-color="#FB6FBB"/>
        </linearGradient>
        <linearGradient id="paint29_linear" x1="473.391" y1="407.526" x2="457.891" y2="455.816" gradientUnits="userSpaceOnUse">
            <stop stop-color="#FF9085"/>
            <stop offset="1" stop-color="#FB6FBB"/>
        </linearGradient>
    </defs>
</svg>