<svg width="648" height="480" viewBox="0 0 648 480" fill="none" xmlns="http://www.w3.org/2000/svg">
    <rect width="648" height="480" rx="24" fill="url(#paint0_linear)"/>
    <path opacity="0.2" d="M333.202 27.5342C214.941 24.0944 112.5 108.65 97.0236 219.601C80.1019 340.909 173.236 450.058 287.837 467.539C430.378 489.283 568.635 363.49 556.222 227.023C546.868 124.206 453.419 31.0333 333.202 27.5342Z" fill="url(#paint1_radial)"/>
    <path d="M242.569 405.34C239.228 413.257 232.999 424.252 226.368 436.917H367.692C346.105 397.037 317.867 355.963 339.87 278.11C350.196 241.575 382.113 175.351 359.545 137.532C333.835 94.4451 298.98 119.699 284.266 85.5891C261.267 32.2765 208.414 0.521553 161.639 35.4371C115.472 69.8969 131.562 169.076 213.348 268.288C263.954 346.105 260.016 363.996 242.569 405.34Z" fill="url(#paint2_linear)"/>
    <path d="M299.431 428.734C297.798 410.425 295.33 393.238 292.716 375.043L291.846 368.977C290.048 360.293 288.509 351.682 287.023 343.354C283.665 324.549 280.492 306.787 274.547 288.304C274.325 287.206 274.163 286.131 273.993 284.994C273.383 280.932 272.752 276.732 269.809 273.054L269.73 272.896C245.694 174.063 191.034 122.19 126.633 32.6113H126.131C190.573 122.25 246.439 173.71 270.504 272.613C273.537 276.446 274.21 280.921 274.802 284.872C274.972 286 275.131 287.064 275.338 288.097C281.289 306.589 284.466 324.376 287.829 343.209C289.315 351.531 290.852 360.137 292.653 368.836L293.527 374.928C296.143 393.134 298.614 410.331 300.248 428.662L299.431 428.734Z" fill="#FCFDFE"/>
    <path d="M285.623 340.009C277.866 292.746 294.725 232.833 310.232 190.896C327.027 145.478 345.898 110.773 346.087 110.428L346.807 110.821C346.619 111.166 327.77 145.828 310.996 191.192C295.525 233.036 278.704 292.796 286.43 339.879L285.623 340.009Z" fill="#FCFDFE"/>
    <path d="M223.923 138.658C212.896 88.9646 212.839 34.2594 212.822 16.2842C212.819 12.8461 212.815 10.5744 212.738 10.1444L213.546 10C213.633 10.4813 213.637 12.275 213.642 16.2842C213.66 34.2386 213.716 88.8748 224.724 138.481L223.923 138.658Z" fill="#FCFDFE"/>
    <path d="M253.646 216.371C230.408 175.547 136.151 150.005 135.202 149.752L135.414 148.961C136.366 149.214 230.954 174.847 254.361 215.967L253.646 216.371Z" fill="#FCFDFE"/>
    <path d="M218.279 247.71C219.04 312.587 250.356 291.209 279.234 297.612C312.562 345.794 315.701 390.496 265.941 429.102L210.497 420.81C189.924 419.856 165.785 413.573 167.148 386.203C168.688 355.245 176.014 335.584 141.045 320.381C106.076 305.178 91.0539 277.438 105.216 245.885C120.117 212.679 85.1645 167.921 110.708 145.672C155.216 106.908 217.486 180.154 218.279 247.71Z" fill="url(#paint3_linear)"/>
    <path d="M232.044 363.811C208.896 338.506 188.84 310.388 172.432 280.234C155.885 249.82 143.272 217.741 134.944 184.887C130.169 166.049 126.797 146.854 124.925 127.84L125.76 127.758C127.629 146.731 130.992 165.882 135.758 184.682C144.069 217.467 156.655 249.482 173.171 279.833C189.545 309.927 209.562 337.99 232.664 363.245L232.044 363.811Z" fill="#FCFDFE"/>
    <path d="M172.368 399.444L171.987 398.696C182.284 393.454 194.432 389.367 208.091 386.546C214.601 385.202 221.067 384.314 227.309 383.91L227.364 384.746C221.16 385.149 214.732 386.03 208.262 387.368C194.675 390.174 182.599 394.236 172.368 399.444Z" fill="#FCFDFE"/>
    <path d="M183.227 298.745C154.595 271.072 93.6503 273.6 93.0401 273.634L93 272.796C93.6182 272.769 154.918 270.216 183.81 298.143L183.227 298.745Z" fill="#FCFDFE"/>
    <path d="M147.922 226.522C139.353 182.373 172.467 131.355 172.801 130.845L173.501 131.305C173.168 131.812 140.241 182.551 148.744 226.361L147.922 226.522Z" fill="#FCFDFE"/>
    <path d="M494.765 433.778L299.962 420.337C299.728 420.314 299.492 420.314 299.257 420.335L183.244 425.586C180.47 425.838 180.595 433.1 183.745 433.496L366.031 457.885C366.777 457.977 367.532 457.975 368.277 457.879L494.407 440.168C496.09 439.875 496.705 433.919 494.765 433.778Z" fill="url(#paint4_linear)"/>
    <path d="M494.382 433.563L299.964 415.232C299.73 415.209 299.494 415.209 299.259 415.23L183.81 425.359C181.69 425.545 181.636 428.622 183.747 428.882L366.032 451.359C366.779 451.45 367.534 451.449 368.279 451.352L494.407 435.063C495.3 434.949 495.278 433.648 494.382 433.563Z" fill="url(#paint5_linear)"/>
    <path d="M364.104 449.162C364.374 449.162 364.647 449.145 364.913 449.111L477.959 434.513C478.372 434.46 478.361 433.86 477.948 433.822L304.352 417.486C304.314 417.483 304.275 417.481 304.237 417.481C304.201 417.481 304.166 417.483 304.129 417.486L193.774 427.167C193.262 427.212 193.249 427.954 193.76 428.019L363.332 449.116C363.587 449.146 363.847 449.162 364.104 449.162Z" fill="url(#paint6_linear)"/>
    <path d="M428.418 442.14C428.459 442.477 429.522 442.625 430.792 442.471C432.062 442.317 433.059 441.919 433.019 441.582C432.977 441.245 431.915 441.097 430.645 441.251C429.373 441.405 428.376 441.803 428.418 442.14Z" fill="url(#paint7_linear)"/>
    <path d="M336.487 452.539L353.985 454.837C355.264 455.005 356.31 454.38 356.31 453.441C356.31 452.501 355.264 451.617 353.985 451.468L336.487 449.425C335.407 449.299 334.538 449.889 334.538 450.741C334.538 451.593 335.407 452.398 336.487 452.539Z" fill="url(#paint8_linear)"/>
    <path d="M317.374 450.03L331.784 451.921C332.829 452.058 333.684 451.482 333.684 450.633C333.684 449.784 332.829 448.997 331.784 448.875L317.374 447.193C316.476 447.089 315.755 447.635 315.755 448.411C315.755 449.188 316.476 449.913 317.374 450.03Z" fill="url(#paint9_linear)"/>
    <path d="M293.224 446.86L304.187 448.299C304.974 448.402 305.618 447.89 305.618 447.154C305.618 446.417 304.975 445.745 304.187 445.654L293.224 444.373C292.535 444.293 291.979 444.781 291.979 445.463C291.979 446.145 292.533 446.77 293.224 446.86Z" fill="url(#paint10_linear)"/>
    <path opacity="0.6" d="M272.933 426.543C289.874 429.556 301.125 435.692 325.438 436.185C346.497 436.61 346.653 431.762 371.129 430.229C403.195 428.222 411.554 436.005 444.35 435.334C452.902 435.16 464.096 434.388 477.341 431.959L494.382 433.566C495.279 433.652 495.302 434.951 494.408 435.067L368.279 451.354C367.534 451.45 366.779 451.452 366.033 451.36L211.743 432.336C238.217 423.514 258.489 423.972 272.933 426.543Z" fill="white"/>
    <path d="M313.089 435.45C304.062 435.45 290.631 433.889 290.631 429.589C290.631 425.29 304.062 423.729 313.089 423.729C322.116 423.729 335.547 425.29 335.547 429.589C335.547 433.889 322.116 435.45 313.089 435.45ZM313.089 425.439C299.468 425.439 292.344 428.14 292.344 429.588C292.344 431.035 299.468 433.736 313.089 433.736C326.708 433.736 333.834 431.035 333.834 429.588C333.834 428.14 326.709 425.439 313.089 425.439Z" fill="white"/>
    <path opacity="0.6" d="M313.089 431.864C318.511 431.864 322.907 430.846 322.907 429.589C322.907 428.333 318.511 427.314 313.089 427.314C307.666 427.314 303.27 428.333 303.27 429.589C303.27 430.846 307.666 431.864 313.089 431.864Z" fill="white"/>
    <mask id="mask0" mask-type="alpha" maskUnits="userSpaceOnUse" x="190" y="189" width="262" height="245">
        <path d="M451.711 228.786L335.535 418.587L334.474 420.318L333.066 422.622L330.595 426.658L328.801 429.586C328.801 431.539 322.197 433.124 313.899 433.223C313.631 433.228 313.365 433.228 313.092 433.228C304.413 433.228 297.382 431.6 297.382 429.586L295.738 426.607L292.447 420.642L291.324 418.606L289.915 416.054L283.001 403.519L271.09 381.937L257.672 357.615L256.333 355.184L241.506 328.305L232.081 311.224L190.362 235.606C200.019 228.214 222.552 212.213 255.398 201.204C260.278 199.565 265.382 198.04 270.713 196.67C271.943 196.35 273.187 196.041 274.446 195.741C275.39 195.516 276.339 195.295 277.293 195.085C278.044 194.911 278.805 194.746 279.566 194.582C279.571 194.582 279.571 194.582 279.576 194.582C290.937 192.152 303.195 190.467 316.274 189.914C317.848 189.843 319.436 189.792 321.036 189.758C346.012 189.232 368.26 192.968 387.172 198.439C387.811 198.617 388.446 198.805 389.07 198.993C389.253 199.049 389.436 199.1 389.614 199.156C391.63 199.761 393.606 200.39 395.541 201.033C400.833 202.789 405.827 204.661 410.504 206.585C430.238 214.698 444.37 223.746 451.711 228.786Z" fill="url(#paint11_linear)"/>
    </mask>
    <g mask="url(#mask0)">
        <path opacity="0.56" d="M451.711 228.786L335.535 418.587L334.474 420.318L333.066 422.622L330.595 426.658L328.801 429.586C328.801 431.539 322.197 433.124 313.899 433.223C313.631 433.228 313.365 433.228 313.092 433.228C304.413 433.228 297.382 431.6 297.382 429.586L295.738 426.607L292.447 420.642L291.324 418.606L289.915 416.054L283.001 403.519L271.09 381.937L257.672 357.615L256.333 355.184L241.506 328.305L232.081 311.224L190.362 235.606C200.019 228.214 222.552 212.213 255.398 201.204C260.278 199.565 265.382 198.04 270.713 196.67C271.943 196.35 273.187 196.041 274.446 195.741C275.39 195.516 276.339 195.295 277.293 195.085C278.044 194.911 278.805 194.746 279.566 194.582C279.571 194.582 279.571 194.582 279.576 194.582C290.937 192.152 303.195 190.467 316.274 189.914C317.848 189.843 319.436 189.792 321.036 189.758C346.012 189.232 368.26 192.968 387.172 198.439C387.811 198.617 388.446 198.805 389.07 198.993C389.253 199.049 389.436 199.1 389.614 199.156C391.63 199.761 393.606 200.39 395.541 201.033C400.833 202.789 405.827 204.661 410.504 206.585C430.238 214.698 444.37 223.746 451.711 228.786Z" fill="white"/>
    </g>
    <path d="M523.864 160.731L512.442 158.608C513.071 150.925 512.617 143.349 511.196 136.048L521.9 132.265C524.826 131.231 526.377 127.952 525.369 124.933L522.681 116.882C521.668 113.845 518.46 112.199 515.508 113.21L504.958 116.827C501.689 109.781 497.445 103.187 492.352 97.2432L499.605 88.8588C501.686 86.4539 501.421 82.7238 499.007 80.5194L492.559 74.625C490.122 72.3966 486.429 72.5409 484.316 74.9571L477.07 83.242C470.625 78.6311 463.44 74.8271 455.63 72.0468L457.706 60.9992C458.318 57.7408 456.155 54.4727 452.863 53.6978L444.053 51.625C440.72 50.8405 437.505 52.8748 436.887 56.1685L434.789 67.338C426.362 66.4717 418.013 66.8359 409.953 68.3087L405.918 57.0991C404.733 53.8053 401.077 51.9282 397.745 52.9149L388.837 55.5541C385.469 56.552 383.717 60.0607 384.932 63.3817L389.137 74.8657C381.517 78.3551 374.436 82.9163 368.131 88.4112L358.195 80.0413C355.379 77.6685 351.159 77.8337 348.778 80.4215L342.422 87.325C340.023 89.9305 340.399 93.9639 343.255 96.3255L353.563 104.843C348.995 111.584 345.362 119.048 342.879 127.099L329.077 124.533C325.362 123.843 321.813 126.089 321.163 129.552L319.432 138.761C318.782 142.223 321.282 145.56 325.004 146.21L339.201 148.69C338.888 156.948 339.813 165.04 341.834 172.77L328 177.514C324.472 178.723 322.655 182.362 323.949 185.633L327.38 194.302C328.666 197.55 332.547 199.176 336.042 197.94L350.064 192.984C353.995 199.902 358.886 206.252 364.586 211.842L354.974 222.832C352.632 225.511 352.993 229.4 355.777 231.508L363.142 237.082C365.896 239.166 369.994 238.686 372.299 236.021L381.861 224.967C388.527 228.822 395.783 231.837 403.5 233.855L400.9 247.69C400.28 250.985 402.544 254.006 405.945 254.434L414.93 255.57C418.288 255.994 421.497 253.696 422.109 250.436L424.68 236.751C432.513 236.878 440.16 235.963 447.46 234.138L452.051 246.671C453.147 249.665 456.545 251.088 459.633 249.856L467.8 246.597C470.854 245.378 472.458 241.986 471.389 239.013L466.959 226.706C473.655 223.191 479.846 218.832 485.368 213.762L495.101 221.805C497.49 223.78 501.087 223.36 503.137 220.875L508.574 214.289C510.613 211.82 510.356 208.215 507.997 206.228L498.609 198.321C502.707 192.187 506.03 185.462 508.424 178.258L520.178 180.312C523.207 180.841 526.13 178.747 526.714 175.638L528.268 167.368C528.858 164.268 526.888 161.294 523.864 160.731ZM418.634 211.473C384.613 206.387 361.262 174.883 367.577 141.27C373.892 107.657 407.156 86.3977 440.789 93.5564C473.279 100.473 494.008 131.504 488.075 163.078C482.142 194.651 451.5 216.386 418.634 211.473Z" fill="#97A6B7"/>
    <path d="M408.975 54.5769L400.895 52.772L396.722 59.5311L408.975 54.5769Z" fill="#97A6B7"/>
    <path d="M488.982 73.0671L498.343 74.9186L497.044 81.8301L488.982 73.0671Z" fill="#97A6B7"/>
    <path d="M518.455 113.11L527.732 115.242L524.412 120.034L518.455 113.11Z" fill="#97A6B7"/>
    <path d="M524.654 160.981L533.955 163.498L530.01 167.496L524.654 160.981Z" fill="#97A6B7"/>
    <path d="M496.789 222.761L505.705 225.787L508.23 218.526L496.789 222.761Z" fill="#97A6B7"/>
    <path d="M455.4 249.904L463.345 252.941L465.14 246.993L455.4 249.904Z" fill="#97A6B7"/>
    <path d="M411.535 256.759L404.394 254.065L412.524 245.825L411.535 256.759Z" fill="#97A6B7"/>
    <path d="M373.018 241.316L364.751 237.927L372.898 231.139L373.018 241.316Z" fill="#97A6B7"/>
    <path d="M353.611 78.3247L362.532 80.2884L357.752 86.1604L353.611 78.3247Z" fill="#97A6B7"/>
    <path d="M322.544 145.306L330.542 148.064L331.15 141.215L322.544 145.306Z" fill="#97A6B7"/>
    <path d="M330.962 197.842L338.756 200.658L340.41 195.457L330.962 197.842Z" fill="#97A6B7"/>
    <path d="M532.95 163.203L521.433 161.063C522.067 153.317 521.61 145.68 520.176 138.318L530.969 134.504C533.919 133.461 535.482 130.157 534.466 127.113L531.756 118.997C530.735 115.936 527.499 114.275 524.524 115.294L513.887 118.94C510.59 111.838 506.311 105.188 501.175 99.1957L508.487 90.744C510.586 88.3182 510.317 84.5592 507.885 82.3372L501.384 76.3947C498.925 74.1486 495.204 74.2946 493.073 76.73L485.767 85.0823C479.269 80.4328 472.025 76.5984 464.149 73.794L466.241 62.6566C466.859 59.3709 464.677 56.0772 461.359 55.2959L452.476 53.207C449.114 52.416 445.876 54.4664 445.251 57.7874L443.135 69.0468C434.638 68.174 426.221 68.5398 418.093 70.0254L414.025 58.7244C412.828 55.4033 409.144 53.5118 405.785 54.5065L396.803 57.1681C393.407 58.1741 391.641 61.7117 392.866 65.0583L397.106 76.6353C389.423 80.1537 382.283 84.7518 375.925 90.29L365.907 81.8511C363.067 79.459 358.813 79.6242 356.411 82.2329L350.002 89.1926C347.584 91.8189 347.963 95.886 350.843 98.2668L361.236 106.855C356.63 113.651 352.967 121.175 350.464 129.292L336.548 126.706C332.802 126.009 329.225 128.273 328.568 131.764L326.825 141.048C326.169 144.54 328.69 147.902 332.443 148.558L346.758 151.06C346.442 159.385 347.375 167.543 349.414 175.335L335.466 180.118C331.91 181.337 330.078 185.006 331.383 188.303L334.841 197.042C336.137 200.316 340.052 201.956 343.576 200.711L357.714 195.715C361.676 202.691 366.609 209.091 372.355 214.727L362.664 225.805C360.302 228.505 360.666 232.426 363.475 234.552L370.901 240.17C373.677 242.272 377.81 241.789 380.133 239.102L389.773 227.958C396.496 231.845 403.811 234.884 411.592 236.918L408.972 250.865C408.347 254.186 410.63 257.232 414.058 257.666L423.119 258.811C426.504 259.239 429.741 256.921 430.357 253.635L432.949 239.84C440.848 239.968 448.557 239.046 455.917 237.205L460.545 249.841C461.651 252.861 465.076 254.295 468.189 253.053L476.424 249.767C479.504 248.538 481.121 245.118 480.042 242.121L475.575 229.715C482.325 226.171 488.568 221.776 494.136 216.665L503.949 224.773C506.358 226.764 509.985 226.341 512.053 223.836L517.535 217.196C519.59 214.707 519.331 211.072 516.953 209.07L507.488 201.098C511.62 194.915 514.971 188.135 517.384 180.872L529.235 182.943C532.289 183.477 535.237 181.366 535.824 178.231L537.392 169.893C537.986 166.768 535.999 163.769 532.95 163.203ZM426.849 214.355C392.545 209.227 369 177.464 375.366 143.577C381.734 109.69 415.272 88.2589 449.183 95.4768C481.941 102.449 502.843 133.734 496.862 165.566C490.883 197.398 459.987 219.309 426.849 214.355Z" fill="#D8DEE8"/>
    <path d="M492.612 356.572L486.522 355.441C486.858 351.345 486.615 347.305 485.857 343.413L491.565 341.397C493.124 340.845 493.951 339.097 493.415 337.488L491.983 333.197C491.442 331.578 489.732 330.7 488.16 331.239L482.535 333.168C480.792 329.412 478.529 325.895 475.814 322.727L479.681 318.257C480.79 316.975 480.649 314.986 479.363 313.811L475.925 310.668C474.626 309.481 472.657 309.558 471.53 310.845L467.667 315.262C464.231 312.804 460.4 310.776 456.237 309.293L457.343 303.404C457.669 301.666 456.516 299.924 454.761 299.512L450.065 298.406C448.287 297.988 446.574 299.072 446.245 300.829L445.126 306.783C440.633 306.321 436.182 306.515 431.884 307.301L429.733 301.325C429.1 299.568 427.152 298.568 425.377 299.095L420.627 300.502C418.83 301.034 417.898 302.903 418.546 304.674L420.788 310.797C416.725 312.658 412.949 315.088 409.588 318.018L404.291 313.556C402.79 312.29 400.541 312.379 399.271 313.758L395.881 317.439C394.603 318.828 394.802 320.978 396.326 322.237L401.822 326.779C399.386 330.373 397.45 334.352 396.125 338.645L388.767 337.278C386.787 336.911 384.894 338.108 384.547 339.954L383.624 344.863C383.277 346.71 384.61 348.488 386.594 348.836L394.163 350.158C393.996 354.56 394.489 358.874 395.566 362.996L388.19 365.526C386.31 366.171 385.34 368.111 386.031 369.854L387.859 374.477C388.545 376.209 390.615 377.076 392.477 376.416L399.953 373.774C402.048 377.462 404.656 380.848 407.695 383.828L402.57 389.688C401.321 391.115 401.514 393.19 402.999 394.313L406.926 397.284C408.394 398.396 410.579 398.139 411.809 396.719L416.907 390.827C420.462 392.882 424.33 394.489 428.443 395.566L427.058 402.941C426.727 404.698 427.934 406.309 429.747 406.538L434.538 407.144C436.329 407.371 438.04 406.145 438.366 404.407L439.737 397.111C443.914 397.178 447.99 396.69 451.882 395.718L454.329 402.4C454.914 403.997 456.725 404.756 458.372 404.098L462.727 402.36C464.355 401.711 465.211 399.902 464.639 398.317L462.277 391.755C465.846 389.882 469.148 387.557 472.092 384.855L477.282 389.144C478.555 390.196 480.474 389.971 481.567 388.648L484.465 385.136C485.552 383.82 485.416 381.898 484.159 380.839L479.154 376.623C481.338 373.354 483.11 369.768 484.387 365.927L490.652 367.021C492.267 367.304 493.825 366.187 494.136 364.53L494.964 360.121C495.274 358.457 494.224 356.87 492.612 356.572ZM436.508 383.625C418.37 380.913 405.921 364.117 409.288 346.197C412.655 328.276 430.389 316.943 448.321 320.76C465.642 324.447 476.694 340.991 473.531 357.825C470.368 374.655 454.031 386.243 436.508 383.625Z" fill="#97A6B7"/>
    <path d="M431.359 299.977L427.051 299.013L424.826 302.618L431.359 299.977Z" fill="#97A6B7"/>
    <path d="M474.014 309.834L479.004 310.821L478.312 314.506L474.014 309.834Z" fill="#97A6B7"/>
    <path d="M489.727 331.183L494.673 332.319L492.902 334.875L489.727 331.183Z" fill="#97A6B7"/>
    <path d="M493.033 356.704L497.991 358.047L495.888 360.179L493.033 356.704Z" fill="#97A6B7"/>
    <path d="M478.176 389.643L482.928 391.257L484.276 387.384L478.176 389.643Z" fill="#97A6B7"/>
    <path d="M456.11 404.114L460.345 405.733L461.302 402.561L456.11 404.114Z" fill="#97A6B7"/>
    <path d="M432.724 407.769L428.917 406.333L433.25 401.938L432.724 407.769Z" fill="#97A6B7"/>
    <path d="M412.188 399.533L407.782 397.729L412.125 394.109L412.188 399.533Z" fill="#97A6B7"/>
    <path d="M401.843 312.637L406.598 313.683L404.05 316.815L401.843 312.637Z" fill="#97A6B7"/>
    <path d="M385.279 348.348L389.542 349.818L389.868 346.167L385.279 348.348Z" fill="#97A6B7"/>
    <path d="M389.767 376.357L393.922 377.859L394.803 375.085L389.767 376.357Z" fill="#97A6B7"/>
    <path d="M497.455 357.889L491.315 356.749C491.654 352.619 491.41 348.547 490.645 344.623L496.4 342.59C497.973 342.035 498.805 340.272 498.264 338.65L496.819 334.323C496.275 332.691 494.55 331.806 492.964 332.35L487.293 334.294C485.535 330.508 483.253 326.962 480.515 323.768L484.414 319.261C485.533 317.968 485.39 315.964 484.093 314.779L480.626 311.61C479.316 310.413 477.332 310.49 476.195 311.788L472.299 316.242C468.835 313.763 464.973 311.719 460.774 310.224L461.89 304.286C462.219 302.534 461.057 300.777 459.287 300.362L454.551 299.249C452.759 298.827 451.031 299.919 450.699 301.69L449.572 307.694C445.042 307.229 440.555 307.424 436.221 308.215L434.052 302.189C433.414 300.418 431.449 299.411 429.659 299.94L424.871 301.358C423.06 301.894 422.119 303.781 422.772 305.565L425.033 311.737C420.937 313.612 417.13 316.064 413.741 319.017L408.399 314.519C406.885 313.243 404.617 313.332 403.336 314.723L399.919 318.433C398.63 319.834 398.832 322.001 400.367 323.271L405.908 327.849C403.453 331.472 401.499 335.484 400.165 339.811L392.745 338.433C390.748 338.063 388.84 339.269 388.49 341.13L387.561 346.08C387.211 347.941 388.555 349.734 390.555 350.084L398.187 351.417C398.018 355.856 398.516 360.204 399.603 364.36L392.166 366.909C390.27 367.559 389.293 369.514 389.989 371.273L391.833 375.932C392.524 377.677 394.611 378.552 396.49 377.887L404.027 375.224C406.14 378.943 408.768 382.356 411.833 385.361L406.666 391.268C405.407 392.708 405.602 394.797 407.098 395.932L411.058 398.927C412.538 400.047 414.741 399.79 415.98 398.357L421.12 392.416C424.704 394.489 428.604 396.11 432.753 397.194L431.356 404.63C431.024 406.402 432.241 408.025 434.068 408.256L438.898 408.868C440.702 409.095 442.428 407.86 442.758 406.108L444.14 398.754C448.352 398.823 452.462 398.33 456.386 397.35L458.854 404.087C459.443 405.696 461.27 406.461 462.929 405.798L467.32 404.046C468.963 403.392 469.825 401.568 469.249 399.97L466.868 393.355C470.466 391.465 473.794 389.123 476.763 386.399L481.996 390.722C483.28 391.783 485.214 391.558 486.317 390.222L489.239 386.683C490.334 385.356 490.196 383.418 488.929 382.351L483.882 378.101C486.085 374.804 487.872 371.189 489.159 367.318L495.477 368.422C497.105 368.706 498.677 367.581 498.99 365.909L499.825 361.464C500.139 359.79 499.081 358.191 497.455 357.889ZM440.889 385.16C422.6 382.426 410.046 365.492 413.442 347.426C416.836 329.359 434.718 317.933 452.798 321.782C470.262 325.499 481.407 342.179 478.218 359.149C475.027 376.119 458.555 387.801 440.889 385.16Z" fill="#D8DEE8"/>
    <path d="M428.462 234.507C444.011 234.507 456.616 216.807 456.616 194.974C456.616 173.14 444.011 155.441 428.462 155.441C412.914 155.441 400.309 173.14 400.309 194.974C400.309 216.807 412.914 234.507 428.462 234.507Z" fill="#D8DEE8"/>
    <path d="M342.417 99.1812H289.428C235.097 99.1812 191.051 143.192 191.051 197.48V197.481C191.051 226.45 214.554 249.934 243.545 249.934H388.298C417.291 249.934 440.792 226.45 440.792 197.481C440.794 143.19 396.75 99.1812 342.417 99.1812Z" fill="white"/>
    <path d="M333.111 357.421H298.734C263.486 357.421 234.91 328.868 234.91 293.648C234.91 274.853 250.157 259.618 268.967 259.618H362.879C381.689 259.618 396.936 274.854 396.936 293.648C396.936 328.868 368.361 357.421 333.111 357.421Z" fill="white"/>
    <path d="M390.513 228.731H289.791C276.141 228.731 264.942 218.277 264.942 205.38V185.604C264.942 172.709 276.141 162.611 289.791 163.046L390.513 166.256C402.703 166.644 412.475 176.671 412.475 188.654V207.03C412.475 219.015 402.705 228.731 390.513 228.731Z" fill="url(#paint12_linear)"/>
    <path d="M322.062 194.443C322.062 203.055 314.724 209.944 305.6 209.829C296.393 209.713 288.867 202.521 288.867 193.767C288.867 185.014 296.391 178.128 305.6 178.386C314.724 178.643 322.062 185.831 322.062 194.443Z" fill="white"/>
    <path d="M390.13 195.826C390.13 204.149 383.277 210.81 374.759 210.703C366.166 210.594 359.144 203.652 359.144 195.197C359.144 186.742 366.166 180.084 374.759 180.324C383.278 180.562 390.13 187.502 390.13 195.826Z" fill="white"/>
    <path opacity="0.3" d="M352.475 236.145C337.494 218.558 344.151 204.494 324.567 180.661C297.621 147.869 266.186 151.579 258.985 129.338C256.989 123.176 256.761 114.716 262.113 103.024C221.071 114.853 191.051 152.661 191.051 197.48V197.482C191.051 226.45 214.554 249.934 243.545 249.934H369.695C362.14 245.817 356.619 241.011 352.475 236.145Z" fill="white"/>
    <path d="M205.209 234.231C220.758 234.231 233.363 216.531 233.363 194.698C233.363 172.864 220.758 155.165 205.209 155.165C189.661 155.165 177.056 172.864 177.056 194.698C177.056 216.531 189.661 234.231 205.209 234.231Z" fill="#D8DEE8"/>
    <path d="M182.938 211.985C189.736 211.985 195.248 204.245 195.248 194.698C195.248 185.15 189.736 177.411 182.938 177.411C176.139 177.411 170.627 185.15 170.627 194.698C170.627 204.245 176.139 211.985 182.938 211.985Z" fill="#BFC8D6"/>
    <path opacity="0.4" d="M341.577 322.311C336.861 300.179 284.691 300.713 283.272 286.247C282.179 275.095 312.132 264.054 315.895 262.666C319.114 261.479 322.31 260.475 325.473 259.616H268.967C250.159 259.616 234.91 274.851 234.91 293.646C234.91 328.866 263.486 357.419 298.734 357.419H333.112C336.415 357.419 339.66 357.169 342.828 356.684C339.837 352.98 337.886 348.927 337.414 344.504C336.367 334.7 343.404 330.888 341.577 322.311Z" fill="#D8DEE8"/>
    <path d="M316.77 268.079C346.755 268.079 371.063 265.139 371.063 261.511C371.063 257.884 346.755 254.943 316.77 254.943C286.785 254.943 262.477 257.884 262.477 261.511C262.477 265.139 286.785 268.079 316.77 268.079Z" fill="#D8DEE8"/>
    <path d="M497.937 256.082C488.667 252.53 478.531 254.319 470.363 259.981C467.378 245.075 457.897 232.458 443.777 227.048C420.642 218.182 393.816 232.02 383.863 257.954C381.299 264.638 380.107 271.471 380.143 278.087C378.95 277.34 377.675 276.7 376.32 276.18C363.679 271.336 349.024 278.896 343.586 293.066C338.148 307.235 343.799 323.165 356.627 327.492C363.478 329.802 374.318 329.845 374.318 329.845C374.318 329.845 479.754 322 483.007 322.027C495.995 322.135 508.797 313.258 514.23 299.098C521.027 281.394 513.731 262.135 497.937 256.082Z" fill="url(#paint13_linear)"/>
    <path d="M501.072 256.095C491.803 252.543 481.667 254.332 473.499 259.993C470.514 245.087 461.033 232.471 446.913 227.061C423.777 218.195 396.952 232.033 386.999 257.967C384.435 264.651 383.243 271.484 383.278 278.1C382.086 277.352 380.811 276.712 379.455 276.193C366.814 271.349 352.16 278.909 346.722 293.078C341.283 307.248 347.121 322.661 359.762 327.504C362.437 328.53 377.453 329.858 377.453 329.858C377.453 329.858 482.89 322.013 486.143 322.04C499.131 322.148 511.933 313.271 517.366 299.111C524.163 281.407 516.867 262.148 501.072 256.095Z" fill="url(#paint14_linear)"/>
    <path d="M251.432 279.252C247.397 282.557 246.807 288.504 250.114 292.536L277.366 325.762L291.979 313.795L264.727 280.569C261.419 276.538 255.467 275.949 251.432 279.252Z" fill="white"/>
    <path d="M336.855 310.681C336.266 305.501 331.585 301.78 326.401 302.369L283.683 307.224L285.818 325.982L328.536 321.127C333.721 320.538 337.446 315.862 336.855 310.681Z" fill="white"/>
    <path d="M283.683 332.024C291.253 332.024 297.39 325.892 297.39 318.327C297.39 310.763 291.253 304.631 283.683 304.631C276.113 304.631 269.976 310.763 269.976 318.327C269.976 325.892 276.113 332.024 283.683 332.024Z" fill="url(#paint15_linear)"/>
    <path d="M328.137 304.118L335.192 321.422C336.24 323.994 340.217 324.759 343.252 322.934C347.698 320.259 352.558 315.695 350.596 309.093C348.114 300.741 340.73 298.336 334.654 297.848C330.529 297.516 326.884 301.047 328.137 304.118Z" fill="url(#paint16_linear)"/>
    <defs>
        <linearGradient id="paint0_linear" x1="148.5" y1="-8.93751e-07" x2="372.834" y2="538.402" gradientUnits="userSpaceOnUse">
            <stop stop-color="#AD86FF"/>
            <stop offset="1" stop-color="#E05529"/>
        </linearGradient>
        <radialGradient id="paint1_radial" cx="0" cy="0" r="1" gradientUnits="userSpaceOnUse" gradientTransform="translate(326.015 248.717) rotate(90) scale(221.284 230.985)">
            <stop stop-color="#DE5125"/>
            <stop offset="1" stop-color="#844AFF"/>
        </radialGradient>
        <linearGradient id="paint2_linear" x1="283.229" y1="42.0247" x2="227.18" y2="437.293" gradientUnits="userSpaceOnUse">
            <stop stop-color="#FFC444"/>
            <stop offset="0.9964" stop-color="#F36F56"/>
        </linearGradient>
        <linearGradient id="paint3_linear" x1="126.489" y1="188.215" x2="336.586" y2="534.363" gradientUnits="userSpaceOnUse">
            <stop offset="0.00359712" stop-color="#E38DDD"/>
            <stop offset="1" stop-color="#9571F6"/>
        </linearGradient>
        <linearGradient id="paint4_linear" x1="339.059" y1="404.137" x2="338.764" y2="423.314" gradientUnits="userSpaceOnUse">
            <stop stop-color="#444B8C"/>
            <stop offset="0.9964" stop-color="#26264F"/>
        </linearGradient>
        <linearGradient id="paint5_linear" x1="342.391" y1="442.194" x2="311.785" y2="349.45" gradientUnits="userSpaceOnUse">
            <stop stop-color="#444B8C"/>
            <stop offset="0.9964" stop-color="#26264F"/>
        </linearGradient>
        <linearGradient id="paint6_linear" x1="478.264" y1="433.322" x2="193.383" y2="433.322" gradientUnits="userSpaceOnUse">
            <stop stop-color="#FF9085"/>
            <stop offset="1" stop-color="#FB6FBB"/>
        </linearGradient>
        <linearGradient id="paint7_linear" x1="433.019" y1="441.581" x2="428.417" y2="442.141" gradientUnits="userSpaceOnUse">
            <stop stop-color="#FF9085"/>
            <stop offset="1" stop-color="#FB6FBB"/>
        </linearGradient>
        <linearGradient id="paint8_linear" x1="345.457" y1="451.243" x2="345.142" y2="459.372" gradientUnits="userSpaceOnUse">
            <stop stop-color="#444B8C"/>
            <stop offset="0.9964" stop-color="#26264F"/>
        </linearGradient>
        <linearGradient id="paint9_linear" x1="324.683" y1="450.438" x2="324.368" y2="458.567" gradientUnits="userSpaceOnUse">
            <stop stop-color="#444B8C"/>
            <stop offset="0.9964" stop-color="#26264F"/>
        </linearGradient>
        <linearGradient id="paint10_linear" x1="298.677" y1="449.431" x2="298.362" y2="457.561" gradientUnits="userSpaceOnUse">
            <stop stop-color="#444B8C"/>
            <stop offset="0.9964" stop-color="#26264F"/>
        </linearGradient>
        <linearGradient id="paint11_linear" x1="328.92" y1="418.624" x2="320.752" y2="225.162" gradientUnits="userSpaceOnUse">
            <stop stop-color="white"/>
            <stop offset="1"/>
        </linearGradient>
        <linearGradient id="paint12_linear" x1="264.942" y1="195.881" x2="412.476" y2="195.881" gradientUnits="userSpaceOnUse">
            <stop stop-color="#444B8C"/>
            <stop offset="0.9964" stop-color="#26264F"/>
        </linearGradient>
        <linearGradient id="paint13_linear" x1="341.526" y1="277.108" x2="516.774" y2="277.108" gradientUnits="userSpaceOnUse">
            <stop stop-color="#40447E"/>
            <stop offset="0.9964" stop-color="#3C3B6B"/>
        </linearGradient>
        <linearGradient id="paint14_linear" x1="469.074" y1="254.689" x2="393.2" y2="340.422" gradientUnits="userSpaceOnUse">
            <stop stop-color="#AA80F9"/>
            <stop offset="0.9964" stop-color="#6165D7"/>
        </linearGradient>
        <linearGradient id="paint15_linear" x1="294.897" y1="304.174" x2="264.312" y2="342.84" gradientUnits="userSpaceOnUse">
            <stop stop-color="#444B8C"/>
            <stop offset="0.9964" stop-color="#26264F"/>
        </linearGradient>
        <linearGradient id="paint16_linear" x1="355.277" y1="315.53" x2="313.946" y2="292.23" gradientUnits="userSpaceOnUse">
            <stop stop-color="#444B8C"/>
            <stop offset="0.9964" stop-color="#26264F"/>
        </linearGradient>
    </defs>
</svg>
