<svg width="648" height="480" viewBox="0 0 648 480" fill="none" xmlns="http://www.w3.org/2000/svg">
    <rect width="648" height="480" rx="24" fill="url(#paint0_linear)"/>
    <path opacity="0.2" d="M324 470C451.026 470 554 367.026 554 240C554 112.975 451.026 10 324 10C196.975 10 94 112.975 94 240C94 367.026 196.975 470 324 470Z" fill="url(#paint1_radial)"/>
    <path d="M554 393.23L99.9294 389.491V400.55C99.9294 403.551 101.91 406.103 104.592 406.558L232.991 428.334C234.515 428.593 236.06 428.661 237.596 428.537L549.067 403.709C551.847 403.488 554.001 400.927 554.001 397.844V393.23H554Z" fill="url(#paint2_linear)"/>
    <path d="M389.22 375.303L104.624 395.533C99.5314 395.895 95.3899 392.049 95.3899 386.941V182.297C95.3899 177.189 99.5298 173.049 104.624 173.049H389.219C393.414 173.049 396.807 176.792 396.807 181.409V366.403C396.807 371.02 393.415 375.006 389.22 375.303Z" fill="url(#paint3_linear)"/>
    <path d="M393.758 375.303L109.162 395.533C104.07 395.895 99.928 392.049 99.928 386.941V182.297C99.928 177.189 104.068 173.049 109.162 173.049H393.757C397.952 173.049 401.345 176.792 401.345 181.409V366.403C401.345 371.02 397.954 375.006 393.758 375.303Z" fill="url(#paint4_linear)"/>
    <path d="M384.891 362.26L119.821 379.832C115.676 380.107 112.308 376.95 112.308 372.78V193.614C112.308 189.444 115.676 186.049 119.821 186.032L384.891 184.928C388.352 184.914 391.152 187.981 391.152 191.778V354.969C391.152 358.766 388.353 362.031 384.891 362.26Z" fill="url(#paint5_linear)"/>
    <path d="M261.511 178.645C261.511 180.547 260.046 182.093 258.236 182.098C256.425 182.104 254.956 180.562 254.956 178.657C254.956 176.751 256.425 175.206 258.236 175.205C260.046 175.203 261.511 176.743 261.511 178.645Z" fill="white"/>
    <path opacity="0.48" d="M325.189 319.177C303.25 307.304 285.998 322.349 269.35 307.504C259.257 298.504 264.212 291.793 251.792 278.345C238.036 263.448 229.08 268.455 215.256 255.05C197.775 238.098 206.518 224.909 191.462 212.739C173.196 197.973 153.496 211.64 136.109 197.479C128.609 191.371 124.494 182.492 122.345 173.05H105.331C102.351 173.05 99.9294 175.481 99.9294 178.479V390.61C99.9294 393.608 102.351 395.866 105.331 395.653L395.38 374.944C396.804 374.843 398.066 374.006 398.876 372.794C377.644 372.015 364.6 364.857 356.262 357.455C339.95 342.974 342.779 328.695 325.189 319.177Z" fill="white"/>
    <path d="M405.101 374.386L99.9294 395.68L232.991 418.247C234.515 418.506 236.06 418.574 237.596 418.451L554.001 393.229L409.956 374.53C408.344 374.322 406.72 374.273 405.101 374.386Z" fill="url(#paint6_linear)"/>
    <path opacity="0.3" d="M144.458 396.215L398.522 378.223L477.154 388.348L225.278 407.58L144.458 396.215Z" fill="url(#paint7_linear)"/>
    <path d="M452.436 59.1912L223.844 51.4105C216.194 51.1499 209.969 57.1758 209.969 64.8697V231.703C209.969 239.397 216.195 245.49 223.844 245.315L452.438 240.058C459.064 239.907 464.415 234.01 464.415 226.89V72.4925C464.414 65.3719 459.062 59.4171 452.436 59.1912Z" fill="url(#paint8_linear)"/>
    <path opacity="0.74" d="M214.411 228.196V68.4253C214.411 61.3047 220.166 55.7211 227.238 55.9517L449.476 63.227C455.628 63.4292 460.599 68.9465 460.599 75.5537V223.786C460.599 230.393 455.628 235.855 449.476 235.99L227.238 240.81C220.166 240.965 214.411 235.317 214.411 228.196Z" fill="white"/>
    <path d="M452.436 59.1912L223.844 51.4105C216.194 51.1499 209.969 57.1758 209.969 64.8697V74.8633L464.415 81.7406V72.4925C464.414 65.3719 459.062 59.4171 452.436 59.1912Z" fill="url(#paint9_linear)"/>
    <path d="M234.64 64.2695C234.64 66.7699 232.626 68.738 230.14 68.6654C227.649 68.5927 225.628 66.503 225.628 63.9963C225.628 61.4896 227.65 59.5215 230.14 59.6004C232.627 59.6778 234.64 61.7691 234.64 64.2695Z" fill="white"/>
    <path d="M250.351 64.7466C250.351 67.2343 248.356 69.1945 245.892 69.1235C243.425 69.0524 241.422 66.9706 241.422 64.4765C241.422 61.9808 243.425 60.0222 245.892 60.1012C248.356 60.177 250.351 62.2572 250.351 64.7466Z" fill="white"/>
    <path d="M265.916 65.2189C265.916 67.6956 263.94 69.6463 261.498 69.5752C259.053 69.5042 257.069 67.4334 257.069 64.9504C257.069 62.4673 259.053 60.5166 261.498 60.594C263.94 60.6714 265.916 62.7422 265.916 65.2189Z" fill="white"/>
    <path d="M450.433 182.104L226.142 183.162V117.195L450.433 120.491V182.104Z" fill="url(#paint10_linear)"/>
    <path d="M450.433 197.662L226.142 199.82V192.736L450.433 191.046V197.662Z" fill="white"/>
    <path d="M450.433 213.892L226.142 217.198V210.114L450.433 207.275V213.892Z" fill="white"/>
    <path d="M346.769 102.902L226.142 100.537V107.62L346.769 109.733V102.902Z" fill="white"/>
    <path d="M437.635 104.682V111.325L450.433 111.549V104.933L437.635 104.682Z" fill="white"/>
    <g opacity="0.5">
        <path opacity="0.5" d="M363.468 144.65C336.763 105.792 290.569 118.056 261.368 75.1571C256.104 67.4238 252.531 59.5561 250.081 52.3029L223.844 51.4105C216.194 51.1499 209.969 57.1758 209.969 64.8697V231.703C209.969 239.397 216.195 245.49 223.844 245.315L397.699 241.317C392.496 233.838 387.693 225.481 383.629 216.144C368.044 180.341 379.585 168.105 363.468 144.65Z" fill="white"/>
    </g>
    <path d="M512.984 98.7964L366.226 97.2485C359.285 97.1758 353.637 103.056 353.637 110.384V342.061C353.637 349.389 359.285 354.941 366.226 354.462L512.984 344.353C519.284 343.919 524.371 337.94 524.371 330.997V111.488C524.371 104.544 519.284 98.8627 512.984 98.7964Z" fill="url(#paint11_linear)"/>
    <path opacity="0.74" d="M357.668 338.542V113.671C357.668 106.888 362.89 101.439 369.307 101.497L510.173 102.799C516.022 102.853 520.746 108.119 520.746 114.56V328.138C520.746 334.579 516.022 340.12 510.173 340.515L369.307 350.035C362.888 350.469 357.668 345.324 357.668 338.542Z" fill="white"/>
    <path d="M512.984 98.7964L366.226 97.2485C359.285 97.1758 353.637 103.056 353.637 110.384V119.902L524.371 120.505V111.488C524.371 104.544 519.284 98.8627 512.984 98.7964Z" fill="url(#paint12_linear)"/>
    <path d="M376.025 109.253C376.025 111.635 374.197 113.555 371.94 113.543C369.68 113.53 367.846 111.584 367.846 109.196C367.846 106.808 369.68 104.887 371.94 104.906C374.197 104.925 376.025 106.871 376.025 109.253Z" fill="white"/>
    <path d="M390.288 109.351C390.288 111.722 388.477 113.635 386.24 113.622C384 113.609 382.182 111.673 382.182 109.296C382.182 106.918 384 105.006 386.24 105.025C388.477 105.042 390.288 106.98 390.288 109.351Z" fill="white"/>
    <path d="M404.427 109.447C404.427 111.809 402.631 113.712 400.415 113.699C398.194 113.687 396.392 111.758 396.392 109.392C396.392 107.026 398.194 105.121 400.415 105.14C402.631 105.159 404.427 107.087 404.427 109.447Z" fill="white"/>
    <path d="M511.081 287.937L368.311 295.162V159.864L511.081 158.608V287.937Z" fill="url(#paint13_linear)"/>
    <path d="M511.081 303.107L368.311 311.031V304.284L511.081 296.656V303.107Z" fill="white"/>
    <path d="M511.081 318.931L368.311 327.585V320.837L511.081 312.48V318.931Z" fill="white"/>
    <path d="M477.965 143.568L368.311 143.995V150.744L477.965 150.088V143.568Z" fill="white"/>
    <path d="M498.917 143.486V149.962L511.081 149.889V143.438L498.917 143.486Z" fill="white"/>
    <g opacity="0.15">
        <path opacity="0.15" d="M474.422 237.269C450.824 206.201 421.219 205.312 404.731 172.067C392.797 148.002 394.49 120.6 399.786 97.6037L366.224 97.2499C359.284 97.1773 353.635 103.058 353.635 110.385V342.063C353.635 349.39 359.284 354.942 366.224 354.464L498.175 345.375C502.237 286.703 488.12 255.302 474.422 237.269Z" fill="white"/>
    </g>
    <path d="M151.026 303.843C151.026 303.843 98.9296 204.143 169.869 138.746L154.351 133.942L205.338 125.445L185.756 163.132L180.953 149.962C180.953 149.962 128.876 189.498 151.026 303.843Z" fill="url(#paint14_linear)"/>
    <path opacity="0.69" d="M173.21 332.951C173.21 332.951 274.501 381.884 337.633 308.921L342.923 324.28L349.813 273.05L312.76 293.808L326.074 298.195C326.074 298.196 288.197 351.491 173.21 332.951Z" fill="white"/>
    <path d="M151.607 450.14C143.539 449.501 133.217 447.258 123.31 440.782C112.591 433.773 98.6296 419.373 102.274 410.297C103.634 406.909 107.551 404.007 110.994 404.284C116.08 404.693 116.673 411.758 125.507 419.442C127.139 420.862 135.58 428.206 139.775 425.732C141.861 424.502 142.477 421.093 142.138 418.501C141.143 410.924 131.891 409.76 122.997 401.556C113.979 393.239 106.462 378.73 110.759 368.923C113.228 363.285 119.759 358.834 124.052 360.085C125.888 360.621 127.05 362.12 132.621 374.154C137.194 384.032 138.211 386.912 141.158 387.849C144.193 388.812 148.911 387.604 150.704 384.614C155.373 376.828 135.191 365.332 133.357 343.544C132.536 333.78 135.177 319.308 144.019 316.206C149.996 314.108 158.513 317.312 161.591 322.796C164.366 327.74 160.996 331.459 163.112 342.563C163.755 345.934 165.077 352.868 167.867 353.232C171.143 353.658 174.807 344.816 175.654 342.663C182.03 326.451 174.719 318.114 180.732 310.243C185.42 304.107 195.624 301.641 203.706 304.742C210.779 307.454 216.437 314.508 216.815 321.818C217.199 329.256 210.944 336.661 198.432 351.469C192.499 358.491 187.778 363.236 188.047 370.216C188.178 373.619 189.527 378.405 191.964 378.842C197.342 379.807 199.991 358.147 212.74 354.802C219.265 353.089 227.374 356.454 230.937 362.336C235.303 369.543 232.378 379.758 226.894 385.129C219.737 392.137 212.398 386.811 198.934 394.339C192.961 397.678 183.574 404.781 184.948 410.655C185.546 413.213 188.227 415.718 191.169 416.051C197.764 416.8 199.942 405.993 210.544 401.241C218.183 397.819 228.745 398.188 231.253 402.497C234.794 408.578 222.215 422.387 215.526 428.487C207.44 435.865 188.372 449.85 151.607 450.14Z" fill="url(#paint15_linear)"/>
    <path opacity="0.5" d="M155.23 446.677C154.164 428.601 166.137 391.782 174.848 374.375C183.371 357.343 191.526 330.398 191.607 330.128L192.138 330.287C192.056 330.558 183.889 357.549 175.344 374.623C166.66 391.976 154.723 428.659 155.783 446.645L155.23 446.677Z" fill="white"/>
    <path d="M132.591 452.497C126.516 444.062 117.604 428.844 116.006 408.484C115.347 400.095 114.061 383.707 124.085 369.573C129.081 362.529 139.677 352.109 146.837 355.114C151.443 357.048 154.303 364.405 153.003 369.998C151.692 375.639 146.925 376.162 141.733 385.732C139.813 389.273 137.617 393.432 139.304 395.779C140.711 397.741 144.58 398.098 147.481 396.921C153.472 394.492 151.601 387.032 158.077 381.682C162.683 377.879 170.359 376.089 173.673 379.205C176.549 381.911 176.049 388.231 173.507 392.443C169.437 399.19 162.138 397.21 157.38 404.585C155.27 407.857 153.769 412.799 155.616 414.753C157.721 416.98 163.916 415.054 167.887 412.592C173.13 409.343 173.322 405.885 176.775 405.451C180.626 404.968 185.44 408.635 186.194 412.691C187.249 418.375 180.277 424.503 174.756 427.165C167.69 430.573 162.438 428.572 158.986 433.23C157.72 434.939 156.559 437.729 157.598 439.422C159.08 441.837 164.437 441.039 167.995 440.51C176.65 439.221 179.034 436.083 182.136 437.607C185.276 439.152 186.897 444.367 185.538 448.025C184.783 450.058 182.517 453.208 171.282 455.181C163.412 456.568 150.201 457.539 132.591 452.497Z" fill="url(#paint16_linear)"/>
    <defs>
        <linearGradient id="paint0_linear" x1="148.5" y1="-8.93751e-07" x2="372.834" y2="538.402" gradientUnits="userSpaceOnUse">
            <stop stop-color="#AD86FF"/>
            <stop offset="1" stop-color="#E05529"/>
        </linearGradient>
        <radialGradient id="paint1_radial" cx="0" cy="0" r="1" gradientUnits="userSpaceOnUse" gradientTransform="translate(324 240) rotate(90) scale(230)">
            <stop stop-color="#DE5125"/>
            <stop offset="1" stop-color="#844AFF"/>
        </radialGradient>
        <linearGradient id="paint2_linear" x1="291.782" y1="410.475" x2="259.901" y2="423.865" gradientUnits="userSpaceOnUse">
            <stop stop-color="#40447E"/>
            <stop offset="0.9964" stop-color="#3C3B6B"/>
        </linearGradient>
        <linearGradient id="paint3_linear" x1="240.092" y1="276.859" x2="207.524" y2="290.538" gradientUnits="userSpaceOnUse">
            <stop stop-color="#40447E"/>
            <stop offset="0.9964" stop-color="#3C3B6B"/>
        </linearGradient>
        <linearGradient id="paint4_linear" x1="99.929" y1="284.302" x2="401.345" y2="284.302" gradientUnits="userSpaceOnUse">
            <stop stop-color="#40447E"/>
            <stop offset="0.9964" stop-color="#3C3B6B"/>
        </linearGradient>
        <linearGradient id="paint5_linear" x1="290.452" y1="211.005" x2="58.721" y2="589.836" gradientUnits="userSpaceOnUse">
            <stop stop-color="#FFC444"/>
            <stop offset="0.9964" stop-color="#F36F56"/>
        </linearGradient>
        <linearGradient id="paint6_linear" x1="99.9289" y1="396.418" x2="554" y2="396.418" gradientUnits="userSpaceOnUse">
            <stop stop-color="#40447E"/>
            <stop offset="0.9964" stop-color="#3C3B6B"/>
        </linearGradient>
        <linearGradient id="paint7_linear" x1="144.458" y1="392.902" x2="477.154" y2="392.902" gradientUnits="userSpaceOnUse">
            <stop stop-color="#40447E"/>
            <stop offset="0.9964" stop-color="#3C3B6B"/>
        </linearGradient>
        <linearGradient id="paint8_linear" x1="409.545" y1="1.18985" x2="200.513" y2="419.254" gradientUnits="userSpaceOnUse">
            <stop stop-color="#FF9085"/>
            <stop offset="1" stop-color="#FB6FBB"/>
        </linearGradient>
        <linearGradient id="paint9_linear" x1="315.294" y1="-14.7774" x2="358.479" y2="157.963" gradientUnits="userSpaceOnUse">
            <stop stop-color="#AB316D"/>
            <stop offset="1" stop-color="#792D3D"/>
        </linearGradient>
        <linearGradient id="paint10_linear" x1="226.141" y1="150.178" x2="450.434" y2="150.178" gradientUnits="userSpaceOnUse">
            <stop stop-color="#FF9085"/>
            <stop offset="1" stop-color="#FB6FBB"/>
        </linearGradient>
        <linearGradient id="paint11_linear" x1="353.637" y1="225.871" x2="524.372" y2="225.871" gradientUnits="userSpaceOnUse">
            <stop offset="0.00359712" stop-color="#E38DDD"/>
            <stop offset="1" stop-color="#9571F6"/>
        </linearGradient>
        <linearGradient id="paint12_linear" x1="440.051" y1="105.593" x2="423.086" y2="258.931" gradientUnits="userSpaceOnUse">
            <stop stop-color="#40447E"/>
            <stop offset="0.9964" stop-color="#3C3B6B"/>
        </linearGradient>
        <linearGradient id="paint13_linear" x1="368.311" y1="226.885" x2="511.082" y2="226.885" gradientUnits="userSpaceOnUse">
            <stop offset="0.00359712" stop-color="#E38DDD"/>
            <stop offset="1" stop-color="#9571F6"/>
        </linearGradient>
        <linearGradient id="paint14_linear" x1="210.191" y1="103.888" x2="68.5506" y2="387.168" gradientUnits="userSpaceOnUse">
            <stop stop-color="#FB6FBB"/>
            <stop offset="1" stop-color="#FF9085"/>
        </linearGradient>
        <linearGradient id="paint15_linear" x1="228.208" y1="279.601" x2="159.021" y2="411.62" gradientUnits="userSpaceOnUse">
            <stop stop-color="#AA80F9"/>
            <stop offset="0.9964" stop-color="#6165D7"/>
        </linearGradient>
        <linearGradient id="paint16_linear" x1="179.857" y1="378.932" x2="100.445" y2="474.13" gradientUnits="userSpaceOnUse">
            <stop offset="0.00359712" stop-color="#E38DDD"/>
            <stop offset="1" stop-color="#9571F6"/>
        </linearGradient>
    </defs>
</svg>
