<svg width="648" height="480" viewBox="0 0 648 480" fill="none" xmlns="http://www.w3.org/2000/svg">
    <rect width="648" height="480" rx="24" fill="url(#paint0_linear)"/>
    <path opacity="0.2" d="M331.343 10.1054C210.514 6.52888 105.85 94.4167 90.0367 209.737C72.7484 335.824 167.905 449.272 284.993 467.442C430.629 490.042 571.889 359.294 559.205 217.452C549.649 110.584 454.17 13.741 331.343 10.1054Z" fill="url(#paint1_radial)"/>
    <path d="M535.478 412.592L116.906 409.015V419.598C116.906 422.47 118.731 424.913 121.204 425.348L239.564 446.188C240.968 446.436 242.393 446.5 243.81 446.384L530.929 422.625C533.492 422.413 535.477 419.963 535.477 417.011V412.592H535.478Z" fill="#26264F"/>
    <path d="M383.58 395.634L121.234 414.994C116.539 415.34 112.722 411.659 112.722 406.771V210.931C112.722 206.044 116.539 202.081 121.234 202.081H383.58C387.447 202.081 390.574 205.663 390.574 210.082V387.116C390.574 391.535 387.447 395.348 383.58 395.634Z" fill="#26264F"/>
    <path d="M387.764 395.634L125.418 414.994C120.723 415.34 116.906 411.659 116.906 406.771V210.931C116.906 206.044 120.723 202.081 125.418 202.081H387.764C391.631 202.081 394.758 205.663 394.758 210.082V387.116C394.758 391.535 391.631 395.348 387.764 395.634Z" fill="url(#paint2_linear)"/>
    <path d="M379.591 383.152L135.243 399.968C131.423 400.231 128.319 397.21 128.319 393.219V221.763C128.319 217.772 131.423 214.524 135.243 214.508L379.591 213.451C382.781 213.438 385.361 216.372 385.361 220.008V376.175C385.361 379.809 382.781 382.933 379.591 383.152Z" fill="url(#paint3_linear)"/>
    <path d="M265.856 207.437C265.856 209.257 264.506 210.736 262.839 210.741C261.169 210.746 259.815 209.272 259.815 207.448C259.815 205.625 261.171 204.145 262.839 204.145C264.506 204.143 265.856 205.618 265.856 207.437Z" fill="white"/>
    <path opacity="0.48" d="M125.416 414.994L386.434 395.731L387.762 395.633C389.537 395.501 391.149 394.622 392.382 393.288C373.599 392.258 361.932 385.577 354.406 378.672C339.293 364.806 341.915 351.132 325.617 342.016C305.288 330.646 289.305 345.054 273.88 330.838C264.528 322.22 269.119 315.793 257.612 302.913C244.867 288.648 236.57 293.444 223.76 280.605C207.565 264.372 215.664 251.741 201.715 240.085C184.79 225.945 166.538 239.032 150.428 225.472C143.48 219.624 139.666 211.12 137.676 202.078H125.419C120.724 202.078 116.907 206.04 116.907 210.928V406.766C116.906 411.659 120.722 415.339 125.416 414.994Z" fill="white"/>
    <path d="M398.22 394.56L116.906 414.938L239.564 436.533C240.968 436.781 242.393 436.847 243.81 436.729L535.478 412.592L402.694 394.698C401.209 394.497 399.713 394.451 398.22 394.56Z" fill="url(#paint4_linear)"/>
    <path d="M157.954 415.112L392.156 397.895L464.639 407.584L232.455 425.989L157.954 415.112Z" fill="#26264F"/>
    <g opacity="0.67">
        <path opacity="0.67" d="M219.263 288.191C224.255 278.467 233.577 271.393 244.471 269.801L245.229 222.673C214.099 224.228 187.063 244.445 174.883 272.88L219.263 288.191Z" fill="white"/>
        <path opacity="0.67" d="M279.973 307.528C277.352 323.201 264.229 335.677 248.278 336.459C243.548 336.69 239.041 335.87 234.96 334.198L210.515 375.933C221.836 381.504 234.711 384.229 248.278 383.349C288.308 380.75 320.4 347.567 323.999 307.656L279.973 307.528Z" fill="white"/>
        <path opacity="0.67" d="M202.932 371.627L227.499 329.824C220.116 323.966 215.386 314.755 215.386 304.206C215.386 301.658 215.664 299.164 216.189 296.759L171.719 281.557C169.36 289.313 168.089 297.523 168.089 305.99C168.089 334.024 181.963 358.029 202.932 371.627Z" fill="white"/>
    </g>
    <path d="M253.142 269.716C267.7 271.586 278.973 283.518 280.317 298.686L352.874 299.12C352.874 299.087 352.874 299.054 352.874 299.021C352.874 241.587 310.121 194.702 254.397 191.496L253.142 269.716Z" fill="url(#paint5_linear)"/>
    <path d="M113.097 61.0864V179.456C113.097 183.385 116.337 186.571 120.332 186.571H363.33C367.176 186.571 370.293 183.448 370.293 179.595V63.5392L113.097 61.0864Z" fill="#EBEFF2"/>
    <path d="M363.33 48.7321L120.334 46.1364C116.339 46.0937 113.099 49.2447 113.099 53.1744V65.3036L370.295 67.6742V55.7816C370.293 51.9308 367.176 48.7732 363.33 48.7321Z" fill="#D8DEE8"/>
    <path d="M172.438 124.349L185.831 78.3101C206.095 84.9242 220.745 103.756 220.855 125.889L172.438 124.349Z" fill="#D8DEE8"/>
    <path d="M208.337 128.739C207.587 139.267 202.464 148.586 194.748 154.948L173.731 127.602L208.337 128.739Z" fill="white"/>
    <path d="M169.444 122.758C161.336 115.054 151.556 105.744 143.783 98.3086C150.679 91.885 159.999 87.9832 170.245 88.0605C173.353 88.0835 176.371 88.4728 179.261 89.1825L169.444 122.758Z" fill="white"/>
    <path d="M167.753 125.637L138.347 146.819C134.233 140.773 131.832 133.503 131.832 125.69C131.832 116.055 135.484 107.28 141.493 100.632C143.647 102.69 146.039 104.975 148.663 107.476C156.61 115.051 164.595 122.638 167.753 125.637Z" fill="white"/>
    <path d="M168.605 129.046L168.036 163.609C156.841 162.961 146.916 157.571 140.3 149.441L168.605 129.046Z" fill="white"/>
    <path d="M171.864 130.522L192.152 156.908C186.227 160.995 179.066 163.464 171.32 163.661L171.864 130.522Z" fill="white"/>
    <path d="M352.233 101.105L227.71 100.28V88.573L352.233 89.5094V101.105Z" fill="white"/>
    <path d="M352.233 122.087L227.71 121.466V109.758L352.233 110.492V122.087Z" fill="white"/>
    <path d="M352.233 143.07L227.71 142.651V130.944L352.233 131.474V143.07Z" fill="white"/>
    <path d="M352.233 164.053L227.71 163.836V152.129L352.233 152.457V164.053Z" fill="white"/>
    <path d="M129.712 55.7159C129.712 57.4606 128.274 58.862 126.5 58.8439C124.725 58.8275 123.287 57.3982 123.287 55.6519C123.287 53.9055 124.726 52.5058 126.5 52.5239C128.274 52.5419 129.712 53.9696 129.712 55.7159Z" fill="white"/>
    <path d="M434.01 215.467L424.955 229.348L470.22 259.022L479.276 245.141L434.01 215.467Z" fill="white"/>
    <path d="M433.012 238.245C442.46 238.245 450.118 230.568 450.118 221.097C450.118 211.627 442.46 203.949 433.012 203.949C423.565 203.949 415.906 211.627 415.906 221.097C415.906 230.568 423.565 238.245 433.012 238.245Z" fill="url(#paint6_linear)"/>
    <path d="M464.121 261.364C471.879 261.364 478.167 255.059 478.167 247.283C478.167 239.506 471.879 233.202 464.121 233.202C456.363 233.202 450.074 239.506 450.074 247.283C450.074 255.059 456.363 261.364 464.121 261.364Z" fill="url(#paint7_linear)"/>
    <path d="M463.433 179.691C475.334 179.691 484.982 166.099 484.982 149.334C484.982 132.568 475.334 118.977 463.433 118.977C451.531 118.977 441.883 132.568 441.883 149.334C441.883 166.099 451.531 179.691 463.433 179.691Z" fill="url(#paint8_linear)"/>
    <path d="M397.572 75.7769H357.014C315.428 75.7769 281.715 109.572 281.715 151.259C281.715 173.504 299.705 191.537 321.895 191.537H432.689C454.879 191.537 472.869 173.504 472.869 151.259C472.871 109.57 439.158 75.7769 397.572 75.7769Z" fill="url(#paint9_linear)"/>
    <path d="M390.45 274.074H364.138C337.157 274.074 315.287 252.149 315.287 225.104C315.287 210.672 326.957 198.973 341.354 198.973H413.234C427.632 198.973 439.302 210.672 439.302 225.104C439.302 252.15 417.43 274.074 390.45 274.074Z" fill="url(#paint10_linear)"/>
    <path d="M434.385 175.257H357.291C346.843 175.257 338.272 167.228 338.272 157.327V142.142C338.272 132.239 346.843 124.486 357.291 124.819L434.385 127.285C443.715 127.584 451.195 135.283 451.195 144.484V158.595C451.197 167.797 443.717 175.257 434.385 175.257Z" fill="url(#paint11_linear)"/>
    <path d="M381.993 148.927C381.993 155.541 376.377 160.831 369.394 160.742C362.347 160.653 356.588 155.132 356.588 148.409C356.588 141.688 362.347 136.4 369.394 136.599C376.377 136.794 381.993 142.314 381.993 148.927Z" fill="white"/>
    <path d="M434.092 149.988C434.092 156.379 428.848 161.495 422.327 161.412C415.75 161.329 410.375 155.998 410.375 149.505C410.375 143.012 415.749 137.9 422.327 138.085C428.848 138.268 434.092 143.597 434.092 149.988Z" fill="white"/>
    <path opacity="0.3" d="M405.271 180.949C393.806 167.445 398.901 156.645 383.91 138.343C363.285 113.163 339.226 116.012 333.714 98.933C332.187 94.1999 332.011 87.7057 336.108 78.7258C304.695 87.8092 281.717 116.842 281.717 151.258C281.717 173.502 299.706 191.536 321.896 191.536H418.453C412.669 188.377 408.442 184.685 405.271 180.949Z" fill="white"/>
    <path d="M292.553 179.48C304.454 179.48 314.102 165.889 314.102 149.124C314.102 132.358 304.454 118.767 292.553 118.767C280.651 118.767 271.003 132.358 271.003 149.124C271.003 165.889 280.651 179.48 292.553 179.48Z" fill="url(#paint12_linear)"/>
    <path d="M275.505 162.398C280.71 162.398 284.929 156.455 284.929 149.124C284.929 141.792 280.71 135.849 275.505 135.849C270.301 135.849 266.082 141.792 266.082 149.124C266.082 156.455 270.301 162.398 275.505 162.398Z" fill="url(#paint13_linear)"/>
    <path opacity="0.4" d="M396.929 247.115C393.319 230.12 353.388 230.53 352.302 219.421C351.464 210.857 374.39 202.38 377.271 201.314C379.735 200.402 382.181 199.632 384.602 198.971H341.353C326.955 198.971 315.285 210.67 315.285 225.102C315.285 252.149 337.157 274.073 364.136 274.073H390.449C392.978 274.073 395.461 273.88 397.885 273.509C395.595 270.664 394.102 267.552 393.742 264.156C392.942 256.629 398.329 253.701 396.929 247.115Z" fill="url(#paint14_linear)"/>
    <path d="M377.942 205.472C400.893 205.472 419.498 203.214 419.498 200.429C419.498 197.643 400.893 195.385 377.942 195.385C354.991 195.385 336.385 197.643 336.385 200.429C336.385 203.214 354.991 205.472 377.942 205.472Z" fill="url(#paint15_linear)"/>
    <path d="M324.582 215.467L315.526 229.348L360.792 259.022L369.847 245.141L324.582 215.467Z" fill="white"/>
    <path d="M323.579 238.245C333.027 238.245 340.686 230.568 340.686 221.097C340.686 211.627 333.027 203.949 323.579 203.949C314.132 203.949 306.473 211.627 306.473 221.097C306.473 230.568 314.132 238.245 323.579 238.245Z" fill="url(#paint16_linear)"/>
    <path d="M362.655 242.597H402.277L400.704 259.033L361.868 257.73L362.655 242.597Z" fill="white"/>
    <path d="M354.688 261.364C362.446 261.364 368.735 255.059 368.735 247.283C368.735 239.506 362.446 233.202 354.688 233.202C346.93 233.202 340.642 239.506 340.642 247.283C340.642 255.059 346.93 261.364 354.688 261.364Z" fill="url(#paint17_linear)"/>
    <path d="M405.732 242.142C403.331 240.795 399.94 239.847 395.169 240.021C392.903 240.103 391.031 241.83 390.766 244.087L389.384 255.839H409.824L410.491 253.031C411.509 248.743 409.567 244.294 405.732 242.142Z" fill="url(#paint18_linear)"/>
    <path d="M441.824 256.116L368.089 254.84C367.075 254.822 366.116 255.305 365.523 256.131L363.274 259.269C362.155 260.831 363.233 263.013 365.151 263.066L443.201 265.242L441.824 256.116Z" fill="url(#paint19_linear)"/>
    <path d="M520.973 220.144L444.941 216.596C442.691 216.491 440.554 217.582 439.314 219.466L409.965 264.102L490.372 266.205C492.58 266.263 494.666 265.201 495.923 263.381L522.97 224.192C524.123 222.525 522.993 220.238 520.973 220.144Z" fill="url(#paint20_linear)"/>
    <path opacity="0.3" d="M439.313 219.466C440.552 217.58 442.691 216.489 444.941 216.596L446.608 216.673C446.695 219.147 447.298 221.444 448.68 223.358C452.988 229.333 460.997 226.353 466.402 232.732C472.338 239.74 465.938 247.191 471.228 253.698C476.797 260.545 486.835 255.934 497.706 260.8L495.924 263.381C494.669 265.201 492.581 266.263 490.374 266.205L409.967 264.102L439.313 219.466Z" fill="url(#paint21_linear)"/>
    <path opacity="0.68" d="M342.7 314.829V413.572C342.7 416.85 345.144 419.38 348.153 419.221L521.325 410.106C523.919 409.97 526.019 407.399 526.019 404.364V312.949L342.7 314.829Z" fill="white"/>
    <path d="M521.327 301.369L348.154 302.266C345.145 302.282 342.702 304.952 342.702 308.229V318.348L526.021 316.207V306.839C526.021 303.805 523.921 301.356 521.327 301.369Z" fill="url(#paint22_linear)"/>
    <path d="M355.195 310.107C355.195 311.558 354.118 312.742 352.787 312.755C351.455 312.768 350.375 311.6 350.375 310.148C350.375 308.696 351.455 307.51 352.787 307.5C354.116 307.488 355.195 308.656 355.195 310.107Z" fill="white"/>
    <path d="M380.089 404.762L366.464 405.408V332.01L380.089 331.773V404.762Z" fill="white"/>
    <path d="M380.089 404.762L366.464 405.407V370.559L380.089 370.107V404.762Z" fill="url(#paint23_linear)"/>
    <path d="M398.798 403.875L385.381 404.51V331.681L398.798 331.448V403.875Z" fill="white"/>
    <path d="M398.798 403.875L385.381 404.511V387.223L398.798 386.682V403.875Z" fill="url(#paint24_linear)"/>
    <path d="M417.22 403.002L404.008 403.628V331.357L417.22 331.127V403.002Z" fill="white"/>
    <path d="M417.22 403.003L404.008 403.628V394.622L417.22 394.046V403.003Z" fill="url(#paint25_linear)"/>
    <path d="M435.364 402.143L422.352 402.759V331.039L435.364 330.812V402.143Z" fill="white"/>
    <path d="M435.364 402.143L422.352 402.759V346.574L435.364 346.263V402.143Z" fill="url(#paint26_linear)"/>
    <path d="M453.234 401.295L440.417 401.903V330.725L453.234 330.501V401.295Z" fill="white"/>
    <path d="M453.234 401.296L440.417 401.903V352.48L453.234 352.14V401.296Z" fill="url(#paint27_linear)"/>
    <path d="M470.839 400.463L458.211 401.061V330.415L470.839 330.196V400.463Z" fill="white"/>
    <path d="M470.839 400.462L458.211 401.061V340.687L470.839 340.413V400.462Z" fill="url(#paint28_linear)"/>
    <path d="M488.181 399.64L475.742 400.229V330.111L488.181 329.894V399.64Z" fill="white"/>
    <path d="M488.181 399.639L475.742 400.229V357.16L488.181 356.799V399.639Z" fill="url(#paint29_linear)"/>
    <path d="M505.269 398.831L493.014 399.411V329.81L505.269 329.598V398.831Z" fill="white"/>
    <path d="M505.269 398.831L493.014 399.411V375.246L505.269 374.794V398.831Z" fill="url(#paint30_linear)"/>
    <defs>
        <linearGradient id="paint0_linear" x1="148.5" y1="-8.93751e-07" x2="372.834" y2="538.402" gradientUnits="userSpaceOnUse">
            <stop stop-color="#AD86FF"/>
            <stop offset="1" stop-color="#E05529"/>
        </linearGradient>
        <radialGradient id="paint1_radial" cx="0" cy="0" r="1" gradientUnits="userSpaceOnUse" gradientTransform="translate(324 240) rotate(90) scale(230 236)">
            <stop stop-color="#DE5125"/>
            <stop offset="1" stop-color="#844AFF"/>
        </radialGradient>
        <linearGradient id="paint2_linear" x1="116.906" y1="308.548" x2="394.758" y2="308.548" gradientUnits="userSpaceOnUse">
            <stop stop-color="#444B8C"/>
            <stop offset="0.9964" stop-color="#26264F"/>
        </linearGradient>
        <linearGradient id="paint3_linear" x1="128.318" y1="306.718" x2="385.362" y2="306.718" gradientUnits="userSpaceOnUse">
            <stop stop-color="#AA80F9"/>
            <stop offset="0.9964" stop-color="#6165D7"/>
        </linearGradient>
        <linearGradient id="paint4_linear" x1="116.906" y1="415.644" x2="535.478" y2="415.644" gradientUnits="userSpaceOnUse">
            <stop stop-color="#444B8C"/>
            <stop offset="0.9964" stop-color="#26264F"/>
        </linearGradient>
        <linearGradient id="paint5_linear" x1="295.117" y1="253.718" x2="410.934" y2="139.934" gradientUnits="userSpaceOnUse">
            <stop offset="0.00359712" stop-color="#E38DDD"/>
            <stop offset="1" stop-color="#9571F6"/>
        </linearGradient>
        <linearGradient id="paint6_linear" x1="415.906" y1="221.098" x2="450.119" y2="221.098" gradientUnits="userSpaceOnUse">
            <stop stop-color="#40447E"/>
            <stop offset="0.9964" stop-color="#3C3B6B"/>
        </linearGradient>
        <linearGradient id="paint7_linear" x1="450.075" y1="247.283" x2="478.167" y2="247.283" gradientUnits="userSpaceOnUse">
            <stop stop-color="#40447E"/>
            <stop offset="0.9964" stop-color="#3C3B6B"/>
        </linearGradient>
        <linearGradient id="paint8_linear" x1="441.884" y1="149.335" x2="484.981" y2="149.335" gradientUnits="userSpaceOnUse">
            <stop stop-color="#FFC444"/>
            <stop offset="0.9964" stop-color="#F36F56"/>
        </linearGradient>
        <linearGradient id="paint9_linear" x1="281.717" y1="133.657" x2="472.871" y2="133.657" gradientUnits="userSpaceOnUse">
            <stop stop-color="#FCB148"/>
            <stop offset="0.0521" stop-color="#FDBA46"/>
            <stop offset="0.1424" stop-color="#FFC244"/>
            <stop offset="0.3183" stop-color="#FFC444"/>
            <stop offset="0.4849" stop-color="#FDB946"/>
            <stop offset="0.7754" stop-color="#F99C4D"/>
            <stop offset="0.8658" stop-color="#F8924F"/>
            <stop offset="1" stop-color="#F8924F"/>
        </linearGradient>
        <linearGradient id="paint10_linear" x1="315.286" y1="236.524" x2="439.301" y2="236.524" gradientUnits="userSpaceOnUse">
            <stop stop-color="#FCB148"/>
            <stop offset="0.0521" stop-color="#FDBA46"/>
            <stop offset="0.1424" stop-color="#FFC244"/>
            <stop offset="0.3183" stop-color="#FFC444"/>
            <stop offset="0.4849" stop-color="#FDB946"/>
            <stop offset="0.7754" stop-color="#F99C4D"/>
            <stop offset="0.8658" stop-color="#F8924F"/>
            <stop offset="1" stop-color="#F8924F"/>
        </linearGradient>
        <linearGradient id="paint11_linear" x1="338.273" y1="150.032" x2="451.196" y2="150.032" gradientUnits="userSpaceOnUse">
            <stop stop-color="#444B8C"/>
            <stop offset="0.9964" stop-color="#26264F"/>
        </linearGradient>
        <linearGradient id="paint12_linear" x1="271.004" y1="149.123" x2="314.101" y2="149.123" gradientUnits="userSpaceOnUse">
            <stop stop-color="#FFC444"/>
            <stop offset="0.9964" stop-color="#F36F56"/>
        </linearGradient>
        <linearGradient id="paint13_linear" x1="266.083" y1="149.123" x2="284.929" y2="149.123" gradientUnits="userSpaceOnUse">
            <stop stop-color="#FFC444"/>
            <stop offset="0.9964" stop-color="#F36F56"/>
        </linearGradient>
        <linearGradient id="paint14_linear" x1="315.286" y1="236.524" x2="397.886" y2="236.524" gradientUnits="userSpaceOnUse">
            <stop stop-color="#FCB148"/>
            <stop offset="0.0521" stop-color="#FDBA46"/>
            <stop offset="0.1424" stop-color="#FFC244"/>
            <stop offset="0.3183" stop-color="#FFC444"/>
            <stop offset="0.4849" stop-color="#FDB946"/>
            <stop offset="0.7754" stop-color="#F99C4D"/>
            <stop offset="0.8658" stop-color="#F8924F"/>
            <stop offset="1" stop-color="#F8924F"/>
        </linearGradient>
        <linearGradient id="paint15_linear" x1="359.347" y1="344.647" x2="371.354" y2="251.977" gradientUnits="userSpaceOnUse">
            <stop stop-color="#FCB148"/>
            <stop offset="0.0521" stop-color="#FDBA46"/>
            <stop offset="0.1424" stop-color="#FFC244"/>
            <stop offset="0.3183" stop-color="#FFC444"/>
            <stop offset="0.3975" stop-color="#FEC045"/>
            <stop offset="0.7095" stop-color="#FAA34B"/>
            <stop offset="0.8658" stop-color="#F8924F"/>
            <stop offset="1" stop-color="#F8924F"/>
        </linearGradient>
        <linearGradient id="paint16_linear" x1="306.472" y1="221.098" x2="340.686" y2="221.098" gradientUnits="userSpaceOnUse">
            <stop stop-color="#40447E"/>
            <stop offset="0.9964" stop-color="#3C3B6B"/>
        </linearGradient>
        <linearGradient id="paint17_linear" x1="340.642" y1="247.283" x2="368.734" y2="247.283" gradientUnits="userSpaceOnUse">
            <stop stop-color="#40447E"/>
            <stop offset="0.9964" stop-color="#3C3B6B"/>
        </linearGradient>
        <linearGradient id="paint18_linear" x1="389.384" y1="247.919" x2="410.759" y2="247.919" gradientUnits="userSpaceOnUse">
            <stop stop-color="#40447E"/>
            <stop offset="0.9964" stop-color="#3C3B6B"/>
        </linearGradient>
        <linearGradient id="paint19_linear" x1="362.82" y1="260.041" x2="443.2" y2="260.041" gradientUnits="userSpaceOnUse">
            <stop stop-color="#AA80F9"/>
            <stop offset="0.9964" stop-color="#6165D7"/>
        </linearGradient>
        <linearGradient id="paint20_linear" x1="409.966" y1="241.398" x2="523.432" y2="241.398" gradientUnits="userSpaceOnUse">
            <stop stop-color="#AA80F9"/>
            <stop offset="0.9964" stop-color="#6165D7"/>
        </linearGradient>
        <linearGradient id="paint21_linear" x1="409.965" y1="241.398" x2="497.703" y2="241.398" gradientUnits="userSpaceOnUse">
            <stop stop-color="#AA80F9"/>
            <stop offset="0.9964" stop-color="#6165D7"/>
        </linearGradient>
        <linearGradient id="paint22_linear" x1="449.449" y1="286.594" x2="367.37" y2="420.448" gradientUnits="userSpaceOnUse">
            <stop stop-color="#FF9085"/>
            <stop offset="1" stop-color="#FB6FBB"/>
        </linearGradient>
        <linearGradient id="paint23_linear" x1="381.229" y1="362.782" x2="362.237" y2="421.904" gradientUnits="userSpaceOnUse">
            <stop stop-color="#FF9085"/>
            <stop offset="1" stop-color="#FB6FBB"/>
        </linearGradient>
        <linearGradient id="paint24_linear" x1="396.528" y1="381.661" x2="385.931" y2="414.651" gradientUnits="userSpaceOnUse">
            <stop stop-color="#FF9085"/>
            <stop offset="1" stop-color="#FB6FBB"/>
        </linearGradient>
        <linearGradient id="paint25_linear" x1="413.388" y1="390.133" x2="406.769" y2="410.738" gradientUnits="userSpaceOnUse">
            <stop stop-color="#FF9085"/>
            <stop offset="1" stop-color="#FB6FBB"/>
        </linearGradient>
        <linearGradient id="paint26_linear" x1="441.018" y1="336.317" x2="411.975" y2="426.73" gradientUnits="userSpaceOnUse">
            <stop stop-color="#FF9085"/>
            <stop offset="1" stop-color="#FB6FBB"/>
        </linearGradient>
        <linearGradient id="paint27_linear" x1="457.625" y1="343.104" x2="431.835" y2="423.393" gradientUnits="userSpaceOnUse">
            <stop stop-color="#FF9085"/>
            <stop offset="1" stop-color="#FB6FBB"/>
        </linearGradient>
        <linearGradient id="paint28_linear" x1="477.493" y1="330.006" x2="446.523" y2="426.421" gradientUnits="userSpaceOnUse">
            <stop stop-color="#FF9085"/>
            <stop offset="1" stop-color="#FB6FBB"/>
        </linearGradient>
        <linearGradient id="paint29_linear" x1="491.469" y1="348.66" x2="468.768" y2="419.33" gradientUnits="userSpaceOnUse">
            <stop stop-color="#FF9085"/>
            <stop offset="1" stop-color="#FB6FBB"/>
        </linearGradient>
        <linearGradient id="paint30_linear" x1="504.867" y1="369.129" x2="491.199" y2="411.678" gradientUnits="userSpaceOnUse">
            <stop stop-color="#FF9085"/>
            <stop offset="1" stop-color="#FB6FBB"/>
        </linearGradient>
    </defs>
</svg>
