<svg width="536" height="536" viewBox="0 0 536 536" fill="none" xmlns="http://www.w3.org/2000/svg">
    <path opacity="0.2" d="M267.691 536C415.533 536 535.382 416.012 535.382 268C535.382 119.988 415.533 0 267.691 0C119.849 0 0 119.988 0 268C0 416.012 119.849 536 267.691 536Z" fill="url(#paint0_radial)"/>
    <path d="M315.078 398.845L256.083 412.4C256.083 412.4 238.033 384.652 247.588 359.949C267.085 309.545 221.629 295.967 203.442 287.428C176.011 274.55 160.368 253.365 184.831 231.67C212.511 207.124 174.08 167.542 126.786 153.139C80.5066 139.044 78.8297 48.548 181.793 69.8483C243.284 82.5687 248.106 143.634 257.865 173.892C267.624 204.149 314.075 196.166 307.023 237.488C301 272.785 280.91 302.13 305.428 319.812C329.947 337.494 337.652 361.865 315.078 398.845Z" fill="url(#paint1_linear)"/>
    <g opacity="0.3">
        <g opacity="0.3">
            <path opacity="0.3" d="M290.801 410.195L289.523 410.252C289.489 409.46 285.693 330.222 258.274 252.803C233.014 181.48 181.948 97.1539 82.1221 100.458L82.0801 99.1792C126.517 97.7071 165.152 113.178 196.912 145.158C222.281 170.706 243.335 206.787 259.488 252.399C286.965 329.994 290.766 409.401 290.801 410.195Z" fill="white"/>
            <path opacity="0.3" d="M209.606 159.096L208.335 159.226C204.015 116.867 174.934 61.9693 174.642 61.4199L175.768 60.8169C176.063 61.3682 205.262 116.49 209.606 159.096Z" fill="white"/>
            <path opacity="0.3" d="M187.862 138.368C139.942 121.85 103.646 143.397 103.287 143.617L102.624 142.524C102.989 142.3 139.771 120.437 188.279 137.159L187.862 138.368Z" fill="white"/>
            <path opacity="0.3" d="M273.447 304.393C246.047 248.806 162.879 252.736 162.07 252.843L161.822 251.589C162.604 251.409 246.947 247.745 274.592 303.826L273.447 304.393Z" fill="white"/>
            <path opacity="0.3" d="M268.122 279.394L266.844 279.421C266.034 239.873 300.977 204.505 301.331 204.153L302.233 205.058C301.881 205.407 267.321 240.4 268.122 279.394Z" fill="white"/>
            <path opacity="0.3" d="M288.653 397.794C281.613 375.326 244.828 364.706 244.458 364.601L244.804 363.37C246.345 363.804 282.623 374.281 289.871 397.411L288.653 397.794Z" fill="white"/>
            <path opacity="0.3" d="M288.007 379.019L286.732 379.092C285.682 360.502 308.122 334.368 315.497 325.783C316.539 324.569 317.438 323.522 317.562 323.304L318.683 323.918C318.513 324.228 317.916 324.927 316.467 326.617C309.174 335.105 286.986 360.944 288.007 379.019Z" fill="white"/>
        </g>
    </g>
    <path d="M248.177 319.512C248.46 319.54 248.743 319.569 249.026 319.596C265.775 321.202 284.365 319.994 304.728 314.301C308.619 312.911 312.51 311.521 316.402 310.13C316.715 299.726 315.151 289.775 302.019 289.97C281.625 290.273 270.835 257.6 272.288 244.378C274.085 228.013 277.489 189.821 245.951 189.792C219.696 189.769 202.75 195.125 191.386 164.881C180.021 134.636 157.196 120.734 129.897 131.366C101.168 142.553 64.8007 111.056 44.8864 131.718C10.186 167.722 69.4872 223.558 126.603 227.126C183.721 230.693 160.294 258.289 166.852 283.906C175.806 318.878 219.918 296.875 236.437 306.51C242.029 309.774 245.727 314.462 248.177 319.512Z" fill="url(#paint2_linear)"/>
    <g opacity="0.3">
        <g opacity="0.3">
            <path opacity="0.3" d="M279.563 319.106L280.833 318.399C229.209 225.505 132.806 158.149 29.2456 142.616L29.0315 144.054C132.156 159.521 228.155 226.596 279.563 319.106Z" fill="white"/>
            <path opacity="0.3" d="M247.085 270.872L248.469 270.429C235.781 230.629 259.925 188.733 260.169 188.314L258.917 187.579C258.668 188.004 234.198 230.446 247.085 270.872Z" fill="white"/>
            <path opacity="0.3" d="M269.601 302.275L270.609 301.228C240.152 271.832 165.321 290.204 164.569 290.393L164.923 291.804C165.667 291.617 239.723 273.439 269.601 302.275Z" fill="white"/>
            <path opacity="0.3" d="M170.462 200.363L171.556 199.406C149.471 174.106 154.209 122.802 154.261 122.287L152.815 122.145C152.764 122.666 147.968 174.595 170.462 200.363Z" fill="white"/>
            <path opacity="0.3" d="M111.429 167.728L111.777 166.315C74.6522 157.134 29.944 183.044 29.4966 183.308L30.2308 184.562C30.6744 184.302 74.8836 158.689 111.429 167.728Z" fill="white"/>
        </g>
    </g>
    <path d="M508.793 441.35L36.4197 437.23V449.417C36.4197 452.725 38.4809 455.537 41.2706 456.038L174.843 480.036C176.428 480.321 178.036 480.396 179.634 480.262L503.657 452.901C506.55 452.656 508.791 449.836 508.791 446.436V441.35H508.793Z" fill="url(#paint3_linear)"/>
    <path d="M356.731 421.594L41.6204 443.888C35.9816 444.286 31.3965 440.048 31.3965 434.418V208.894C31.3965 203.264 35.9816 198.701 41.6204 198.701H356.731C361.377 198.701 365.133 202.826 365.133 207.914V411.786C365.133 416.876 361.375 421.267 356.731 421.594Z" fill="url(#paint4_linear)"/>
    <path d="M361.756 421.594L46.6455 443.888C41.0068 444.286 36.4216 440.048 36.4216 434.418V208.894C36.4216 203.264 41.0068 198.701 46.6455 198.701H361.756C366.402 198.701 370.158 202.826 370.158 207.914V411.786C370.156 416.876 366.4 421.267 361.756 421.594Z" fill="url(#paint5_linear)"/>
    <path d="M351.939 407.222L58.445 426.587C53.856 426.889 50.1274 423.411 50.1274 418.815V221.366C50.1274 216.77 53.856 213.029 58.445 213.01L351.938 211.794C355.769 211.779 358.869 215.16 358.869 219.344V399.186C358.871 403.372 355.771 406.969 351.939 407.222Z" fill="url(#paint6_linear)"/>
    <path d="M353.892 420.583L36.4216 444.051L174.845 468.919C176.43 469.204 178.038 469.279 179.636 469.145L508.793 441.35L358.941 420.742C357.266 420.513 355.576 420.459 353.892 420.583Z" fill="url(#paint7_linear)"/>
    <path d="M222.838 368.37C250.916 368.37 273.678 345.29 273.678 316.82C273.678 288.35 250.916 265.27 222.838 265.27C194.76 265.27 171.998 288.35 171.998 316.82C171.998 345.29 194.76 368.37 222.838 368.37Z" fill="white"/>
    <path d="M221.046 344.596C218.841 344.596 216.792 343.427 215.652 341.501L196.526 309.22C194.736 306.199 195.7 302.279 198.679 300.464C201.658 298.649 205.524 299.626 207.314 302.648L220.591 325.057L238.142 290.102C239.719 286.961 243.509 285.713 246.605 287.311C249.702 288.91 250.936 292.752 249.358 295.893L226.652 341.112C225.614 343.18 223.551 344.514 221.264 344.594C221.193 344.594 221.121 344.596 221.046 344.596Z" fill="url(#paint8_linear)"/>
    <path opacity="0.3" d="M82.7456 444.641L347.05 424.812L428.849 435.971L166.822 457.168L82.7456 444.641Z" fill="url(#paint9_linear)"/>
    <path opacity="0.48" d="M285.835 359.742C261.542 346.656 242.442 363.237 224.008 346.878C212.832 336.96 218.32 329.563 204.568 314.743C189.336 298.326 179.42 303.845 164.114 289.07C144.76 270.389 154.439 255.854 137.768 242.44C117.543 226.169 95.7324 241.228 76.4797 225.623C68.1755 218.893 63.619 209.107 61.2404 198.701H42.4026C39.1024 198.701 36.4216 201.379 36.4216 204.683V438.461C36.4216 441.765 39.1024 444.254 42.4026 444.018L363.551 421.196C365.127 421.085 366.525 420.162 367.421 418.828C343.912 417.971 329.471 410.08 320.237 401.923C302.178 385.968 305.31 370.232 285.835 359.742Z" fill="white"/>
    <path d="M462.557 316.383V492.459C462.557 495.091 459.679 495.865 456.415 496.182L343.503 508.824L341.777 508.993C338.234 509.337 335.329 507.368 335.329 504.617V320.623C335.329 317.872 338.234 315.529 341.777 315.416L344.119 315.342L457.429 315.713C460.693 315.608 462.557 313.749 462.557 316.383Z" fill="url(#paint10_linear)"/>
    <path d="M466.039 316.182V492.21C466.039 494.843 463.375 497.257 460.111 497.572L345.324 508.735C341.782 509.079 338.88 507.111 338.88 504.36V320.419C338.88 317.668 341.782 315.325 345.324 315.214L460.111 311.584C463.375 311.481 466.039 313.55 466.039 316.182Z" fill="url(#paint11_linear)"/>
    <path d="M462.36 326.074V489.19C462.36 491.648 459.868 493.899 456.819 494.192L348.884 504.546C345.589 504.862 342.889 503.024 342.889 500.463V330.465C342.889 327.904 345.589 325.712 348.884 325.595L456.819 321.797C459.868 321.692 462.36 323.616 462.36 326.074Z" fill="url(#paint12_linear)"/>
    <path d="M445.163 397.699C445.163 419.734 427.426 438.785 405.479 440.255C383.458 441.729 365.551 424.952 365.551 402.781C365.551 380.608 383.458 361.547 405.479 360.209C427.426 358.877 445.163 375.663 445.163 397.699Z" fill="white"/>
    <path d="M404.078 421.89C402.351 422.003 400.745 421.199 399.852 419.763L384.846 395.639C383.441 393.378 384.198 390.283 386.538 388.723C388.877 387.165 391.911 387.735 393.315 389.994L403.72 406.74L417.451 378.742C418.682 376.228 421.644 375.076 424.063 376.167C426.48 377.256 427.443 380.176 426.212 382.685L408.468 418.896C407.655 420.554 406.04 421.695 404.25 421.874C404.193 421.882 404.135 421.886 404.078 421.89Z" fill="url(#paint13_linear)"/>
    <g opacity="0.48">
        <path opacity="0.48" d="M428.933 417.477C418.489 396.496 394.084 401.504 384.915 378.623C379.447 364.972 386.254 358.5 382.154 341.847C379.38 330.578 373.32 321.598 366.456 314.546L345.326 315.214C341.784 315.327 338.882 317.668 338.882 320.419V504.361C338.882 507.112 341.784 509.079 345.326 508.735L437.7 499.753C430.86 490.237 427.933 481.286 426.878 473.522C423.602 449.436 438.209 436.113 428.933 417.477Z" fill="white"/>
    </g>
    <path d="M525.078 390.015V511.53C525.078 513.347 523.527 513.85 521.768 514.034L461.174 521.546L460.253 521.643C458.36 521.842 456.807 520.458 456.807 518.569V392.165C456.807 390.275 458.36 388.683 460.253 388.625L461.505 388.589L522.317 389.523C524.074 389.471 525.078 388.198 525.078 390.015Z" fill="url(#paint14_linear)"/>
    <path d="M526.956 389.898V511.396C526.956 513.213 525.52 514.849 523.761 515.035L462.148 521.507C460.255 521.706 458.704 520.322 458.704 518.433V392.046C458.704 390.157 460.255 388.564 462.148 388.508L523.761 386.69C525.52 386.638 526.956 388.082 526.956 389.898Z" fill="url(#paint15_linear)"/>
    <path d="M524.973 396.704V509.273C524.973 510.969 523.63 512.497 521.986 512.667L464.052 518.665C462.291 518.847 460.847 517.556 460.847 515.795V398.976C460.847 397.215 462.291 395.725 464.052 395.666L521.986 393.717C523.628 393.664 524.973 395.006 524.973 396.704Z" fill="url(#paint16_linear)"/>
    <path d="M518.137 446.73C518.137 459.85 507.63 471.209 494.647 472.103C481.637 472.997 471.071 463.049 471.071 449.88C471.071 436.712 481.637 425.347 494.647 424.501C507.63 423.655 518.137 433.607 518.137 446.73Z" fill="white"/>
    <path d="M493.817 461.182C492.796 461.251 491.848 460.776 491.32 459.923L482.456 445.604C481.626 444.262 482.073 442.42 483.454 441.49C484.834 440.56 486.628 440.893 487.456 442.233L493.605 452.172L501.726 435.495C502.454 433.998 504.207 433.305 505.638 433.948C507.07 434.591 507.638 436.325 506.909 437.822L496.41 459.392C495.93 460.38 494.974 461.06 493.917 461.169C493.886 461.177 493.852 461.18 493.817 461.182Z" fill="url(#paint17_linear)"/>
    <g opacity="0.48">
        <path opacity="0.48" d="M506.927 462.666C501.303 448.516 486.15 451.858 481.429 437.556C477.576 425.883 486.148 419.041 482.792 405.525C480.909 397.94 476.276 392.306 471.54 388.231L462.149 388.509C460.257 388.564 458.706 390.157 458.706 392.046V518.431C458.706 520.32 460.257 521.705 462.149 521.505L509.385 516.544C505.594 510.561 504.072 505.094 503.533 500.554C501.575 484.031 512.078 475.631 506.927 462.666Z" fill="white"/>
    </g>
    <path d="M68.8612 514.715C72.6949 495.748 71.0448 480.505 69.3029 471.301C67.19 460.135 62.8955 437.433 44.8703 424.78C43.4496 423.782 29.3481 414.073 23.0153 418.895C19.7494 421.382 19.0037 427.389 20.432 432.129C24.1185 444.369 40.744 443.011 46.268 456.942C48.1075 461.58 48.4478 467.241 47.1648 467.775C45.5854 468.431 41.0806 461.509 40.6523 460.851C36.6369 454.679 36.5987 451.185 33.5374 450.238C31.6579 449.656 29.1798 450.202 28.0708 451.689C25.5469 455.073 30.5336 462.788 31.9275 464.943C35.5738 470.583 38.6178 471.865 39.3597 476.667C39.679 478.734 39.6217 481.791 38.396 482.268C36.7402 482.913 33.5776 478.592 31.5489 475.82C26.0956 468.37 25.5143 464.038 22.8011 463.728C20.2714 463.439 17.4205 466.823 16.6882 468.887C14.6901 474.517 22.7227 486.5 68.8612 514.715Z" fill="url(#paint18_linear)"/>
    <path opacity="0.28" d="M68.2826 511.463C68.8562 493.838 66.0053 479.866 63.424 470.698C60.1066 458.912 53.8656 436.746 36.3547 427.154C35.11 426.472 25.9569 421.457 23.3985 424.143C21.6929 425.932 23.2054 430.848 25.7121 434.103C29.9913 439.656 34.9188 437.453 41.9074 442.904C48.1771 447.795 50.3798 454.383 50.9305 456.107C52.9745 462.503 51.9133 467.985 51.6246 470.005C50.5309 477.674 52.7737 490.243 68.2826 511.463Z" fill="white"/>
    <path opacity="0.28" d="M62.0379 507.062C52.2194 498.258 49.9498 491.045 49.7758 485.984C49.64 482.04 50.7051 477.36 47.6935 473.012C45.7662 470.231 44.3149 470.679 40.984 467.685C34.0279 461.431 33.1636 452.999 31.7296 453.324C30.9323 453.506 30.5173 456.27 31.0355 458.883C32.1044 464.274 36.3148 464.838 40.5213 471.391C43.3952 475.867 44.3914 480.22 44.9172 482.509C46.1983 488.097 45.3283 490.057 46.074 493.164C47.0396 497.19 50.5387 502.387 62.0379 507.062Z" fill="white"/>
    <path d="M62.9613 517.779C45.9419 518.756 40.8825 519.778 32.8613 517.04C25.3239 514.47 17.5934 509.406 18.2722 507.082C18.7597 505.415 23.4902 505.438 26.3163 505.451C33.8996 505.486 40.154 507.812 44.5422 510.061C40.7582 507.49 36.9723 504.917 33.1883 502.346C30.5458 501.399 26.0734 499.391 22.1116 495.147C19.6317 492.49 13.9317 485.292 16.0752 481.835C18.3123 478.223 28.9416 478.952 35.0698 484.075C38.0105 486.532 38.0144 488.414 41.9552 492.706C45.5365 496.605 49.2345 499.083 51.8311 500.576C49.397 497.53 46.0872 492.771 43.5135 486.358C39.6033 476.615 36.6511 461.199 41.6244 458.396C44.9246 456.538 51.4658 460.368 54.7374 464.907C57.3895 468.588 57.1294 471.674 58.9555 483.5C59.749 488.642 60.5272 492.783 61.032 495.352C66.0932 484.235 67.5617 474.884 67.8581 468.01C68.2386 459.177 66.7797 452.257 70.1526 450.416C73.1603 448.775 78.5294 451.976 81.2541 454.979C92.2792 467.137 77.7321 495.669 76.1948 498.615C80.2407 495.549 85.8144 490.75 91.2141 483.814C96.9886 476.398 99.4265 470.877 102.362 471.371C105.281 471.863 107.205 478.085 106.985 482.901C106.375 496.324 88.8623 504.209 86.9942 505.021C88.4665 505.258 90.9656 505.507 93.9102 504.944C100.44 503.696 102.476 499.733 109.1 498.39C111.633 497.875 116.813 497.342 117.452 498.912C118.597 501.732 105.515 512.318 89.6386 516.353C83.822 517.831 85.214 516.503 62.9613 517.779Z" fill="url(#paint19_linear)"/>
    <path opacity="0.28" d="M51.7279 508.068C43.9783 504.619 45.0318 499.929 36.5556 494.123C31.1272 490.403 29.8652 491.759 24.0487 488.204C20.8498 486.249 18.2341 484.006 16.1097 481.789C16.1002 481.804 16.0868 481.82 16.0772 481.835C13.9357 485.292 19.6337 492.49 22.1137 495.147C26.0755 499.391 30.5479 501.399 33.1903 502.347C36.9743 504.917 40.7603 507.49 44.5443 510.061C40.156 507.814 33.9016 505.488 26.3183 505.452C23.8556 505.44 19.9435 505.423 18.6585 506.522C20.9358 507.934 22.9856 508.616 24.6529 508.957C28.4541 509.734 30.8404 508.865 34.1292 510.85C36.7678 512.443 36.548 513.794 38.8711 514.657C41.0566 515.469 42.1752 514.613 47.5692 513.725C52.8178 512.862 55.4852 512.458 57.6057 513.792C59.208 514.801 60.0589 516.463 60.5292 517.925C61.0723 517.892 61.6287 517.858 62.2004 517.825C61.7778 516.147 61.0034 514.221 59.5273 512.502C57.1869 509.776 54.6267 509.359 51.7279 508.068Z" fill="white"/>
    <path opacity="0.28" d="M73.8086 514.03C75.0323 513.737 75.6174 514.613 77.3192 514.834C80.4798 515.245 81.6634 512.634 85.3786 511.394C89.7744 509.925 90.8892 512.657 95.2678 511.298C98.7344 510.222 98.287 508.434 102.817 505.821C107.635 503.042 109.677 504.183 113.218 501.887C114.356 501.15 115.656 500.052 116.892 498.344C115.335 497.5 111.26 497.95 109.104 498.388C102.48 499.734 100.444 503.696 93.9141 504.943C90.9695 505.505 88.4723 505.256 86.9981 505.019C88.8662 504.205 106.379 496.323 106.989 482.9C107.192 478.434 105.551 472.76 102.981 471.569C103.287 474.67 103.329 477.321 103.281 479.406C103.172 484.257 103.086 486.724 101.553 488.748C98.8931 492.258 95.6522 490.428 91.2314 494.077C87.2084 497.4 88.61 499.977 84.413 503.304C80.7896 506.175 78.6442 505.13 75.235 507.458C73.0973 508.918 70.4988 511.685 68.9404 517.473C69.6517 517.441 70.3305 517.412 70.9787 517.385C71.5963 515.741 72.4893 514.345 73.8086 514.03Z" fill="white"/>
    <path opacity="0.28" d="M69.9863 495.735C72.1068 489.952 75.7895 490.547 77.3249 485.453C78.8526 480.39 75.5122 478.816 76.3631 471.486C77.0017 465.994 79.0725 465.185 79.2102 461.431C79.3115 458.663 78.3364 454.893 73.8315 450.219C72.4644 449.859 71.1756 449.859 70.1565 450.414C66.7817 452.255 68.2425 459.176 67.862 468.008C67.5656 474.882 66.0971 484.234 61.0359 495.35C60.5311 492.781 59.7529 488.64 58.9594 483.499C57.1333 471.672 57.3934 468.584 54.7413 464.905C51.4697 460.366 44.9285 456.536 41.6283 458.395C41.439 458.5 41.2631 458.628 41.0986 458.768C42.7449 459.892 44.2631 461.272 45.5385 462.974C49.8904 468.778 47.4142 472.937 51.3588 484.389C55.1524 495.402 59.0014 496.081 62.055 505.597C63.0302 508.637 63.9499 512.659 64.1392 517.713C65.2539 517.651 66.3036 517.596 67.2979 517.548C68.4413 513.8 68.9786 510.446 69.21 507.599C69.7129 501.336 68.5542 499.642 69.9863 495.735Z" fill="white"/>
    <path d="M356.291 142.867L362.735 142.833C362.735 142.833 378.169 123.441 388.599 122.371L389.565 67.739C349.618 67.8711 314.361 90.2223 298.305 123.257L356.291 142.867Z" fill="url(#paint20_linear)"/>
    <path d="M433.356 167.077C430.08 185.027 413.613 199.139 393.441 199.763C388.475 199.916 382.684 196.961 382.684 196.961C382.684 196.961 377.372 197.252 376.464 196.9L344.976 245.316C359.613 251.878 376.146 255.092 393.441 254.104C443.738 251.235 483.282 213.634 487.674 168.371L433.356 167.077Z" fill="url(#paint21_linear)"/>
    <path d="M335.119 240.222L341.419 240.438L366.897 191.664C357.393 184.675 351.283 173.8 351.283 161.464C351.283 158.484 351.643 155.578 352.322 152.781L300.428 133.332L294.116 133.405C290.99 142.505 289.302 152.19 289.302 162.221C289.298 195.435 307.652 224.033 335.119 240.222Z" fill="url(#paint22_linear)"/>
    <path d="M399.609 122.606C417.981 125.321 432.105 139.458 433.784 156.929L522.608 159.485C522.608 159.466 522.608 159.449 522.608 159.429C522.608 159.429 522.608 159.401 522.608 159.374C522.608 159.307 535.998 157.236 535.998 157.228C535.994 156.623 414.659 29.9644 414.659 29.9644L401.2 32.16C401.2 32.16 400.139 92.4581 399.609 122.606Z" fill="url(#paint23_linear)"/>
    <path d="M362.647 142.867C369.079 131.692 381.049 123.799 394.955 122.369L395.921 67.7373C355.974 67.8694 320.717 90.2206 304.661 123.255L362.647 142.867Z" fill="url(#paint24_linear)"/>
    <path d="M439.712 167.077C436.436 185.027 419.969 199.14 399.797 199.764C393.782 199.949 388.034 198.917 382.82 196.9L351.332 245.316C365.969 251.878 382.502 255.092 399.797 254.104C450.094 251.235 489.638 213.634 494.03 168.371L439.712 167.077Z" fill="url(#paint25_linear)"/>
    <path d="M341.475 240.222L373.253 191.664C363.749 184.675 357.639 173.8 357.639 161.464C357.639 158.484 357.999 155.578 358.678 152.781L300.472 133.405C297.346 142.505 295.657 152.19 295.657 162.221C295.654 195.435 314.008 224.033 341.475 240.222Z" fill="url(#paint26_linear)"/>
    <path d="M413.001 120.304C431.373 123.018 445.497 137.155 447.176 154.627L536 157.182C536 157.146 536 157.108 536 157.071C536 92.3627 484.081 36.9862 414.592 29.8574L413.001 120.304Z" fill="url(#paint27_linear)"/>
    <g opacity="0.3">
        <path opacity="0.3" d="M387.651 198.443C385.997 198.021 384.383 197.506 382.817 196.9L351.329 245.316C365.966 251.878 382.5 255.092 399.795 254.104C413.768 253.308 426.91 249.826 438.702 244.248C426.799 242.458 416.174 237.974 407.688 230.505C398.024 221.994 391.754 210.158 387.651 198.443Z" fill="url(#paint28_linear)"/>
    </g>
    <g opacity="0.3">
        <path opacity="0.3" d="M377.081 89.4202C373.341 82.5728 367.995 77.3812 361.995 73.4167C336.75 82.0674 315.954 100.018 304.659 123.255L362.645 142.865C366.67 135.872 372.863 130.164 380.341 126.521C381.855 111.988 383.569 101.302 377.081 89.4202Z" fill="url(#paint29_linear)"/>
    </g>
    <path d="M278.565 99.4739C299.161 99.4739 315.856 86.1673 315.856 69.7527C315.856 53.3381 299.161 40.0315 278.565 40.0315C257.97 40.0315 241.274 53.3381 241.274 69.7527C241.274 86.1673 257.97 99.4739 278.565 99.4739Z" fill="url(#paint30_linear)"/>
    <path d="M278.565 50.3074C271.198 50.3074 265.227 56.2857 265.227 63.6614C265.227 68.4414 270.827 79.5596 274.772 86.7936C276.41 89.801 280.72 89.801 282.361 86.7936C286.303 79.5596 291.906 68.4414 291.906 63.6614C291.904 56.2857 285.932 50.3074 278.565 50.3074ZM278.565 70.8304C274.609 70.8304 271.404 67.6202 271.404 63.6595C271.404 59.6989 274.611 56.4905 278.565 56.4905C282.521 56.4905 285.726 59.7008 285.726 63.6595C285.728 67.6221 282.521 70.8304 278.565 70.8304Z" fill="white"/>
    <g opacity="0.3">
        <path opacity="0.3" d="M287.621 91.903C283.122 83.126 287.671 74.9214 281.588 69.2494C275.408 63.4874 267.38 68.8435 258.737 64.1516C255.397 62.3369 251.681 58.8663 248.92 51.7222C244.125 56.7223 241.276 62.9724 241.276 69.7528C241.276 86.1678 257.972 99.474 278.567 99.474C283.286 99.474 287.799 98.7753 291.954 97.5004C289.904 95.632 288.548 93.712 287.621 91.903Z" fill="url(#paint31_linear)"/>
    </g>
    <path d="M333.371 49.4518C347.444 49.4518 358.853 40.3593 358.853 29.1431C358.853 17.927 347.444 8.83447 333.371 8.83447C319.297 8.83447 307.889 17.927 307.889 29.1431C307.889 40.3593 319.297 49.4518 333.371 49.4518Z" fill="url(#paint32_linear)"/>
    <path d="M325.403 38.8026V19.4855C325.403 18.2451 326.442 17.4296 327.342 17.9636L343.599 27.6231C344.627 28.2338 344.627 30.0562 343.599 30.6668L327.342 40.3263C326.443 40.8585 325.403 40.043 325.403 38.8026Z" fill="white"/>
    <g opacity="0.3">
        <path opacity="0.3" d="M339.558 44.2793C336.484 38.2819 339.593 32.6749 335.436 28.7985C331.214 24.8608 325.726 28.5209 319.822 25.3145C317.539 24.0759 315 21.7041 313.114 16.8208C309.837 20.2378 307.891 24.5086 307.891 29.1411C307.891 40.3569 319.3 49.4498 333.373 49.4498C336.597 49.4498 339.681 48.9731 342.52 48.1021C341.119 46.8272 340.191 45.5159 339.558 44.2793Z" fill="url(#paint33_linear)"/>
    </g>
    <path d="M489.714 282.47C489.8 282.464 489.886 282.456 489.972 282.451C490.129 282.439 490.286 282.426 490.441 282.412C490.527 282.405 490.613 282.395 490.699 282.388C490.854 282.372 491.01 282.357 491.165 282.342C491.248 282.332 491.33 282.322 491.412 282.315C491.573 282.298 491.731 282.278 491.892 282.257C491.966 282.248 492.041 282.238 492.116 282.229C492.284 282.206 492.452 282.183 492.618 282.16C492.682 282.15 492.747 282.141 492.81 282.131C492.991 282.104 493.173 282.075 493.353 282.045C493.401 282.037 493.448 282.03 493.496 282.022C493.699 281.987 493.901 281.951 494.102 281.915C494.127 281.911 494.152 281.905 494.177 281.901C495.785 281.599 497.341 281.199 498.835 280.707C498.833 280.705 498.833 280.705 498.831 280.703C509.686 277.129 517.25 268.829 517.25 259.399C517.25 247.132 504.452 237.094 488.255 236.973C472.509 236.856 459.262 246.106 457.845 258.022C457.838 258.088 457.83 258.153 457.822 258.218C457.811 258.315 457.803 258.413 457.794 258.513C457.786 258.604 457.779 258.698 457.771 258.79C457.765 258.874 457.759 258.957 457.754 259.041C457.746 259.156 457.74 259.273 457.736 259.387C457.735 259.452 457.731 259.519 457.729 259.585C457.723 259.768 457.719 259.954 457.719 260.14C457.719 266.397 460.974 271.976 466.224 276.005C466.563 276.266 466.911 276.518 467.264 276.765C467.62 277.012 467.981 277.251 468.352 277.485C468.538 277.602 468.725 277.717 468.914 277.83C469.293 278.055 469.677 278.276 470.071 278.486C470.463 278.699 470.865 278.902 471.27 279.099C471.614 279.265 471.964 279.426 472.318 279.581C474.301 280.454 476.427 281.155 478.666 281.656C479.096 281.752 479.53 281.842 479.966 281.924C482.609 282.416 485.391 282.636 488.257 282.544C488.502 282.537 488.745 282.525 488.987 282.514C489.064 282.51 489.139 282.504 489.215 282.5C489.379 282.491 489.546 282.481 489.714 282.47Z" fill="url(#paint34_linear)"/>
    <path d="M518.774 259.397C518.774 271.664 506.204 282.022 490.295 282.545C473.924 283.083 460.3 273.058 460.3 260.138C460.3 247.219 473.924 236.847 490.295 236.972C506.202 237.092 518.774 247.131 518.774 259.397Z" fill="url(#paint35_linear)"/>
    <path d="M480.611 275.501L481.897 266.867L477.882 266.944V262.508L482.687 262.436L483.477 257.051L479.274 257.093V252.615L484.167 252.585L485.397 244.244L489.75 244.248L488.53 252.558L492.957 252.529L494.215 244.252L498.5 244.256L497.251 252.5L501.085 252.476V256.869L496.578 256.915L495.808 262.237L499.795 262.177V266.526L495.085 266.614L493.877 275.146L489.508 275.261L490.725 266.697L486.282 266.781L485.054 275.38L480.611 275.501ZM491.498 262.303L492.274 256.961L487.844 257.007L487.062 262.37L491.498 262.303Z" fill="white"/>
    <g opacity="0.3">
        <path opacity="0.3" d="M497.343 276.544C493.852 269.934 497.381 263.605 492.655 259.342C487.813 254.974 481.458 259.168 474.54 255.603C471.842 254.214 468.828 251.526 466.576 245.944C462.645 249.874 460.299 254.801 460.299 260.138C460.299 273.058 473.922 283.083 490.293 282.545C493.978 282.424 497.481 281.775 500.685 280.703C499.108 279.333 498.06 277.903 497.343 276.544Z" fill="url(#paint36_linear)"/>
    </g>
    <defs>
        <radialGradient id="paint0_radial" cx="0" cy="0" r="1" gradientUnits="userSpaceOnUse" gradientTransform="translate(267.691 268) rotate(90) scale(268 267.691)">
            <stop stop-color="#DE5125"/>
            <stop offset="1" stop-color="#844AFF"/>
        </radialGradient>
        <linearGradient id="paint1_linear" x1="131.871" y1="79.0746" x2="326.246" y2="386.067" gradientUnits="userSpaceOnUse">
            <stop offset="0.00359712" stop-color="#E38DDD"/>
            <stop offset="1" stop-color="#9571F6"/>
        </linearGradient>
        <linearGradient id="paint2_linear" x1="86.7543" y1="133.111" x2="308.277" y2="323.92" gradientUnits="userSpaceOnUse">
            <stop stop-color="#FF9085"/>
            <stop offset="1" stop-color="#FB6FBB"/>
        </linearGradient>
        <linearGradient id="paint3_linear" x1="235.949" y1="459.53" x2="202.755" y2="473.455" gradientUnits="userSpaceOnUse">
            <stop stop-color="#40447E"/>
            <stop offset="0.9964" stop-color="#3C3B6B"/>
        </linearGradient>
        <linearGradient id="paint4_linear" x1="191.639" y1="313.111" x2="155.615" y2="328.224" gradientUnits="userSpaceOnUse">
            <stop stop-color="#40447E"/>
            <stop offset="0.9964" stop-color="#3C3B6B"/>
        </linearGradient>
        <linearGradient id="paint5_linear" x1="36.4209" y1="321.308" x2="370.156" y2="321.308" gradientUnits="userSpaceOnUse">
            <stop stop-color="#40447E"/>
            <stop offset="0.9964" stop-color="#3C3B6B"/>
        </linearGradient>
        <linearGradient id="paint6_linear" x1="315.543" y1="154.94" x2="43.9021" y2="534.102" gradientUnits="userSpaceOnUse">
            <stop stop-color="#FFC444"/>
            <stop offset="0.9964" stop-color="#F36F56"/>
        </linearGradient>
        <linearGradient id="paint7_linear" x1="36.4209" y1="444.865" x2="508.793" y2="444.865" gradientUnits="userSpaceOnUse">
            <stop stop-color="#40447E"/>
            <stop offset="0.9964" stop-color="#3C3B6B"/>
        </linearGradient>
        <linearGradient id="paint8_linear" x1="195.627" y1="315.605" x2="250.047" y2="315.605" gradientUnits="userSpaceOnUse">
            <stop stop-color="#FF9085"/>
            <stop offset="1" stop-color="#FB6FBB"/>
        </linearGradient>
        <linearGradient id="paint9_linear" x1="82.745" y1="440.99" x2="428.849" y2="440.99" gradientUnits="userSpaceOnUse">
            <stop stop-color="#40447E"/>
            <stop offset="0.9964" stop-color="#3C3B6B"/>
        </linearGradient>
        <linearGradient id="paint10_linear" x1="474.634" y1="475.558" x2="382.985" y2="397.467" gradientUnits="userSpaceOnUse">
            <stop stop-color="#444B8C"/>
            <stop offset="0.9964" stop-color="#26264F"/>
        </linearGradient>
        <linearGradient id="paint11_linear" x1="398.992" y1="499.655" x2="411.117" y2="174.085" gradientUnits="userSpaceOnUse">
            <stop stop-color="#444B8C"/>
            <stop offset="0.9964" stop-color="#26264F"/>
        </linearGradient>
        <linearGradient id="paint12_linear" x1="431.827" y1="370.538" x2="315.32" y2="527.009" gradientUnits="userSpaceOnUse">
            <stop stop-color="#FFC444"/>
            <stop offset="0.9964" stop-color="#F36F56"/>
        </linearGradient>
        <linearGradient id="paint13_linear" x1="384.14" y1="398.829" x2="426.748" y2="398.829" gradientUnits="userSpaceOnUse">
            <stop stop-color="#FF9085"/>
            <stop offset="1" stop-color="#FB6FBB"/>
        </linearGradient>
        <linearGradient id="paint14_linear" x1="538.003" y1="494.862" x2="480.922" y2="446.227" gradientUnits="userSpaceOnUse">
            <stop stop-color="#444B8C"/>
            <stop offset="0.9964" stop-color="#26264F"/>
        </linearGradient>
        <linearGradient id="paint15_linear" x1="490.479" y1="515.005" x2="498.731" y2="293.423" gradientUnits="userSpaceOnUse">
            <stop stop-color="#444B8C"/>
            <stop offset="0.9964" stop-color="#26264F"/>
        </linearGradient>
        <linearGradient id="paint16_linear" x1="511.518" y1="429.092" x2="437.417" y2="528.612" gradientUnits="userSpaceOnUse">
            <stop stop-color="#FFC444"/>
            <stop offset="0.9964" stop-color="#F36F56"/>
        </linearGradient>
        <linearGradient id="paint17_linear" x1="482.039" y1="447.45" x2="507.23" y2="447.45" gradientUnits="userSpaceOnUse">
            <stop stop-color="#FF9085"/>
            <stop offset="1" stop-color="#FB6FBB"/>
        </linearGradient>
        <linearGradient id="paint18_linear" x1="73.7511" y1="433.58" x2="10.0426" y2="509.248" gradientUnits="userSpaceOnUse">
            <stop offset="0.00359712" stop-color="#E38DDD"/>
            <stop offset="1" stop-color="#9571F6"/>
        </linearGradient>
        <linearGradient id="paint19_linear" x1="68.2239" y1="520.721" x2="65.6001" y2="474.658" gradientUnits="userSpaceOnUse">
            <stop stop-color="#AA80F9"/>
            <stop offset="0.9964" stop-color="#6165D7"/>
        </linearGradient>
        <linearGradient id="paint20_linear" x1="339.927" y1="59.2188" x2="359.632" y2="237.143" gradientUnits="userSpaceOnUse">
            <stop stop-color="#311944"/>
            <stop offset="1" stop-color="#893976"/>
        </linearGradient>
        <linearGradient id="paint21_linear" x1="412.785" y1="199.687" x2="489.645" y2="354.75" gradientUnits="userSpaceOnUse">
            <stop stop-color="#311944"/>
            <stop offset="1" stop-color="#893976"/>
        </linearGradient>
        <linearGradient id="paint22_linear" x1="291.138" y1="134.403" x2="403.995" y2="279.338" gradientUnits="userSpaceOnUse">
            <stop stop-color="#311944"/>
            <stop offset="1" stop-color="#893976"/>
        </linearGradient>
        <linearGradient id="paint23_linear" x1="512.064" y1="34.0125" x2="437.121" y2="138.4" gradientUnits="userSpaceOnUse">
            <stop stop-color="#311944"/>
            <stop offset="1" stop-color="#893976"/>
        </linearGradient>
        <linearGradient id="paint24_linear" x1="346.297" y1="59.3425" x2="365.817" y2="235.607" gradientUnits="userSpaceOnUse">
            <stop stop-color="#FFC444"/>
            <stop offset="0.9964" stop-color="#F36F56"/>
        </linearGradient>
        <linearGradient id="paint25_linear" x1="419.141" y1="199.687" x2="496.001" y2="354.751" gradientUnits="userSpaceOnUse">
            <stop offset="0.00359712" stop-color="#E38DDD"/>
            <stop offset="1" stop-color="#9571F6"/>
        </linearGradient>
        <linearGradient id="paint26_linear" x1="297.517" y1="134.433" x2="406.356" y2="274.207" gradientUnits="userSpaceOnUse">
            <stop stop-color="#AA80F9"/>
            <stop offset="0.9964" stop-color="#6165D7"/>
        </linearGradient>
        <linearGradient id="paint27_linear" x1="530.047" y1="17.0799" x2="447.604" y2="131.915" gradientUnits="userSpaceOnUse">
            <stop stop-color="#FF9085"/>
            <stop offset="1" stop-color="#FB6FBB"/>
        </linearGradient>
        <linearGradient id="paint28_linear" x1="382.279" y1="219.024" x2="457.724" y2="371.232" gradientUnits="userSpaceOnUse">
            <stop offset="0.00359712" stop-color="#E38DDD"/>
            <stop offset="1" stop-color="#9571F6"/>
        </linearGradient>
        <linearGradient id="paint29_linear" x1="337.226" y1="60.4994" x2="356.712" y2="236.449" gradientUnits="userSpaceOnUse">
            <stop stop-color="#FFC444"/>
            <stop offset="0.9964" stop-color="#F36F56"/>
        </linearGradient>
        <linearGradient id="paint30_linear" x1="241.274" y1="69.752" x2="315.858" y2="69.752" gradientUnits="userSpaceOnUse">
            <stop stop-color="#FFC444"/>
            <stop offset="0.9964" stop-color="#F36F56"/>
        </linearGradient>
        <linearGradient id="paint31_linear" x1="250.936" y1="50.5279" x2="299.44" y2="147.75" gradientUnits="userSpaceOnUse">
            <stop stop-color="#FFC444"/>
            <stop offset="0.9964" stop-color="#F36F56"/>
        </linearGradient>
        <linearGradient id="paint32_linear" x1="324.246" y1="12.2007" x2="358.043" y2="74.811" gradientUnits="userSpaceOnUse">
            <stop offset="0.00359712" stop-color="#E38DDD"/>
            <stop offset="1" stop-color="#9571F6"/>
        </linearGradient>
        <linearGradient id="paint33_linear" x1="314.491" y1="16.0074" x2="347.634" y2="82.4418" gradientUnits="userSpaceOnUse">
            <stop offset="0.00359712" stop-color="#E38DDD"/>
            <stop offset="1" stop-color="#9571F6"/>
        </linearGradient>
        <linearGradient id="paint34_linear" x1="509.65" y1="258.577" x2="465.604" y2="260.934" gradientUnits="userSpaceOnUse">
            <stop stop-color="#AA80F9"/>
            <stop offset="0.9964" stop-color="#6165D7"/>
        </linearGradient>
        <linearGradient id="paint35_linear" x1="479.285" y1="240.759" x2="517.197" y2="310.994" gradientUnits="userSpaceOnUse">
            <stop stop-color="#AA80F9"/>
            <stop offset="0.9964" stop-color="#6165D7"/>
        </linearGradient>
        <linearGradient id="paint36_linear" x1="468.337" y1="244.922" x2="505.681" y2="319.777" gradientUnits="userSpaceOnUse">
            <stop stop-color="#AA80F9"/>
            <stop offset="0.9964" stop-color="#6165D7"/>
        </linearGradient>
    </defs>
</svg>