<svg width="536" height="536" viewBox="0 0 536 536" fill="none" xmlns="http://www.w3.org/2000/svg">
    <path opacity="0.2" d="M277.475 20.431C140.863 16.423 22.5261 114.949 4.64792 244.23C-14.8996 385.581 92.6869 512.763 225.07 533.132C389.73 558.468 549.441 411.893 535.102 252.878C524.296 133.075 416.346 24.5082 277.475 20.431Z" fill="url(#paint0_radial)"/>
    <path d="M172.778 460.657C168.918 469.882 161.723 482.693 154.063 497.45H317.317C292.379 450.982 259.759 403.121 285.177 312.406C297.105 269.836 333.975 192.67 307.906 148.602C278.205 98.3969 237.942 127.823 220.944 88.0777C194.377 25.957 133.323 -11.0444 79.2895 29.6397C25.959 69.7929 44.5457 185.359 139.023 300.961C197.482 391.636 192.932 412.482 172.778 460.657Z" fill="url(#paint1_linear)"/>
    <path d="M238.463 487.916C236.577 466.583 233.726 446.555 230.706 425.354L229.701 418.286C227.624 408.167 225.847 398.134 224.129 388.43C220.251 366.518 216.586 345.822 209.718 324.284C209.462 323.006 209.274 321.753 209.078 320.428C208.373 315.694 207.644 310.8 204.244 306.515L204.153 306.33C176.387 191.169 113.245 130.726 38.8521 26.3472H38.2722C112.714 130.795 177.248 190.757 205.047 306.001C208.551 310.467 209.328 315.681 210.013 320.286C210.209 321.6 210.393 322.839 210.632 324.043C217.506 345.59 221.177 366.316 225.06 388.261C226.778 397.958 228.553 407.986 230.634 418.122L231.643 425.22C234.665 446.434 237.519 466.472 239.407 487.832L238.463 487.916Z" fill="#FCFDFE"/>
    <path d="M222.512 384.532C213.552 329.461 233.027 259.649 250.941 210.783C270.342 157.861 292.141 117.422 292.36 117.02L293.191 117.478C292.974 117.88 271.2 158.269 251.823 211.129C233.951 259.885 214.52 329.519 223.445 384.381L222.512 384.532Z" fill="#FCFDFE"/>
    <path d="M151.239 149.914C138.5 92.0109 138.435 28.2675 138.415 7.32251C138.411 3.31635 138.407 0.669251 138.318 0.168247L139.251 0C139.351 0.560825 139.357 2.65083 139.363 7.32251C139.383 28.2432 139.448 91.9062 152.164 149.709L151.239 149.914Z" fill="#FCFDFE"/>
    <path d="M185.574 240.467C158.73 192.898 49.8472 163.137 48.751 162.841L48.9958 161.92C50.0957 162.215 159.361 192.083 186.4 239.996L185.574 240.467Z" fill="#FCFDFE"/>
    <path d="M144.719 276.984C145.598 352.58 181.774 327.67 215.132 335.131C253.632 391.273 257.258 443.361 199.776 488.345L135.729 478.683C111.964 477.571 84.0789 470.251 85.6536 438.358C87.4323 402.286 95.8957 379.376 55.5005 361.662C15.1052 343.947 -2.24809 311.623 14.1111 274.857C31.3253 236.166 -9.05142 184.013 20.4563 158.088C71.8707 112.919 143.803 198.267 144.719 276.984Z" fill="url(#paint2_linear)"/>
    <path d="M160.62 412.266C133.88 382.78 110.712 350.017 91.7579 314.881C72.6425 279.442 58.0732 242.063 48.4525 203.781C42.9364 181.831 39.0413 159.465 36.8787 137.309L37.8431 137.213C40.0021 159.321 43.8879 181.636 49.3929 203.542C58.9932 241.744 73.5328 279.048 92.6111 314.414C111.526 349.48 134.65 382.18 161.336 411.607L160.62 412.266Z" fill="#FCFDFE"/>
    <path d="M91.6835 453.787L91.2439 452.916C103.139 446.808 117.172 442.045 132.95 438.758C140.47 437.192 147.939 436.158 155.15 435.687L155.213 436.661C148.047 437.13 140.622 438.157 133.147 439.716C117.452 442.985 103.502 447.719 91.6835 453.787Z" fill="#FCFDFE"/>
    <path d="M104.227 336.451C71.153 304.205 0.751185 307.151 0.0463695 307.191L0 306.215C0.71409 306.183 71.5258 303.209 104.901 335.75L104.227 336.451Z" fill="#FCFDFE"/>
    <path d="M63.4446 252.295C53.5457 200.853 91.7987 141.405 92.1844 140.811L92.9931 141.347C92.6073 141.938 54.5714 201.06 64.3943 252.108L63.4446 252.295Z" fill="#FCFDFE"/>
    <path d="M464.108 493.793L239.077 478.131C238.807 478.105 238.534 478.105 238.263 478.129L104.248 484.248C101.043 484.541 101.188 493.002 104.827 493.464L315.398 521.883C316.26 521.99 317.132 521.988 317.993 521.876L463.695 501.239C465.639 500.897 466.349 493.958 464.108 493.793Z" fill="url(#paint3_linear)"/>
    <path d="M463.665 493.542L239.079 472.182C238.809 472.156 238.536 472.156 238.265 472.181L104.901 483.982C102.453 484.199 102.39 487.785 104.829 488.087L315.4 514.278C316.262 514.385 317.134 514.383 317.995 514.271L463.695 495.29C464.726 495.158 464.7 493.642 463.665 493.542Z" fill="url(#paint4_linear)"/>
    <path d="M313.172 511.719C313.484 511.719 313.799 511.699 314.107 511.659L444.695 494.649C445.171 494.588 445.158 493.889 444.682 493.844L244.148 474.809C244.104 474.806 244.059 474.804 244.015 474.804C243.974 474.804 243.933 474.806 243.891 474.809L116.412 486.089C115.82 486.142 115.805 487.007 116.395 487.082L312.28 511.665C312.575 511.7 312.875 511.719 313.172 511.719Z" fill="url(#paint5_linear)"/>
    <path d="M387.465 503.537C387.514 503.929 388.741 504.101 390.209 503.922C391.676 503.743 392.827 503.279 392.781 502.886C392.733 502.494 391.505 502.322 390.038 502.501C388.569 502.681 387.417 503.144 387.465 503.537Z" fill="url(#paint6_linear)"/>
    <path d="M281.27 515.655L301.483 518.332C302.96 518.528 304.169 517.799 304.169 516.705C304.169 515.61 302.96 514.58 301.483 514.406L281.27 512.026C280.022 511.879 279.018 512.567 279.018 513.559C279.018 514.552 280.022 515.49 281.27 515.655Z" fill="url(#paint7_linear)"/>
    <path d="M259.19 512.73L275.837 514.934C277.045 515.093 278.031 514.422 278.031 513.433C278.031 512.444 277.045 511.526 275.837 511.384L259.19 509.425C258.154 509.304 257.321 509.939 257.321 510.844C257.321 511.749 258.154 512.594 259.19 512.73Z" fill="url(#paint8_linear)"/>
    <path d="M231.293 509.037L243.958 510.713C244.866 510.833 245.61 510.237 245.61 509.379C245.61 508.521 244.868 507.737 243.958 507.631L231.293 506.139C230.497 506.045 229.856 506.614 229.856 507.408C229.856 508.203 230.496 508.932 231.293 509.037Z" fill="url(#paint9_linear)"/>
    <path opacity="0.6" d="M207.854 485.362C227.424 488.873 240.421 496.023 268.506 496.597C292.833 497.093 293.013 491.443 321.287 489.658C358.329 487.319 367.985 496.388 405.871 495.606C415.749 495.403 428.681 494.503 443.981 491.673L463.666 493.546C464.702 493.645 464.728 495.16 463.695 495.294L317.995 514.273C317.134 514.385 316.262 514.387 315.4 514.28L137.169 492.112C167.75 481.833 191.169 482.367 207.854 485.362Z" fill="white"/>
    <path d="M254.241 495.741C243.813 495.741 228.298 493.923 228.298 488.912C228.298 483.902 243.813 482.083 254.241 482.083C264.668 482.083 280.183 483.902 280.183 488.912C280.183 493.923 264.668 495.741 254.241 495.741ZM254.241 484.076C238.507 484.076 230.277 487.224 230.277 488.911C230.277 490.597 238.507 493.745 254.241 493.745C269.973 493.745 278.204 490.597 278.204 488.911C278.204 487.224 269.975 484.076 254.241 484.076Z" fill="white"/>
    <path opacity="0.6" d="M254.24 491.564C260.504 491.564 265.582 490.377 265.582 488.913C265.582 487.449 260.504 486.262 254.24 486.262C247.976 486.262 242.898 487.449 242.898 488.913C242.898 490.377 247.976 491.564 254.24 491.564Z" fill="white"/>
    <mask id="mask0" mask-type="alpha" maskUnits="userSpaceOnUse" x="112" y="209" width="303" height="285">
        <path d="M414.373 254.933L280.17 476.092L278.944 478.109L277.318 480.794L274.463 485.497L272.391 488.909C272.391 491.184 264.763 493.031 255.177 493.147C254.867 493.153 254.56 493.153 254.244 493.153C244.219 493.153 236.097 491.255 236.097 488.909L234.198 485.437L230.395 478.487L229.099 476.115L227.47 473.14L219.484 458.535L205.725 433.387L190.225 405.047L188.678 402.215L171.551 370.894L160.663 350.991L112.47 262.88C123.625 254.267 149.655 235.622 187.598 222.794C193.235 220.885 199.131 219.107 205.289 217.511C206.71 217.139 208.147 216.778 209.602 216.428C210.692 216.166 211.788 215.908 212.89 215.664C213.758 215.462 214.637 215.269 215.516 215.078C215.522 215.078 215.522 215.078 215.528 215.078C228.652 212.246 242.811 210.283 257.92 209.638C259.738 209.556 261.572 209.496 263.422 209.457C292.273 208.844 317.973 213.198 339.82 219.573C340.558 219.78 341.291 219.999 342.012 220.218C342.224 220.283 342.435 220.343 342.641 220.408C344.969 221.113 347.252 221.846 349.487 222.595C355.6 224.641 361.369 226.822 366.772 229.064C389.569 238.517 405.893 249.061 414.373 254.933Z" fill="url(#paint10_linear)"/>
    </mask>
    <g mask="url(#mask0)">
        <path opacity="0.56" d="M414.373 254.933L280.17 476.092L278.944 478.109L277.318 480.794L274.463 485.497L272.391 488.909C272.391 491.184 264.763 493.031 255.177 493.147C254.867 493.153 254.56 493.153 254.244 493.153C244.219 493.153 236.097 491.255 236.097 488.909L234.198 485.437L230.395 478.487L229.099 476.115L227.47 473.14L219.484 458.535L205.725 433.387L190.225 405.047L188.678 402.215L171.551 370.894L160.663 350.991L112.47 262.88C123.625 254.267 149.655 235.622 187.598 222.794C193.235 220.885 199.131 219.107 205.289 217.511C206.71 217.139 208.147 216.778 209.602 216.428C210.692 216.166 211.788 215.908 212.89 215.664C213.758 215.462 214.637 215.269 215.516 215.078C215.522 215.078 215.522 215.078 215.528 215.078C228.652 212.246 242.811 210.283 257.92 209.638C259.738 209.556 261.572 209.496 263.422 209.457C292.273 208.844 317.973 213.198 339.82 219.573C340.558 219.78 341.291 219.999 342.012 220.218C342.224 220.283 342.435 220.343 342.641 220.408C344.969 221.113 347.252 221.846 349.487 222.595C355.6 224.641 361.369 226.822 366.772 229.064C389.569 238.517 405.893 249.061 414.373 254.933Z" fill="white"/>
    </g>
    <path d="M497.722 175.634L484.528 173.161C485.255 164.208 484.73 155.381 483.088 146.873L495.454 142.465C498.834 141.261 500.625 137.44 499.46 133.921L496.356 124.541C495.185 121.002 491.479 119.084 488.07 120.262L475.882 124.477C472.106 116.267 467.204 108.583 461.321 101.657L469.699 91.8876C472.102 89.0854 471.796 84.739 469.009 82.1704L461.56 75.3021C458.744 72.7055 454.478 72.8738 452.037 75.6891L443.667 85.3428C436.222 79.9701 427.922 75.5377 418.9 72.298L421.298 59.4252C422.005 55.6284 419.506 51.8204 415.704 50.9175L405.527 48.5022C401.676 47.588 397.963 49.9584 397.249 53.7964L394.825 66.8112C385.091 65.8018 375.446 66.2261 366.135 67.9422L361.474 54.8806C360.105 51.0427 355.882 48.8555 352.033 50.0052L341.743 53.0804C337.852 54.2432 335.828 58.3316 337.232 62.2013L342.09 75.5826C333.287 79.6485 325.108 84.9633 317.824 91.3661L306.346 81.6133C303.093 78.8484 298.219 79.041 295.468 82.0564L288.125 90.1005C285.354 93.1364 285.788 97.8361 289.088 100.588L300.995 110.513C295.719 118.368 291.521 127.064 288.654 136.445L272.71 133.456C268.418 132.652 264.319 135.269 263.568 139.304L261.568 150.034C260.817 154.068 263.705 157.957 268.004 158.714L284.404 161.604C284.043 171.226 285.111 180.655 287.446 189.662L271.465 195.19C267.39 196.599 265.291 200.839 266.786 204.651L270.749 214.751C272.235 218.537 276.718 220.431 280.756 218.991L296.954 213.217C301.494 221.278 307.144 228.677 313.728 235.19L302.626 247.995C299.92 251.117 300.337 255.649 303.553 258.105L312.061 264.599C315.242 267.028 319.975 266.469 322.639 263.364L333.684 250.483C341.385 254.976 349.767 258.488 358.681 260.84L355.678 276.96C354.962 280.8 357.577 284.32 361.506 284.819L371.885 286.143C375.763 286.636 379.471 283.959 380.178 280.16L383.147 264.214C392.197 264.362 401.029 263.296 409.463 261.169L414.766 275.773C416.032 279.261 419.957 280.919 423.524 279.484L432.959 275.687C436.487 274.266 438.34 270.314 437.105 266.85L431.987 252.51C439.722 248.414 446.874 243.335 453.252 237.427L464.496 246.799C467.256 249.1 471.411 248.61 473.779 245.715L480.059 238.041C482.415 235.164 482.118 230.963 479.394 228.649L468.549 219.434C473.282 212.288 477.121 204.451 479.887 196.057L493.464 198.45C496.964 199.067 500.34 196.627 501.015 193.004L502.81 183.368C503.491 179.756 501.215 176.29 497.722 175.634ZM376.164 234.76C336.863 228.834 309.889 192.124 317.184 152.958C324.479 113.792 362.904 89.0199 401.756 97.3613C439.288 105.42 463.233 141.579 456.379 178.369C449.526 215.159 414.129 240.484 376.164 234.76Z" fill="#97A6B7"/>
    <path d="M365.006 51.9417L355.672 49.8386L350.852 57.7145L365.006 51.9417Z" fill="#97A6B7"/>
    <path d="M457.427 73.4868L468.241 75.6441L466.74 83.6976L457.427 73.4868Z" fill="#97A6B7"/>
    <path d="M491.474 120.146L502.191 122.63L498.355 128.214L491.474 120.146Z" fill="#97A6B7"/>
    <path d="M498.635 175.926L509.38 178.859L504.823 183.517L498.635 175.926Z" fill="#97A6B7"/>
    <path d="M466.446 247.913L476.745 251.439L479.663 242.978L466.446 247.913Z" fill="#97A6B7"/>
    <path d="M418.635 279.54L427.812 283.079L429.886 276.149L418.635 279.54Z" fill="#97A6B7"/>
    <path d="M367.962 287.528L359.714 284.389L369.105 274.788L367.962 287.528Z" fill="#97A6B7"/>
    <path d="M323.469 269.533L313.919 265.585L323.33 257.675L323.469 269.533Z" fill="#97A6B7"/>
    <path d="M301.051 79.613L311.356 81.9012L305.835 88.7433L301.051 79.613Z" fill="#97A6B7"/>
    <path d="M265.163 157.661L274.402 160.875L275.105 152.894L265.163 157.661Z" fill="#97A6B7"/>
    <path d="M274.888 218.877L283.891 222.158L285.801 216.097L274.888 218.877Z" fill="#97A6B7"/>
    <path d="M508.219 178.515L494.914 176.021C495.647 166.995 495.118 158.097 493.462 149.518L505.93 145.075C509.337 143.86 511.144 140.009 509.97 136.462L506.839 127.005C505.659 123.438 501.922 121.503 498.485 122.69L486.197 126.939C482.389 118.663 477.446 110.915 471.513 103.932L479.959 94.0844C482.383 91.2578 482.074 86.8778 479.264 84.2886L471.754 77.3643C468.914 74.7471 464.615 74.9172 462.153 77.755L453.714 87.4872C446.208 82.0696 437.839 77.6017 428.741 74.334L431.158 61.3565C431.872 57.5279 429.352 53.69 425.518 52.7796L415.257 50.3456C411.373 49.424 407.632 51.8131 406.911 55.6828L404.466 68.8024C394.651 67.7854 384.928 68.2116 375.539 69.9427L370.839 56.7745C369.457 52.9048 365.2 50.7008 361.32 51.8598L350.945 54.9612C347.022 56.1333 344.981 60.2554 346.397 64.155L351.295 77.6447C342.42 81.7444 334.172 87.1021 326.827 93.5553L315.255 83.7222C311.974 80.9349 307.06 81.1274 304.286 84.1671L296.881 92.2767C294.088 95.3369 294.526 100.076 297.853 102.85L309.859 112.857C304.538 120.776 300.307 129.544 297.416 139.001L281.34 135.987C277.013 135.176 272.881 137.814 272.122 141.882L270.108 152.7C269.351 156.768 272.263 160.686 276.598 161.451L293.135 164.365C292.769 174.066 293.847 183.572 296.203 192.651L280.09 198.224C275.982 199.645 273.865 203.92 275.373 207.762L279.369 217.945C280.865 221.76 285.387 223.671 289.459 222.22L305.79 216.399C310.368 224.527 316.065 231.984 322.704 238.551L311.508 251.46C308.78 254.606 309.201 259.175 312.445 261.652L321.023 268.198C324.23 270.647 329.004 270.085 331.688 266.953L342.824 253.968C350.59 258.498 359.041 262.039 368.029 264.409L365.002 280.66C364.28 284.53 366.918 288.08 370.878 288.584L381.344 289.919C385.254 290.418 388.993 287.717 389.706 283.888L392.699 267.813C401.825 267.963 410.73 266.888 419.232 264.744L424.577 279.467C425.855 282.985 429.812 284.657 433.408 283.21L442.921 279.381C446.479 277.949 448.346 273.964 447.1 270.471L441.94 256.015C449.737 251.886 456.949 246.765 463.381 240.809L474.718 250.257C477.5 252.577 481.69 252.084 484.079 249.166L490.411 241.428C492.785 238.529 492.486 234.293 489.739 231.96L478.806 222.67C483.578 215.466 487.449 207.566 490.237 199.103L503.927 201.516C507.454 202.139 510.86 199.678 511.539 196.026L513.349 186.31C514.035 182.669 511.741 179.175 508.219 178.515ZM385.653 238.117C346.026 232.143 318.827 195.132 326.181 155.646C333.537 116.16 372.28 91.1887 411.453 99.5992C449.294 107.724 473.44 144.177 466.531 181.268C459.623 218.36 423.934 243.89 385.653 238.117Z" fill="#D8DEE8"/>
    <path d="M461.621 403.832L454.586 402.514C454.974 397.741 454.694 393.034 453.818 388.499L460.412 386.149C462.213 385.506 463.168 383.47 462.549 381.595L460.894 376.594C460.269 374.708 458.294 373.685 456.478 374.314L449.981 376.561C447.966 372.184 445.353 368.086 442.216 364.394L446.683 359.186C447.964 357.693 447.801 355.374 446.316 354.006L442.344 350.344C440.844 348.96 438.57 349.05 437.268 350.549L432.805 355.696C428.836 352.832 424.411 350.469 419.601 348.742L420.879 341.879C421.256 339.855 419.924 337.824 417.897 337.344L412.471 336.056C410.418 335.568 408.439 336.832 408.059 338.879L406.766 345.816C401.576 345.278 396.435 345.504 391.47 346.42L388.984 339.456C388.254 337.409 386.004 336.245 383.952 336.858L378.466 338.497C376.39 339.118 375.313 341.296 376.062 343.36L378.651 350.493C373.959 352.662 369.596 355.494 365.714 358.908L359.595 353.709C357.861 352.234 355.263 352.337 353.795 353.944L349.88 358.233C348.404 359.852 348.634 362.357 350.394 363.824L356.743 369.117C353.929 373.304 351.692 377.94 350.162 382.943L341.662 381.35C339.375 380.922 337.188 382.317 336.787 384.468L335.721 390.189C335.32 392.34 336.859 394.412 339.152 394.817L347.895 396.358C347.703 401.487 348.272 406.514 349.516 411.317L340.996 414.265C338.824 415.016 337.703 417.276 338.501 419.309L340.614 424.694C341.406 426.713 343.796 427.723 345.948 426.954L354.584 423.876C357.004 428.173 360.016 432.118 363.527 435.591L357.607 442.418C356.164 444.082 356.387 446.499 358.102 447.808L362.639 451.27C364.334 452.565 366.859 452.266 368.279 450.612L374.168 443.746C378.275 446.14 382.743 448.013 387.495 449.268L385.894 457.862C385.512 459.909 386.907 461.786 389.001 462.053L394.536 462.759C396.604 463.023 398.581 461.595 398.957 459.57L400.541 451.068C405.366 451.147 410.075 450.578 414.571 449.445L417.398 457.232C418.073 459.092 420.165 459.976 422.068 459.209L427.098 457.185C428.979 456.428 429.968 454.321 429.307 452.474L426.579 444.828C430.702 442.645 434.515 439.936 437.917 436.788L443.912 441.785C445.383 443.011 447.599 442.749 448.862 441.207L452.21 437.115C453.466 435.582 453.308 433.342 451.856 432.108L446.074 427.196C448.597 423.386 450.645 419.208 452.119 414.732L459.357 416.007C461.222 416.336 463.022 415.035 463.381 413.104L464.338 407.967C464.696 406.028 463.483 404.179 461.621 403.832ZM396.811 435.354C375.858 432.194 361.478 412.624 365.367 391.742C369.257 370.861 389.743 357.655 410.457 362.102C430.466 366.398 443.233 385.676 439.579 405.292C435.925 424.902 417.053 438.405 396.811 435.354Z" fill="#97A6B7"/>
    <path d="M390.863 337.886L385.887 336.763L383.316 340.963L390.863 337.886Z" fill="#97A6B7"/>
    <path d="M440.137 349.372L445.902 350.522L445.102 354.816L440.137 349.372Z" fill="#97A6B7"/>
    <path d="M458.288 374.249L464.002 375.572L461.957 378.55L458.288 374.249Z" fill="#97A6B7"/>
    <path d="M462.107 403.985L467.835 405.55L465.405 408.035L462.107 403.985Z" fill="#97A6B7"/>
    <path d="M444.945 442.366L450.435 444.247L451.991 439.734L444.945 442.366Z" fill="#97A6B7"/>
    <path d="M419.454 459.228L424.347 461.114L425.453 457.418L419.454 459.228Z" fill="#97A6B7"/>
    <path d="M392.44 463.487L388.042 461.814L393.048 456.693L392.44 463.487Z" fill="#97A6B7"/>
    <path d="M368.717 453.891L363.627 451.788L368.645 447.571L368.717 453.891Z" fill="#97A6B7"/>
    <path d="M356.767 352.638L362.26 353.857L359.317 357.506L356.767 352.638Z" fill="#97A6B7"/>
    <path d="M337.632 394.249L342.557 395.962L342.933 391.707L337.632 394.249Z" fill="#97A6B7"/>
    <path d="M342.817 426.886L347.617 428.636L348.635 425.403L342.817 426.886Z" fill="#97A6B7"/>
    <path d="M467.215 405.367L460.123 404.038C460.514 399.226 460.232 394.481 459.349 389.909L465.997 387.54C467.814 386.893 468.775 384.839 468.15 382.949L466.481 377.907C465.852 376.006 463.86 374.974 462.027 375.607L455.476 377.873C453.445 373.461 450.81 369.33 447.647 365.608L452.151 360.357C453.444 358.85 453.278 356.515 451.78 355.134L447.775 351.442C446.262 350.047 443.969 350.137 442.656 351.649L438.156 356.839C434.154 353.95 429.693 351.569 424.843 349.826L426.132 342.908C426.512 340.866 425.169 338.819 423.125 338.335L417.654 337.038C415.584 336.546 413.588 337.819 413.204 339.883L411.902 346.878C406.67 346.336 401.486 346.564 396.48 347.486L393.974 340.464C393.237 338.4 390.967 337.226 388.899 337.843L383.368 339.496C381.276 340.12 380.189 342.319 380.944 344.398L383.555 351.589C378.824 353.775 374.426 356.631 370.511 360.073L364.34 354.831C362.591 353.345 359.972 353.447 358.492 355.068L354.545 359.392C353.055 361.024 353.289 363.55 355.062 365.028L361.463 370.364C358.627 374.585 356.37 379.26 354.829 384.302L346.258 382.696C343.95 382.265 341.747 383.67 341.343 385.839L340.269 391.606C339.864 393.775 341.417 395.865 343.728 396.272L352.544 397.826C352.349 402.998 352.924 408.064 354.179 412.906L345.588 415.877C343.398 416.634 342.27 418.913 343.073 420.961L345.204 426.39C346.002 428.424 348.413 429.443 350.583 428.669L359.289 425.566C361.73 429.899 364.767 433.875 368.307 437.377L362.339 444.26C360.885 445.939 361.109 448.373 362.838 449.694L367.411 453.185C369.122 454.489 371.666 454.19 373.098 452.521L379.035 445.599C383.175 448.014 387.68 449.902 392.473 451.166L390.86 459.83C390.476 461.894 391.882 463.786 393.992 464.055L399.571 464.768C401.656 465.033 403.65 463.594 404.03 461.552L405.627 452.983C410.492 453.063 415.241 452.489 419.774 451.347L422.625 459.197C423.305 461.072 425.416 461.963 427.332 461.191L432.405 459.15C434.302 458.387 435.298 456.262 434.632 454.4L431.882 446.692C436.038 444.49 439.883 441.761 443.313 438.586L449.357 443.624C450.841 444.86 453.074 444.598 454.349 443.041L457.724 438.917C458.989 437.371 458.83 435.113 457.366 433.87L451.537 428.918C454.082 425.076 456.146 420.864 457.632 416.353L464.93 417.64C466.811 417.97 468.627 416.66 468.988 414.712L469.953 409.532C470.316 407.582 469.094 405.718 467.215 405.367ZM401.871 437.143C380.745 433.958 366.243 414.226 370.166 393.174C374.087 372.123 394.744 358.809 415.628 363.294C435.803 367.625 448.677 387.061 444.993 406.834C441.308 426.609 422.28 440.22 401.871 437.143Z" fill="#D8DEE8"/>
    <path d="M387.517 261.599C405.478 261.599 420.038 240.975 420.038 215.534C420.038 190.094 405.478 169.47 387.517 169.47C369.556 169.47 354.995 190.094 354.995 215.534C354.995 240.975 369.556 261.599 387.517 261.599Z" fill="#D8DEE8"/>
    <path d="M288.12 103.915H226.908C164.146 103.915 113.266 155.197 113.266 218.455V218.456C113.266 252.211 140.416 279.575 173.906 279.575H341.12C374.612 279.575 401.76 252.211 401.76 218.456C401.762 155.195 350.883 103.915 288.12 103.915Z" fill="white"/>
    <path d="M277.369 404.821H237.658C196.94 404.821 163.931 371.551 163.931 330.511C163.931 308.611 181.544 290.859 203.273 290.859H311.757C333.486 290.859 351.099 308.613 351.099 330.511C351.099 371.551 318.089 404.821 277.369 404.821Z" fill="white"/>
    <path d="M343.679 254.869H227.327C211.56 254.869 198.623 242.688 198.623 227.66V204.617C198.623 189.591 211.56 177.825 227.327 178.331L343.679 182.072C357.761 182.524 369.049 194.208 369.049 208.171V229.583C369.049 243.548 357.763 254.869 343.679 254.869Z" fill="url(#paint11_linear)"/>
    <path d="M264.606 214.916C264.606 224.951 256.13 232.978 245.589 232.844C234.954 232.709 226.261 224.328 226.261 214.129C226.261 203.929 234.952 195.906 245.589 196.207C256.13 196.506 264.606 204.881 264.606 214.916Z" fill="white"/>
    <path d="M343.236 216.527C343.236 226.226 335.32 233.988 325.48 233.862C315.554 233.735 307.443 225.646 307.443 215.794C307.443 205.943 315.554 198.184 325.48 198.465C335.322 198.742 343.236 206.829 343.236 216.527Z" fill="white"/>
    <path opacity="0.3" d="M299.738 263.508C282.433 243.015 290.123 226.628 267.5 198.857C236.373 160.647 200.06 164.971 191.742 139.055C189.436 131.874 189.173 122.017 195.355 108.393C147.945 122.176 113.266 166.231 113.266 218.455V218.456C113.266 252.211 140.416 279.575 173.906 279.575H319.63C310.904 274.778 304.525 269.178 299.738 263.508Z" fill="white"/>
    <path d="M129.621 261.277C147.583 261.277 162.143 240.654 162.143 215.213C162.143 189.772 147.583 169.149 129.621 169.149C111.66 169.149 97.0996 189.772 97.0996 215.213C97.0996 240.654 111.66 261.277 129.621 261.277Z" fill="#D8DEE8"/>
    <path d="M103.893 235.356C111.747 235.356 118.114 226.338 118.114 215.213C118.114 204.088 111.747 195.07 103.893 195.07C96.0394 195.07 89.6726 204.088 89.6726 215.213C89.6726 226.338 96.0394 235.356 103.893 235.356Z" fill="#BFC8D6"/>
    <path opacity="0.4" d="M287.149 363.91C281.702 338.122 221.436 338.744 219.797 321.888C218.534 308.893 253.135 296.028 257.482 294.411C261.201 293.028 264.892 291.857 268.546 290.857H203.273C181.546 290.857 163.931 308.609 163.931 330.509C163.931 371.549 196.94 404.819 237.658 404.819H277.371C281.186 404.819 284.935 404.527 288.594 403.963C285.139 399.646 282.885 394.924 282.34 389.77C281.131 378.346 289.26 373.904 287.149 363.91Z" fill="#D8DEE8"/>
    <path d="M258.493 300.718C293.131 300.718 321.21 297.292 321.21 293.065C321.21 288.838 293.131 285.411 258.493 285.411C223.855 285.411 195.775 288.838 195.775 293.065C195.775 297.292 223.855 300.718 258.493 300.718Z" fill="#D8DEE8"/>
    <path d="M467.772 286.739C457.064 282.6 445.355 284.685 435.92 291.282C432.472 273.913 421.519 259.212 405.208 252.908C378.483 242.578 347.495 258.701 335.997 288.921C333.035 296.709 331.659 304.67 331.7 312.38C330.321 311.509 328.849 310.763 327.283 310.157C312.681 304.513 295.752 313.322 289.47 329.833C283.188 346.344 289.717 364.905 304.534 369.947C312.449 372.639 324.97 372.689 324.97 372.689C324.97 372.689 446.768 363.548 450.526 363.58C465.529 363.705 480.317 353.361 486.594 336.862C494.445 316.233 486.017 293.792 467.772 286.739Z" fill="url(#paint12_linear)"/>
    <path d="M471.394 286.754C460.686 282.615 448.977 284.699 439.542 291.296C436.094 273.928 425.141 259.226 408.83 252.923C382.105 242.592 351.117 258.716 339.619 288.935C336.657 296.723 335.281 304.685 335.322 312.395C333.944 311.523 332.471 310.778 330.906 310.172C316.303 304.528 299.374 313.337 293.092 329.847C286.81 346.358 293.554 364.318 308.157 369.961C311.247 371.156 328.593 372.704 328.593 372.704C328.593 372.704 450.39 363.562 454.148 363.594C469.152 363.719 483.94 353.376 490.216 336.877C498.068 316.247 489.639 293.807 471.394 286.754Z" fill="url(#paint13_linear)"/>
    <path d="M183.017 313.737C178.356 317.588 177.673 324.518 181.494 329.216L212.975 367.932L229.855 353.988L198.374 315.272C194.553 310.574 187.678 309.888 183.017 313.737Z" fill="white"/>
    <path d="M281.694 350.359C281.014 344.323 275.607 339.987 269.618 340.673L220.271 346.33L222.738 368.188L272.085 362.531C278.074 361.845 282.377 356.395 281.694 350.359Z" fill="white"/>
    <path d="M220.272 375.228C229.017 375.228 236.106 368.083 236.106 359.269C236.106 350.455 229.017 343.31 220.272 343.31C211.526 343.31 204.437 350.455 204.437 359.269C204.437 368.083 211.526 375.228 220.272 375.228Z" fill="url(#paint14_linear)"/>
    <path d="M271.623 342.711L279.773 362.875C280.985 365.872 285.579 366.763 289.084 364.636C294.22 361.52 299.835 356.201 297.568 348.508C294.701 338.776 286.17 335.974 279.152 335.406C274.387 335.019 270.177 339.133 271.623 342.711Z" fill="url(#paint15_linear)"/>
    <defs>
        <radialGradient id="paint0_radial" cx="0" cy="0" r="1" gradientUnits="userSpaceOnUse" gradientTransform="translate(269.172 278.156) rotate(90) scale(257.843 266.827)">
            <stop stop-color="#DE5125"/>
            <stop offset="1" stop-color="#844AFF"/>
        </radialGradient>
        <linearGradient id="paint1_linear" x1="219.747" y1="37.3157" x2="153.893" y2="497.731" gradientUnits="userSpaceOnUse">
            <stop stop-color="#FFC444"/>
            <stop offset="0.9964" stop-color="#F36F56"/>
        </linearGradient>
        <linearGradient id="paint2_linear" x1="38.6861" y1="207.659" x2="284.467" y2="609.11" gradientUnits="userSpaceOnUse">
            <stop offset="0.00359712" stop-color="#E38DDD"/>
            <stop offset="1" stop-color="#9571F6"/>
        </linearGradient>
        <linearGradient id="paint3_linear" x1="284.241" y1="459.255" x2="283.894" y2="481.601" gradientUnits="userSpaceOnUse">
            <stop stop-color="#444B8C"/>
            <stop offset="0.9964" stop-color="#26264F"/>
        </linearGradient>
        <linearGradient id="paint4_linear" x1="288.09" y1="503.599" x2="252.178" y2="395.717" gradientUnits="userSpaceOnUse">
            <stop stop-color="#444B8C"/>
            <stop offset="0.9964" stop-color="#26264F"/>
        </linearGradient>
        <linearGradient id="paint5_linear" x1="445.047" y1="493.261" x2="115.96" y2="493.261" gradientUnits="userSpaceOnUse">
            <stop stop-color="#FF9085"/>
            <stop offset="1" stop-color="#FB6FBB"/>
        </linearGradient>
        <linearGradient id="paint6_linear" x1="392.78" y1="502.885" x2="387.463" y2="503.527" gradientUnits="userSpaceOnUse">
            <stop stop-color="#FF9085"/>
            <stop offset="1" stop-color="#FB6FBB"/>
        </linearGradient>
        <linearGradient id="paint7_linear" x1="291.632" y1="514.144" x2="291.261" y2="523.616" gradientUnits="userSpaceOnUse">
            <stop stop-color="#444B8C"/>
            <stop offset="0.9964" stop-color="#26264F"/>
        </linearGradient>
        <linearGradient id="paint8_linear" x1="267.634" y1="513.206" x2="267.264" y2="522.678" gradientUnits="userSpaceOnUse">
            <stop stop-color="#444B8C"/>
            <stop offset="0.9964" stop-color="#26264F"/>
        </linearGradient>
        <linearGradient id="paint9_linear" x1="237.592" y1="512.032" x2="237.222" y2="521.505" gradientUnits="userSpaceOnUse">
            <stop stop-color="#444B8C"/>
            <stop offset="0.9964" stop-color="#26264F"/>
        </linearGradient>
        <linearGradient id="paint10_linear" x1="272.529" y1="476.135" x2="262.929" y2="250.718" gradientUnits="userSpaceOnUse">
            <stop stop-color="white"/>
            <stop offset="1"/>
        </linearGradient>
        <linearGradient id="paint11_linear" x1="198.622" y1="216.592" x2="369.05" y2="216.592" gradientUnits="userSpaceOnUse">
            <stop stop-color="#444B8C"/>
            <stop offset="0.9964" stop-color="#26264F"/>
        </linearGradient>
        <linearGradient id="paint12_linear" x1="287.091" y1="311.238" x2="489.533" y2="311.238" gradientUnits="userSpaceOnUse">
            <stop stop-color="#40447E"/>
            <stop offset="0.9964" stop-color="#3C3B6B"/>
        </linearGradient>
        <linearGradient id="paint13_linear" x1="434.431" y1="285.116" x2="345.931" y2="384.252" gradientUnits="userSpaceOnUse">
            <stop stop-color="#AA80F9"/>
            <stop offset="0.9964" stop-color="#6165D7"/>
        </linearGradient>
        <linearGradient id="paint14_linear" x1="233.226" y1="342.777" x2="197.517" y2="387.53" gradientUnits="userSpaceOnUse">
            <stop stop-color="#444B8C"/>
            <stop offset="0.9964" stop-color="#26264F"/>
        </linearGradient>
        <linearGradient id="paint15_linear" x1="302.975" y1="356.009" x2="255.032" y2="329.215" gradientUnits="userSpaceOnUse">
            <stop stop-color="#444B8C"/>
            <stop offset="0.9964" stop-color="#26264F"/>
        </linearGradient>
    </defs>
</svg>