<svg width="648" height="480" viewBox="0 0 648 480" fill="none" xmlns="http://www.w3.org/2000/svg">
<rect width="648" height="480" rx="24" fill="url(#paint0_linear)"/>
<path opacity="0.2" d="M289.472 26.827C227.948 27.8691 132.759 50.3131 105.359 107.99C95.7888 128.134 96.4377 157.75 97.7337 216.979C98.1143 234.387 98.7452 259.761 103.181 291.245C112.394 356.645 118.664 401.168 142.4 427.094C201.873 492.053 416.705 490.176 508.445 373.228C558.489 309.431 566.188 218.68 520.428 143.676C470.047 61.1009 371.836 25.431 289.472 26.827Z" fill="url(#paint1_radial)"/>
<path d="M239.717 275.82C237.985 283.147 235.736 288.977 233.71 296.056C265.103 291.148 296.269 292.159 328.107 287.239C304.179 253.353 283.253 239.474 291.27 192.077C295.033 169.834 308.978 127.094 298.206 106.8C285.933 83.6796 269.263 91.458 271.782 69.4457C275.719 35.042 255.997 0.964453 211.401 19.4073C167.389 37.6082 180.873 160.313 209.918 191.358C229.333 222.72 248.763 237.558 239.717 275.82Z" fill="url(#paint2_linear)"/>
<path d="M287.534 313.075C284.076 301.889 279.697 290.842 275.462 280.158L273.861 276.113C270.468 267.523 267.587 259.778 265.043 252.946C263.614 249.103 262.263 245.471 260.924 241.962C256.852 231.286 253.977 223.807 252.536 220.059C252.042 218.771 251.715 217.924 251.569 217.539C240.361 188.129 235.972 144.036 233.614 120.35C233.359 117.784 233.129 115.49 232.923 113.521C229.357 79.6889 221.587 44.9135 209.828 10.1591L210.299 10C222.07 44.7901 229.848 79.6013 233.417 113.468C233.625 115.438 233.853 117.732 234.108 120.3C236.465 143.964 240.85 188.013 252.034 217.362C252.18 217.747 252.505 218.594 253 219.88C254.441 223.628 257.317 231.108 261.389 241.785C262.729 245.296 264.079 248.929 265.51 252.773C268.052 259.603 270.932 267.344 274.322 275.929L275.924 279.974C280.162 290.668 284.545 301.723 288.008 312.928L287.534 313.075Z" fill="#FCFDFE"/>
<path d="M261.089 233.529C254.612 213.748 254.988 187.905 262.177 158.793C268.167 134.541 278.792 108.834 291.328 88.2651L291.753 88.5232C279.241 109.05 268.636 134.707 262.659 158.912C255.492 187.933 255.113 213.682 261.561 233.375L261.089 233.529Z" fill="#FCFDFE"/>
<path d="M229.167 98.92L228.676 98.8453C231.423 81.055 236.44 63.5033 241.292 46.5311C244.613 34.9123 248.047 22.8973 250.727 10.9019L251.212 11.0106C248.529 23.0207 245.093 35.0421 241.769 46.6675C236.923 63.6251 231.909 81.1605 229.167 98.92Z" fill="#FCFDFE"/>
<path d="M236.667 156.657C224.819 134.57 198.917 110.358 181.237 104.844L181.385 104.372C199.169 109.919 225.206 134.242 237.107 156.425L236.667 156.657Z" fill="#FCFDFE"/>
<path d="M213.481 174.321C222.242 216.662 246.711 207.454 278.464 197.062C273.146 236.977 269.44 276.039 265.817 315.692C244.462 322.333 229.041 326.693 216.948 302.422C203.272 274.974 196.291 258.68 163.13 252.037C129.968 245.393 104.762 221.176 115.72 189.245C127.249 155.641 98.0217 112.071 126.093 87.5251C175.009 44.7538 204.36 130.232 213.481 174.321Z" fill="url(#paint3_linear)"/>
<path d="M262.8 264.785C229.907 248.98 202.939 234.899 180.204 209.832C158.453 185.847 147.772 159.964 144.488 123.287C142.786 104.259 139.41 90.8169 134.455 72.4829L134.935 72.353C139.896 90.7131 143.275 104.174 144.983 123.244C148.255 159.805 158.898 185.601 180.572 209.499C203.244 234.5 230.171 248.558 263.015 264.339L262.8 264.785Z" fill="#FCFDFE"/>
<path d="M221.267 317.549L220.882 317.237C228.449 307.928 236.607 300.356 245.823 294.085C250.534 290.88 255.367 288.701 261.174 286.416L261.356 286.877C255.58 289.149 250.775 291.315 246.103 294.494C236.926 300.737 228.803 308.279 221.267 317.549Z" fill="#FCFDFE"/>
<path d="M194.912 224.267C170.06 212.27 139.224 209.445 108.084 216.315L107.977 215.831C139.224 208.937 170.174 211.773 195.126 223.82L194.912 224.267Z" fill="#FCFDFE"/>
<path d="M152.054 162.408C151.662 159.189 155.854 132.246 159.908 108.102C163.979 83.8615 168.678 57.8237 169.496 56.2102L169.94 56.4342C169.238 57.8188 164.958 81.0338 160.398 108.185C156.349 132.295 152.16 159.183 152.545 162.35L152.054 162.408Z" fill="#FCFDFE"/>
<path d="M409.43 334.953C403.859 333.109 399.694 328.389 398.52 322.587L390.41 282.525L321.04 284.984L312.503 326.72C311.307 332.565 316.093 338.43 321.606 340.582L350.629 351.917C356.028 354.026 361.83 354.865 367.596 354.373L428.933 349.135C430.727 348.982 432.164 347.575 432.373 345.77C432.581 343.965 433.838 341.939 432.127 341.373L409.43 334.953Z" fill="#97A6B7"/>
<path d="M410.116 332.516C404.55 330.695 400.39 326.035 399.218 320.305L391.116 280.746L323.436 283.176L314.906 324.388C313.711 330.16 316.872 335.946 322.379 338.073L351.372 349.265C356.764 351.346 362.562 352.175 368.323 351.69L429.598 346.518C431.389 346.367 432.826 344.978 433.034 343.196C433.243 341.413 432.166 339.732 430.457 339.172L410.116 332.516Z" fill="url(#paint4_linear)"/>
<path d="M520.894 254.669V75.0313C520.894 71.3482 517.853 68.2122 514.126 68.0629L204.936 55.6567C200.232 55.4684 196.37 58.7132 196.37 62.8686V261.396L520.894 254.669Z" fill="url(#paint5_linear)"/>
<path d="M205.933 90.4971V245.575C205.933 249.446 209.517 252.511 213.887 252.387L507.327 244.057C510.83 243.958 513.687 241.052 513.687 237.6V99.2883L205.933 90.4971Z" fill="white"/>
<path d="M513.689 99.2884V83.4151C513.689 80.034 510.888 77.1625 507.459 77.0343L213.724 66.0972C209.444 65.9381 205.933 68.9086 205.933 72.7004V90.4971L513.689 99.2884Z" fill="url(#paint6_linear)"/>
<path d="M227.405 78.4237C227.405 79.7564 226.189 80.7984 224.686 80.7514C223.18 80.7043 221.959 79.5827 221.959 78.2451C221.959 76.9093 223.18 75.8672 224.686 75.9191C226.187 75.9694 227.405 77.0911 227.405 78.4237Z" fill="#9D3060"/>
<path d="M239.127 78.8088C239.127 80.1334 237.925 81.169 236.439 81.1235C234.951 81.0764 233.744 79.9613 233.744 78.6335C233.744 77.3058 234.952 76.2685 236.439 76.3205C237.925 76.3692 239.127 77.4843 239.127 78.8088Z" fill="#9D3060"/>
<path d="M250.714 79.1884C250.714 80.5048 249.525 81.5356 248.057 81.4901C246.586 81.443 245.393 80.336 245.393 79.0147C245.393 77.6934 246.586 76.6643 248.057 76.7147C249.527 76.7634 250.714 77.8704 250.714 79.1884Z" fill="#9D3060"/>
<path d="M196.37 261.396V301.044C196.37 305.2 200.23 308.438 204.936 308.238L514.126 295.191C517.853 295.033 520.894 291.891 520.894 288.208V253.517L196.37 261.396Z" fill="url(#paint7_linear)"/>
<path d="M398.957 177.411L228.464 178.333V107.274L398.957 110.37V177.411Z" fill="url(#paint8_linear)"/>
<path d="M495.231 176.89L408.96 177.358V110.552L495.231 112.118V176.89Z" fill="url(#paint9_linear)"/>
<path d="M495.231 224.97L228.464 231.078V187.613L495.231 185.349V224.97Z" fill="url(#paint10_linear)"/>
<g opacity="0.48">
<path opacity="0.48" d="M487.406 231.477C462.011 222.916 441.003 240.379 422.749 226.629C402.169 211.127 418.803 181.348 399.767 163.802C373.324 139.43 320.456 177.228 297.496 154.25C281.709 138.453 300.332 113.162 286.965 86.5592C280.167 73.033 267.433 63.81 251.972 57.5428L204.936 55.655C200.232 55.4667 196.371 58.7115 196.371 62.8669V261.394V301.043C196.371 305.198 200.232 308.436 204.936 308.237L514.126 295.189C517.853 295.032 520.894 291.889 520.894 288.206V262.573C510.007 243.359 497.986 235.045 487.406 231.477Z" fill="white"/>
</g>
<path d="M284.559 229.297V437.114C284.559 440.222 281.152 441.133 277.288 441.508L143.623 456.428L141.581 456.626C137.387 457.032 133.948 454.709 133.948 451.461V234.301C133.948 231.053 137.387 228.289 141.581 228.156L144.354 228.068L278.492 228.506C282.354 228.383 284.559 226.189 284.559 229.297Z" fill="url(#paint11_linear)"/>
<path d="M288.681 229.06V436.82C288.681 439.927 285.528 442.774 281.664 443.149L145.778 456.323C141.586 456.729 138.15 454.406 138.15 451.159V234.061C138.15 230.815 141.587 228.05 145.778 227.917L281.664 223.634C285.528 223.51 288.681 225.953 288.681 229.06Z" fill="url(#paint12_linear)"/>
<path d="M148.73 240.201L278.259 235.689C281.557 235.574 284.292 238.208 284.297 241.502L284.539 432.259C284.544 435.839 281.82 438.839 278.249 439.185L149.102 451.693C145.804 452.013 142.947 449.426 142.947 446.118L142.896 246.23C142.896 242.98 145.476 240.313 148.73 240.201Z" fill="white"/>
<path d="M153.124 287.758L226.836 284.218L226.888 353.136L153.146 358.202L153.124 287.758Z" fill="url(#paint13_linear)"/>
<path d="M153.15 367.07L275.013 358.381L275.056 399.79L153.163 410.016L153.15 367.07Z" fill="url(#paint14_linear)"/>
<path d="M149.253 240.072L278.202 235.69C281.55 235.576 284.326 238.253 284.331 241.595L284.362 269.977L142.903 276.275L142.895 246.64C142.896 243.098 145.708 240.193 149.253 240.072Z" fill="url(#paint15_linear)"/>
<path d="M153.166 419.505L275.065 408.938L275.085 427.615L153.171 438.875L153.166 419.505Z" fill="url(#paint16_linear)"/>
<path d="M233.626 283.892L274.932 281.908L275.003 349.831L233.682 352.67L233.626 283.892Z" fill="url(#paint17_linear)"/>
<path d="M217.594 232.058C217.594 233.159 216.465 234.089 215.072 234.136C213.677 234.183 212.545 233.329 212.545 232.227C212.545 231.125 213.677 230.195 215.072 230.149C216.465 230.104 217.594 230.959 217.594 232.058Z" fill="#DE8BDF"/>
<g opacity="0.48">
<path opacity="0.48" d="M244.755 348.614C232.392 323.85 203.5 329.762 192.645 302.755C186.17 286.645 194.231 279.004 189.376 259.349C186.092 246.048 178.92 235.449 170.794 227.127L145.78 227.916C141.589 228.047 138.151 230.813 138.151 234.059V451.159C138.151 454.406 141.589 456.729 145.78 456.323L255.133 445.72C247.036 434.489 243.569 423.925 242.32 414.761C238.445 386.335 255.736 370.61 244.755 348.614Z" fill="white"/>
</g>
<path d="M342.54 300.734V444.154C342.54 446.298 340.704 446.892 338.621 447.11L266.89 455.974L265.799 456.088C263.558 456.323 261.72 454.69 261.72 452.458V303.268C261.72 301.038 263.558 299.158 265.799 299.092L267.28 299.048L339.268 300.15C341.352 300.092 342.54 298.59 342.54 300.734Z" fill="url(#paint18_linear)"/>
<path d="M344.762 300.596V443.995C344.762 446.139 343.061 448.072 340.979 448.29L268.043 455.927C265.802 456.162 263.966 454.529 263.966 452.298V303.13C263.966 300.9 265.802 299.02 268.043 298.954L340.979 296.808C343.062 296.746 344.762 298.452 344.762 300.596Z" fill="url(#paint19_linear)"/>
<path d="M270.468 307.407L334.265 305.08C338.722 304.917 342.424 308.479 342.424 312.931L342.417 441.419C342.417 443.523 340.825 445.287 338.729 445.508L270.385 452.687C268.31 452.905 266.503 451.282 266.503 449.199L266.5 311.516C266.498 309.305 268.253 307.489 270.468 307.407Z" fill="white"/>
<path d="M274.436 341.62L312.03 339.638L312.028 387.407L274.437 390.253L274.436 341.62Z" fill="url(#paint20_linear)"/>
<path d="M274.438 396.372L334.984 391.611L334.982 420.387L274.438 425.995V396.372Z" fill="url(#paint21_linear)"/>
<path d="M274.438 431.219L334.982 425.461V438.432L274.438 444.573V431.219Z" fill="url(#paint22_linear)"/>
<path d="M316.072 339.425L334.987 338.427L334.983 385.668L316.071 387.1L316.072 339.425Z" fill="url(#paint23_linear)"/>
<path d="M270.16 307.419L338.304 304.932C340.553 304.849 342.422 306.648 342.422 308.894L342.42 328.775L266.498 332.435V311.209C266.498 309.169 268.116 307.493 270.16 307.419Z" fill="url(#paint24_linear)"/>
<path d="M306.515 302.234C306.515 302.992 305.909 303.625 305.161 303.65C304.413 303.674 303.804 303.078 303.804 302.32C303.804 301.562 304.411 300.927 305.161 300.905C305.909 300.882 306.515 301.476 306.515 302.234Z" fill="#DE8BDF"/>
<g opacity="0.48">
<path opacity="0.48" d="M321.05 386.482C314.394 369.779 296.454 373.725 290.865 356.845C286.303 343.067 296.451 334.994 292.478 319.039C290.248 310.087 284.765 303.437 279.158 298.627L268.043 298.955C265.802 299.022 263.966 300.9 263.966 303.132V452.299C263.966 454.53 265.802 456.162 268.043 455.929L323.961 450.074C319.473 443.013 317.671 436.559 317.033 431.201C314.714 411.698 327.148 401.782 321.05 386.482Z" fill="white"/>
</g>
<path d="M479.481 448.283C474.333 422.864 476.549 402.434 478.888 390.099C481.725 375.134 487.492 344.709 511.697 327.75C513.605 326.414 532.542 313.401 541.046 319.864C545.431 323.196 546.433 331.247 544.515 337.599C539.564 354.004 517.238 352.185 509.82 370.854C507.35 377.071 506.893 384.657 508.616 385.373C510.737 386.253 516.786 376.976 517.362 376.093C522.754 367.822 522.805 363.14 526.916 361.87C529.44 361.09 532.768 361.821 534.257 363.815C537.646 368.35 530.95 378.69 529.078 381.579C524.181 389.137 520.094 390.856 519.097 397.29C518.669 400.061 518.746 404.158 520.391 404.797C522.615 405.662 526.862 399.871 529.586 396.156C536.909 386.171 537.69 380.365 541.333 379.949C544.73 379.562 548.559 384.098 549.542 386.864C552.225 394.409 541.439 410.469 479.481 448.283Z" fill="url(#paint25_linear)"/>
<path opacity="0.28" d="M480.258 443.925C479.488 420.303 483.316 401.577 486.782 389.291C491.237 373.494 499.618 343.788 523.133 330.932C524.804 330.018 537.096 323.296 540.531 326.896C542.822 329.295 540.791 335.883 537.424 340.245C531.678 347.687 525.061 344.734 515.676 352.041C507.257 358.596 504.299 367.424 503.559 369.736C500.815 378.307 502.24 385.655 502.627 388.362C504.096 398.64 501.084 415.485 480.258 443.925Z" fill="white"/>
<path opacity="0.28" d="M488.643 438.026C501.828 426.227 504.876 416.56 505.11 409.777C505.292 404.492 503.862 398.219 507.906 392.392C510.494 388.665 512.443 389.265 516.916 385.252C526.257 376.871 527.418 365.569 529.343 366.005C530.414 366.249 530.971 369.954 530.276 373.456C528.84 380.68 523.186 381.437 517.537 390.219C513.678 396.218 512.34 402.052 511.634 405.12C509.914 412.609 511.082 415.236 510.081 419.4C508.784 424.796 504.085 431.761 488.643 438.026Z" fill="white"/>
<path d="M487.404 452.39C510.258 453.699 517.052 455.068 527.824 451.4C537.946 447.954 548.327 441.168 547.415 438.054C546.76 435.819 540.408 435.85 536.613 435.868C526.43 435.914 518.031 439.031 512.138 442.046C517.219 438.6 522.303 435.152 527.385 431.706C530.933 430.436 536.939 427.745 542.259 422.057C545.589 418.496 553.244 408.85 550.365 404.216C547.361 399.375 533.088 400.352 524.858 407.218C520.909 410.512 520.904 413.034 515.612 418.786C510.803 424.012 505.837 427.332 502.35 429.333C505.619 425.251 510.063 418.873 513.519 410.279C518.77 397.22 522.735 376.559 516.056 372.803C511.624 370.312 502.84 375.446 498.447 381.529C494.886 386.463 495.235 390.598 492.783 406.448C491.717 413.339 490.672 418.889 489.994 422.332C483.198 407.433 481.226 394.901 480.828 385.688C480.317 373.85 482.276 364.576 477.747 362.107C473.708 359.909 466.498 364.198 462.839 368.224C448.034 384.518 467.569 422.758 469.633 426.706C464.2 422.596 456.715 416.164 449.464 406.869C441.71 396.93 438.436 389.531 434.494 390.193C430.574 390.852 427.991 399.19 428.286 405.645C429.105 423.635 452.622 434.203 455.131 435.29C453.154 435.609 449.798 435.942 445.844 435.188C437.075 433.515 434.34 428.204 425.446 426.403C422.044 425.713 415.088 425 414.231 427.104C412.692 430.883 430.26 445.07 451.58 450.479C459.391 452.459 457.521 450.679 487.404 452.39Z" fill="url(#paint26_linear)"/>
<path opacity="0.28" d="M502.489 439.376C512.896 434.753 511.481 428.467 522.863 420.685C530.153 415.701 531.848 417.517 539.658 412.753C543.954 410.133 547.467 407.126 550.319 404.156C550.332 404.176 550.35 404.197 550.363 404.217C553.239 408.851 545.587 418.497 542.257 422.058C536.937 427.746 530.931 430.437 527.382 431.707C522.301 435.153 517.217 438.601 512.136 442.046C518.028 439.034 526.427 435.917 536.611 435.869C539.918 435.853 545.171 435.83 546.897 437.303C543.839 439.196 541.086 440.109 538.847 440.566C533.743 441.608 530.538 440.443 526.122 443.104C522.578 445.238 522.874 447.049 519.754 448.206C516.819 449.294 515.317 448.147 508.074 446.957C501.025 445.8 497.443 445.259 494.596 447.047C492.444 448.399 491.302 450.626 490.67 452.586C489.941 452.542 489.194 452.496 488.426 452.452C488.993 450.202 490.033 447.621 492.015 445.318C495.158 441.664 498.596 441.105 502.489 439.376Z" fill="white"/>
<path opacity="0.28" d="M472.837 447.365C471.194 446.972 470.408 448.147 468.123 448.442C463.879 448.994 462.29 445.494 457.301 443.832C451.398 441.864 449.901 445.525 444.021 443.704C439.365 442.262 439.966 439.866 433.884 436.364C427.413 432.638 424.671 434.167 419.915 431.091C418.388 430.104 416.642 428.631 414.983 426.342C417.073 425.211 422.545 425.814 425.441 426.401C434.335 428.205 437.07 433.516 445.839 435.186C449.793 435.94 453.146 435.607 455.126 435.289C452.617 434.198 429.1 423.633 428.281 405.643C428.009 399.658 430.212 392.054 433.663 390.458C433.252 394.614 433.195 398.167 433.26 400.961C433.406 407.462 433.521 410.769 435.581 413.481C439.152 418.186 443.505 415.734 449.441 420.624C454.843 425.078 452.961 428.531 458.597 432.99C463.463 436.838 466.344 435.437 470.922 438.557C473.793 440.515 477.282 444.222 479.375 451.98C478.42 451.937 477.508 451.898 476.638 451.862C475.808 449.658 474.609 447.788 472.837 447.365Z" fill="white"/>
<path opacity="0.28" d="M477.97 422.846C475.123 415.095 470.177 415.893 468.116 409.066C466.064 402.28 470.55 400.171 469.407 390.347C468.549 382.987 465.769 381.902 465.584 376.87C465.448 373.161 466.757 368.109 472.807 361.844C474.643 361.362 476.373 361.362 477.742 362.106C482.274 364.574 480.312 373.848 480.823 385.686C481.221 394.899 483.193 407.432 489.989 422.33C490.667 418.887 491.712 413.338 492.778 406.446C495.23 390.596 494.881 386.458 498.442 381.527C502.835 375.444 511.619 370.31 516.051 372.801C516.305 372.943 516.542 373.114 516.762 373.302C514.552 374.808 512.513 376.657 510.8 378.938C504.956 386.717 508.281 392.292 502.984 407.639C497.89 422.399 492.721 423.31 488.621 436.063C487.311 440.137 486.076 445.528 485.822 452.301C484.325 452.219 482.916 452.144 481.58 452.08C480.045 447.057 479.323 442.562 479.013 438.747C478.337 430.352 479.893 428.082 477.97 422.846Z" fill="white"/>
<defs>
<linearGradient id="paint0_linear" x1="148.5" y1="-8.93751e-07" x2="372.834" y2="538.402" gradientUnits="userSpaceOnUse">
<stop stop-color="#AD86FF"/>
<stop offset="1" stop-color="#E05529"/>
</linearGradient>
<radialGradient id="paint1_radial" cx="0" cy="0" r="1" gradientUnits="userSpaceOnUse" gradientTransform="translate(323.87 248.394) rotate(90) scale(221.606 226.87)">
<stop stop-color="#DE5125"/>
<stop offset="1" stop-color="#844AFF"/>
</radialGradient>
<linearGradient id="paint2_linear" x1="335.219" y1="358.821" x2="126.611" y2="-117.735" gradientUnits="userSpaceOnUse">
<stop stop-color="#AA80F9"/>
<stop offset="0.9964" stop-color="#6165D7"/>
</linearGradient>
<linearGradient id="paint3_linear" x1="113.122" y1="198.385" x2="278.464" y2="198.385" gradientUnits="userSpaceOnUse">
<stop offset="0.00359712" stop-color="#E38DDD"/>
<stop offset="1" stop-color="#9571F6"/>
</linearGradient>
<linearGradient id="paint4_linear" x1="372.841" y1="296.775" x2="373.891" y2="336.245" gradientUnits="userSpaceOnUse">
<stop stop-color="#444B8C"/>
<stop offset="0.9964" stop-color="#26264F"/>
</linearGradient>
<linearGradient id="paint5_linear" x1="381.45" y1="247.706" x2="265.646" y2="-159.606" gradientUnits="userSpaceOnUse">
<stop stop-color="#444B8C"/>
<stop offset="0.9964" stop-color="#26264F"/>
</linearGradient>
<linearGradient id="paint6_linear" x1="265.237" y1="-15.6221" x2="476.587" y2="211.71" gradientUnits="userSpaceOnUse">
<stop stop-color="#FF9085"/>
<stop offset="1" stop-color="#FB6FBB"/>
</linearGradient>
<linearGradient id="paint7_linear" x1="196.37" y1="280.882" x2="520.894" y2="280.882" gradientUnits="userSpaceOnUse">
<stop stop-color="#444B8C"/>
<stop offset="0.9964" stop-color="#26264F"/>
</linearGradient>
<linearGradient id="paint8_linear" x1="297.387" y1="109.032" x2="389.853" y2="309.828" gradientUnits="userSpaceOnUse">
<stop stop-color="#FFC444"/>
<stop offset="0.9964" stop-color="#F36F56"/>
</linearGradient>
<linearGradient id="paint9_linear" x1="414.961" y1="64.3929" x2="500.201" y2="249.496" gradientUnits="userSpaceOnUse">
<stop stop-color="#FFC444"/>
<stop offset="0.9964" stop-color="#F36F56"/>
</linearGradient>
<linearGradient id="paint10_linear" x1="312.78" y1="102.051" x2="401.293" y2="294.262" gradientUnits="userSpaceOnUse">
<stop stop-color="#FFC444"/>
<stop offset="0.9964" stop-color="#F36F56"/>
</linearGradient>
<linearGradient id="paint11_linear" x1="298.856" y1="417.166" x2="190.635" y2="324.678" gradientUnits="userSpaceOnUse">
<stop stop-color="#444B8C"/>
<stop offset="0.9964" stop-color="#26264F"/>
</linearGradient>
<linearGradient id="paint12_linear" x1="209.311" y1="445.607" x2="223.579" y2="61.3456" gradientUnits="userSpaceOnUse">
<stop stop-color="#444B8C"/>
<stop offset="0.9964" stop-color="#26264F"/>
</linearGradient>
<linearGradient id="paint13_linear" x1="168.029" y1="273.695" x2="223.289" y2="393.694" gradientUnits="userSpaceOnUse">
<stop stop-color="#FFC444"/>
<stop offset="0.9964" stop-color="#F36F56"/>
</linearGradient>
<linearGradient id="paint14_linear" x1="194.412" y1="341.629" x2="243.837" y2="448.959" gradientUnits="userSpaceOnUse">
<stop stop-color="#FFC444"/>
<stop offset="0.9964" stop-color="#F36F56"/>
</linearGradient>
<linearGradient id="paint15_linear" x1="192.606" y1="212.825" x2="244.162" y2="324.783" gradientUnits="userSpaceOnUse">
<stop stop-color="#FF9085"/>
<stop offset="1" stop-color="#FB6FBB"/>
</linearGradient>
<linearGradient id="paint16_linear" x1="199.97" y1="393.295" x2="235.709" y2="470.906" gradientUnits="userSpaceOnUse">
<stop stop-color="#FFC444"/>
<stop offset="0.9964" stop-color="#F36F56"/>
</linearGradient>
<linearGradient id="paint17_linear" x1="235.603" y1="276.823" x2="282.879" y2="379.484" gradientUnits="userSpaceOnUse">
<stop stop-color="#FFC444"/>
<stop offset="0.9964" stop-color="#F36F56"/>
</linearGradient>
<linearGradient id="paint18_linear" x1="357.84" y1="424.481" x2="290.438" y2="366.879" gradientUnits="userSpaceOnUse">
<stop stop-color="#444B8C"/>
<stop offset="0.9964" stop-color="#26264F"/>
</linearGradient>
<linearGradient id="paint19_linear" x1="301.581" y1="448.254" x2="311.291" y2="186.728" gradientUnits="userSpaceOnUse">
<stop stop-color="#444B8C"/>
<stop offset="0.9964" stop-color="#26264F"/>
</linearGradient>
<linearGradient id="paint20_linear" x1="279.303" y1="334.807" x2="314.4" y2="411.021" gradientUnits="userSpaceOnUse">
<stop stop-color="#FFC444"/>
<stop offset="0.9964" stop-color="#F36F56"/>
</linearGradient>
<linearGradient id="paint21_linear" x1="293.228" y1="383.958" x2="322.094" y2="446.643" gradientUnits="userSpaceOnUse">
<stop stop-color="#FFC444"/>
<stop offset="0.9964" stop-color="#F36F56"/>
</linearGradient>
<linearGradient id="paint22_linear" x1="296.981" y1="418.294" x2="316.502" y2="460.684" gradientUnits="userSpaceOnUse">
<stop stop-color="#FFC444"/>
<stop offset="0.9964" stop-color="#F36F56"/>
</linearGradient>
<linearGradient id="paint23_linear" x1="313.457" y1="336.647" x2="344.023" y2="403.022" gradientUnits="userSpaceOnUse">
<stop stop-color="#FFC444"/>
<stop offset="0.9964" stop-color="#F36F56"/>
</linearGradient>
<linearGradient id="paint24_linear" x1="291.918" y1="293.093" x2="322.487" y2="359.475" gradientUnits="userSpaceOnUse">
<stop stop-color="#FF9085"/>
<stop offset="1" stop-color="#FB6FBB"/>
</linearGradient>
<linearGradient id="paint25_linear" x1="472.914" y1="339.544" x2="558.269" y2="441.122" gradientUnits="userSpaceOnUse">
<stop offset="0.00359712" stop-color="#E38DDD"/>
<stop offset="1" stop-color="#9571F6"/>
</linearGradient>
<linearGradient id="paint26_linear" x1="480.337" y1="456.332" x2="483.846" y2="394.597" gradientUnits="userSpaceOnUse">
<stop stop-color="#AA80F9"/>
<stop offset="0.9964" stop-color="#6165D7"/>
</linearGradient>
</defs>
</svg>
